<?xml version="1.0" encoding="UTF-8"?>
<svg width="169px" height="33px" viewBox="0 0 169 33" version="1.1" xmlns="http://www.w3.org/2000/svg" xmlns:xlink="http://www.w3.org/1999/xlink">
    <title>独家解决方案备份</title>
    <g id="最新版备份" stroke="none" stroke-width="1" fill="none" fill-rule="evenodd">
        <g id="行业案例" transform="translate(-826.000000, -2669.000000)">
            <g id="3备份-6" transform="translate(0.000000, 2432.000000)">
                <g id="编组-16" transform="translate(540.000000, 201.000000)">
                    <g id="独家解决方案备份" transform="translate(286.000000, 36.000000)">
                        <rect id="Rectangle-3" fill="#FC790D" x="0" y="0" width="168.396783" height="32.9471966" rx="3.6022268"></rect>
                        <text id="独家功能" font-family="FZLTCHJW--GB1-0, FZLanTingHeiS-B-GB" font-size="18.011134" font-weight="normal" line-spacing="21.6133608" fill="#FFFFFF">
                            <tspan x="86.5413021" y="21.4033402">独家功能</tspan>
                        </text>
                        <g id="句客宝logo" transform="translate(7.497317, 6.604082)">
                            <path d="M8.40511241,-1.49213975e-13 C10.6847903,-1.49213975e-13 12.655993,0.815479062 14.3178861,2.44414973 C15.9791114,4.07380073 16.8103917,6.00670341 16.8103917,8.24155066 C16.8103917,13.2066434 13.2742787,16.8621659 6.20255331,19.2118763 L6.20255331,19.2118763 L6.20255331,16.1994564 C4.30863626,15.6681124 2.80131465,14.6547682 1.68092233,13.1584433 C0.559695389,11.6617917 0,10.0236445 0,8.24155066 C0,6.00670341 0.830278814,4.07380073 2.49250568,2.44414973 C4.15339716,0.815479062 6.12443299,-1.49213975e-13 8.40511241,-1.49213975e-13 Z M8.48188065,5.07685141 C6.73285343,5.03453343 5.28362129,6.24688659 5.24472805,7.78503924 C5.20600173,9.3230285 6.59230361,10.603842 8.34149776,10.6464868 C8.41177267,10.6486109 8.48054526,10.6443627 8.54948478,10.6425654 C8.54948478,10.6428922 8.8474437,10.8492537 9.17428043,11.0139507 C9.53867502,11.1971108 9.98636456,11.3201434 10.2465987,11.2982492 C10.5909624,11.2693292 10.6452127,11.0525107 10.5762731,10.941569 C10.510839,10.8358557 10.3964963,10.8311174 10.2859927,10.7631472 C10.1532883,10.6811255 10.0945312,10.6396244 10.0399471,10.5123437 C9.97735067,10.3657829 10.0497956,10.2569653 10.1875077,10.1842567 C10.1875077,10.1842567 10.1983577,10.1741266 10.2170532,10.1563171 C11.0194557,9.66925173 11.555281,8.86406623 11.5786504,7.93862576 C11.6175436,6.40079989 10.2312417,5.11949618 8.48188065,5.07685141 Z" id="形状结合" fill="#FFFFFF"></path>
                            <path d="M31.2752353,17.7809651 C31.661096,17.7809651 32.0780746,17.695755 32.5261709,17.5253349 C32.9742672,17.3549148 33.3912457,17.0810253 33.7771064,16.7036665 C34.1629672,16.3263077 34.4897041,15.8333067 34.7573171,15.2246635 C35.0249302,14.6160203 35.1649603,13.8734755 35.1774074,12.9970292 L35.1774074,12.9970292 L35.2707608,4.65253051 C35.2956551,4.23865311 35.1587368,3.88564004 34.8600059,3.59349128 C34.5488279,3.28916967 34.1567436,3.13700886 33.683753,3.13700886 L33.683753,3.13700886 L26.0474449,3.13700886 C26.1345747,2.89355156 26.215481,2.63487819 26.2901637,2.36098873 C26.3648465,2.08709928 26.4519763,1.79799374 26.5515533,1.49367213 C26.6137889,1.31107916 26.5951182,1.13761583 26.4955412,0.973282161 C26.3959643,0.808948488 26.2528224,0.69634949 26.0661156,0.635485166 C25.8669617,0.574620843 25.6833666,0.59288014 25.5153305,0.690263057 C25.3472944,0.787645975 25.2321585,0.927633919 25.1699229,1.11022689 C24.9583219,1.82842591 24.7560562,2.47358773 24.5631258,3.04571237 C24.3701955,3.61783701 24.1679298,4.14431341 23.9563287,4.62514157 C23.7447277,5.10596972 23.5113442,5.55636571 23.2561782,5.97632954 C23.0010123,6.39629338 22.7053932,6.81321399 22.3693209,7.22709139 C22.2448497,7.38533863 22.1950613,7.55880195 22.2199555,7.74748136 C22.2448497,7.93616076 22.3382031,8.09136478 22.5000157,8.21309343 C22.636934,8.31047635 22.7800759,8.35916781 22.9294413,8.35916781 C23.0290183,8.35916781 23.131707,8.33786529 23.2375076,8.29526027 C23.3433081,8.25265524 23.4335497,8.18266127 23.5082324,8.08527835 C23.9687759,7.51315371 24.3577484,6.95015872 24.6751499,6.39629338 C24.9925515,5.84242803 25.281947,5.21856872 25.5433365,4.52471543 L25.5433365,4.52471543 L33.683753,4.52471543 C33.7584358,4.52471543 33.8082242,4.54297473 33.8331185,4.57949332 C33.8455656,4.57949332 33.8517892,4.59775262 33.8517892,4.63427121 L33.8517892,4.63427121 L33.7397651,12.97877 C33.727318,13.6726232 33.6246292,14.2386614 33.4316989,14.6768846 C33.2387685,15.1151077 33.0116086,15.4620343 32.750219,15.7176645 C32.4888295,15.9732947 32.2181047,16.146758 31.9380445,16.2380545 C31.6579843,16.329351 31.4370479,16.3749992 31.2752353,16.3749992 L31.2752353,16.3749992 L30.8084683,16.3749992 C30.5968673,16.3628263 30.4226076,16.4236907 30.2856893,16.5575922 C30.148771,16.6914937 30.0803118,16.8558274 30.0803118,17.0505932 C30.0678647,17.2575319 30.1301003,17.427952 30.2670186,17.5618535 C30.4039369,17.695755 30.571973,17.7687922 30.771127,17.7809651 L30.771127,17.7809651 L31.2752353,17.7809651 Z M30.5653297,13.7639197 C30.9014019,13.7639197 31.1876857,13.6482775 31.424181,13.4169931 C31.6606762,13.1857087 31.7789239,12.9057328 31.7789239,12.5770654 L31.7789239,12.5770654 L31.7789239,7.99398187 C31.7789239,7.66531452 31.6606762,7.38533863 31.424181,7.1540542 C31.1876857,6.92276977 30.9014019,6.80712756 30.5653297,6.80712756 L30.5653297,6.80712756 L26.1963906,6.80712756 C25.8603183,6.80712756 25.5740346,6.92276977 25.3375393,7.1540542 C25.101044,7.38533863 24.9827964,7.66531452 24.9827964,7.99398187 L24.9827964,7.99398187 L24.9827964,12.5770654 C24.9827964,12.9057328 25.101044,13.1857087 25.3375393,13.4169931 C25.5740346,13.6482775 25.8603183,13.7639197 26.1963906,13.7639197 L26.1963906,13.7639197 L30.5653297,13.7639197 Z M30.3412815,12.3579539 L26.4204387,12.3579539 L26.4204387,8.19483413 L30.3412815,8.19483413 L30.3412815,12.3579539 Z M52.4656175,6.18631146 C52.6647715,6.18631146 52.8359194,6.11631749 52.9790612,5.97632954 C53.1222031,5.8363416 53.1937741,5.67505114 53.1937741,5.49245817 L53.1937741,5.49245817 L53.1937741,3.5021948 C53.1937741,3.17352745 53.0724146,2.89355156 52.8296958,2.66226714 C52.586977,2.43098271 52.2975814,2.31534049 51.9615092,2.31534049 L51.9615092,2.31534049 L47.7419355,2.31534049 L47.0884617,1.0189304 C46.9888847,0.848510298 46.8488546,0.729824868 46.6683714,0.662874112 C46.4878882,0.595923356 46.3105167,0.605053005 46.136257,0.690263057 C45.9619973,0.77547311 45.8375261,0.909374622 45.7628434,1.09196759 C45.6881607,1.27456056 45.7006078,1.4510671 45.8001848,1.62148721 L45.8001848,1.62148721 L46.1549277,2.2970812 L41.6366231,2.2970812 C41.2881038,2.2970812 40.9955965,2.41272341 40.7591012,2.64400784 C40.5226059,2.87529227 40.4043583,3.15526816 40.4043583,3.4839355 L40.4043583,3.4839355 L40.4043583,5.47419888 C40.4043583,5.68113758 40.4759292,5.85155768 40.6190711,5.98545919 C40.762213,6.1193607 40.9333609,6.18631146 41.1325148,6.18631146 C41.3316687,6.18631146 41.4997048,6.11631749 41.6366231,5.97632954 C41.7735415,5.8363416 41.8420006,5.67505114 41.8420006,5.49245817 L41.8420006,5.49245817 L41.8420006,3.72130636 L51.7561317,3.72130636 L51.7561317,5.49245817 C51.7561317,5.67505114 51.8245909,5.8363416 51.9615092,5.97632954 C52.0984275,6.11631749 52.2664636,6.18631146 52.4656175,6.18631146 Z M52.8577018,12.430991 C53.0319615,12.430991 53.1844387,12.3792564 53.3151335,12.275787 C53.4458282,12.1723177 53.5236227,12.0353729 53.548517,11.8649528 C53.5983055,11.670187 53.5671877,11.4936805 53.4551636,11.3354332 C53.3431395,11.177186 53.1875505,11.0798031 52.9883966,11.0432845 C51.9303914,10.8363458 51.0061927,10.6263639 50.2158006,10.4133387 C49.4254085,10.2003136 48.7314815,9.95989951 48.1340198,9.69209649 C48.78127,9.26604622 49.3569493,8.80347737 49.8610577,8.30438991 C50.365166,7.80530246 50.8101506,7.25143712 51.1960113,6.64279389 C51.270694,6.5332381 51.3111472,6.40846624 51.3173707,6.2684783 C51.3235943,6.12849035 51.3018118,6.00067527 51.2520233,5.88503306 C51.2022349,5.76939085 51.1244404,5.66896471 51.0186398,5.58375466 C50.9128393,5.49854461 50.7852563,5.45593958 50.6358909,5.45593958 L50.6358909,5.45593958 L45.202723,5.45593958 C45.2525115,5.35855666 45.2960764,5.27334661 45.3334178,5.20030942 C45.3707591,5.12727223 45.4081005,5.04206218 45.4454419,4.94467926 C45.5325717,4.77425916 45.541907,4.60079584 45.4734479,4.4242893 C45.4049887,4.24778276 45.2774057,4.11083803 45.0906989,4.01345512 C44.9164393,3.92824506 44.7390678,3.91911541 44.5585846,3.98606617 C44.3781013,4.05301693 44.2380712,4.17778879 44.1384943,4.36038176 C43.8148691,5.02988932 43.3978906,5.66287828 42.8875587,6.25934865 C42.3772268,6.85581902 41.7735415,7.3975115 41.0765027,7.88442608 C40.9022431,7.99398187 40.8026661,8.14309946 40.7777719,8.33177886 C40.7528776,8.52045826 40.790219,8.69392158 40.8897959,8.85216883 C41.0516085,9.04693466 41.2507624,9.14431758 41.4872577,9.14431758 C41.6490703,9.14431758 41.779765,9.09562612 41.879342,8.9982432 C42.1282844,8.8278231 42.3678914,8.65131656 42.5981632,8.46872359 C42.8284349,8.28613062 43.0493713,8.09136478 43.2609723,7.88442608 C43.5845974,8.21309343 43.9051108,8.5265447 44.2225123,8.82477988 C44.5399139,9.12301506 44.8790979,9.39994774 45.2400644,9.65557789 C43.9455639,10.2155297 42.4145681,10.6780985 40.6470771,11.0432845 C40.4479232,11.0798031 40.2923342,11.1802292 40.1803101,11.3445629 C40.068286,11.5088965 40.0371682,11.6884463 40.0869567,11.8832121 C40.1242981,12.0414594 40.2083161,12.1723177 40.3390109,12.275787 C40.4697056,12.3792564 40.6221829,12.430991 40.7964425,12.430991 C40.8586781,12.430991 40.9084666,12.4249046 40.945808,12.4127317 C42.0784959,12.1814473 43.1178304,11.9106011 44.0638115,11.600193 C45.0097927,11.289785 45.8810911,10.9398151 46.6777067,10.5502834 C47.4120868,10.9398151 48.2616028,11.2836985 49.2262546,11.5819337 C50.1909064,11.8801689 51.3578239,12.1571016 52.7270071,12.4127317 C52.7519013,12.4127317 52.7736838,12.415775 52.7923544,12.4218614 C52.8110251,12.4279478 52.8328076,12.430991 52.8577018,12.430991 Z M46.6590361,8.92520601 C46.2233869,8.64523013 45.8064083,8.33482208 45.4081005,7.99398187 C45.0097927,7.65314165 44.6114848,7.27578285 44.213177,6.86190545 L44.213177,6.86190545 L49.2355899,6.86190545 C48.5385512,7.66531452 47.6796999,8.35308137 46.6590361,8.92520601 Z M50.4118427,17.5435942 C50.7105736,17.5435942 50.9688514,17.4370816 51.186676,17.2240565 C51.4045006,17.0110314 51.5134129,16.7584444 51.5134129,16.4662957 L51.5134129,16.4662957 L51.5134129,13.289178 C51.5134129,12.9848564 51.4076123,12.726183 51.1960113,12.5131579 C50.9844103,12.3001327 50.7230207,12.1936202 50.4118427,12.1936202 L50.4118427,12.1936202 L43.1302775,12.1936202 C42.8315467,12.1936202 42.5732689,12.3001327 42.3554443,12.5131579 C42.1376197,12.726183 42.0287074,12.9909428 42.0287074,13.3074373 L42.0287074,13.3074373 L42.0287074,16.4662957 C42.0287074,16.7584444 42.1345079,17.0110314 42.346109,17.2240565 C42.55771,17.4370816 42.8190995,17.5435942 43.1302775,17.5435942 L43.1302775,17.5435942 L50.4118427,17.5435942 Z M50.0944412,16.1558876 L43.4663498,16.1558876 L43.4663498,13.5813268 L50.0944412,13.5813268 L50.0944412,16.1558876 Z M58.4398154,6.47846021 C58.6389693,6.47846021 58.8070054,6.40846624 58.9439237,6.2684783 C59.080842,6.12849035 59.1493012,5.96111346 59.1493012,5.76634763 L59.1493012,5.76634763 L59.1493012,4.26908527 L69.0634323,4.26908527 L69.0634323,5.76634763 C69.0634323,5.9489406 69.1318914,6.11023106 69.2688098,6.250219 C69.4057281,6.39020694 69.5737642,6.46020092 69.7729181,6.46020092 C69.972072,6.46020092 70.1432199,6.39020694 70.2863618,6.250219 C70.4295037,6.11023106 70.5010746,5.94285417 70.5010746,5.74808833 L70.5010746,5.74808833 L70.5010746,3.94041793 C70.5010746,3.63609631 70.382827,3.38046615 70.1463317,3.17352745 C69.9098364,2.96658875 69.6173291,2.8631194 69.2688098,2.8631194 L69.2688098,2.8631194 L65.403979,2.8631194 C65.3915319,2.77790935 65.3604141,2.6926993 65.3106256,2.60748924 L65.3106256,2.60748924 L64.2277262,0.98241181 C64.1281492,0.811991704 63.9818955,0.708522355 63.7889652,0.67200376 C63.5960348,0.635485166 63.4124398,0.665917328 63.2381801,0.763300246 C63.0639204,0.872856028 62.9581199,1.02197362 62.9207786,1.21065302 C62.8834372,1.39933243 62.9207786,1.57279575 63.0328026,1.73104299 L63.0328026,1.73104299 L63.7609592,2.8813787 L58.9439237,2.8813787 C58.5954044,2.8813787 58.302897,2.98789127 58.0664018,3.2009164 C57.8299065,3.41394153 57.7116588,3.66652847 57.7116588,3.95867722 L57.7116588,3.95867722 L57.7116588,5.76634763 C57.7116588,5.96111346 57.7832298,6.12849035 57.9263717,6.2684783 C58.0695135,6.40846624 58.2406614,6.47846021 58.4398154,6.47846021 Z M69.9036129,17.5253349 C70.1152139,17.5253349 70.2894736,17.4553409 70.4263919,17.315353 C70.5633102,17.1753651 70.6317694,17.0140746 70.6317694,16.8314816 C70.6317694,16.6367158 70.5601985,16.4693389 70.4170566,16.329351 C70.2739147,16.189363 70.1027668,16.119369 69.9036129,16.119369 L69.9036129,16.119369 L64.7505052,16.119369 L64.7505052,12.1753609 L68.8020428,12.1753609 C69.0136438,12.1753609 69.1879035,12.1084101 69.3248218,11.9745086 C69.4617401,11.8406071 69.5301993,11.6762734 69.5301993,11.4815076 C69.5301993,11.2867418 69.4586283,11.1193649 69.3154865,10.9793769 C69.1723446,10.839389 69.0011967,10.769395 68.8020428,10.769395 L68.8020428,10.769395 L64.7505052,10.769395 L64.7505052,8.04875976 L69.3995045,8.04875976 C69.6111056,8.04875976 69.7853652,7.981809 69.9222836,7.84790749 C70.0592019,7.71400598 70.127661,7.5496723 70.127661,7.35490647 C70.127661,7.16014063 70.0560901,6.99276375 69.9129482,6.8527758 C69.7698063,6.71278786 69.5986584,6.64279389 69.3995045,6.64279389 L69.3995045,6.64279389 L59.5973975,6.64279389 C59.3857965,6.64279389 59.2146486,6.71278786 59.0839538,6.8527758 C58.9532591,6.99276375 58.8879117,7.16014063 58.8879117,7.35490647 C58.8879117,7.5496723 58.9563708,7.71400598 59.0932892,7.84790749 C59.2302075,7.981809 59.3982436,8.04875976 59.5973975,8.04875976 L59.5973975,8.04875976 L63.2941922,8.04875976 L63.2941922,10.769395 L59.5973975,10.769395 C59.3857965,10.769395 59.2146486,10.839389 59.0839538,10.9793769 C58.9532591,11.1193649 58.8879117,11.2867418 58.8879117,11.4815076 C58.8879117,11.6762734 58.9563708,11.8406071 59.0932892,11.9745086 C59.2302075,12.1084101 59.3982436,12.1753609 59.5973975,12.1753609 L59.5973975,12.1753609 L63.2941922,12.1753609 L63.2941922,16.119369 L58.2344379,16.119369 C58.035284,16.119369 57.8672478,16.189363 57.7303295,16.329351 C57.5934112,16.4693389 57.524952,16.6367158 57.524952,16.8314816 C57.524952,17.0140746 57.596523,17.1753651 57.7396649,17.315353 C57.8828067,17.4553409 58.0477311,17.5253349 58.2344379,17.5253349 L58.2344379,17.5253349 L69.9036129,17.5253349 Z" id="句客宝" stroke="#FFFFFF" stroke-width="0.519999981" fill="#FFFFFF" fill-rule="nonzero"></path>
                            <circle id="椭圆形" stroke="#FFFFFF" stroke-width="0.975194876" fill="#FC790D" fill-rule="nonzero" cx="67.6411767" cy="14.1437834" r="1.40861482"></circle>
                        </g>
                    </g>
                </g>
            </g>
        </g>
    </g>
</svg>