<?xml version="1.0" encoding="UTF-8"?>
<svg width="221px" height="254px" viewBox="0 0 221 254" version="1.1" xmlns="http://www.w3.org/2000/svg" xmlns:xlink="http://www.w3.org/1999/xlink">
    <title>9-客户信息打通</title>
    <defs>
        <polyline id="path-1" points="171.158773 0.532866328 171.158935 25.1428556 0 25.1428556 0 0.53248513"></polyline>
        <polygon id="path-3" points="0 164.645151 171.158935 164.645151 171.158935 0.152073724 0 0.152073724"></polygon>
        <polygon id="path-5" points="0.369113342 0.335520054 7.68237359 0.335520054 7.68237359 6.03655632 0.369113342 6.03655632"></polygon>
        <polygon id="path-7" points="0 164.645151 171.158935 164.645151 171.158935 0.152073724 0 0.152073724"></polygon>
        <polygon id="path-9" points="0.0583314251 0.569920408 7.34012214 0.569920408 7.34012214 6.27784663 0.0583314251 6.27784663"></polygon>
        <polygon id="path-11" points="0 164.645151 171.158935 164.645151 171.158935 0.152073724 0 0.152073724"></polygon>
        <polygon id="path-13" points="0.053100089 0.3720656 14.7221153 0.3720656 14.7221153 15.0410564 0.053100089 15.0410564"></polygon>
        <polyline id="path-15" points="0 164.645151 171.158935 164.645151 171.158935 0.152073724 0 0.152073724"></polyline>
        <polygon id="path-17" points="0.379470576 0.0582989827 76.2930675 0.0582989827 76.2930675 33.7870505 0.379470576 33.7870505"></polygon>
        <polygon id="path-19" points="0 164.645151 171.158935 164.645151 171.158935 0.152073724 0 0.152073724"></polygon>
        <polygon id="path-21" points="0.196949666 0.618189825 46.2493827 0.618189825 46.2493827 16.6044382 0.196949666 16.6044382"></polygon>
        <polygon id="path-23" points="0 164.645151 171.158935 164.645151 171.158935 0.152073724 0 0.152073724"></polygon>
        <polygon id="path-25" points="0.0918119761 0.796228008 1.89569021 0.796228008 1.89569021 3.6461196 0.0918119761 3.6461196"></polygon>
        <polyline id="path-27" points="0 164.645151 171.158935 164.645151 171.158935 0.152073724 0 0.152073724"></polyline>
        <polygon id="path-29" points="0.638141897 0.421183385 18.263527 0.421183385 18.263527 15.9024344 0.638141897 15.9024344"></polygon>
        <polyline id="path-31" points="0 164.645151 171.158935 164.645151 171.158935 0.152073724 0 0.152073724"></polyline>
        <polygon id="path-33" points="0.785714239 0.796228008 2.59586521 0.796228008 2.59586521 3.6461196 0.785714239 3.6461196"></polygon>
        <polyline id="path-35" points="0 164.645151 171.158935 164.645151 171.158935 0.152073724 0 0.152073724"></polyline>
        <polygon id="path-37" points="0.715298022 0.0829714236 32.3458458 0.0829714236 32.3458458 35.9790777 0.715298022 35.9790777"></polygon>
        <polygon id="path-39" points="0 164.645151 171.158935 164.645151 171.158935 0.152073724 0 0.152073724"></polygon>
        <polygon id="path-41" points="0.220170309 0.421451035 30.4414854 0.421451035 30.4414854 42.6220002 0.220170309 42.6220002"></polygon>
        <polygon id="path-43" points="0 164.645151 171.158935 164.645151 171.158935 0.152073724 0 0.152073724"></polygon>
        <polygon id="path-45" points="0.806112394 0.186381556 16.9719142 0.186381556 16.9719142 34.4663861 0.806112394 34.4663861"></polygon>
        <polyline id="path-47" points="0 164.645151 171.158935 164.645151 171.158935 0.152073724 0 0.152073724"></polyline>
        <polygon id="path-49" points="0.689110537 0.765998695 18.3571233 0.765998695 18.3571233 22.2491157 0.689110537 22.2491157"></polygon>
        <polygon id="path-51" points="0 164.645151 171.158935 164.645151 171.158935 0.152073724 0 0.152073724"></polygon>
        <polygon id="path-53" points="0 164.645151 171.158935 164.645151 171.158935 0.152073724 0 0.152073724"></polygon>
        <polygon id="path-55" points="0 164.645151 171.158935 164.645151 171.158935 0.152073724 0 0.152073724"></polygon>
        <polygon id="path-57" points="0.659391666 0.718636344 7.96246824 0.718636344 7.96246824 6.72579499 0.659391666 6.72579499"></polygon>
        <polygon id="path-59" points="0.394765774 0.152065613 5.16995265 0.152065613 5.16995265 9.96062613 0.394765774 9.96062613"></polygon>
        <polygon id="path-61" points="0 164.645151 171.158935 164.645151 171.158935 0.152073724 0 0.152073724"></polygon>
    </defs>
    <g id="最新版备份" stroke="none" stroke-width="1" fill="none" fill-rule="evenodd">
        <g id="十大功能" transform="translate(-857.000000, -480.000000)">
            <g id="9-客户信息打通" transform="translate(857.250000, 480.000000)">
                <rect id="矩形" fill="#FFFDF8" x="0" y="0" width="219.310578" height="253.050667" rx="16.6399984"></rect>
                <text id="客户信息打通" font-family="FZLTCHJW--GB1-0, FZLanTingHeiS-B-GB" font-size="26.6239974" font-weight="normal" fill="#000000" fill-opacity="0.7">
                    <tspan x="29.7832967" y="227.498321">客户信息打通</tspan>
                </text>
                <g id="编组" transform="translate(24.331797, 18.248848)">
                    <g transform="translate(91.649764, 11.202764)">
                        <polygon id="Fill-1" fill="#E6E6E6" points="0.154344691 5.65535819 16.5521826 5.65535819 16.5521826 3.06227005 0.154344691 3.06227005"></polygon>
                        <polygon id="Fill-3" fill="#C9C9C9" points="4.15043662 3.04974728 16.5521664 3.04974728 16.5521664 0.456659143 4.15043662 0.456659143"></polygon>
                    </g>
                    <g transform="translate(0.000000, 0.658986)">
                        <g transform="translate(0.000000, 139.502296)">
                            <mask id="mask-2" fill="white">
                                <use xlink:href="#path-1"></use>
                            </mask>
                            <g id="Clip-5"></g>
                            <path d="M85.5844963,0.53235536 C132.851362,0.53235536 171.168911,6.04297992 171.168911,12.840132 C171.168911,19.6379045 132.851362,25.1479035 85.5844963,25.1479035 C38.317639,25.1479035 6.26349817e-05,19.6379045 6.26349817e-05,12.840132 C6.26349817e-05,6.04297992 38.317639,0.53235536 85.5844963,0.53235536" id="Fill-4" fill-opacity="0.45" fill="#E6E6E6" mask="url(#mask-2)"></path>
                        </g>
                        <mask id="mask-4" fill="white">
                            <use xlink:href="#path-3"></use>
                        </mask>
                        <g id="Clip-7"></g>
                        <polygon id="Fill-6" fill="#E6E6E6" mask="url(#mask-4)" points="125.977629 36.6431167 125.977629 48.1492174 133.412372 48.1492174 135.034654 52.7278125 136.957514 48.1492174 144.392257 48.1492174 144.392257 36.6431167"></polygon>
                    </g>
                    <g transform="translate(0.000000, 0.658986)">
                        <g transform="translate(131.391697, 38.930873)">
                            <mask id="mask-6" fill="white">
                                <use xlink:href="#path-5"></use>
                            </mask>
                            <g id="Clip-9"></g>
                            <path d="M2.86612333,6.03655632 L2.86612333,6.03655632 C2.69701735,6.02966231 2.53983395,5.94944849 2.43455838,5.81732684 L0.492232229,3.31188183 C0.298064498,3.0688883 0.337563114,2.71372518 0.581205495,2.51955745 C0.584368629,2.51647543 0.588748352,2.51331229 0.592479227,2.51014916 C0.839284743,2.31411599 1.19752988,2.3548312 1.39356305,2.60163671 C1.39607734,2.60471874 1.39794277,2.60723302 1.40045706,2.61039616 L2.929386,4.57713521 L6.68751297,0.505858034 C6.90422816,0.282897679 7.26125671,0.277869108 7.48421707,0.49523315 C7.48794794,0.498315178 7.49175992,0.502127159 7.4954908,0.505858034 C7.7285083,0.716976916 7.74602719,1.07773634 7.53490831,1.31132158 C7.53182628,1.31383587 7.52931199,1.316999 7.52614886,1.32008103 L3.29833713,5.84863375 C3.18868184,5.97077937 3.03084959,6.03907061 2.86612333,6.03655632" id="Fill-8" fill-opacity="0.12" fill="#000000" mask="url(#mask-6)"></path>
                        </g>
                        <mask id="mask-8" fill="white">
                            <use xlink:href="#path-7"></use>
                        </mask>
                        <g id="Clip-11"></g>
                        <polygon id="Fill-10" fill="#E6E6E6" mask="url(#mask-8)" points="26.7011693 39.3177488 26.7011693 50.8237684 34.135936 50.8237684 35.7644469 55.4023635 37.6873401 50.8237684 45.1221149 50.8237684 45.1221149 39.3177488"></polygon>
                    </g>
                    <g transform="translate(0.000000, 0.658986)">
                        <g transform="translate(32.442394, 41.364053)">
                            <mask id="mask-10" fill="white">
                                <use xlink:href="#path-9"></use>
                            </mask>
                            <g id="Clip-13"></g>
                            <path d="M2.53930676,6.27784663 L2.53930676,6.27784663 C2.37019267,6.27095262 2.21235231,6.19081991 2.1071254,6.05861715 L0.16543999,3.55325324 C-0.0193356671,3.29395741 0.0407963109,2.93441457 0.300108369,2.74965514 C0.543750751,2.57616943 0.880105385,2.61745238 1.0736486,2.84544131 L2.6019368,4.81218036 L6.36003944,0.740903182 C6.58051795,0.516077389 6.9412936,0.512346513 7.16615183,0.732792583 L7.17429487,0.740903182 C7.3953979,0.96702667 7.3953979,1.32908379 7.17429487,1.55520728 L2.9401731,6.12131208 C2.83306453,6.22528995 2.68837956,6.28165861 2.53930676,6.27784663" id="Fill-12" fill-opacity="0.12" fill="#000000" mask="url(#mask-10)"></path>
                        </g>
                        <mask id="mask-12" fill="white">
                            <use xlink:href="#path-11"></use>
                        </mask>
                        <g id="Clip-15"></g>
                        <polygon id="Fill-14" fill="#C9C9C9" mask="url(#mask-12)" points="48.3479433 150.670201 123.322017 150.670201 123.322017 16.211724 48.3479433 16.211724"></polygon>
                        <polygon id="Fill-16" fill="#FFFFFF" mask="url(#mask-12)" points="54.5488041 126.167393 116.607544 126.167393 116.607544 31.5384438 54.5488041 31.5384438"></polygon>
                    </g>
                    <g transform="translate(78.672806, 131.239624)">
                        <mask id="mask-14" fill="white">
                            <use xlink:href="#path-13"></use>
                        </mask>
                        <g id="Clip-18"></g>
                        <path d="M7.38761984,0.371943941 C11.438215,0.371943941 14.7221153,3.65589287 14.7221153,7.70649613 C14.7221153,11.757732 11.438215,15.0410564 7.38761984,15.0410564 C3.33702469,15.0410564 0.0530352042,11.757732 0.0530352042,7.70649613 C0.0530352042,3.65589287 3.33702469,0.371943941 7.38761984,0.371943941" id="Fill-17" fill-opacity="0.56" fill="#FFFFFF" mask="url(#mask-14)"></path>
                    </g>
                    <g transform="translate(0.000000, 0.658986)">
                        <polygon id="Fill-19" fill-opacity="0.12" fill="#000000" points="79.4900546 21.4667625 100.510358 21.4667625 100.510358 24.5296133 79.4900546 24.5296133"></polygon>
                        <mask id="mask-16" fill="white">
                            <use xlink:href="#path-15"></use>
                        </mask>
                        <g id="Clip-22"></g>
                        <path d="M71.8800259,19.907302 C73.7722286,19.907302 75.3061618,21.4411784 75.3061618,23.3333811 C75.3061618,25.2255837 73.7722286,26.7595413 71.8800259,26.7595413 C69.9878233,26.7595413 68.4538982,25.2255837 68.4538982,23.3333811 C68.4538982,21.4411784 69.9878233,19.907302 71.8800259,19.907302" id="Fill-21" fill="#FFFFFF" mask="url(#mask-16)"></path>
                        <path d="M131.765271,64.7912736 C131.583594,66.1467168 131.583594,67.5196789 131.765271,68.8751222 C131.91183,69.5397046 132.562624,69.9655921 133.230938,69.8333894 C134.291317,69.6749894 135.161341,68.9108088 135.454458,67.8792218 L136.281253,65.7621933 C136.528058,64.8602136 136.182303,63.9006487 135.416906,63.3632405 C134.095284,62.3109714 131.883686,63.3006266 131.765271,64.7912736" id="Fill-23" fill="#F4A28C" mask="url(#mask-16)"></path>
                    </g>
                    <g transform="translate(0.000000, 0.658986)">
                        <g transform="translate(47.041472, 82.728106)">
                            <mask id="mask-18" fill="white">
                                <use xlink:href="#path-17"></use>
                            </mask>
                            <g id="Clip-25"></g>
                            <path d="M1.21251827,24.9743093 L1.53821558,31.7764656 L8.1148891,30.4116465 L10.9146758,18.5479576 C11.9951292,13.9630768 15.8465524,10.5557332 20.5291497,10.0421295 C25.5399424,9.49720275 31.7533341,8.98422361 35.7181029,9.25918913 C43.1904785,9.77906227 58.9745145,8.00649095 64.279657,12.5412645 C69.5848806,17.0766626 70.1423221,29.3023842 76.2930756,33.7870505 L76.2930756,25.274953 L74.4954426,2.36934106 L67.7120623,0.0580718859 L43.6977965,3.62203923 L41.1360639,4.06048197 L38.4803295,5.5010946 L32.8431796,2.6825156 L0.379470576,1.32333338 L1.21251827,24.9743093 Z" id="Fill-24" fill-opacity="0.08" fill="#000000" mask="url(#mask-18)"></path>
                        </g>
                        <mask id="mask-20" fill="white">
                            <use xlink:href="#path-19"></use>
                        </mask>
                        <g id="Clip-27"></g>
                        <polygon id="Fill-26" fill="#F4A28C" mask="url(#mask-20)" points="136.149699 66.1504477 137.064169 74.1488767 132.617128 74.3367993 133.738256 68.4365821"></polygon>
                        <path d="M40.556148,74.4244748 L82.7470845,83.9826044 L81.9766587,87.5715929 C81.9766587,87.5715929 60.8812026,87.0398215 45.1159752,90.0769893 C29.3507559,93.1147897 40.556148,74.4244748 40.556148,74.4244748" id="Fill-28" fill="#FC790D" mask="url(#mask-20)"></path>
                    </g>
                    <g transform="translate(0.000000, 0.658986)">
                        <g transform="translate(36.497694, 73.806447)">
                            <mask id="mask-22" fill="white">
                                <use xlink:href="#path-21"></use>
                            </mask>
                            <g id="Clip-30"></g>
                            <path d="M4.05845432,0.618027613 L46.2493908,10.1761572 L45.478965,13.7651457 C45.478965,13.7651457 24.383509,13.2333743 8.61828151,16.2705421 C-7.14693782,19.3083424 4.05845432,0.618027613 4.05845432,0.618027613" id="Fill-29" fill-opacity="0.08" fill="#000000" mask="url(#mask-22)"></path>
                        </g>
                        <mask id="mask-24" fill="white">
                            <use xlink:href="#path-23"></use>
                        </mask>
                        <g id="Clip-32"></g>
                        <path d="M131.639882,66.3385325 L130.93207,67.2530024 C130.799948,67.4308679 130.8375,67.6820531 131.015447,67.813607 C131.056081,67.8442651 131.102473,67.8661637 131.151299,67.8793029 L132.084586,68.0985323 L131.639882,66.3385325 Z" id="Fill-31" fill="#F4A28C" mask="url(#mask-24)"></path>
                        <path d="M130.831823,74.4244748 L88.8100002,84.7530139 L89.9374545,87.0329275 C89.9374545,87.0329275 110.500498,87.0329275 126.265718,90.0400374 C142.030937,93.0458901 130.831823,74.4244748 130.831823,74.4244748" id="Fill-33" fill="#F4A28C" mask="url(#mask-24)"></path>
                    </g>
                    <g transform="translate(0.000000, 0.658986)">
                        <g transform="translate(133.013817, 68.129028)">
                            <mask id="mask-26" fill="white">
                                <use xlink:href="#path-25"></use>
                            </mask>
                            <g id="Clip-35"></g>
                            <path d="M0.423778777,1.59170497 C0.98178796,1.47645337 1.49356673,1.20028749 1.89569021,0.796217464 C1.67767732,1.94062293 1.03320916,2.95963853 0.0918119761,3.6461196 L0.423778777,1.59170497 Z" id="Fill-34" fill-opacity="0.31" fill="#CE8172" mask="url(#mask-26)"></path>
                        </g>
                        <mask id="mask-28" fill="white">
                            <use xlink:href="#path-27"></use>
                        </mask>
                        <g id="Clip-37"></g>
                        <path d="M111.753262,88.1106314 L112.830592,78.8587824 L127.681342,75.0386905 L129.378728,90.390545 C123.409003,90.8521597 117.40862,90.0761133 111.753262,88.1106314" id="Fill-36" fill="#FC790D" mask="url(#mask-28)"></path>
                    </g>
                    <g transform="translate(0.000000, 0.658986)">
                        <g transform="translate(111.115201, 74.617507)">
                            <mask id="mask-30" fill="white">
                                <use xlink:href="#path-29"></use>
                            </mask>
                            <g id="Clip-39"></g>
                            <path d="M0.638060791,13.4931244 L1.7153916,4.24127532 L16.5661409,0.421183385 L18.263527,15.773038 C12.293802,16.2346527 6.29341898,15.4586063 0.638060791,13.4931244" id="Fill-38" fill-opacity="0.08" fill="#000000" mask="url(#mask-30)"></path>
                        </g>
                        <mask id="mask-32" fill="white">
                            <use xlink:href="#path-31"></use>
                        </mask>
                        <g id="Clip-41"></g>
                        <path d="M127.681179,75.0386094 C127.681179,75.0386094 146.74725,70.7731644 153.575077,74.6001504 C160.401686,78.4271363 146.998435,114.504888 146.998435,114.504888 L125.952405,113.840954 C125.952405,113.840954 107.531452,78.7027345 127.681179,75.0386094" id="Fill-40" fill="#FC790D" mask="url(#mask-32)"></path>
                        <path d="M131.940785,148.383896 C131.940785,148.383896 130.957375,150.150198 129.240604,150.018668 C127.524402,149.887131 126.810993,151.471796 128.264088,152.14826 C129.716615,152.824716 133.969489,151.521911 133.969489,151.521911 L134.332844,148.390157 L131.940785,148.383896 Z" id="Fill-42" fill="#FC790D" mask="url(#mask-32)"></path>
                        <path d="M147.361628,148.014474 C147.361628,148.014474 148.062546,149.893522 149.778749,150.043844 C151.495519,150.194174 151.95904,151.853999 150.405049,152.298704 C148.852356,152.743416 144.868754,150.795469 144.868754,150.795469 L144.980843,147.663715 L147.361628,148.014474 Z" id="Fill-43" fill="#FC790D" mask="url(#mask-32)"></path>
                        <path d="M125.952568,113.841076 L131.332895,148.383645 L134.852976,148.383645 C134.852976,148.383645 131.596003,122.40328 137.29013,119.271535 C142.98304,116.139781 144.085352,148.383645 144.085352,148.383645 L147.843479,148.083625 L147.7996,112.469371 L125.952568,113.841076 Z" id="Fill-44" fill="#24285B" mask="url(#mask-32)"></path>
                        <path d="M39.6166244,64.7912736 C39.8020245,66.1467168 39.8020245,67.5203278 39.6166244,68.8751222 C39.4694332,69.5397046 38.818655,69.9655921 38.1509662,69.8333894 C37.0905541,69.6775037 36.2218117,68.9114576 35.9336908,67.8792218 L35.1006431,65.7621933 C34.8538619,64.8589971 35.2021148,63.8981344 35.9712672,63.3632405 C37.2928649,62.3109714 39.4850948,63.3006266 39.6166244,64.7912736" id="Fill-45" fill="#F4A28C" mask="url(#mask-32)"></path>
                        <polygon id="Fill-46" fill="#F4A28C" mask="url(#mask-32)" points="35.2321808 66.1504477 34.3239721 74.1488767 38.7710539 74.3367993 37.6436239 68.4365821"></polygon>
                        <path d="M39.7419574,66.3385325 L40.4685211,67.2530024 C40.602565,67.4246227 40.5718744,67.6726448 40.3996216,67.806713 C40.3551511,67.8411019 40.3037948,67.8661637 40.2492997,67.8793029 L39.3160375,68.0985323 L39.7419574,66.3385325 Z" id="Fill-47" fill="#F4A28C" mask="url(#mask-32)"></path>
                    </g>
                    <g transform="translate(0.000000, 0.658986)">
                        <g transform="translate(35.686634, 68.129028)">
                            <mask id="mask-34" fill="white">
                                <use xlink:href="#path-33"></use>
                            </mask>
                            <g id="Clip-49"></g>
                            <path d="M2.25763378,1.59170497 C1.69955971,1.47645337 1.18782961,1.20028749 0.785714239,0.796217464 C1.00493561,1.94183952 1.65195861,2.96093623 2.59587008,3.6461196 L2.25763378,1.59170497 Z" id="Fill-48" fill-opacity="0.31" fill="#CE8172" mask="url(#mask-34)"></path>
                        </g>
                        <mask id="mask-36" fill="white">
                            <use xlink:href="#path-35"></use>
                        </mask>
                        <g id="Clip-51"></g>
                        <path d="M43.7004243,75.0386094 C43.7004243,75.0386094 24.6343373,70.7731644 17.8071274,74.6001504 C10.9799094,78.4271363 24.3838009,114.504888 24.3838009,114.504888 L45.4354192,113.840954 C45.4354192,113.840954 63.8501035,78.7027345 43.7004243,75.0386094" id="Fill-50" fill="#FC790D" mask="url(#mask-36)"></path>
                        <path d="M39.4474454,148.383896 C39.4474454,148.383896 40.4245535,150.150198 42.1407562,150.018668 C43.8569507,149.887131 44.577253,151.471796 43.1178562,152.14826 C41.6584595,152.824716 37.4180763,151.521911 37.4180763,151.521911 L37.0547945,148.390157 L39.4474454,148.383896 Z" id="Fill-52" fill="#FC790D" mask="url(#mask-36)"></path>
                        <path d="M24.0205759,148.014474 C24.0205759,148.014474 23.3253273,149.893522 21.6091327,150.043844 C19.8929301,150.194174 19.4231723,151.853999 20.9827836,152.298704 C22.542395,152.743416 26.5259804,150.795469 26.5259804,150.795469 L26.4069735,147.663715 L24.0205759,148.014474 Z" id="Fill-53" fill="#FC790D" mask="url(#mask-36)"></path>
                    </g>
                    <g transform="translate(0.000000, 0.658986)">
                        <g transform="translate(16.221197, 77.861747)">
                            <mask id="mask-38" fill="white">
                                <use xlink:href="#path-37"></use>
                            </mask>
                            <g id="Clip-55"></g>
                            <path d="M10.9246762,0.0828903176 C10.9246762,0.0828903176 16.9501616,3.98506151 13.8810462,12.8980254 C10.8119389,21.8109893 10.3171194,28.1997565 17.551457,25.9636888 C24.7858028,23.727613 24.2533987,13.7498654 24.2533987,13.7498654 L31.6318049,14.8898181 L32.3458458,29.0515883 L29.2140923,35.9796454 L10.9246762,34.8265373 L3.47737859,32.9474819 L0.715176363,23.589822 L5.77608445,7.7619564 L10.9246762,0.0828903176 Z" id="Fill-54" fill-opacity="0.08" fill="#000000" mask="url(#mask-38)"></path>
                        </g>
                        <mask id="mask-40" fill="white">
                            <use xlink:href="#path-39"></use>
                        </mask>
                        <g id="Clip-57"></g>
                        <path d="M45.4354192,113.841076 L40.0488057,148.383645 L36.5287248,148.383645 C36.5287248,148.383645 39.7919998,122.40328 34.0984813,119.271535 C28.4049627,116.139781 27.2837941,148.383645 27.2837941,148.383645 L23.5256996,148.083625 L23.563276,112.469371 L45.4354192,113.841076 Z" id="Fill-56" fill="#24285B" mask="url(#mask-40)"></path>
                        <path d="M23.4318113,73.4788601 C23.4318113,73.4788601 11.5750083,71.4808142 11.5750083,90.1397491 C11.5750083,108.798708 14.4249024,125.409506 41.7963883,108.767393 L39.7169038,105.591802 C39.7169038,105.591802 24.9726304,112.080784 21.8346155,106.381004 C18.6966005,100.681216 34.1486534,76.6106056 23.4318113,73.4788601" id="Fill-58" fill="#FC790D" mask="url(#mask-40)"></path>
                    </g>
                    <g transform="translate(0.000000, 0.658986)">
                        <g transform="translate(11.354838, 72.995387)">
                            <mask id="mask-42" fill="white">
                                <use xlink:href="#path-41"></use>
                            </mask>
                            <g id="Clip-60"></g>
                            <path d="M12.0769733,0.483472782 C12.0769733,0.483472782 0.220170309,-1.51457318 0.220170309,17.1443617 C0.220170309,35.803321 3.07006433,52.4141189 30.4415503,35.772006 L28.3620658,32.5964146 C28.3620658,32.5964146 13.6177924,39.0853964 10.4797774,33.3856164 C7.34176251,27.6858284 22.7938154,3.61521822 12.0769733,0.483472782" id="Fill-59" fill-opacity="0.46" fill="#FFFFFF" mask="url(#mask-42)"></path>
                        </g>
                        <mask id="mask-44" fill="white">
                            <use xlink:href="#path-43"></use>
                        </mask>
                        <g id="Clip-62"></g>
                        <polygon id="Fill-61" fill="#FFD200" mask="url(#mask-44)" points="51.3716474 107.624115 41.3306291 105.098678 45.1106546 90.0712875 55.1516649 92.5967333"></polygon>
                    </g>
                    <g transform="translate(0.000000, 0.658986)">
                        <g transform="translate(136.258056, 78.672806)">
                            <mask id="mask-46" fill="white">
                                <use xlink:href="#path-45"></use>
                            </mask>
                            <g id="Clip-64"></g>
                            <path d="M10.4202538,0.186219344 C10.4202538,0.186219344 5.84165864,3.81911867 8.62270179,11.7236188 C11.4036638,19.6281596 8.76674602,33.0195202 0.80578797,34.4663861 L11.5352177,33.7961912 L16.9719142,15.8324805 L10.4202538,0.186219344 Z" id="Fill-63" fill-opacity="0.08" fill="#000000" mask="url(#mask-46)"></path>
                        </g>
                        <mask id="mask-48" fill="white">
                            <use xlink:href="#path-47"></use>
                        </mask>
                        <g id="Clip-66"></g>
                        <path d="M39.1468666,64.8977657 C38.9639726,64.9578653 38.7779398,65.0054745 38.5894089,65.0418099 C38.3250926,65.1019095 38.0664132,65.1877196 37.8189994,65.2985915 L37.6185703,65.3862671 C37.3279432,65.5140901 37.1406614,65.8015297 37.142543,66.1191408 C37.2634315,67.3066946 36.3990688,68.3670743 35.2121314,68.4880033 C35.1438644,68.495465 35.0755894,68.499277 35.0066899,68.499277 C35.0066899,68.499277 33.071274,65.6117417 34.6183544,63.3944663 C35.5353306,62.1518415 36.9652859,61.3901751 38.5079866,61.3212351 C39.5251774,61.3093936 40.3594741,62.1236166 40.3713805,63.1408478 C40.3807725,63.9281437 39.8890918,64.6340091 39.1468666,64.8977657" id="Fill-65" fill="#24285B" mask="url(#mask-48)"></path>
                        <path d="M37.1050883,67.4783149 C37.2453935,67.3004494 37.2785902,67.0611868 37.1927801,66.8520144 C37.054981,66.5262928 36.7856524,66.0878338 36.3346788,66.1505288 C35.8837051,66.2131426 35.789752,66.9521803 36.1091879,67.4032107 C36.3190172,67.67816 36.712365,67.7307978 36.9873305,67.5209766 C37.0311764,67.4871554 37.0712671,67.4476568 37.1050883,67.4032107 L37.1050883,67.4783149 Z" id="Fill-67" fill="#F4A28C" mask="url(#mask-48)"></path>
                        <path d="M130.549817,62.2734193 C130.87489,62.750647 131.088523,63.2937326 131.176199,63.8643132 C131.172468,64.4700127 131.659104,64.9635427 132.264803,64.9679224 C132.386949,64.9685712 132.507797,64.9491869 132.623697,64.9103371 C134.502761,64.5846155 133.876379,68.123513 136.337297,67.7226061 C137.101478,67.6956789 137.757868,67.1714098 137.953334,66.4323721 C138.127387,65.6763832 138.630406,65.0374302 139.325647,64.6911077 C139.845536,64.4405713 140.245713,63.9331722 140.002071,62.9247815 C139.457201,60.6448922 137.690226,63.4822229 137.070171,61.045718 C136.450034,58.6092131 135.417231,58.9913034 134.916158,59.4297624 C134.414436,59.8682213 133.901441,60.5259098 133.112199,59.7241771 C132.322388,58.9224444 129.447425,60.5133383 130.549817,62.2734193" id="Fill-68" fill="#24285B" mask="url(#mask-48)"></path>
                        <path d="M134.282882,67.4783149 C134.142569,67.3004494 134.109397,67.0611868 134.195207,66.8520144 C134.333006,66.5262928 134.602927,66.0878338 135.047631,66.1505288 C135.492335,66.2131426 135.592582,66.9521803 135.279432,67.4032107 C135.068962,67.67816 134.676246,67.7307978 134.400648,67.5209766 C134.35677,67.4871554 134.317352,67.4476568 134.282882,67.4032107 L134.282882,67.4783149 Z" id="Fill-69" fill="#F4A28C" mask="url(#mask-48)"></path>
                        <path d="M82.6344283,84.5091201 L84.2628742,84.9970456 C85.1748299,85.2607374 85.868205,86.0048362 86.0667525,86.9330942 C86.2421847,87.7843015 86.254675,88.7181883 85.5844963,89.0000478 C84.2692005,89.5449665 82.152091,86.7577106 82.152091,86.7577106 L82.6344283,84.5091201 Z" id="Fill-70" fill="#F4A28C" mask="url(#mask-48)"></path>
                        <path d="M89.6994896,84.5091201 L88.1718583,84.9657225 C87.1571413,85.2638681 86.4030179,86.115708 86.2295322,87.1579524 C86.0979783,87.9408847 86.1418566,88.7432419 86.7494216,89.0000478 C88.0647173,89.5449665 90.1823946,86.7577106 90.1823946,86.7577106 L89.6994896,84.5091201 Z" id="Fill-71" fill="#F4A28C" mask="url(#mask-48)"></path>
                        <path d="M85.5218014,42.3806353 C95.3430063,42.3806353 103.303883,50.3415122 103.303883,60.1627172 C103.303883,69.9832732 95.3430063,77.944799 85.5218014,77.944799 C75.7012615,77.944799 67.7397357,69.9832732 67.7397357,60.1627172 C67.7397357,50.3415122 75.7012615,42.3806353 85.5218014,42.3806353" id="Fill-72" fill="#24285B" mask="url(#mask-48)"></path>
                        <polyline id="Stroke-73" stroke="#FFFFFF" stroke-width="3.99999976" stroke-linecap="round" stroke-linejoin="round" mask="url(#mask-48)" points="79.0139625 60.3567227 83.3044587 67.3467866 92.0364015 54.8886888"></polyline>
                        <path d="M151.733241,73.773356 C155.76064,74.1241394 160.86545,77.6191585 164.347898,90.8601811 L152.134067,95.2446247 L146.935416,80.0055399 C146.091671,77.5408101 147.405831,74.8594462 149.869831,74.0157818 C150.467987,73.810908 151.101912,73.728261 151.733241,73.773356" id="Fill-74" fill="#FC790D" mask="url(#mask-48)"></path>
                    </g>
                    <g transform="translate(0.000000, 0.658986)">
                        <g transform="translate(145.990775, 72.995387)">
                            <mask id="mask-50" fill="white">
                                <use xlink:href="#path-49"></use>
                            </mask>
                            <g id="Clip-76"></g>
                            <path d="M5.74246602,0.777968617 C9.76986486,1.12875201 14.8746756,4.62377115 18.3571233,17.8647938 L6.1432918,22.2492374 L0.944641418,7.01015258 C0.100895847,4.54542277 1.41505614,1.86405888 3.87905599,1.02039441 C4.47721264,0.815520689 5.11113702,0.732873689 5.74246602,0.777968617" id="Fill-75" fill-opacity="0.46" fill="#FFFFFF" mask="url(#mask-50)"></path>
                        </g>
                        <mask id="mask-52" fill="white">
                            <use xlink:href="#path-51"></use>
                        </mask>
                        <g id="Clip-78"></g>
                        <path d="M32.7393072,73.77952 C32.7393072,73.77952 33.0148972,70.6477746 36.6915694,71.7751478 C40.3682416,72.9026021 40.556148,74.424637 40.556148,74.424637 L32.7393072,73.77952 Z" id="Fill-77" fill="#FC790D" mask="url(#mask-52)"></path>
                    </g>
                    <g transform="translate(0.000000, 0.658986)">
                        <path d="M32.7393072,73.77952 C32.7393072,73.77952 33.0148972,70.6477746 36.6915694,71.7751478 C40.3682416,72.9026021 40.556148,74.424637 40.556148,74.424637 L32.7393072,73.77952 Z" id="Fill-79" fill-opacity="0.46" fill="#FFFFFF"></path>
                        <mask id="mask-54" fill="white">
                            <use xlink:href="#path-53"></use>
                        </mask>
                        <g id="Clip-82"></g>
                        <path d="M163.690128,90.8600514 L166.521863,100.938022 C167.911127,105.896209 165.150766,111.070479 160.258372,112.675818 L151.689281,114.817932 C150.744072,115.046554 149.994409,115.763725 149.722542,116.69698 C149.459434,117.605188 149.009134,118.576035 148.263121,118.519658 C145.175254,118.244068 148.119726,113.853355 148.119726,113.853355 L156.487106,108.629594 C158.626763,107.291086 159.388348,104.538908 158.240861,102.290934 L154.251663,94.5367236 L163.690128,90.8600514 Z" id="Fill-81" fill="#F4A28C" mask="url(#mask-54)"></path>
                        <polygon id="Fill-83" fill="#FFD200" mask="url(#mask-54)" points="71.8799043 110.777978 100.109492 110.777978 100.109492 97.7749531 71.8799043 97.7749531"></polygon>
                    </g>
                    <g transform="translate(0.000000, 0.658986)">
                        <polygon id="Fill-84" fill-opacity="0.34" fill="#C9C9C9" points="77.0786114 115.669773 95.0485916 115.669773 95.0485916 119.484244 77.0786114 119.484244"></polygon>
                        <mask id="mask-56" fill="white">
                            <use xlink:href="#path-55"></use>
                        </mask>
                        <g id="Clip-87"></g>
                        <path d="M40.1114439,106.217835 C40.1114439,106.217835 42.1220288,103.168144 44.0135989,104.708963 C45.905177,106.249782 41.2827198,108.003561 41.2827198,108.003561 L40.1114439,106.217835 Z" id="Fill-86" fill="#F4A28C" mask="url(#mask-56)"></path>
                    </g>
                    <polygon id="Fill-88" fill-opacity="0.46" fill="#FFFFFF" points="82.2397665 103.839337 97.2909531 103.839337 97.2909531 100.607372 82.2397665 100.607372"></polygon>
                    <g transform="translate(100.571423, 4.714285)">
                        <mask id="mask-58" fill="white">
                            <use xlink:href="#path-57"></use>
                        </mask>
                        <g id="Clip-91"></g>
                        <path d="M6.24013235,6.35003096 C6.24013235,6.35003096 1.65529207,5.0972679 0.659391666,0.831822992 C0.659391666,0.831822992 7.76216728,-0.602455264 7.96258017,6.72579499 L6.24013235,6.35003096 Z" id="Fill-90" fill-opacity="0.58" fill="#FC790D" mask="url(#mask-58)"></path>
                    </g>
                    <g transform="translate(0.000000, 0.658986)">
                        <g transform="translate(105.437782, 0.000000)">
                            <mask id="mask-60" fill="white">
                                <use xlink:href="#path-59"></use>
                            </mask>
                            <g id="Clip-93"></g>
                            <path d="M1.93713537,9.94805471 C1.93713537,9.94805471 -1.26290131,4.88712229 1.55569392,0.151911512 C1.55569392,0.151911512 6.9548383,3.58431684 4.55588544,9.96062613 L1.93713537,9.94805471 Z" id="Fill-92" fill-opacity="0.73" fill="#FC790D" mask="url(#mask-60)"></path>
                        </g>
                        <mask id="mask-62" fill="white">
                            <use xlink:href="#path-61"></use>
                        </mask>
                        <g id="Clip-95"></g>
                        <path d="M108.201955,9.95454319 C108.201955,9.95454319 109.893096,4.60552231 115.004071,3.59080532 C115.004071,3.59080532 115.962419,7.06700787 111.696974,9.96703351 L108.201955,9.95454319 Z" id="Fill-94" fill="#FC790D" mask="url(#mask-62)"></path>
                        <polygon id="Fill-96" fill="#24285B" mask="url(#mask-62)" points="104.876285 9.82915333 105.802596 16.1865649 111.652771 16.2116267 112.517118 9.8667054"></polygon>
                    </g>
                </g>
                <g id="独家解决方案备份" transform="translate(24.461564, 150.986898)">
                    <rect id="Rectangle-3" fill="#FC790D" x="0" y="0" width="170.724849" height="33.4026878" rx="3.6022268"></rect>
                    <text id="独家功能" font-family="FZLTCHJW--GB1-0, FZLanTingHeiS-B-GB" font-size="18.011134" font-weight="normal" line-spacing="21.6133608" fill="#FFFFFF">
                        <tspan x="88.2357293" y="21.6301145">独家功能</tspan>
                    </text>
                    <g id="句客宝logo" transform="translate(7.586043, 6.804206)">
                        <path d="M8.5045812,-1.54758361e-13 C10.8112375,-1.54758361e-13 12.8057681,0.840190548 14.4873285,2.51821487 C16.1682133,4.19724924 17.0093313,6.18872473 17.0093313,8.49129462 C17.0093313,13.6068447 13.4313707,17.3731406 6.27595631,19.7940543 L6.27595631,19.7940543 L6.27595631,16.690349 C4.35962604,16.1429037 2.8344663,15.0988521 1.7008149,13.5571841 C0.566319003,12.0151794 0,10.3273913 0,8.49129462 C0,6.18872473 0.840104599,4.19724924 2.52200279,2.51821487 C4.20254978,0.840190548 6.19691149,-1.54758361e-13 8.5045812,-1.54758361e-13 Z M8.58225794,5.2306954 C6.81253216,5.18709504 5.34614935,6.43618618 5.30679584,8.02094952 C5.26761122,9.60554452 6.67031904,10.9251706 8.44021371,10.9691076 C8.51132027,10.9712961 8.58090674,10.9669192 8.65066211,10.9650674 C8.65066211,10.9654041 8.95214717,11.178019 9.2828518,11.3477068 C9.65155874,11.5364172 10.1045464,11.6631781 10.3678602,11.6406204 C10.7162993,11.610824 10.7711915,11.3874353 10.7014361,11.2731317 C10.6352277,11.164215 10.5195317,11.1593331 10.4077204,11.0893032 C10.2734456,11.0047959 10.2139931,10.9620373 10.158763,10.8308996 C10.0954258,10.6798976 10.1687281,10.5677824 10.3080699,10.4928706 L10.3218071,10.4797026 C10.326236,10.4754379 10.3316595,10.4702006 10.3379651,10.4640842 C11.1498635,9.96225936 11.6920299,9.1326743 11.7156758,8.17919018 C11.7550293,6.59476352 10.3523215,5.27463243 8.58225794,5.2306954 Z" id="形状结合" fill="#FFFFFF"></path>
                        <path d="M31.6453564,18.3197822 C32.0357836,18.3197822 32.4576967,18.23199 32.911096,18.0564057 C33.3644952,17.8808213 33.7864084,17.5986322 34.1768355,17.2098383 C34.5672626,16.8210443 34.8978662,16.3131039 35.1686463,15.6860169 C35.4394264,15.05893 35.5811137,14.2938839 35.5937081,13.3908786 L35.5937081,13.3908786 L35.6881663,4.79351628 C35.7133551,4.36709715 35.5748165,4.0033867 35.2725503,3.70238496 C34.9576897,3.38884147 34.5609654,3.23206973 34.0823773,3.23206973 L34.0823773,3.23206973 L26.3556987,3.23206973 C26.4438597,2.98123495 26.5257234,2.71472298 26.6012899,2.43253385 C26.6768565,2.15034471 26.7650174,1.8524784 26.8657728,1.53893492 C26.928745,1.35080883 26.9098533,1.17208904 26.8090979,1.00277556 C26.7083425,0.833462079 26.5635067,0.71745099 26.3745903,0.654742293 C26.1730796,0.592033596 25.9873118,0.610846205 25.8172871,0.71118012 C25.6472624,0.811514035 25.530764,0.955744037 25.4677919,1.14387013 C25.2536867,1.88383275 25.0490273,2.54854494 24.8538137,3.13800669 C24.6586002,3.72746844 24.4539408,4.26989867 24.2398356,4.76529737 C24.0257304,5.26069608 23.789585,5.72474043 23.5313993,6.15743044 C23.2732136,6.59012045 22.9740961,7.01967502 22.6340466,7.44609416 C22.5081024,7.60913677 22.4577247,7.78785656 22.4829136,7.98225352 C22.5081024,8.17665048 22.6025606,8.33655766 22.7662881,8.46197505 C22.9048267,8.56230896 23.0496626,8.61247592 23.2007957,8.61247592 C23.3015511,8.61247592 23.4054551,8.59052788 23.5125077,8.54663179 C23.6195603,8.5027357 23.7108698,8.4306207 23.7864364,8.33028679 C24.25243,7.74082504 24.6460057,7.16076959 24.9671635,6.59012045 C25.2883213,6.01947131 25.5811417,5.37670716 25.8456246,4.66182802 L25.8456246,4.66182802 L34.0823773,4.66182802 C34.1579439,4.66182802 34.2083216,4.68064063 34.2335104,4.71826585 C34.2461048,4.71826585 34.252402,4.73707846 34.252402,4.77470367 L34.252402,4.77470367 L34.1390522,13.372066 C34.1264578,14.0869452 34.0225538,14.670136 33.8273403,15.1216387 C33.6321267,15.5731413 33.4022785,15.9305808 33.1377956,16.1939574 C32.8733127,16.4573339 32.599384,16.6360537 32.3160095,16.7301167 C32.032635,16.8241798 31.8090839,16.8712113 31.6453564,16.8712113 L31.6453564,16.8712113 L31.1730656,16.8712113 C30.9589604,16.8586696 30.7826385,16.9213783 30.6440998,17.0593374 C30.5055611,17.1972965 30.4362918,17.36661 30.4362918,17.5672778 C30.4236974,17.7804874 30.4866695,17.9560717 30.6252082,18.0940309 C30.7637468,18.23199 30.9337715,18.3072405 31.1352823,18.3197822 L31.1352823,18.3197822 L31.6453564,18.3197822 Z M30.9270496,14.1810082 C31.267099,14.1810082 31.5567707,14.0618617 31.7960648,13.8235686 C32.0353588,13.5852756 32.1550058,13.2968156 32.1550058,12.9581886 L32.1550058,12.9581886 L32.1550058,8.23622374 C32.1550058,7.89759678 32.0353588,7.60913677 31.7960648,7.37084372 C31.5567707,7.13255068 31.267099,7.01340415 30.9270496,7.01340415 L30.9270496,7.01340415 L26.506407,7.01340415 C26.1663576,7.01340415 25.8766859,7.13255068 25.6373918,7.37084372 C25.3980978,7.60913677 25.2784508,7.89759678 25.2784508,8.23622374 L25.2784508,8.23622374 L25.2784508,12.9581886 C25.2784508,13.2968156 25.3980978,13.5852756 25.6373918,13.8235686 C25.8766859,14.0618617 26.1663576,14.1810082 26.506407,14.1810082 L26.506407,14.1810082 L30.9270496,14.1810082 Z M30.7003499,12.7324373 L26.7331066,12.7324373 L26.7331066,8.44316244 L30.7003499,8.44316244 L30.7003499,12.7324373 Z M53.0865124,6.37377544 C53.2880232,6.37377544 53.4611965,6.30166044 53.6060324,6.15743044 C53.7508682,6.01320044 53.8232862,5.84702239 53.8232862,5.6588963 L53.8232862,5.6588963 L53.8232862,3.60832191 C53.8232862,3.26969495 53.7004906,2.98123495 53.4548993,2.7429419 C53.209308,2.50464885 52.9164877,2.38550233 52.5764383,2.38550233 L52.5764383,2.38550233 L48.3069288,2.38550233 L47.6457216,1.04980708 C47.5449662,0.874222732 47.403279,0.751940773 47.2206598,0.682961206 C47.0380407,0.61398164 46.8585701,0.623387944 46.6822482,0.71118012 C46.5059263,0.798972295 46.3799821,0.936931428 46.3044155,1.12505752 C46.228849,1.31318361 46.2414434,1.49503883 46.3421988,1.67062318 L46.3421988,1.67062318 L46.7011399,2.36668972 L42.1293642,2.36668972 C41.7767204,2.36668972 41.4807514,2.48583624 41.2414574,2.72412929 C41.0021634,2.96242234 40.8825163,3.25088234 40.8825163,3.5895093 L40.8825163,3.5895093 L40.8825163,5.64008369 C40.8825163,5.85329326 40.9549343,6.02887761 41.0997701,6.16683674 C41.244606,6.30479588 41.4177793,6.37377544 41.6192901,6.37377544 C41.8208009,6.37377544 41.9908256,6.30166044 42.1293642,6.15743044 C42.2679029,6.01320044 42.3371722,5.84702239 42.3371722,5.6588963 L42.3371722,5.6588963 L42.3371722,3.83407322 L52.3686303,3.83407322 L52.3686303,5.6588963 C52.3686303,5.84702239 52.4378996,6.01320044 52.5764383,6.15743044 C52.7149769,6.30166044 52.8850017,6.37377544 53.0865124,6.37377544 Z M53.4832368,12.8076877 C53.6595587,12.8076877 53.8138404,12.7543853 53.9460818,12.6477806 C54.0783232,12.5411758 54.1570384,12.4000812 54.1822272,12.2244969 C54.2326049,12.023829 54.2011189,11.8419738 54.0877691,11.6789312 C53.9744193,11.5158886 53.816989,11.4155547 53.6154782,11.3779295 C52.5449522,11.1647199 51.6098163,10.9483749 50.8100704,10.7288944 C50.0103246,10.509414 49.3081855,10.2617146 48.7036531,9.98579638 C49.3585632,9.5468355 49.9410552,9.07024941 50.4511294,8.55603809 C50.9612035,8.04182678 51.4114541,7.47117764 51.8018813,6.84409067 C51.8774478,6.73121502 51.9183797,6.60266219 51.9246769,6.45843218 C51.9309741,6.31420218 51.9089339,6.18251392 51.8585562,6.06336739 C51.8081785,5.94422087 51.7294633,5.84075152 51.6224107,5.75295935 C51.5153581,5.66516717 51.3862653,5.62127108 51.2351322,5.62127108 L51.2351322,5.62127108 L45.7376665,5.62127108 C45.7880442,5.52093717 45.8321247,5.43314499 45.8699079,5.35789456 C45.9076912,5.28264412 45.9454745,5.19485194 45.9832577,5.09451803 C46.0714187,4.91893368 46.0808645,4.74021389 46.0115952,4.55835867 C45.9423259,4.37650345 45.813233,4.23540888 45.6243167,4.13507497 C45.4479947,4.04728279 45.2685242,4.03787649 45.0859051,4.10685605 C44.9032859,4.17583562 44.7615987,4.30438845 44.6608433,4.49251454 C44.3333883,5.1823102 43.9114751,5.83448065 43.3951038,6.44902588 C42.8787324,7.06357111 42.2679029,7.62167851 41.5626152,8.12334809 C41.3862933,8.23622374 41.2855379,8.38986005 41.260349,8.58425701 C41.2351602,8.77865397 41.2729435,8.95737375 41.3736988,9.12041637 C41.5374263,9.3210842 41.7389371,9.42141811 41.9782312,9.42141811 C42.1419587,9.42141811 42.2742001,9.37125115 42.3749555,9.27091724 C42.626844,9.09533289 42.8692866,8.91347767 43.1022834,8.72535158 C43.3352803,8.53722548 43.5588313,8.33655766 43.7729365,8.12334809 C44.1003915,8.46197505 44.4246979,8.78492484 44.7458557,9.09219745 C45.0670134,9.39947007 45.4102115,9.68479464 45.7754498,9.94817116 C44.4656297,10.5250912 42.9165157,11.0016773 41.1281076,11.3779295 C40.9265968,11.4155547 40.7691665,11.519024 40.6558167,11.6883375 C40.5424669,11.857651 40.5109809,12.0426416 40.5613585,12.2433095 C40.5991418,12.4063521 40.6841542,12.5411758 40.8163956,12.6477806 C40.9486371,12.7543853 41.1029187,12.8076877 41.2792407,12.8076877 C41.3422128,12.8076877 41.3925905,12.8014169 41.4303737,12.7888751 C42.5764663,12.5505821 43.6281006,12.2715284 44.5852768,11.951714 C45.5424529,11.6318997 46.4240625,11.2713247 47.2301056,10.869989 C47.9731766,11.2713247 48.832746,11.6256288 49.8088138,11.9329014 C50.7848816,12.240174 51.9656088,12.5254986 53.3509953,12.7888751 C53.3761842,12.7888751 53.3982244,12.7920106 53.417116,12.7982814 C53.4360077,12.8045523 53.4580479,12.8076877 53.4832368,12.8076877 Z M47.211214,9.1956668 C46.7704092,8.9072068 46.348496,8.58739244 45.9454745,8.23622374 C45.5424529,7.88505504 45.1394314,7.49626112 44.7364098,7.06984198 L44.7364098,7.06984198 L49.8182596,7.06984198 C49.1129719,7.89759678 48.2439567,8.60620505 47.211214,9.1956668 Z M51.0084326,18.0752183 C51.3106988,18.0752183 51.572033,17.9654781 51.7924354,17.7459976 C52.0128378,17.5265172 52.123039,17.2662761 52.123039,16.9652743 L52.123039,16.9652743 L52.123039,13.6918804 C52.123039,13.3783369 52.0159864,13.1118249 51.8018813,12.8923445 C51.5877761,12.672864 51.3232932,12.5631238 51.0084326,12.5631238 L51.0084326,12.5631238 L43.640695,12.5631238 C43.3384289,12.5631238 43.0770946,12.672864 42.8566922,12.8923445 C42.6362898,13.1118249 42.5260886,13.3846078 42.5260886,13.710693 L42.5260886,13.710693 L42.5260886,16.9652743 C42.5260886,17.2662761 42.6331412,17.5265172 42.8472464,17.7459976 C43.0613516,17.9654781 43.3258344,18.0752183 43.640695,18.0752183 L43.640695,18.0752183 L51.0084326,18.0752183 Z M50.6872748,16.64546 L43.9807444,16.64546 L43.9807444,13.9928821 L50.6872748,13.9928821 L50.6872748,16.64546 Z M59.1314108,6.67477719 C59.3329216,6.67477719 59.5029463,6.60266219 59.6414849,6.45843218 C59.7800236,6.31420218 59.8492929,6.14175327 59.8492929,5.94108544 L59.8492929,5.94108544 L59.8492929,4.39845149 L69.880751,4.39845149 L69.880751,5.94108544 C69.880751,6.12921153 69.9500203,6.29538957 70.088559,6.43961958 C70.2270976,6.58384958 70.3971224,6.65596458 70.5986331,6.65596458 C70.8001439,6.65596458 70.9733172,6.58384958 71.1181531,6.43961958 C71.2629889,6.29538957 71.3354069,6.12294066 71.3354069,5.92227283 L71.3354069,5.92227283 L71.3354069,4.05982453 C71.3354069,3.74628105 71.2157599,3.48290452 70.9764658,3.26969495 C70.7371718,3.05648538 70.4412028,2.9498806 70.088559,2.9498806 L70.088559,2.9498806 L66.1779906,2.9498806 C66.1653962,2.86208842 66.1339101,2.77429625 66.0835324,2.68650407 L66.0835324,2.68650407 L64.9878176,1.01218186 C64.8870622,0.836597514 64.7390777,0.729992729 64.5438642,0.692367511 C64.3486506,0.654742293 64.1628829,0.686096641 63.9865609,0.786430556 C63.810239,0.89930621 63.7031864,1.05294252 63.6654032,1.24733948 C63.6276199,1.44173644 63.6654032,1.62045622 63.778753,1.78349884 L63.778753,1.78349884 L64.5155267,2.96869321 L59.6414849,2.96869321 C59.2888411,2.96869321 58.9928721,3.07843343 58.7535781,3.29791386 C58.5142841,3.5173943 58.394637,3.7776354 58.394637,4.07863714 L58.394637,4.07863714 L58.394637,5.94108544 C58.394637,6.14175327 58.467055,6.31420218 58.6118908,6.45843218 C58.7567267,6.60266219 58.9299,6.67477719 59.1314108,6.67477719 Z M70.7308746,18.0564057 C70.9449798,18.0564057 71.1213017,17.9842907 71.2598403,17.8400607 C71.398379,17.6958307 71.4676483,17.5296526 71.4676483,17.3415265 C71.4676483,17.1408587 71.3952304,16.9684098 71.2503945,16.8241798 C71.1055587,16.6799498 70.9323853,16.6078348 70.7308746,16.6078348 L70.7308746,16.6078348 L65.5167834,16.6078348 L65.5167834,12.5443112 L69.6162681,12.5443112 C69.8303733,12.5443112 70.0066952,12.4753316 70.1452339,12.3373725 C70.2837725,12.1994134 70.3530419,12.0300999 70.3530419,11.8294321 C70.3530419,11.6287642 70.2806239,11.4563153 70.1357881,11.3120853 C69.9909522,11.1678553 69.8177789,11.0957403 69.6162681,11.0957403 L69.6162681,11.0957403 L65.5167834,11.0957403 L65.5167834,8.29266157 L70.2208004,8.29266157 C70.4349056,8.29266157 70.6112275,8.223682 70.7497662,8.08572287 C70.8883049,7.94776373 70.9575742,7.77845025 70.9575742,7.57778242 C70.9575742,7.37711459 70.8851563,7.20466568 70.7403204,7.06043567 C70.5954845,6.91620567 70.4223112,6.84409067 70.2208004,6.84409067 L70.2208004,6.84409067 L60.3026922,6.84409067 C60.088587,6.84409067 59.9154136,6.91620567 59.7831722,7.06043567 C59.6509308,7.20466568 59.58481,7.37711459 59.58481,7.57778242 C59.58481,7.77845025 59.6540794,7.94776373 59.792618,8.08572287 C59.9311567,8.223682 60.1011814,8.29266157 60.3026922,8.29266157 L60.3026922,8.29266157 L64.0432358,8.29266157 L64.0432358,11.0957403 L60.3026922,11.0957403 C60.088587,11.0957403 59.9154136,11.1678553 59.7831722,11.3120853 C59.6509308,11.4563153 59.58481,11.6287642 59.58481,11.8294321 C59.58481,12.0300999 59.6540794,12.1994134 59.792618,12.3373725 C59.9311567,12.4753316 60.1011814,12.5443112 60.3026922,12.5443112 L60.3026922,12.5443112 L64.0432358,12.5443112 L64.0432358,16.6078348 L58.9236028,16.6078348 C58.722092,16.6078348 58.5520673,16.6799498 58.4135287,16.8241798 C58.27499,16.9684098 58.2057207,17.1408587 58.2057207,17.3415265 C58.2057207,17.5296526 58.2781386,17.6958307 58.4229745,17.8400607 C58.5678104,17.9842907 58.7346865,18.0564057 58.9236028,18.0564057 L58.9236028,18.0564057 L70.7308746,18.0564057 Z" id="句客宝" stroke="#FFFFFF" stroke-width="0.519999981" fill="#FFFFFF" fill-rule="nonzero"></path>
                        <ellipse id="椭圆形" stroke="#FFFFFF" stroke-width="0.975194876" fill="#FC790D" fill-rule="nonzero" cx="68.4416639" cy="14.5723829" rx="1.4310552" ry="1.4660758"></ellipse>
                    </g>
                </g>
            </g>
        </g>
    </g>
</svg>