<?xml version="1.0" encoding="UTF-8"?>
<svg width="221px" height="254px" viewBox="0 0 221 254" version="1.1" xmlns="http://www.w3.org/2000/svg" xmlns:xlink="http://www.w3.org/1999/xlink">
    <title>8-聊天内容存档</title>
    <defs>
        <polyline id="path-1" points="188.621703 0.0235207359 188.622109 12.9760914 0 12.9760914 0 0.023214062"></polyline>
        <polygon id="path-3" points="0.684550743 0.58062721 9.15600609 0.58062721 9.15600609 7.5494425 0.684550743 7.5494425"></polygon>
        <polygon id="path-5" points="0.331731593 0.0909360314 5.8763402 0.0909360314 5.8763402 11.4649719 0.331731593 11.4649719"></polygon>
        <polygon id="path-7" points="0 144.367789 188.622109 144.367789 188.622109 0.152099584 0 0.152099584"></polygon>
        <polygon id="path-9" points="0 144.367789 188.622109 144.367789 188.622109 0.152099584 0 0.152099584"></polygon>
        <polygon id="path-11" points="0 144.367789 188.622109 144.367789 188.622109 0.152099584 0 0.152099584"></polygon>
        <polygon id="path-13" points="0 144.367789 188.622109 144.367789 188.622109 0.152099584 0 0.152099584"></polygon>
        <polygon id="path-15" points="0.717495994 0.453544673 47.9128259 0.453544673 47.9128259 39.6104928 0.717495994 39.6104928"></polygon>
        <polygon id="path-17" points="0 144.367789 188.622109 144.367789 188.622109 0.152099584 0 0.152099584"></polygon>
        <polygon id="path-19" points="0.512512485 0.155674829 23.4202781 0.155674829 23.4202781 42.1280874 0.512512485 42.1280874"></polygon>
        <polygon id="path-21" points="0 144.367789 188.622109 144.367789 188.622109 0.152099584 0 0.152099584"></polygon>
        <polygon id="path-23" points="0.774870369 0.727293597 30.5685947 0.727293597 30.5685947 42.873857 0.774870369 42.873857"></polygon>
        <polygon id="path-25" points="0 144.367789 188.622109 144.367789 188.622109 0.152099584 0 0.152099584"></polygon>
        <polygon id="path-27" points="0.340450487 0.329452515 49.5237124 0.329452515 49.5237124 25.0926754 0.340450487 25.0926754"></polygon>
        <polygon id="path-29" points="0 144.367789 188.622109 144.367789 188.622109 0.152099584 0 0.152099584"></polygon>
        <polygon id="path-31" points="0 144.367789 188.622109 144.367789 188.622109 0.152099584 0 0.152099584"></polygon>
        <polygon id="path-33" points="0.218337314 0.767676268 5.55719561 0.767676268 5.55719561 6.81463038 0.218337314 6.81463038"></polygon>
        <polygon id="path-35" points="0 144.367789 188.622109 144.367789 188.622109 0.152099584 0 0.152099584"></polygon>
        <polygon id="path-37" points="0.000486635916 0.34781491 4.1895297 0.34781491 4.1895297 5.03402956 0.000486635916 5.03402956"></polygon>
        <polygon id="path-39" points="0 144.367789 188.622109 144.367789 188.622109 0.152099584 0 0.152099584"></polygon>
    </defs>
    <g id="最新版备份" stroke="none" stroke-width="1" fill="none" fill-rule="evenodd">
        <g id="十大功能" transform="translate(-611.000000, -480.000000)">
            <g id="8-聊天内容存档" transform="translate(611.500000, 480.000000)">
                <rect id="矩形" fill="#FFFDF8" x="0" y="0" width="219.310578" height="253.050667" rx="16.6399984"></rect>
                <text id="聊天内容存档" font-family="FZLTCHJW--GB1-0, FZLanTingHeiS-B-GB" font-size="26.6239974" font-weight="normal" fill="#000000" fill-opacity="0.7">
                    <tspan x="29.7832967" y="227.498321">聊天内容存档</tspan>
                </text>
                <g id="编组" transform="translate(15.207373, 31.428571)">
                    <g transform="translate(0.000000, 132.050683)">
                        <mask id="mask-2" fill="white">
                            <use xlink:href="#path-1"></use>
                        </mask>
                        <g id="Clip-2"></g>
                        <path d="M94.3123114,0.0234639617 C146.399711,0.0234639617 188.624623,2.92294619 188.624623,6.49990265 C188.624623,10.0768599 146.399711,12.9763401 94.3123114,12.9763401 C42.2248144,12.9763401 -6.21539097e-05,10.0768599 -6.21539097e-05,6.49990265 C-6.21539097e-05,2.92294619 42.2248144,0.0234639617 94.3123114,0.0234639617" id="Fill-1" fill-opacity="0.45" fill="#E6E6E6" mask="url(#mask-2)"></path>
                    </g>
                    <polygon id="Fill-3" fill="#E6E6E6" points="39.3123471 92.1773099 158.330272 92.1773099 158.330272 0.811092302 39.3123471 0.811092302"></polygon>
                    <g transform="translate(64.073729, 123.940085)">
                        <mask id="mask-4" fill="white">
                            <use xlink:href="#path-3"></use>
                        </mask>
                        <g id="Clip-6"></g>
                        <path d="M7.15477266,7.11436566 C7.15477266,7.11436566 1.84061925,5.65996501 0.684550743,0.712516087 C0.684550743,0.712516087 8.91994712,-0.952589805 9.15612775,7.5494425 L7.15477266,7.11436566 Z" id="Fill-5" fill-opacity="0.58" fill="#FC790D" mask="url(#mask-4)"></path>
                    </g>
                    <g transform="translate(0.000000, 0.658986)">
                        <g transform="translate(69.751148, 118.414739)">
                            <mask id="mask-6" fill="white">
                                <use xlink:href="#path-5"></use>
                            </mask>
                            <g id="Clip-8"></g>
                            <path d="M2.1298513,11.4526681 C2.1298513,11.4526681 -1.59938571,5.57911856 1.68234091,0.0909360314 C1.68234091,0.0909360314 7.9474539,4.06877911 5.16295564,11.4650935 L2.1298513,11.4526681 Z" id="Fill-7" fill-opacity="0.73" fill="#FC790D" mask="url(#mask-6)"></path>
                        </g>
                        <mask id="mask-8" fill="white">
                            <use xlink:href="#path-7"></use>
                        </mask>
                        <g id="Clip-10"></g>
                        <path d="M72.8133044,129.873499 C72.8133044,129.873499 74.777367,123.658104 80.7068472,122.49583 C80.7068472,122.49583 81.8193942,126.5234 76.8657407,129.886549 L72.8133044,129.873499 Z" id="Fill-9" fill="#FC790D" mask="url(#mask-8)"></path>
                        <polygon id="Fill-11" fill="#24285B" mask="url(#mask-8)" points="68.9845585 129.730858 70.0598211 137.101686 76.8470295 137.132763 77.8477071 129.76815"></polygon>
                        <polygon id="Fill-12" fill="#24285B" mask="url(#mask-8)" points="84.3925627 35.5859813 107.551112 35.5859813 107.551112 12.4274323 84.3925627 12.4274323"></polygon>
                    </g>
                    <g transform="translate(0.000000, 0.658986)">
                        <polygon id="Fill-13" fill-opacity="0.4" fill="#FFFFFF" points="93.1811262 8.79767984 97.6064846 8.79767984 97.6064846 17.1014405 93.1811262 17.1014405"></polygon>
                        <mask id="mask-10" fill="white">
                            <use xlink:href="#path-9"></use>
                        </mask>
                        <g id="Clip-16"></g>
                        <polygon id="Fill-15" fill="#FFD200" mask="url(#mask-10)" points="121.35548 36.0645877 144.514646 36.0645877 144.514646 12.9060387 121.35548 12.9060387"></polygon>
                    </g>
                    <g transform="translate(0.000000, 0.658986)">
                        <path d="M120.777477,49.8130459 L143.936024,49.8130459 L143.936024,72.9715927 L120.777477,72.9715927 L120.777477,49.8130459 Z" id="Stroke-17" stroke="#C9C9C9" stroke-width="0.799999952" stroke-linecap="round" stroke-linejoin="round" stroke-dasharray="1.599999904632568,3.999999761581421"></path>
                        <mask id="mask-12" fill="white">
                            <use xlink:href="#path-11"></use>
                        </mask>
                        <g id="Clip-20"></g>
                        <polygon id="Fill-19" fill="#C9C9C9" mask="url(#mask-12)" points="84.3925627 72.9715909 107.551112 72.9715909 107.551112 49.8130418 84.3925627 49.8130418"></polygon>
                        <polygon id="Fill-21" fill="#C9C9C9" mask="url(#mask-12)" points="48.4427562 72.9715909 71.6013052 72.9715909 71.6013052 49.8130418 48.4427562 49.8130418"></polygon>
                    </g>
                    <g transform="translate(0.000000, 0.658986)">
                        <polygon id="Fill-22" fill-opacity="0.4" fill="#FFFFFF" points="130.144044 9.27628627 134.569402 9.27628627 134.569402 17.5800469 130.144044 17.5800469"></polygon>
                        <mask id="mask-14" fill="white">
                            <use xlink:href="#path-13"></use>
                        </mask>
                        <g id="Clip-25"></g>
                        <polygon id="Fill-24" fill="#FFD200" mask="url(#mask-14)" points="49.0145696 36.0645877 72.1731186 36.0645877 72.1731186 12.9060387 49.0145696 12.9060387"></polygon>
                    </g>
                    <polygon id="Fill-26" fill-opacity="0.4" fill="#FFFFFF" points="57.809354 18.239033 62.2347123 18.239033 62.2347123 9.9352724 57.809354 9.9352724"></polygon>
                    <g transform="translate(0.000000, 0.658986)">
                        <g transform="translate(45.419352, 51.907831)">
                            <mask id="mask-16" fill="white">
                                <use xlink:href="#path-15"></use>
                            </mask>
                            <g id="Clip-29"></g>
                            <path d="M12.8933861,12.2627709 L3.73189729,12.5113851 L0.717431109,39.6104928 L13.8319041,39.6104928 C14.5560021,37.0963613 16.7512735,35.2864407 19.3573872,35.0546073 C29.5381999,34.1782409 51.9446531,29.0443212 47.2831677,0.453544673 L34.8523614,14.9664633 L22.5458825,21.3869591 L12.8933861,12.2627709 Z" id="Fill-28" fill-opacity="0.08" fill="#000000" mask="url(#mask-16)"></path>
                        </g>
                        <mask id="mask-18" fill="white">
                            <use xlink:href="#path-17"></use>
                        </mask>
                        <g id="Clip-31"></g>
                        <polygon id="Fill-30" fill="#F4A28C" mask="url(#mask-18)" points="34.526437 52.2681849 36.2667444 57.4953035 32.1335103 60.1244351 30.6418172 51.0686274"></polygon>
                        <path d="M29.2248307,46.0154811 C29.9445733,44.3670831 31.8638816,43.6138518 33.5122067,44.3335863 C33.9280127,44.5144526 34.300938,44.7804803 34.6073565,45.1142314 C36.3663182,46.978858 38.4857636,49.9808339 36.0866242,51.6092799 C32.413326,54.0954217 29.0445808,49.4463454 29.0445808,49.4463454 C28.7673767,48.3095639 28.8301528,47.1168193 29.2248307,46.0154811" id="Fill-32" fill="#F4A28C" mask="url(#mask-18)"></path>
                        <path d="M31.90982,49.2536376 C31.90982,49.2536376 30.971294,48.4643142 30.5424299,49.5830901 C30.1135658,50.7018661 31.7855089,51.2425997 32.2765245,50.6769666 C32.7675402,50.1114145 31.90982,49.2536376 31.90982,49.2536376" id="Fill-33" fill="#F4A28C" mask="url(#mask-18)"></path>
                        <path d="M28.6157247,60.1739909 C28.6157247,60.1739909 13.8168751,69.1427881 11.9025386,90.1694582 C11.5482596,93.7805968 13.9032692,97.1027223 17.4280218,97.9635569 L34.7751729,102.146517 L28.6157247,60.1739909 Z" id="Fill-34" fill="#FC790D" mask="url(#mask-18)"></path>
                    </g>
                    <g transform="translate(0.000000, 0.658986)">
                        <g transform="translate(11.354838, 60.018430)">
                            <mask id="mask-20" fill="white">
                                <use xlink:href="#path-19"></use>
                            </mask>
                            <g id="Clip-36"></g>
                            <path d="M17.2608867,0.155561281 C17.2608867,0.155561281 2.46203709,9.12435853 0.547700613,30.1510286 C0.193421555,33.7621672 2.54843118,37.0842927 6.07318379,37.9451273 L23.4203348,42.1280874 L17.2608867,0.155561281 Z" id="Fill-35" fill-opacity="0.2" fill="#FFFFFF" mask="url(#mask-20)"></path>
                        </g>
                        <mask id="mask-22" fill="white">
                            <use xlink:href="#path-21"></use>
                        </mask>
                        <g id="Clip-38"></g>
                        <polygon id="Fill-37" fill="#FFD200" mask="url(#mask-22)" points="12.091548 96.1525738 34.8342829 85.7020189 41.6674865 100.571723 18.9247436 111.022902"></polygon>
                        <path d="M32.4132611,47.8676174 C32.4132611,47.8676174 34.3648982,53.4614973 30.9588605,53.1072263 C27.5528308,52.7529554 29.423662,50.3537592 27.7330726,47.8676174 C26.0424914,45.3814756 26.9312913,43.6970665 29.5106725,41.5154777 C30.6916,40.5147921 31.4871686,40.048676 31.959538,39.5141064 C32.6463435,38.7465193 33.824781,38.6806613 34.5923762,39.3674668 C34.7751161,39.5303276 34.9236617,39.7285506 35.029943,39.94924 C35.9249556,42.0997652 35.9311765,44.9712416 32.4132611,47.8676174" id="Fill-39" fill="#24285B" mask="url(#mask-22)"></path>
                        <path d="M25.1972534,64.5745421 C26.617476,61.4202655 29.3398147,59.0403725 32.6557275,58.0546104 C38.982992,56.152675 51.003556,52.1624227 54.5525512,58.085674 C59.4129815,66.1656794 51.9296566,98.0009143 51.9296566,98.0009143 L30.6730186,99.6479904 C30.6730186,99.6479904 18.9756538,78.5529561 25.1972534,64.5745421" id="Fill-40" fill="#FC790D" mask="url(#mask-22)"></path>
                        <polygon id="Fill-41" fill="#24285B" mask="url(#mask-22)" points="51.9359342 98.0007846 49.1390024 134.559713 44.7198617 134.559713 40.7730903 106.155375 30.9962747 99.6478687"></polygon>
                        <polygon id="Fill-42" fill="#24285B" mask="url(#mask-22)" points="30.9962747 99.648112 24.8927653 134.559965 29.6351053 134.559965 39.8718568 105.558954"></polygon>
                    </g>
                    <g transform="translate(0.000000, 0.658986)">
                        <g transform="translate(22.709676, 56.774190)">
                            <mask id="mask-24" fill="white">
                                <use xlink:href="#path-23"></use>
                            </mask>
                            <g id="Clip-44"></g>
                            <path d="M11.7918939,0.727277376 C11.7918939,0.727277376 1.84726994,32.7614167 30.5685947,34.9119419 L29.2260716,41.251648 L7.9632128,42.873857 C3.07916442,34.2587062 0.599843651,24.4893523 0.784440875,14.5876172 C0.784440875,14.5876172 0.970903537,6.414348 6.72013379,2.77836665 C8.24539674,1.74166994 9.97451959,1.04245524 11.7918939,0.727277376" id="Fill-43" fill-opacity="0.08" fill="#000000" mask="url(#mask-24)"></path>
                        </g>
                        <mask id="mask-26" fill="white">
                            <use xlink:href="#path-25"></use>
                        </mask>
                        <g id="Clip-46"></g>
                        <path d="M25.7565765,134.5599 L22.8104827,136.722858 C22.5034479,136.875756 22.3778958,137.24868 22.5307887,137.555721 C22.6532344,137.803093 22.9242257,137.93921 23.1958416,137.891352 L28.1246442,137.891352 C28.4677307,137.891352 28.7461837,137.612902 28.7461837,137.269812 L28.7461837,134.584767 L25.7565765,134.5599 Z" id="Fill-45" fill="#FC790D" mask="url(#mask-26)"></path>
                        <path d="M49.0145696,134.5599 L51.7866343,136.722858 C52.0713001,136.943504 52.123508,137.35372 51.9028673,137.638385 C51.7785562,137.799364 51.5858808,137.892594 51.3826373,137.891364 L47.8709428,137.891364 C46.8410508,137.891364 46.0063243,137.056624 46.0063243,136.026734 L46.0063243,134.566121 L49.0145696,134.5599 Z" id="Fill-47" fill="#FC790D" mask="url(#mask-26)"></path>
                        <path d="M91.8633973,54.6050917 C91.8633973,54.6050917 94.0139225,51.1928006 91.5588443,50.2542422 C89.1037661,49.3157648 89.3212924,53.8467507 89.3212924,53.8467507 L91.8633973,54.6050917 Z" id="Fill-48" fill="#F4A28C" mask="url(#mask-26)"></path>
                        <path d="M92.5098931,54.7917165 L89.3213735,53.8594032 L75.336755,66.0353421 C73.2421685,67.8570717 70.3315018,68.4164597 67.7104645,67.5021763 C63.8861389,66.2050239 60.6348675,63.613201 58.517904,60.1742342 C53.4896573,52.0195951 44.9497079,54.96577 44.9497079,54.96577 C44.9497079,54.96577 38.5167785,61.3116645 51.264547,72.1885774 C58.8783958,78.6774456 66.6662817,79.0876635 71.7131828,78.3604591 C72.3322324,78.2871231 72.9543964,78.2473406 73.5778013,78.2417443 C74.1726083,78.2175098 74.7580962,78.0851205 75.3056751,77.8507972 C75.9831534,77.5624086 76.6432264,77.2342295 77.2821712,76.8687659 C82.4782181,73.9164594 88.0596888,67.582974 92.5098931,54.7917165" id="Fill-49" fill="#FC790D" mask="url(#mask-26)"></path>
                    </g>
                    <g transform="translate(42.986173, 54.188937)">
                        <mask id="mask-28" fill="white">
                            <use xlink:href="#path-27"></use>
                        </mask>
                        <g id="Clip-51"></g>
                        <path d="M49.5237206,1.26176582 L46.3352009,0.329452515 L32.3505824,12.5053913 C30.255996,14.327121 27.3453292,14.886509 24.724292,13.9722255 C20.8999663,12.6750732 17.648695,10.0832503 15.5317314,6.64428347 C10.5034847,-1.51035567 1.96353537,1.43581927 1.96353537,1.43581927 C1.96353537,1.43581927 -4.46939402,7.78171382 8.27837444,18.6586267 C15.8922232,25.1474949 23.6801092,25.5577128 28.7270103,24.8305084 C29.3460598,24.7571723 29.9682238,24.7173899 30.5916288,24.7117936 C31.1864357,24.6875591 31.7719236,24.5551698 32.3195026,24.3208465 C32.9969809,24.0324579 33.6570538,23.7042788 34.2959987,23.3388152 C39.4920456,20.3865086 45.0735162,14.0530233 49.5237206,1.26176582" id="Fill-50" fill-opacity="0.2" fill="#FFFFFF" mask="url(#mask-28)"></path>
                    </g>
                    <polygon id="Fill-52" fill-opacity="0.4" fill="#FFFFFF" points="54.1049759 25.1443156 67.088925 25.1443156 67.088925 22.8508362 54.1049759 22.8508362"></polygon>
                    <g transform="translate(0.000000, 0.658986)">
                        <polygon id="Fill-54" fill-opacity="0.4" fill="#FFFFFF" points="133.92926 30.7628873 142.183303 30.7628873 142.183303 33.0563667 133.92926 33.0563667"></polygon>
                        <mask id="mask-30" fill="white">
                            <use xlink:href="#path-29"></use>
                        </mask>
                        <g id="Clip-57"></g>
                        <polygon id="Fill-56" fill="#FFD200" mask="url(#mask-30)" points="95.971821 33.0563667 104.225864 33.0563667 104.225864 30.7628873 95.971821 30.7628873"></polygon>
                    </g>
                    <g transform="translate(0.000000, 0.658986)">
                        <polygon id="Fill-58" fill-opacity="0.4" fill="#FFFFFF" points="54.1049759 27.3444322 67.088925 27.3444322 67.088925 29.6379116 54.1049759 29.6379116"></polygon>
                        <mask id="mask-32" fill="white">
                            <use xlink:href="#path-31"></use>
                        </mask>
                        <g id="Clip-61"></g>
                        <polygon id="Fill-60" fill="#C9C9C9" mask="url(#mask-32)" points="125.787111 81.9901223 138.93204 81.9901223 138.93204 78.6213803 125.787111 78.6213803"></polygon>
                        <polygon id="Fill-62" fill="#C9C9C9" mask="url(#mask-32)" points="89.402155 81.9901223 102.547708 81.9901223 102.547708 78.6213803 89.402155 78.6213803"></polygon>
                        <polygon id="Fill-63" fill="#ADADAD" mask="url(#mask-32)" points="158.181734 128.245061 172.148339 128.245061 172.148339 126.448813 158.181734 126.448813"></polygon>
                        <polygon id="Fill-64" fill="#C9C9C9" mask="url(#mask-32)" points="157.609694 110.724124 155.844503 137.8916 157.609694 137.8916 161.34576 110.724124"></polygon>
                        <polygon id="Fill-65" fill="#C9C9C9" mask="url(#mask-32)" points="172.123042 110.724124 173.881988 137.8916 172.123042 137.8916 168.386895 110.724124"></polygon>
                        <polygon id="Fill-66" fill="#E6E6E6" mask="url(#mask-32)" points="155.844746 111.526286 173.882434 111.526286 173.882434 107.249476 155.844746 107.249476"></polygon>
                        <path d="M170.078117,105.763933 L166.485609,105.763933 L166.485609,104.974577 L170.078117,104.974577 C170.60709,104.974577 171.03533,104.546338 171.03533,104.017405 L171.03533,101.462883 C171.03533,100.93395 170.60709,100.505711 170.078117,100.505711 L166.485609,100.505711 L166.485609,99.7169791 L170.078117,99.7169791 C171.042792,99.7169791 171.824653,100.498257 171.824653,101.462883 L171.824653,104.029839 C171.81784,104.989493 171.037763,105.763933 170.078117,105.763933" id="Fill-67" fill="#FFD200" mask="url(#mask-32)"></path>
                    </g>
                    <g transform="translate(0.000000, 0.658986)">
                        <g transform="translate(166.267271, 98.949303)">
                            <mask id="mask-34" fill="white">
                                <use xlink:href="#path-33"></use>
                            </mask>
                            <g id="Clip-69"></g>
                            <path d="M3.81084586,6.81463038 L0.218337314,6.81463038 L0.218337314,6.02527448 L3.81084586,6.02527448 C4.3398191,6.02527448 4.7680587,5.59703487 4.7680587,5.06810219 L4.7680587,2.51357994 C4.7680587,1.98464725 4.3398191,1.55640765 3.81084586,1.55640765 L0.218337314,1.55640765 L0.218337314,0.767676268 L3.81084586,0.767676268 C4.77552045,0.767676268 5.55738216,1.54895401 5.55738216,2.51357994 L5.55738216,5.08053573 C5.55056925,6.04018987 4.77049188,6.81463038 3.81084586,6.81463038" id="Fill-68" fill-opacity="0.46" fill="#FFFFFF" mask="url(#mask-34)"></path>
                        </g>
                        <mask id="mask-36" fill="white">
                            <use xlink:href="#path-35"></use>
                        </mask>
                        <g id="Clip-71"></g>
                        <polygon id="Fill-70" fill="#FFD200" mask="url(#mask-36)" points="161.531817 107.306034 168.524132 107.306034 168.524132 97.9015271 161.531817 97.9015271"></polygon>
                    </g>
                    <g transform="translate(0.000000, 0.658986)">
                        <g transform="translate(163.023032, 99.760363)">
                            <mask id="mask-38" fill="white">
                                <use xlink:href="#path-37"></use>
                            </mask>
                            <g id="Clip-73"></g>
                            <path d="M2.09488651,0.34781491 C3.25162008,0.34781491 4.1895297,1.3963531 4.1895297,2.69101551 C4.1895297,3.98506151 3.25162008,5.03421611 2.09488651,5.03421611 C0.938234045,5.03421611 0.000324423944,3.98506151 0.000324423944,2.69101551 C0.000324423944,1.3963531 0.938234045,0.34781491 2.09488651,0.34781491" id="Fill-72" fill-opacity="0.08" fill="#000000" mask="url(#mask-38)"></path>
                        </g>
                        <mask id="mask-40" fill="white">
                            <use xlink:href="#path-39"></use>
                        </mask>
                        <g id="Clip-75"></g>
                        <path d="M162.594711,97.9012189 C162.594711,97.9012189 161.606516,94.6070587 164.241244,94.2782631 C166.877188,93.9488512 170.506357,94.6070587 169.151968,90.6478538 C167.797011,86.6892734 166.044311,87.5401563 168.002128,83.0657012 C169.960027,78.5906136 175.187145,86.5649622 177.10149,82.3447177 C179.015834,78.124465 181.65113,79.5788657 184.285858,81.6541813 C186.921803,83.7301215 187.450127,90.1885343 182.241014,91.1767865 C177.032469,92.1650305 175.976469,93.2962319 174.926065,96.1919832 C173.875094,99.0883591 168.530453,97.9012189 168.530453,97.9012189 L162.594711,97.9012189 Z" id="Fill-74" fill="#E6E6E6" mask="url(#mask-40)"></path>
                    </g>
                </g>
                <g id="独家解决方案备份" transform="translate(24.461564, 150.986898)">
                    <rect id="Rectangle-3" fill="#FC790D" x="0" y="0" width="170.724849" height="33.4026878" rx="3.6022268"></rect>
                    <text id="独家功能" font-family="FZLTCHJW--GB1-0, FZLanTingHeiS-B-GB" font-size="18.011134" font-weight="normal" line-spacing="21.6133608" fill="#FFFFFF">
                        <tspan x="88.2357293" y="21.6301145">独家功能</tspan>
                    </text>
                    <g id="句客宝logo" transform="translate(7.586043, 6.804206)">
                        <path d="M8.5045812,-1.54758361e-13 C10.8112375,-1.54758361e-13 12.8057681,0.840190548 14.4873285,2.51821487 C16.1682133,4.19724924 17.0093313,6.18872473 17.0093313,8.49129462 C17.0093313,13.6068447 13.4313707,17.3731406 6.27595631,19.7940543 L6.27595631,19.7940543 L6.27595631,16.690349 C4.35962604,16.1429037 2.8344663,15.0988521 1.7008149,13.5571841 C0.566319003,12.0151794 0,10.3273913 0,8.49129462 C0,6.18872473 0.840104599,4.19724924 2.52200279,2.51821487 C4.20254978,0.840190548 6.19691149,-1.54758361e-13 8.5045812,-1.54758361e-13 Z M8.58225794,5.2306954 C6.81253216,5.18709504 5.34614935,6.43618618 5.30679584,8.02094952 C5.26761122,9.60554452 6.67031904,10.9251706 8.44021371,10.9691076 C8.51132027,10.9712961 8.58090674,10.9669192 8.65066211,10.9650674 C8.65066211,10.9654041 8.95214717,11.178019 9.2828518,11.3477068 C9.65155874,11.5364172 10.1045464,11.6631781 10.3678602,11.6406204 C10.7162993,11.610824 10.7711915,11.3874353 10.7014361,11.2731317 C10.6352277,11.164215 10.5195317,11.1593331 10.4077204,11.0893032 C10.2734456,11.0047959 10.2139931,10.9620373 10.158763,10.8308996 C10.0954258,10.6798976 10.1687281,10.5677824 10.3080699,10.4928706 L10.3218071,10.4797026 C10.326236,10.4754379 10.3316595,10.4702006 10.3379651,10.4640842 C11.1498635,9.96225936 11.6920299,9.1326743 11.7156758,8.17919018 C11.7550293,6.59476352 10.3523215,5.27463243 8.58225794,5.2306954 Z" id="形状结合" fill="#FFFFFF"></path>
                        <path d="M31.6453564,18.3197822 C32.0357836,18.3197822 32.4576967,18.23199 32.911096,18.0564057 C33.3644952,17.8808213 33.7864084,17.5986322 34.1768355,17.2098383 C34.5672626,16.8210443 34.8978662,16.3131039 35.1686463,15.6860169 C35.4394264,15.05893 35.5811137,14.2938839 35.5937081,13.3908786 L35.5937081,13.3908786 L35.6881663,4.79351628 C35.7133551,4.36709715 35.5748165,4.0033867 35.2725503,3.70238496 C34.9576897,3.38884147 34.5609654,3.23206973 34.0823773,3.23206973 L34.0823773,3.23206973 L26.3556987,3.23206973 C26.4438597,2.98123495 26.5257234,2.71472298 26.6012899,2.43253385 C26.6768565,2.15034471 26.7650174,1.8524784 26.8657728,1.53893492 C26.928745,1.35080883 26.9098533,1.17208904 26.8090979,1.00277556 C26.7083425,0.833462079 26.5635067,0.71745099 26.3745903,0.654742293 C26.1730796,0.592033596 25.9873118,0.610846205 25.8172871,0.71118012 C25.6472624,0.811514035 25.530764,0.955744037 25.4677919,1.14387013 C25.2536867,1.88383275 25.0490273,2.54854494 24.8538137,3.13800669 C24.6586002,3.72746844 24.4539408,4.26989867 24.2398356,4.76529737 C24.0257304,5.26069608 23.789585,5.72474043 23.5313993,6.15743044 C23.2732136,6.59012045 22.9740961,7.01967502 22.6340466,7.44609416 C22.5081024,7.60913677 22.4577247,7.78785656 22.4829136,7.98225352 C22.5081024,8.17665048 22.6025606,8.33655766 22.7662881,8.46197505 C22.9048267,8.56230896 23.0496626,8.61247592 23.2007957,8.61247592 C23.3015511,8.61247592 23.4054551,8.59052788 23.5125077,8.54663179 C23.6195603,8.5027357 23.7108698,8.4306207 23.7864364,8.33028679 C24.25243,7.74082504 24.6460057,7.16076959 24.9671635,6.59012045 C25.2883213,6.01947131 25.5811417,5.37670716 25.8456246,4.66182802 L25.8456246,4.66182802 L34.0823773,4.66182802 C34.1579439,4.66182802 34.2083216,4.68064063 34.2335104,4.71826585 C34.2461048,4.71826585 34.252402,4.73707846 34.252402,4.77470367 L34.252402,4.77470367 L34.1390522,13.372066 C34.1264578,14.0869452 34.0225538,14.670136 33.8273403,15.1216387 C33.6321267,15.5731413 33.4022785,15.9305808 33.1377956,16.1939574 C32.8733127,16.4573339 32.599384,16.6360537 32.3160095,16.7301167 C32.032635,16.8241798 31.8090839,16.8712113 31.6453564,16.8712113 L31.6453564,16.8712113 L31.1730656,16.8712113 C30.9589604,16.8586696 30.7826385,16.9213783 30.6440998,17.0593374 C30.5055611,17.1972965 30.4362918,17.36661 30.4362918,17.5672778 C30.4236974,17.7804874 30.4866695,17.9560717 30.6252082,18.0940309 C30.7637468,18.23199 30.9337715,18.3072405 31.1352823,18.3197822 L31.1352823,18.3197822 L31.6453564,18.3197822 Z M30.9270496,14.1810082 C31.267099,14.1810082 31.5567707,14.0618617 31.7960648,13.8235686 C32.0353588,13.5852756 32.1550058,13.2968156 32.1550058,12.9581886 L32.1550058,12.9581886 L32.1550058,8.23622374 C32.1550058,7.89759678 32.0353588,7.60913677 31.7960648,7.37084372 C31.5567707,7.13255068 31.267099,7.01340415 30.9270496,7.01340415 L30.9270496,7.01340415 L26.506407,7.01340415 C26.1663576,7.01340415 25.8766859,7.13255068 25.6373918,7.37084372 C25.3980978,7.60913677 25.2784508,7.89759678 25.2784508,8.23622374 L25.2784508,8.23622374 L25.2784508,12.9581886 C25.2784508,13.2968156 25.3980978,13.5852756 25.6373918,13.8235686 C25.8766859,14.0618617 26.1663576,14.1810082 26.506407,14.1810082 L26.506407,14.1810082 L30.9270496,14.1810082 Z M30.7003499,12.7324373 L26.7331066,12.7324373 L26.7331066,8.44316244 L30.7003499,8.44316244 L30.7003499,12.7324373 Z M53.0865124,6.37377544 C53.2880232,6.37377544 53.4611965,6.30166044 53.6060324,6.15743044 C53.7508682,6.01320044 53.8232862,5.84702239 53.8232862,5.6588963 L53.8232862,5.6588963 L53.8232862,3.60832191 C53.8232862,3.26969495 53.7004906,2.98123495 53.4548993,2.7429419 C53.209308,2.50464885 52.9164877,2.38550233 52.5764383,2.38550233 L52.5764383,2.38550233 L48.3069288,2.38550233 L47.6457216,1.04980708 C47.5449662,0.874222732 47.403279,0.751940773 47.2206598,0.682961206 C47.0380407,0.61398164 46.8585701,0.623387944 46.6822482,0.71118012 C46.5059263,0.798972295 46.3799821,0.936931428 46.3044155,1.12505752 C46.228849,1.31318361 46.2414434,1.49503883 46.3421988,1.67062318 L46.3421988,1.67062318 L46.7011399,2.36668972 L42.1293642,2.36668972 C41.7767204,2.36668972 41.4807514,2.48583624 41.2414574,2.72412929 C41.0021634,2.96242234 40.8825163,3.25088234 40.8825163,3.5895093 L40.8825163,3.5895093 L40.8825163,5.64008369 C40.8825163,5.85329326 40.9549343,6.02887761 41.0997701,6.16683674 C41.244606,6.30479588 41.4177793,6.37377544 41.6192901,6.37377544 C41.8208009,6.37377544 41.9908256,6.30166044 42.1293642,6.15743044 C42.2679029,6.01320044 42.3371722,5.84702239 42.3371722,5.6588963 L42.3371722,5.6588963 L42.3371722,3.83407322 L52.3686303,3.83407322 L52.3686303,5.6588963 C52.3686303,5.84702239 52.4378996,6.01320044 52.5764383,6.15743044 C52.7149769,6.30166044 52.8850017,6.37377544 53.0865124,6.37377544 Z M53.4832368,12.8076877 C53.6595587,12.8076877 53.8138404,12.7543853 53.9460818,12.6477806 C54.0783232,12.5411758 54.1570384,12.4000812 54.1822272,12.2244969 C54.2326049,12.023829 54.2011189,11.8419738 54.0877691,11.6789312 C53.9744193,11.5158886 53.816989,11.4155547 53.6154782,11.3779295 C52.5449522,11.1647199 51.6098163,10.9483749 50.8100704,10.7288944 C50.0103246,10.509414 49.3081855,10.2617146 48.7036531,9.98579638 C49.3585632,9.5468355 49.9410552,9.07024941 50.4511294,8.55603809 C50.9612035,8.04182678 51.4114541,7.47117764 51.8018813,6.84409067 C51.8774478,6.73121502 51.9183797,6.60266219 51.9246769,6.45843218 C51.9309741,6.31420218 51.9089339,6.18251392 51.8585562,6.06336739 C51.8081785,5.94422087 51.7294633,5.84075152 51.6224107,5.75295935 C51.5153581,5.66516717 51.3862653,5.62127108 51.2351322,5.62127108 L51.2351322,5.62127108 L45.7376665,5.62127108 C45.7880442,5.52093717 45.8321247,5.43314499 45.8699079,5.35789456 C45.9076912,5.28264412 45.9454745,5.19485194 45.9832577,5.09451803 C46.0714187,4.91893368 46.0808645,4.74021389 46.0115952,4.55835867 C45.9423259,4.37650345 45.813233,4.23540888 45.6243167,4.13507497 C45.4479947,4.04728279 45.2685242,4.03787649 45.0859051,4.10685605 C44.9032859,4.17583562 44.7615987,4.30438845 44.6608433,4.49251454 C44.3333883,5.1823102 43.9114751,5.83448065 43.3951038,6.44902588 C42.8787324,7.06357111 42.2679029,7.62167851 41.5626152,8.12334809 C41.3862933,8.23622374 41.2855379,8.38986005 41.260349,8.58425701 C41.2351602,8.77865397 41.2729435,8.95737375 41.3736988,9.12041637 C41.5374263,9.3210842 41.7389371,9.42141811 41.9782312,9.42141811 C42.1419587,9.42141811 42.2742001,9.37125115 42.3749555,9.27091724 C42.626844,9.09533289 42.8692866,8.91347767 43.1022834,8.72535158 C43.3352803,8.53722548 43.5588313,8.33655766 43.7729365,8.12334809 C44.1003915,8.46197505 44.4246979,8.78492484 44.7458557,9.09219745 C45.0670134,9.39947007 45.4102115,9.68479464 45.7754498,9.94817116 C44.4656297,10.5250912 42.9165157,11.0016773 41.1281076,11.3779295 C40.9265968,11.4155547 40.7691665,11.519024 40.6558167,11.6883375 C40.5424669,11.857651 40.5109809,12.0426416 40.5613585,12.2433095 C40.5991418,12.4063521 40.6841542,12.5411758 40.8163956,12.6477806 C40.9486371,12.7543853 41.1029187,12.8076877 41.2792407,12.8076877 C41.3422128,12.8076877 41.3925905,12.8014169 41.4303737,12.7888751 C42.5764663,12.5505821 43.6281006,12.2715284 44.5852768,11.951714 C45.5424529,11.6318997 46.4240625,11.2713247 47.2301056,10.869989 C47.9731766,11.2713247 48.832746,11.6256288 49.8088138,11.9329014 C50.7848816,12.240174 51.9656088,12.5254986 53.3509953,12.7888751 C53.3761842,12.7888751 53.3982244,12.7920106 53.417116,12.7982814 C53.4360077,12.8045523 53.4580479,12.8076877 53.4832368,12.8076877 Z M47.211214,9.1956668 C46.7704092,8.9072068 46.348496,8.58739244 45.9454745,8.23622374 C45.5424529,7.88505504 45.1394314,7.49626112 44.7364098,7.06984198 L44.7364098,7.06984198 L49.8182596,7.06984198 C49.1129719,7.89759678 48.2439567,8.60620505 47.211214,9.1956668 Z M51.0084326,18.0752183 C51.3106988,18.0752183 51.572033,17.9654781 51.7924354,17.7459976 C52.0128378,17.5265172 52.123039,17.2662761 52.123039,16.9652743 L52.123039,16.9652743 L52.123039,13.6918804 C52.123039,13.3783369 52.0159864,13.1118249 51.8018813,12.8923445 C51.5877761,12.672864 51.3232932,12.5631238 51.0084326,12.5631238 L51.0084326,12.5631238 L43.640695,12.5631238 C43.3384289,12.5631238 43.0770946,12.672864 42.8566922,12.8923445 C42.6362898,13.1118249 42.5260886,13.3846078 42.5260886,13.710693 L42.5260886,13.710693 L42.5260886,16.9652743 C42.5260886,17.2662761 42.6331412,17.5265172 42.8472464,17.7459976 C43.0613516,17.9654781 43.3258344,18.0752183 43.640695,18.0752183 L43.640695,18.0752183 L51.0084326,18.0752183 Z M50.6872748,16.64546 L43.9807444,16.64546 L43.9807444,13.9928821 L50.6872748,13.9928821 L50.6872748,16.64546 Z M59.1314108,6.67477719 C59.3329216,6.67477719 59.5029463,6.60266219 59.6414849,6.45843218 C59.7800236,6.31420218 59.8492929,6.14175327 59.8492929,5.94108544 L59.8492929,5.94108544 L59.8492929,4.39845149 L69.880751,4.39845149 L69.880751,5.94108544 C69.880751,6.12921153 69.9500203,6.29538957 70.088559,6.43961958 C70.2270976,6.58384958 70.3971224,6.65596458 70.5986331,6.65596458 C70.8001439,6.65596458 70.9733172,6.58384958 71.1181531,6.43961958 C71.2629889,6.29538957 71.3354069,6.12294066 71.3354069,5.92227283 L71.3354069,5.92227283 L71.3354069,4.05982453 C71.3354069,3.74628105 71.2157599,3.48290452 70.9764658,3.26969495 C70.7371718,3.05648538 70.4412028,2.9498806 70.088559,2.9498806 L70.088559,2.9498806 L66.1779906,2.9498806 C66.1653962,2.86208842 66.1339101,2.77429625 66.0835324,2.68650407 L66.0835324,2.68650407 L64.9878176,1.01218186 C64.8870622,0.836597514 64.7390777,0.729992729 64.5438642,0.692367511 C64.3486506,0.654742293 64.1628829,0.686096641 63.9865609,0.786430556 C63.810239,0.89930621 63.7031864,1.05294252 63.6654032,1.24733948 C63.6276199,1.44173644 63.6654032,1.62045622 63.778753,1.78349884 L63.778753,1.78349884 L64.5155267,2.96869321 L59.6414849,2.96869321 C59.2888411,2.96869321 58.9928721,3.07843343 58.7535781,3.29791386 C58.5142841,3.5173943 58.394637,3.7776354 58.394637,4.07863714 L58.394637,4.07863714 L58.394637,5.94108544 C58.394637,6.14175327 58.467055,6.31420218 58.6118908,6.45843218 C58.7567267,6.60266219 58.9299,6.67477719 59.1314108,6.67477719 Z M70.7308746,18.0564057 C70.9449798,18.0564057 71.1213017,17.9842907 71.2598403,17.8400607 C71.398379,17.6958307 71.4676483,17.5296526 71.4676483,17.3415265 C71.4676483,17.1408587 71.3952304,16.9684098 71.2503945,16.8241798 C71.1055587,16.6799498 70.9323853,16.6078348 70.7308746,16.6078348 L70.7308746,16.6078348 L65.5167834,16.6078348 L65.5167834,12.5443112 L69.6162681,12.5443112 C69.8303733,12.5443112 70.0066952,12.4753316 70.1452339,12.3373725 C70.2837725,12.1994134 70.3530419,12.0300999 70.3530419,11.8294321 C70.3530419,11.6287642 70.2806239,11.4563153 70.1357881,11.3120853 C69.9909522,11.1678553 69.8177789,11.0957403 69.6162681,11.0957403 L69.6162681,11.0957403 L65.5167834,11.0957403 L65.5167834,8.29266157 L70.2208004,8.29266157 C70.4349056,8.29266157 70.6112275,8.223682 70.7497662,8.08572287 C70.8883049,7.94776373 70.9575742,7.77845025 70.9575742,7.57778242 C70.9575742,7.37711459 70.8851563,7.20466568 70.7403204,7.06043567 C70.5954845,6.91620567 70.4223112,6.84409067 70.2208004,6.84409067 L70.2208004,6.84409067 L60.3026922,6.84409067 C60.088587,6.84409067 59.9154136,6.91620567 59.7831722,7.06043567 C59.6509308,7.20466568 59.58481,7.37711459 59.58481,7.57778242 C59.58481,7.77845025 59.6540794,7.94776373 59.792618,8.08572287 C59.9311567,8.223682 60.1011814,8.29266157 60.3026922,8.29266157 L60.3026922,8.29266157 L64.0432358,8.29266157 L64.0432358,11.0957403 L60.3026922,11.0957403 C60.088587,11.0957403 59.9154136,11.1678553 59.7831722,11.3120853 C59.6509308,11.4563153 59.58481,11.6287642 59.58481,11.8294321 C59.58481,12.0300999 59.6540794,12.1994134 59.792618,12.3373725 C59.9311567,12.4753316 60.1011814,12.5443112 60.3026922,12.5443112 L60.3026922,12.5443112 L64.0432358,12.5443112 L64.0432358,16.6078348 L58.9236028,16.6078348 C58.722092,16.6078348 58.5520673,16.6799498 58.4135287,16.8241798 C58.27499,16.9684098 58.2057207,17.1408587 58.2057207,17.3415265 C58.2057207,17.5296526 58.2781386,17.6958307 58.4229745,17.8400607 C58.5678104,17.9842907 58.7346865,18.0564057 58.9236028,18.0564057 L58.9236028,18.0564057 L70.7308746,18.0564057 Z" id="句客宝" stroke="#FFFFFF" stroke-width="0.519999981" fill="#FFFFFF" fill-rule="nonzero"></path>
                        <ellipse id="椭圆形" stroke="#FFFFFF" stroke-width="0.975194876" fill="#FC790D" fill-rule="nonzero" cx="68.4416639" cy="14.5723829" rx="1.4310552" ry="1.4660758"></ellipse>
                    </g>
                </g>
            </g>
        </g>
    </g>
</svg>