<?xml version="1.0" encoding="UTF-8"?>
<svg width="240px" height="140px" viewBox="0 0 240 140" version="1.1" xmlns="http://www.w3.org/2000/svg" xmlns:xlink="http://www.w3.org/1999/xlink">
    <title>1-5</title>
    <g id="最新版备份" stroke="none" stroke-width="1" fill="none" fill-rule="evenodd">
        <g id="企微SCRM-新版" transform="translate(-1007.000000, -3327.000000)">
            <g id="亮点1" transform="translate(0.000000, 2416.000000)">
                <g id="编组-25" transform="translate(130.000000, 241.000000)">
                    <g id="编组-19备份-3" transform="translate(814.000000, 620.000000)">
                        <g id="1-5" transform="translate(63.000000, 50.000000)">
                            <rect id="矩形" fill="#F1F1F1" x="0" y="0" width="240" height="140"></rect>
                            <line x1="148.691284" y1="97.8131952" x2="85.2078146" y2="73.4441746" id="直线" stroke-opacity="0.65" stroke="#A4A4A4" stroke-linecap="square"></line>
                            <line x1="85" y1="67.2573697" x2="148.899098" y2="44" id="直线备份" stroke-opacity="0.65" stroke="#A4A4A4" stroke-linecap="square"></line>
                            <g id="编组-20" transform="translate(30.000000, 39.000000)">
                                <circle id="椭圆形" fill="#FFFFFF" cx="30.8000007" cy="30.8000007" r="30.8000007"></circle>
                                <g id="编组-11" transform="translate(13.200000, 12.100000)">
                                    <path d="M30.1026319,5.26716882 C26.6085858,1.75736611 22.4642317,0 17.6713241,0 C12.8763109,0 8.73230764,1.75736611 5.24036724,5.26716882 C1.74561925,8.77908418 0,12.9445102 0,17.7606299 C0,21.6010611 1.17673127,25.131286 3.53405425,28.3565863 C5.88962249,31.5811823 9.05869001,33.76495 13.0405549,34.910002 L13.0405549,41.401799 C27.9085001,36.3381481 35.3429992,28.4604578 35.3429992,17.7606299 C35.3429992,12.9445102 33.5952742,8.77908418 30.1026319,5.26716882" id="Fill-1" fill="#FC790D"></path>
                                    <path d="M21.3510492,21.8806764 C21.3510492,21.8806764 21.3735309,21.8593136 21.4122685,21.8217566 C23.074874,20.7946224 24.1851223,19.0966293 24.2335444,17.1450399 C24.3141325,13.9020386 21.4416676,11.1999969 17.8169317,11.1100667 C14.1928874,11.0208256 11.1900289,13.5774628 11.1094408,16.8211533 C11.0291985,20.0644992 13.9016634,22.7655072 17.5260535,22.8554374 C17.6716655,22.8599167 17.8141647,22.8509581 17.9570097,22.847168 C17.9570097,22.8478571 18.5743908,23.2830367 19.2516077,23.6303535 C20.0066457,24.0166055 20.9342737,24.2760594 21.4734878,24.2298884 C22.1870212,24.1689012 22.2994295,23.7116697 22.1565845,23.4777133 C22.0210028,23.2547828 21.7840806,23.2447905 21.5551135,23.1014534 C21.2801455,22.9284842 21.1583986,22.8409659 21.0452986,22.5725534 C20.9155967,22.2634829 21.065705,22.0340057 21.3510492,21.8806764" id="Fill-3" fill="#FFFFFF"></path>
                                </g>
                            </g>
                            <g id="编组-17" transform="translate(148.000000, 14.000000)">
                                <rect id="矩形" fill="#FFFFFF" fill-rule="nonzero" x="0" y="0" width="49.3920013" height="49.3920013"></rect>
                                <g id="编组-23" transform="translate(4.445280, 4.445280)">
                                    <g id="编组-22">
                                        <rect id="矩形" stroke="#FC790D" stroke-width="3.07257768" x="1.53628884" y="1.53628884" width="15.3628884" height="15.3628884"></rect>
                                        <rect id="矩形备份-4" fill="#FC790D" x="6.91329978" y="6.91329978" width="4.60886652" height="4.60886652"></rect>
                                    </g>
                                    <g id="编组-22备份" transform="translate(22.276188, 0.000000)">
                                        <rect id="矩形" stroke="#FC790D" stroke-width="3.07257768" x="1.53628884" y="1.53628884" width="15.3628884" height="15.3628884"></rect>
                                        <rect id="矩形备份-4" fill="#FC790D" x="6.91329978" y="6.91329978" width="4.60886652" height="4.60886652"></rect>
                                    </g>
                                    <g id="编组-22备份-2" transform="translate(0.000000, 22.276188)">
                                        <rect id="矩形" stroke="#FC790D" stroke-width="3.07257768" x="1.53628884" y="1.53628884" width="15.3628884" height="15.3628884"></rect>
                                        <rect id="矩形备份-4" fill="#FC790D" x="6.91329978" y="6.91329978" width="4.60886652" height="4.60886652"></rect>
                                    </g>
                                    <path d="M40.7116543,33.7983545 L28.4213435,33.7983545 L28.4211882,29.9571882 L25.3481882,29.9571882 L25.3487659,40.7116543 L22.2761882,40.7116543 L22.2761882,22.2761882 L34.5664989,22.2761882 L34.5661882,25.3481882 L37.6381882,25.3481882 L37.6390766,22.2761882 L40.7116543,22.2761882 L40.7116543,33.7983545 Z M32.2620656,37.6390766 L32.2620656,40.7116543 L29.189488,40.7116543 L29.189488,37.6390766 L32.2620656,37.6390766 Z M40.7116543,37.6390766 L40.7116543,40.7116543 L37.6390766,40.7116543 L37.6390766,37.6390766 L40.7116543,37.6390766 Z" id="形状结合" fill="#FC790D"></path>
                                </g>
                            </g>
                            <g id="编组-17备份" transform="translate(148.000000, 76.000000)">
                                <rect id="矩形" fill="#FFFFFF" fill-rule="nonzero" x="0" y="0" width="49.3920013" height="49.3920013"></rect>
                                <g id="编组-23" transform="translate(4.445280, 4.445280)">
                                    <g id="编组-22">
                                        <rect id="矩形" stroke="#FC790D" stroke-width="3.07257768" x="1.53628884" y="1.53628884" width="15.3628884" height="15.3628884"></rect>
                                        <rect id="矩形备份-4" fill="#FC790D" x="6.91329978" y="6.91329978" width="4.60886652" height="4.60886652"></rect>
                                    </g>
                                    <g id="编组-22备份" transform="translate(22.276188, 0.000000)">
                                        <rect id="矩形" stroke="#FC790D" stroke-width="3.07257768" x="1.53628884" y="1.53628884" width="15.3628884" height="15.3628884"></rect>
                                        <rect id="矩形备份-4" fill="#FC790D" x="6.91329978" y="6.91329978" width="4.60886652" height="4.60886652"></rect>
                                    </g>
                                    <g id="编组-22备份-2" transform="translate(0.000000, 22.276188)">
                                        <rect id="矩形" stroke="#FC790D" stroke-width="3.07257768" x="1.53628884" y="1.53628884" width="15.3628884" height="15.3628884"></rect>
                                        <rect id="矩形备份-4" fill="#FC790D" x="6.91329978" y="6.91329978" width="4.60886652" height="4.60886652"></rect>
                                    </g>
                                    <path d="M40.7116543,33.7983545 L28.4213435,33.7983545 L28.4211882,29.9571882 L25.3481882,29.9571882 L25.3487659,40.7116543 L22.2761882,40.7116543 L22.2761882,22.2761882 L34.5664989,22.2761882 L34.5661882,25.3481882 L37.6381882,25.3481882 L37.6390766,22.2761882 L40.7116543,22.2761882 L40.7116543,33.7983545 Z M32.2620656,37.6390766 L32.2620656,40.7116543 L29.189488,40.7116543 L29.189488,37.6390766 L32.2620656,37.6390766 Z M40.7116543,37.6390766 L40.7116543,40.7116543 L37.6390766,40.7116543 L37.6390766,37.6390766 L40.7116543,37.6390766 Z" id="形状结合" fill="#FC790D"></path>
                                </g>
                            </g>
                        </g>
                    </g>
                </g>
            </g>
        </g>
    </g>
</svg>