<?xml version="1.0" encoding="UTF-8"?>
<svg width="281px" height="279px" viewBox="0 0 281 279" version="1.1" xmlns="http://www.w3.org/2000/svg" xmlns:xlink="http://www.w3.org/1999/xlink">
    <title>8-2</title>
    <defs>
        <polyline id="path-1" points="280.045125 0.669051 280.045125 19.8991689 0 19.8991689 0 0.668375088"></polyline>
        <polygon id="path-3" points="0 214.713169 280.045125 214.713169 280.045125 0.599927118 0 0.599927118"></polygon>
        <polygon id="path-5" points="0.1599039 0.11935557 12.7372166 0.11935557 12.7372166 10.4657778 0.1599039 10.4657778"></polygon>
        <polygon id="path-7" points="0.2442285 0.69936804 8.47613741 0.69936804 8.47613741 17.5861015 0.2442285 17.5861015"></polygon>
        <polygon id="path-9" points="0 214.713169 280.045125 214.713169 280.045125 0.599927118 0 0.599927118"></polygon>
        <polygon id="path-11" points="0 214.713169 280.045125 214.713169 280.045125 0.599927118 0 0.599927118"></polygon>
        <polygon id="path-13" points="0 214.713169 280.045125 214.713169 280.045125 0.599927118 0 0.599927118"></polygon>
        <polygon id="path-15" points="0 214.713169 280.045125 214.713169 280.045125 0.599927118 0 0.599927118"></polygon>
        <polygon id="path-17" points="0.24215949 0.6146595 70.3118139 0.6146595 70.3118139 58.74993 0.24215949 58.74993"></polygon>
        <polygon id="path-19" points="0 214.713169 280.045125 214.713169 280.045125 0.599927118 0 0.599927118"></polygon>
        <polygon id="path-21" points="0.555136944 0.12702726 34.5656845 0.12702726 34.5656845 62.4423592 0.555136944 62.4423592"></polygon>
        <polygon id="path-23" points="0 214.713169 280.045125 214.713169 280.045125 0.599927118 0 0.599927118"></polygon>
        <polygon id="path-25" points="0.02787831 0.42506424 44.2618119 0.42506424 44.2618119 62.9989585 0.02787831 62.9989585"></polygon>
        <polygon id="path-27" points="0 214.713169 280.045125 214.713169 280.045125 0.599927118 0 0.599927118"></polygon>
        <polygon id="path-29" points="0.33588351 0.7057386 73.3569345 0.7057386 73.3569345 37.4710509 0.33588351 37.4710509"></polygon>
        <polygon id="path-31" points="0 214.713169 280.045125 214.713169 280.045125 0.599927118 0 0.599927118"></polygon>
        <polygon id="path-33" points="0 214.713169 280.045125 214.713169 280.045125 0.599927118 0 0.599927118"></polygon>
        <polygon id="path-35" points="0.4598037 0.53329266 8.38629478 0.53329266 8.38629478 9.51104701 0.4598037 9.51104701"></polygon>
        <polygon id="path-37" points="0 214.713169 280.045125 214.713169 280.045125 0.599927118 0 0.599927118"></polygon>
        <polygon id="path-39" points="0.2966292 0.40309434 6.5160306 0.40309434 6.5160306 7.36059906 0.2966292 7.36059906"></polygon>
        <polygon id="path-41" points="0 214.713169 280.045125 214.713169 280.045125 0.599927118 0 0.599927118"></polygon>
    </defs>
    <g id="最新版备份" stroke="none" stroke-width="1" fill="none" fill-rule="evenodd">
        <g id="亮点8" transform="translate(-173.000000, -347.000000)">
            <g id="编组-4" transform="translate(130.000000, 241.000000)">
                <g id="8-2" transform="translate(43.000000, 106.000000)">
                    <g id="编组">
                        <g transform="translate(0.000000, 0.111058)">
                            <g transform="translate(0.000000, 194.814000)">
                                <mask id="mask-2" fill="white">
                                    <use xlink:href="#path-1"></use>
                                </mask>
                                <g id="Clip-2"></g>
                                <path d="M140.022918,0.66874527 C217.355829,0.66874527 280.045978,4.97353032 280.045978,10.2841457 C280.045978,15.5947569 217.355829,19.899538 140.022918,19.899538 C62.6900716,19.899538 -9.22782727e-05,15.5947569 -9.22782727e-05,10.2841457 C-9.22782727e-05,4.97353032 62.6900716,0.66874527 140.022918,0.66874527" id="Fill-1" fill-opacity="0.45" fill="#E6E6E6" mask="url(#mask-2)"></path>
                            </g>
                            <mask id="mask-4" fill="white">
                                <use xlink:href="#path-3"></use>
                            </mask>
                            <g id="Clip-4"></g>
                            <polygon id="Fill-3" fill="#E6E6E6" mask="url(#mask-4)" points="58.3660043 136.24893 235.068701 136.24893 235.068701 0.5998707 58.3660043 0.5998707"></polygon>
                        </g>
                        <g transform="translate(95.985000, 184.260058)">
                            <mask id="mask-6" fill="white">
                                <use xlink:href="#path-5"></use>
                            </mask>
                            <g id="Clip-6"></g>
                            <path d="M9.76608271,9.8198272 C9.76608271,9.8198272 1.8762579,7.6605202 0.1599039,0.31516497 C0.1599039,0.31516497 12.3867576,-2.15696781 12.7374228,10.4657778 L9.76608271,9.8198272 Z" id="Fill-5" fill-opacity="0.58" fill="#FC790D" mask="url(#mask-6)"></path>
                        </g>
                        <g transform="translate(0.000000, 0.111058)">
                            <g transform="translate(103.806000, 175.617000)">
                                <mask id="mask-8" fill="white">
                                    <use xlink:href="#path-7"></use>
                                </mask>
                                <g id="Clip-8"></g>
                                <path d="M2.9138202,17.5678359 C2.9138202,17.5678359 -2.622879,8.8475347 2.2493907,0.69936804 C2.2493907,0.69936804 11.5510482,6.60517578 7.4170098,17.5862864 L2.9138202,17.5678359 Z" id="Fill-7" fill-opacity="0.73" fill="#FC790D" mask="url(#mask-8)"></path>
                            </g>
                            <mask id="mask-10" fill="white">
                                <use xlink:href="#path-9"></use>
                            </mask>
                            <g id="Clip-10"></g>
                            <path d="M108.103995,193.19388 C108.103995,193.19388 111.019948,183.966053 119.823337,182.240449 C119.823337,182.240449 121.475132,188.220079 114.120548,193.213255 L108.103995,193.19388 Z" id="Fill-9" fill="#FC790D" mask="url(#mask-10)"></path>
                            <polygon id="Fill-11" fill="#24285B" mask="url(#mask-10)" points="102.41955 192.982102 104.015958 203.92538 114.092748 203.971517 115.578454 193.037467"></polygon>
                            <polygon id="Fill-12" fill="#24285B" mask="url(#mask-10)" points="125.295406 53.2077561 159.678286 53.2077561 159.678286 18.8248768 125.295406 18.8248768"></polygon>
                        </g>
                        <g transform="translate(0.000000, 0.111058)">
                            <polygon id="Fill-13" fill-opacity="0.4" fill="#FFFFFF" points="138.343607 13.4358452 144.91382 13.4358452 144.91382 25.7642226 138.343607 25.7642226"></polygon>
                            <mask id="mask-12" fill="white">
                                <use xlink:href="#path-11"></use>
                            </mask>
                            <g id="Clip-16"></g>
                            <polygon id="Fill-15" fill="#FFD200" mask="url(#mask-12)" points="180.173301 53.9182584 214.557105 53.9182584 214.557105 19.5353791 180.173301 19.5353791"></polygon>
                        </g>
                        <g transform="translate(0.000000, 0.111058)">
                            <path d="M179.315139,74.3302329 L213.698024,74.3302329 L213.698024,108.713117 L179.315139,108.713117 L179.315139,74.3302329 Z" id="Stroke-17" stroke="#C9C9C9" stroke-width="0.711" stroke-linecap="round" stroke-linejoin="round" stroke-dasharray="1.422000000953673,3.554999948740004"></path>
                            <mask id="mask-14" fill="white">
                                <use xlink:href="#path-13"></use>
                            </mask>
                            <g id="Clip-20"></g>
                            <polygon id="Fill-19" fill="#C9C9C9" mask="url(#mask-14)" points="125.295406 108.713109 159.678286 108.713109 159.678286 74.3302295 125.295406 74.3302295"></polygon>
                            <polygon id="Fill-21" fill="#C9C9C9" mask="url(#mask-14)" points="71.9217027 108.713109 106.304582 108.713109 106.304582 74.3302295 71.9217027 74.3302295"></polygon>
                        </g>
                        <g transform="translate(0.000000, 0.111058)">
                            <polygon id="Fill-22" fill-opacity="0.4" fill="#FFFFFF" points="193.221431 14.1463475 199.791644 14.1463475 199.791644 26.4747249 193.221431 26.4747249"></polygon>
                            <mask id="mask-16" fill="white">
                                <use xlink:href="#path-15"></use>
                            </mask>
                            <g id="Clip-25"></g>
                            <polygon id="Fill-24" fill="#FFD200" mask="url(#mask-16)" points="72.7706367 53.9182584 107.153516 53.9182584 107.153516 19.5353791 72.7706367 19.5353791"></polygon>
                        </g>
                        <polygon id="Fill-26" fill-opacity="0.4" fill="#FFFFFF" points="85.8280096 26.5857831 92.3982219 26.5857831 92.3982219 14.2574057 85.8280096 14.2574057"></polygon>
                        <g transform="translate(0.000000, 0.111058)">
                            <g transform="translate(68.256000, 77.499000)">
                                <mask id="mask-18" fill="white">
                                    <use xlink:href="#path-17"></use>
                                </mask>
                                <g id="Clip-29"></g>
                                <path d="M18.3193416,18.1474929 L4.7175561,18.5166441 L0.24206706,58.74993 L19.7127594,58.74993 C20.7877914,55.0173222 24.0470865,52.3301688 27.9163485,51.9859737 C43.0314975,50.6848437 76.2978367,43.0626393 69.3769626,0.6146595 L50.9213223,22.1616567 L32.6501865,31.6939626 L18.3193416,18.1474929 Z" id="Fill-28" fill-opacity="0.08" fill="#000000" mask="url(#mask-18)"></path>
                            </g>
                            <mask id="mask-20" fill="white">
                                <use xlink:href="#path-19"></use>
                            </mask>
                            <g id="Clip-31"></g>
                            <polygon id="Fill-30" fill="#F4A28C" mask="url(#mask-20)" points="51.2604836 77.975299 53.8442789 85.7359351 47.707773 89.6393251 45.4930933 76.1943862"></polygon>
                            <path d="M43.3893296,68.6920563 C44.4579128,66.2447943 47.3074658,65.1263913 49.7546851,66.1950243 C50.3720322,66.4634979 50.9257021,66.8584584 51.3806283,67.3540254 C53.9921029,70.122375 57.1387969,74.5794208 53.5768505,76.9971052 C48.1232103,80.6881906 43.1217234,73.7858025 43.1217234,73.7858025 C42.7101682,72.0980307 42.8033661,70.3272141 43.3893296,68.6920563" id="Fill-32" fill="#F4A28C" mask="url(#mask-20)"></path>
                            <path d="M47.3756649,73.4997672 C47.3756649,73.4997672 45.9822613,72.3278259 45.3455395,73.988793 C44.7088176,75.6498313 47.1911035,76.4526214 47.920106,75.6129304 C48.6491014,74.7731683 47.3756649,73.4997672 47.3756649,73.4997672" id="Fill-33" fill="#F4A28C" mask="url(#mask-20)"></path>
                            <path d="M42.4850087,89.7128425 C42.4850087,89.7128425 20.5135516,103.028593 17.6713789,134.246327 C17.1453953,139.607694 20.641816,144.539979 25.8749182,145.81803 L51.6297841,152.028359 L42.4850087,89.7128425 Z" id="Fill-34" fill="#FC790D" mask="url(#mask-20)"></path>
                        </g>
                        <g transform="translate(0.000000, 0.111058)">
                            <g transform="translate(17.064000, 89.586000)">
                                <mask id="mask-22" fill="white">
                                    <use xlink:href="#path-21"></use>
                                </mask>
                                <g id="Clip-36"></g>
                                <path d="M25.4210087,0.1268424 C25.4210087,0.1268424 3.44955159,13.4425926 0.60737886,44.6603274 C0.0813952801,50.021694 3.57781599,54.9539792 8.8109182,56.2320302 L34.5657841,62.4423592 L25.4210087,0.1268424 Z" id="Fill-35" fill-opacity="0.2" fill="#FFFFFF" mask="url(#mask-22)"></path>
                            </g>
                            <mask id="mask-24" fill="white">
                                <use xlink:href="#path-23"></use>
                            </mask>
                            <g id="Clip-38"></g>
                            <polygon id="Fill-37" fill="#FFD200" mask="url(#mask-24)" points="17.9519964 143.129348 51.7175357 127.613622 61.8626098 149.6903 28.0970705 165.206894"></polygon>
                            <path d="M48.1231178,71.4419199 C48.1231178,71.4419199 51.0206561,79.7469688 45.9638037,79.220971 C40.9069584,78.6949732 43.6845297,75.1330765 41.1745646,71.4419199 C38.6645924,67.7508345 39.9841729,65.2500342 43.8137184,62.0110737 C45.5670089,60.5254392 46.7481718,59.8333518 47.4494809,59.0397336 C48.4691615,57.9000717 50.2187548,57.8023092 51.3583883,58.8219543 C51.6296916,59.0636943 51.8502367,59.3581194 52.008029,59.6856771 C53.3368382,62.8784937 53.346067,67.1417919 48.1231178,71.4419199" id="Fill-39" fill="#24285B" mask="url(#mask-24)"></path>
                            <path d="M37.4096987,96.2462215 C39.5182617,91.5631489 43.5600478,88.0297633 48.48309,86.5662409 C57.8770211,83.7425044 75.7236331,77.8182391 80.9927119,86.6123848 C88.2088642,98.6085901 77.0985649,145.873488 77.0985649,145.873488 L45.5394149,148.318866 C45.5394149,148.318866 28.1726498,116.9996 37.4096987,96.2462215" id="Fill-40" fill="#FC790D" mask="url(#mask-24)"></path>
                            <polygon id="Fill-41" fill="#24285B" mask="url(#mask-24)" points="77.107879 145.873303 72.9553545 200.151385 66.3943959 200.151385 60.5347249 157.980211 46.0193542 148.318681"></polygon>
                            <polygon id="Fill-42" fill="#24285B" mask="url(#mask-24)" points="46.0193542 148.319051 36.9576307 200.151747 43.9984646 200.151747 59.196694 157.094711"></polygon>
                        </g>
                        <g transform="translate(0.000000, 0.111058)">
                            <g transform="translate(34.839000, 85.320000)">
                                <mask id="mask-26" fill="white">
                                    <use xlink:href="#path-25"></use>
                                </mask>
                                <g id="Clip-44"></g>
                                <path d="M16.3845755,0.4250358 C16.3845755,0.4250358 1.62004905,47.9852478 44.2618119,51.1781355 L42.2685945,60.5904957 L10.7002301,62.9989585 C3.44900412,50.2082604 -0.23197797,35.7040026 0.0420912,21.0030822 C0.0420912,21.0030822 0.31892616,8.86851631 8.85466603,3.4702488 C11.1191726,1.931076 13.686359,0.892944901 16.3845755,0.4250358" id="Fill-43" fill-opacity="0.08" fill="#000000" mask="url(#mask-26)"></path>
                            </g>
                            <mask id="mask-28" fill="white">
                                <use xlink:href="#path-27"></use>
                            </mask>
                            <g id="Clip-46"></g>
                            <path d="M38.2401112,200.151662 L33.8661245,203.362943 C33.4102669,203.589944 33.223864,204.143614 33.4508721,204.599472 C33.6326605,204.966739 34.0349941,205.168826 34.438252,205.097776 L41.7559138,205.097776 C42.2652884,205.097776 42.6786993,204.684365 42.6786993,204.174991 L42.6786993,200.18857 L38.2401112,200.151662 Z" id="Fill-45" fill="#FC790D" mask="url(#mask-28)"></path>
                            <path d="M72.7706367,200.151662 L76.8862603,203.362943 C77.3088787,203.690529 77.3863777,204.299565 77.05882,204.722205 C76.8742444,204.9612 76.5882091,205.099618 76.2864607,205.097794 L71.072719,205.097794 C69.5436708,205.097794 68.3043694,203.858475 68.3043694,202.329427 L68.3043694,200.160884 L72.7706367,200.151662 Z" id="Fill-47" fill="#FC790D" mask="url(#mask-28)"></path>
                            <path d="M136.387148,81.4448368 C136.387148,81.4448368 139.580036,76.3787485 135.935024,74.9853307 C132.290011,73.5919128 132.613018,80.3190394 132.613018,80.3190394 L136.387148,81.4448368 Z" id="Fill-48" fill="#F4A28C" mask="url(#mask-28)"></path>
                            <path d="M137.346998,81.7219135 L132.613089,80.3377387 L111.850467,98.4150559 C108.740696,101.1197 104.419309,101.950219 100.527935,100.592849 C94.8500308,98.6669632 90.0229807,94.8189601 86.8800052,89.713198 C79.4146474,77.60629 66.7356403,81.9802909 66.7356403,81.9802909 C66.7356403,81.9802909 57.1848413,91.4018941 76.1111281,107.550624 C87.4151749,117.18446 98.9776702,117.793503 106.470686,116.71385 C107.389724,116.604924 108.313456,116.545911 109.239035,116.537593 C110.122097,116.501616 110.991366,116.305025 111.804323,115.957132 C112.810175,115.528968 113.790146,115.04172 114.738763,114.499156 C122.453255,110.115912 130.739818,100.712795 137.346998,81.7219135" id="Fill-49" fill="#FC790D" mask="url(#mask-28)"></path>
                        </g>
                        <g transform="translate(63.990000, 79.743058)">
                            <mask id="mask-30" fill="white">
                                <use xlink:href="#path-29"></use>
                            </mask>
                            <g id="Clip-51"></g>
                            <path d="M73.3569984,2.0899134 L68.6230893,0.7057386 L47.8604673,18.7830558 C44.7506955,21.4876998 40.4293086,22.3182189 36.5379345,20.9608488 C30.8600307,19.0349631 26.0329806,15.18696 22.8900051,10.0811979 C15.4246473,-2.0257101 2.74564026,2.3482908 2.74564026,2.3482908 C2.74564026,2.3482908 -6.80515875,11.769894 12.121128,27.9186237 C23.4251748,37.5524604 34.9876701,38.161503 42.4806858,37.0818495 C43.3997244,36.9729243 44.3234556,36.9139113 45.2490354,36.9055926 C46.1320974,36.869616 47.001366,36.6730245 47.8143234,36.3251322 C48.8201751,35.896968 49.8001464,35.4097197 50.7487626,34.8671556 C58.4632548,30.4839117 66.7498176,21.0807945 73.3569984,2.0899134" id="Fill-50" fill-opacity="0.2" fill="#FFFFFF" mask="url(#mask-30)"></path>
                        </g>
                        <polygon id="Fill-52" fill-opacity="0.4" fill="#FFFFFF" points="80.3282113 36.8379054 99.6051419 36.8379054 99.6051419 33.4328375 80.3282113 33.4328375"></polygon>
                        <g transform="translate(0.000000, 0.111058)">
                            <polygon id="Fill-54" fill-opacity="0.4" fill="#FFFFFF" points="198.841175 46.046973 211.09573 46.046973 211.09573 49.4520408 198.841175 49.4520408"></polygon>
                            <mask id="mask-32" fill="white">
                                <use xlink:href="#path-31"></use>
                            </mask>
                            <g id="Clip-57"></g>
                            <polygon id="Fill-56" fill="#FFD200" mask="url(#mask-32)" points="142.486889 49.4520408 154.741443 49.4520408 154.741443 46.046973 142.486889 46.046973"></polygon>
                        </g>
                        <g transform="translate(0.000000, 0.111058)">
                            <polygon id="Fill-58" fill-opacity="0.4" fill="#FFFFFF" points="80.3282113 40.9716417 99.6051419 40.9716417 99.6051419 44.3767095 80.3282113 44.3767095"></polygon>
                            <mask id="mask-34" fill="white">
                                <use xlink:href="#path-33"></use>
                            </mask>
                            <g id="Clip-61"></g>
                            <polygon id="Fill-60" fill="#C9C9C9" mask="url(#mask-34)" points="186.752753 122.102732 206.268687 122.102732 206.268687 117.10125 186.752753 117.10125"></polygon>
                            <polygon id="Fill-62" fill="#C9C9C9" mask="url(#mask-34)" points="132.733035 122.102732 152.249886 122.102732 152.249886 117.10125 132.733035 117.10125"></polygon>
                            <polygon id="Fill-63" fill="#ADADAD" mask="url(#mask-34)" points="234.848206 190.776188 255.584052 190.776188 255.584052 188.109346 234.848206 188.109346"></polygon>
                            <polygon id="Fill-64" fill="#C9C9C9" mask="url(#mask-34)" points="233.998917 164.763315 231.378242 205.098146 233.998917 205.098146 239.545783 164.763315"></polygon>
                            <polygon id="Fill-65" fill="#C9C9C9" mask="url(#mask-34)" points="255.546483 164.763315 258.157986 205.098146 255.546483 205.098146 249.999616 164.763315"></polygon>
                            <polygon id="Fill-66" fill="#E6E6E6" mask="url(#mask-34)" points="231.378526 165.954254 258.158604 165.954254 258.158604 159.604587 231.378526 159.604587"></polygon>
                            <path d="M252.510513,157.399047 L247.176804,157.399047 L247.176804,156.227113 L252.510513,156.227113 C253.295812,156.227113 253.931588,155.591315 253.931588,154.806023 L253.931588,151.013393 C253.931588,150.2281 253.295812,149.592303 252.510513,149.592303 L247.176804,149.592303 L247.176804,148.421293 L252.510513,148.421293 C253.94268,148.421293 255.10353,149.581232 255.10353,151.013393 L255.10353,154.824481 C255.093362,156.249261 253.935285,157.399047 252.510513,157.399047" id="Fill-67" fill="#FFD200" mask="url(#mask-34)"></path>
                        </g>
                        <g transform="translate(0.000000, 0.111058)">
                            <g transform="translate(246.717000, 147.888000)">
                                <mask id="mask-36" fill="white">
                                    <use xlink:href="#path-35"></use>
                                </mask>
                                <g id="Clip-69"></g>
                                <path d="M5.7935124,9.51104701 L0.4598037,9.51104701 L0.4598037,8.33911282 L5.7935124,8.33911282 C6.5788119,8.33911282 7.2145881,7.70331529 7.2145881,6.91802289 L7.2145881,3.12539247 C7.2145881,2.34010008 6.5788119,1.70430255 5.7935124,1.70430255 L0.4598037,1.70430255 L0.4598037,0.53329266 L5.7935124,0.53329266 C7.2256797,0.53329266 8.38652941,1.69323228 8.38652941,3.12539247 L8.38652941,6.93648045 C8.37636211,8.36126047 7.2182853,9.51104701 5.7935124,9.51104701" id="Fill-68" fill-opacity="0.46" fill="#FFFFFF" mask="url(#mask-36)"></path>
                            </g>
                            <mask id="mask-38" fill="white">
                                <use xlink:href="#path-37"></use>
                            </mask>
                            <g id="Clip-71"></g>
                            <polygon id="Fill-70" fill="#FFD200" mask="url(#mask-38)" points="239.822007 159.68856 250.20331 159.68856 250.20331 145.725934 239.822007 145.725934"></polygon>
                        </g>
                        <g transform="translate(0.000000, 0.111058)">
                            <g transform="translate(241.740000, 148.599000)">
                                <mask id="mask-40" fill="white">
                                    <use xlink:href="#path-39"></use>
                                </mask>
                                <g id="Clip-73"></g>
                                <path d="M3.4062588,0.40309434 C5.1235371,0.40309434 6.5160306,1.95982884 6.5160306,3.88198179 C6.5160306,5.80321755 5.1235371,7.36087635 3.4062588,7.36087635 C1.6889805,7.36087635 0.296487,5.80321755 0.296487,3.88198179 C0.296487,1.95982884 1.6889805,0.40309434 3.4062588,0.40309434" id="Fill-72" fill-opacity="0.08" fill="#000000" mask="url(#mask-40)"></path>
                            </g>
                            <mask id="mask-42" fill="white">
                                <use xlink:href="#path-41"></use>
                            </mask>
                            <g id="Clip-75"></g>
                            <path d="M241.400142,145.725472 C241.400142,145.725472 239.932923,140.834738 243.84456,140.346565 C247.758117,139.857468 253.146218,140.834738 251.13551,134.956616 C249.123806,129.079419 246.521546,130.342653 249.428328,123.699567 C252.335109,117.055556 260.095674,128.894844 262.937896,122.629156 C265.780048,116.363469 269.69261,118.522776 273.604318,121.603965 C277.517805,124.686008 278.30218,134.274696 270.568348,135.741916 C262.835441,137.209136 261.267615,138.888589 259.708108,143.187792 C258.147676,147.487991 250.212703,145.725472 250.212703,145.725472 L241.400142,145.725472 Z" id="Fill-74" fill="#E6E6E6" mask="url(#mask-42)"></path>
                        </g>
                    </g>
                    <g id="独家解决方案备份" transform="translate(1.000000, 234.000000)">
                        <rect id="Rectangle-3" fill="#FC790D" x="0.5098135" y="-2.13162821e-14" width="276" height="44.8081879" rx="4.8990285"></rect>
                        <text id="聊天内容存档" font-family="FZLTCHJW--GB1-0, FZLanTingHeiS-B-GB" font-size="24.4951425" font-weight="normal" line-spacing="29.394171" fill="#FFFFFF">
                            <tspan x="119.20103" y="29.3485428">聊天内容存档</tspan>
                        </text>
                        <g id="句客宝logo" transform="translate(13.196352, 8.981552)">
                            <path d="M11.430953,-2.3625546e-13 C14.5313149,-2.3625546e-13 17.2121507,1.10905154 19.4723253,3.32404366 C21.7315917,5.54036905 22.862133,8.16911673 22.862133,11.208509 C22.862133,17.9610352 18.0530192,22.9325459 8.43547259,26.128152 L8.43547259,26.128152 L8.43547259,22.031261 C5.85974537,21.3086331 3.80978796,19.9304849 2.28605439,17.8954831 C0.761185737,15.8600369 0,13.6321566 0,11.208509 C0,8.16911673 1.1291792,5.54036905 3.38980776,3.32404366 C5.64862019,1.10905154 8.32922895,-2.3625546e-13 11.430953,-2.3625546e-13 Z M7.13283022,10.5876535 C7.08016243,12.6793189 8.96553301,14.4212253 11.3444371,14.4792222 C11.4400109,14.4821109 11.5335417,14.4763335 11.6272994,14.4738892 C11.6272994,14.4743336 12.0325236,14.7549852 12.4770215,14.9789731 C12.9725982,15.2280709 13.5814559,15.3953952 13.9353744,15.365619 C14.4037091,15.3262878 14.4774894,15.0314148 14.3837316,14.880534 C14.2947412,14.7367639 14.139235,14.7303198 13.9889502,14.6378804 C13.8084723,14.5263308 13.7285625,14.4698894 13.6543282,14.2967876 C13.5691971,14.0974649 13.6677221,13.9494729 13.8550106,13.8505893 C13.8550106,13.8505893 13.8697667,13.8368123 13.8951925,13.8125914 C14.98646,13.1501825 15.7151824,12.0551302 15.7469647,10.7965311 C15.7998595,8.70508794 13.9144889,6.96251488 11.5353578,6.90451799 C9.15668076,6.84696553 7.18572502,8.49576585 7.13283022,10.5876535 Z" id="形状结合" fill="#FFFFFF"></path>
                            <path d="M42.5343205,24.1821127 C43.0590911,24.1821127 43.6261819,24.0662271 44.2355929,23.8344557 C44.8450039,23.6026844 45.4120946,23.2301947 45.9368652,22.7169867 C46.4616358,22.2037788 46.905998,21.5332974 47.2699518,20.7055426 C47.6339056,19.8777878 47.8243465,18.8679269 47.8412746,17.67596 L47.8412746,17.67596 L47.9682352,6.32744156 C48.0020914,5.76456829 47.8158825,5.2844705 47.4096085,4.8871482 C46.9864064,4.47327079 46.4531718,4.26633209 45.8099046,4.26633209 L45.8099046,4.26633209 L35.4245254,4.26633209 C35.543022,3.93523017 35.6530546,3.58343438 35.7546231,3.21094471 C35.8561916,2.83845505 35.9746882,2.44527152 36.1101128,2.03139411 C36.1947532,1.78306767 36.1693611,1.54715755 36.0339365,1.32366375 C35.8985118,1.10016996 35.7038388,0.947035316 35.4499176,0.864259835 C35.1790682,0.781484355 34.929379,0.806316999 34.7008499,0.938757768 C34.4723208,1.07119854 34.315736,1.26158214 34.2310956,1.50990858 C33.9433182,2.48665926 33.6682368,3.36407935 33.4058515,4.14216887 C33.1434662,4.92025839 32.8683849,5.6362663 32.5806074,6.29019259 C32.29283,6.94411889 31.9754285,7.55665745 31.6284027,8.12780827 C31.281377,8.69895908 30.8793351,9.26597113 30.4222768,9.82884439 C30.252996,10.0440606 30.1852836,10.2799708 30.2191398,10.5365748 C30.252996,10.7931787 30.3799566,11.0042562 30.6000217,11.1698072 C30.7862306,11.302248 30.9809036,11.3684683 31.1840406,11.3684683 C31.3194652,11.3684683 31.4591219,11.3394969 31.6030106,11.2815541 C31.7468993,11.2236112 31.8696279,11.1284194 31.9711964,10.9959787 C32.5975355,10.2178892 33.1265381,9.45221596 33.5582043,8.69895908 C33.9898704,7.94570221 34.3834483,7.09725353 34.7389381,6.15361305 L34.7389381,6.15361305 L45.8099046,6.15361305 C45.9114731,6.15361305 45.9791854,6.1784457 46.0130416,6.22811098 C46.0299697,6.22811098 46.0384337,6.25294363 46.0384337,6.30260892 L46.0384337,6.30260892 L45.886081,17.6511273 C45.8691529,18.5947678 45.7294962,19.3645798 45.4671109,19.9605632 C45.2047256,20.5565467 44.8957881,21.0283669 44.5402984,21.376024 C44.1848086,21.723681 43.8166228,21.9595911 43.4357409,22.0837543 C43.054859,22.2079175 42.7543856,22.2699991 42.5343205,22.2699991 L42.5343205,22.2699991 L41.8995173,22.2699991 C41.6117399,22.253444 41.3747468,22.3362195 41.1885378,22.5183256 C41.0023289,22.7004316 40.9092245,22.9239254 40.9092245,23.188807 C40.8922964,23.4702436 40.9769368,23.702015 41.1631457,23.884121 C41.3493546,24.0662271 41.5778838,24.1655577 41.8487331,24.1821127 L41.8487331,24.1821127 L42.5343205,24.1821127 Z M41.5688488,18.718931 C42.0259071,18.718931 42.415253,18.5616576 42.7368866,18.2471108 C43.0585201,17.932564 43.2193369,17.5517967 43.2193369,17.1048091 L43.2193369,17.1048091 L43.2193369,10.8718155 C43.2193369,10.4248279 43.0585201,10.0440606 42.7368866,9.72951382 C42.415253,9.41496699 42.0259071,9.25769358 41.5688488,9.25769358 L41.5688488,9.25769358 L35.6270915,9.25769358 C35.1700333,9.25769358 34.7806874,9.41496699 34.4590538,9.72951382 C34.1374202,10.0440606 33.9766034,10.4248279 33.9766034,10.8718155 L33.9766034,10.8718155 L33.9766034,17.1048091 C33.9766034,17.5517967 34.1374202,17.932564 34.4590538,18.2471108 C34.7806874,18.5616576 35.1700333,18.718931 35.6270915,18.718931 L35.6270915,18.718931 L41.5688488,18.718931 Z M41.2641433,16.8068174 L35.931797,16.8068174 L35.931797,11.1449745 L41.2641433,11.1449745 L41.2641433,16.8068174 Z M71.3532406,8.41338367 C71.6240899,8.41338367 71.8568511,8.31819187 72.051524,8.12780827 C72.246197,7.93742466 72.3435335,7.71806964 72.3435335,7.46974319 L72.3435335,7.46974319 L72.3435335,4.76298498 C72.3435335,4.31599738 72.1784847,3.93523017 71.848387,3.62068334 C71.5182894,3.30613652 71.1247115,3.1488631 70.6676532,3.1488631 L70.6676532,3.1488631 L64.929033,3.1488631 L64.0403086,1.38574536 C63.9048839,1.15397402 63.714443,0.992561831 63.4689858,0.901508802 C63.2235286,0.810455773 62.9823034,0.822872095 62.7453102,0.938757768 C62.508317,1.05464344 62.3390362,1.2367495 62.2374677,1.48507594 C62.1358992,1.73340238 62.1528273,1.97345128 62.288252,2.20522262 L62.288252,2.20522262 L62.7707023,3.12403046 L56.6258081,3.12403046 C56.1518217,3.12403046 55.7540118,3.28130387 55.4323782,3.5958507 C55.1107446,3.91039752 54.9499278,4.29116474 54.9499278,4.73815233 L54.9499278,4.73815233 L54.9499278,7.44491055 C54.9499278,7.72634718 55.0472643,7.95811853 55.2419372,8.14022459 C55.4366102,8.32233065 55.6693713,8.41338367 55.9402207,8.41338367 C56.21107,8.41338367 56.4395991,8.31819187 56.6258081,8.12780827 C56.812017,7.93742466 56.9051214,7.71806964 56.9051214,7.46974319 L56.9051214,7.46974319 L56.9051214,5.06097671 L70.3883399,5.06097671 L70.3883399,7.46974319 C70.3883399,7.71806964 70.4814443,7.93742466 70.6676532,8.12780827 C70.8538621,8.31819187 71.0823913,8.41338367 71.3532406,8.41338367 Z M71.8864752,16.906148 C72.1234684,16.906148 72.3308374,16.8357888 72.5085823,16.6950705 C72.6863272,16.5543522 72.7921277,16.3681074 72.8259839,16.136336 C72.8936962,15.8714545 72.851376,15.6314056 72.6990232,15.4161893 C72.5466705,15.2009731 72.3350694,15.0685323 72.0642201,15.018867 C70.625333,14.7374304 69.3684228,14.451855 68.2934895,14.1621408 C67.2185562,13.8724266 66.2748156,13.5454635 65.4622676,13.1812514 C66.3425279,12.601823 67.1254518,11.9727293 67.8110392,11.2939704 C68.4966265,10.6152115 69.1018055,9.86195459 69.6265761,9.03419978 C69.7281446,8.88520391 69.7831609,8.71551418 69.7916249,8.52513057 C69.800089,8.33474697 69.7704648,8.16091846 69.7027525,8.00364505 C69.6350401,7.84637163 69.5292396,7.70979209 69.3853509,7.59390642 C69.2414622,7.47802074 69.0679493,7.42007791 68.8648123,7.42007791 L68.8648123,7.42007791 L61.4757039,7.42007791 C61.5434163,7.28763714 61.6026646,7.17175146 61.6534488,7.07242089 C61.7042331,6.97309031 61.7550173,6.85720464 61.8058016,6.72476387 C61.9242982,6.49299252 61.9369942,6.2570824 61.8438898,6.01703351 C61.7507853,5.77698461 61.5772724,5.59073978 61.3233512,5.45829901 C61.086358,5.34241334 60.8451328,5.32999702 60.5996756,5.42105005 C60.3542184,5.51210308 60.1637775,5.68179281 60.0283528,5.93011925 C59.5882227,6.84064954 59.0211319,7.70151454 58.3270804,8.51271425 C57.633029,9.32391396 56.812017,10.0606157 55.8640443,10.7228196 C55.6270511,10.8718155 55.4916265,11.0746154 55.4577703,11.3312194 C55.4239141,11.5878234 55.4746984,11.8237335 55.6101231,12.0389497 C55.8301881,12.3038313 56.1010375,12.436272 56.4226711,12.436272 C56.6427361,12.436272 56.820481,12.3700517 56.9559057,12.2376109 C57.2944674,12.0058395 57.620333,11.7657906 57.9335025,11.5174642 C58.246672,11.2691378 58.5471455,11.0042562 58.8349229,10.7228196 C59.2750531,11.1698072 59.7109513,11.5961009 60.1426174,12.0017008 C60.5742835,12.4073006 61.0355738,12.7839291 61.5264882,13.1315861 C59.7659675,13.8931205 57.6838133,14.5222141 55.2800254,15.018867 C55.0091761,15.0685323 54.7975751,15.2051119 54.6452223,15.4286057 C54.4928696,15.6520995 54.4505493,15.8962871 54.5182617,16.1611687 C54.5690459,16.3763849 54.6833105,16.5543522 54.8610554,16.6950705 C55.0388002,16.8357888 55.2461693,16.906148 55.4831624,16.906148 C55.5678028,16.906148 55.6355152,16.8978704 55.6862994,16.8813153 C57.226755,16.5667685 58.64025,16.1984176 59.9267843,15.7762627 C61.2133187,15.3541077 62.3982845,14.8781487 63.4816818,14.3483856 C64.4804387,14.8781487 65.6357804,15.3458302 66.9477069,15.75143 C68.2596334,16.1570299 69.8466412,16.5336583 71.7087304,16.8813153 C71.7425865,16.8813153 71.7722107,16.8854541 71.7976028,16.8937317 C71.8229949,16.9020092 71.8526191,16.906148 71.8864752,16.906148 Z M63.4562897,12.1382803 C62.8638068,11.7575131 62.296716,11.3353581 61.7550173,10.8718155 C61.2133187,10.4082728 60.67162,9.89506478 60.1299213,9.33219151 L60.1299213,9.33219151 L66.960403,9.33219151 C66.0124303,10.4248279 64.8443925,11.3601908 63.4562897,12.1382803 Z M68.5601068,23.8592884 C68.9663808,23.8592884 69.3176386,23.7144313 69.61388,23.4247171 C69.9101215,23.1350029 70.0582422,22.7914847 70.0582422,22.3941624 L70.0582422,22.3941624 L70.0582422,18.0732823 C70.0582422,17.6594049 69.9143535,17.3076091 69.6265761,17.0178949 C69.3387987,16.7281807 68.9833089,16.5833236 68.5601068,16.5833236 L68.5601068,16.5833236 L58.6571781,16.5833236 C58.2509041,16.5833236 57.8996463,16.7281807 57.6034049,17.0178949 C57.3071634,17.3076091 57.1590427,17.6676824 57.1590427,18.0981149 L57.1590427,18.0981149 L57.1590427,22.3941624 C57.1590427,22.7914847 57.3029314,23.1350029 57.5907088,23.4247171 C57.8784862,23.7144313 58.233976,23.8592884 58.6571781,23.8592884 L58.6571781,23.8592884 L68.5601068,23.8592884 Z M68.1284407,21.9720074 L59.1142363,21.9720074 L59.1142363,18.4706046 L68.1284407,18.4706046 L68.1284407,21.9720074 Z M79.4781497,8.81070598 C79.748999,8.81070598 79.9775282,8.71551418 80.1637371,8.52513057 C80.349946,8.33474697 80.4430505,8.1071144 80.4430505,7.84223286 L80.4430505,7.84223286 L80.4430505,5.80595603 L93.9262689,5.80595603 L93.9262689,7.84223286 C93.9262689,8.0905593 94.0193733,8.30991432 94.2055823,8.50029793 C94.3917912,8.69068153 94.6203203,8.78587334 94.8911696,8.78587334 C95.162019,8.78587334 95.3947801,8.69068153 95.5894531,8.50029793 C95.784126,8.30991432 95.8814625,8.08228175 95.8814625,7.81740021 L95.8814625,7.81740021 L95.8814625,5.35896844 C95.8814625,4.94509103 95.7206457,4.59743401 95.3990121,4.31599738 C95.0773786,4.03456075 94.6795686,3.89384243 94.2055823,3.89384243 L94.2055823,3.89384243 L88.9494124,3.89384243 C88.9324843,3.77795676 88.8901641,3.66207108 88.8224517,3.54618541 L88.8224517,3.54618541 L87.3497085,1.33608008 C87.2142838,1.10430873 87.0153788,0.963590412 86.7529935,0.913925124 C86.4906083,0.864259835 86.240919,0.905647576 86.0039259,1.03808834 C85.7669327,1.18708421 85.623044,1.38988414 85.5722597,1.64648813 C85.5214755,1.90309212 85.5722597,2.13900224 85.7246125,2.35421849 L85.7246125,2.35421849 L86.7149054,3.91867507 L80.1637371,3.91867507 C79.6897508,3.91867507 79.2919408,4.06353216 78.9703072,4.35324635 C78.6486736,4.64296053 78.4878568,4.98647877 78.4878568,5.38380108 L78.4878568,5.38380108 L78.4878568,7.84223286 C78.4878568,8.1071144 78.5851933,8.33474697 78.7798663,8.52513057 C78.9745392,8.71551418 79.2073004,8.81070598 79.4781497,8.81070598 Z M95.0689145,23.8344557 C95.3566919,23.8344557 95.5936851,23.7392639 95.779894,23.5488803 C95.9661029,23.3584967 96.0592074,23.1391417 96.0592074,22.8908152 C96.0592074,22.6259337 95.9618709,22.3983011 95.767198,22.2079175 C95.572525,22.0175339 95.3397638,21.9223421 95.0689145,21.9223421 L95.0689145,21.9223421 L88.060688,21.9223421 L88.060688,16.558491 L93.5707791,16.558491 C93.8585566,16.558491 94.0955497,16.4674379 94.2817586,16.2853319 C94.4679676,16.1032258 94.561072,15.879732 94.561072,15.6148505 C94.561072,15.349969 94.4637355,15.1223364 94.2690626,14.9319528 C94.0743896,14.7415692 93.8416285,14.6463774 93.5707791,14.6463774 L93.5707791,14.6463774 L88.060688,14.6463774 L88.060688,10.9463134 L94.3833271,10.9463134 C94.6711046,10.9463134 94.9080977,10.8552604 95.0943066,10.6731543 C95.2805156,10.4910482 95.37362,10.2675544 95.37362,10.0026729 C95.37362,9.73779137 95.2762835,9.51015879 95.0816106,9.31977519 C94.8869376,9.12939158 94.6541765,9.03419978 94.3833271,9.03419978 L94.3833271,9.03419978 L81.0524615,9.03419978 C80.7646841,9.03419978 80.5319229,9.12939158 80.354178,9.31977519 C80.1764332,9.51015879 80.0875607,9.73779137 80.0875607,10.0026729 C80.0875607,10.2675544 80.1806652,10.4910482 80.3668741,10.6731543 C80.553083,10.8552604 80.7816121,10.9463134 81.0524615,10.9463134 L81.0524615,10.9463134 L86.0801022,10.9463134 L86.0801022,14.6463774 L81.0524615,14.6463774 C80.7646841,14.6463774 80.5319229,14.7415692 80.354178,14.9319528 C80.1764332,15.1223364 80.0875607,15.349969 80.0875607,15.6148505 C80.0875607,15.879732 80.1806652,16.1032258 80.3668741,16.2853319 C80.553083,16.4674379 80.7816121,16.558491 81.0524615,16.558491 L81.0524615,16.558491 L86.0801022,16.558491 L86.0801022,21.9223421 L79.1988363,21.9223421 C78.927987,21.9223421 78.6994579,22.0175339 78.513249,22.2079175 C78.32704,22.3983011 78.2339356,22.6259337 78.2339356,22.8908152 C78.2339356,23.1391417 78.3312721,23.3584967 78.525945,23.5488803 C78.720618,23.7392639 78.9449151,23.8344557 79.1988363,23.8344557 L79.1988363,23.8344557 L95.0689145,23.8344557 Z" id="句客宝" stroke="#FFFFFF" stroke-width="0.707199981" fill="#FFFFFF" fill-rule="nonzero"></path>
                            <circle id="椭圆形" stroke="#FFFFFF" stroke-width="1.32626505" fill="#FC790D" fill-rule="nonzero" cx="91.9920012" cy="19.2355456" r="1.91571618"></circle>
                        </g>
                    </g>
                </g>
            </g>
        </g>
    </g>
</svg>