<?xml version="1.0" encoding="UTF-8"?>
<svg width="221px" height="254px" viewBox="0 0 221 254" version="1.1" xmlns="http://www.w3.org/2000/svg" xmlns:xlink="http://www.w3.org/1999/xlink">
    <title>3-无限制群发</title>
    <defs>
        <polygon id="path-1" points="0.303670988 0.485802614 69.3626249 0.485802614 69.3626249 66.5652555 0.303670988 66.5652555"></polygon>
        <polygon id="path-3" points="0.230481951 0.619853591 109.629038 0.619853591 109.629038 13.4838719 0.230481951 13.4838719"></polygon>
        <polygon id="path-5" points="0.493296808 0.356258798 8.05200055 0.356258798 8.05200055 6.57509787 0.493296808 6.57509787"></polygon>
        <polygon id="path-7" points="0.275780664 0.53483423 5.213131 0.53483423 5.213131 10.6831652 0.275780664 10.6831652"></polygon>
        <polygon id="path-9" points="0 133.419364 165.044366 133.419364 165.044366 0.133064525 0 0.133064525"></polygon>
        <polygon id="path-11" points="0.203748401 0.172380657 49.6238421 0.172380657 49.6238421 33.4164366 0.203748401 33.4164366"></polygon>
        <polygon id="path-13" points="0 133.419364 165.044366 133.419364 165.044366 0.133064525 0 0.133064525"></polygon>
        <polygon id="path-15" points="0.0772129085 0.0241290339 2.59741953 0.0241290339 2.59741953 4.17567125 0.0772129085 4.17567125"></polygon>
        <polyline id="path-17" points="0 133.419364 165.044366 133.419364 165.044366 0.133064525 0 0.133064525"></polyline>
        <polygon id="path-19" points="0.0578245201 0.104237426 33.3065971 0.104237426 33.3065971 40.4039466 0.0578245201 40.4039466"></polygon>
        <polygon id="path-21" points="0.358458089 0.172380657 6.56480258 0.172380657 6.56480258 9.16747159 0.358458089 9.16747159"></polygon>
        <polygon id="path-23" points="0 133.419364 165.044366 133.419364 165.044366 0.133064525 0 0.133064525"></polygon>
        <polygon id="path-25" points="0.480806484 0.0038961293 7.99748313 0.0038961293 7.99748313 8.4695038 0.480806484 8.4695038"></polygon>
        <polygon id="path-27" points="0 133.419364 165.044366 133.419364 165.044366 0.133064525 0 0.133064525"></polygon>
        <polygon id="path-29" points="30.9149698 0.474064548 30.9149698 20.9063885 0.0794838764 20.9063176 0.0794838764 0.473369065"></polygon>
        <polyline id="path-31" points="0 133.419364 165.044366 133.419364 165.044366 0.133064525 0 0.133064525"></polyline>
        <polygon id="path-33" points="0.011589033 0.569921981 35.9450218 0.569921981 35.9450218 44.1969425 0.011589033 44.1969425"></polygon>
        <polyline id="path-35" points="0 133.419364 165.044366 133.419364 165.044366 0.133064525 0 0.133064525"></polyline>
        <polygon id="path-37" points="0.30423873 0.669069723 10.1981575 0.669069723 10.1981575 22.1582596 0.30423873 22.1582596"></polygon>
        <polyline id="path-39" points="0 133.419364 165.044366 133.419364 165.044366 0.133064525 0 0.133064525"></polyline>
        <polygon id="path-41" points="0.323116151 0.658814884 4.8605093 0.658814884 4.8605093 10.9082395 0.323116151 10.9082395"></polygon>
        <polygon id="path-43" points="0 133.419364 165.044366 133.419364 165.044366 0.133064525 0 0.133064525"></polygon>
    </defs>
    <g id="最新版备份" stroke="none" stroke-width="1" fill="none" fill-rule="evenodd">
        <g id="十大功能" transform="translate(-611.000000, -200.000000)">
            <g id="3-无限制群发" transform="translate(611.500000, 200.000000)">
                <rect id="矩形" fill="#FFFDF8" x="0" y="0" width="219.310578" height="253.050667" rx="16.6399984"></rect>
                <text id="无限制群发" font-family="FZLTCHJW--GB1-0, FZLanTingHeiS-B-GB" font-size="26.6239974" font-weight="normal" fill="#000000" fill-opacity="0.7">
                    <tspan x="43.0952954" y="227.498321">无限制群发</tspan>
                </text>
                <g id="编组" transform="translate(26.866359, 30.414747)">
                    <polygon id="Fill-1" fill-opacity="0.86" fill="#C9C9C9" points="15.893454 100.898209 147.706392 100.898209 147.706392 15.2559649 15.893454 15.2559649"></polygon>
                    <polygon id="Fill-3" fill="#C9C9C9" points="71.8402952 91.1168101 66.8342871 122.919452 100.225194 122.919452 92.545845 91.1168101"></polygon>
                    <g transform="translate(73.806457, 14.770162)">
                        <mask id="mask-2" fill="white">
                            <use xlink:href="#path-1"></use>
                        </mask>
                        <g id="Clip-6"></g>
                        <path d="M6.20080687,0.763612955 L13.2354138,0.763612955 C13.2354138,0.763612955 11.6937814,5.58615522 9.70711034,8.56360703 C7.72093601,11.5409879 14.2051881,15.8760527 14.2051881,15.8760527 L38.6429317,0.532967778 L46.2437193,0.485774227 C46.2437193,0.485774227 54.6464424,16.4369108 47.9578033,22.9001564 C41.2691641,29.363473 25.7373759,25.6941566 25.2132082,30.4118085 C24.6889694,35.1295314 34.470383,44.3920288 34.470383,44.3920288 L66.1787013,20.4365111 C66.1787013,20.4365111 72.7619533,24.6929436 66.9958949,29.0384407 C61.2297655,33.3840087 46.0759515,60.0286009 35.8332476,60.2487641 C25.5906146,60.4689202 22.7914338,56.4116871 25.0606275,66.5652555 L9.33495547,66.5652555 L5.4931165,27.8485245 L0.303670988,15.8760527 L3.57457444,2.1422324 L6.20080687,0.763612955 Z" id="Fill-5" fill-opacity="0.08" fill="#000000" mask="url(#mask-2)"></path>
                    </g>
                    <g transform="translate(27.677421, 120.512105)">
                        <mask id="mask-4" fill="white">
                            <use xlink:href="#path-3"></use>
                        </mask>
                        <g id="Clip-8"></g>
                        <path d="M54.9297457,0.619697462 C85.1393671,0.619697462 109.629059,3.50169766 109.629059,7.0567588 C109.629059,10.6118185 85.1393671,13.4943421 54.9297457,13.4943421 C24.7201385,13.4943421 0.230481951,10.6118185 0.230481951,7.0567588 C0.230481951,3.50169766 24.7201385,0.619697462 54.9297457,0.619697462" id="Fill-7" fill-opacity="0.45" fill="#E6E6E6" mask="url(#mask-4)"></path>
                    </g>
                    <g transform="translate(112.129040, 114.834685)">
                        <mask id="mask-6" fill="white">
                            <use xlink:href="#path-5"></use>
                        </mask>
                        <g id="Clip-10"></g>
                        <path d="M6.2592843,6.18195074 C6.2592843,6.18195074 1.5153743,4.88720098 0.493154872,0.473518097 C0.493154872,0.473518097 7.8318586,-1.009942 8.05200055,6.57509787 L6.2592843,6.18195074 Z" id="Fill-9" fill-opacity="0.58" fill="#FC790D" mask="url(#mask-6)"></path>
                    </g>
                    <g transform="translate(0.000000, 0.576613)">
                        <g transform="translate(117.096782, 109.290330)">
                            <mask id="mask-8" fill="white">
                                <use xlink:href="#path-7"></use>
                            </mask>
                            <g id="Clip-12"></g>
                            <path d="M1.87361948,10.6725769 C1.87361948,10.6725769 -1.43929687,5.43067198 1.47520655,0.534734875 C1.47520655,0.534734875 7.05781338,4.08350544 4.57841322,10.683584 L1.87361948,10.6725769 Z" id="Fill-11" fill-opacity="0.73" fill="#FC790D" mask="url(#mask-8)"></path>
                        </g>
                        <mask id="mask-10" fill="white">
                            <use xlink:href="#path-9"></use>
                        </mask>
                        <g id="Clip-14"></g>
                        <path d="M119.819602,119.962907 C119.819602,119.962907 121.570447,114.432696 126.864215,113.384317 C126.864215,113.384317 127.855493,116.975023 123.435976,119.978633 L119.819602,119.962907 Z" id="Fill-13" fill="#FC790D" mask="url(#mask-10)"></path>
                        <polygon id="Fill-15" fill="#24285B" mask="url(#mask-10)" points="116.380647 119.842659 117.345098 126.416008 123.400066 126.442217 124.290641 119.874112"></polygon>
                        <path d="M134.559887,35.2014927 C134.559887,35.2014927 137.867551,31.5321054 140.247384,31.7365635 C142.627216,31.9410215 143.9167,36.4542864 136.498867,39.1433962 L134.559887,35.2014927 Z" id="Fill-16" fill="#F4A28C" mask="url(#mask-10)"></path>
                        <polygon id="Fill-17" fill="#C9C9C9" mask="url(#mask-10)" points="134.203274 26.5837373 165.046644 26.5837373 165.046644 0.133085816 134.203274 0.133085816"></polygon>
                        <path d="M98.3698132,34.2368281 L109.613162,53.050023 L133.961841,35.4371766 L138.333526,38.7343381 L114.116492,64.6765341 C110.781575,68.2447001 105.185343,68.4328853 101.617155,65.0979831 C101.389633,64.8851651 101.173678,64.6608076 100.969788,64.424925 L88.9134319,50.4499776 L98.3698132,34.2368281 Z" id="Fill-18" fill="#FC790D" mask="url(#mask-10)"></path>
                    </g>
                    <g transform="translate(0.000000, 0.576613)">
                        <g transform="translate(88.709683, 34.064518)">
                            <mask id="mask-12" fill="white">
                                <use xlink:href="#path-11"></use>
                            </mask>
                            <g id="Clip-20"></g>
                            <path d="M9.66012969,0.172309689 L20.9034788,18.9855045 L45.2521579,1.37265816 L49.6238421,4.66981967 L25.4068082,30.6120156 C22.0718918,34.1801817 16.4756592,34.3683669 12.9074718,31.0334647 C12.6799493,30.8206466 12.4639944,30.5962892 12.2601041,30.3604066 L0.203748401,16.3854592 L9.66012969,0.172309689 Z" id="Fill-19" fill-opacity="0.46" fill="#FFFFFF" mask="url(#mask-12)"></path>
                        </g>
                        <mask id="mask-14" fill="white">
                            <use xlink:href="#path-13"></use>
                        </mask>
                        <g id="Clip-22"></g>
                        <polygon id="Fill-21" fill="#E6E6E6" mask="url(#mask-14)" points="15.893454 100.321597 147.706392 100.321597 147.706392 80.7588049 15.893454 80.7588049"></polygon>
                        <path d="M82.5339992,84.0768806 C85.4579413,84.0768806 87.828335,86.4472672 87.828335,89.3717274 C87.828335,92.2951373 85.4579413,94.6655239 82.5339992,94.6655239 C79.6095603,94.6655239 77.2391666,92.2951373 77.2391666,89.3717274 C77.2391666,86.4472672 79.6095603,84.0768806 82.5339992,84.0768806" id="Fill-23" fill="#A5A5A5" mask="url(#mask-14)"></path>
                        <polygon id="Fill-24" fill="#E6E6E6" mask="url(#mask-14)" points="59.2125569 126.992408 106.174782 126.992408 106.174782 116.770696 59.2125569 116.770696"></polygon>
                        <path d="M79.9337409,14.1079623 C79.9337409,14.1079623 80.3478377,17.7772786 79.7922312,20.2094852 C79.5631474,21.2054466 78.5708763,21.827195 77.574915,21.5986079 C76.3430568,21.2998337 74.7704825,20.5502014 74.3091922,18.6159755 L73.1297792,15.4341365 C72.7811856,14.0785816 73.3279211,12.6512073 74.4926438,11.8748911 C76.5265084,10.3599426 79.7922312,11.8748911 79.9337409,14.1079623" id="Fill-25" fill="#F4A28C" mask="url(#mask-14)"></path>
                        <polygon id="Fill-26" fill="#F4A28C" mask="url(#mask-14)" points="73.8060308 16.3357108 70.8391035 27.9989761 77.3810311 29.1783891 76.9144891 20.2199885"></polygon>
                        <path d="M72.7315082,18.2909432 L72.7315082,18.2909432 C72.7351985,18.4508335 72.8478953,18.5871626 73.0040953,18.6212271 C74.0639986,18.8932464 75.1758503,18.4230851 75.7193923,17.4732528 C76.3651988,16.4369108 76.3321987,15.1159172 75.6355793,14.1131429 C76.7552375,14.3044719 77.893773,14.3621687 79.027057,14.2861623 C79.4086506,14.2635945 79.783999,14.1787171 80.1383409,14.0345106 L81.0137281,11.2510846 C81.0137281,11.2510846 82.4552959,8.46240703 80.8197732,7.90154893 C79.1843215,7.34061985 78.4556957,9.21196837 77.1137665,7.90154893 C75.7718374,6.59105851 75.46256,6.10351009 74.1101276,6.8531424 C72.7577662,7.60270374 74.3303405,8.65636188 72.102521,8.68780059 C69.8746944,8.7192393 69.8432486,9.64182001 69.8432486,10.6535362 C69.8951402,10.999504 70.0482035,11.3224072 70.283568,11.5812976 C71.8047404,13.4935945 72.6639469,15.8482333 72.7315082,18.2909432" id="Fill-27" fill="#24285B" mask="url(#mask-14)"></path>
                        <path d="M76.1124116,17.3526076 C76.1124116,17.3526076 76.0337794,15.9425495 74.9853728,16.0788075 C73.9370373,16.2151366 74.0051663,18.2542529 75.4519148,18.4115174 L76.1124116,17.3526076 Z" id="Fill-28" fill="#F4A28C" mask="url(#mask-14)"></path>
                        <path d="M80.0753216,16.4247753 L81.1237281,17.8086464 C81.3213733,18.0655496 81.273612,18.4340142 81.0167797,18.6321561 C80.9465216,18.6861626 80.8647668,18.7239174 80.7777603,18.7417303 L79.3833861,19.0457561 L80.0753216,16.4247753 Z" id="Fill-29" fill="#F4A28C" mask="url(#mask-14)"></path>
                    </g>
                    <g transform="translate(0.000000, 0.576613)">
                        <g transform="translate(74.516134, 19.870969)">
                            <mask id="mask-16" fill="white">
                                <use xlink:href="#path-15"></use>
                            </mask>
                            <g id="Clip-31"></g>
                            <path d="M2.440155,1.53900656 C2.440155,1.53900656 1.59620656,1.39749687 0.0813290378,0.0241290339 C0.0813290378,0.0241290339 -0.13888388,2.41446468 2.59741953,4.17574222 L2.440155,1.53900656 Z" id="Fill-30" fill-opacity="0.31" fill="#CE8172" mask="url(#mask-16)"></path>
                        </g>
                        <mask id="mask-18" fill="white">
                            <use xlink:href="#path-17"></use>
                        </mask>
                        <g id="Clip-33"></g>
                        <path d="M54.0544153,38.5196607 C54.6829199,33.6221055 58.4701988,29.7278923 63.3483159,28.9636407 C70.6345674,27.8104148 82.2191862,26.9979051 93.2272064,30.536215 C111.180698,36.3023444 89.8199029,74.4371754 89.8199029,74.4371754 L63.5055734,74.4371754 C63.5055734,74.4371754 51.6274177,57.7888943 54.0544153,38.5196607" id="Fill-32" fill="#FC790D" mask="url(#mask-18)"></path>
                        <polygon id="Fill-34" fill="#24285B" mask="url(#mask-18)" points="63.5057295 74.4423135 65.6916071 80.7588049 92.424774 80.7588049 89.8463029 74.4423135"></polygon>
                        <polygon id="Fill-35" fill="#FFD200" mask="url(#mask-18)" points="86.2294317 34.5828669 89.6104771 43.23199 92.435845 41.7485512 89.6104771 34.2368991"></polygon>
                    </g>
                    <g transform="translate(58.903230, 34.641131)">
                        <mask id="mask-20" fill="white">
                            <use xlink:href="#path-19"></use>
                        </mask>
                        <g id="Clip-37"></g>
                        <path d="M6.47915657,0.104180652 C6.47915657,0.104180652 16.0456656,6.95533596 11.0658233,19.49924 L31.9024151,2.66221308 C31.9024151,2.66221308 36.0958992,6.90814241 29.9891246,11.190833 C23.882279,15.4734527 24.458892,32.5410893 15.2068978,40.4039466 L4.60255644,40.4039466 L2.15458079,34.2447127 L0.0578245201,15.7460398 L6.47915657,0.104180652 Z" id="Fill-36" fill-opacity="0.08" fill="#000000" mask="url(#mask-20)"></path>
                    </g>
                    <g transform="translate(0.000000, 0.576613)">
                        <g transform="translate(85.870974, 34.064518)">
                            <mask id="mask-22" fill="white">
                                <use xlink:href="#path-21"></use>
                            </mask>
                            <g id="Clip-39"></g>
                            <polygon id="Fill-38" fill-opacity="0.4" fill="#FFFFFF" mask="url(#mask-22)" points="0.358458089 0.518348422 3.73950348 9.16747159 6.56487141 7.68403278 3.73950348 0.172380657"></polygon>
                        </g>
                        <mask id="mask-24" fill="white">
                            <use xlink:href="#path-23"></use>
                        </mask>
                        <g id="Clip-41"></g>
                        <path d="M85.1231864,38.1000994 C85.1231864,38.1000994 88.4255996,34.430783 90.805432,34.6352411 C93.1852644,34.8396991 94.4747484,39.352964 87.062664,42.0420738 L85.1231864,38.1000994 Z" id="Fill-40" fill="#F4A28C" mask="url(#mask-24)"></path>
                        <polygon id="Fill-42" fill="#FFD200" mask="url(#mask-24)" points="88.0379737 26.971576 111.489762 12.9494848 116.731653 34.2368281 89.610548 34.2368281"></polygon>
                        <polygon id="Fill-43" fill="#FFD200" mask="url(#mask-24)" points="88.0379737 26.971576 82.0937153 29.0159439 83.9278057 35.4372476 89.610548 34.2368281"></polygon>
                    </g>
                    <g transform="translate(0.000000, 0.576613)">
                        <g transform="translate(81.612909, 26.967744)">
                            <mask id="mask-26" fill="white">
                                <use xlink:href="#path-25"></use>
                            </mask>
                            <g id="Clip-45"></g>
                            <polygon id="Fill-44" fill-opacity="0.08" fill="#000000" mask="url(#mask-26)" points="6.42506495 0.00383225833 0.480806484 2.04820014 2.31489693 8.4695038 7.99763925 7.26908437"></polygon>
                        </g>
                        <mask id="mask-28" fill="white">
                            <use xlink:href="#path-27"></use>
                        </mask>
                        <g id="Clip-47"></g>
                        <polygon id="Fill-46" fill="#FFD200" mask="url(#mask-28)" points="125.716596 91.2216507 160.575264 91.2216507 160.575264 68.4770272 125.716596 68.4770272"></polygon>
                        <polygon id="Fill-48" fill="#24285B" mask="url(#mask-28)" points="5.93383615 31.469157 35.996164 31.469157 35.996164 3.01085633 5.93383615 3.01085633"></polygon>
                        <polygon id="Fill-49" fill="#FFFFFF" mask="url(#mask-28)" points="137.726042 73.7348644 137.726042 85.9642252 150.45283 79.0711209"></polygon>
                        <path d="M23.7509674,10.6064846 C22.9405654,10.5991749 22.1516596,10.8711943 21.5179176,11.3770524 C20.9800956,11.8053427 20.5376756,12.3410073 20.2179233,12.9496267 C19.8965955,12.3420718 19.4541755,11.806904 18.917929,11.3770524 C18.2868058,10.8743878 17.5026122,10.6022975 16.6953611,10.6064846 C14.4203765,10.6064846 12.7062712,12.4674008 12.7062712,14.9362978 C12.7062712,17.5992206 14.8449694,19.4233755 18.0844696,22.185866 C18.6086587,22.6576596 19.2586523,23.187079 19.908653,23.7584403 C19.9935659,23.8349436 20.103651,23.875821 20.2179233,23.873837 C20.3321956,23.8748274 20.4422737,23.83395 20.5271937,23.7584403 C21.1719498,23.1923306 21.795735,22.6629112 22.351377,22.185866 C25.5908772,19.4233755 27.7296233,17.5992206 27.7296233,14.9362978 C27.7400574,12.4568976 26.0259521,10.6064846 23.7509674,10.6064846" id="Fill-50" fill="#FFFFFF" mask="url(#mask-28)"></path>
                    </g>
                    <g transform="translate(0.000000, 0.576613)">
                        <g transform="translate(134.129041, 5.677420)">
                            <mask id="mask-30" fill="white">
                                <use xlink:href="#path-29"></use>
                            </mask>
                            <g id="Clip-52"></g>
                            <polygon id="Fill-51" fill-opacity="0.72" fill="#FFFFFF" mask="url(#mask-30)" points="0.0796967796 15.5856527 9.72428453 0.473212935 15.4956656 14.2489752 21.8178983 2.97361956 30.9173118 16.5606785 30.9173118 20.9061756 0.0796967796 20.9061756"></polygon>
                        </g>
                        <mask id="mask-32" fill="white">
                            <use xlink:href="#path-31"></use>
                        </mask>
                        <g id="Clip-54"></g>
                        <path d="M150.23801,4.61489064 C151.700017,4.61489064 152.885746,5.80012298 152.885746,7.26205856 C152.885746,8.72399414 151.700017,9.90922648 150.23801,9.90922648 C148.776075,9.90922648 147.590842,8.72399414 147.590842,7.26205856 C147.590842,5.80012298 148.776075,4.61489064 150.23801,4.61489064" id="Fill-53" fill="#FFFFFF" mask="url(#mask-32)"></path>
                        <path d="M65.7911464,35.6732153 C65.2417993,32.2428474 62.015932,29.9070859 58.5856279,30.4564472 C57.3595465,30.6524602 56.2189032,31.2075699 55.3073367,32.0510215 C52.533321,34.6206217 51.0047822,38.2626865 51.113817,42.0420738 C51.2448661,52.9505262 50.8517189,70.5108848 59.6319124,73.7870753 C68.4120989,77.0632659 87.0417995,42.0420738 87.0417995,42.0420738 L85.1023219,38.1001703 L62.8714056,56.6250942 C62.8714056,56.6250942 67.1225936,44.8150676 65.7911464,35.6732153" id="Fill-55" fill="#FC790D" mask="url(#mask-32)"></path>
                    </g>
                    <g transform="translate(0.000000, 0.576613)">
                        <g transform="translate(51.096778, 29.806454)">
                            <mask id="mask-34" fill="white">
                                <use xlink:href="#path-33"></use>
                            </mask>
                            <g id="Clip-57"></g>
                            <path d="M14.6943687,5.86676169 C14.1450216,2.43639371 10.9191543,0.100632265 7.48885019,0.649993593 C6.26276881,0.846006509 5.12212551,1.40111622 4.210559,2.24456789 C1.43654332,4.81416807 -0.0919954901,8.45623283 0.017039356,12.2356202 C0.148088397,23.1440725 -0.245058726,40.7044312 8.53513477,43.9806217 C17.3153212,47.2568123 35.9450218,12.2356202 35.9450218,12.2356202 L34.0055443,8.29371669 L11.7746279,26.8186405 C11.7746279,26.8186405 16.0258159,15.0086139 14.6943687,5.86676169" id="Fill-56" fill-opacity="0.46" fill="#FFFFFF" mask="url(#mask-34)"></path>
                        </g>
                        <mask id="mask-36" fill="white">
                            <use xlink:href="#path-35"></use>
                        </mask>
                        <g id="Clip-59"></g>
                        <path d="M111.959782,12.7826396 C114.289795,12.2201492 117.334879,16.5525882 118.760621,22.4597306 C120.186434,28.3668019 119.453124,33.6113184 117.123608,34.1738088 C114.793027,34.7362282 111.748582,30.4032924 110.322201,24.4967178 C108.896459,18.5895755 109.629769,13.345059 111.959782,12.7826396" id="Fill-58" fill="#FFD200" mask="url(#mask-36)"></path>
                    </g>
                    <g transform="translate(0.000000, 0.576613)">
                        <g transform="translate(109.290330, 12.064517)">
                            <mask id="mask-38" fill="white">
                                <use xlink:href="#path-37"></use>
                            </mask>
                            <g id="Clip-61"></g>
                            <path d="M2.66945179,0.71812263 C4.99946486,0.155632269 8.04454894,4.48807127 9.47029097,10.3952136 C10.896104,16.302285 10.1627942,21.5468015 7.83327795,22.1092918 C5.50269715,22.6717112 2.45825178,18.3387754 1.03187104,12.4322008 C-0.393870995,6.52505851 0.339438733,1.28054202 2.66945179,0.71812263" id="Fill-60" fill-opacity="0.4" fill="#FFFFFF" mask="url(#mask-38)"></path>
                        </g>
                        <mask id="mask-40" fill="white">
                            <use xlink:href="#path-39"></use>
                        </mask>
                        <g id="Clip-63"></g>
                        <path d="M109.954162,19.8635175 C109.836285,19.8955239 109.722524,19.9395239 109.613446,19.9945949 C109.780717,23.4877693 110.641414,26.912318 112.145292,30.0695311 C112.23393,30.0648472 112.321433,30.0527827 112.407375,30.0328408 C113.901317,29.6711182 114.561814,27.1025825 113.885634,24.2667113 C113.209453,21.4308402 111.448175,19.5018658 109.954162,19.8635175" id="Fill-62" fill="#FFD200" mask="url(#mask-40)"></path>
                    </g>
                    <g transform="translate(0.000000, 0.576613)">
                        <g transform="translate(109.290330, 19.161292)">
                            <mask id="mask-42" fill="white">
                                <use xlink:href="#path-41"></use>
                            </mask>
                            <g id="Clip-65"></g>
                            <path d="M0.663832303,0.702225854 C0.545954876,0.734232308 0.432193578,0.778232311 0.323116151,0.833303283 C0.49038713,4.32647771 1.35108396,7.75102633 2.85496148,10.9082395 C2.9436002,10.9035556 3.03110343,10.8914911 3.11704537,10.8715491 C4.61098741,10.5098265 5.27148423,7.94129086 4.59530354,5.1054197 C3.91912285,2.26954854 2.15784531,0.340574217 0.663832303,0.702225854" id="Fill-64" fill-opacity="0.08" fill="#000000" mask="url(#mask-42)"></path>
                        </g>
                        <mask id="mask-44" fill="white">
                            <use xlink:href="#path-43"></use>
                        </mask>
                        <g id="Clip-67"></g>
                        <polygon id="Fill-66" fill="#E6E6E6" mask="url(#mask-44)" points="0.00524190487 69.0169357 34.3397217 69.0169357 34.3397217 45.9787612 0.00524190487 45.9787612"></polygon>
                        <polygon id="Fill-68" fill="#C9C9C9" mask="url(#mask-44)" points="0.000104838097 45.9788676 17.1673463 62.3074107 34.3345791 45.9788676"></polygon>
                    </g>
                </g>
                <g id="独家解决方案备份" transform="translate(24.461564, 150.986898)">
                    <rect id="Rectangle-3" fill="#FC790D" x="0" y="0" width="170.724849" height="33.4026878" rx="3.6022268"></rect>
                    <text id="独家功能" font-family="FZLTCHJW--GB1-0, FZLanTingHeiS-B-GB" font-size="18.011134" font-weight="normal" line-spacing="21.6133608" fill="#FFFFFF">
                        <tspan x="88.2357293" y="21.6301145">独家功能</tspan>
                    </text>
                    <g id="句客宝logo" transform="translate(7.586043, 6.804206)">
                        <path d="M8.5045812,-1.54758361e-13 C10.8112375,-1.54758361e-13 12.8057681,0.840190548 14.4873285,2.51821487 C16.1682133,4.19724924 17.0093313,6.18872473 17.0093313,8.49129462 C17.0093313,13.6068447 13.4313707,17.3731406 6.27595631,19.7940543 L6.27595631,19.7940543 L6.27595631,16.690349 C4.35962604,16.1429037 2.8344663,15.0988521 1.7008149,13.5571841 C0.566319003,12.0151794 0,10.3273913 0,8.49129462 C0,6.18872473 0.840104599,4.19724924 2.52200279,2.51821487 C4.20254978,0.840190548 6.19691149,-1.54758361e-13 8.5045812,-1.54758361e-13 Z M8.58225794,5.2306954 C6.81253216,5.18709504 5.34614935,6.43618618 5.30679584,8.02094952 C5.26761122,9.60554452 6.67031904,10.9251706 8.44021371,10.9691076 C8.51132027,10.9712961 8.58090674,10.9669192 8.65066211,10.9650674 C8.65066211,10.9654041 8.95214717,11.178019 9.2828518,11.3477068 C9.65155874,11.5364172 10.1045464,11.6631781 10.3678602,11.6406204 C10.7162993,11.610824 10.7711915,11.3874353 10.7014361,11.2731317 C10.6352277,11.164215 10.5195317,11.1593331 10.4077204,11.0893032 C10.2734456,11.0047959 10.2139931,10.9620373 10.158763,10.8308996 C10.0954258,10.6798976 10.1687281,10.5677824 10.3080699,10.4928706 L10.3218071,10.4797026 C10.326236,10.4754379 10.3316595,10.4702006 10.3379651,10.4640842 C11.1498635,9.96225936 11.6920299,9.1326743 11.7156758,8.17919018 C11.7550293,6.59476352 10.3523215,5.27463243 8.58225794,5.2306954 Z" id="形状结合" fill="#FFFFFF"></path>
                        <path d="M31.6453564,18.3197822 C32.0357836,18.3197822 32.4576967,18.23199 32.911096,18.0564057 C33.3644952,17.8808213 33.7864084,17.5986322 34.1768355,17.2098383 C34.5672626,16.8210443 34.8978662,16.3131039 35.1686463,15.6860169 C35.4394264,15.05893 35.5811137,14.2938839 35.5937081,13.3908786 L35.5937081,13.3908786 L35.6881663,4.79351628 C35.7133551,4.36709715 35.5748165,4.0033867 35.2725503,3.70238496 C34.9576897,3.38884147 34.5609654,3.23206973 34.0823773,3.23206973 L34.0823773,3.23206973 L26.3556987,3.23206973 C26.4438597,2.98123495 26.5257234,2.71472298 26.6012899,2.43253385 C26.6768565,2.15034471 26.7650174,1.8524784 26.8657728,1.53893492 C26.928745,1.35080883 26.9098533,1.17208904 26.8090979,1.00277556 C26.7083425,0.833462079 26.5635067,0.71745099 26.3745903,0.654742293 C26.1730796,0.592033596 25.9873118,0.610846205 25.8172871,0.71118012 C25.6472624,0.811514035 25.530764,0.955744037 25.4677919,1.14387013 C25.2536867,1.88383275 25.0490273,2.54854494 24.8538137,3.13800669 C24.6586002,3.72746844 24.4539408,4.26989867 24.2398356,4.76529737 C24.0257304,5.26069608 23.789585,5.72474043 23.5313993,6.15743044 C23.2732136,6.59012045 22.9740961,7.01967502 22.6340466,7.44609416 C22.5081024,7.60913677 22.4577247,7.78785656 22.4829136,7.98225352 C22.5081024,8.17665048 22.6025606,8.33655766 22.7662881,8.46197505 C22.9048267,8.56230896 23.0496626,8.61247592 23.2007957,8.61247592 C23.3015511,8.61247592 23.4054551,8.59052788 23.5125077,8.54663179 C23.6195603,8.5027357 23.7108698,8.4306207 23.7864364,8.33028679 C24.25243,7.74082504 24.6460057,7.16076959 24.9671635,6.59012045 C25.2883213,6.01947131 25.5811417,5.37670716 25.8456246,4.66182802 L25.8456246,4.66182802 L34.0823773,4.66182802 C34.1579439,4.66182802 34.2083216,4.68064063 34.2335104,4.71826585 C34.2461048,4.71826585 34.252402,4.73707846 34.252402,4.77470367 L34.252402,4.77470367 L34.1390522,13.372066 C34.1264578,14.0869452 34.0225538,14.670136 33.8273403,15.1216387 C33.6321267,15.5731413 33.4022785,15.9305808 33.1377956,16.1939574 C32.8733127,16.4573339 32.599384,16.6360537 32.3160095,16.7301167 C32.032635,16.8241798 31.8090839,16.8712113 31.6453564,16.8712113 L31.6453564,16.8712113 L31.1730656,16.8712113 C30.9589604,16.8586696 30.7826385,16.9213783 30.6440998,17.0593374 C30.5055611,17.1972965 30.4362918,17.36661 30.4362918,17.5672778 C30.4236974,17.7804874 30.4866695,17.9560717 30.6252082,18.0940309 C30.7637468,18.23199 30.9337715,18.3072405 31.1352823,18.3197822 L31.1352823,18.3197822 L31.6453564,18.3197822 Z M30.9270496,14.1810082 C31.267099,14.1810082 31.5567707,14.0618617 31.7960648,13.8235686 C32.0353588,13.5852756 32.1550058,13.2968156 32.1550058,12.9581886 L32.1550058,12.9581886 L32.1550058,8.23622374 C32.1550058,7.89759678 32.0353588,7.60913677 31.7960648,7.37084372 C31.5567707,7.13255068 31.267099,7.01340415 30.9270496,7.01340415 L30.9270496,7.01340415 L26.506407,7.01340415 C26.1663576,7.01340415 25.8766859,7.13255068 25.6373918,7.37084372 C25.3980978,7.60913677 25.2784508,7.89759678 25.2784508,8.23622374 L25.2784508,8.23622374 L25.2784508,12.9581886 C25.2784508,13.2968156 25.3980978,13.5852756 25.6373918,13.8235686 C25.8766859,14.0618617 26.1663576,14.1810082 26.506407,14.1810082 L26.506407,14.1810082 L30.9270496,14.1810082 Z M30.7003499,12.7324373 L26.7331066,12.7324373 L26.7331066,8.44316244 L30.7003499,8.44316244 L30.7003499,12.7324373 Z M53.0865124,6.37377544 C53.2880232,6.37377544 53.4611965,6.30166044 53.6060324,6.15743044 C53.7508682,6.01320044 53.8232862,5.84702239 53.8232862,5.6588963 L53.8232862,5.6588963 L53.8232862,3.60832191 C53.8232862,3.26969495 53.7004906,2.98123495 53.4548993,2.7429419 C53.209308,2.50464885 52.9164877,2.38550233 52.5764383,2.38550233 L52.5764383,2.38550233 L48.3069288,2.38550233 L47.6457216,1.04980708 C47.5449662,0.874222732 47.403279,0.751940773 47.2206598,0.682961206 C47.0380407,0.61398164 46.8585701,0.623387944 46.6822482,0.71118012 C46.5059263,0.798972295 46.3799821,0.936931428 46.3044155,1.12505752 C46.228849,1.31318361 46.2414434,1.49503883 46.3421988,1.67062318 L46.3421988,1.67062318 L46.7011399,2.36668972 L42.1293642,2.36668972 C41.7767204,2.36668972 41.4807514,2.48583624 41.2414574,2.72412929 C41.0021634,2.96242234 40.8825163,3.25088234 40.8825163,3.5895093 L40.8825163,3.5895093 L40.8825163,5.64008369 C40.8825163,5.85329326 40.9549343,6.02887761 41.0997701,6.16683674 C41.244606,6.30479588 41.4177793,6.37377544 41.6192901,6.37377544 C41.8208009,6.37377544 41.9908256,6.30166044 42.1293642,6.15743044 C42.2679029,6.01320044 42.3371722,5.84702239 42.3371722,5.6588963 L42.3371722,5.6588963 L42.3371722,3.83407322 L52.3686303,3.83407322 L52.3686303,5.6588963 C52.3686303,5.84702239 52.4378996,6.01320044 52.5764383,6.15743044 C52.7149769,6.30166044 52.8850017,6.37377544 53.0865124,6.37377544 Z M53.4832368,12.8076877 C53.6595587,12.8076877 53.8138404,12.7543853 53.9460818,12.6477806 C54.0783232,12.5411758 54.1570384,12.4000812 54.1822272,12.2244969 C54.2326049,12.023829 54.2011189,11.8419738 54.0877691,11.6789312 C53.9744193,11.5158886 53.816989,11.4155547 53.6154782,11.3779295 C52.5449522,11.1647199 51.6098163,10.9483749 50.8100704,10.7288944 C50.0103246,10.509414 49.3081855,10.2617146 48.7036531,9.98579638 C49.3585632,9.5468355 49.9410552,9.07024941 50.4511294,8.55603809 C50.9612035,8.04182678 51.4114541,7.47117764 51.8018813,6.84409067 C51.8774478,6.73121502 51.9183797,6.60266219 51.9246769,6.45843218 C51.9309741,6.31420218 51.9089339,6.18251392 51.8585562,6.06336739 C51.8081785,5.94422087 51.7294633,5.84075152 51.6224107,5.75295935 C51.5153581,5.66516717 51.3862653,5.62127108 51.2351322,5.62127108 L51.2351322,5.62127108 L45.7376665,5.62127108 C45.7880442,5.52093717 45.8321247,5.43314499 45.8699079,5.35789456 C45.9076912,5.28264412 45.9454745,5.19485194 45.9832577,5.09451803 C46.0714187,4.91893368 46.0808645,4.74021389 46.0115952,4.55835867 C45.9423259,4.37650345 45.813233,4.23540888 45.6243167,4.13507497 C45.4479947,4.04728279 45.2685242,4.03787649 45.0859051,4.10685605 C44.9032859,4.17583562 44.7615987,4.30438845 44.6608433,4.49251454 C44.3333883,5.1823102 43.9114751,5.83448065 43.3951038,6.44902588 C42.8787324,7.06357111 42.2679029,7.62167851 41.5626152,8.12334809 C41.3862933,8.23622374 41.2855379,8.38986005 41.260349,8.58425701 C41.2351602,8.77865397 41.2729435,8.95737375 41.3736988,9.12041637 C41.5374263,9.3210842 41.7389371,9.42141811 41.9782312,9.42141811 C42.1419587,9.42141811 42.2742001,9.37125115 42.3749555,9.27091724 C42.626844,9.09533289 42.8692866,8.91347767 43.1022834,8.72535158 C43.3352803,8.53722548 43.5588313,8.33655766 43.7729365,8.12334809 C44.1003915,8.46197505 44.4246979,8.78492484 44.7458557,9.09219745 C45.0670134,9.39947007 45.4102115,9.68479464 45.7754498,9.94817116 C44.4656297,10.5250912 42.9165157,11.0016773 41.1281076,11.3779295 C40.9265968,11.4155547 40.7691665,11.519024 40.6558167,11.6883375 C40.5424669,11.857651 40.5109809,12.0426416 40.5613585,12.2433095 C40.5991418,12.4063521 40.6841542,12.5411758 40.8163956,12.6477806 C40.9486371,12.7543853 41.1029187,12.8076877 41.2792407,12.8076877 C41.3422128,12.8076877 41.3925905,12.8014169 41.4303737,12.7888751 C42.5764663,12.5505821 43.6281006,12.2715284 44.5852768,11.951714 C45.5424529,11.6318997 46.4240625,11.2713247 47.2301056,10.869989 C47.9731766,11.2713247 48.832746,11.6256288 49.8088138,11.9329014 C50.7848816,12.240174 51.9656088,12.5254986 53.3509953,12.7888751 C53.3761842,12.7888751 53.3982244,12.7920106 53.417116,12.7982814 C53.4360077,12.8045523 53.4580479,12.8076877 53.4832368,12.8076877 Z M47.211214,9.1956668 C46.7704092,8.9072068 46.348496,8.58739244 45.9454745,8.23622374 C45.5424529,7.88505504 45.1394314,7.49626112 44.7364098,7.06984198 L44.7364098,7.06984198 L49.8182596,7.06984198 C49.1129719,7.89759678 48.2439567,8.60620505 47.211214,9.1956668 Z M51.0084326,18.0752183 C51.3106988,18.0752183 51.572033,17.9654781 51.7924354,17.7459976 C52.0128378,17.5265172 52.123039,17.2662761 52.123039,16.9652743 L52.123039,16.9652743 L52.123039,13.6918804 C52.123039,13.3783369 52.0159864,13.1118249 51.8018813,12.8923445 C51.5877761,12.672864 51.3232932,12.5631238 51.0084326,12.5631238 L51.0084326,12.5631238 L43.640695,12.5631238 C43.3384289,12.5631238 43.0770946,12.672864 42.8566922,12.8923445 C42.6362898,13.1118249 42.5260886,13.3846078 42.5260886,13.710693 L42.5260886,13.710693 L42.5260886,16.9652743 C42.5260886,17.2662761 42.6331412,17.5265172 42.8472464,17.7459976 C43.0613516,17.9654781 43.3258344,18.0752183 43.640695,18.0752183 L43.640695,18.0752183 L51.0084326,18.0752183 Z M50.6872748,16.64546 L43.9807444,16.64546 L43.9807444,13.9928821 L50.6872748,13.9928821 L50.6872748,16.64546 Z M59.1314108,6.67477719 C59.3329216,6.67477719 59.5029463,6.60266219 59.6414849,6.45843218 C59.7800236,6.31420218 59.8492929,6.14175327 59.8492929,5.94108544 L59.8492929,5.94108544 L59.8492929,4.39845149 L69.880751,4.39845149 L69.880751,5.94108544 C69.880751,6.12921153 69.9500203,6.29538957 70.088559,6.43961958 C70.2270976,6.58384958 70.3971224,6.65596458 70.5986331,6.65596458 C70.8001439,6.65596458 70.9733172,6.58384958 71.1181531,6.43961958 C71.2629889,6.29538957 71.3354069,6.12294066 71.3354069,5.92227283 L71.3354069,5.92227283 L71.3354069,4.05982453 C71.3354069,3.74628105 71.2157599,3.48290452 70.9764658,3.26969495 C70.7371718,3.05648538 70.4412028,2.9498806 70.088559,2.9498806 L70.088559,2.9498806 L66.1779906,2.9498806 C66.1653962,2.86208842 66.1339101,2.77429625 66.0835324,2.68650407 L66.0835324,2.68650407 L64.9878176,1.01218186 C64.8870622,0.836597514 64.7390777,0.729992729 64.5438642,0.692367511 C64.3486506,0.654742293 64.1628829,0.686096641 63.9865609,0.786430556 C63.810239,0.89930621 63.7031864,1.05294252 63.6654032,1.24733948 C63.6276199,1.44173644 63.6654032,1.62045622 63.778753,1.78349884 L63.778753,1.78349884 L64.5155267,2.96869321 L59.6414849,2.96869321 C59.2888411,2.96869321 58.9928721,3.07843343 58.7535781,3.29791386 C58.5142841,3.5173943 58.394637,3.7776354 58.394637,4.07863714 L58.394637,4.07863714 L58.394637,5.94108544 C58.394637,6.14175327 58.467055,6.31420218 58.6118908,6.45843218 C58.7567267,6.60266219 58.9299,6.67477719 59.1314108,6.67477719 Z M70.7308746,18.0564057 C70.9449798,18.0564057 71.1213017,17.9842907 71.2598403,17.8400607 C71.398379,17.6958307 71.4676483,17.5296526 71.4676483,17.3415265 C71.4676483,17.1408587 71.3952304,16.9684098 71.2503945,16.8241798 C71.1055587,16.6799498 70.9323853,16.6078348 70.7308746,16.6078348 L70.7308746,16.6078348 L65.5167834,16.6078348 L65.5167834,12.5443112 L69.6162681,12.5443112 C69.8303733,12.5443112 70.0066952,12.4753316 70.1452339,12.3373725 C70.2837725,12.1994134 70.3530419,12.0300999 70.3530419,11.8294321 C70.3530419,11.6287642 70.2806239,11.4563153 70.1357881,11.3120853 C69.9909522,11.1678553 69.8177789,11.0957403 69.6162681,11.0957403 L69.6162681,11.0957403 L65.5167834,11.0957403 L65.5167834,8.29266157 L70.2208004,8.29266157 C70.4349056,8.29266157 70.6112275,8.223682 70.7497662,8.08572287 C70.8883049,7.94776373 70.9575742,7.77845025 70.9575742,7.57778242 C70.9575742,7.37711459 70.8851563,7.20466568 70.7403204,7.06043567 C70.5954845,6.91620567 70.4223112,6.84409067 70.2208004,6.84409067 L70.2208004,6.84409067 L60.3026922,6.84409067 C60.088587,6.84409067 59.9154136,6.91620567 59.7831722,7.06043567 C59.6509308,7.20466568 59.58481,7.37711459 59.58481,7.57778242 C59.58481,7.77845025 59.6540794,7.94776373 59.792618,8.08572287 C59.9311567,8.223682 60.1011814,8.29266157 60.3026922,8.29266157 L60.3026922,8.29266157 L64.0432358,8.29266157 L64.0432358,11.0957403 L60.3026922,11.0957403 C60.088587,11.0957403 59.9154136,11.1678553 59.7831722,11.3120853 C59.6509308,11.4563153 59.58481,11.6287642 59.58481,11.8294321 C59.58481,12.0300999 59.6540794,12.1994134 59.792618,12.3373725 C59.9311567,12.4753316 60.1011814,12.5443112 60.3026922,12.5443112 L60.3026922,12.5443112 L64.0432358,12.5443112 L64.0432358,16.6078348 L58.9236028,16.6078348 C58.722092,16.6078348 58.5520673,16.6799498 58.4135287,16.8241798 C58.27499,16.9684098 58.2057207,17.1408587 58.2057207,17.3415265 C58.2057207,17.5296526 58.2781386,17.6958307 58.4229745,17.8400607 C58.5678104,17.9842907 58.7346865,18.0564057 58.9236028,18.0564057 L58.9236028,18.0564057 L70.7308746,18.0564057 Z" id="句客宝" stroke="#FFFFFF" stroke-width="0.519999981" fill="#FFFFFF" fill-rule="nonzero"></path>
                        <ellipse id="椭圆形" stroke="#FFFFFF" stroke-width="0.975194876" fill="#FC790D" fill-rule="nonzero" cx="68.4416639" cy="14.5723829" rx="1.4310552" ry="1.4660758"></ellipse>
                    </g>
                </g>
            </g>
        </g>
    </g>
</svg>