<?xml version="1.0" encoding="UTF-8"?>
<svg width="281px" height="281px" viewBox="0 0 281 281" version="1.1" xmlns="http://www.w3.org/2000/svg" xmlns:xlink="http://www.w3.org/1999/xlink">
    <title>5-2</title>
    <defs>
        <polygon id="path-1" points="0 223.999996 280.471725 223.999996 280.471725 0.0437499993 0 0.0437499993"></polygon>
        <polygon id="path-3" points="0.110200998 0.222732996 266.471746 0.222732996 266.471746 38.4999993 0.110200998 38.4999993"></polygon>
        <polygon id="path-5" points="0 223.999996 280.471725 223.999996 280.471725 0.0437499993 0 0.0437499993"></polygon>
        <polygon id="path-7" points="0.057049999 0.56356999 46.5436292 0.56356999 46.5436292 62.7663669 0.057049999 62.7663669"></polygon>
        <polygon id="path-9" points="0 223.999996 280.471725 223.999996 280.471725 0.0437499993 0 0.0437499993"></polygon>
        <polygon id="path-11" points="0 223.999996 280.471725 223.999996 280.471725 0.0437499993 0 0.0437499993"></polygon>
        <polygon id="path-13" points="0.160019997 0.356215994 21.5141006 0.356215994 21.5141006 20.0785897 0.160019997 20.0785897"></polygon>
        <polygon id="path-15" points="0 223.999996 280.471725 223.999996 280.471725 0.0437499993 0 0.0437499993"></polygon>
        <polygon id="path-17" points="0 223.999996 280.471725 223.999996 280.471725 0.0437499993 0 0.0437499993"></polygon>
        <polyline id="path-19" points="0 223.999996 280.471725 223.999996 280.471725 0.0437499993 0 0.0437499993"></polyline>
        <polygon id="path-21" points="5.20066746e-06 0.56814799 68.4392998 0.56814799 68.4392998 83.3399966 5.20066746e-06 83.3399966"></polygon>
        <polyline id="path-23" points="0 223.999996 280.471725 223.999996 280.471725 0.0437499993 0 0.0437499993"></polyline>
        <polyline id="path-25" points="0 223.999996 280.471725 223.999996 280.471725 0.0437499993 0 0.0437499993"></polyline>
    </defs>
    <g id="最新版备份" stroke="none" stroke-width="1" fill="none" fill-rule="evenodd">
        <g id="亮点5" transform="translate(-173.000000, -345.000000)">
            <g id="编组-4" transform="translate(130.000000, 241.000000)">
                <g id="5-2" transform="translate(43.000000, 104.000000)">
                    <g id="编组">
                        <path d="M48.7168982,63.3391489 C48.7168982,63.3391489 67.2060609,53.8526791 88.0763085,61.052949 C108.946598,68.2531488 68.4013528,80.0258886 68.4013528,80.0258886 L48.7168982,63.3391489 Z" id="Fill-1" fill="#FC790D"></path>
                        <g transform="translate(0.000000, 0.656250)">
                            <path d="M48.7168982,62.6828989 C48.7168982,62.6828989 67.2060609,53.1964291 88.0763085,60.396699 C108.946598,67.5968988 68.4013528,79.3696386 68.4013528,79.3696386 L48.7168982,62.6828989 Z" id="Fill-3" fill-opacity="0.08" fill="#000000"></path>
                            <mask id="mask-2" fill="white">
                                <use xlink:href="#path-1"></use>
                            </mask>
                            <g id="Clip-6"></g>
                            <path d="M26.2054656,69.5225988 C26.2054656,69.5225988 13.5220398,76.8081987 10.3630378,94.8324984 C7.20403588,112.856868 50.5193281,137.208678 50.5193281,137.208678 L77.4324587,117.011928 C77.4324587,117.011928 93.4172384,46.6031992 37.2003024,65.5003289 L26.2054656,69.5225988 Z" id="Fill-5" fill="#FC790D" mask="url(#mask-2)"></path>
                        </g>
                        <g transform="translate(0.000000, 0.656250)">
                            <g transform="translate(14.000000, 185.499997)">
                                <mask id="mask-4" fill="white">
                                    <use xlink:href="#path-3"></use>
                                </mask>
                                <g id="Clip-8"></g>
                                <path d="M133.290568,0.222354996 C206.844046,0.222354996 266.472285,8.79339285 266.472285,19.3670327 C266.472285,29.9387685 206.844046,38.5098097 133.290568,38.5098097 C59.737159,38.5098097 0.109815998,29.9387685 0.109815998,19.3670327 C0.109815998,8.79339285 59.737159,0.222354996 133.290568,0.222354996" id="Fill-7" fill-opacity="0.45" fill="#E6E6E6" mask="url(#mask-4)"></path>
                            </g>
                            <mask id="mask-6" fill="white">
                                <use xlink:href="#path-5"></use>
                            </mask>
                            <g id="Clip-10"></g>
                            <polygon id="Fill-9" fill="#E6E6E6" mask="url(#mask-6)" points="68.4108448 204.866456 221.257102 204.866456 221.257102 29.1577785 68.4108448 29.1577785"></polygon>
                            <polygon id="Fill-11" fill="#24285B" mask="url(#mask-6)" points="182.068457 148.469297 203.422538 148.469297 203.422538 128.746896 182.068457 128.746896"></polygon>
                            <polygon id="Fill-12" fill="#A5A5A5" mask="url(#mask-6)" points="182.068457 177.640243 203.422538 177.640243 203.422538 157.917841 182.068457 157.917841"></polygon>
                        </g>
                        <g transform="translate(0.000000, 0.656250)">
                            <g transform="translate(162.399997, 142.099998)">
                                <mask id="mask-8" fill="white">
                                    <use xlink:href="#path-7"></use>
                                </mask>
                                <g id="Clip-14"></g>
                                <path d="M25.5880096,0.56349999 C25.5880096,0.56349999 -13.3065798,7.02470988 4.91693992,62.7663669 L46.5436292,62.7663669 L25.5880096,0.56349999 Z" id="Fill-13" fill-opacity="0.08" fill="#000000" mask="url(#mask-8)"></path>
                            </g>
                            <mask id="mask-10" fill="white">
                                <use xlink:href="#path-9"></use>
                            </mask>
                            <g id="Clip-16"></g>
                            <polygon id="Fill-15" fill="#24285B" mask="url(#mask-10)" points="50.5289111 137.208748 68.8283388 161.551072 68.4109358 123.766368"></polygon>
                            <polygon id="Fill-17" fill="#FC790D" mask="url(#mask-10)" points="65.8969209 60.396769 223.960768 60.396769 223.960768 16.3889597 65.8969209 16.3889597"></polygon>
                            <path d="M212.425006,133.063068 C232.255516,133.063068 248.332276,149.138847 248.332276,168.970358 C248.332276,188.799958 232.255516,204.875759 212.425006,204.875759 C192.595407,204.875759 176.518647,188.799958 176.518647,168.970358 C176.518647,149.138847 192.595407,133.063068 212.425006,133.063068" id="Fill-18" fill="#FFD200" mask="url(#mask-10)"></path>
                            <polyline id="Stroke-19" stroke="#FFFFFF" stroke-width="6.99999988" stroke-linecap="round" stroke-linejoin="round" mask="url(#mask-10)" points="201.667477 168.52345 209.389474 181.814963 225.497524 157.737318"></polyline>
                            <polygon id="Fill-20" fill="#F2F2F2" mask="url(#mask-10)" points="96.4338884 38.3975893 109.107836 38.3975893 109.107836 0.0437289993 96.4338884 0.0437289993"></polygon>
                        </g>
                        <polygon id="Fill-21" fill-opacity="0.08" fill="#000000" points="109.107878 39.0443893 117.474957 39.0443893 117.474957 16.7511467 109.107878 16.7511467"></polygon>
                        <g transform="translate(0.000000, 0.656250)">
                            <polygon id="Fill-23" fill-opacity="0.08" fill="#000000" points="192.740727 16.0948967 201.107806 16.0948967 201.107806 38.3881393 192.740727 38.3881393"></polygon>
                            <mask id="mask-12" fill="white">
                                <use xlink:href="#path-11"></use>
                            </mask>
                            <g id="Clip-26"></g>
                            <polygon id="Fill-25" fill="#F2F2F2" mask="url(#mask-12)" points="180.066807 38.3975893 192.739803 38.3975893 192.739803 0.0437289993 180.066807 0.0437289993"></polygon>
                            <polygon id="Fill-27" fill="#24285B" mask="url(#mask-12)" points="89.2336885 88.4198685 123.925765 88.4198685 123.925765 77.9278137 89.2336885 77.9278137"></polygon>
                            <polygon id="Fill-28" fill="#FFFFFF" mask="url(#mask-12)" points="90.2677285 119.479568 111.621809 119.479568 111.621809 99.7562143 90.2677285 99.7562143"></polygon>
                        </g>
                        <g transform="translate(0.000000, 0.656250)">
                            <g transform="translate(121.099998, 99.399998)">
                                <mask id="mask-14" fill="white">
                                    <use xlink:href="#path-13"></use>
                                </mask>
                                <g id="Clip-30"></g>
                                <polygon id="Fill-29" fill-opacity="0.32" fill="#A5A5A5" mask="url(#mask-14)" points="0.160019997 20.0795697 21.5141006 20.0795697 21.5141006 0.356215994 0.160019997 0.356215994"></polygon>
                            </g>
                            <mask id="mask-16" fill="white">
                                <use xlink:href="#path-15"></use>
                            </mask>
                            <g id="Clip-32"></g>
                            <polygon id="Fill-31" fill="#FFD200" mask="url(#mask-16)" points="151.929887 119.479568 173.283968 119.479568 173.283968 99.7562143 151.929887 99.7562143"></polygon>
                            <polygon id="Fill-33" fill="#24285B" mask="url(#mask-16)" points="182.068457 119.479568 203.422538 119.479568 203.422538 99.7562143 182.068457 99.7562143"></polygon>
                            <path d="M25.6079106,69.8927588 C25.6079106,69.8927588 25.0671816,76.8084087 31.3946705,80.1286486 C37.7221594,83.4489586 37.0865594,75.0154287 37.0865594,75.0154287 C37.0865594,75.0154287 39.3917783,77.5009187 43.0535623,74.2280687 C46.7153462,70.9552188 38.1111004,64.9597889 38.1111004,64.9597889 L25.6079106,69.8927588 Z" id="Fill-34" fill="#FFFFFF" mask="url(#mask-16)"></path>
                            <polygon id="Fill-35" fill="#FFFFFF" mask="url(#mask-16)" points="90.2677285 148.469297 111.621809 148.469297 111.621809 128.746896 90.2677285 128.746896"></polygon>
                        </g>
                        <polygon id="Fill-36" fill-opacity="0.32" fill="#A5A5A5" points="121.260018 149.125547 142.614099 149.125547 142.614099 129.403146 121.260018 129.403146"></polygon>
                        <g transform="translate(0.000000, 0.656250)">
                            <polygon id="Fill-38" fill-opacity="0.32" fill="#A5A5A5" points="151.929887 128.746896 173.283968 128.746896 173.283968 148.469297 151.929887 148.469297"></polygon>
                            <mask id="mask-18" fill="white">
                                <use xlink:href="#path-17"></use>
                            </mask>
                            <g id="Clip-41"></g>
                            <polygon id="Fill-40" fill="#FFFFFF" mask="url(#mask-18)" points="90.2677285 177.640243 111.621809 177.640243 111.621809 157.917841 90.2677285 157.917841"></polygon>
                        </g>
                        <polygon id="Fill-42" fill-opacity="0.32" fill="#A5A5A5" points="121.260018 178.296493 142.614099 178.296493 142.614099 158.574091 121.260018 158.574091"></polygon>
                        <g transform="translate(0.000000, 0.656250)">
                            <polygon id="Fill-44" fill-opacity="0.32" fill="#A5A5A5" points="151.929887 157.917841 173.283968 157.917841 173.283968 177.640243 151.929887 177.640243"></polygon>
                            <mask id="mask-20" fill="white">
                                <use xlink:href="#path-19"></use>
                            </mask>
                            <g id="Clip-47"></g>
                            <path d="M35.4640854,62.2563189 C35.9393574,63.7001389 36.4962144,65.1165189 37.1337114,66.4967789 C38.0254414,68.3940588 38.8507623,71.4487188 36.1850574,73.4883087 C32.1058705,76.6378187 27.2393025,70.1206088 27.2393025,70.1206088 C27.2393025,70.1206088 20.9687376,64.8935689 25.3420086,61.459439 C29.3642785,58.376359 33.2157904,55.6537091 35.4640854,62.2563189" id="Fill-46" fill="#F4A28C" mask="url(#mask-20)"></path>
                            <path d="M20.3996447,60.681389 C19.5401707,61.627159 19.0601527,62.8566389 19.0525647,64.1344189 C18.9643367,65.4635089 19.6777207,66.7176289 20.8644796,67.3219389 C23.8242616,68.7164088 27.2488855,70.1678588 27.2488855,70.1678588 C27.2488855,70.1678588 23.8811856,67.1416889 27.2488855,65.8419989 C30.6165855,64.5423789 34.3827254,65.6617489 35.4641834,62.3035689 C36.5456414,58.945319 37.3614774,57.038589 35.4641834,54.9420191 C33.5668824,52.8455191 32.5328564,49.7149792 29.4023165,52.5039891 C26.2717766,55.2930691 26.5563755,51.9158491 23.8147766,50.9007791 C21.0731846,49.8857792 17.7624017,51.4604991 19.0715347,53.8985291 C20.1719697,55.985579 22.0502936,58.698709 20.3996447,60.681389" id="Fill-48" fill="#24285B" mask="url(#mask-20)"></path>
                            <path d="M31.3850875,91.2090884 C29.3075505,82.1020186 17.0320357,80.2521986 12.0231718,88.1354585 C5.7526048,98.0298183 -2.25398876,114.261208 0.59195667,129.619838 C5.01265861,153.962197 24.0330646,175.468031 68.4392998,161.551352 L68.4392998,154.284708 C68.4392998,154.284708 52.7866001,157.633438 39.2209223,152.472807 C25.6552516,147.312127 19.4890357,131.147168 25.8639566,117.951468 C29.5257405,110.314818 33.3203284,99.7089783 31.3850875,91.2090884" id="Fill-49" fill="#FC790D" mask="url(#mask-20)"></path>
                        </g>
                        <g transform="translate(0.000000, 0.656250)">
                            <g transform="translate(0.000000, 82.599999)">
                                <mask id="mask-22" fill="white">
                                    <use xlink:href="#path-21"></use>
                                </mask>
                                <g id="Clip-51"></g>
                                <path d="M31.3850875,8.60908985 C29.3075505,-0.497979992 17.0320357,-2.34779996 12.0231718,5.53545991 C5.7526048,15.4298197 -2.25398876,31.6612095 0.59195667,47.0198392 C5.01265861,71.3621988 24.0330646,92.8680324 68.4392998,78.9513537 L68.4392998,71.6847098 C68.4392998,71.6847098 52.7866001,75.0334397 39.2209223,69.8728088 C25.6552516,64.7121289 19.4890357,48.5471692 25.8639566,35.3514694 C29.5257405,27.7148195 33.3203284,17.1089797 31.3850875,8.60908985" id="Fill-50" fill-opacity="0.2" fill="#FFFFFF" mask="url(#mask-22)"></path>
                            </g>
                            <mask id="mask-24" fill="white">
                                <use xlink:href="#path-23"></use>
                            </mask>
                            <g id="Clip-53"></g>
                            <path d="M68.4110338,161.551261 C68.4110338,161.551261 61.7704909,157.443612 65.8971099,151.277417 C70.0237288,145.111188 78.3813087,153.335977 68.4110338,161.551261" id="Fill-52" fill="#F4A28C" mask="url(#mask-24)"></path>
                        </g>
                        <g transform="translate(0.000000, 0.656250)">
                            <polygon id="Fill-54" fill-opacity="0.32" fill="#A5A5A5" points="68.4108448 60.396741 221.257102 60.396741 221.257102 69.5227388 68.4108448 69.5227388"></polygon>
                            <mask id="mask-26" fill="white">
                                <use xlink:href="#path-25"></use>
                            </mask>
                            <g id="Clip-57"></g>
                            <path d="M27.6756825,70.2627788 C27.6756825,70.2627788 26.3096326,68.2327088 24.4692486,69.3141388 C22.6288716,70.3956388 25.4463576,74.0194687 27.6756825,70.2627788" id="Fill-56" fill="#F4A28C" mask="url(#mask-26)"></path>
                            <path d="M36.4696564,66.9045989 C36.4696564,66.9045989 34.7431134,65.1590789 36.1376254,63.5273789 C37.5321444,61.8957489 40.5962753,65.4247289 36.4696564,66.9045989" id="Fill-58" fill="#F4A28C" mask="url(#mask-26)"></path>
                            <path d="M126.097998,16.3890297 C126.097998,16.3890297 131.154238,8.79983985 136.846148,12.5944698 C142.538058,16.3890297 137.481748,21.4169196 126.097998,16.3890297" id="Fill-59" fill="#F4A28C" mask="url(#mask-26)"></path>
                        </g>
                        <path d="M48.7168982,63.3391489 C48.7168982,63.3391489 74.5201087,103.865438 38.7466023,130.427568 L50.5193281,137.864998 L68.4108448,124.422618 L68.4108448,67.0294089 C68.4108448,67.0294089 61.8367039,61.337499 48.7168982,63.3391489" id="Fill-60" fill-opacity="0.08" fill="#000000"></path>
                    </g>
                    <g id="独家解决方案备份" transform="translate(1.000000, 236.000000)">
                        <rect id="Rectangle-3" fill="#FC790D" x="0.5098135" y="-2.13162821e-14" width="276" height="44.8081879" rx="4.8990285"></rect>
                        <text id="自动提醒跟进" font-family="FZLTCHJW--GB1-0, FZLanTingHeiS-B-GB" font-size="24.4951425" font-weight="normal" line-spacing="29.394171" fill="#FFFFFF">
                            <tspan x="119.20103" y="29.3485428">自动提醒跟进</tspan>
                        </text>
                        <g id="句客宝logo" transform="translate(13.196352, 8.981552)">
                            <path d="M11.430953,-2.3625546e-13 C14.5313149,-2.3625546e-13 17.2121507,1.10905154 19.4723253,3.32404366 C21.7315917,5.54036905 22.862133,8.16911673 22.862133,11.208509 C22.862133,17.9610352 18.0530192,22.9325459 8.43547259,26.128152 L8.43547259,26.128152 L8.43547259,22.031261 C5.85974537,21.3086331 3.80978796,19.9304849 2.28605439,17.8954831 C0.761185737,15.8600369 0,13.6321566 0,11.208509 C0,8.16911673 1.1291792,5.54036905 3.38980776,3.32404366 C5.64862019,1.10905154 8.32922895,-2.3625546e-13 11.430953,-2.3625546e-13 Z M7.13283022,10.5876535 C7.08016243,12.6793189 8.96553301,14.4212253 11.3444371,14.4792222 C11.4400109,14.4821109 11.5335417,14.4763335 11.6272994,14.4738892 C11.6272994,14.4743336 12.0325236,14.7549852 12.4770215,14.9789731 C12.9725982,15.2280709 13.5814559,15.3953952 13.9353744,15.365619 C14.4037091,15.3262878 14.4774894,15.0314148 14.3837316,14.880534 C14.2947412,14.7367639 14.139235,14.7303198 13.9889502,14.6378804 C13.8084723,14.5263308 13.7285625,14.4698894 13.6543282,14.2967876 C13.5691971,14.0974649 13.6677221,13.9494729 13.8550106,13.8505893 C13.8550106,13.8505893 13.8697667,13.8368123 13.8951925,13.8125914 C14.98646,13.1501825 15.7151824,12.0551302 15.7469647,10.7965311 C15.7998595,8.70508794 13.9144889,6.96251488 11.5353578,6.90451799 C9.15668076,6.84696553 7.18572502,8.49576585 7.13283022,10.5876535 Z" id="形状结合" fill="#FFFFFF"></path>
                            <path d="M42.5343205,24.1821127 C43.0590911,24.1821127 43.6261819,24.0662271 44.2355929,23.8344557 C44.8450039,23.6026844 45.4120946,23.2301947 45.9368652,22.7169867 C46.4616358,22.2037788 46.905998,21.5332974 47.2699518,20.7055426 C47.6339056,19.8777878 47.8243465,18.8679269 47.8412746,17.67596 L47.8412746,17.67596 L47.9682352,6.32744156 C48.0020914,5.76456829 47.8158825,5.2844705 47.4096085,4.8871482 C46.9864064,4.47327079 46.4531718,4.26633209 45.8099046,4.26633209 L45.8099046,4.26633209 L35.4245254,4.26633209 C35.543022,3.93523017 35.6530546,3.58343438 35.7546231,3.21094471 C35.8561916,2.83845505 35.9746882,2.44527152 36.1101128,2.03139411 C36.1947532,1.78306767 36.1693611,1.54715755 36.0339365,1.32366375 C35.8985118,1.10016996 35.7038388,0.947035316 35.4499176,0.864259835 C35.1790682,0.781484355 34.929379,0.806316999 34.7008499,0.938757768 C34.4723208,1.07119854 34.315736,1.26158214 34.2310956,1.50990858 C33.9433182,2.48665926 33.6682368,3.36407935 33.4058515,4.14216887 C33.1434662,4.92025839 32.8683849,5.6362663 32.5806074,6.29019259 C32.29283,6.94411889 31.9754285,7.55665745 31.6284027,8.12780827 C31.281377,8.69895908 30.8793351,9.26597113 30.4222768,9.82884439 C30.252996,10.0440606 30.1852836,10.2799708 30.2191398,10.5365748 C30.252996,10.7931787 30.3799566,11.0042562 30.6000217,11.1698072 C30.7862306,11.302248 30.9809036,11.3684683 31.1840406,11.3684683 C31.3194652,11.3684683 31.4591219,11.3394969 31.6030106,11.2815541 C31.7468993,11.2236112 31.8696279,11.1284194 31.9711964,10.9959787 C32.5975355,10.2178892 33.1265381,9.45221596 33.5582043,8.69895908 C33.9898704,7.94570221 34.3834483,7.09725353 34.7389381,6.15361305 L34.7389381,6.15361305 L45.8099046,6.15361305 C45.9114731,6.15361305 45.9791854,6.1784457 46.0130416,6.22811098 C46.0299697,6.22811098 46.0384337,6.25294363 46.0384337,6.30260892 L46.0384337,6.30260892 L45.886081,17.6511273 C45.8691529,18.5947678 45.7294962,19.3645798 45.4671109,19.9605632 C45.2047256,20.5565467 44.8957881,21.0283669 44.5402984,21.376024 C44.1848086,21.723681 43.8166228,21.9595911 43.4357409,22.0837543 C43.054859,22.2079175 42.7543856,22.2699991 42.5343205,22.2699991 L42.5343205,22.2699991 L41.8995173,22.2699991 C41.6117399,22.253444 41.3747468,22.3362195 41.1885378,22.5183256 C41.0023289,22.7004316 40.9092245,22.9239254 40.9092245,23.188807 C40.8922964,23.4702436 40.9769368,23.702015 41.1631457,23.884121 C41.3493546,24.0662271 41.5778838,24.1655577 41.8487331,24.1821127 L41.8487331,24.1821127 L42.5343205,24.1821127 Z M41.5688488,18.718931 C42.0259071,18.718931 42.415253,18.5616576 42.7368866,18.2471108 C43.0585201,17.932564 43.2193369,17.5517967 43.2193369,17.1048091 L43.2193369,17.1048091 L43.2193369,10.8718155 C43.2193369,10.4248279 43.0585201,10.0440606 42.7368866,9.72951382 C42.415253,9.41496699 42.0259071,9.25769358 41.5688488,9.25769358 L41.5688488,9.25769358 L35.6270915,9.25769358 C35.1700333,9.25769358 34.7806874,9.41496699 34.4590538,9.72951382 C34.1374202,10.0440606 33.9766034,10.4248279 33.9766034,10.8718155 L33.9766034,10.8718155 L33.9766034,17.1048091 C33.9766034,17.5517967 34.1374202,17.932564 34.4590538,18.2471108 C34.7806874,18.5616576 35.1700333,18.718931 35.6270915,18.718931 L35.6270915,18.718931 L41.5688488,18.718931 Z M41.2641433,16.8068174 L35.931797,16.8068174 L35.931797,11.1449745 L41.2641433,11.1449745 L41.2641433,16.8068174 Z M71.3532406,8.41338367 C71.6240899,8.41338367 71.8568511,8.31819187 72.051524,8.12780827 C72.246197,7.93742466 72.3435335,7.71806964 72.3435335,7.46974319 L72.3435335,7.46974319 L72.3435335,4.76298498 C72.3435335,4.31599738 72.1784847,3.93523017 71.848387,3.62068334 C71.5182894,3.30613652 71.1247115,3.1488631 70.6676532,3.1488631 L70.6676532,3.1488631 L64.929033,3.1488631 L64.0403086,1.38574536 C63.9048839,1.15397402 63.714443,0.992561831 63.4689858,0.901508802 C63.2235286,0.810455773 62.9823034,0.822872095 62.7453102,0.938757768 C62.508317,1.05464344 62.3390362,1.2367495 62.2374677,1.48507594 C62.1358992,1.73340238 62.1528273,1.97345128 62.288252,2.20522262 L62.288252,2.20522262 L62.7707023,3.12403046 L56.6258081,3.12403046 C56.1518217,3.12403046 55.7540118,3.28130387 55.4323782,3.5958507 C55.1107446,3.91039752 54.9499278,4.29116474 54.9499278,4.73815233 L54.9499278,4.73815233 L54.9499278,7.44491055 C54.9499278,7.72634718 55.0472643,7.95811853 55.2419372,8.14022459 C55.4366102,8.32233065 55.6693713,8.41338367 55.9402207,8.41338367 C56.21107,8.41338367 56.4395991,8.31819187 56.6258081,8.12780827 C56.812017,7.93742466 56.9051214,7.71806964 56.9051214,7.46974319 L56.9051214,7.46974319 L56.9051214,5.06097671 L70.3883399,5.06097671 L70.3883399,7.46974319 C70.3883399,7.71806964 70.4814443,7.93742466 70.6676532,8.12780827 C70.8538621,8.31819187 71.0823913,8.41338367 71.3532406,8.41338367 Z M71.8864752,16.906148 C72.1234684,16.906148 72.3308374,16.8357888 72.5085823,16.6950705 C72.6863272,16.5543522 72.7921277,16.3681074 72.8259839,16.136336 C72.8936962,15.8714545 72.851376,15.6314056 72.6990232,15.4161893 C72.5466705,15.2009731 72.3350694,15.0685323 72.0642201,15.018867 C70.625333,14.7374304 69.3684228,14.451855 68.2934895,14.1621408 C67.2185562,13.8724266 66.2748156,13.5454635 65.4622676,13.1812514 C66.3425279,12.601823 67.1254518,11.9727293 67.8110392,11.2939704 C68.4966265,10.6152115 69.1018055,9.86195459 69.6265761,9.03419978 C69.7281446,8.88520391 69.7831609,8.71551418 69.7916249,8.52513057 C69.800089,8.33474697 69.7704648,8.16091846 69.7027525,8.00364505 C69.6350401,7.84637163 69.5292396,7.70979209 69.3853509,7.59390642 C69.2414622,7.47802074 69.0679493,7.42007791 68.8648123,7.42007791 L68.8648123,7.42007791 L61.4757039,7.42007791 C61.5434163,7.28763714 61.6026646,7.17175146 61.6534488,7.07242089 C61.7042331,6.97309031 61.7550173,6.85720464 61.8058016,6.72476387 C61.9242982,6.49299252 61.9369942,6.2570824 61.8438898,6.01703351 C61.7507853,5.77698461 61.5772724,5.59073978 61.3233512,5.45829901 C61.086358,5.34241334 60.8451328,5.32999702 60.5996756,5.42105005 C60.3542184,5.51210308 60.1637775,5.68179281 60.0283528,5.93011925 C59.5882227,6.84064954 59.0211319,7.70151454 58.3270804,8.51271425 C57.633029,9.32391396 56.812017,10.0606157 55.8640443,10.7228196 C55.6270511,10.8718155 55.4916265,11.0746154 55.4577703,11.3312194 C55.4239141,11.5878234 55.4746984,11.8237335 55.6101231,12.0389497 C55.8301881,12.3038313 56.1010375,12.436272 56.4226711,12.436272 C56.6427361,12.436272 56.820481,12.3700517 56.9559057,12.2376109 C57.2944674,12.0058395 57.620333,11.7657906 57.9335025,11.5174642 C58.246672,11.2691378 58.5471455,11.0042562 58.8349229,10.7228196 C59.2750531,11.1698072 59.7109513,11.5961009 60.1426174,12.0017008 C60.5742835,12.4073006 61.0355738,12.7839291 61.5264882,13.1315861 C59.7659675,13.8931205 57.6838133,14.5222141 55.2800254,15.018867 C55.0091761,15.0685323 54.7975751,15.2051119 54.6452223,15.4286057 C54.4928696,15.6520995 54.4505493,15.8962871 54.5182617,16.1611687 C54.5690459,16.3763849 54.6833105,16.5543522 54.8610554,16.6950705 C55.0388002,16.8357888 55.2461693,16.906148 55.4831624,16.906148 C55.5678028,16.906148 55.6355152,16.8978704 55.6862994,16.8813153 C57.226755,16.5667685 58.64025,16.1984176 59.9267843,15.7762627 C61.2133187,15.3541077 62.3982845,14.8781487 63.4816818,14.3483856 C64.4804387,14.8781487 65.6357804,15.3458302 66.9477069,15.75143 C68.2596334,16.1570299 69.8466412,16.5336583 71.7087304,16.8813153 C71.7425865,16.8813153 71.7722107,16.8854541 71.7976028,16.8937317 C71.8229949,16.9020092 71.8526191,16.906148 71.8864752,16.906148 Z M63.4562897,12.1382803 C62.8638068,11.7575131 62.296716,11.3353581 61.7550173,10.8718155 C61.2133187,10.4082728 60.67162,9.89506478 60.1299213,9.33219151 L60.1299213,9.33219151 L66.960403,9.33219151 C66.0124303,10.4248279 64.8443925,11.3601908 63.4562897,12.1382803 Z M68.5601068,23.8592884 C68.9663808,23.8592884 69.3176386,23.7144313 69.61388,23.4247171 C69.9101215,23.1350029 70.0582422,22.7914847 70.0582422,22.3941624 L70.0582422,22.3941624 L70.0582422,18.0732823 C70.0582422,17.6594049 69.9143535,17.3076091 69.6265761,17.0178949 C69.3387987,16.7281807 68.9833089,16.5833236 68.5601068,16.5833236 L68.5601068,16.5833236 L58.6571781,16.5833236 C58.2509041,16.5833236 57.8996463,16.7281807 57.6034049,17.0178949 C57.3071634,17.3076091 57.1590427,17.6676824 57.1590427,18.0981149 L57.1590427,18.0981149 L57.1590427,22.3941624 C57.1590427,22.7914847 57.3029314,23.1350029 57.5907088,23.4247171 C57.8784862,23.7144313 58.233976,23.8592884 58.6571781,23.8592884 L58.6571781,23.8592884 L68.5601068,23.8592884 Z M68.1284407,21.9720074 L59.1142363,21.9720074 L59.1142363,18.4706046 L68.1284407,18.4706046 L68.1284407,21.9720074 Z M79.4781497,8.81070598 C79.748999,8.81070598 79.9775282,8.71551418 80.1637371,8.52513057 C80.349946,8.33474697 80.4430505,8.1071144 80.4430505,7.84223286 L80.4430505,7.84223286 L80.4430505,5.80595603 L93.9262689,5.80595603 L93.9262689,7.84223286 C93.9262689,8.0905593 94.0193733,8.30991432 94.2055823,8.50029793 C94.3917912,8.69068153 94.6203203,8.78587334 94.8911696,8.78587334 C95.162019,8.78587334 95.3947801,8.69068153 95.5894531,8.50029793 C95.784126,8.30991432 95.8814625,8.08228175 95.8814625,7.81740021 L95.8814625,7.81740021 L95.8814625,5.35896844 C95.8814625,4.94509103 95.7206457,4.59743401 95.3990121,4.31599738 C95.0773786,4.03456075 94.6795686,3.89384243 94.2055823,3.89384243 L94.2055823,3.89384243 L88.9494124,3.89384243 C88.9324843,3.77795676 88.8901641,3.66207108 88.8224517,3.54618541 L88.8224517,3.54618541 L87.3497085,1.33608008 C87.2142838,1.10430873 87.0153788,0.963590412 86.7529935,0.913925124 C86.4906083,0.864259835 86.240919,0.905647576 86.0039259,1.03808834 C85.7669327,1.18708421 85.623044,1.38988414 85.5722597,1.64648813 C85.5214755,1.90309212 85.5722597,2.13900224 85.7246125,2.35421849 L85.7246125,2.35421849 L86.7149054,3.91867507 L80.1637371,3.91867507 C79.6897508,3.91867507 79.2919408,4.06353216 78.9703072,4.35324635 C78.6486736,4.64296053 78.4878568,4.98647877 78.4878568,5.38380108 L78.4878568,5.38380108 L78.4878568,7.84223286 C78.4878568,8.1071144 78.5851933,8.33474697 78.7798663,8.52513057 C78.9745392,8.71551418 79.2073004,8.81070598 79.4781497,8.81070598 Z M95.0689145,23.8344557 C95.3566919,23.8344557 95.5936851,23.7392639 95.779894,23.5488803 C95.9661029,23.3584967 96.0592074,23.1391417 96.0592074,22.8908152 C96.0592074,22.6259337 95.9618709,22.3983011 95.767198,22.2079175 C95.572525,22.0175339 95.3397638,21.9223421 95.0689145,21.9223421 L95.0689145,21.9223421 L88.060688,21.9223421 L88.060688,16.558491 L93.5707791,16.558491 C93.8585566,16.558491 94.0955497,16.4674379 94.2817586,16.2853319 C94.4679676,16.1032258 94.561072,15.879732 94.561072,15.6148505 C94.561072,15.349969 94.4637355,15.1223364 94.2690626,14.9319528 C94.0743896,14.7415692 93.8416285,14.6463774 93.5707791,14.6463774 L93.5707791,14.6463774 L88.060688,14.6463774 L88.060688,10.9463134 L94.3833271,10.9463134 C94.6711046,10.9463134 94.9080977,10.8552604 95.0943066,10.6731543 C95.2805156,10.4910482 95.37362,10.2675544 95.37362,10.0026729 C95.37362,9.73779137 95.2762835,9.51015879 95.0816106,9.31977519 C94.8869376,9.12939158 94.6541765,9.03419978 94.3833271,9.03419978 L94.3833271,9.03419978 L81.0524615,9.03419978 C80.7646841,9.03419978 80.5319229,9.12939158 80.354178,9.31977519 C80.1764332,9.51015879 80.0875607,9.73779137 80.0875607,10.0026729 C80.0875607,10.2675544 80.1806652,10.4910482 80.3668741,10.6731543 C80.553083,10.8552604 80.7816121,10.9463134 81.0524615,10.9463134 L81.0524615,10.9463134 L86.0801022,10.9463134 L86.0801022,14.6463774 L81.0524615,14.6463774 C80.7646841,14.6463774 80.5319229,14.7415692 80.354178,14.9319528 C80.1764332,15.1223364 80.0875607,15.349969 80.0875607,15.6148505 C80.0875607,15.879732 80.1806652,16.1032258 80.3668741,16.2853319 C80.553083,16.4674379 80.7816121,16.558491 81.0524615,16.558491 L81.0524615,16.558491 L86.0801022,16.558491 L86.0801022,21.9223421 L79.1988363,21.9223421 C78.927987,21.9223421 78.6994579,22.0175339 78.513249,22.2079175 C78.32704,22.3983011 78.2339356,22.6259337 78.2339356,22.8908152 C78.2339356,23.1391417 78.3312721,23.3584967 78.525945,23.5488803 C78.720618,23.7392639 78.9449151,23.8344557 79.1988363,23.8344557 L79.1988363,23.8344557 L95.0689145,23.8344557 Z" id="句客宝" stroke="#FFFFFF" stroke-width="0.707199981" fill="#FFFFFF" fill-rule="nonzero"></path>
                            <circle id="椭圆形" stroke="#FFFFFF" stroke-width="1.32626505" fill="#FC790D" fill-rule="nonzero" cx="91.9920012" cy="19.2355456" r="1.91571618"></circle>
                        </g>
                    </g>
                </g>
            </g>
        </g>
    </g>
</svg>