<?xml version="1.0" encoding="UTF-8"?>
<svg width="290px" height="275px" viewBox="0 0 290 275" version="1.1" xmlns="http://www.w3.org/2000/svg" xmlns:xlink="http://www.w3.org/1999/xlink">
    <title>1-2</title>
    <g id="最新版备份" stroke="none" stroke-width="1" fill="none" fill-rule="evenodd">
        <g id="企微SCRM-新版" transform="translate(-159.000000, -2767.000000)">
            <g id="亮点1" transform="translate(0.000000, 2416.000000)">
                <g id="编组-25" transform="translate(130.000000, 241.000000)">
                    <g id="1-2" transform="translate(29.000000, 110.000000)">
                        <g id="mind_map_two_color">
                            <rect id="矩形" fill="#E6E6E6" fill-rule="nonzero" x="61.09" y="0.67" width="219.16" height="172.74"></rect>
                            <path d="M83.86,111.42 C83.86,111.42 99.19,123.24 94.19,130.99 C89.19,138.74 86.19,131.08 86.19,144.08 C86.19,157.08 85.19,173.4 85.19,173.4 L66.51,173.4 L70.81,111.77 L83.86,111.42 Z" id="路径" fill="#000000" fill-rule="nonzero" opacity="0.08"></path>
                            <ellipse id="椭圆形" fill="#E6E6E6" fill-rule="nonzero" opacity="0.45" cx="74.83" cy="215.35" rx="74" ry="13.19"></ellipse>
                            <polygon id="路径" fill="#F4A28C" fill-rule="nonzero" points="49.97 94.43 52.45 101.88 46.56 105.62 44.44 92.71"></polygon>
                            <path d="M42.41,85.52 C43.0361319,84.0807581 44.3474156,83.0556076 45.8952176,82.7952863 C47.4430197,82.5349649 49.0175087,83.0747639 50.08,84.23 C52.59,86.91 55.61,91.17 52.19,93.48 C46.96,97.03 42.19,90.4 42.19,90.4 C41.7794903,88.7873333 41.8560461,87.0891868 42.41,85.52 L42.41,85.52 Z" id="路径" fill="#F4A28C" fill-rule="nonzero"></path>
                            <path d="M46.24,90.08 C46.24,90.08 44.9,88.96 44.29,90.56 C43.68,92.16 46.05,92.92 46.76,92.11 C47.47,91.3 46.24,90.08 46.24,90.08 Z" id="路径" fill="#F4A28C" fill-rule="nonzero"></path>
                            <path d="M41.55,105.69 C41.55,105.69 20.46,118.46 17.69,148.43 C17.1834599,153.575684 20.5376787,158.310801 25.56,159.54 L50.28,165.54 L41.55,105.69 Z" id="路径" fill="#FC790D" fill-rule="nonzero"></path>
                            <path d="M41.55,105.69 C41.55,105.69 20.46,118.46 17.69,148.43 C17.1834599,153.575684 20.5376787,158.310801 25.56,159.54 L50.28,165.54 L41.55,105.69 Z" id="路径" fill="#FFFFFF" fill-rule="nonzero" opacity="0.2"></path>
                            <path d="M91.09,117.3 C87.81,109.13 79.09,99.77 58.67,92.24 L57.26,96.76 L80,123.9 C84.79,129.58 93.86,124.17 91.09,117.3 Z" id="路径" fill="#FC790D" fill-rule="nonzero"></path>
                            <rect id="矩形" fill="#FFD200" fill-rule="nonzero" transform="translate(39.065844, 160.107429) rotate(-24.680000) translate(-39.065844, -160.107429) " x="21.2358444" y="148.447429" width="35.66" height="23.32"></rect>
                            <path d="M47,88.15 C47,88.15 49.79,96.15 44.93,95.62 C40.07,95.09 42.74,91.7 40.33,88.15 C37.92,84.6 39.19,82.21 42.87,79.1 C44.55,77.68 45.68,77.01 46.36,76.26 C46.9370533,75.5721382 47.8281708,75.2306823 48.7171239,75.3568038 C49.6060771,75.4829253 50.3670507,76.058774 50.73,76.88 C52,79.93 52,84 47,88.15 Z" id="路径" fill="#24285B" fill-rule="nonzero"></path>
                            <path d="M36.67,112 C38.7014458,107.506734 42.5838276,104.116948 47.31,102.71 C56.31,100 73.45,94.32 78.51,102.71 C85.44,114.26 74.78,159.59 74.78,159.59 L44.48,161.94 C44.48,161.94 27.81,131.88 36.67,112 Z" id="路径" fill="#FC790D" fill-rule="nonzero"></path>
                            <polygon id="路径" fill="#24285B" fill-rule="nonzero" points="74.78 159.59 70.79 211.68 64.49 211.68 58.86 171.21 44.93 161.94"></polygon>
                            <polygon id="路径" fill="#24285B" fill-rule="nonzero" points="44.93 161.94 36.24 211.68 42.99 211.68 57.58 170.36"></polygon>
                            <path d="M49.93,101.88 C49.93,101.88 35.76,147.53 76.69,150.56 L74.78,159.56 L44.48,161.91 C37.514959,149.634607 33.9814233,135.711164 34.25,121.6 C34.25,121.6 34.51,109.96 42.71,104.81 C44.8810744,103.331296 47.3424454,102.332429 49.93,101.88 L49.93,101.88 Z" id="路径" fill="#000000" fill-rule="nonzero" opacity="0.08"></path>
                            <path d="M37.47,211.68 L33.27,214.77 C32.9499842,215.006385 32.8181745,215.421693 32.9433043,215.799357 C33.0684341,216.177021 33.4221486,216.431463 33.82,216.430006 L40.82,216.430006 C41.3297448,216.430006 41.7445189,216.019715 41.75,215.51 L41.75,211.68 L37.47,211.68 Z" id="路径" fill="#FC790D" fill-rule="nonzero"></path>
                            <path d="M70.61,211.68 L74.61,214.77 C74.9214564,215.015828 75.0426448,215.432186 74.9117686,215.806763 C74.7808923,216.181339 74.4267793,216.431628 74.03,216.430008 L69.03,216.430008 C67.5553997,216.430008 66.36,215.2346 66.36,213.76 L66.36,211.68 L70.61,211.68 Z" id="路径" fill="#FC790D" fill-rule="nonzero"></path>
                            <line x1="170.17" y1="87.56" x2="127.5" y2="142" id="路径" stroke="#A5A5A5"></line>
                            <path d="M61.46,110.61 C64.51,117.38 69.81,125.85 78.23,129.76 C81.8312692,131.543616 86.1663895,130.857236 89.0405292,128.048366 C91.914669,125.239497 92.7004345,120.921284 91,117.28 C90.3589658,115.865938 89.567752,114.524898 88.64,113.28 C84.16,107.18 77.79,102.11 71.71,99.76 C68.6554904,98.5764532 65.1884948,99.3593231 62.9389369,101.740562 C60.6893789,104.121802 60.1047899,107.627683 61.46,110.61 Z" id="路径" fill="#FC790D" fill-rule="nonzero"></path>
                            <path d="M61.46,110.61 C64.51,117.38 69.81,125.85 78.23,129.76 C81.8312692,131.543616 86.1663895,130.857236 89.0405292,128.048366 C91.914669,125.239497 92.7004345,120.921284 91,117.28 C90.3589658,115.865938 89.567752,114.524898 88.64,113.28 C84.16,107.18 77.79,102.11 71.71,99.76 C68.6554904,98.5764532 65.1884948,99.3593231 62.9389369,101.740562 C60.6893789,104.121802 60.1047899,107.627683 61.46,110.61 Z" id="路径" fill="#FFFFFF" fill-rule="nonzero" opacity="0.2"></path>
                            <polyline id="路径" fill="#000000" fill-rule="nonzero" opacity="0.08" points="280.78 104.27 252.89 104.27 252.89 66.71 280.25 66.71"></polyline>
                            <path d="M58.38,93.16 C58.38,93.16 53.58,90.01 52.19,93.48 C50.8,96.95 57.26,96.76 57.26,96.76 L58.38,93.16 Z" id="路径" fill="#F4A28C" fill-rule="nonzero"></path>
                            <polyline id="路径" stroke="#A5A5A5" points="101.83 51.33 170.17 91.08 215.83 35.03"></polyline>
                            <polyline id="路径" fill="#FFD200" fill-rule="nonzero" points="275.28 95.62 247.39 95.62 247.39 58.06 289.51 58.06 289.51 83.17"></polyline>
                            <line x1="176.17" y1="93.22" x2="236.33" y2="130.11" id="路径" stroke="#A5A5A5"></line>
                            <rect id="矩形" fill="#000000" fill-rule="nonzero" opacity="0.08" x="154" y="71.49" width="53" height="48.25"></rect>
                            <line x1="99.49" y1="58.5" x2="99.49" y2="87.56" id="路径" stroke="#A5A5A5"></line>
                            <line x1="168.53" y1="142" x2="139.47" y2="142" id="路径" stroke="#A5A5A5"></line>
                            <rect id="矩形" fill="#FFFFFF" fill-rule="nonzero" opacity="0.34" x="262.95" y="48.17" width="11" height="20"></rect>
                            <rect id="矩形" fill="#FFFFFF" fill-rule="nonzero" x="146" y="63" width="53" height="48.25"></rect>
                            <g id="编组-23" transform="translate(155.000000, 70.000000)">
                                <g id="编组-22">
                                    <rect id="矩形" stroke="#FC790D" stroke-width="2.59199995" x="1.29599997" y="1.29599997" width="12.9599997" height="12.9599997"></rect>
                                    <rect id="矩形备份-4" fill="#FC790D" x="5.83199988" y="5.83199988" width="3.88799992" height="3.88799992"></rect>
                                </g>
                                <g id="编组-22备份" transform="translate(18.792000, 0.000000)">
                                    <rect id="矩形" stroke="#FC790D" stroke-width="2.59199995" x="1.29599997" y="1.29599997" width="12.9599997" height="12.9599997"></rect>
                                    <rect id="矩形备份-4" fill="#FC790D" x="5.83199988" y="5.83199988" width="3.88799992" height="3.88799992"></rect>
                                </g>
                                <g id="编组-22备份-2" transform="translate(0.000000, 18.792000)">
                                    <rect id="矩形" stroke="#FC790D" stroke-width="2.59199995" x="1.29599997" y="1.29599997" width="12.9599997" height="12.9599997"></rect>
                                    <rect id="矩形备份-4" fill="#FC790D" x="5.83199988" y="5.83199988" width="3.88799992" height="3.88799992"></rect>
                                </g>
                                <path d="M34.3439993,28.5119994 L23.9759995,28.5119994 L23.9749996,25.2709996 L21.3829996,25.2709996 L21.3839996,34.3439993 L18.7919996,34.3439993 L18.7919996,18.7919996 L29.1599994,18.7919996 L29.1589996,21.3829996 L31.7509996,21.3829996 L31.7519994,18.7919996 L34.3439993,18.7919996 L34.3439993,28.5119994 Z M27.2159995,31.7519994 L27.2159995,34.3439993 L24.6239995,34.3439993 L24.6239995,31.7519994 L27.2159995,31.7519994 Z M34.3439993,31.7519994 L34.3439993,34.3439993 L31.7519994,34.3439993 L31.7519994,31.7519994 L34.3439993,31.7519994 Z" id="形状结合" fill="#FC790D"></path>
                            </g>
                            <rect id="矩形" fill="#C9C9C9" fill-rule="nonzero" x="80.85" y="31.71" width="37.27" height="33.29"></rect>
                            <polygon id="路径" fill="#FFFFFF" fill-rule="nonzero" opacity="0.34" points="275.28 95.62 275.28 83.17 289.51 83.17"></polygon>
                            <rect id="矩形" fill="#C9C9C9" fill-rule="nonzero" x="222" y="109.26" width="38.67" height="34.07"></rect>
                            <rect id="矩形" fill="#FFFFFF" fill-rule="nonzero" x="206.25" y="23.38" width="47.17" height="23.28"></rect>
                            <rect id="矩形" fill="#FFFFFF" fill-rule="nonzero" x="112.67" y="127.67" width="34" height="28.67"></rect>
                            <rect id="矩形" fill="#C9C9C9" fill-rule="nonzero" x="158.33" y="134.55" width="30.92" height="14.9"></rect>
                            <rect id="矩形" fill="#C9C9C9" fill-rule="nonzero" x="164.08" y="27.58" width="30.92" height="14.9"></rect>
                            <rect id="矩形" fill="#C9C9C9" fill-rule="nonzero" x="81.41" y="75.37" width="36.15" height="20.32"></rect>
                            <circle id="椭圆形" fill="#C9C9C9" fill-rule="nonzero" cx="218.75" cy="35.03" r="5.67"></circle>
                            <rect id="矩形" fill="#C9C9C9" fill-rule="nonzero" x="228.92" y="29.57" width="16.67" height="3.67"></rect>
                            <rect id="矩形" fill="#C9C9C9" fill-rule="nonzero" opacity="0.22" x="228.92" y="35.76" width="16.67" height="3.67"></rect>
                            <rect id="矩形" fill="#24285B" fill-rule="nonzero" opacity="0.22" x="121.33" y="135.59" width="16.67" height="3.67"></rect>
                            <rect id="矩形" fill="#24285B" fill-rule="nonzero" opacity="0.22" x="121.33" y="144.34" width="16.67" height="3.67"></rect>
                            <polygon id="路径" fill="#FFFFFF" fill-rule="nonzero" opacity="0.63" points="84.98 57.22 91.64 46.93 99.49 56.11 106.99 42.93 114 57.42 114 61.07 84.98 61.07"></polygon>
                            <circle id="椭圆形" fill="#FFFFFF" fill-rule="nonzero" cx="99.22" cy="41.68" r="3.41"></circle>
                            <polygon id="路径" fill="#FFFFFF" fill-rule="nonzero" opacity="0.63" points="226.82 133.83 233.49 123.53 241.33 132.71 248.83 119.54 255.85 134.03 255.85 137.68 226.82 137.68"></polygon>
                            <circle id="椭圆形" fill="#FFFFFF" fill-rule="nonzero" cx="241.06" cy="118.29" r="3.41"></circle>
                            <path d="M105.09,202.78 C105.09,202.78 97.49,200.78 95.81,193.68 C95.81,193.68 107.56,191.25 107.95,203.39 L105.09,202.78 Z" id="路径" fill="#FC790D" fill-rule="nonzero" opacity="0.58"></path>
                            <path d="M106,202 C106,202 100.66,193.64 105.29,185.78 C105.29,185.78 114.29,191.42 110.29,202 L106,202 Z" id="路径" fill="#FC790D" fill-rule="nonzero" opacity="0.73"></path>
                            <path d="M107.38,202 C107.38,202 110.15,193.13 118.61,191.42 C118.61,191.42 120.23,197.16 113.17,202 L107.38,202 Z" id="路径" fill="#FC790D" fill-rule="nonzero"></path>
                            <polygon id="路径" fill="#24285B" fill-rule="nonzero" points="101.88 201.84 103.46 212.37 113.15 212.37 114.54 201.84"></polygon>
                            <circle id="椭圆形" fill="#24285B" fill-rule="nonzero" cx="78.19" cy="12.83" r="3.42"></circle>
                            <circle id="椭圆形" fill="#FC790D" fill-rule="nonzero" cx="88.36" cy="12.83" r="3.42"></circle>
                            <circle id="椭圆形" fill="#FFD200" fill-rule="nonzero" cx="97.94" cy="12.83" r="3.42"></circle>
                        </g>
                        <g id="独家解决方案备份" transform="translate(39.000000, 230.000000)">
                            <rect id="Rectangle-3" fill="#FC790D" x="0" y="0" width="229.019627" height="44.8081879" rx="4.8990285"></rect>
                            <text id="渠道活码" font-family="FZLTCHJW--GB1-0, FZLanTingHeiS-B-GB" font-size="24.4951425" font-weight="normal" line-spacing="29.394171" fill="#FFFFFF">
                                <tspan x="117.696172" y="29.3485428">渠道活码</tspan>
                            </text>
                            <g id="句客宝logo" transform="translate(10.196352, 8.981552)">
                                <path d="M11.430953,-2.3625546e-13 C14.5313149,-2.3625546e-13 17.2121507,1.10905154 19.4723253,3.32404366 C21.7315917,5.54036905 22.862133,8.16911673 22.862133,11.208509 C22.862133,17.9610352 18.0530192,22.9325459 8.43547259,26.128152 L8.43547259,26.128152 L8.43547259,22.031261 C5.85974537,21.3086331 3.80978796,19.9304849 2.28605439,17.8954831 C0.761185737,15.8600369 0,13.6321566 0,11.208509 C0,8.16911673 1.1291792,5.54036905 3.38980776,3.32404366 C5.64862019,1.10905154 8.32922895,-2.3625546e-13 11.430953,-2.3625546e-13 Z M7.13283022,10.5876535 C7.08016243,12.6793189 8.96553301,14.4212253 11.3444371,14.4792222 C11.4400109,14.4821109 11.5335417,14.4763335 11.6272994,14.4738892 C11.6272994,14.4743336 12.0325236,14.7549852 12.4770215,14.9789731 C12.9725982,15.2280709 13.5814559,15.3953952 13.9353744,15.365619 C14.4037091,15.3262878 14.4774894,15.0314148 14.3837316,14.880534 C14.2947412,14.7367639 14.139235,14.7303198 13.9889502,14.6378804 C13.8084723,14.5263308 13.7285625,14.4698894 13.6543282,14.2967876 C13.5691971,14.0974649 13.6677221,13.9494729 13.8550106,13.8505893 C13.8550106,13.8505893 13.8697667,13.8368123 13.8951925,13.8125914 C14.98646,13.1501825 15.7151824,12.0551302 15.7469647,10.7965311 C15.7998595,8.70508794 13.9144889,6.96251488 11.5353578,6.90451799 C9.15668076,6.84696553 7.18572502,8.49576585 7.13283022,10.5876535 Z" id="形状结合" fill="#FFFFFF"></path>
                                <path d="M42.5343205,24.1821127 C43.0590911,24.1821127 43.6261819,24.0662271 44.2355929,23.8344557 C44.8450039,23.6026844 45.4120946,23.2301947 45.9368652,22.7169867 C46.4616358,22.2037788 46.905998,21.5332974 47.2699518,20.7055426 C47.6339056,19.8777878 47.8243465,18.8679269 47.8412746,17.67596 L47.8412746,17.67596 L47.9682352,6.32744156 C48.0020914,5.76456829 47.8158825,5.2844705 47.4096085,4.8871482 C46.9864064,4.47327079 46.4531718,4.26633209 45.8099046,4.26633209 L45.8099046,4.26633209 L35.4245254,4.26633209 C35.543022,3.93523017 35.6530546,3.58343438 35.7546231,3.21094471 C35.8561916,2.83845505 35.9746882,2.44527152 36.1101128,2.03139411 C36.1947532,1.78306767 36.1693611,1.54715755 36.0339365,1.32366375 C35.8985118,1.10016996 35.7038388,0.947035316 35.4499176,0.864259835 C35.1790682,0.781484355 34.929379,0.806316999 34.7008499,0.938757768 C34.4723208,1.07119854 34.315736,1.26158214 34.2310956,1.50990858 C33.9433182,2.48665926 33.6682368,3.36407935 33.4058515,4.14216887 C33.1434662,4.92025839 32.8683849,5.6362663 32.5806074,6.29019259 C32.29283,6.94411889 31.9754285,7.55665745 31.6284027,8.12780827 C31.281377,8.69895908 30.8793351,9.26597113 30.4222768,9.82884439 C30.252996,10.0440606 30.1852836,10.2799708 30.2191398,10.5365748 C30.252996,10.7931787 30.3799566,11.0042562 30.6000217,11.1698072 C30.7862306,11.302248 30.9809036,11.3684683 31.1840406,11.3684683 C31.3194652,11.3684683 31.4591219,11.3394969 31.6030106,11.2815541 C31.7468993,11.2236112 31.8696279,11.1284194 31.9711964,10.9959787 C32.5975355,10.2178892 33.1265381,9.45221596 33.5582043,8.69895908 C33.9898704,7.94570221 34.3834483,7.09725353 34.7389381,6.15361305 L34.7389381,6.15361305 L45.8099046,6.15361305 C45.9114731,6.15361305 45.9791854,6.1784457 46.0130416,6.22811098 C46.0299697,6.22811098 46.0384337,6.25294363 46.0384337,6.30260892 L46.0384337,6.30260892 L45.886081,17.6511273 C45.8691529,18.5947678 45.7294962,19.3645798 45.4671109,19.9605632 C45.2047256,20.5565467 44.8957881,21.0283669 44.5402984,21.376024 C44.1848086,21.723681 43.8166228,21.9595911 43.4357409,22.0837543 C43.054859,22.2079175 42.7543856,22.2699991 42.5343205,22.2699991 L42.5343205,22.2699991 L41.8995173,22.2699991 C41.6117399,22.253444 41.3747468,22.3362195 41.1885378,22.5183256 C41.0023289,22.7004316 40.9092245,22.9239254 40.9092245,23.188807 C40.8922964,23.4702436 40.9769368,23.702015 41.1631457,23.884121 C41.3493546,24.0662271 41.5778838,24.1655577 41.8487331,24.1821127 L41.8487331,24.1821127 L42.5343205,24.1821127 Z M41.5688488,18.718931 C42.0259071,18.718931 42.415253,18.5616576 42.7368866,18.2471108 C43.0585201,17.932564 43.2193369,17.5517967 43.2193369,17.1048091 L43.2193369,17.1048091 L43.2193369,10.8718155 C43.2193369,10.4248279 43.0585201,10.0440606 42.7368866,9.72951382 C42.415253,9.41496699 42.0259071,9.25769358 41.5688488,9.25769358 L41.5688488,9.25769358 L35.6270915,9.25769358 C35.1700333,9.25769358 34.7806874,9.41496699 34.4590538,9.72951382 C34.1374202,10.0440606 33.9766034,10.4248279 33.9766034,10.8718155 L33.9766034,10.8718155 L33.9766034,17.1048091 C33.9766034,17.5517967 34.1374202,17.932564 34.4590538,18.2471108 C34.7806874,18.5616576 35.1700333,18.718931 35.6270915,18.718931 L35.6270915,18.718931 L41.5688488,18.718931 Z M41.2641433,16.8068174 L35.931797,16.8068174 L35.931797,11.1449745 L41.2641433,11.1449745 L41.2641433,16.8068174 Z M71.3532406,8.41338367 C71.6240899,8.41338367 71.8568511,8.31819187 72.051524,8.12780827 C72.246197,7.93742466 72.3435335,7.71806964 72.3435335,7.46974319 L72.3435335,7.46974319 L72.3435335,4.76298498 C72.3435335,4.31599738 72.1784847,3.93523017 71.848387,3.62068334 C71.5182894,3.30613652 71.1247115,3.1488631 70.6676532,3.1488631 L70.6676532,3.1488631 L64.929033,3.1488631 L64.0403086,1.38574536 C63.9048839,1.15397402 63.714443,0.992561831 63.4689858,0.901508802 C63.2235286,0.810455773 62.9823034,0.822872095 62.7453102,0.938757768 C62.508317,1.05464344 62.3390362,1.2367495 62.2374677,1.48507594 C62.1358992,1.73340238 62.1528273,1.97345128 62.288252,2.20522262 L62.288252,2.20522262 L62.7707023,3.12403046 L56.6258081,3.12403046 C56.1518217,3.12403046 55.7540118,3.28130387 55.4323782,3.5958507 C55.1107446,3.91039752 54.9499278,4.29116474 54.9499278,4.73815233 L54.9499278,4.73815233 L54.9499278,7.44491055 C54.9499278,7.72634718 55.0472643,7.95811853 55.2419372,8.14022459 C55.4366102,8.32233065 55.6693713,8.41338367 55.9402207,8.41338367 C56.21107,8.41338367 56.4395991,8.31819187 56.6258081,8.12780827 C56.812017,7.93742466 56.9051214,7.71806964 56.9051214,7.46974319 L56.9051214,7.46974319 L56.9051214,5.06097671 L70.3883399,5.06097671 L70.3883399,7.46974319 C70.3883399,7.71806964 70.4814443,7.93742466 70.6676532,8.12780827 C70.8538621,8.31819187 71.0823913,8.41338367 71.3532406,8.41338367 Z M71.8864752,16.906148 C72.1234684,16.906148 72.3308374,16.8357888 72.5085823,16.6950705 C72.6863272,16.5543522 72.7921277,16.3681074 72.8259839,16.136336 C72.8936962,15.8714545 72.851376,15.6314056 72.6990232,15.4161893 C72.5466705,15.2009731 72.3350694,15.0685323 72.0642201,15.018867 C70.625333,14.7374304 69.3684228,14.451855 68.2934895,14.1621408 C67.2185562,13.8724266 66.2748156,13.5454635 65.4622676,13.1812514 C66.3425279,12.601823 67.1254518,11.9727293 67.8110392,11.2939704 C68.4966265,10.6152115 69.1018055,9.86195459 69.6265761,9.03419978 C69.7281446,8.88520391 69.7831609,8.71551418 69.7916249,8.52513057 C69.800089,8.33474697 69.7704648,8.16091846 69.7027525,8.00364505 C69.6350401,7.84637163 69.5292396,7.70979209 69.3853509,7.59390642 C69.2414622,7.47802074 69.0679493,7.42007791 68.8648123,7.42007791 L68.8648123,7.42007791 L61.4757039,7.42007791 C61.5434163,7.28763714 61.6026646,7.17175146 61.6534488,7.07242089 C61.7042331,6.97309031 61.7550173,6.85720464 61.8058016,6.72476387 C61.9242982,6.49299252 61.9369942,6.2570824 61.8438898,6.01703351 C61.7507853,5.77698461 61.5772724,5.59073978 61.3233512,5.45829901 C61.086358,5.34241334 60.8451328,5.32999702 60.5996756,5.42105005 C60.3542184,5.51210308 60.1637775,5.68179281 60.0283528,5.93011925 C59.5882227,6.84064954 59.0211319,7.70151454 58.3270804,8.51271425 C57.633029,9.32391396 56.812017,10.0606157 55.8640443,10.7228196 C55.6270511,10.8718155 55.4916265,11.0746154 55.4577703,11.3312194 C55.4239141,11.5878234 55.4746984,11.8237335 55.6101231,12.0389497 C55.8301881,12.3038313 56.1010375,12.436272 56.4226711,12.436272 C56.6427361,12.436272 56.820481,12.3700517 56.9559057,12.2376109 C57.2944674,12.0058395 57.620333,11.7657906 57.9335025,11.5174642 C58.246672,11.2691378 58.5471455,11.0042562 58.8349229,10.7228196 C59.2750531,11.1698072 59.7109513,11.5961009 60.1426174,12.0017008 C60.5742835,12.4073006 61.0355738,12.7839291 61.5264882,13.1315861 C59.7659675,13.8931205 57.6838133,14.5222141 55.2800254,15.018867 C55.0091761,15.0685323 54.7975751,15.2051119 54.6452223,15.4286057 C54.4928696,15.6520995 54.4505493,15.8962871 54.5182617,16.1611687 C54.5690459,16.3763849 54.6833105,16.5543522 54.8610554,16.6950705 C55.0388002,16.8357888 55.2461693,16.906148 55.4831624,16.906148 C55.5678028,16.906148 55.6355152,16.8978704 55.6862994,16.8813153 C57.226755,16.5667685 58.64025,16.1984176 59.9267843,15.7762627 C61.2133187,15.3541077 62.3982845,14.8781487 63.4816818,14.3483856 C64.4804387,14.8781487 65.6357804,15.3458302 66.9477069,15.75143 C68.2596334,16.1570299 69.8466412,16.5336583 71.7087304,16.8813153 C71.7425865,16.8813153 71.7722107,16.8854541 71.7976028,16.8937317 C71.8229949,16.9020092 71.8526191,16.906148 71.8864752,16.906148 Z M63.4562897,12.1382803 C62.8638068,11.7575131 62.296716,11.3353581 61.7550173,10.8718155 C61.2133187,10.4082728 60.67162,9.89506478 60.1299213,9.33219151 L60.1299213,9.33219151 L66.960403,9.33219151 C66.0124303,10.4248279 64.8443925,11.3601908 63.4562897,12.1382803 Z M68.5601068,23.8592884 C68.9663808,23.8592884 69.3176386,23.7144313 69.61388,23.4247171 C69.9101215,23.1350029 70.0582422,22.7914847 70.0582422,22.3941624 L70.0582422,22.3941624 L70.0582422,18.0732823 C70.0582422,17.6594049 69.9143535,17.3076091 69.6265761,17.0178949 C69.3387987,16.7281807 68.9833089,16.5833236 68.5601068,16.5833236 L68.5601068,16.5833236 L58.6571781,16.5833236 C58.2509041,16.5833236 57.8996463,16.7281807 57.6034049,17.0178949 C57.3071634,17.3076091 57.1590427,17.6676824 57.1590427,18.0981149 L57.1590427,18.0981149 L57.1590427,22.3941624 C57.1590427,22.7914847 57.3029314,23.1350029 57.5907088,23.4247171 C57.8784862,23.7144313 58.233976,23.8592884 58.6571781,23.8592884 L58.6571781,23.8592884 L68.5601068,23.8592884 Z M68.1284407,21.9720074 L59.1142363,21.9720074 L59.1142363,18.4706046 L68.1284407,18.4706046 L68.1284407,21.9720074 Z M79.4781497,8.81070598 C79.748999,8.81070598 79.9775282,8.71551418 80.1637371,8.52513057 C80.349946,8.33474697 80.4430505,8.1071144 80.4430505,7.84223286 L80.4430505,7.84223286 L80.4430505,5.80595603 L93.9262689,5.80595603 L93.9262689,7.84223286 C93.9262689,8.0905593 94.0193733,8.30991432 94.2055823,8.50029793 C94.3917912,8.69068153 94.6203203,8.78587334 94.8911696,8.78587334 C95.162019,8.78587334 95.3947801,8.69068153 95.5894531,8.50029793 C95.784126,8.30991432 95.8814625,8.08228175 95.8814625,7.81740021 L95.8814625,7.81740021 L95.8814625,5.35896844 C95.8814625,4.94509103 95.7206457,4.59743401 95.3990121,4.31599738 C95.0773786,4.03456075 94.6795686,3.89384243 94.2055823,3.89384243 L94.2055823,3.89384243 L88.9494124,3.89384243 C88.9324843,3.77795676 88.8901641,3.66207108 88.8224517,3.54618541 L88.8224517,3.54618541 L87.3497085,1.33608008 C87.2142838,1.10430873 87.0153788,0.963590412 86.7529935,0.913925124 C86.4906083,0.864259835 86.240919,0.905647576 86.0039259,1.03808834 C85.7669327,1.18708421 85.623044,1.38988414 85.5722597,1.64648813 C85.5214755,1.90309212 85.5722597,2.13900224 85.7246125,2.35421849 L85.7246125,2.35421849 L86.7149054,3.91867507 L80.1637371,3.91867507 C79.6897508,3.91867507 79.2919408,4.06353216 78.9703072,4.35324635 C78.6486736,4.64296053 78.4878568,4.98647877 78.4878568,5.38380108 L78.4878568,5.38380108 L78.4878568,7.84223286 C78.4878568,8.1071144 78.5851933,8.33474697 78.7798663,8.52513057 C78.9745392,8.71551418 79.2073004,8.81070598 79.4781497,8.81070598 Z M95.0689145,23.8344557 C95.3566919,23.8344557 95.5936851,23.7392639 95.779894,23.5488803 C95.9661029,23.3584967 96.0592074,23.1391417 96.0592074,22.8908152 C96.0592074,22.6259337 95.9618709,22.3983011 95.767198,22.2079175 C95.572525,22.0175339 95.3397638,21.9223421 95.0689145,21.9223421 L95.0689145,21.9223421 L88.060688,21.9223421 L88.060688,16.558491 L93.5707791,16.558491 C93.8585566,16.558491 94.0955497,16.4674379 94.2817586,16.2853319 C94.4679676,16.1032258 94.561072,15.879732 94.561072,15.6148505 C94.561072,15.349969 94.4637355,15.1223364 94.2690626,14.9319528 C94.0743896,14.7415692 93.8416285,14.6463774 93.5707791,14.6463774 L93.5707791,14.6463774 L88.060688,14.6463774 L88.060688,10.9463134 L94.3833271,10.9463134 C94.6711046,10.9463134 94.9080977,10.8552604 95.0943066,10.6731543 C95.2805156,10.4910482 95.37362,10.2675544 95.37362,10.0026729 C95.37362,9.73779137 95.2762835,9.51015879 95.0816106,9.31977519 C94.8869376,9.12939158 94.6541765,9.03419978 94.3833271,9.03419978 L94.3833271,9.03419978 L81.0524615,9.03419978 C80.7646841,9.03419978 80.5319229,9.12939158 80.354178,9.31977519 C80.1764332,9.51015879 80.0875607,9.73779137 80.0875607,10.0026729 C80.0875607,10.2675544 80.1806652,10.4910482 80.3668741,10.6731543 C80.553083,10.8552604 80.7816121,10.9463134 81.0524615,10.9463134 L81.0524615,10.9463134 L86.0801022,10.9463134 L86.0801022,14.6463774 L81.0524615,14.6463774 C80.7646841,14.6463774 80.5319229,14.7415692 80.354178,14.9319528 C80.1764332,15.1223364 80.0875607,15.349969 80.0875607,15.6148505 C80.0875607,15.879732 80.1806652,16.1032258 80.3668741,16.2853319 C80.553083,16.4674379 80.7816121,16.558491 81.0524615,16.558491 L81.0524615,16.558491 L86.0801022,16.558491 L86.0801022,21.9223421 L79.1988363,21.9223421 C78.927987,21.9223421 78.6994579,22.0175339 78.513249,22.2079175 C78.32704,22.3983011 78.2339356,22.6259337 78.2339356,22.8908152 C78.2339356,23.1391417 78.3312721,23.3584967 78.525945,23.5488803 C78.720618,23.7392639 78.9449151,23.8344557 79.1988363,23.8344557 L79.1988363,23.8344557 L95.0689145,23.8344557 Z" id="句客宝" stroke="#FFFFFF" stroke-width="0.707199981" fill="#FFFFFF" fill-rule="nonzero"></path>
                                <circle id="椭圆形" stroke="#FFFFFF" stroke-width="1.32626505" fill="#FC790D" fill-rule="nonzero" cx="91.9920012" cy="19.2355456" r="1.91571618"></circle>
                            </g>
                        </g>
                    </g>
                </g>
            </g>
        </g>
    </g>
</svg>