<?xml version="1.0" encoding="UTF-8"?>
<svg width="270px" height="271px" viewBox="0 0 270 271" version="1.1" xmlns="http://www.w3.org/2000/svg" xmlns:xlink="http://www.w3.org/1999/xlink">
    <title>3-2</title>
    <defs>
        <polygon id="path-1" points="0.494224544 0.790643771 112.887674 0.790643771 112.887674 108.334956 0.494224544 108.334956"></polygon>
        <polygon id="path-3" points="0.375109384 0.00881174059 178.421263 0.00881174059 178.421263 20.945002 0.375109384 20.945002"></polygon>
        <polygon id="path-5" points="0.802840572 0.579811207 13.1046312 0.579811207 13.1046312 10.700972 0.802840572 10.700972"></polygon>
        <polygon id="path-7" points="0.44883304 0.870442728 8.48437089 0.870442728 8.48437089 17.3868518 0.44883304 17.3868518"></polygon>
        <polygon id="path-9" points="0 217.140019 268.609712 217.140019 268.609712 0.216562519 0 0.216562519"></polygon>
        <polygon id="path-11" points="0.33160053 0.280549525 80.7628048 0.280549525 80.7628048 54.3852518 0.33160053 54.3852518"></polygon>
        <polygon id="path-13" points="0 217.140019 268.609712 217.140019 268.609712 0.216562519 0 0.216562519"></polygon>
        <polygon id="path-15" points="0.125664011 0.0392700035 4.22730038 0.0392700035 4.22730038 6.79590511 0.125664011 6.79590511"></polygon>
        <polyline id="path-17" points="0 217.140019 268.609712 217.140019 268.609712 0.216562519 0 0.216562519"></polyline>
        <polygon id="path-19" points="0.0941094085 0.169646415 54.206488 0.169646415 54.206488 65.7574246 0.0941094085 65.7574246"></polygon>
        <polygon id="path-21" points="0.583390552 0.280549525 10.6842164 0.280549525 10.6842164 14.9200603 0.583390552 14.9200603"></polygon>
        <polygon id="path-23" points="0 217.140019 268.609712 217.140019 268.609712 0.216562519 0 0.216562519"></polygon>
        <polygon id="path-25" points="0.78251257 0.00634095057 13.0159041 0.00634095057 13.0159041 13.7841177 0.78251257 13.7841177"></polygon>
        <polygon id="path-27" points="0 217.140019 268.609712 217.140019 268.609712 0.216562519 0 0.216562519"></polygon>
        <polygon id="path-29" points="50.3141145 0.771540069 50.3141145 34.0251481 0.129360012 34.0250326 0.129360012 0.770408169"></polygon>
        <polyline id="path-31" points="0 217.140019 268.609712 217.140019 268.609712 0.216562519 0 0.216562519"></polyline>
        <polygon id="path-33" points="0.0188611517 0.927548045 58.5005243 0.927548045 58.5005243 71.9305254 0.0188611517 71.9305254"></polygon>
        <polyline id="path-35" points="0 217.140019 268.609712 217.140019 268.609712 0.216562519 0 0.216562519"></polyline>
        <polygon id="path-37" points="0.495148544 0.0889109978 16.5975017 0.0889109978 16.5975017 35.0625682 0.495148544 35.0625682"></polygon>
        <polyline id="path-39" points="0 217.140019 268.609712 217.140019 268.609712 0.216562519 0 0.216562519"></polyline>
        <polygon id="path-41" points="0.525871547 0.0722212463 7.91047906 0.0722212463 7.91047906 16.7531601 0.525871547 16.7531601"></polygon>
        <polygon id="path-43" points="0 217.140019 268.609712 217.140019 268.609712 0.216562519 0 0.216562519"></polygon>
    </defs>
    <g id="最新版备份" stroke="none" stroke-width="1" fill="none" fill-rule="evenodd">
        <g id="亮点3" transform="translate(-178.000000, -905.000000)">
            <g id="3备份-9" transform="translate(0.000000, 550.000000)">
                <g id="编组-4" transform="translate(130.000000, 241.000000)">
                    <g id="3-2" transform="translate(48.000000, 114.000000)">
                        <g id="编组">
                            <polygon id="Fill-1" fill-opacity="0.86" fill="#C9C9C9" points="25.8665969 164.211839 240.392158 164.211839 240.392158 24.8290834 25.8665969 24.8290834"></polygon>
                            <polygon id="Fill-3" fill="#C9C9C9" points="116.920083 148.292612 108.772805 200.051412 163.116507 200.051412 150.618366 148.292612"></polygon>
                            <g transform="translate(120.120011, 24.038440)">
                                <mask id="mask-2" fill="white">
                                    <use xlink:href="#path-1"></use>
                                </mask>
                                <g id="Clip-6"></g>
                                <path d="M10.0918134,1.24278011 L21.5406364,1.24278011 C21.5406364,1.24278011 19.0316297,9.09146782 15.7983224,13.9372708 C12.5658236,18.7829582 23.1189441,25.8382763 23.1189441,25.8382763 L62.8913726,0.867405078 L75.2616548,0.790597571 C75.2616548,0.790597571 88.937087,26.7510729 78.0513265,37.2700053 C67.165566,47.7890533 41.8875803,41.8172408 41.0344972,49.4952194 C40.1812986,57.1733136 56.1005495,72.2480285 56.1005495,72.2480285 L107.705839,33.2604225 C107.705839,33.2604225 118.420082,40.1877666 109.035821,47.2600632 C99.6514454,54.3324754 74.9886127,97.69655 58.3186117,98.0548657 C41.6487262,98.4131698 37.0930593,91.8100227 40.7861722,108.334956 L15.1926404,108.334956 L8.9400473,45.3234746 L0.494224544,25.8382763 L5.81762002,3.48648331 L10.0918134,1.24278011 Z" id="Fill-5" fill-opacity="0.08" fill="#000000" mask="url(#mask-2)"></path>
                            </g>
                            <g transform="translate(45.045004, 197.133455)">
                                <mask id="mask-4" fill="white">
                                    <use xlink:href="#path-3"></use>
                                </mask>
                                <g id="Clip-8"></g>
                                <path d="M89.398163,0.00855764056 C138.564323,0.00855764056 178.421298,4.69901306 178.421298,10.4848752 C178.421298,16.270735 138.564323,20.9620423 89.398163,20.9620423 C40.2320262,20.9620423 0.375109384,16.270735 0.375109384,10.4848752 C0.375109384,4.69901306 40.2320262,0.00855764056 89.398163,0.00855764056" id="Fill-7" fill-opacity="0.45" fill="#E6E6E6" mask="url(#mask-4)"></path>
                            </g>
                            <g transform="translate(182.490016, 186.893454)">
                                <mask id="mask-6" fill="white">
                                    <use xlink:href="#path-5"></use>
                                </mask>
                                <g id="Clip-10"></g>
                                <path d="M10.1869854,10.0611251 C10.1869854,10.0611251 2.46627172,7.95391976 0.802609572,0.770650719 C0.802609572,0.770650719 12.7463501,-1.64368065 13.1046312,10.700972 L10.1869854,10.0611251 Z" id="Fill-9" fill-opacity="0.58" fill="#FC790D" mask="url(#mask-6)"></path>
                            </g>
                            <g transform="translate(0.000000, 0.938438)">
                                <g transform="translate(190.575017, 177.870016)">
                                    <mask id="mask-8" fill="white">
                                        <use xlink:href="#path-7"></use>
                                    </mask>
                                    <g id="Clip-12"></g>
                                    <path d="M3.04931577,17.3696192 C3.04931577,17.3696192 -2.34245571,8.83841884 2.40089872,0.870281028 C2.40089872,0.870281028 11.4865915,6.64590525 7.45136767,17.3875333 L3.04931577,17.3696192 Z" id="Fill-11" fill-opacity="0.73" fill="#FC790D" mask="url(#mask-8)"></path>
                                </g>
                                <mask id="mask-10" fill="white">
                                    <use xlink:href="#path-9"></use>
                                </mask>
                                <g id="Clip-14"></g>
                                <path d="M195.006406,195.239635 C195.006406,195.239635 197.855907,186.239216 206.471515,184.532981 C206.471515,184.532981 208.084819,190.376854 200.892056,195.26523 L195.006406,195.239635 Z" id="Fill-13" fill="#FC790D" mask="url(#mask-10)"></path>
                                <polygon id="Fill-15" fill="#24285B" mask="url(#mask-10)" points="189.409507 195.043932 190.979152 205.742057 200.833613 205.784713 202.283022 195.095122"></polygon>
                                <path d="M218.99622,57.2904306 C218.99622,57.2904306 224.379445,51.3185026 228.252622,51.6512581 C232.125799,51.9840137 234.224435,59.3293523 222.151911,63.7058787 L218.99622,57.2904306 Z" id="Fill-16" fill="#F4A28C" mask="url(#mask-10)"></path>
                                <polygon id="Fill-17" fill="#C9C9C9" mask="url(#mask-10)" points="218.415833 43.2650334 268.613419 43.2650334 268.613419 0.216597169 218.415833 0.216597169"></polygon>
                                <path d="M160.096874,55.720439 L178.395426,86.3389143 L218.022902,57.6740062 L225.137818,63.0401367 L185.724594,105.261062 C180.297018,111.068252 171.189149,111.374523 165.381924,105.94697 C165.011631,105.600608 164.660164,105.235467 164.328333,104.851568 L144.706613,82.1073404 L160.096874,55.720439 Z" id="Fill-18" fill="#FC790D" mask="url(#mask-10)"></path>
                            </g>
                            <g transform="translate(0.000000, 0.938438)">
                                <g transform="translate(144.375013, 55.440005)">
                                    <mask id="mask-12" fill="white">
                                        <use xlink:href="#path-11"></use>
                                    </mask>
                                    <g id="Clip-20"></g>
                                    <path d="M15.7218614,0.280434025 L34.0204126,30.8989093 L73.6478886,2.2340012 L80.7628048,7.60013168 L41.3495812,49.8210565 C35.9220047,55.6282469 26.8141359,55.9345183 21.0069109,50.5069649 C20.6366179,50.1606035 20.2851513,49.7954617 19.9533198,49.4115628 L0.33160053,26.6673354 L15.7218614,0.280434025 Z" id="Fill-19" fill-opacity="0.46" fill="#FFFFFF" mask="url(#mask-12)"></path>
                                </g>
                                <mask id="mask-14" fill="white">
                                    <use xlink:href="#path-13"></use>
                                </mask>
                                <g id="Clip-22"></g>
                                <polygon id="Fill-21" fill="#E6E6E6" mask="url(#mask-14)" points="25.8665969 163.273402 240.392158 163.273402 240.392158 131.434958 25.8665969 131.434958"></polygon>
                                <path d="M134.324087,136.835126 C139.082802,136.835126 142.940618,140.69293 142.940618,145.452489 C142.940618,150.210339 139.082802,154.068143 134.324087,154.068143 C129.564562,154.068143 125.706746,150.210339 125.706746,145.452489 C125.706746,140.69293 129.564562,136.835126 134.324087,136.835126" id="Fill-23" fill="#A5A5A5" mask="url(#mask-14)"></path>
                                <polygon id="Fill-24" fill="#E6E6E6" mask="url(#mask-14)" points="96.3684385 206.680148 172.799462 206.680148 172.799462 190.044312 96.3684385 190.044312"></polygon>
                                <path d="M130.092166,22.9607091 C130.092166,22.9607091 130.766109,28.9325216 129.861859,32.890938 C129.489025,34.5118651 127.874104,35.5237607 126.253177,35.1517352 C124.248328,34.6654801 121.688963,33.4454535 120.938213,30.2975007 L119.018718,25.1190578 C118.451382,22.9128921 119.341194,20.5898403 121.23678,19.3263857 C124.546895,16.860807 129.861859,19.3263857 130.092166,22.9607091" id="Fill-25" fill="#F4A28C" mask="url(#mask-14)"></path>
                                <polygon id="Fill-26" fill="#F4A28C" mask="url(#mask-14)" points="120.119318 26.5863699 115.290644 45.5683346 125.937631 47.4878293 125.178334 32.908032"></polygon>
                                <path d="M118.370532,29.7685107 L118.370532,29.7685107 C118.376538,30.0287322 118.559952,30.2506077 118.814168,30.3060477 C120.53916,30.7487593 122.348699,29.9835717 123.233314,28.4377196 C124.284364,26.7510729 124.230656,24.6011557 123.096908,22.9691406 C124.919152,23.2805286 126.772118,23.3744301 128.616538,23.2507296 C129.237582,23.2140006 129.848461,23.0758626 130.425153,22.8411666 L131.849845,18.3111406 C131.849845,18.3111406 134.195997,13.7725677 131.534184,12.8597712 C128.872486,11.9468591 127.686647,14.9924788 125.502658,12.8597712 C123.318668,10.726948 122.815319,9.93346289 120.614235,11.1534895 C118.413267,12.3734006 120.972632,14.0882293 117.346856,14.1393958 C113.721068,14.1905623 113.66989,15.6920624 113.66989,17.3386306 C113.754343,17.9016931 114.003454,18.4272182 114.386509,18.8485622 C116.862217,21.9608255 118.260576,25.7930003 118.370532,29.7685107" id="Fill-27" fill="#24285B" mask="url(#mask-14)"></path>
                                <path d="M123.872953,28.2413695 C123.872953,28.2413695 123.744979,25.9464998 122.038697,26.1682598 C120.332531,26.3901354 120.443411,29.7087972 122.797994,29.9647452 L123.872953,28.2413695 Z" id="Fill-28" fill="#F4A28C" mask="url(#mask-14)"></path>
                                <path d="M130.322589,26.7313224 L132.02887,28.9835726 C132.350538,29.4016826 132.272806,30.0013587 131.854812,30.3238347 C131.740467,30.4117302 131.607411,30.4731762 131.465808,30.5021667 L129.196464,30.9969688 L130.322589,26.7313224 Z" id="Fill-29" fill="#F4A28C" mask="url(#mask-14)"></path>
                            </g>
                            <g transform="translate(0.000000, 0.938438)">
                                <g transform="translate(121.275011, 32.340003)">
                                    <mask id="mask-16" fill="white">
                                        <use xlink:href="#path-15"></use>
                                    </mask>
                                    <g id="Clip-31"></g>
                                    <path d="M3.97135236,2.50473322 C3.97135236,2.50473322 2.59782623,2.2744262 0.132363012,0.0392700035 C0.132363012,0.0392700035 -0.22603352,3.92954135 4.22730038,6.79602061 L3.97135236,2.50473322 Z" id="Fill-30" fill-opacity="0.31" fill="#CE8172" mask="url(#mask-16)"></path>
                                </g>
                                <mask id="mask-18" fill="white">
                                    <use xlink:href="#path-17"></use>
                                </mask>
                                <g id="Clip-33"></g>
                                <path d="M87.9735628,62.6907491 C88.996454,54.7199779 95.1602506,48.3821458 103.099386,47.1383262 C114.957761,45.2614511 133.811729,43.9390914 151.727282,49.697691 C180.94659,59.0820668 146.181895,121.146506 146.181895,121.146506 L103.355323,121.146506 C103.355323,121.146506 84.0236241,94.0514274 87.9735628,62.6907491" id="Fill-32" fill="#FC790D" mask="url(#mask-18)"></path>
                                <polygon id="Fill-34" fill="#24285B" mask="url(#mask-18)" points="103.355577 121.154868 106.913093 131.434958 150.421323 131.434958 146.224861 121.154868"></polygon>
                                <polygon id="Fill-35" fill="#FFD200" mask="url(#mask-18)" points="140.338403 56.2836171 145.841055 70.3600653 150.439341 67.9457686 145.841055 55.7205545"></polygon>
                            </g>
                            <g transform="translate(95.865009, 56.378443)">
                                <mask id="mask-20" fill="white">
                                    <use xlink:href="#path-19"></use>
                                </mask>
                                <g id="Clip-37"></g>
                                <path d="M10.5448275,0.169554015 C10.5448275,0.169554015 26.1143213,11.3198095 18.0096279,31.7350138 L51.9211817,4.33275189 C51.9211817,4.33275189 58.7460773,11.243002 48.8073014,18.2130811 C38.86841,25.1830448 39.8068476,52.960624 24.7492267,65.7574246 L7.49066077,65.7574246 L3.50658031,55.7332711 L0.0941094085,25.6266803 L10.5448275,0.169554015 Z" id="Fill-36" fill-opacity="0.08" fill="#000000" mask="url(#mask-20)"></path>
                            </g>
                            <g transform="translate(0.000000, 0.938438)">
                                <g transform="translate(139.755013, 55.440005)">
                                    <mask id="mask-22" fill="white">
                                        <use xlink:href="#path-21"></use>
                                    </mask>
                                    <g id="Clip-39"></g>
                                    <polygon id="Fill-38" fill-opacity="0.4" fill="#FFFFFF" mask="url(#mask-22)" points="0.583390552 0.843612076 6.08604205 14.9200603 10.6843285 12.5057636 6.08604205 0.280549525"></polygon>
                                </g>
                                <mask id="mask-24" fill="white">
                                    <use xlink:href="#path-23"></use>
                                </mask>
                                <g id="Clip-41"></g>
                                <path d="M138.537989,62.0079131 C138.537989,62.0079131 143.912666,56.0361005 147.785844,56.3688561 C151.659021,56.7016116 153.757656,64.0469503 141.694489,68.4234766 L138.537989,62.0079131 Z" id="Fill-40" fill="#F4A28C" mask="url(#mask-24)"></path>
                                <polygon id="Fill-42" fill="#FFD200" mask="url(#mask-24)" points="143.281805 43.8962409 181.449592 21.0752869 189.98077 55.720439 145.84117 55.720439"></polygon>
                                <polygon id="Fill-43" fill="#FFD200" mask="url(#mask-24)" points="143.281805 43.8962409 133.607524 47.2234497 136.592507 57.6741217 145.84117 55.720439"></polygon>
                            </g>
                            <g transform="translate(0.000000, 0.938438)">
                                <g transform="translate(132.825012, 43.890004)">
                                    <mask id="mask-26" fill="white">
                                        <use xlink:href="#path-25"></use>
                                    </mask>
                                    <g id="Clip-45"></g>
                                    <polygon id="Fill-44" fill-opacity="0.08" fill="#000000" mask="url(#mask-26)" points="10.4567934 0.00623700056 0.78251257 3.3334458 3.76749484 13.7841177 13.0161582 11.8304351"></polygon>
                                </g>
                                <mask id="mask-28" fill="white">
                                    <use xlink:href="#path-27"></use>
                                </mask>
                                <g id="Clip-47"></g>
                                <polygon id="Fill-46" fill="#FFD200" mask="url(#mask-28)" points="204.603764 148.46324 261.336249 148.46324 261.336249 111.446364 204.603764 111.446364"></polygon>
                                <polygon id="Fill-48" fill="#24285B" mask="url(#mask-28)" points="9.65731854 51.2160541 58.5837582 51.2160541 58.5837582 4.90016879 9.65731854 4.90016879"></polygon>
                                <polygon id="Fill-49" fill="#FFFFFF" mask="url(#mask-28)" points="224.149138 120.003494 224.149138 139.90678 244.861985 128.688252"></polygon>
                                <path d="M38.6547003,17.2620541 C37.3357711,17.2501575 36.0518267,17.6928691 35.0204116,18.5161532 C34.1451064,19.2131957 33.4250678,20.0849898 32.9046709,21.0755179 C32.38171,20.0867223 31.6616713,19.2157367 30.7889302,18.5161532 C29.761777,17.6980666 28.4855019,17.2552395 27.1717008,17.2620541 C23.4691632,17.2620541 20.6794568,20.2906953 20.6794568,24.3088252 C20.6794568,28.6427321 24.1601882,31.6115443 29.4324749,36.1074977 C30.2855927,36.8753418 31.3434573,37.7369719 32.4013334,38.6668625 C32.5395292,38.7913715 32.7186928,38.8578995 32.9046709,38.8546706 C33.090649,38.8562825 33.2698011,38.7897545 33.4080084,38.6668625 C34.4573491,37.7455189 35.4725595,36.8838888 36.3768669,36.1074977 C41.6491536,31.6115443 45.1299628,28.6427321 45.1299628,24.3088252 C45.1469444,20.2736013 42.357238,17.2620541 38.6547003,17.2620541" id="Fill-50" fill="#FFFFFF" mask="url(#mask-28)"></path>
                            </g>
                            <g transform="translate(0.000000, 0.938438)">
                                <g transform="translate(218.295020, 9.240001)">
                                    <mask id="mask-30" fill="white">
                                        <use xlink:href="#path-29"></use>
                                    </mask>
                                    <g id="Clip-52"></g>
                                    <polygon id="Fill-51" fill-opacity="0.72" fill="#FFFFFF" mask="url(#mask-30)" points="0.129706512 25.3656503 15.8262734 0.770154069 25.2191963 23.1902076 35.5086302 4.83956593 50.317926 26.9525049 50.317926 34.0248016 0.129706512 34.0248016"></polygon>
                                </g>
                                <mask id="mask-32" fill="white">
                                    <use xlink:href="#path-31"></use>
                                </mask>
                                <g id="Clip-54"></g>
                                <path d="M244.512367,7.51073467 C246.891783,7.51073467 248.821557,9.43970035 248.821557,11.8190006 C248.821557,14.1983008 246.891783,16.1272664 244.512367,16.1272664 C242.133067,16.1272664 240.204101,14.1983008 240.204101,11.8190006 C240.204101,9.43970035 242.133067,7.51073467 244.512367,7.51073467" id="Fill-53" fill="#FFFFFF" mask="url(#mask-32)"></path>
                                <path d="M107.075093,58.0581592 C106.181031,52.4752352 100.930931,48.6737834 95.3481114,49.567869 C93.3526639,49.88688 91.4962669,50.7903211 90.0126924,52.1630387 C85.4979818,56.3450631 83.0102848,62.2725236 83.187739,68.4234766 C83.4010213,86.1769832 82.7611744,114.756468 97.0509396,120.088468 C111.340693,125.420468 141.660532,68.4234766 141.660532,68.4234766 L138.504032,62.0080286 L102.323215,92.1573428 C102.323215,92.1573428 109.242023,72.936524 107.075093,58.0581592" id="Fill-55" fill="#FC790D" mask="url(#mask-32)"></path>
                            </g>
                            <g transform="translate(0.000000, 0.938438)">
                                <g transform="translate(83.160007, 48.510004)">
                                    <mask id="mask-34" fill="white">
                                        <use xlink:href="#path-33"></use>
                                    </mask>
                                    <g id="Clip-57"></g>
                                    <path d="M23.9150856,9.54815486 C23.0210232,3.96523086 17.770924,0.163779015 12.1881039,1.05786459 C10.1926565,1.37687562 8.33625945,2.2803167 6.85268492,3.65303433 C2.33797431,7.8350587 -0.149722663,13.7625192 0.0277315525,19.9134723 C0.241013872,37.6669789 -0.398833086,66.2464631 13.8909321,71.5784634 C28.1806858,76.9104636 58.5005243,19.9134723 58.5005243,19.9134723 L55.3440245,13.4980242 L19.1632073,43.6473384 C19.1632073,43.6473384 26.082016,24.4265197 23.9150856,9.54815486" id="Fill-56" fill-opacity="0.46" fill="#FFFFFF" mask="url(#mask-34)"></path>
                                </g>
                                <mask id="mask-36" fill="white">
                                    <use xlink:href="#path-35"></use>
                                </mask>
                                <g id="Clip-59"></g>
                                <path d="M182.214549,20.8037464 C186.006645,19.8882933 190.96252,26.9393379 193.282915,36.5532123 C195.603426,46.1669711 194.409964,54.7024219 190.618676,55.617875 C186.825656,56.5332126 181.870821,49.4813594 179.549386,39.8684091 C177.228991,30.2545347 178.422453,21.719084 182.214549,20.8037464" id="Fill-58" fill="#FFD200" mask="url(#mask-36)"></path>
                            </g>
                            <g transform="translate(0.000000, 0.938438)">
                                <g transform="translate(177.870016, 20.635002)">
                                    <mask id="mask-38" fill="white">
                                        <use xlink:href="#path-37"></use>
                                    </mask>
                                    <g id="Clip-61"></g>
                                    <path d="M4.34453289,0.168744605 C8.13662923,-0.746708477 13.0925037,6.30433616 15.4128989,15.9182105 C17.7334096,25.5319694 16.539948,34.0674201 12.7486601,34.9828732 C8.9556398,35.8982108 4.00080486,28.8463577 1.67937015,19.2334073 C-0.641025058,9.61953295 0.55243655,1.08408219 4.34453289,0.168744605" id="Fill-60" fill-opacity="0.4" fill="#FFFFFF" mask="url(#mask-38)"></path>
                                </g>
                                <mask id="mask-40" fill="white">
                                    <use xlink:href="#path-39"></use>
                                </mask>
                                <g id="Clip-63"></g>
                                <path d="M178.950403,32.3278754 C178.758558,32.3799659 178.573411,32.4515759 178.395888,32.5412039 C178.668121,38.2263454 180.068905,43.7997984 182.516466,48.9381629 C182.660725,48.9305399 182.803137,48.9109049 182.943007,48.8784494 C185.374398,48.2897458 186.449357,44.109454 185.348873,39.4940735 C184.248389,34.8786931 181.381909,31.7392873 178.950403,32.3278754" id="Fill-62" fill="#FFD200" mask="url(#mask-40)"></path>
                            </g>
                            <g transform="translate(0.000000, 0.938438)">
                                <g transform="translate(177.870016, 32.185003)">
                                    <mask id="mask-42" fill="white">
                                        <use xlink:href="#path-41"></use>
                                    </mask>
                                    <g id="Clip-65"></g>
                                    <path d="M1.0803871,0.142872603 C0.88854158,0.194963107 0.703395063,0.266573114 0.525871547,0.356201122 C0.798105072,6.04134263 2.1988892,11.6147956 4.64644992,16.7531601 C4.79070943,16.7455371 4.93312094,16.7259021 5.07299146,16.6934466 C7.50438217,16.104743 8.57934077,11.9244512 7.47885667,7.30907075 C6.37837257,2.69369033 3.51189332,-0.44571545 1.0803871,0.142872603" id="Fill-64" fill-opacity="0.08" fill="#000000" mask="url(#mask-42)"></path>
                                </g>
                                <mask id="mask-44" fill="white">
                                    <use xlink:href="#path-43"></use>
                                </mask>
                                <g id="Clip-67"></g>
                                <polygon id="Fill-66" fill="#E6E6E6" mask="url(#mask-44)" points="0.00853120037 112.325065 55.8878982 112.325065 55.8878982 74.8304355 0.00853120037 74.8304355"></polygon>
                                <polygon id="Fill-68" fill="#C9C9C9" mask="url(#mask-44)" points="0.000170624007 74.8306087 27.9398568 101.405313 55.8795287 74.8306087"></polygon>
                            </g>
                        </g>
                        <g id="独家解决方案备份" transform="translate(10.000000, 226.000000)">
                            <rect id="Rectangle-3" fill="#FC790D" x="0" y="0" width="249.019627" height="44.8081879" rx="4.8990285"></rect>
                            <text id="无限制群发" font-family="FZLTCHJW--GB1-0, FZLanTingHeiS-B-GB" font-size="24.4951425" font-weight="normal" line-spacing="29.394171" fill="#FFFFFF">
                                <tspan x="115.448601" y="29.3485428">无限制群发</tspan>
                            </text>
                            <g id="句客宝logo" transform="translate(10.196352, 8.981552)">
                                <path d="M11.430953,-2.3625546e-13 C14.5313149,-2.3625546e-13 17.2121507,1.10905154 19.4723253,3.32404366 C21.7315917,5.54036905 22.862133,8.16911673 22.862133,11.208509 C22.862133,17.9610352 18.0530192,22.9325459 8.43547259,26.128152 L8.43547259,26.128152 L8.43547259,22.031261 C5.85974537,21.3086331 3.80978796,19.9304849 2.28605439,17.8954831 C0.761185737,15.8600369 0,13.6321566 0,11.208509 C0,8.16911673 1.1291792,5.54036905 3.38980776,3.32404366 C5.64862019,1.10905154 8.32922895,-2.3625546e-13 11.430953,-2.3625546e-13 Z M7.13283022,10.5876535 C7.08016243,12.6793189 8.96553301,14.4212253 11.3444371,14.4792222 C11.4400109,14.4821109 11.5335417,14.4763335 11.6272994,14.4738892 C11.6272994,14.4743336 12.0325236,14.7549852 12.4770215,14.9789731 C12.9725982,15.2280709 13.5814559,15.3953952 13.9353744,15.365619 C14.4037091,15.3262878 14.4774894,15.0314148 14.3837316,14.880534 C14.2947412,14.7367639 14.139235,14.7303198 13.9889502,14.6378804 C13.8084723,14.5263308 13.7285625,14.4698894 13.6543282,14.2967876 C13.5691971,14.0974649 13.6677221,13.9494729 13.8550106,13.8505893 C13.8550106,13.8505893 13.8697667,13.8368123 13.8951925,13.8125914 C14.98646,13.1501825 15.7151824,12.0551302 15.7469647,10.7965311 C15.7998595,8.70508794 13.9144889,6.96251488 11.5353578,6.90451799 C9.15668076,6.84696553 7.18572502,8.49576585 7.13283022,10.5876535 Z" id="形状结合" fill="#FFFFFF"></path>
                                <path d="M42.5343205,24.1821127 C43.0590911,24.1821127 43.6261819,24.0662271 44.2355929,23.8344557 C44.8450039,23.6026844 45.4120946,23.2301947 45.9368652,22.7169867 C46.4616358,22.2037788 46.905998,21.5332974 47.2699518,20.7055426 C47.6339056,19.8777878 47.8243465,18.8679269 47.8412746,17.67596 L47.8412746,17.67596 L47.9682352,6.32744156 C48.0020914,5.76456829 47.8158825,5.2844705 47.4096085,4.8871482 C46.9864064,4.47327079 46.4531718,4.26633209 45.8099046,4.26633209 L45.8099046,4.26633209 L35.4245254,4.26633209 C35.543022,3.93523017 35.6530546,3.58343438 35.7546231,3.21094471 C35.8561916,2.83845505 35.9746882,2.44527152 36.1101128,2.03139411 C36.1947532,1.78306767 36.1693611,1.54715755 36.0339365,1.32366375 C35.8985118,1.10016996 35.7038388,0.947035316 35.4499176,0.864259835 C35.1790682,0.781484355 34.929379,0.806316999 34.7008499,0.938757768 C34.4723208,1.07119854 34.315736,1.26158214 34.2310956,1.50990858 C33.9433182,2.48665926 33.6682368,3.36407935 33.4058515,4.14216887 C33.1434662,4.92025839 32.8683849,5.6362663 32.5806074,6.29019259 C32.29283,6.94411889 31.9754285,7.55665745 31.6284027,8.12780827 C31.281377,8.69895908 30.8793351,9.26597113 30.4222768,9.82884439 C30.252996,10.0440606 30.1852836,10.2799708 30.2191398,10.5365748 C30.252996,10.7931787 30.3799566,11.0042562 30.6000217,11.1698072 C30.7862306,11.302248 30.9809036,11.3684683 31.1840406,11.3684683 C31.3194652,11.3684683 31.4591219,11.3394969 31.6030106,11.2815541 C31.7468993,11.2236112 31.8696279,11.1284194 31.9711964,10.9959787 C32.5975355,10.2178892 33.1265381,9.45221596 33.5582043,8.69895908 C33.9898704,7.94570221 34.3834483,7.09725353 34.7389381,6.15361305 L34.7389381,6.15361305 L45.8099046,6.15361305 C45.9114731,6.15361305 45.9791854,6.1784457 46.0130416,6.22811098 C46.0299697,6.22811098 46.0384337,6.25294363 46.0384337,6.30260892 L46.0384337,6.30260892 L45.886081,17.6511273 C45.8691529,18.5947678 45.7294962,19.3645798 45.4671109,19.9605632 C45.2047256,20.5565467 44.8957881,21.0283669 44.5402984,21.376024 C44.1848086,21.723681 43.8166228,21.9595911 43.4357409,22.0837543 C43.054859,22.2079175 42.7543856,22.2699991 42.5343205,22.2699991 L42.5343205,22.2699991 L41.8995173,22.2699991 C41.6117399,22.253444 41.3747468,22.3362195 41.1885378,22.5183256 C41.0023289,22.7004316 40.9092245,22.9239254 40.9092245,23.188807 C40.8922964,23.4702436 40.9769368,23.702015 41.1631457,23.884121 C41.3493546,24.0662271 41.5778838,24.1655577 41.8487331,24.1821127 L41.8487331,24.1821127 L42.5343205,24.1821127 Z M41.5688488,18.718931 C42.0259071,18.718931 42.415253,18.5616576 42.7368866,18.2471108 C43.0585201,17.932564 43.2193369,17.5517967 43.2193369,17.1048091 L43.2193369,17.1048091 L43.2193369,10.8718155 C43.2193369,10.4248279 43.0585201,10.0440606 42.7368866,9.72951382 C42.415253,9.41496699 42.0259071,9.25769358 41.5688488,9.25769358 L41.5688488,9.25769358 L35.6270915,9.25769358 C35.1700333,9.25769358 34.7806874,9.41496699 34.4590538,9.72951382 C34.1374202,10.0440606 33.9766034,10.4248279 33.9766034,10.8718155 L33.9766034,10.8718155 L33.9766034,17.1048091 C33.9766034,17.5517967 34.1374202,17.932564 34.4590538,18.2471108 C34.7806874,18.5616576 35.1700333,18.718931 35.6270915,18.718931 L35.6270915,18.718931 L41.5688488,18.718931 Z M41.2641433,16.8068174 L35.931797,16.8068174 L35.931797,11.1449745 L41.2641433,11.1449745 L41.2641433,16.8068174 Z M71.3532406,8.41338367 C71.6240899,8.41338367 71.8568511,8.31819187 72.051524,8.12780827 C72.246197,7.93742466 72.3435335,7.71806964 72.3435335,7.46974319 L72.3435335,7.46974319 L72.3435335,4.76298498 C72.3435335,4.31599738 72.1784847,3.93523017 71.848387,3.62068334 C71.5182894,3.30613652 71.1247115,3.1488631 70.6676532,3.1488631 L70.6676532,3.1488631 L64.929033,3.1488631 L64.0403086,1.38574536 C63.9048839,1.15397402 63.714443,0.992561831 63.4689858,0.901508802 C63.2235286,0.810455773 62.9823034,0.822872095 62.7453102,0.938757768 C62.508317,1.05464344 62.3390362,1.2367495 62.2374677,1.48507594 C62.1358992,1.73340238 62.1528273,1.97345128 62.288252,2.20522262 L62.288252,2.20522262 L62.7707023,3.12403046 L56.6258081,3.12403046 C56.1518217,3.12403046 55.7540118,3.28130387 55.4323782,3.5958507 C55.1107446,3.91039752 54.9499278,4.29116474 54.9499278,4.73815233 L54.9499278,4.73815233 L54.9499278,7.44491055 C54.9499278,7.72634718 55.0472643,7.95811853 55.2419372,8.14022459 C55.4366102,8.32233065 55.6693713,8.41338367 55.9402207,8.41338367 C56.21107,8.41338367 56.4395991,8.31819187 56.6258081,8.12780827 C56.812017,7.93742466 56.9051214,7.71806964 56.9051214,7.46974319 L56.9051214,7.46974319 L56.9051214,5.06097671 L70.3883399,5.06097671 L70.3883399,7.46974319 C70.3883399,7.71806964 70.4814443,7.93742466 70.6676532,8.12780827 C70.8538621,8.31819187 71.0823913,8.41338367 71.3532406,8.41338367 Z M71.8864752,16.906148 C72.1234684,16.906148 72.3308374,16.8357888 72.5085823,16.6950705 C72.6863272,16.5543522 72.7921277,16.3681074 72.8259839,16.136336 C72.8936962,15.8714545 72.851376,15.6314056 72.6990232,15.4161893 C72.5466705,15.2009731 72.3350694,15.0685323 72.0642201,15.018867 C70.625333,14.7374304 69.3684228,14.451855 68.2934895,14.1621408 C67.2185562,13.8724266 66.2748156,13.5454635 65.4622676,13.1812514 C66.3425279,12.601823 67.1254518,11.9727293 67.8110392,11.2939704 C68.4966265,10.6152115 69.1018055,9.86195459 69.6265761,9.03419978 C69.7281446,8.88520391 69.7831609,8.71551418 69.7916249,8.52513057 C69.800089,8.33474697 69.7704648,8.16091846 69.7027525,8.00364505 C69.6350401,7.84637163 69.5292396,7.70979209 69.3853509,7.59390642 C69.2414622,7.47802074 69.0679493,7.42007791 68.8648123,7.42007791 L68.8648123,7.42007791 L61.4757039,7.42007791 C61.5434163,7.28763714 61.6026646,7.17175146 61.6534488,7.07242089 C61.7042331,6.97309031 61.7550173,6.85720464 61.8058016,6.72476387 C61.9242982,6.49299252 61.9369942,6.2570824 61.8438898,6.01703351 C61.7507853,5.77698461 61.5772724,5.59073978 61.3233512,5.45829901 C61.086358,5.34241334 60.8451328,5.32999702 60.5996756,5.42105005 C60.3542184,5.51210308 60.1637775,5.68179281 60.0283528,5.93011925 C59.5882227,6.84064954 59.0211319,7.70151454 58.3270804,8.51271425 C57.633029,9.32391396 56.812017,10.0606157 55.8640443,10.7228196 C55.6270511,10.8718155 55.4916265,11.0746154 55.4577703,11.3312194 C55.4239141,11.5878234 55.4746984,11.8237335 55.6101231,12.0389497 C55.8301881,12.3038313 56.1010375,12.436272 56.4226711,12.436272 C56.6427361,12.436272 56.820481,12.3700517 56.9559057,12.2376109 C57.2944674,12.0058395 57.620333,11.7657906 57.9335025,11.5174642 C58.246672,11.2691378 58.5471455,11.0042562 58.8349229,10.7228196 C59.2750531,11.1698072 59.7109513,11.5961009 60.1426174,12.0017008 C60.5742835,12.4073006 61.0355738,12.7839291 61.5264882,13.1315861 C59.7659675,13.8931205 57.6838133,14.5222141 55.2800254,15.018867 C55.0091761,15.0685323 54.7975751,15.2051119 54.6452223,15.4286057 C54.4928696,15.6520995 54.4505493,15.8962871 54.5182617,16.1611687 C54.5690459,16.3763849 54.6833105,16.5543522 54.8610554,16.6950705 C55.0388002,16.8357888 55.2461693,16.906148 55.4831624,16.906148 C55.5678028,16.906148 55.6355152,16.8978704 55.6862994,16.8813153 C57.226755,16.5667685 58.64025,16.1984176 59.9267843,15.7762627 C61.2133187,15.3541077 62.3982845,14.8781487 63.4816818,14.3483856 C64.4804387,14.8781487 65.6357804,15.3458302 66.9477069,15.75143 C68.2596334,16.1570299 69.8466412,16.5336583 71.7087304,16.8813153 C71.7425865,16.8813153 71.7722107,16.8854541 71.7976028,16.8937317 C71.8229949,16.9020092 71.8526191,16.906148 71.8864752,16.906148 Z M63.4562897,12.1382803 C62.8638068,11.7575131 62.296716,11.3353581 61.7550173,10.8718155 C61.2133187,10.4082728 60.67162,9.89506478 60.1299213,9.33219151 L60.1299213,9.33219151 L66.960403,9.33219151 C66.0124303,10.4248279 64.8443925,11.3601908 63.4562897,12.1382803 Z M68.5601068,23.8592884 C68.9663808,23.8592884 69.3176386,23.7144313 69.61388,23.4247171 C69.9101215,23.1350029 70.0582422,22.7914847 70.0582422,22.3941624 L70.0582422,22.3941624 L70.0582422,18.0732823 C70.0582422,17.6594049 69.9143535,17.3076091 69.6265761,17.0178949 C69.3387987,16.7281807 68.9833089,16.5833236 68.5601068,16.5833236 L68.5601068,16.5833236 L58.6571781,16.5833236 C58.2509041,16.5833236 57.8996463,16.7281807 57.6034049,17.0178949 C57.3071634,17.3076091 57.1590427,17.6676824 57.1590427,18.0981149 L57.1590427,18.0981149 L57.1590427,22.3941624 C57.1590427,22.7914847 57.3029314,23.1350029 57.5907088,23.4247171 C57.8784862,23.7144313 58.233976,23.8592884 58.6571781,23.8592884 L58.6571781,23.8592884 L68.5601068,23.8592884 Z M68.1284407,21.9720074 L59.1142363,21.9720074 L59.1142363,18.4706046 L68.1284407,18.4706046 L68.1284407,21.9720074 Z M79.4781497,8.81070598 C79.748999,8.81070598 79.9775282,8.71551418 80.1637371,8.52513057 C80.349946,8.33474697 80.4430505,8.1071144 80.4430505,7.84223286 L80.4430505,7.84223286 L80.4430505,5.80595603 L93.9262689,5.80595603 L93.9262689,7.84223286 C93.9262689,8.0905593 94.0193733,8.30991432 94.2055823,8.50029793 C94.3917912,8.69068153 94.6203203,8.78587334 94.8911696,8.78587334 C95.162019,8.78587334 95.3947801,8.69068153 95.5894531,8.50029793 C95.784126,8.30991432 95.8814625,8.08228175 95.8814625,7.81740021 L95.8814625,7.81740021 L95.8814625,5.35896844 C95.8814625,4.94509103 95.7206457,4.59743401 95.3990121,4.31599738 C95.0773786,4.03456075 94.6795686,3.89384243 94.2055823,3.89384243 L94.2055823,3.89384243 L88.9494124,3.89384243 C88.9324843,3.77795676 88.8901641,3.66207108 88.8224517,3.54618541 L88.8224517,3.54618541 L87.3497085,1.33608008 C87.2142838,1.10430873 87.0153788,0.963590412 86.7529935,0.913925124 C86.4906083,0.864259835 86.240919,0.905647576 86.0039259,1.03808834 C85.7669327,1.18708421 85.623044,1.38988414 85.5722597,1.64648813 C85.5214755,1.90309212 85.5722597,2.13900224 85.7246125,2.35421849 L85.7246125,2.35421849 L86.7149054,3.91867507 L80.1637371,3.91867507 C79.6897508,3.91867507 79.2919408,4.06353216 78.9703072,4.35324635 C78.6486736,4.64296053 78.4878568,4.98647877 78.4878568,5.38380108 L78.4878568,5.38380108 L78.4878568,7.84223286 C78.4878568,8.1071144 78.5851933,8.33474697 78.7798663,8.52513057 C78.9745392,8.71551418 79.2073004,8.81070598 79.4781497,8.81070598 Z M95.0689145,23.8344557 C95.3566919,23.8344557 95.5936851,23.7392639 95.779894,23.5488803 C95.9661029,23.3584967 96.0592074,23.1391417 96.0592074,22.8908152 C96.0592074,22.6259337 95.9618709,22.3983011 95.767198,22.2079175 C95.572525,22.0175339 95.3397638,21.9223421 95.0689145,21.9223421 L95.0689145,21.9223421 L88.060688,21.9223421 L88.060688,16.558491 L93.5707791,16.558491 C93.8585566,16.558491 94.0955497,16.4674379 94.2817586,16.2853319 C94.4679676,16.1032258 94.561072,15.879732 94.561072,15.6148505 C94.561072,15.349969 94.4637355,15.1223364 94.2690626,14.9319528 C94.0743896,14.7415692 93.8416285,14.6463774 93.5707791,14.6463774 L93.5707791,14.6463774 L88.060688,14.6463774 L88.060688,10.9463134 L94.3833271,10.9463134 C94.6711046,10.9463134 94.9080977,10.8552604 95.0943066,10.6731543 C95.2805156,10.4910482 95.37362,10.2675544 95.37362,10.0026729 C95.37362,9.73779137 95.2762835,9.51015879 95.0816106,9.31977519 C94.8869376,9.12939158 94.6541765,9.03419978 94.3833271,9.03419978 L94.3833271,9.03419978 L81.0524615,9.03419978 C80.7646841,9.03419978 80.5319229,9.12939158 80.354178,9.31977519 C80.1764332,9.51015879 80.0875607,9.73779137 80.0875607,10.0026729 C80.0875607,10.2675544 80.1806652,10.4910482 80.3668741,10.6731543 C80.553083,10.8552604 80.7816121,10.9463134 81.0524615,10.9463134 L81.0524615,10.9463134 L86.0801022,10.9463134 L86.0801022,14.6463774 L81.0524615,14.6463774 C80.7646841,14.6463774 80.5319229,14.7415692 80.354178,14.9319528 C80.1764332,15.1223364 80.0875607,15.349969 80.0875607,15.6148505 C80.0875607,15.879732 80.1806652,16.1032258 80.3668741,16.2853319 C80.553083,16.4674379 80.7816121,16.558491 81.0524615,16.558491 L81.0524615,16.558491 L86.0801022,16.558491 L86.0801022,21.9223421 L79.1988363,21.9223421 C78.927987,21.9223421 78.6994579,22.0175339 78.513249,22.2079175 C78.32704,22.3983011 78.2339356,22.6259337 78.2339356,22.8908152 C78.2339356,23.1391417 78.3312721,23.3584967 78.525945,23.5488803 C78.720618,23.7392639 78.9449151,23.8344557 79.1988363,23.8344557 L79.1988363,23.8344557 L95.0689145,23.8344557 Z" id="句客宝" stroke="#FFFFFF" stroke-width="0.707199981" fill="#FFFFFF" fill-rule="nonzero"></path>
                                <circle id="椭圆形" stroke="#FFFFFF" stroke-width="1.32626505" fill="#FC790D" fill-rule="nonzero" cx="91.9920012" cy="19.2355456" r="1.91571618"></circle>
                            </g>
                        </g>
                    </g>
                </g>
            </g>
        </g>
    </g>
</svg>