<?xml version="1.0" encoding="UTF-8"?>
<svg width="220px" height="254px" viewBox="0 0 220 254" version="1.1" xmlns="http://www.w3.org/2000/svg" xmlns:xlink="http://www.w3.org/1999/xlink">
    <title>10-员工绩效管理</title>
    <defs>
        <polygon id="path-1" points="0.756151107 0.20892902 19.7834532 0.20892902 19.7834532 34.2676927 0.756151107 34.2676927"></polygon>
        <polyline id="path-3" points="0 174.377672 171.158935 174.377672 171.158935 -3.58006688e-05 0 -3.58006688e-05"></polyline>
        <polygon id="path-5" points="0.0641872773 0.297148001 24.1823012 0.297148001 24.1823012 27.8275723 0.0641872773 27.8275723"></polygon>
        <polyline id="path-7" points="171.158773 0.266027634 171.158935 17.8431189 0 17.8431189 0 0.265342985"></polyline>
        <polygon id="path-9" points="0.668313324 0.681776918 2.84909756 0.681776918 2.84909756 3.7639666 0.668313324 3.7639666"></polygon>
        <polygon id="path-11" points="0.744220416 0.301957586 2.92508576 0.301957586 2.92508576 3.38422837 0.744220416 3.38422837"></polygon>
        <polygon id="path-13" points="0.154020267 0.221237664 2.33487912 0.221237664 2.33487912 3.30352791 0.154020267 3.30352791"></polygon>
        <polygon id="path-15" points="0.214849757 0.507196072 3.24043719 0.507196072 3.24043719 8.79534932 0.214849757 8.79534932"></polygon>
        <polygon id="path-17" points="0.700970064 0.680195351 19.4775927 0.680195351 19.4775927 29.5329037 0.700970064 29.5329037"></polygon>
        <polygon id="path-19" points="0.213146531 0.0781375069 19.0847251 0.0781375069 19.0847251 26.4592707 0.213146531 26.4592707"></polygon>
        <polygon id="path-21" points="0.752447545 0.626746506 6.89365681 0.626746506 6.89365681 9.92889208 0.752447545 9.92889208"></polygon>
        <polygon id="path-23" points="0.763901833 0.598831317 6.92878408 0.598831317 6.92878408 9.93323785 0.763901833 9.93323785"></polygon>
        <polygon id="path-25" points="0.587139753 0.190421815 6.75214233 0.190421815 6.75214233 9.52483325 0.587139753 9.52483325"></polygon>
    </defs>
    <g id="最新版备份" stroke="none" stroke-width="1" fill="none" fill-rule="evenodd">
        <g id="十大功能" transform="translate(-1103.000000, -480.000000)">
            <g id="10-员工绩效管理" transform="translate(1103.000000, 480.000000)">
                <rect id="矩形" fill="#FFFDF8" x="0" y="0" width="219.310578" height="253.050667" rx="16.6399984"></rect>
                <text id="员工绩效管理" font-family="FZLTCHJW--GB1-0, FZLanTingHeiS-B-GB" font-size="26.6239974" font-weight="normal" fill="#000000" fill-opacity="0.7">
                    <tspan x="29.7832967" y="227.498321">员工绩效管理</tspan>
                </text>
                <g id="编组" transform="translate(19.262673, 19.262673)">
                    <path d="M123.313379,78.0706755 C123.313379,78.0706755 108.170891,83.3701407 114.03015,104.095632 C117.112421,114.999967 131.709714,111.641433 131.709714,111.641433 L127.529674,107.279699 L123.313379,78.0706755 Z" id="Fill-1" fill="#F4A28C"></path>
                    <g>
                        <g transform="translate(111.926261, 77.861747)">
                            <mask id="mask-2" fill="white">
                                <use xlink:href="#path-1"></use>
                            </mask>
                            <g id="Clip-4"></g>
                            <path d="M11.3871182,0.20892902 C11.3871182,0.20892902 -3.75536936,5.50839414 2.10388928,26.2338853 C5.18616006,37.1382201 19.7834532,33.7796861 19.7834532,33.7796861 L15.6034129,29.4179522 L11.3871182,0.20892902 Z" id="Fill-3" fill-opacity="0.08" fill="#000000" mask="url(#mask-2)"></path>
                        </g>
                        <mask id="mask-4" fill="white">
                            <use xlink:href="#path-3"></use>
                        </mask>
                        <g id="Clip-6"></g>
                        <path d="M50.4214665,67.442466 C49.0540682,65.7603279 46.5816901,65.5044385 44.8995195,66.8725343 C44.4080984,67.2716568 44.0206307,67.7841655 43.7698267,68.3656955 C42.3159208,71.8260012 41.2691021,76.7620304 43.6462455,81.8071472 C48.0079794,91.1194121 54.2307146,98.054566 60.6715356,89.9344536 C67.1123647,81.8143656 66.3272506,71.9569063 66.3272506,71.9569063 C66.3272506,71.9569063 66.3635942,66.1412016 63.7392884,66.5047186 C61.1149825,66.8681545 63.7392884,71.8478188 63.7392884,71.8478188 L56.2225721,85.2383359 C56.4755498,78.8040359 54.4175422,72.4918814 50.4214665,67.442466" id="Fill-5" fill="#F4A28C" mask="url(#mask-4)"></path>
                    </g>
                    <g transform="translate(42.175113, 65.695849)">
                        <mask id="mask-6" fill="white">
                            <use xlink:href="#path-5"></use>
                        </mask>
                        <g id="Clip-8"></g>
                        <path d="M8.24635379,1.74661741 C6.87895553,0.0644792588 4.40657743,-0.191410127 2.72440684,1.17668564 C2.23298567,1.5758082 1.84551805,2.08831693 1.59471401,2.66984685 C0.140808102,6.13015263 -0.906010637,11.0661818 1.47113282,16.1112986 C5.83286675,25.4235635 12.0556019,32.3587173 18.4964229,24.238605 C24.937252,16.118517 24.1521379,6.26105769 24.1521379,6.26105769 C24.1521379,6.26105769 24.1884815,0.445352969 21.5641757,0.808869998 C18.9398698,1.17230592 21.5641757,6.15197014 21.5641757,6.15197014 L14.0474594,19.5424873 C14.3004371,13.1081872 12.2424295,6.79603277 8.24635379,1.74661741" id="Fill-7" fill-opacity="0.08" fill="#000000" mask="url(#mask-6)"></path>
                    </g>
                    <g transform="translate(0.000000, 27.373272)">
                        <g transform="translate(0.000000, 129.161281)">
                            <mask id="mask-8" fill="white">
                                <use xlink:href="#path-7"></use>
                            </mask>
                            <g id="Clip-10"></g>
                        </g>
                        <path d="M85.199324,4.36852898 C85.9327654,5.70247913 86.4808796,7.13091776 86.8276888,8.61394071 C86.9541331,9.36198122 86.4496538,10.0707664 85.7016133,10.1972107 C85.6986935,10.1979406 85.6965036,10.1986706 85.6936649,10.1986706 C84.5312539,10.467618 83.3186384,10.0293213 82.5967951,9.07916465 L80.8884516,7.22540623 C80.2603668,6.39017679 80.2312822,5.24885336 80.8157563,4.38304696 C81.8116891,2.73286456 84.472371,2.87098806 85.199324,4.36852898" id="Fill-11" fill="#F4A28C"></path>
                        <polygon id="Fill-13" fill="#F4A28C" points="81.8768983 6.7818376 81.2589518 15.7306666 86.2167985 15.723367 84.6757037 9.2099075"></polygon>
                        <path d="M84.6249314,4.71744694 C83.8652927,5.09037226 83.0648577,5.37318883 82.2404965,5.56070587 C83.0198439,6.05504686 83.423995,6.97097675 83.2655139,7.87968822 C83.13396,8.76074255 82.3967877,9.42589274 81.5063251,9.46449919 L80.1323491,6.22950583 C79.6968992,5.30189667 79.8052163,4.21004789 80.4158632,3.38714655 C80.676108,3.03595763 80.9581703,2.7008277 81.2591141,2.38394661 C82.0224025,1.6060591 83.6508485,1.65699366 84.2105609,0.631976211 C84.3988079,0.318663787 84.80523,0.217605729 85.1185424,0.405852722 C85.210841,0.461815852 85.2886216,0.538866539 85.3445848,0.631976211 C85.9188963,1.54790611 86.4205368,3.16905256 85.3445848,4.26674097 C85.1316005,4.45571792 84.8881203,4.60835938 84.6249314,4.71744694" id="Fill-14" fill="#24285B"></path>
                        <path d="M83.4833646,7.69054906 C83.4833646,7.69054906 83.0399582,6.73098414 82.3493407,7.13075555 C81.6587232,7.53060806 82.2911877,8.90454346 83.3307231,8.58466145 L83.4833646,7.69054906 Z" id="Fill-15" fill="#F4A28C"></path>
                        <path d="M85.9553128,5.9242229 L87.0748188,6.58580443 C87.275475,6.71881824 87.3307082,6.9892256 87.1969644,7.19061176 C87.1650086,7.23862651 87.1228335,7.28072052 87.0748188,7.31275738 L86.1952244,7.91610481 L85.9553128,5.9242229 Z" id="Fill-16" fill="#F4A28C"></path>
                    </g>
                    <g transform="translate(33.456221, 36.497696)">
                        <g transform="translate(49.271884, -0.000002)">
                            <mask id="mask-10" fill="white">
                                <use xlink:href="#path-9"></use>
                            </mask>
                            <g id="Clip-18"></g>
                            <path d="M2.34761276,1.49599991 C1.71952801,1.39640176 1.13580823,1.11285523 0.668313324,0.681776918 C0.972947407,1.95035564 1.75367363,3.05453254 2.84917218,3.7640477 L2.34761276,1.49599991 Z" id="Fill-17" fill-opacity="0.31" fill="#CE8172" mask="url(#mask-10)"></path>
                        </g>
                        <path d="M5.60301039,15.1334826 C6.33287505,16.4696226 6.88099741,17.8974124 7.23139149,19.3788944 C7.35787628,20.1269349 6.85337271,20.83645 6.1053322,20.9629754 C6.10242861,20.9629754 6.10024686,20.9637053 6.09734326,20.9637053 C4.93130684,21.2333827 3.71655815,20.7885164 3.00051396,19.8296003 L1.28489526,17.975923 C0.661895847,17.1391526 0.632819351,16.0007489 1.21219996,15.1334826 C2.1790482,13.4978182 4.86878223,13.6287233 5.60301039,15.1334826" id="Fill-19" fill="#F4A28C"></path>
                        <polygon id="Fill-21" fill="#F4A28C" points="2.28097409 17.5471968 1.66306003 26.4960257 6.62089051 26.4887262 5.07974701 19.9752667"></polygon>
                        <path d="M6.35199173,16.6747397 L7.47877286,17.3290217 C7.67941285,17.4620355 7.73393229,17.7331728 7.60090225,17.9330991 C7.56891405,17.9817627 7.527477,18.0232078 7.47877286,18.0559746 L6.60642932,18.6593221 L6.35199173,16.6747397 Z" id="Fill-22" fill="#F4A28C"></path>
                    </g>
                    <g transform="translate(36.497696, 56.774194)">
                        <g transform="translate(-0.000002, -0.000003)">
                            <mask id="mask-12" fill="white">
                                <use xlink:href="#path-11"></use>
                            </mask>
                            <g id="Clip-24"></g>
                            <path d="M2.42348741,1.10888104 C1.79685446,1.01001284 1.21311034,0.729467238 0.744220416,0.301957586 C1.05462925,1.56834645 1.833928,2.67041459 2.92508738,3.38422837 L2.42348741,1.10888104 Z" id="Fill-23" fill-opacity="0.31" fill="#CE8172" mask="url(#mask-12)"></path>
                        </g>
                        <path d="M96.2006999,7.76046067 C95.4700972,9.09660068 94.9227129,10.5243094 94.572335,12.0058724 C94.4458097,12.7539129 94.95037,13.4634281 95.6991405,13.5899534 C95.7013304,13.5899534 95.7034391,13.5906834 95.7063589,13.5906834 C96.8716897,13.8545211 98.0834943,13.4103848 98.8032288,12.4565784 L100.518864,10.5956015 C101.141109,9.76029097 101.167306,8.62334725 100.584235,7.76046067 C99.6537873,6.11757782 96.9276529,6.25570131 96.2006999,7.76046067" id="Fill-25" fill="#F4A28C"></path>
                        <polygon id="Fill-27" fill="#F4A28C" points="99.5522426 10.1667131 100.170189 19.1227605 95.2116124 19.1082425 96.7527884 12.6020014"></polygon>
                        <path d="M95.473747,9.31623569 L94.3469415,9.97051768 C94.1463664,10.1107499 94.0968918,10.3869969 94.2379351,10.5883831 C94.267701,10.6305582 94.3048475,10.6676236 94.3469415,10.6974706 L95.226617,11.3008181 L95.473747,9.31623569 Z" id="Fill-28" fill="#F4A28C"></path>
                    </g>
                    <g transform="translate(30.414747, 0.000000)">
                        <g transform="translate(101.788011, 69.751148)">
                            <mask id="mask-14" fill="white">
                                <use xlink:href="#path-13"></use>
                            </mask>
                            <g id="Clip-30"></g>
                            <path d="M0.648280146,1.03539902 C1.27709485,0.932151097 1.8630856,0.650145583 2.33487912,0.221176024 C2.02513536,1.48829484 1.2451391,2.58963303 0.154020267,3.30352791 L0.648280146,1.03539902 Z" id="Fill-29" fill-opacity="0.31" fill="#CE8172" mask="url(#mask-14)"></path>
                        </g>
                        <path d="M5.34411215,57.0762289 L3.27228408,54.2920226 C3.27228408,54.2920226 0.364464156,53.6377406 1.13503591,52.1111637 C1.90560766,50.5845057 3.70118875,51.1588172 3.17777938,49.4504818 C2.65437001,47.7421465 4.87158868,47.3568119 5.71485573,48.3527934 C6.55812277,49.3486938 6.70351336,48.5635879 7.81575219,48.2291879 C8.92799913,47.8947879 10.4109896,48.7816819 9.87303797,50.1410993 C9.3350944,51.5005167 6.42727449,52.9907581 6.42727449,52.9907581 C6.42727449,52.9907581 8.49909445,54.517335 6.64536037,56.2111524 L5.34411215,57.0762289 Z" id="Fill-31" fill="#24285B"></path>
                        <polygon id="Fill-33" fill="#FFD200" points="54.6462917 15.6906018 56.4709493 15.6906018 56.4709493 10.03489 54.6462917 10.03489"></polygon>
                        <path d="M49.7167996,-8.1105986e-05 L62.2116959,0.467332691 L61.9674857,7.00488069 C61.8743761,9.48818377 59.7858969,11.4262113 57.3025938,11.3339127 L53.8015729,11.2030076 C51.3182698,11.1099791 49.3802179,9.02141882 49.4725409,6.53819685 L49.7167996,-8.1105986e-05 Z" id="Fill-34" fill="#FFD200"></path>
                        <polygon id="Fill-35" fill="#24285B" points="52.4290974 19.2235786 59.0225809 19.2235786 59.0225809 14.2512042 52.4290974 14.2512042"></polygon>
                    </g>
                    <g transform="translate(75.023041, 1.013825)">
                        <polygon id="Fill-36" fill-opacity="0.13" fill="#FFFFFF" points="9.35467884 14.3932856 12.8876815 14.3932856 12.8876815 17.0612118 9.35467884 17.0612118"></polygon>
                        <path d="M4.25127933,1.41724594 C2.80027702,1.49356667 1.68512649,2.73229839 1.76145533,4.18328448 C1.83269883,5.52818394 2.90641231,6.60186498 4.25127933,6.67315715 L9.4490051,6.67315715 L9.4490051,1.41724594 L4.25127933,1.41724594 Z M10.2704465,7.50189811 L4.25127933,7.50189811 C2.3444776,7.50189811 0.798240642,5.95561249 0.798240642,4.04881076 C0.798240642,2.14200903 2.3444776,0.595804512 4.25127933,0.595804512 L10.2704465,0.595804512 L10.2704465,7.50189811 Z" id="Fill-38" fill="#FFD200"></path>
                        <path d="M13.6072279,6.67315715 L18.7976866,6.67315715 C20.2494837,6.59683641 21.36388,5.35810469 21.2868293,3.9071186 C21.216997,2.56221914 20.142586,1.48780815 18.7976866,1.41724594 L13.6072279,1.41724594 L13.6072279,6.67315715 Z M18.7976866,7.50189811 L12.778568,7.50189811 L12.778568,0.595804512 L18.7976866,0.595804512 C20.7052183,0.595804512 22.2507739,2.14200903 22.2507739,4.04881076 C22.2507739,5.95561249 20.7052183,7.50189811 18.7976866,7.50189811 L18.7976866,7.50189811 Z" id="Fill-40" fill="#FFD200"></path>
                    </g>
                    <g transform="translate(21.290323, 0.000000)">
                        <g transform="translate(59.815663, 0.811060)">
                            <mask id="mask-16" fill="white">
                                <use xlink:href="#path-15"></use>
                            </mask>
                            <g id="Clip-42"></g>
                            <path d="M0.342105049,1.47450682 C0.0948940036,3.29184865 -0.0722897653,7.18834243 2.65378786,8.74403635 C2.84211596,8.85093403 3.08194636,8.7854815 3.189574,8.59723451 C3.25640534,8.47800871 3.25786524,8.33331563 3.19176387,8.21335988 C2.0758266,6.17208442 1.75237593,3.79056936 2.2830524,1.52536028 C2.37973073,1.06954464 2.08823582,0.622488442 1.63315013,0.525810107 C1.56696765,0.511292135 1.50013632,0.505452504 1.43249392,0.507642366 C0.879269994,0.513481997 0.414776012,0.925662618 0.342105049,1.47450682" id="Fill-41" fill-opacity="0.43" fill="#FFFFFF" mask="url(#mask-16)"></path>
                        </g>
                        <polygon id="Fill-43" fill="#B2B2B2" points="85.4848969 163.742312 127.953621 163.742312 127.953621 144.557964 85.4848969 144.557964"></polygon>
                        <polygon id="Fill-45" fill="#C9C9C9" points="1.20167313 163.74159 43.6703976 163.74159 43.6703976 132.250618 1.20167313 132.250618"></polygon>
                        <polygon id="Fill-46" fill="#E6E6E6" points="43.6703976 163.742312 86.1391221 163.742312 86.1391221 120.357617 43.6703976 120.357617"></polygon>
                        <path d="M58.9363123,17.1518884 C58.9363123,17.1518884 59.8595417,13.3354462 61.5024246,15.821588 C63.1453885,18.3078109 61.3789001,20.2923933 60.3393647,20.4159177 C59.2997887,20.5395232 45.4440233,28.6450932 45.9383481,35.7910983 C46.4326809,42.9370223 61.6769646,45.9684397 55.9848736,56.145781 C50.2928149,66.3232034 38.8868882,48.374692 38.0218118,42.6825928 C37.1567353,36.9905748 34.9322496,24.8212704 58.9363123,17.1518884" id="Fill-47" fill="#F4A28C"></path>
                        <path d="M70.284013,17.7695105 C70.284013,17.7695105 69.354214,13.9457688 67.7185495,16.4392101 C66.0829662,18.9326514 67.8421551,20.9027158 68.874472,21.0263213 C69.905978,21.1499268 83.7835366,29.2554158 83.2746776,36.4014209 C82.7658187,43.5473449 67.9294251,45.4229208 73.6061953,55.5639266 C79.2836954,65.7050136 90.3261943,49.0213501 91.1839712,43.3002149 C92.042478,37.5790798 94.2887894,25.402557 70.284013,17.7695105" id="Fill-48" fill="#F4A28C"></path>
                        <path d="M59.9688726,43.1040196 L64.9267193,43.1040196 C64.9267193,43.1040196 82.3372547,43.5547255 81.0287718,57.4177662 C79.7202889,71.2808068 72.3053364,82.9048356 72.3053364,82.9048356 L54.4294797,81.8871177 C54.4294797,81.8871177 35.019771,43.6565135 59.9688726,43.1040196" id="Fill-49" fill="#FC790D"></path>
                        <path d="M60.121514,40.9376787 C60.121514,40.9376787 56.0869373,42.6823495 57.693509,47.8801077 C59.3000807,53.077866 63.0657424,57.9193256 63.0657424,57.9193256 L64.6649903,57.3596132 C64.6649903,57.3596132 57.1264809,47.0586663 59.9688726,43.1040196 L60.121514,40.9376787 Z" id="Fill-50" fill="#24285B"></path>
                        <path d="M64.3885,40.8141542 C64.3885,40.8141542 67.7767836,41.3811662 67.0272832,47.8656709 C66.6282418,51.1849334 65.8372962,54.4445829 64.6719654,57.5777883 L63.007265,57.4978178 C63.007265,57.4978178 65.5588593,49.2541243 64.7519359,43.0895827 L64.3885,40.8141542 Z" id="Fill-51" fill="#24285B"></path>
                        <path d="M65.0863359,55.5640889 C67.2425385,55.5640889 68.9908591,57.3116795 68.9908591,59.4678822 C68.9908591,61.6240037 67.2425385,63.3715944 65.0863359,63.3715944 C62.9309443,63.3715944 61.1826237,61.6240037 61.1826237,59.4678822 C61.1826237,57.3116795 62.9309443,55.5640889 65.0863359,55.5640889" id="Fill-52" fill="#FFD200"></path>
                        <path d="M54.4219936,81.8800615 L57.3298136,117.086475 L60.0413813,117.086475 L61.3643822,94.2673463 C61.5301628,91.3522674 63.095265,88.6981551 65.56624,87.1431911 L72.3123926,82.8977794 L54.4219936,81.8800615 Z" id="Fill-53" fill="#F4A28C"></path>
                        <polygon id="Fill-54" fill="#F4A28C" points="72.2980368 82.8976983 75.9830062 117.086402 73.0613253 117.086402 64.2942548 85.6746861"></polygon>
                        <polygon id="Fill-55" fill="#24285B" points="54.4219936 81.8800615 53.1716313 95.5605974 62.4475526 96.3028226 64.1704871 91.2279319 65.071899 96.3028226 75.3219924 96.3028226 72.2977935 82.8977794"></polygon>
                        <path d="M57.3152713,117.086256 C57.3152713,117.086256 52.3065549,118.671018 53.1716313,120.357552 L60.4411527,120.357552 L59.9977463,117.086256 L57.3152713,117.086256 Z" id="Fill-56" fill="#FC790D"></path>
                        <path d="M75.6566357,117.086256 C75.6566357,117.086256 80.6653359,118.671018 79.7995295,120.357552 L72.4936645,120.357552 L72.9378008,117.086256 L75.6566357,117.086256 Z" id="Fill-57" fill="#FC790D"></path>
                        <path d="M13.8288856,62.9934783 L18.7867161,62.9934783 C18.7867161,62.9934783 32.4462051,62.9934783 32.2571957,76.8855549 C32.0681944,90.7783614 27.3139075,97.6764742 27.3139075,97.6764742 L9.48896111,97.6764742 C9.48896111,97.6764742 -12.9012628,66.2574265 13.8288856,62.9934783" id="Fill-58" fill="#FC790D"></path>
                        <path d="M16.9039056,54.8297553 C16.9039056,54.8297553 16.4604586,53.8774088 15.7698573,54.2699617 C15.079248,54.6625147 15.7116962,56.0510492 16.7512479,55.7238676 L16.9039056,54.8297553 Z" id="Fill-59" fill="#F4A28C"></path>
                    </g>
                    <g transform="translate(19.262673, 60.829493)">
                        <g transform="translate(9.124422, 7.299535)">
                            <mask id="mask-18" fill="white">
                                <use xlink:href="#path-17"></use>
                            </mask>
                            <g id="Clip-61"></g>
                            <path d="M2.69023689,0.680073692 C2.69023689,0.680073692 8.02609427,8.34945572 9.0656378,14.7684268 C10.1051813,21.1874789 14.1543247,12.1950149 14.1543247,12.1950149 L16.3860775,5.71059136 C16.3860775,5.71059136 21.678308,7.82599769 18.4142787,13.3218204 C15.1502494,18.817562 11.5736295,24.9022142 15.0339434,29.5329037 L2.39218861,29.5329037 C2.39218861,29.5329037 1.27994979,27.9481414 0.771082719,27.0539884 C0.262207542,26.1598355 2.69023689,0.680073692 2.69023689,0.680073692" id="Fill-60" fill-opacity="0.08" fill="#000000" mask="url(#mask-18)"></path>
                        </g>
                        <path d="M16.0237354,0.150529084 C16.0237354,0.150529084 12.2581061,2.0042875 13.8428684,7.19474618 C15.4276307,12.3852049 19.2077942,17.2412635 19.2077942,17.2412635 L20.8070988,16.6815511 C20.8070988,16.6815511 13.1886108,6.1043573 16.0310025,2.14241099 L16.0237354,0.150529084 Z" id="Fill-62" fill="#24285B"></path>
                        <path d="M20.3126929,0.0558783986 C20.3126929,0.0558783986 23.9474739,0.71737882 23.1623599,7.19458396 C22.7676251,10.5160363 21.9788775,13.7786057 20.8142929,16.9139198 L19.1495682,16.8267309 C19.1495682,16.8267309 21.7011788,8.58303734 20.8869882,2.4257142 L20.3126929,0.0558783986 Z" id="Fill-64" fill="#24285B"></path>
                        <path d="M20.2474188,14.9658351 C22.4035647,14.9658351 24.1511635,16.7134258 24.1511635,18.8696284 C24.1511635,21.02502 22.4035647,22.7733406 20.2474188,22.7733406 C18.0912649,22.7733406 16.3436661,21.02502 16.3436661,18.8696284 C16.3436661,16.7134258 18.0912649,14.9658351 20.2474188,14.9658351" id="Fill-65" fill="#FFD200"></path>
                        <path d="M11.8146592,7.9796088 C11.0462692,5.95212137 8.78035446,4.93148364 6.75287513,5.69915179 C6.15895222,5.92446422 5.62827575,6.29017111 5.20663817,6.7655333 C2.74226523,9.59345571 0.205188886,13.9478739 0.84491235,19.4872505 C2.08073237,29.6646729 5.79547574,38.242734 14.4535073,32.5724848 C23.111547,26.9022031 25.4741481,17.2482387 25.4741481,17.2482387 C25.4741481,17.2482387 27.3278903,11.7597155 24.7471952,11.2654556 C22.1665081,10.7711146 23.0897376,16.3541263 23.0897376,16.3541263 L11.7492391,26.7132261 C14.0093385,20.6773186 14.0325997,14.0314942 11.8146592,7.9796088" id="Fill-66" fill="#F4A28C"></path>
                        <polygon id="Fill-67" fill="#F4A28C" points="11.5164649 36.8327308 14.489713 69.5013784 17.1212941 69.5013784 20.1381529 44.2549504 29.3341361 36.8327308"></polygon>
                        <polygon id="Fill-68" fill="#F4A28C" points="29.3343551 36.8327308 34.2921937 69.5013784 31.3189456 69.5013784 21.8903341 40.5467442"></polygon>
                        <polygon id="Fill-69" fill="#24285B" points="11.5164649 36.8327308 11.5164649 50.564915 21.4466763 49.8234279 21.8901152 44.625694 29.3341361 36.8327308"></polygon>
                        <polygon id="Fill-70" fill="#24285B" points="21.8901152 42.4012812 23.2713339 49.6999116 33.1724607 48.9584163 29.3341361 36.8328038"></polygon>
                        <path d="M17.0779672,68.13514 C17.0779672,68.13514 22.0866836,69.7206241 21.2216072,71.4064364 L13.9520533,71.4064364 L14.3955003,68.13514 L17.0779672,68.13514 Z" id="Fill-71" fill="#FC790D"></path>
                        <path d="M33.6814737,68.13514 C33.6814737,68.13514 38.6901982,69.7206241 37.8251218,71.4064364 L30.562835,71.4064364 L31.006282,68.13514 L33.6814737,68.13514 Z" id="Fill-72" fill="#FC790D"></path>
                        <path d="M117.535549,14.4788748 L112.578433,14.4788748 C112.578433,14.4788748 98.9109386,14.4788748 99.1006455,28.3702214 C99.2889736,42.2630928 104.050544,49.161895 104.050544,49.161895 L121.868231,49.161895 C121.868231,49.161895 144.266379,17.7865391 117.535549,14.4788748" id="Fill-73" fill="#FC790D"></path>
                        <path d="M117.172032,12.4577136 C117.172032,12.4577136 120.865031,14.4495955 119.055638,19.5819012 C117.245514,24.7142069 113.305386,29.417543 113.305386,29.417543 L111.727874,28.7923781 C111.727874,28.7923781 119.724438,18.5205483 117.063756,14.4641135 L117.172032,12.4577136 Z" id="Fill-74" fill="#24285B"></path>
                        <path d="M113.115598,12.2252638 C113.115598,12.2252638 109.226403,12.7195237 109.728693,19.2257648 C109.99837,22.5559766 110.662142,25.8432833 111.706057,29.0178527 L113.370757,29.0178527 C113.370757,29.0178527 110.462945,19.4293408 112.578352,14.4787937 L113.115598,12.2252638 Z" id="Fill-75" fill="#24285B"></path>
                        <path d="M112.192612,27.0912611 C114.348814,27.0912611 116.096405,28.8388518 116.096405,30.9949733 C116.096405,33.1511435 114.348814,34.8987423 112.192612,34.8987423 C110.03649,34.8987423 108.288899,33.1511435 108.288899,30.9949733 C108.288899,28.8388518 110.03649,27.0912611 112.192612,27.0912611" id="Fill-76" fill="#FFD200"></path>
                        <polygon id="Fill-77" fill="#F4A28C" points="121.86815 49.1469228 118.894886 81.8162923 116.263321 81.8162923 113.247152 56.5691344 104.050463 49.1469228"></polygon>
                        <polygon id="Fill-78" fill="#F4A28C" points="104.050706 49.1469228 99.1000777 81.8162923 102.066772 81.8162923 111.501994 52.8616581"></polygon>
                        <polygon id="Fill-79" fill="#24285B" points="121.86815 49.1469228 121.86815 62.8798289 111.945887 62.1376118 111.501751 56.9406079 104.050463 49.1469228"></polygon>
                    </g>
                    <g transform="translate(114.562212, 60.829493)">
                        <g transform="translate(16.018425, 22.709672)">
                            <mask id="mask-20" fill="white">
                                <use xlink:href="#path-19"></use>
                            </mask>
                            <g id="Clip-81"></g>
                            <path d="M8.27483822,0.0781050645 C8.27483822,0.0781050645 6.00679043,4.99231675 10.5502667,10.4662571 C15.0936618,15.9402298 0.212903213,26.4592707 0.212903213,26.4592707 L9.99047314,26.4592707 L18.1541962,18.4627639 L19.0847251,7.88552948 L8.27483822,0.0781050645 Z" id="Fill-80" fill-opacity="0.08" fill="#000000" mask="url(#mask-20)"></path>
                        </g>
                        <polygon id="Fill-82" fill="#24285B" points="16.2024549 54.7155382 14.8219499 62.0141766 4.91282606 61.2734032 8.75116684 49.1470607"></polygon>
                        <path d="M21.0439956,80.4500539 C21.0439956,80.4500539 16.0352954,82.0348162 16.9003719,83.7213503 L24.1699014,83.7213503 L23.726495,80.4500539 L21.0439956,80.4500539 Z" id="Fill-84" fill="#FC790D"></path>
                        <path d="M4.41134775,80.4500539 C4.41134775,80.4500539 -0.604651954,82.0348162 0.260424492,83.7213503 L7.5663706,83.7213503 L7.12215312,80.4500539 L4.41134775,80.4500539 Z" id="Fill-85" fill="#FC790D"></path>
                        <path d="M20.3170427,0.419314322 C19.1320842,0.202680233 17.9966004,0.987786177 17.7799663,2.17274463 C17.7087552,2.55945797 17.7443608,2.95858053 17.8817543,3.32712613 C18.1020382,3.779292 18.4683939,4.14280903 18.9212897,4.35944312 C20.8550187,5.33352601 18.4487663,7.41259685 21.6691605,8.29949081 C21.6691605,8.29949081 25.3040064,6.67842547 24.0099604,4.54842007 C24.0099604,4.54842007 24.4243309,1.29890874 22.3888951,0.913655306 C21.5746721,0.73919633 20.8913541,0.535620305 20.3170427,0.419314322" id="Fill-86" fill="#24285B"></path>
                        <path d="M19.8811791,7.02004388 C19.8811791,7.02004388 20.3238556,6.0677785 21.015203,6.46033147 C21.7058204,6.85288445 21.073356,8.24133782 20.0338205,7.91423738 L19.8811791,7.02004388 Z" id="Fill-87" fill="#F4A28C"></path>
                        <path d="M24.6787604,19.9164634 C25.3563198,17.6295179 27.7581924,16.3246037 30.0451379,17.0014331 C30.4624282,17.1249576 30.8593609,17.3118258 31.221418,17.553846 C35.3577422,20.2799804 41.1733658,25.3541331 41.5295833,32.4855391 C42.0893768,43.6224941 26.0309594,50.2079838 26.0309594,50.2079838 C26.0309594,50.2079838 26.1036303,54.0761148 24.3952949,53.6762866 C22.6869596,53.2764585 23.9954424,47.9187998 23.9954424,47.9187998 C23.9954424,47.9187998 34.0129239,40.2494259 32.064677,34.4628625 C30.3708596,29.5995448 22.4979015,27.186074 24.6787604,19.9164634" id="Fill-88" fill="#F4A28C"></path>
                    </g>
                    <g transform="translate(81.917046, 135.446997)">
                        <mask id="mask-22" fill="white">
                            <use xlink:href="#path-21"></use>
                        </mask>
                        <g id="Clip-89"></g>
                        <text id="1" mask="url(#mask-22)" font-family="Arial-BoldMT, Arial" font-size="10.8918722" font-weight="bold" fill="#000000">
                            <tspan x="0.752447545" y="7.85285594">1</tspan>
                        </text>
                    </g>
                    <g transform="translate(39.081654, 143.241610)">
                        <mask id="mask-24" fill="white">
                            <use xlink:href="#path-23"></use>
                        </mask>
                        <g id="Clip-90"></g>
                        <text id="2" mask="url(#mask-24)" font-family="Arial-BoldMT, Arial" font-size="10.8918722" font-weight="bold" fill="#000000">
                            <tspan x="0.763901833" y="7.83786286">2</tspan>
                        </text>
                    </g>
                    <g transform="translate(123.758573, 148.938719)">
                        <mask id="mask-26" fill="white">
                            <use xlink:href="#path-25"></use>
                        </mask>
                        <g id="Clip-91"></g>
                        <text id="3" mask="url(#mask-26)" font-family="Arial-BoldMT, Arial" font-size="10.8918722" font-weight="bold" fill="#000000">
                            <tspan x="0.587139753" y="7.42945826">3</tspan>
                        </text>
                    </g>
                </g>
                <g id="独家解决方案备份" transform="translate(24.461564, 151.310833)">
                    <rect id="Rectangle-3" fill="#FC790D" x="0" y="0" width="170.724849" height="33.4743518" rx="3.6022268"></rect>
                    <text id="独家功能" font-family="FZLTCHJW--GB1-0, FZLanTingHeiS-B-GB" font-size="18.011134" font-weight="normal" line-spacing="21.6133608" fill="#FFFFFF">
                        <tspan x="88.2357293" y="21.6657936">独家功能</tspan>
                    </text>
                    <g id="句客宝logo" transform="translate(7.586043, 6.804206)">
                        <path d="M8.5045812,-1.54758361e-13 C10.8112375,-1.54758361e-13 12.8057681,0.840190548 14.4873285,2.51821487 C16.1682133,4.19724924 17.0093313,6.18872473 17.0093313,8.49129462 C17.0093313,13.6068447 13.4313707,17.3731406 6.27595631,19.7940543 L6.27595631,19.7940543 L6.27595631,16.690349 C4.35962604,16.1429037 2.8344663,15.0988521 1.7008149,13.5571841 C0.566319003,12.0151794 0,10.3273913 0,8.49129462 C0,6.18872473 0.840104599,4.19724924 2.52200279,2.51821487 C4.20254978,0.840190548 6.19691149,-1.54758361e-13 8.5045812,-1.54758361e-13 Z M8.58225794,5.2306954 C6.81253216,5.18709504 5.34614935,6.43618618 5.30679584,8.02094952 C5.26761122,9.60554452 6.67031904,10.9251706 8.44021371,10.9691076 C8.51132027,10.9712961 8.58090674,10.9669192 8.65066211,10.9650674 C8.65066211,10.9654041 8.95214717,11.178019 9.2828518,11.3477068 C9.65155874,11.5364172 10.1045464,11.6631781 10.3678602,11.6406204 C10.7162993,11.610824 10.7711915,11.3874353 10.7014361,11.2731317 C10.6352277,11.164215 10.5195317,11.1593331 10.4077204,11.0893032 C10.2734456,11.0047959 10.2139931,10.9620373 10.158763,10.8308996 C10.0954258,10.6798976 10.1687281,10.5677824 10.3080699,10.4928706 L10.3218071,10.4797026 C10.326236,10.4754379 10.3316595,10.4702006 10.3379651,10.4640842 C11.1498635,9.96225936 11.6920299,9.1326743 11.7156758,8.17919018 C11.7550293,6.59476352 10.3523215,5.27463243 8.58225794,5.2306954 Z" id="形状结合" fill="#FFFFFF"></path>
                        <path d="M31.6453564,18.3197822 C32.0357836,18.3197822 32.4576967,18.23199 32.911096,18.0564057 C33.3644952,17.8808213 33.7864084,17.5986322 34.1768355,17.2098383 C34.5672626,16.8210443 34.8978662,16.3131039 35.1686463,15.6860169 C35.4394264,15.05893 35.5811137,14.2938839 35.5937081,13.3908786 L35.5937081,13.3908786 L35.6881663,4.79351628 C35.7133551,4.36709715 35.5748165,4.0033867 35.2725503,3.70238496 C34.9576897,3.38884147 34.5609654,3.23206973 34.0823773,3.23206973 L34.0823773,3.23206973 L26.3556987,3.23206973 C26.4438597,2.98123495 26.5257234,2.71472298 26.6012899,2.43253385 C26.6768565,2.15034471 26.7650174,1.8524784 26.8657728,1.53893492 C26.928745,1.35080883 26.9098533,1.17208904 26.8090979,1.00277556 C26.7083425,0.833462079 26.5635067,0.71745099 26.3745903,0.654742293 C26.1730796,0.592033596 25.9873118,0.610846205 25.8172871,0.71118012 C25.6472624,0.811514035 25.530764,0.955744037 25.4677919,1.14387013 C25.2536867,1.88383275 25.0490273,2.54854494 24.8538137,3.13800669 C24.6586002,3.72746844 24.4539408,4.26989867 24.2398356,4.76529737 C24.0257304,5.26069608 23.789585,5.72474043 23.5313993,6.15743044 C23.2732136,6.59012045 22.9740961,7.01967502 22.6340466,7.44609416 C22.5081024,7.60913677 22.4577247,7.78785656 22.4829136,7.98225352 C22.5081024,8.17665048 22.6025606,8.33655766 22.7662881,8.46197505 C22.9048267,8.56230896 23.0496626,8.61247592 23.2007957,8.61247592 C23.3015511,8.61247592 23.4054551,8.59052788 23.5125077,8.54663179 C23.6195603,8.5027357 23.7108698,8.4306207 23.7864364,8.33028679 C24.25243,7.74082504 24.6460057,7.16076959 24.9671635,6.59012045 C25.2883213,6.01947131 25.5811417,5.37670716 25.8456246,4.66182802 L25.8456246,4.66182802 L34.0823773,4.66182802 C34.1579439,4.66182802 34.2083216,4.68064063 34.2335104,4.71826585 C34.2461048,4.71826585 34.252402,4.73707846 34.252402,4.77470367 L34.252402,4.77470367 L34.1390522,13.372066 C34.1264578,14.0869452 34.0225538,14.670136 33.8273403,15.1216387 C33.6321267,15.5731413 33.4022785,15.9305808 33.1377956,16.1939574 C32.8733127,16.4573339 32.599384,16.6360537 32.3160095,16.7301167 C32.032635,16.8241798 31.8090839,16.8712113 31.6453564,16.8712113 L31.6453564,16.8712113 L31.1730656,16.8712113 C30.9589604,16.8586696 30.7826385,16.9213783 30.6440998,17.0593374 C30.5055611,17.1972965 30.4362918,17.36661 30.4362918,17.5672778 C30.4236974,17.7804874 30.4866695,17.9560717 30.6252082,18.0940309 C30.7637468,18.23199 30.9337715,18.3072405 31.1352823,18.3197822 L31.1352823,18.3197822 L31.6453564,18.3197822 Z M30.9270496,14.1810082 C31.267099,14.1810082 31.5567707,14.0618617 31.7960648,13.8235686 C32.0353588,13.5852756 32.1550058,13.2968156 32.1550058,12.9581886 L32.1550058,12.9581886 L32.1550058,8.23622374 C32.1550058,7.89759678 32.0353588,7.60913677 31.7960648,7.37084372 C31.5567707,7.13255068 31.267099,7.01340415 30.9270496,7.01340415 L30.9270496,7.01340415 L26.506407,7.01340415 C26.1663576,7.01340415 25.8766859,7.13255068 25.6373918,7.37084372 C25.3980978,7.60913677 25.2784508,7.89759678 25.2784508,8.23622374 L25.2784508,8.23622374 L25.2784508,12.9581886 C25.2784508,13.2968156 25.3980978,13.5852756 25.6373918,13.8235686 C25.8766859,14.0618617 26.1663576,14.1810082 26.506407,14.1810082 L26.506407,14.1810082 L30.9270496,14.1810082 Z M30.7003499,12.7324373 L26.7331066,12.7324373 L26.7331066,8.44316244 L30.7003499,8.44316244 L30.7003499,12.7324373 Z M53.0865124,6.37377544 C53.2880232,6.37377544 53.4611965,6.30166044 53.6060324,6.15743044 C53.7508682,6.01320044 53.8232862,5.84702239 53.8232862,5.6588963 L53.8232862,5.6588963 L53.8232862,3.60832191 C53.8232862,3.26969495 53.7004906,2.98123495 53.4548993,2.7429419 C53.209308,2.50464885 52.9164877,2.38550233 52.5764383,2.38550233 L52.5764383,2.38550233 L48.3069288,2.38550233 L47.6457216,1.04980708 C47.5449662,0.874222732 47.403279,0.751940773 47.2206598,0.682961206 C47.0380407,0.61398164 46.8585701,0.623387944 46.6822482,0.71118012 C46.5059263,0.798972295 46.3799821,0.936931428 46.3044155,1.12505752 C46.228849,1.31318361 46.2414434,1.49503883 46.3421988,1.67062318 L46.3421988,1.67062318 L46.7011399,2.36668972 L42.1293642,2.36668972 C41.7767204,2.36668972 41.4807514,2.48583624 41.2414574,2.72412929 C41.0021634,2.96242234 40.8825163,3.25088234 40.8825163,3.5895093 L40.8825163,3.5895093 L40.8825163,5.64008369 C40.8825163,5.85329326 40.9549343,6.02887761 41.0997701,6.16683674 C41.244606,6.30479588 41.4177793,6.37377544 41.6192901,6.37377544 C41.8208009,6.37377544 41.9908256,6.30166044 42.1293642,6.15743044 C42.2679029,6.01320044 42.3371722,5.84702239 42.3371722,5.6588963 L42.3371722,5.6588963 L42.3371722,3.83407322 L52.3686303,3.83407322 L52.3686303,5.6588963 C52.3686303,5.84702239 52.4378996,6.01320044 52.5764383,6.15743044 C52.7149769,6.30166044 52.8850017,6.37377544 53.0865124,6.37377544 Z M53.4832368,12.8076877 C53.6595587,12.8076877 53.8138404,12.7543853 53.9460818,12.6477806 C54.0783232,12.5411758 54.1570384,12.4000812 54.1822272,12.2244969 C54.2326049,12.023829 54.2011189,11.8419738 54.0877691,11.6789312 C53.9744193,11.5158886 53.816989,11.4155547 53.6154782,11.3779295 C52.5449522,11.1647199 51.6098163,10.9483749 50.8100704,10.7288944 C50.0103246,10.509414 49.3081855,10.2617146 48.7036531,9.98579638 C49.3585632,9.5468355 49.9410552,9.07024941 50.4511294,8.55603809 C50.9612035,8.04182678 51.4114541,7.47117764 51.8018813,6.84409067 C51.8774478,6.73121502 51.9183797,6.60266219 51.9246769,6.45843218 C51.9309741,6.31420218 51.9089339,6.18251392 51.8585562,6.06336739 C51.8081785,5.94422087 51.7294633,5.84075152 51.6224107,5.75295935 C51.5153581,5.66516717 51.3862653,5.62127108 51.2351322,5.62127108 L51.2351322,5.62127108 L45.7376665,5.62127108 C45.7880442,5.52093717 45.8321247,5.43314499 45.8699079,5.35789456 C45.9076912,5.28264412 45.9454745,5.19485194 45.9832577,5.09451803 C46.0714187,4.91893368 46.0808645,4.74021389 46.0115952,4.55835867 C45.9423259,4.37650345 45.813233,4.23540888 45.6243167,4.13507497 C45.4479947,4.04728279 45.2685242,4.03787649 45.0859051,4.10685605 C44.9032859,4.17583562 44.7615987,4.30438845 44.6608433,4.49251454 C44.3333883,5.1823102 43.9114751,5.83448065 43.3951038,6.44902588 C42.8787324,7.06357111 42.2679029,7.62167851 41.5626152,8.12334809 C41.3862933,8.23622374 41.2855379,8.38986005 41.260349,8.58425701 C41.2351602,8.77865397 41.2729435,8.95737375 41.3736988,9.12041637 C41.5374263,9.3210842 41.7389371,9.42141811 41.9782312,9.42141811 C42.1419587,9.42141811 42.2742001,9.37125115 42.3749555,9.27091724 C42.626844,9.09533289 42.8692866,8.91347767 43.1022834,8.72535158 C43.3352803,8.53722548 43.5588313,8.33655766 43.7729365,8.12334809 C44.1003915,8.46197505 44.4246979,8.78492484 44.7458557,9.09219745 C45.0670134,9.39947007 45.4102115,9.68479464 45.7754498,9.94817116 C44.4656297,10.5250912 42.9165157,11.0016773 41.1281076,11.3779295 C40.9265968,11.4155547 40.7691665,11.519024 40.6558167,11.6883375 C40.5424669,11.857651 40.5109809,12.0426416 40.5613585,12.2433095 C40.5991418,12.4063521 40.6841542,12.5411758 40.8163956,12.6477806 C40.9486371,12.7543853 41.1029187,12.8076877 41.2792407,12.8076877 C41.3422128,12.8076877 41.3925905,12.8014169 41.4303737,12.7888751 C42.5764663,12.5505821 43.6281006,12.2715284 44.5852768,11.951714 C45.5424529,11.6318997 46.4240625,11.2713247 47.2301056,10.869989 C47.9731766,11.2713247 48.832746,11.6256288 49.8088138,11.9329014 C50.7848816,12.240174 51.9656088,12.5254986 53.3509953,12.7888751 C53.3761842,12.7888751 53.3982244,12.7920106 53.417116,12.7982814 C53.4360077,12.8045523 53.4580479,12.8076877 53.4832368,12.8076877 Z M47.211214,9.1956668 C46.7704092,8.9072068 46.348496,8.58739244 45.9454745,8.23622374 C45.5424529,7.88505504 45.1394314,7.49626112 44.7364098,7.06984198 L44.7364098,7.06984198 L49.8182596,7.06984198 C49.1129719,7.89759678 48.2439567,8.60620505 47.211214,9.1956668 Z M51.0084326,18.0752183 C51.3106988,18.0752183 51.572033,17.9654781 51.7924354,17.7459976 C52.0128378,17.5265172 52.123039,17.2662761 52.123039,16.9652743 L52.123039,16.9652743 L52.123039,13.6918804 C52.123039,13.3783369 52.0159864,13.1118249 51.8018813,12.8923445 C51.5877761,12.672864 51.3232932,12.5631238 51.0084326,12.5631238 L51.0084326,12.5631238 L43.640695,12.5631238 C43.3384289,12.5631238 43.0770946,12.672864 42.8566922,12.8923445 C42.6362898,13.1118249 42.5260886,13.3846078 42.5260886,13.710693 L42.5260886,13.710693 L42.5260886,16.9652743 C42.5260886,17.2662761 42.6331412,17.5265172 42.8472464,17.7459976 C43.0613516,17.9654781 43.3258344,18.0752183 43.640695,18.0752183 L43.640695,18.0752183 L51.0084326,18.0752183 Z M50.6872748,16.64546 L43.9807444,16.64546 L43.9807444,13.9928821 L50.6872748,13.9928821 L50.6872748,16.64546 Z M59.1314108,6.67477719 C59.3329216,6.67477719 59.5029463,6.60266219 59.6414849,6.45843218 C59.7800236,6.31420218 59.8492929,6.14175327 59.8492929,5.94108544 L59.8492929,5.94108544 L59.8492929,4.39845149 L69.880751,4.39845149 L69.880751,5.94108544 C69.880751,6.12921153 69.9500203,6.29538957 70.088559,6.43961958 C70.2270976,6.58384958 70.3971224,6.65596458 70.5986331,6.65596458 C70.8001439,6.65596458 70.9733172,6.58384958 71.1181531,6.43961958 C71.2629889,6.29538957 71.3354069,6.12294066 71.3354069,5.92227283 L71.3354069,5.92227283 L71.3354069,4.05982453 C71.3354069,3.74628105 71.2157599,3.48290452 70.9764658,3.26969495 C70.7371718,3.05648538 70.4412028,2.9498806 70.088559,2.9498806 L70.088559,2.9498806 L66.1779906,2.9498806 C66.1653962,2.86208842 66.1339101,2.77429625 66.0835324,2.68650407 L66.0835324,2.68650407 L64.9878176,1.01218186 C64.8870622,0.836597514 64.7390777,0.729992729 64.5438642,0.692367511 C64.3486506,0.654742293 64.1628829,0.686096641 63.9865609,0.786430556 C63.810239,0.89930621 63.7031864,1.05294252 63.6654032,1.24733948 C63.6276199,1.44173644 63.6654032,1.62045622 63.778753,1.78349884 L63.778753,1.78349884 L64.5155267,2.96869321 L59.6414849,2.96869321 C59.2888411,2.96869321 58.9928721,3.07843343 58.7535781,3.29791386 C58.5142841,3.5173943 58.394637,3.7776354 58.394637,4.07863714 L58.394637,4.07863714 L58.394637,5.94108544 C58.394637,6.14175327 58.467055,6.31420218 58.6118908,6.45843218 C58.7567267,6.60266219 58.9299,6.67477719 59.1314108,6.67477719 Z M70.7308746,18.0564057 C70.9449798,18.0564057 71.1213017,17.9842907 71.2598403,17.8400607 C71.398379,17.6958307 71.4676483,17.5296526 71.4676483,17.3415265 C71.4676483,17.1408587 71.3952304,16.9684098 71.2503945,16.8241798 C71.1055587,16.6799498 70.9323853,16.6078348 70.7308746,16.6078348 L70.7308746,16.6078348 L65.5167834,16.6078348 L65.5167834,12.5443112 L69.6162681,12.5443112 C69.8303733,12.5443112 70.0066952,12.4753316 70.1452339,12.3373725 C70.2837725,12.1994134 70.3530419,12.0300999 70.3530419,11.8294321 C70.3530419,11.6287642 70.2806239,11.4563153 70.1357881,11.3120853 C69.9909522,11.1678553 69.8177789,11.0957403 69.6162681,11.0957403 L69.6162681,11.0957403 L65.5167834,11.0957403 L65.5167834,8.29266157 L70.2208004,8.29266157 C70.4349056,8.29266157 70.6112275,8.223682 70.7497662,8.08572287 C70.8883049,7.94776373 70.9575742,7.77845025 70.9575742,7.57778242 C70.9575742,7.37711459 70.8851563,7.20466568 70.7403204,7.06043567 C70.5954845,6.91620567 70.4223112,6.84409067 70.2208004,6.84409067 L70.2208004,6.84409067 L60.3026922,6.84409067 C60.088587,6.84409067 59.9154136,6.91620567 59.7831722,7.06043567 C59.6509308,7.20466568 59.58481,7.37711459 59.58481,7.57778242 C59.58481,7.77845025 59.6540794,7.94776373 59.792618,8.08572287 C59.9311567,8.223682 60.1011814,8.29266157 60.3026922,8.29266157 L60.3026922,8.29266157 L64.0432358,8.29266157 L64.0432358,11.0957403 L60.3026922,11.0957403 C60.088587,11.0957403 59.9154136,11.1678553 59.7831722,11.3120853 C59.6509308,11.4563153 59.58481,11.6287642 59.58481,11.8294321 C59.58481,12.0300999 59.6540794,12.1994134 59.792618,12.3373725 C59.9311567,12.4753316 60.1011814,12.5443112 60.3026922,12.5443112 L60.3026922,12.5443112 L64.0432358,12.5443112 L64.0432358,16.6078348 L58.9236028,16.6078348 C58.722092,16.6078348 58.5520673,16.6799498 58.4135287,16.8241798 C58.27499,16.9684098 58.2057207,17.1408587 58.2057207,17.3415265 C58.2057207,17.5296526 58.2781386,17.6958307 58.4229745,17.8400607 C58.5678104,17.9842907 58.7346865,18.0564057 58.9236028,18.0564057 L58.9236028,18.0564057 L70.7308746,18.0564057 Z" id="句客宝" stroke="#FFFFFF" stroke-width="0.519999981" fill="#FFFFFF" fill-rule="nonzero"></path>
                        <ellipse id="椭圆形" stroke="#FFFFFF" stroke-width="0.975194876" fill="#FC790D" fill-rule="nonzero" cx="68.4416639" cy="14.5723829" rx="1.4310552" ry="1.4660758"></ellipse>
                    </g>
                </g>
            </g>
        </g>
    </g>
</svg>