<?xml version="1.0" encoding="UTF-8"?>
<svg width="240px" height="140px" viewBox="0 0 240 140" version="1.1" xmlns="http://www.w3.org/2000/svg" xmlns:xlink="http://www.w3.org/1999/xlink">
    <title>1-7</title>
    <g id="最新版备份" stroke="none" stroke-width="1" fill="none" fill-rule="evenodd">
        <g id="企微SCRM-新版" transform="translate(-1007.000000, -3667.000000)">
            <g id="亮点1" transform="translate(0.000000, 2416.000000)">
                <g id="编组-25" transform="translate(130.000000, 241.000000)">
                    <g id="编组-19备份-6" transform="translate(814.000000, 960.000000)">
                        <g id="1-7" transform="translate(63.000000, 50.000000)">
                            <rect id="矩形" fill="#F1F1F1" x="0" y="0" width="240" height="140"></rect>
                            <line x1="116.5" y1="70.5" x2="166.5" y2="70.5" id="直线" stroke-opacity="0.65" stroke="#A4A4A4" stroke-linecap="square"></line>
                            <g id="编组-17" transform="translate(161.000000, 42.000000)">
                                <rect id="矩形" fill="#FFFFFF" fill-rule="nonzero" x="0" y="0" width="56.0000002" height="56.0000002"></rect>
                                <g id="编组-23" transform="translate(5.040000, 5.040000)">
                                    <g id="编组-22">
                                        <rect id="矩形" stroke="#FC790D" stroke-width="3.48364808" x="1.74182404" y="1.74182404" width="17.4182404" height="17.4182404"></rect>
                                        <rect id="矩形备份-4" fill="#FC790D" x="7.83820819" y="7.83820819" width="5.22547213" height="5.22547213"></rect>
                                    </g>
                                    <g id="编组-22备份" transform="translate(25.256449, 0.000000)">
                                        <rect id="矩形" stroke="#FC790D" stroke-width="3.48364808" x="1.74182404" y="1.74182404" width="17.4182404" height="17.4182404"></rect>
                                        <rect id="矩形备份-4" fill="#FC790D" x="7.83820819" y="7.83820819" width="5.22547213" height="5.22547213"></rect>
                                    </g>
                                    <g id="编组-22备份-2" transform="translate(0.000000, 25.256449)">
                                        <rect id="矩形" stroke="#FC790D" stroke-width="3.48364808" x="1.74182404" y="1.74182404" width="17.4182404" height="17.4182404"></rect>
                                        <rect id="矩形备份-4" fill="#FC790D" x="7.83820819" y="7.83820819" width="5.22547213" height="5.22547213"></rect>
                                    </g>
                                    <path d="M46.1583371,38.3201289 L32.2237448,38.3201289 L32.2234486,33.9654486 L28.7394486,33.9654486 L28.7400967,46.1583371 L25.2564486,46.1583371 L25.2564486,25.2564486 L39.1910409,25.2564486 L39.1904486,28.7394486 L42.6744486,28.7394486 L42.674689,25.2564486 L46.1583371,25.2564486 L46.1583371,38.3201289 Z M36.5783049,42.674689 L36.5783049,46.1583371 L33.0946568,46.1583371 L33.0946568,42.674689 L36.5783049,42.674689 Z M46.1583371,42.674689 L46.1583371,46.1583371 L42.674689,46.1583371 L42.674689,42.674689 L46.1583371,42.674689 Z" id="形状结合" fill="#FC790D"></path>
                                </g>
                            </g>
                            <g id="编组-17备份-3" transform="translate(25.000000, 20.000000)">
                                <rect id="矩形" fill="#FFFFFF" fill-rule="nonzero" x="0" y="0" width="100" height="100"></rect>
                                <g id="编组-23" transform="translate(9.000000, 9.000000)">
                                    <g id="编组-22">
                                        <rect id="矩形" stroke="#FC790D" stroke-width="6.22080012" x="3.11040006" y="3.11040006" width="31.1040006" height="31.1040006"></rect>
                                        <rect id="矩形备份-4" fill="#FC790D" x="13.9968003" y="13.9968003" width="9.33120019" height="9.33120019"></rect>
                                    </g>
                                    <g id="编组-22备份" transform="translate(45.100801, 0.000000)">
                                        <rect id="矩形" stroke="#FC790D" stroke-width="6.22080012" x="3.11040006" y="3.11040006" width="31.1040006" height="31.1040006"></rect>
                                        <rect id="矩形备份-4" fill="#FC790D" x="13.9968003" y="13.9968003" width="9.33120019" height="9.33120019"></rect>
                                    </g>
                                    <g id="编组-22备份-2" transform="translate(0.000000, 45.100801)">
                                        <rect id="矩形" stroke="#FC790D" stroke-width="6.22080012" x="3.11040006" y="3.11040006" width="31.1040006" height="31.1040006"></rect>
                                        <rect id="矩形备份-4" fill="#FC790D" x="13.9968003" y="13.9968003" width="9.33120019" height="9.33120019"></rect>
                                    </g>
                                    <path d="M82.4256016,68.4288014 L57.5424011,68.4288014 L57.5418009,60.6528009 L51.3208009,60.6528009 L51.321601,82.4256016 L45.1008009,82.4256016 L45.1008009,45.1008009 L69.9840014,45.1008009 L69.9838009,51.3208009 L76.2048009,51.3208009 L76.2048015,45.1008009 L82.4256016,45.1008009 L82.4256016,68.4288014 Z M65.3184013,76.2048015 L65.3184013,82.4256016 L59.0976012,82.4256016 L59.0976012,76.2048015 L65.3184013,76.2048015 Z M82.4256016,76.2048015 L82.4256016,82.4256016 L76.2048015,82.4256016 L76.2048015,76.2048015 L82.4256016,76.2048015 Z" id="形状结合" fill="#FC790D"></path>
                                </g>
                            </g>
                        </g>
                    </g>
                </g>
            </g>
        </g>
    </g>
</svg>