<?xml version="1.0" encoding="UTF-8"?>
<svg width="220px" height="254px" viewBox="0 0 220 254" version="1.1" xmlns="http://www.w3.org/2000/svg" xmlns:xlink="http://www.w3.org/1999/xlink">
    <title>1-渠道活码</title>
    <g id="最新版备份" stroke="none" stroke-width="1" fill="none" fill-rule="evenodd">
        <g id="十大功能" transform="translate(-120.000000, -200.000000)">
            <g id="1-渠道活码" transform="translate(120.000000, 200.000000)">
                <rect id="矩形" fill="#FFFDF8" x="0" y="0" width="219.310578" height="253.050667" rx="16.6399984"></rect>
                <text id="渠道活码" font-family="FZLTCHJW--GB1-0, FZLanTingHeiS-B-GB" font-size="26.6239974" font-weight="normal" fill="#000000" fill-opacity="0.7">
                    <tspan x="56.4072941" y="227.498321">渠道活码</tspan>
                </text>
                <g id="oceania__two_color" transform="translate(31.428571, 18.248848)">
                    <rect id="矩形" fill="#C9C9C9" fill-rule="nonzero" x="3.04147465" y="25.3456221" width="132.07543" height="100.854286"></rect>
                    <polyline id="路径" stroke="#24285B" stroke-width="1.24000001" points="42.2148575 25.7337145 68.5960005 3.97257146 93.1480007 25.7337145"></polyline>
                    <rect id="矩形" fill="#FFD200" fill-rule="nonzero" x="0.370857146" y="23.5714288" width="136.620001" height="6.33600005"></rect>
                    <rect id="矩形" fill="#FFD200" fill-rule="nonzero" x="0.370857146" y="126.537715" width="136.620001" height="6.33600005"></rect>
                    <circle id="椭圆形" fill="#FC790D" fill-rule="nonzero" cx="68.5960005" cy="3.65828574" r="3.07371431"></circle>
                    <rect id="矩形" fill="#FFFFFF" fill-rule="nonzero" x="14.1935484" y="42.5806452" width="110.000001" height="77.5468577"></rect>
                    <g id="编组-23" transform="translate(42.580645, 54.746544)">
                        <g id="编组-22">
                            <rect id="矩形" stroke="#FC790D" stroke-width="4" x="2" y="2" width="20.3317972" height="20.3317972"></rect>
                            <rect id="矩形备份-4" fill="#FC790D" x="9.12442396" y="9.12442396" width="6.08294931" height="6.08294931"></rect>
                        </g>
                        <g id="编组-22备份" transform="translate(29.400922, 0.000000)">
                            <rect id="矩形" stroke="#FC790D" stroke-width="4" x="2" y="2" width="20.3317972" height="20.3317972"></rect>
                            <rect id="矩形备份-4" fill="#FC790D" x="9.12442396" y="9.12442396" width="6.08294931" height="6.08294931"></rect>
                        </g>
                        <g id="编组-22备份-2" transform="translate(0.000000, 29.400922)">
                            <rect id="矩形" stroke="#FC790D" stroke-width="4" x="2" y="2" width="20.3317972" height="20.3317972"></rect>
                            <rect id="矩形备份-4" fill="#FC790D" x="9.12442396" y="9.12442396" width="6.08294931" height="6.08294931"></rect>
                        </g>
                        <path d="M53.7327189,44.6082949 L37.5115207,44.6082949 L37.5109217,39.5389217 L33.4559217,39.5389217 L33.4562212,53.7327189 L29.4009217,53.7327189 L29.4009217,29.4009217 L45.6221198,29.4009217 L45.6219217,33.4559217 L49.6769217,33.4559217 L49.6774194,29.4009217 L53.7327189,29.4009217 L53.7327189,44.6082949 Z M42.5806452,49.6774194 L42.5806452,53.7327189 L38.5253456,53.7327189 L38.5253456,49.6774194 L42.5806452,49.6774194 Z M53.7327189,49.6774194 L53.7327189,53.7327189 L49.6774194,53.7327189 L49.6774194,49.6774194 L53.7327189,49.6774194 Z" id="形状结合" fill="#FC790D"></path>
                    </g>
                    <polygon id="路径" fill="#000000" fill-rule="nonzero" opacity="0.08" points="127.417715 132.873715 127.417715 111.477144 139.612001 111.477144 135.136572 132.873715"></polygon>
                    <rect id="矩形" fill="#E6E6E6" fill-rule="nonzero" x="132.51543" y="106.982858" width="25.7714288" height="45.1377146"></rect>
                    <path d="M142.817715,100.533715 C142.817715,100.533715 137.468572,99.0754293 136.29943,94.0908579 C136.29943,94.0908579 144.596573,92.4188579 144.829144,101.005144 L142.817715,100.533715 Z" id="路径" fill="#FC790D" fill-rule="nonzero" opacity="0.58"></path>
                    <path d="M143.477715,100.005715 C143.477715,100.005715 139.737715,94.0908579 143.025144,88.565715 C143.025144,88.565715 149.310858,92.569715 146.532573,100.018286 L143.477715,100.005715 Z" id="路径" fill="#FC790D" fill-rule="nonzero" opacity="0.73"></path>
                    <path d="M144.43943,100.012001 C144.43943,100.012001 146.413144,93.7640007 152.384573,92.5822864 C152.384573,92.5822864 153.50343,96.6365722 148.518858,100.024572 L144.43943,100.012001 Z" id="路径" fill="#FC790D" fill-rule="nonzero"></path>
                    <polygon id="路径" fill="#24285B" fill-rule="nonzero" points="140.554858 99.8674293 141.642287 107.290858 148.474858 107.322287 149.480573 99.9051436"></polygon>
                    <ellipse id="椭圆形" fill="#E6E6E6" fill-rule="nonzero" opacity="0.45" cx="145.401144" cy="152.126858" rx="25.9662859" ry="4.37485718"></ellipse>
                    <rect id="矩形" fill="#000000" fill-rule="nonzero" opacity="0.08" x="2.55828573" y="30.0205717" width="132.07543" height="5.09771432"></rect>
                </g>
                <g id="独家解决方案备份" transform="translate(24.461564, 150.986898)">
                    <rect id="Rectangle-3" fill="#FC790D" x="0" y="0" width="170.724849" height="33.4026878" rx="3.6022268"></rect>
                    <text id="独家功能" font-family="FZLTCHJW--GB1-0, FZLanTingHeiS-B-GB" font-size="18.011134" font-weight="normal" line-spacing="21.6133608" fill="#FFFFFF">
                        <tspan x="88.2357293" y="21.6301145">独家功能</tspan>
                    </text>
                    <g id="句客宝logo" transform="translate(7.586043, 6.804206)">
                        <path d="M8.5045812,-1.54758361e-13 C10.8112375,-1.54758361e-13 12.8057681,0.840190548 14.4873285,2.51821487 C16.1682133,4.19724924 17.0093313,6.18872473 17.0093313,8.49129462 C17.0093313,13.6068447 13.4313707,17.3731406 6.27595631,19.7940543 L6.27595631,19.7940543 L6.27595631,16.690349 C4.35962604,16.1429037 2.8344663,15.0988521 1.7008149,13.5571841 C0.566319003,12.0151794 0,10.3273913 0,8.49129462 C0,6.18872473 0.840104599,4.19724924 2.52200279,2.51821487 C4.20254978,0.840190548 6.19691149,-1.54758361e-13 8.5045812,-1.54758361e-13 Z M8.58225794,5.2306954 C6.81253216,5.18709504 5.34614935,6.43618618 5.30679584,8.02094952 C5.26761122,9.60554452 6.67031904,10.9251706 8.44021371,10.9691076 C8.51132027,10.9712961 8.58090674,10.9669192 8.65066211,10.9650674 C8.65066211,10.9654041 8.95214717,11.178019 9.2828518,11.3477068 C9.65155874,11.5364172 10.1045464,11.6631781 10.3678602,11.6406204 C10.7162993,11.610824 10.7711915,11.3874353 10.7014361,11.2731317 C10.6352277,11.164215 10.5195317,11.1593331 10.4077204,11.0893032 C10.2734456,11.0047959 10.2139931,10.9620373 10.158763,10.8308996 C10.0954258,10.6798976 10.1687281,10.5677824 10.3080699,10.4928706 L10.3218071,10.4797026 C10.326236,10.4754379 10.3316595,10.4702006 10.3379651,10.4640842 C11.1498635,9.96225936 11.6920299,9.1326743 11.7156758,8.17919018 C11.7550293,6.59476352 10.3523215,5.27463243 8.58225794,5.2306954 Z" id="形状结合" fill="#FFFFFF"></path>
                        <path d="M31.6453564,18.3197822 C32.0357836,18.3197822 32.4576967,18.23199 32.911096,18.0564057 C33.3644952,17.8808213 33.7864084,17.5986322 34.1768355,17.2098383 C34.5672626,16.8210443 34.8978662,16.3131039 35.1686463,15.6860169 C35.4394264,15.05893 35.5811137,14.2938839 35.5937081,13.3908786 L35.5937081,13.3908786 L35.6881663,4.79351628 C35.7133551,4.36709715 35.5748165,4.0033867 35.2725503,3.70238496 C34.9576897,3.38884147 34.5609654,3.23206973 34.0823773,3.23206973 L34.0823773,3.23206973 L26.3556987,3.23206973 C26.4438597,2.98123495 26.5257234,2.71472298 26.6012899,2.43253385 C26.6768565,2.15034471 26.7650174,1.8524784 26.8657728,1.53893492 C26.928745,1.35080883 26.9098533,1.17208904 26.8090979,1.00277556 C26.7083425,0.833462079 26.5635067,0.71745099 26.3745903,0.654742293 C26.1730796,0.592033596 25.9873118,0.610846205 25.8172871,0.71118012 C25.6472624,0.811514035 25.530764,0.955744037 25.4677919,1.14387013 C25.2536867,1.88383275 25.0490273,2.54854494 24.8538137,3.13800669 C24.6586002,3.72746844 24.4539408,4.26989867 24.2398356,4.76529737 C24.0257304,5.26069608 23.789585,5.72474043 23.5313993,6.15743044 C23.2732136,6.59012045 22.9740961,7.01967502 22.6340466,7.44609416 C22.5081024,7.60913677 22.4577247,7.78785656 22.4829136,7.98225352 C22.5081024,8.17665048 22.6025606,8.33655766 22.7662881,8.46197505 C22.9048267,8.56230896 23.0496626,8.61247592 23.2007957,8.61247592 C23.3015511,8.61247592 23.4054551,8.59052788 23.5125077,8.54663179 C23.6195603,8.5027357 23.7108698,8.4306207 23.7864364,8.33028679 C24.25243,7.74082504 24.6460057,7.16076959 24.9671635,6.59012045 C25.2883213,6.01947131 25.5811417,5.37670716 25.8456246,4.66182802 L25.8456246,4.66182802 L34.0823773,4.66182802 C34.1579439,4.66182802 34.2083216,4.68064063 34.2335104,4.71826585 C34.2461048,4.71826585 34.252402,4.73707846 34.252402,4.77470367 L34.252402,4.77470367 L34.1390522,13.372066 C34.1264578,14.0869452 34.0225538,14.670136 33.8273403,15.1216387 C33.6321267,15.5731413 33.4022785,15.9305808 33.1377956,16.1939574 C32.8733127,16.4573339 32.599384,16.6360537 32.3160095,16.7301167 C32.032635,16.8241798 31.8090839,16.8712113 31.6453564,16.8712113 L31.6453564,16.8712113 L31.1730656,16.8712113 C30.9589604,16.8586696 30.7826385,16.9213783 30.6440998,17.0593374 C30.5055611,17.1972965 30.4362918,17.36661 30.4362918,17.5672778 C30.4236974,17.7804874 30.4866695,17.9560717 30.6252082,18.0940309 C30.7637468,18.23199 30.9337715,18.3072405 31.1352823,18.3197822 L31.1352823,18.3197822 L31.6453564,18.3197822 Z M30.9270496,14.1810082 C31.267099,14.1810082 31.5567707,14.0618617 31.7960648,13.8235686 C32.0353588,13.5852756 32.1550058,13.2968156 32.1550058,12.9581886 L32.1550058,12.9581886 L32.1550058,8.23622374 C32.1550058,7.89759678 32.0353588,7.60913677 31.7960648,7.37084372 C31.5567707,7.13255068 31.267099,7.01340415 30.9270496,7.01340415 L30.9270496,7.01340415 L26.506407,7.01340415 C26.1663576,7.01340415 25.8766859,7.13255068 25.6373918,7.37084372 C25.3980978,7.60913677 25.2784508,7.89759678 25.2784508,8.23622374 L25.2784508,8.23622374 L25.2784508,12.9581886 C25.2784508,13.2968156 25.3980978,13.5852756 25.6373918,13.8235686 C25.8766859,14.0618617 26.1663576,14.1810082 26.506407,14.1810082 L26.506407,14.1810082 L30.9270496,14.1810082 Z M30.7003499,12.7324373 L26.7331066,12.7324373 L26.7331066,8.44316244 L30.7003499,8.44316244 L30.7003499,12.7324373 Z M53.0865124,6.37377544 C53.2880232,6.37377544 53.4611965,6.30166044 53.6060324,6.15743044 C53.7508682,6.01320044 53.8232862,5.84702239 53.8232862,5.6588963 L53.8232862,5.6588963 L53.8232862,3.60832191 C53.8232862,3.26969495 53.7004906,2.98123495 53.4548993,2.7429419 C53.209308,2.50464885 52.9164877,2.38550233 52.5764383,2.38550233 L52.5764383,2.38550233 L48.3069288,2.38550233 L47.6457216,1.04980708 C47.5449662,0.874222732 47.403279,0.751940773 47.2206598,0.682961206 C47.0380407,0.61398164 46.8585701,0.623387944 46.6822482,0.71118012 C46.5059263,0.798972295 46.3799821,0.936931428 46.3044155,1.12505752 C46.228849,1.31318361 46.2414434,1.49503883 46.3421988,1.67062318 L46.3421988,1.67062318 L46.7011399,2.36668972 L42.1293642,2.36668972 C41.7767204,2.36668972 41.4807514,2.48583624 41.2414574,2.72412929 C41.0021634,2.96242234 40.8825163,3.25088234 40.8825163,3.5895093 L40.8825163,3.5895093 L40.8825163,5.64008369 C40.8825163,5.85329326 40.9549343,6.02887761 41.0997701,6.16683674 C41.244606,6.30479588 41.4177793,6.37377544 41.6192901,6.37377544 C41.8208009,6.37377544 41.9908256,6.30166044 42.1293642,6.15743044 C42.2679029,6.01320044 42.3371722,5.84702239 42.3371722,5.6588963 L42.3371722,5.6588963 L42.3371722,3.83407322 L52.3686303,3.83407322 L52.3686303,5.6588963 C52.3686303,5.84702239 52.4378996,6.01320044 52.5764383,6.15743044 C52.7149769,6.30166044 52.8850017,6.37377544 53.0865124,6.37377544 Z M53.4832368,12.8076877 C53.6595587,12.8076877 53.8138404,12.7543853 53.9460818,12.6477806 C54.0783232,12.5411758 54.1570384,12.4000812 54.1822272,12.2244969 C54.2326049,12.023829 54.2011189,11.8419738 54.0877691,11.6789312 C53.9744193,11.5158886 53.816989,11.4155547 53.6154782,11.3779295 C52.5449522,11.1647199 51.6098163,10.9483749 50.8100704,10.7288944 C50.0103246,10.509414 49.3081855,10.2617146 48.7036531,9.98579638 C49.3585632,9.5468355 49.9410552,9.07024941 50.4511294,8.55603809 C50.9612035,8.04182678 51.4114541,7.47117764 51.8018813,6.84409067 C51.8774478,6.73121502 51.9183797,6.60266219 51.9246769,6.45843218 C51.9309741,6.31420218 51.9089339,6.18251392 51.8585562,6.06336739 C51.8081785,5.94422087 51.7294633,5.84075152 51.6224107,5.75295935 C51.5153581,5.66516717 51.3862653,5.62127108 51.2351322,5.62127108 L51.2351322,5.62127108 L45.7376665,5.62127108 C45.7880442,5.52093717 45.8321247,5.43314499 45.8699079,5.35789456 C45.9076912,5.28264412 45.9454745,5.19485194 45.9832577,5.09451803 C46.0714187,4.91893368 46.0808645,4.74021389 46.0115952,4.55835867 C45.9423259,4.37650345 45.813233,4.23540888 45.6243167,4.13507497 C45.4479947,4.04728279 45.2685242,4.03787649 45.0859051,4.10685605 C44.9032859,4.17583562 44.7615987,4.30438845 44.6608433,4.49251454 C44.3333883,5.1823102 43.9114751,5.83448065 43.3951038,6.44902588 C42.8787324,7.06357111 42.2679029,7.62167851 41.5626152,8.12334809 C41.3862933,8.23622374 41.2855379,8.38986005 41.260349,8.58425701 C41.2351602,8.77865397 41.2729435,8.95737375 41.3736988,9.12041637 C41.5374263,9.3210842 41.7389371,9.42141811 41.9782312,9.42141811 C42.1419587,9.42141811 42.2742001,9.37125115 42.3749555,9.27091724 C42.626844,9.09533289 42.8692866,8.91347767 43.1022834,8.72535158 C43.3352803,8.53722548 43.5588313,8.33655766 43.7729365,8.12334809 C44.1003915,8.46197505 44.4246979,8.78492484 44.7458557,9.09219745 C45.0670134,9.39947007 45.4102115,9.68479464 45.7754498,9.94817116 C44.4656297,10.5250912 42.9165157,11.0016773 41.1281076,11.3779295 C40.9265968,11.4155547 40.7691665,11.519024 40.6558167,11.6883375 C40.5424669,11.857651 40.5109809,12.0426416 40.5613585,12.2433095 C40.5991418,12.4063521 40.6841542,12.5411758 40.8163956,12.6477806 C40.9486371,12.7543853 41.1029187,12.8076877 41.2792407,12.8076877 C41.3422128,12.8076877 41.3925905,12.8014169 41.4303737,12.7888751 C42.5764663,12.5505821 43.6281006,12.2715284 44.5852768,11.951714 C45.5424529,11.6318997 46.4240625,11.2713247 47.2301056,10.869989 C47.9731766,11.2713247 48.832746,11.6256288 49.8088138,11.9329014 C50.7848816,12.240174 51.9656088,12.5254986 53.3509953,12.7888751 C53.3761842,12.7888751 53.3982244,12.7920106 53.417116,12.7982814 C53.4360077,12.8045523 53.4580479,12.8076877 53.4832368,12.8076877 Z M47.211214,9.1956668 C46.7704092,8.9072068 46.348496,8.58739244 45.9454745,8.23622374 C45.5424529,7.88505504 45.1394314,7.49626112 44.7364098,7.06984198 L44.7364098,7.06984198 L49.8182596,7.06984198 C49.1129719,7.89759678 48.2439567,8.60620505 47.211214,9.1956668 Z M51.0084326,18.0752183 C51.3106988,18.0752183 51.572033,17.9654781 51.7924354,17.7459976 C52.0128378,17.5265172 52.123039,17.2662761 52.123039,16.9652743 L52.123039,16.9652743 L52.123039,13.6918804 C52.123039,13.3783369 52.0159864,13.1118249 51.8018813,12.8923445 C51.5877761,12.672864 51.3232932,12.5631238 51.0084326,12.5631238 L51.0084326,12.5631238 L43.640695,12.5631238 C43.3384289,12.5631238 43.0770946,12.672864 42.8566922,12.8923445 C42.6362898,13.1118249 42.5260886,13.3846078 42.5260886,13.710693 L42.5260886,13.710693 L42.5260886,16.9652743 C42.5260886,17.2662761 42.6331412,17.5265172 42.8472464,17.7459976 C43.0613516,17.9654781 43.3258344,18.0752183 43.640695,18.0752183 L43.640695,18.0752183 L51.0084326,18.0752183 Z M50.6872748,16.64546 L43.9807444,16.64546 L43.9807444,13.9928821 L50.6872748,13.9928821 L50.6872748,16.64546 Z M59.1314108,6.67477719 C59.3329216,6.67477719 59.5029463,6.60266219 59.6414849,6.45843218 C59.7800236,6.31420218 59.8492929,6.14175327 59.8492929,5.94108544 L59.8492929,5.94108544 L59.8492929,4.39845149 L69.880751,4.39845149 L69.880751,5.94108544 C69.880751,6.12921153 69.9500203,6.29538957 70.088559,6.43961958 C70.2270976,6.58384958 70.3971224,6.65596458 70.5986331,6.65596458 C70.8001439,6.65596458 70.9733172,6.58384958 71.1181531,6.43961958 C71.2629889,6.29538957 71.3354069,6.12294066 71.3354069,5.92227283 L71.3354069,5.92227283 L71.3354069,4.05982453 C71.3354069,3.74628105 71.2157599,3.48290452 70.9764658,3.26969495 C70.7371718,3.05648538 70.4412028,2.9498806 70.088559,2.9498806 L70.088559,2.9498806 L66.1779906,2.9498806 C66.1653962,2.86208842 66.1339101,2.77429625 66.0835324,2.68650407 L66.0835324,2.68650407 L64.9878176,1.01218186 C64.8870622,0.836597514 64.7390777,0.729992729 64.5438642,0.692367511 C64.3486506,0.654742293 64.1628829,0.686096641 63.9865609,0.786430556 C63.810239,0.89930621 63.7031864,1.05294252 63.6654032,1.24733948 C63.6276199,1.44173644 63.6654032,1.62045622 63.778753,1.78349884 L63.778753,1.78349884 L64.5155267,2.96869321 L59.6414849,2.96869321 C59.2888411,2.96869321 58.9928721,3.07843343 58.7535781,3.29791386 C58.5142841,3.5173943 58.394637,3.7776354 58.394637,4.07863714 L58.394637,4.07863714 L58.394637,5.94108544 C58.394637,6.14175327 58.467055,6.31420218 58.6118908,6.45843218 C58.7567267,6.60266219 58.9299,6.67477719 59.1314108,6.67477719 Z M70.7308746,18.0564057 C70.9449798,18.0564057 71.1213017,17.9842907 71.2598403,17.8400607 C71.398379,17.6958307 71.4676483,17.5296526 71.4676483,17.3415265 C71.4676483,17.1408587 71.3952304,16.9684098 71.2503945,16.8241798 C71.1055587,16.6799498 70.9323853,16.6078348 70.7308746,16.6078348 L70.7308746,16.6078348 L65.5167834,16.6078348 L65.5167834,12.5443112 L69.6162681,12.5443112 C69.8303733,12.5443112 70.0066952,12.4753316 70.1452339,12.3373725 C70.2837725,12.1994134 70.3530419,12.0300999 70.3530419,11.8294321 C70.3530419,11.6287642 70.2806239,11.4563153 70.1357881,11.3120853 C69.9909522,11.1678553 69.8177789,11.0957403 69.6162681,11.0957403 L69.6162681,11.0957403 L65.5167834,11.0957403 L65.5167834,8.29266157 L70.2208004,8.29266157 C70.4349056,8.29266157 70.6112275,8.223682 70.7497662,8.08572287 C70.8883049,7.94776373 70.9575742,7.77845025 70.9575742,7.57778242 C70.9575742,7.37711459 70.8851563,7.20466568 70.7403204,7.06043567 C70.5954845,6.91620567 70.4223112,6.84409067 70.2208004,6.84409067 L70.2208004,6.84409067 L60.3026922,6.84409067 C60.088587,6.84409067 59.9154136,6.91620567 59.7831722,7.06043567 C59.6509308,7.20466568 59.58481,7.37711459 59.58481,7.57778242 C59.58481,7.77845025 59.6540794,7.94776373 59.792618,8.08572287 C59.9311567,8.223682 60.1011814,8.29266157 60.3026922,8.29266157 L60.3026922,8.29266157 L64.0432358,8.29266157 L64.0432358,11.0957403 L60.3026922,11.0957403 C60.088587,11.0957403 59.9154136,11.1678553 59.7831722,11.3120853 C59.6509308,11.4563153 59.58481,11.6287642 59.58481,11.8294321 C59.58481,12.0300999 59.6540794,12.1994134 59.792618,12.3373725 C59.9311567,12.4753316 60.1011814,12.5443112 60.3026922,12.5443112 L60.3026922,12.5443112 L64.0432358,12.5443112 L64.0432358,16.6078348 L58.9236028,16.6078348 C58.722092,16.6078348 58.5520673,16.6799498 58.4135287,16.8241798 C58.27499,16.9684098 58.2057207,17.1408587 58.2057207,17.3415265 C58.2057207,17.5296526 58.2781386,17.6958307 58.4229745,17.8400607 C58.5678104,17.9842907 58.7346865,18.0564057 58.9236028,18.0564057 L58.9236028,18.0564057 L70.7308746,18.0564057 Z" id="句客宝" stroke="#FFFFFF" stroke-width="0.519999981" fill="#FFFFFF" fill-rule="nonzero"></path>
                        <ellipse id="椭圆形" stroke="#FFFFFF" stroke-width="0.975194876" fill="#FC790D" fill-rule="nonzero" cx="68.4416639" cy="14.5723829" rx="1.4310552" ry="1.4660758"></ellipse>
                    </g>
                </g>
            </g>
        </g>
    </g>
</svg>