<?xml version="1.0" encoding="UTF-8"?>
<svg width="221px" height="254px" viewBox="0 0 221 254" version="1.1" xmlns="http://www.w3.org/2000/svg" xmlns:xlink="http://www.w3.org/1999/xlink">
    <title>2-朋友圈访问追踪</title>
    <defs>
        <polygon id="path-1" points="0.336922376 0.678144482 164.813771 0.678144482 164.813771 24.3248632 0.336922376 24.3248632"></polygon>
        <polygon id="path-3" points="0 157.338744 188.622109 157.338744 188.622109 0.304172892 0 0.304172892"></polygon>
        <polygon id="path-5" points="0.0915686581 0.789063916 39.7626881 0.789063916 39.7626881 11.2354095 0.0915686581 11.2354095"></polygon>
        <polygon id="path-7" points="0 157.338744 188.622109 157.338744 188.622109 0.304172892 0 0.304172892"></polygon>
        <polygon id="path-9" points="0.786484746 0.789063916 16.1580075 0.789063916 16.1580075 16.1605624 0.786484746 16.1605624"></polygon>
        <polyline id="path-11" points="0 157.338744 188.622109 157.338744 188.622109 0.304172892 0 0.304172892"></polyline>
        <polygon id="path-13" points="0.0813330827 0.211405186 7.86945914 0.211405186 7.86945914 7.9995645 0.0813330827 7.9995645"></polygon>
        <polygon id="path-15" points="0.263918878 0.779988156 24.6343617 0.779988156 24.6343617 8.51643673 0.263918878 8.51643673"></polygon>
        <polygon id="path-17" points="0 157.338744 188.622109 157.338744 188.622109 0.304172892 0 0.304172892"></polygon>
        <polygon id="path-19" points="0.600859753 0.760603826 7.6129566 0.760603826 7.6129566 15.1585628 0.600859753 15.1585628"></polygon>
        <polygon id="path-21" points="0 157.338744 188.622109 157.338744 188.622109 0.304172892 0 0.304172892"></polygon>
        <polygon id="path-23" points="0.254340261 0.481996653 10.8010204 0.481996653 10.8010204 9.7753314 0.254340261 9.7753314"></polygon>
        <polygon id="path-25" points="0 157.338744 188.622109 157.338744 188.622109 0.304172892 0 0.304172892"></polygon>
        <polygon id="path-27" points="0.0969216532 0.255124556 29.2646943 0.255124556 29.2646943 2.92595522 0.0969216532 2.92595522"></polygon>
        <polyline id="path-29" points="0 157.338744 188.622109 157.338744 188.622109 0.304172892 0 0.304172892"></polyline>
        <polygon id="path-31" points="0.21958528 0.485257114 2.96908333 0.485257114 2.96908333 4.78914626 0.21958528 4.78914626"></polygon>
        <polyline id="path-33" points="0 157.338744 188.622109 157.338744 188.622109 0.304172892 0 0.304172892"></polyline>
        <polygon id="path-35" points="0.137473369 0.404637764 41.1144329 0.404637764 41.1144329 29.6038248 0.137473369 29.6038248"></polygon>
        <polygon id="path-37" points="0 157.338744 188.622109 157.338744 188.622109 0.304172892 0 0.304172892"></polygon>
        <polygon id="path-39" points="0.0325235004 0.327976386 26.7341794 0.327976386 26.7341794 20.6823995 0.0325235004 20.6823995"></polygon>
        <polygon id="path-41" points="0 157.338744 188.622109 157.338744 188.622109 0.304172892 0 0.304172892"></polygon>
        <polygon id="path-43" points="0.206171416 0.700855479 3.51601941 0.700855479 3.51601941 4.69092691 0.206171416 4.69092691"></polygon>
        <polygon id="path-45" points="0 157.338744 188.622109 157.338744 188.622109 0.304172892 0 0.304172892"></polygon>
        <polygon id="path-47" points="0.187354828 1.45990775e-05 10.2941583 1.45990775e-05 10.2941583 2.11354089 0.187354828 2.11354089"></polygon>
        <polygon id="path-49" points="0 157.338744 188.622109 157.338744 188.622109 0.304172892 0 0.304172892"></polygon>
        <polygon id="path-51" points="0.0812681979 0.0526458955 16.2534368 0.0526458955 16.2534368 31.2071502 0.0812681979 31.2071502"></polygon>
        <polygon id="path-53" points="0 157.338744 188.622109 157.338744 188.622109 0.304172892 0 0.304172892"></polygon>
        <polygon id="path-55" points="0.631896737 0.711380603 26.840558 0.711380603 26.840558 18.4271989 0.631896737 18.4271989"></polygon>
        <polygon id="path-57" points="0 157.338744 188.622109 157.338744 188.622109 0.304172892 0 0.304172892"></polygon>
        <polyline id="path-59" points="0 157.338744 188.622109 157.338744 188.622109 0.304172892 0 0.304172892"></polyline>
    </defs>
    <g id="最新版备份" stroke="none" stroke-width="1" fill="none" fill-rule="evenodd">
        <g id="十大功能" transform="translate(-365.000000, -200.000000)">
            <g id="2-朋友圈访问追踪" transform="translate(365.750000, 200.000000)">
                <rect id="矩形" fill="#FFFDF8" x="0" y="0" width="219.310578" height="253.050667" rx="16.6399984"></rect>
                <text id="朋友圈访问追踪" font-family="FZLTCHJW--GB1-0, FZLanTingHeiS-B-GB" font-size="26.6239974" font-weight="normal" fill="#000000" fill-opacity="0.7">
                    <tspan x="16.471298" y="227.498321">朋友圈访问追踪</tspan>
                </text>
                <g id="编组" transform="translate(15.460829, 28.387097)">
                    <path d="M143.770255,113.274169 C143.770255,113.274169 195.009208,113.274169 186.766142,78.0858135 C174.219003,24.6499835 88.4642099,50.4552045 46.7685118,68.6130109 C2.76706073,87.7827867 -16.9086973,36.1531299 21.2963472,18.6550252" id="Stroke-1" stroke="#C9C9C9" stroke-width="2.39999986" stroke-linecap="round" stroke-linejoin="round" stroke-dasharray="2.399999856948853,9.59999942779541"></path>
                    <g transform="translate(0.000000, 0.506912)">
                        <g transform="translate(21.087556, 133.013817)">
                            <mask id="mask-2" fill="white">
                                <use xlink:href="#path-1"></use>
                            </mask>
                            <g id="Clip-4"></g>
                            <path d="M82.5752209,0.678086596 C127.994735,0.678086596 164.813771,5.97171209 164.813771,12.5014739 C164.813771,19.0312382 127.994735,24.3248632 82.5752209,24.3248632 C37.1564041,24.3248632 0.336727722,19.0312382 0.336727722,12.5014739 C0.336727722,5.97171209 37.1564041,0.678086596 82.5752209,0.678086596" id="Fill-3" fill-opacity="0.45" fill="#E6E6E6" mask="url(#mask-2)"></path>
                        </g>
                        <mask id="mask-4" fill="white">
                            <use xlink:href="#path-3"></use>
                        </mask>
                        <g id="Clip-6"></g>
                        <polygon id="Fill-5" fill="#E6E6E6" mask="url(#mask-4)" points="123.934245 146.35503 163.605365 146.35503 163.605365 135.908044 123.934245 135.908044"></polygon>
                    </g>
                    <g transform="translate(0.000000, 0.506912)">
                        <g transform="translate(115.170500, 124.903218)">
                            <mask id="mask-6" fill="white">
                                <use xlink:href="#path-5"></use>
                            </mask>
                            <g id="Clip-8"></g>
                            <polygon id="Fill-7" fill-opacity="0.43" fill="#E6E6E6" mask="url(#mask-6)" points="0.0915686581 11.2360502 39.7626881 11.2360502 39.7626881 0.789063916 0.0915686581 0.789063916"></polygon>
                        </g>
                        <mask id="mask-8" fill="white">
                            <use xlink:href="#path-7"></use>
                        </mask>
                        <g id="Clip-10"></g>
                        <polygon id="Fill-9" fill="#C9C9C9" mask="url(#mask-8)" points="56.5549931 146.354389 135.097908 146.354389 135.097908 5.48570069 56.5549931 5.48570069"></polygon>
                        <polygon id="Fill-11" fill="#FFFFFF" mask="url(#mask-8)" points="63.055938 120.684312 128.07177 120.684312 128.07177 21.5427069 63.055938 21.5427069"></polygon>
                    </g>
                    <g transform="translate(87.594465, 125.410131)">
                        <mask id="mask-10" fill="white">
                            <use xlink:href="#path-9"></use>
                        </mask>
                        <g id="Clip-13"></g>
                        <path d="M8.47233129,0.788869262 C12.7167697,0.788869262 16.1581778,4.23021247 16.1581778,8.47471581 C16.1581778,12.7198599 12.7167697,16.1605624 8.47233129,16.1605624 C4.22781173,16.1605624 0.786484746,12.7198599 0.786484746,8.47471581 C0.786484746,4.23021247 4.22781173,0.788869262 8.47233129,0.788869262" id="Fill-12" fill-opacity="0.56" fill="#FFFFFF" mask="url(#mask-10)"></path>
                    </g>
                    <g transform="translate(0.000000, 0.506912)">
                        <polygon id="Fill-14" fill-opacity="0.12" fill="#000000" points="89.1813845 10.9938726 111.201327 10.9938726 111.201327 14.2027125 89.1813845 14.2027125"></polygon>
                        <mask id="mask-12" fill="white">
                            <use xlink:href="#path-11"></use>
                        </mask>
                        <g id="Clip-17"></g>
                        <path d="M81.2076929,9.36052294 C83.1887066,9.36052294 84.7943618,10.9661781 84.7943618,12.9471919 C84.7943618,14.9282867 83.1887066,16.5339419 81.2076929,16.5339419 C79.2266305,16.5339419 77.6209347,14.9282867 77.6209347,12.9471919 C77.6209347,10.9661781 79.2266305,9.36052294 81.2076929,9.36052294" id="Fill-16" fill="#FFFFFF" mask="url(#mask-12)"></path>
                        <polygon id="Fill-18" fill="#E6E6E6" mask="url(#mask-12)" points="69.8322863 99.3618647 121.96152 99.3618647 121.96152 40.1744632 69.8322863 40.1744632"></polygon>
                    </g>
                    <g transform="translate(69.751148, 28.082948)">
                        <mask id="mask-14" fill="white">
                            <use xlink:href="#path-13"></use>
                        </mask>
                        <g id="Clip-20"></g>
                        <path d="M3.97549912,0.211281093 C6.12625143,0.211281093 7.86965704,1.95465426 7.86965704,4.1054228 C7.86965704,6.25619133 6.12625143,7.9995645 3.97549912,7.9995645 C1.82473869,7.9995645 0.0813330827,6.25619133 0.0813330827,4.1054228 C0.0813330827,1.95465426 1.82473869,0.211281093 3.97549912,0.211281093" id="Fill-19" fill-opacity="0.12" fill="#000000" mask="url(#mask-14)"></path>
                    </g>
                    <g transform="translate(0.000000, 0.506912)">
                        <g transform="translate(97.327183, 90.838704)">
                            <mask id="mask-16" fill="white">
                                <use xlink:href="#path-15"></use>
                            </mask>
                            <g id="Clip-22"></g>
                            <polygon id="Fill-21" fill-opacity="0.12" fill="#000000" mask="url(#mask-16)" points="2.90278324 0.779988156 24.6344833 0.779988156 24.6344833 8.51643673 0.263918878 8.51643673"></polygon>
                        </g>
                        <mask id="mask-18" fill="white">
                            <use xlink:href="#path-17"></use>
                        </mask>
                        <g id="Clip-24"></g>
                        <polygon id="Fill-23" fill="#E6E6E6" mask="url(#mask-18)" points="80.6052781 30.688883 91.9418998 30.688883 91.9418998 28.6841587 80.6052781 28.6841587"></polygon>
                    </g>
                    <polygon id="Fill-25" fill-opacity="0.56" fill="#E6E6E6" points="80.6052781 35.1859666 91.9418998 35.1859666 91.9418998 33.1812423 80.6052781 33.1812423"></polygon>
                    <path d="M34.4840105,137.977941 C34.4840105,137.977941 27.7588968,136.139747 26.2921842,129.875786 C26.2921842,129.875786 36.7193077,127.768579 37.0203407,138.528124 L34.4840105,137.977941 Z" id="Fill-27" fill-opacity="0.58" fill="#FC790D"></path>
                    <g transform="translate(0.000000, 0.506912)">
                        <g transform="translate(32.442394, 121.658979)">
                            <mask id="mask-20" fill="white">
                                <use xlink:href="#path-19"></use>
                            </mask>
                            <g id="Clip-30"></g>
                            <path d="M2.86784278,15.1459427 C2.86784278,15.1459427 -1.83332782,7.70989447 2.30421295,0.760603826 C2.30421295,0.760603826 10.2334423,5.79419542 6.71076605,15.1587574 L2.86784278,15.1459427 Z" id="Fill-29" fill-opacity="0.73" fill="#FC790D" mask="url(#mask-20)"></path>
                        </g>
                        <mask id="mask-22" fill="white">
                            <use xlink:href="#path-21"></use>
                        </mask>
                        <g id="Clip-32"></g>
                        <path d="M36.5208251,136.811134 C36.5208251,136.811134 39.0059125,128.958769 46.5188249,127.472834 C46.5188249,127.472834 47.9278954,132.596729 41.6575267,136.830348 L36.5208251,136.811134 Z" id="Fill-31" fill="#FC790D" mask="url(#mask-22)"></path>
                        <polygon id="Fill-33" fill="#24285B" mask="url(#mask-22)" points="31.6402481 136.631671 33.0044832 145.963564 41.5998198 146.002 42.8679849 136.676507"></polygon>
                    </g>
                    <g transform="translate(0.000000, 0.506912)">
                        <g transform="translate(73.806447, 103.004602)">
                            <mask id="mask-24" fill="white">
                                <use xlink:href="#path-23"></use>
                            </mask>
                            <g id="Clip-35"></g>
                            <path d="M7.99039952,0.481841235 C7.42549633,0.479303935 6.87658724,0.668889177 6.4340081,1.01987533 C6.05997162,1.32026757 5.74996832,1.69238995 5.52451801,2.11511434 C5.29842697,1.69238995 4.98907251,1.32026757 4.61502793,1.01987533 C4.17244878,0.668889177 3.62355591,0.479303935 3.05864461,0.481841235 C1.48112507,0.510691951 0.225774733,1.81279989 0.25459169,3.39031943 C0.255873164,3.43066966 0.257154639,3.47101989 0.259717588,3.51137011 C0.259717588,5.38159304 1.75845888,6.66256476 4.03218409,8.59683709 L5.31315581,9.69206799 C5.3733689,9.7458737 5.45086567,9.7753314 5.53092538,9.7753314 C5.6109851,9.7734173 5.68784114,9.74395149 5.74869496,9.69206799 L7.02966668,8.59683709 C9.29701696,6.67537951 10.7956934,5.39440779 10.7956934,3.51137011 C10.8911551,1.93641353 9.69216532,0.582422085 8.11781703,0.486992782 C8.07491196,0.484429833 8.03265574,0.482507621 7.99039952,0.481841235" id="Fill-34" fill-opacity="0.12" fill="#000000" mask="url(#mask-24)"></path>
                        </g>
                        <mask id="mask-26" fill="white">
                            <use xlink:href="#path-25"></use>
                        </mask>
                        <g id="Clip-37"></g>
                        <polygon id="Fill-36" fill="#C9C9C9" mask="url(#mask-26)" points="88.5024463 107.323115 117.670219 107.323115 117.670219 104.652284 88.5024463 104.652284"></polygon>
                        <path d="M105.616134,99.3552059 C105.878755,99.3552059 116.543543,79.1933121 116.543543,79.1933121 L112.610957,77.5920934 L97.1040606,99.3686532 L105.616134,99.3552059 Z" id="Fill-38" fill="#FC790D" mask="url(#mask-26)"></path>
                    </g>
                    <g transform="translate(0.000000, 0.506912)">
                        <g transform="translate(88.405525, 108.682021)">
                            <mask id="mask-28" fill="white">
                                <use xlink:href="#path-27"></use>
                            </mask>
                            <g id="Clip-40"></g>
                            <polygon id="Fill-39" fill-opacity="0.34" fill="#C9C9C9" mask="url(#mask-28)" points="0.0969216532 2.92659595 29.2646943 2.92659595 29.2646943 0.255124556 0.0969216532 0.255124556"></polygon>
                        </g>
                        <mask id="mask-30" fill="white">
                            <use xlink:href="#path-29"></use>
                        </mask>
                        <g id="Clip-42"></g>
                        <path d="M87.9005588,53.2851729 C87.9005588,53.2851729 89.2583541,57.2626104 89.239132,60.1383854 C89.2321569,61.3021751 88.2835413,62.2398415 87.1198326,62.2328248 L87.0999616,62.2328248 C85.6524631,62.2328248 83.7053517,61.7395797 82.7190218,59.6708093 L80.5990005,56.4043469 C79.875892,54.9754216 80.1327303,53.2454309 81.2394864,52.0874808 C83.1609683,49.8905629 87.1959911,50.8193076 87.9005588,53.2851729" id="Fill-41" fill="#F4A28C" mask="url(#mask-30)"></path>
                        <polygon id="Fill-43" fill="#F4A28C" mask="url(#mask-30)" points="81.4571749 57.2178399 79.3307787 68.6185028 86.4914234 71.6223441 85.3257682 61.6819945"></polygon>
                        <path d="M88.6242675,55.834334 L90.1485734,57.1152408 C90.4330121,57.3541791 90.4701587,57.7782012 90.2318693,58.0625588 C90.1671467,58.1394472 90.0864462,58.2009256 89.9948776,58.2425329 L88.5025274,58.9663228 L88.6242675,55.834334 Z" id="Fill-44" fill="#F4A28C" mask="url(#mask-30)"></path>
                    </g>
                    <g transform="translate(0.000000, 0.506912)">
                        <g transform="translate(82.728106, 60.018430)">
                            <mask id="mask-32" fill="white">
                                <use xlink:href="#path-31"></use>
                            </mask>
                            <g id="Clip-46"></g>
                            <path d="M2.62986159,1.94548928 C1.73639805,1.67905612 0.932556626,1.17441468 0.304877401,0.485257114 C0.304877401,0.485257114 -0.521349278,3.38666155 2.96929015,4.78930847 L2.62986159,1.94548928 Z" id="Fill-45" fill-opacity="0.31" fill="#CE8172" mask="url(#mask-32)"></path>
                        </g>
                        <mask id="mask-34" fill="white">
                            <use xlink:href="#path-33"></use>
                        </mask>
                        <g id="Clip-48"></g>
                        <path d="M81.662373,59.4785882 C81.662373,59.4785882 83.9744614,63.0333013 86.0688612,63.0781529 C88.1632611,63.1230045 91.0518508,62.681058 89.9118251,59.4017808 C89.20085,57.3585588 87.0040132,58.7036205 84.36523,59.9525715 C84.36523,59.9525715 82.4437481,57.6660316 82.2323859,55.9559119 C82.2323859,55.9559119 83.9232835,55.1873515 83.3212337,53.6565572 C83.3212337,53.6565572 87.900721,54.8926935 88.2017053,52.4524577 C88.5027708,50.0122219 88.02238,48.7760856 85.9343875,48.4493907 C83.846395,48.1227769 78.6776727,49.9545555 77.9411087,52.6638199 C77.2045528,55.3730843 81.662373,59.4785882 81.662373,59.4785882" id="Fill-47" fill="#24285B" mask="url(#mask-34)"></path>
                        <path d="M81.8800615,58.8124647 C81.8979859,58.1111412 81.512408,57.4610768 80.8872837,57.1408703 C80.4466348,56.9121514 79.9105405,56.9755763 79.5358633,57.3009735 C78.3317476,58.2680813 79.9713943,60.7275392 81.8736541,59.8309126 L81.8800615,58.8124647 Z" id="Fill-49" fill="#F4A28C" mask="url(#mask-34)"></path>
                        <path d="M116.543219,79.1929958 C116.543219,79.1929958 119.457438,73.1404049 115.902806,71.6224252 C112.348093,70.1044456 113.411311,77.7647032 113.411311,77.7647032 L116.543219,79.1929958 Z" id="Fill-50" fill="#E59383" mask="url(#mask-34)"></path>
                        <path d="M69.8324161,68.2149194 C69.8324161,68.2149194 84.454771,67.01082 93.9211373,73.3772343 C103.387504,79.7436811 99.7687977,99.3553924 99.7687977,99.3553924 L69.8324161,99.3553924 L69.8324161,68.2149194 Z" id="Fill-51" fill="#FC790D" mask="url(#mask-34)"></path>
                    </g>
                    <g transform="translate(0.000000, 0.506912)">
                        <g transform="translate(75.428567, 69.751148)">
                            <mask id="mask-36" fill="white">
                                <use xlink:href="#path-35"></use>
                            </mask>
                            <g id="Clip-53"></g>
                            <path d="M0.539776558,0.404637764 C0.539776558,0.404637764 7.47626868,3.19719797 7.91180782,11.0239094 C8.34734697,18.8500206 9.83320863,26.856106 17.0323382,26.856106 C24.2313866,26.856106 40.1794999,9.24976461 40.1794999,9.24976461 L41.1146519,9.44190469 L30.1878913,29.6038248 L10.5762206,29.6038248 C10.5762206,29.6038248 -2.2719571,29.7837726 0.539776558,0.404637764" id="Fill-52" fill-opacity="0.12" fill="#000000" mask="url(#mask-36)"></path>
                        </g>
                        <mask id="mask-38" fill="white">
                            <use xlink:href="#path-37"></use>
                        </mask>
                        <g id="Clip-55"></g>
                        <polygon id="Fill-54" fill="#FC790D" mask="url(#mask-38)" points="90.4947338 95.5122826 109.036779 79.0005232 112.706825 83.0099733 99.8650705 99.3552059 86.0048686 99.3552059"></polygon>
                    </g>
                    <g transform="translate(0.000000, 0.506912)">
                        <g transform="translate(85.972345, 78.672806)">
                            <mask id="mask-40" fill="white">
                                <use xlink:href="#path-39"></use>
                            </mask>
                            <g id="Clip-57"></g>
                            <polygon id="Fill-56" fill-opacity="0.46" fill="#FFFFFF" mask="url(#mask-40)" points="4.52238867 16.8394762 23.0644336 0.327716847 26.7344795 4.33716693 13.8927254 20.6823995 0.0325235004 20.6823995"></polygon>
                        </g>
                        <mask id="mask-42" fill="white">
                            <use xlink:href="#path-41"></use>
                        </mask>
                        <g id="Clip-59"></g>
                        <path d="M109.606711,79.6220546 C109.606711,79.6220546 111.111875,76.2274609 112.706662,75.9200692 C114.301531,75.6125964 118.592767,78.1040993 112.232679,82.4978377 L109.606711,79.6220546 Z" id="Fill-58" fill="#F4A28C" mask="url(#mask-42)"></path>
                        <path d="M77.0635825,68.2981342 C77.0635825,68.2981342 77.8449738,65.4159519 81.8800615,66.0628532 C85.9150843,66.7096734 88.4258012,66.9915167 88.5026897,70.6550741 L77.0635825,68.2981342 Z" id="Fill-60" fill="#FFFFFF" mask="url(#mask-42)"></path>
                        <path d="M114.237132,72.7686961 L113.058662,72.8199551 L113.058662,72.1346095 L114.230725,72.0834316 C114.938456,72.0513948 115.486083,71.4525082 115.454047,70.7447774 C115.422659,70.0376954 114.823204,69.4894189 114.116041,69.5214558 L112.94333,69.5727147 L112.94333,68.8873692 L114.116041,68.8361102 C115.205538,68.7490024 116.159182,69.5611166 116.246939,70.6506133 C116.334047,71.74011 115.521932,72.694403 114.433084,72.7821597 C114.384421,72.785404 114.336406,72.7879182 114.288391,72.7879182 L114.237132,72.7686961 Z" id="Fill-61" fill="#FFD200" mask="url(#mask-42)"></path>
                    </g>
                    <g transform="translate(0.000000, 0.506912)">
                        <g transform="translate(112.737320, 68.129028)">
                            <mask id="mask-44" fill="white">
                                <use xlink:href="#path-43"></use>
                            </mask>
                            <g id="Clip-63"></g>
                            <path d="M1.49981189,4.63966793 L0.321341916,4.69092691 L0.321341916,4.00558133 L1.49340452,3.95440345 C2.20113535,3.92236659 2.74876297,3.32347999 2.71672611,2.61574915 C2.68533809,1.90866717 2.08588375,1.3603907 1.37872066,1.39242757 L0.206009204,1.44368655 L0.206009204,0.758340969 L1.37872066,0.707081986 C2.46821736,0.619974157 3.42186155,1.43208839 3.50961822,2.5215851 C3.59672605,3.61108181 2.78461182,4.56537484 1.69576395,4.65313152 C1.64710036,4.65637576 1.59908562,4.65889004 1.55107088,4.65889004 L1.49981189,4.63966793 Z" id="Fill-62" fill-opacity="0.46" fill="#FFFFFF" mask="url(#mask-44)"></path>
                        </g>
                        <mask id="mask-46" fill="white">
                            <use xlink:href="#path-45"></use>
                        </mask>
                        <g id="Clip-65"></g>
                        <polygon id="Fill-64" fill="#FFD200" mask="url(#mask-46)" points="113.263942 73.6271219 109.139135 73.8065283 107.634051 67.4976992 113.994058 67.2222633"></polygon>
                        <polygon id="Fill-66" fill="#FFD200" mask="url(#mask-46)" points="106.436196 73.8063661 116.543057 73.8063661 114.781759 75.9199881 108.371061 75.9199881"></polygon>
                    </g>
                    <g transform="translate(106.248842, 74.313360)">
                        <mask id="mask-48" fill="white">
                            <use xlink:href="#path-47"></use>
                        </mask>
                        <g id="Clip-68"></g>
                        <polygon id="Fill-67" fill-opacity="0.31" fill="#CE8172" mask="url(#mask-48)" points="0.187354828 -8.1105986e-05 10.2942151 -8.1105986e-05 8.53291746 2.11354089 2.12221923 2.11354089"></polygon>
                    </g>
                    <g transform="translate(0.000000, 0.506912)">
                        <path d="M113.30198,67.254219 C113.30198,67.254219 115.383565,63.5265879 112.610957,62.4954064 C109.837619,61.4642249 108.1275,64.4872883 107.038652,60.5034434 C105.949885,56.5195985 103.899688,55.2706474 100.025336,56.2570584 C96.1497675,57.2433883 99.7237028,62.2135631 95.3818561,62.661917 C91.0387116,63.1102709 91.9103577,69.5535737 95.5605326,69.4254263 C99.2112752,69.2973599 101.965391,62.4441474 103.425704,64.8139021 C104.886018,67.1837379 108.197332,67.478396 108.197332,67.478396 L113.30198,67.254219 Z" id="Fill-69" fill-opacity="0.54" fill="#FFFFFF"></path>
                        <mask id="mask-50" fill="white">
                            <use xlink:href="#path-49"></use>
                        </mask>
                        <g id="Clip-72"></g>
                        <path d="M69.8324161,68.2149194 C69.8324161,68.2149194 77.9153657,67.1837379 78.6903496,76.5412518 C79.4653416,85.8987658 76.4550524,96.4988234 86.0047064,99.3361784 L69.8324161,99.3361784 L69.8324161,68.2149194 Z" id="Fill-71" fill="#FC790D" mask="url(#mask-50)"></path>
                    </g>
                    <g transform="translate(0.000000, 0.506912)">
                        <g transform="translate(69.751148, 68.129028)">
                            <mask id="mask-52" fill="white">
                                <use xlink:href="#path-51"></use>
                            </mask>
                            <g id="Clip-74"></g>
                            <path d="M0.0812681979,0.0858912391 C0.0812681979,0.0858912391 8.16421776,-0.945290266 8.93920168,8.41222365 C9.71419371,17.7697376 6.70390449,28.3697952 16.2535585,31.2071502 L0.0812681979,31.2071502 L0.0812681979,0.0858912391 Z" id="Fill-73" fill-opacity="0.46" fill="#FFFFFF" mask="url(#mask-52)"></path>
                        </g>
                        <mask id="mask-54" fill="white">
                            <use xlink:href="#path-53"></use>
                        </mask>
                        <g id="Clip-76"></g>
                        <polygon id="Fill-75" fill="#FFD200" mask="url(#mask-54)" points="15.2309093 15.3044562 6.59714386 10.2702077 41.4396355 6.38879962 25.5043207 29.9523595 19.8296025 17.8214994"></polygon>
                        <polygon id="Fill-77" fill="#FFD200" mask="url(#mask-54)" points="15.2309093 15.3044562 17.6391407 24.104699 19.8296025 17.8214994 41.4396355 6.38879962"></polygon>
                    </g>
                    <g transform="translate(0.000000, 0.506912)">
                        <g transform="translate(14.599077, 5.677419)">
                            <mask id="mask-56" fill="white">
                                <use xlink:href="#path-55"></use>
                            </mask>
                            <g id="Clip-79"></g>
                            <polygon id="Fill-78" fill-opacity="0.46" fill="#FFFFFF" mask="url(#mask-56)" points="0.631831852 9.62703721 3.04006323 18.42728 5.23052503 12.1440804 26.840558 0.711380603"></polygon>
                        </g>
                        <mask id="mask-58" fill="white">
                            <use xlink:href="#path-57"></use>
                        </mask>
                        <g id="Clip-81"></g>
                        <polygon id="Fill-80" fill="#24285B" mask="url(#mask-58)" points="17.6393272 24.1045368 21.4886579 21.369643 19.8297972 17.8213372"></polygon>
                        <polygon id="Fill-82" fill="#24285B" mask="url(#mask-58)" points="119.316314 28.107685 166.071863 28.107685 166.071863 0.304147447 119.316314 0.304147447"></polygon>
                    </g>
                    <g transform="translate(0.000000, 0.506912)">
                        <polygon id="Fill-83" fill-opacity="0.12" fill="#000000" points="119.316314 28.1012654 135.103675 28.1012654 135.103675 33.6735021 119.316314 33.6735021"></polygon>
                        <mask id="mask-60" fill="white">
                            <use xlink:href="#path-59"></use>
                        </mask>
                        <g id="Clip-86"></g>
                        <path d="M136.449629,8.89291703 C135.704103,8.8897838 134.979745,9.13764369 134.393673,9.59751464 C133.902414,9.99331185 133.495749,10.4832731 133.195981,11.0386058 C132.89816,10.4819754 132.490846,9.99201415 131.998289,9.59751464 C131.414164,9.13886028 130.691671,8.89035154 129.948741,8.89291703 C127.847285,8.89291703 126.26588,10.609474 126.26588,12.8831992 C126.26588,15.3426572 128.238621,17.0271474 131.229647,19.5763085 C131.735668,20.0117665 132.312088,20.4985647 132.913489,21.023807 C132.991675,21.0935582 133.091598,21.1326513 133.195981,21.1326513 C133.302311,21.1326513 133.40418,21.094207 133.484232,21.023807 C134.079874,20.4985647 134.656294,20.0117665 135.162315,19.5763085 C138.153341,17.0143326 140.132489,15.3426572 140.132489,12.8831992 C140.164445,10.609474 138.544029,8.89291703 136.449629,8.89291703" id="Fill-85" fill="#FC790D" mask="url(#mask-60)"></path>
                        <path d="M148.445691,13.29319 C148.535962,12.5521246 148.007556,11.8789449 147.266491,11.7893228 C147.18579,11.7790223 147.10509,11.7765081 147.023741,11.7816177 C146.20968,11.8488546 145.603818,12.5636416 145.671055,13.3777024 C145.732533,14.1206333 146.337178,14.7022443 147.081407,14.7342811 C147.787272,14.7861079 148.401488,14.2558369 148.453315,13.5506204 C148.459073,13.4648103 148.457208,13.3783513 148.445691,13.29319 L148.445691,13.29319 Z M145.794012,16.9247105 C145.881119,17.6049464 146.487711,18.0962054 147.171759,18.0391879 C148.170255,18.0391879 148.605794,17.2897686 148.605794,15.2914793 C148.145923,15.8486774 147.451007,16.156799 146.729164,16.1241133 C145.281665,16.2074092 144.040419,15.1006369 143.957123,13.6531384 C143.950067,13.528884 143.952014,13.4039808 143.962233,13.2803752 C143.857849,11.7559882 145.008825,10.4353395 146.533779,10.330875 C146.67539,10.3206556 146.818218,10.3219533 146.960397,10.3341192 C149.374354,10.3341192 150.117366,11.9673504 150.117366,14.7790517 C150.117366,17.8021962 149.445484,19.4354274 147.09487,19.4354274 C145.639667,19.5711988 144.350406,18.5022219 144.214635,17.0476672 C144.210742,17.0067087 144.207579,16.9657501 144.205632,16.9247105 L145.794012,16.9247105 Z" id="Fill-87" fill="#FFFFFF" mask="url(#mask-60)"></path>
                        <path d="M156.073952,13.29319 C156.066247,12.5047587 155.419994,11.8712398 154.631563,11.8789449 C153.843132,11.8872988 153.209694,12.5329025 153.217318,13.3213338 C153.225672,14.1104139 153.871276,14.7438517 154.660356,14.7354977 C154.676415,14.7354977 154.69369,14.73493 154.709668,14.7342811 C155.415534,14.7861079 156.029749,14.2558369 156.080927,13.5506204 C156.087334,13.4648103 156.085469,13.3783513 156.073952,13.29319 L156.073952,13.29319 Z M153.416514,16.9247105 C153.502324,17.6049464 154.110214,18.0962054 154.792964,18.0391879 C155.792758,18.0391879 156.234055,17.2897686 156.234055,15.2914793 C155.773535,15.8474608 155.078619,16.1555013 154.357425,16.1241133 C152.909926,16.2074092 151.66868,15.1006369 151.585385,13.6531384 C151.578328,13.528884 151.579626,13.4039808 151.590494,13.2803752 C151.486111,11.7559882 152.637086,10.4353395 154.161392,10.330875 C154.303652,10.3206556 154.446479,10.3219533 154.588009,10.3341192 C157.002616,10.3341192 157.745627,11.9673504 157.745627,14.7790517 C157.745627,17.8021962 157.073745,19.4354274 154.723132,19.4354274 C153.267928,19.5711988 151.978019,18.5022219 151.842896,17.0476672 C151.839003,17.0067087 151.83584,16.9657501 151.833893,16.9247105 L153.416514,16.9247105 Z" id="Fill-88" fill="#FFFFFF" mask="url(#mask-60)"></path>
                    </g>
                </g>
                <g id="独家解决方案备份" transform="translate(24.461564, 150.986898)">
                    <rect id="Rectangle-3" fill="#FC790D" x="0" y="0" width="170.724849" height="33.4026878" rx="3.6022268"></rect>
                    <text id="独家功能" font-family="FZLTCHJW--GB1-0, FZLanTingHeiS-B-GB" font-size="18.011134" font-weight="normal" line-spacing="21.6133608" fill="#FFFFFF">
                        <tspan x="88.2357293" y="21.6301145">独家功能</tspan>
                    </text>
                    <g id="句客宝logo" transform="translate(7.586043, 6.804206)">
                        <path d="M8.5045812,-1.54758361e-13 C10.8112375,-1.54758361e-13 12.8057681,0.840190548 14.4873285,2.51821487 C16.1682133,4.19724924 17.0093313,6.18872473 17.0093313,8.49129462 C17.0093313,13.6068447 13.4313707,17.3731406 6.27595631,19.7940543 L6.27595631,19.7940543 L6.27595631,16.690349 C4.35962604,16.1429037 2.8344663,15.0988521 1.7008149,13.5571841 C0.566319003,12.0151794 0,10.3273913 0,8.49129462 C0,6.18872473 0.840104599,4.19724924 2.52200279,2.51821487 C4.20254978,0.840190548 6.19691149,-1.54758361e-13 8.5045812,-1.54758361e-13 Z M8.58225794,5.2306954 C6.81253216,5.18709504 5.34614935,6.43618618 5.30679584,8.02094952 C5.26761122,9.60554452 6.67031904,10.9251706 8.44021371,10.9691076 C8.51132027,10.9712961 8.58090674,10.9669192 8.65066211,10.9650674 C8.65066211,10.9654041 8.95214717,11.178019 9.2828518,11.3477068 C9.65155874,11.5364172 10.1045464,11.6631781 10.3678602,11.6406204 C10.7162993,11.610824 10.7711915,11.3874353 10.7014361,11.2731317 C10.6352277,11.164215 10.5195317,11.1593331 10.4077204,11.0893032 C10.2734456,11.0047959 10.2139931,10.9620373 10.158763,10.8308996 C10.0954258,10.6798976 10.1687281,10.5677824 10.3080699,10.4928706 L10.3218071,10.4797026 C10.326236,10.4754379 10.3316595,10.4702006 10.3379651,10.4640842 C11.1498635,9.96225936 11.6920299,9.1326743 11.7156758,8.17919018 C11.7550293,6.59476352 10.3523215,5.27463243 8.58225794,5.2306954 Z" id="形状结合" fill="#FFFFFF"></path>
                        <path d="M31.6453564,18.3197822 C32.0357836,18.3197822 32.4576967,18.23199 32.911096,18.0564057 C33.3644952,17.8808213 33.7864084,17.5986322 34.1768355,17.2098383 C34.5672626,16.8210443 34.8978662,16.3131039 35.1686463,15.6860169 C35.4394264,15.05893 35.5811137,14.2938839 35.5937081,13.3908786 L35.5937081,13.3908786 L35.6881663,4.79351628 C35.7133551,4.36709715 35.5748165,4.0033867 35.2725503,3.70238496 C34.9576897,3.38884147 34.5609654,3.23206973 34.0823773,3.23206973 L34.0823773,3.23206973 L26.3556987,3.23206973 C26.4438597,2.98123495 26.5257234,2.71472298 26.6012899,2.43253385 C26.6768565,2.15034471 26.7650174,1.8524784 26.8657728,1.53893492 C26.928745,1.35080883 26.9098533,1.17208904 26.8090979,1.00277556 C26.7083425,0.833462079 26.5635067,0.71745099 26.3745903,0.654742293 C26.1730796,0.592033596 25.9873118,0.610846205 25.8172871,0.71118012 C25.6472624,0.811514035 25.530764,0.955744037 25.4677919,1.14387013 C25.2536867,1.88383275 25.0490273,2.54854494 24.8538137,3.13800669 C24.6586002,3.72746844 24.4539408,4.26989867 24.2398356,4.76529737 C24.0257304,5.26069608 23.789585,5.72474043 23.5313993,6.15743044 C23.2732136,6.59012045 22.9740961,7.01967502 22.6340466,7.44609416 C22.5081024,7.60913677 22.4577247,7.78785656 22.4829136,7.98225352 C22.5081024,8.17665048 22.6025606,8.33655766 22.7662881,8.46197505 C22.9048267,8.56230896 23.0496626,8.61247592 23.2007957,8.61247592 C23.3015511,8.61247592 23.4054551,8.59052788 23.5125077,8.54663179 C23.6195603,8.5027357 23.7108698,8.4306207 23.7864364,8.33028679 C24.25243,7.74082504 24.6460057,7.16076959 24.9671635,6.59012045 C25.2883213,6.01947131 25.5811417,5.37670716 25.8456246,4.66182802 L25.8456246,4.66182802 L34.0823773,4.66182802 C34.1579439,4.66182802 34.2083216,4.68064063 34.2335104,4.71826585 C34.2461048,4.71826585 34.252402,4.73707846 34.252402,4.77470367 L34.252402,4.77470367 L34.1390522,13.372066 C34.1264578,14.0869452 34.0225538,14.670136 33.8273403,15.1216387 C33.6321267,15.5731413 33.4022785,15.9305808 33.1377956,16.1939574 C32.8733127,16.4573339 32.599384,16.6360537 32.3160095,16.7301167 C32.032635,16.8241798 31.8090839,16.8712113 31.6453564,16.8712113 L31.6453564,16.8712113 L31.1730656,16.8712113 C30.9589604,16.8586696 30.7826385,16.9213783 30.6440998,17.0593374 C30.5055611,17.1972965 30.4362918,17.36661 30.4362918,17.5672778 C30.4236974,17.7804874 30.4866695,17.9560717 30.6252082,18.0940309 C30.7637468,18.23199 30.9337715,18.3072405 31.1352823,18.3197822 L31.1352823,18.3197822 L31.6453564,18.3197822 Z M30.9270496,14.1810082 C31.267099,14.1810082 31.5567707,14.0618617 31.7960648,13.8235686 C32.0353588,13.5852756 32.1550058,13.2968156 32.1550058,12.9581886 L32.1550058,12.9581886 L32.1550058,8.23622374 C32.1550058,7.89759678 32.0353588,7.60913677 31.7960648,7.37084372 C31.5567707,7.13255068 31.267099,7.01340415 30.9270496,7.01340415 L30.9270496,7.01340415 L26.506407,7.01340415 C26.1663576,7.01340415 25.8766859,7.13255068 25.6373918,7.37084372 C25.3980978,7.60913677 25.2784508,7.89759678 25.2784508,8.23622374 L25.2784508,8.23622374 L25.2784508,12.9581886 C25.2784508,13.2968156 25.3980978,13.5852756 25.6373918,13.8235686 C25.8766859,14.0618617 26.1663576,14.1810082 26.506407,14.1810082 L26.506407,14.1810082 L30.9270496,14.1810082 Z M30.7003499,12.7324373 L26.7331066,12.7324373 L26.7331066,8.44316244 L30.7003499,8.44316244 L30.7003499,12.7324373 Z M53.0865124,6.37377544 C53.2880232,6.37377544 53.4611965,6.30166044 53.6060324,6.15743044 C53.7508682,6.01320044 53.8232862,5.84702239 53.8232862,5.6588963 L53.8232862,5.6588963 L53.8232862,3.60832191 C53.8232862,3.26969495 53.7004906,2.98123495 53.4548993,2.7429419 C53.209308,2.50464885 52.9164877,2.38550233 52.5764383,2.38550233 L52.5764383,2.38550233 L48.3069288,2.38550233 L47.6457216,1.04980708 C47.5449662,0.874222732 47.403279,0.751940773 47.2206598,0.682961206 C47.0380407,0.61398164 46.8585701,0.623387944 46.6822482,0.71118012 C46.5059263,0.798972295 46.3799821,0.936931428 46.3044155,1.12505752 C46.228849,1.31318361 46.2414434,1.49503883 46.3421988,1.67062318 L46.3421988,1.67062318 L46.7011399,2.36668972 L42.1293642,2.36668972 C41.7767204,2.36668972 41.4807514,2.48583624 41.2414574,2.72412929 C41.0021634,2.96242234 40.8825163,3.25088234 40.8825163,3.5895093 L40.8825163,3.5895093 L40.8825163,5.64008369 C40.8825163,5.85329326 40.9549343,6.02887761 41.0997701,6.16683674 C41.244606,6.30479588 41.4177793,6.37377544 41.6192901,6.37377544 C41.8208009,6.37377544 41.9908256,6.30166044 42.1293642,6.15743044 C42.2679029,6.01320044 42.3371722,5.84702239 42.3371722,5.6588963 L42.3371722,5.6588963 L42.3371722,3.83407322 L52.3686303,3.83407322 L52.3686303,5.6588963 C52.3686303,5.84702239 52.4378996,6.01320044 52.5764383,6.15743044 C52.7149769,6.30166044 52.8850017,6.37377544 53.0865124,6.37377544 Z M53.4832368,12.8076877 C53.6595587,12.8076877 53.8138404,12.7543853 53.9460818,12.6477806 C54.0783232,12.5411758 54.1570384,12.4000812 54.1822272,12.2244969 C54.2326049,12.023829 54.2011189,11.8419738 54.0877691,11.6789312 C53.9744193,11.5158886 53.816989,11.4155547 53.6154782,11.3779295 C52.5449522,11.1647199 51.6098163,10.9483749 50.8100704,10.7288944 C50.0103246,10.509414 49.3081855,10.2617146 48.7036531,9.98579638 C49.3585632,9.5468355 49.9410552,9.07024941 50.4511294,8.55603809 C50.9612035,8.04182678 51.4114541,7.47117764 51.8018813,6.84409067 C51.8774478,6.73121502 51.9183797,6.60266219 51.9246769,6.45843218 C51.9309741,6.31420218 51.9089339,6.18251392 51.8585562,6.06336739 C51.8081785,5.94422087 51.7294633,5.84075152 51.6224107,5.75295935 C51.5153581,5.66516717 51.3862653,5.62127108 51.2351322,5.62127108 L51.2351322,5.62127108 L45.7376665,5.62127108 C45.7880442,5.52093717 45.8321247,5.43314499 45.8699079,5.35789456 C45.9076912,5.28264412 45.9454745,5.19485194 45.9832577,5.09451803 C46.0714187,4.91893368 46.0808645,4.74021389 46.0115952,4.55835867 C45.9423259,4.37650345 45.813233,4.23540888 45.6243167,4.13507497 C45.4479947,4.04728279 45.2685242,4.03787649 45.0859051,4.10685605 C44.9032859,4.17583562 44.7615987,4.30438845 44.6608433,4.49251454 C44.3333883,5.1823102 43.9114751,5.83448065 43.3951038,6.44902588 C42.8787324,7.06357111 42.2679029,7.62167851 41.5626152,8.12334809 C41.3862933,8.23622374 41.2855379,8.38986005 41.260349,8.58425701 C41.2351602,8.77865397 41.2729435,8.95737375 41.3736988,9.12041637 C41.5374263,9.3210842 41.7389371,9.42141811 41.9782312,9.42141811 C42.1419587,9.42141811 42.2742001,9.37125115 42.3749555,9.27091724 C42.626844,9.09533289 42.8692866,8.91347767 43.1022834,8.72535158 C43.3352803,8.53722548 43.5588313,8.33655766 43.7729365,8.12334809 C44.1003915,8.46197505 44.4246979,8.78492484 44.7458557,9.09219745 C45.0670134,9.39947007 45.4102115,9.68479464 45.7754498,9.94817116 C44.4656297,10.5250912 42.9165157,11.0016773 41.1281076,11.3779295 C40.9265968,11.4155547 40.7691665,11.519024 40.6558167,11.6883375 C40.5424669,11.857651 40.5109809,12.0426416 40.5613585,12.2433095 C40.5991418,12.4063521 40.6841542,12.5411758 40.8163956,12.6477806 C40.9486371,12.7543853 41.1029187,12.8076877 41.2792407,12.8076877 C41.3422128,12.8076877 41.3925905,12.8014169 41.4303737,12.7888751 C42.5764663,12.5505821 43.6281006,12.2715284 44.5852768,11.951714 C45.5424529,11.6318997 46.4240625,11.2713247 47.2301056,10.869989 C47.9731766,11.2713247 48.832746,11.6256288 49.8088138,11.9329014 C50.7848816,12.240174 51.9656088,12.5254986 53.3509953,12.7888751 C53.3761842,12.7888751 53.3982244,12.7920106 53.417116,12.7982814 C53.4360077,12.8045523 53.4580479,12.8076877 53.4832368,12.8076877 Z M47.211214,9.1956668 C46.7704092,8.9072068 46.348496,8.58739244 45.9454745,8.23622374 C45.5424529,7.88505504 45.1394314,7.49626112 44.7364098,7.06984198 L44.7364098,7.06984198 L49.8182596,7.06984198 C49.1129719,7.89759678 48.2439567,8.60620505 47.211214,9.1956668 Z M51.0084326,18.0752183 C51.3106988,18.0752183 51.572033,17.9654781 51.7924354,17.7459976 C52.0128378,17.5265172 52.123039,17.2662761 52.123039,16.9652743 L52.123039,16.9652743 L52.123039,13.6918804 C52.123039,13.3783369 52.0159864,13.1118249 51.8018813,12.8923445 C51.5877761,12.672864 51.3232932,12.5631238 51.0084326,12.5631238 L51.0084326,12.5631238 L43.640695,12.5631238 C43.3384289,12.5631238 43.0770946,12.672864 42.8566922,12.8923445 C42.6362898,13.1118249 42.5260886,13.3846078 42.5260886,13.710693 L42.5260886,13.710693 L42.5260886,16.9652743 C42.5260886,17.2662761 42.6331412,17.5265172 42.8472464,17.7459976 C43.0613516,17.9654781 43.3258344,18.0752183 43.640695,18.0752183 L43.640695,18.0752183 L51.0084326,18.0752183 Z M50.6872748,16.64546 L43.9807444,16.64546 L43.9807444,13.9928821 L50.6872748,13.9928821 L50.6872748,16.64546 Z M59.1314108,6.67477719 C59.3329216,6.67477719 59.5029463,6.60266219 59.6414849,6.45843218 C59.7800236,6.31420218 59.8492929,6.14175327 59.8492929,5.94108544 L59.8492929,5.94108544 L59.8492929,4.39845149 L69.880751,4.39845149 L69.880751,5.94108544 C69.880751,6.12921153 69.9500203,6.29538957 70.088559,6.43961958 C70.2270976,6.58384958 70.3971224,6.65596458 70.5986331,6.65596458 C70.8001439,6.65596458 70.9733172,6.58384958 71.1181531,6.43961958 C71.2629889,6.29538957 71.3354069,6.12294066 71.3354069,5.92227283 L71.3354069,5.92227283 L71.3354069,4.05982453 C71.3354069,3.74628105 71.2157599,3.48290452 70.9764658,3.26969495 C70.7371718,3.05648538 70.4412028,2.9498806 70.088559,2.9498806 L70.088559,2.9498806 L66.1779906,2.9498806 C66.1653962,2.86208842 66.1339101,2.77429625 66.0835324,2.68650407 L66.0835324,2.68650407 L64.9878176,1.01218186 C64.8870622,0.836597514 64.7390777,0.729992729 64.5438642,0.692367511 C64.3486506,0.654742293 64.1628829,0.686096641 63.9865609,0.786430556 C63.810239,0.89930621 63.7031864,1.05294252 63.6654032,1.24733948 C63.6276199,1.44173644 63.6654032,1.62045622 63.778753,1.78349884 L63.778753,1.78349884 L64.5155267,2.96869321 L59.6414849,2.96869321 C59.2888411,2.96869321 58.9928721,3.07843343 58.7535781,3.29791386 C58.5142841,3.5173943 58.394637,3.7776354 58.394637,4.07863714 L58.394637,4.07863714 L58.394637,5.94108544 C58.394637,6.14175327 58.467055,6.31420218 58.6118908,6.45843218 C58.7567267,6.60266219 58.9299,6.67477719 59.1314108,6.67477719 Z M70.7308746,18.0564057 C70.9449798,18.0564057 71.1213017,17.9842907 71.2598403,17.8400607 C71.398379,17.6958307 71.4676483,17.5296526 71.4676483,17.3415265 C71.4676483,17.1408587 71.3952304,16.9684098 71.2503945,16.8241798 C71.1055587,16.6799498 70.9323853,16.6078348 70.7308746,16.6078348 L70.7308746,16.6078348 L65.5167834,16.6078348 L65.5167834,12.5443112 L69.6162681,12.5443112 C69.8303733,12.5443112 70.0066952,12.4753316 70.1452339,12.3373725 C70.2837725,12.1994134 70.3530419,12.0300999 70.3530419,11.8294321 C70.3530419,11.6287642 70.2806239,11.4563153 70.1357881,11.3120853 C69.9909522,11.1678553 69.8177789,11.0957403 69.6162681,11.0957403 L69.6162681,11.0957403 L65.5167834,11.0957403 L65.5167834,8.29266157 L70.2208004,8.29266157 C70.4349056,8.29266157 70.6112275,8.223682 70.7497662,8.08572287 C70.8883049,7.94776373 70.9575742,7.77845025 70.9575742,7.57778242 C70.9575742,7.37711459 70.8851563,7.20466568 70.7403204,7.06043567 C70.5954845,6.91620567 70.4223112,6.84409067 70.2208004,6.84409067 L70.2208004,6.84409067 L60.3026922,6.84409067 C60.088587,6.84409067 59.9154136,6.91620567 59.7831722,7.06043567 C59.6509308,7.20466568 59.58481,7.37711459 59.58481,7.57778242 C59.58481,7.77845025 59.6540794,7.94776373 59.792618,8.08572287 C59.9311567,8.223682 60.1011814,8.29266157 60.3026922,8.29266157 L60.3026922,8.29266157 L64.0432358,8.29266157 L64.0432358,11.0957403 L60.3026922,11.0957403 C60.088587,11.0957403 59.9154136,11.1678553 59.7831722,11.3120853 C59.6509308,11.4563153 59.58481,11.6287642 59.58481,11.8294321 C59.58481,12.0300999 59.6540794,12.1994134 59.792618,12.3373725 C59.9311567,12.4753316 60.1011814,12.5443112 60.3026922,12.5443112 L60.3026922,12.5443112 L64.0432358,12.5443112 L64.0432358,16.6078348 L58.9236028,16.6078348 C58.722092,16.6078348 58.5520673,16.6799498 58.4135287,16.8241798 C58.27499,16.9684098 58.2057207,17.1408587 58.2057207,17.3415265 C58.2057207,17.5296526 58.2781386,17.6958307 58.4229745,17.8400607 C58.5678104,17.9842907 58.7346865,18.0564057 58.9236028,18.0564057 L58.9236028,18.0564057 L70.7308746,18.0564057 Z" id="句客宝" stroke="#FFFFFF" stroke-width="0.519999981" fill="#FFFFFF" fill-rule="nonzero"></path>
                        <ellipse id="椭圆形" stroke="#FFFFFF" stroke-width="0.975194876" fill="#FC790D" fill-rule="nonzero" cx="68.4416639" cy="14.5723829" rx="1.4310552" ry="1.4660758"></ellipse>
                    </g>
                </g>
            </g>
        </g>
    </g>
</svg>