<?xml version="1.0" encoding="UTF-8"?>
<svg width="277px" height="281px" viewBox="0 0 277 281" version="1.1" xmlns="http://www.w3.org/2000/svg" xmlns:xlink="http://www.w3.org/1999/xlink">
    <title>4-2</title>
    <defs>
        <polyline id="path-1" points="254.20295 0.425039984 254.203082 36.9599986 0 36.9599986 0 0.424426184"></polyline>
        <polygon id="path-3" points="0 220.439992 254.203082 220.439992 254.203082 0.0205919992 0 0.0205919992"></polygon>
        <polygon id="path-5" points="0 220.439992 254.203082 220.439992 254.203082 0.0205919992 0 0.0205919992"></polygon>
        <polygon id="path-7" points="0.464639982 0.572173778 76.8410051 0.572173778 76.8410051 120.419853 0.464639982 120.419853"></polygon>
        <polygon id="path-9" points="0 220.439992 254.203082 220.439992 254.203082 0.0205919992 0 0.0205919992"></polygon>
        <polygon id="path-11" points="0.353891987 0.379308586 59.5650769 0.379308586 59.5650769 65.2737335 0.353891987 65.2737335"></polygon>
        <polygon id="path-13" points="0.0314159988 0.140474395 4.04495506 0.140474395 4.04495506 9.00827366 0.0314159988 9.00827366"></polygon>
        <polygon id="path-15" points="0 220.439992 254.203082 220.439992 254.203082 0.0205919992 0 0.0205919992"></polygon>
        <polygon id="path-17" points="0.298583989 0.174068393 54.0908919 0.174068393 54.0908919 71.8777197 0.298583989 71.8777197"></polygon>
        <polygon id="path-19" points="0 220.439992 254.203082 220.439992 254.203082 0.0205919992 0 0.0205919992"></polygon>
        <polygon id="path-21" points="0.52179598 0.191300993 22.2278752 0.191300993 22.2278752 14.9416074 0.52179598 14.9416074"></polygon>
        <polygon id="path-23" points="0.289871989 0.474573563 45.7343683 0.474573563 45.7343683 56.3049279 0.289871989 56.3049279"></polygon>
        <polygon id="path-25" points="0 220.439992 254.203082 220.439992 254.203082 0.0205919992 0 0.0205919992"></polygon>
        <polyline id="path-27" points="0 220.439992 254.203082 220.439992 254.203082 0.0205919992 0 0.0205919992"></polyline>
        <polygon id="path-29" points="0.394877985 0.398415585 23.7887355 0.398415585 23.7887355 23.7924051 0.394877985 23.7924051"></polygon>
        <polygon id="path-31" points="0.0291719989 0.191861993 27.6859759 0.191861993 27.6859759 20.7859072 0.0291719989 20.7859072"></polygon>
        <polygon id="path-33" points="0.0345179987 0.460761823 5.1463498 0.460761823 5.1463498 5.57251179 0.0345179987 5.57251179"></polygon>
    </defs>
    <g id="最新版备份" stroke="none" stroke-width="1" fill="none" fill-rule="evenodd">
        <g id="亮点4" transform="translate(-174.000000, -345.000000)">
            <g id="编组-4" transform="translate(130.000000, 241.000000)">
                <g id="4-2" transform="translate(44.000000, 104.000000)">
                    <g id="编组" transform="translate(12.000000, 0.000000)">
                        <g transform="translate(0.000000, 0.639408)">
                            <g transform="translate(0.000000, 183.479993)">
                                <mask id="mask-2" fill="white">
                                    <use xlink:href="#path-1"></use>
                                </mask>
                                <g id="Clip-2"></g>
                                <path d="M127.106161,0.424716584 C197.304683,0.424716584 254.21219,8.60578587 254.21219,18.6960305 C254.21219,28.7882287 197.304683,36.9692946 127.106161,36.9692946 C56.9066102,36.9692946 9.75562463e-05,28.7882287 9.75562463e-05,18.6960305 C9.75562463e-05,8.60578587 56.9066102,0.424716584 127.106161,0.424716584" id="Fill-1" fill-opacity="0.45" fill="#E6E6E6" mask="url(#mask-2)"></path>
                            </g>
                            <mask id="mask-4" fill="white">
                                <use xlink:href="#path-3"></use>
                            </mask>
                            <g id="Clip-4"></g>
                            <path d="M67.4406454,59.2080038 L65.3431787,62.1347076 C64.9549007,62.6780856 65.0797727,63.4341156 65.6231639,63.8223936 C65.7665687,63.9248256 65.9314433,63.9951156 66.1041455,64.0272576 L68.9820094,64.5638376 L67.4406454,59.2080038 Z" id="Fill-3" fill="#F4A28C" mask="url(#mask-4)"></path>
                            <polygon id="Fill-5" fill="#E6E6E6" mask="url(#mask-4)" points="166.947984 199.719266 223.189162 199.719266 223.189162 184.909249 166.947984 184.909249"></polygon>
                        </g>
                        <g transform="translate(0.000000, 0.639408)">
                            <polygon id="Fill-6" fill-opacity="0.43" fill="#E6E6E6" points="154.655946 170.422144 210.896148 170.422144 210.896148 185.231184 154.655946 185.231184"></polygon>
                            <mask id="mask-6" fill="white">
                                <use xlink:href="#path-5"></use>
                            </mask>
                            <g id="Clip-9"></g>
                            <polygon id="Fill-8" fill="#C9C9C9" mask="url(#mask-6)" points="71.4306753 199.707558 182.771615 199.707558 182.771615 0.0206051992 71.4306753 0.0206051992"></polygon>
                            <polygon id="Fill-10" fill="#FFFFFF" mask="url(#mask-6)" points="80.6399849 163.32005 172.801391 163.32005 172.801391 22.7902809 80.6399849 22.7902809"></polygon>
                            <path d="M67.0505195,54.3302079 C67.0505195,54.3302079 67.1773055,61.8517657 69.0016114,66.6807875 C69.7235194,68.6368294 71.8941933,69.6377194 73.8501692,68.9158114 C73.8599372,68.9119174 73.8697052,68.9090134 73.8794732,68.9051194 C76.2988351,67.9295074 79.293849,65.9784155 79.732815,61.9786176 L81.2839469,55.2082059 C81.6166529,52.377136 80.131851,49.6426241 77.5768591,48.3792522 C72.9721712,45.7452583 66.7383395,49.7450561 67.0505195,54.3302079" id="Fill-11" fill="#F4A28C" mask="url(#mask-6)"></path>
                        </g>
                        <g transform="translate(0.000000, 0.639408)">
                            <g transform="translate(79.199997, 42.899998)">
                                <mask id="mask-8" fill="white">
                                    <use xlink:href="#path-7"></use>
                                </mask>
                                <g id="Clip-13"></g>
                                <path d="M5.48875779,1.45972194 C5.48875779,1.45972194 15.0687894,-3.52538987 16.2882714,10.1325176 C17.5076873,23.7903591 18.4345253,33.3021467 28.8632509,35.2142327 C39.2920425,37.1263186 57.8374478,26.609747 66.8516615,41.4578324 C75.8658751,56.3058519 83.8850068,91.8173485 66.8516615,98.9087182 L70.8416913,120.419853 L1.44018595,120.419853 L1.44018595,98.9087182 L0.464639982,20.6295532 L5.48875779,1.45972194 Z" id="Fill-12" fill-opacity="0.08" fill="#000000" mask="url(#mask-8)"></path>
                            </g>
                            <mask id="mask-10" fill="white">
                                <use xlink:href="#path-9"></use>
                            </mask>
                            <g id="Clip-15"></g>
                            <polygon id="Fill-14" fill="#F4A28C" mask="url(#mask-10)" points="80.288667 57.0519818 92.9124865 78.582699 80.5423709 84.3580288 76.4742631 66.9051875"></polygon>
                            <path d="M82.3275389,56.9643998 L82.8445829,61.4226997 C80.6690909,62.5397496 78.006783,61.9592796 76.4936671,60.0374257 C74.9210852,58.1038898 74.6420372,55.4240259 75.7815271,53.208472 C75.7815271,53.208472 75.0790892,56.0083899 72.5621132,54.6328179 C70.0452033,53.257246 68.5037734,53.51095 68.5233094,55.3059519 C68.5428454,57.1010198 65.4405353,57.3448898 63.7528164,53.920678 C62.0650908,50.4964001 67.2355834,51.3549281 65.4795611,49.4135381 C63.7235454,47.4722142 61.3919503,46.2527322 64.3479054,44.0577043 C67.3038934,41.8626764 67.2745894,46.0088623 69.2257474,43.5504283 C71.1768393,41.0919944 71.1768393,38.6726325 74.7669092,39.5018565 C78.356979,40.3310805 76.4058871,43.9699243 79.878873,42.9553064 C83.3518588,41.9407544 84.4932628,42.6041204 85.3030168,46.3600482 C85.8200607,48.8087141 86.2102527,50.6134841 85.0786168,51.43294 C83.2182088,52.633876 82.1636609,54.7557099 82.3275389,56.9643998" id="Fill-16" fill="#24285B" mask="url(#mask-10)"></path>
                            <path d="M75.6742771,59.9006737 C75.6742771,59.9006737 75.4304071,56.9739698 77.6254351,56.9739698 C79.820397,56.9739698 80.191119,61.1396257 77.2937191,61.8517657 L75.6742771,59.9006737 Z" id="Fill-17" fill="#F4A28C" mask="url(#mask-10)"></path>
                            <path d="M75.6648391,87.4992987 C75.6648391,87.4992987 52.3293652,103.45955 67.0408835,135.653095 L29.3938909,134.004415 L29.3938909,143.106409 L87.7813167,152.39373 C87.7813167,152.39373 93.3224785,114.112676 75.6648391,87.4992987" id="Fill-18" fill="#FC790D" mask="url(#mask-10)"></path>
                        </g>
                        <g transform="translate(29.039999, 87.759405)">
                            <mask id="mask-12" fill="white">
                                <use xlink:href="#path-11"></use>
                            </mask>
                            <g id="Clip-20"></g>
                            <path d="M46.6248402,0.379301986 C46.6248402,0.379301986 23.2893663,16.3395534 38.0008846,48.5330982 L0.353891987,46.8844182 L0.353891987,55.9864119 L58.7413178,65.2737335 C58.7413178,65.2737335 64.2824796,26.992679 46.6248402,0.379301986" id="Fill-19" fill-opacity="0.2" fill="#FFFFFF" mask="url(#mask-12)"></path>
                        </g>
                        <g transform="translate(0.000000, 0.639408)">
                            <g transform="translate(76.559997, 63.359998)">
                                <mask id="mask-14" fill="white">
                                    <use xlink:href="#path-13"></use>
                                </mask>
                                <g id="Clip-22"></g>
                                <path d="M0.0313499988,4.04263185 C1.38250195,3.04365588 2.43513591,1.69448394 3.07507188,0.140381995 C3.07507188,0.140381995 6.21640776,4.53043783 1.19222395,9.00827366 L0.0313499988,4.04263185 Z" id="Fill-21" fill-opacity="0.31" fill="#CE8172" mask="url(#mask-14)"></path>
                            </g>
                            <mask id="mask-16" fill="white">
                                <use xlink:href="#path-15"></use>
                            </mask>
                            <g id="Clip-24"></g>
                            <path d="M92.9124865,78.582567 C92.9124865,78.582567 124.432897,65.5197815 127.057189,87.4699287 C129.681415,109.420142 133.242247,147.954834 133.242247,147.954834 L90.8540126,157.017815 C90.8540126,157.017815 50.3291693,99.2645242 80.5813769,84.3578968 L92.9124865,78.582567 Z" id="Fill-23" fill="#FC790D" mask="url(#mask-16)"></path>
                        </g>
                        <g transform="translate(0.000000, 0.639408)">
                            <g transform="translate(79.199997, 85.139997)">
                                <mask id="mask-18" fill="white">
                                    <use xlink:href="#path-17"></use>
                                </mask>
                                <g id="Clip-26"></g>
                                <path d="M24.6679611,0.173843993 C24.6679611,0.173843993 19.9462552,24.7190451 35.0674487,37.8110686 L11.6539496,39.2646525 L0.298385989,52.561606 L11.6539496,71.8777197 L54.0908919,62.8440096 L52.52029,46.2594642 L50.9203181,25.294631 L24.6679611,0.173843993 Z" id="Fill-25" fill-opacity="0.08" fill="#000000" mask="url(#mask-18)"></path>
                            </g>
                            <mask id="mask-20" fill="white">
                                <use xlink:href="#path-19"></use>
                            </mask>
                            <g id="Clip-28"></g>
                            <polygon id="Fill-27" fill="#FFD200" mask="url(#mask-20)" points="72.8062472 108.191024 94.0247184 108.191024 95.4880704 137.701801 74.1622832 137.701801"></polygon>
                            <path d="M103.936532,88.8946046 C102.864362,82.7806949 106.951016,76.9556671 113.06486,75.8834971 C115.128152,75.5215531 117.250052,75.7439731 119.194345,76.5244231 C123.190249,78.155613 126.659341,80.8559369 129.223111,84.3289228 C138.656821,96.9039683 152.63661,119.340931 142.559071,127.790251 C132.481465,136.238647 100.609868,127.790251 100.609868,127.790251 L100.609868,119.985751 L124.345315,117.74195 C124.345315,117.74195 107.038796,105.926894 103.936532,88.8946046" id="Fill-29" fill="#FC790D" mask="url(#mask-20)"></path>
                        </g>
                        <g transform="translate(73.259997, 123.399403)">
                            <mask id="mask-22" fill="white">
                                <use xlink:href="#path-21"></use>
                            </mask>
                            <g id="Clip-31"></g>
                            <path d="M14.4331435,0.191069993 C14.4331435,0.191069993 11.0381696,11.4880916 0.52159798,6.68830775 L0.902087966,14.9416074 L22.2278752,14.9416074 L21.7010632,4.31771984 L14.4331435,0.191069993 Z" id="Fill-30" fill-opacity="0.08" fill="#000000" mask="url(#mask-22)"></path>
                        </g>
                        <g transform="translate(0.000000, 0.639408)">
                            <g transform="translate(100.319996, 75.239997)">
                                <mask id="mask-24" fill="white">
                                    <use xlink:href="#path-23"></use>
                                </mask>
                                <g id="Clip-33"></g>
                                <path d="M3.61653586,13.6546075 C2.5443659,7.54069771 6.63101975,1.71566993 12.7448635,0.643499976 C14.8081554,0.281555989 16.9300554,0.503975981 18.8743493,1.28442595 C22.8702531,2.91561589 26.339345,5.61593979 28.9031149,9.08892566 C38.3368245,21.6639712 52.316614,44.1009343 42.2390744,52.550254 C32.1614688,60.9986497 0.289871989,52.550254 0.289871989,52.550254 L0.289871989,44.7457543 L24.0253191,42.5019524 C24.0253191,42.5019524 6.71879975,30.6868968 3.61653586,13.6546075" id="Fill-32" fill-opacity="0.2" fill="#FFFFFF" mask="url(#mask-24)"></path>
                            </g>
                            <mask id="mask-26" fill="white">
                                <use xlink:href="#path-25"></use>
                            </mask>
                            <g id="Clip-35"></g>
                            <path d="M100.609736,120.014923 C97.5006743,119.708617 94.3710204,119.659843 91.2541045,119.868601 C88.8123026,120.088117 87.0114267,122.245063 87.2308767,124.686865 C87.2796507,125.226349 87.4260387,125.752237 87.6640347,126.238987 L87.7225767,126.346303 C88.5674426,128.122825 90.6911906,128.876941 92.4677125,128.032075 C92.5125925,128.010625 92.5564825,127.989175 92.6003725,127.965745 C95.0812464,126.594133 98.0801543,126.539485 100.609736,127.819423 L100.609736,120.014923 Z" id="Fill-34" fill="#F4A28C" mask="url(#mask-26)"></path>
                            <polygon id="Fill-36" fill="#24285B" mask="url(#mask-26)" points="90.8151386 157.017716 133.291087 147.984006 134.754439 163.319852 90.8151386 163.319852"></polygon>
                            <polygon id="Fill-37" fill="#FFD200" mask="url(#mask-26)" points="126.725539 69.1489894 229.326429 69.1489894 229.326429 27.1998002 126.725539 27.1998002"></polygon>
                            <polygon id="Fill-38" fill="#24285B" mask="url(#mask-26)" points="151.612158 120.844081 254.212058 120.844081 254.212058 78.8948922 151.612158 78.8948922"></polygon>
                        </g>
                        <path d="M127.437745,171.061552 C133.455955,171.061552 138.334741,175.940338 138.334741,181.958587 C138.334741,187.97683 133.455955,192.855623 127.437745,192.855623 C121.419469,192.855623 116.540684,187.97683 116.540684,181.958587 C116.540684,175.940338 121.419469,171.061552 127.437745,171.061552" id="Fill-39" fill-opacity="0.56" fill="#FFFFFF"></path>
                        <g transform="translate(0.000000, 0.639408)">
                            <polygon id="Fill-41" fill-opacity="0.12" fill="#000000" points="117.682088 7.825128 148.900086 7.825128 148.900086 12.3810055 117.682088 12.3810055"></polygon>
                            <mask id="mask-28" fill="white">
                                <use xlink:href="#path-27"></use>
                            </mask>
                            <g id="Clip-44"></g>
                            <path d="M106.37543,5.52301179 C109.182146,5.52301179 111.45809,7.7989557 111.45809,10.6056716 C111.45809,13.4123875 109.182146,15.6883314 106.37543,15.6883314 C103.568714,15.6883314 101.29277,13.4123875 101.29277,10.6056716 C101.29277,7.7989557 103.568714,5.52301179 106.37543,5.52301179" id="Fill-43" fill="#FFFFFF" mask="url(#mask-28)"></path>
                            <path d="M29.3936995,135.536209 L27.1401494,126.678085 C26.9069912,125.747419 25.9636202,125.182591 25.0339113,125.414779 C24.7490421,125.485993 24.4866195,125.629411 24.2719941,125.829391 C23.9178645,126.160117 23.7169011,126.622513 23.7159243,127.106359 L23.7159243,131.546179 L21.0526396,132.393949 C19.0332245,133.028077 17.8313315,135.098167 18.2820389,137.165419 L18.7307993,139.243363 C19.1229779,141.053017 20.6507062,142.394401 22.4964687,142.549567 L29.3936995,143.106607 L29.3936995,135.536209 Z" id="Fill-45" fill="#F4A28C" mask="url(#mask-28)"></path>
                            <polygon id="Fill-46" fill="#E6E6E6" mask="url(#mask-28)" points="4.92649325 78.065721 4.92649325 108.043778 20.9354764 108.043778 23.7938703 117.08822 26.7888512 108.043778 42.6514952 108.043778 42.6514952 78.065721"></polygon>
                            <polyline id="Stroke-47" stroke="#A5A5A5" stroke-width="1.31999995" stroke-linecap="round" stroke-linejoin="round" mask="url(#mask-28)" points="17.3649161 92.9330125 21.7256804 98.0156929 30.6910994 87.1674383"></polyline>
                        </g>
                        <g transform="translate(137.939995, 36.279407)">
                            <mask id="mask-30" fill="white">
                                <use xlink:href="#path-29"></use>
                            </mask>
                            <g id="Clip-49"></g>
                            <path d="M12.0918595,0.398375985 C18.5520053,0.398375985 23.7888411,5.63521179 23.7888411,12.0954235 C23.7888411,18.5555693 18.5520053,23.7924051 12.0918595,23.7924051 C5.63171379,23.7924051 0.394877985,18.5555693 0.394877985,12.0954235 C0.394877985,5.63521179 5.63171379,0.398375985 12.0918595,0.398375985" id="Fill-48" fill-opacity="0.17" fill="#000000" mask="url(#mask-30)"></path>
                        </g>
                        <polygon id="Fill-50" fill-opacity="0.09" fill="#000000" points="174.264743 45.9456343 210.604448 45.9456343 210.604448 39.9459243 174.264743 39.9459243"></polygon>
                        <polygon id="Fill-52" fill-opacity="0.09" fill="#000000" points="174.264743 57.2914298 210.604448 57.2914298 210.604448 51.2917199 174.264743 51.2917199"></polygon>
                        <polygon id="Fill-54" fill-opacity="0.61" fill="#FFFFFF" points="200.604946 95.9822784 236.944651 95.9822784 236.944651 89.9825684 200.604946 89.9825684"></polygon>
                        <polygon id="Fill-56" fill-opacity="0.21" fill="#FFFFFF" points="200.604946 107.328074 236.944651 107.328074 236.944651 101.328364 200.604946 101.328364"></polygon>
                        <g transform="translate(161.699994, 93.039404)">
                            <mask id="mask-32" fill="white">
                                <use xlink:href="#path-31"></use>
                            </mask>
                            <g id="Clip-59"></g>
                            <polygon id="Fill-58" fill-opacity="0.61" fill="#FFFFFF" mask="url(#mask-32)" points="0.0291719989 20.7859732 7.52149171 0.191861993 14.6820954 15.7910934 21.0710272 5.61600579 27.6863389 20.7859732"></polygon>
                        </g>
                        <g transform="translate(174.239993, 88.419405)">
                            <mask id="mask-34" fill="white">
                                <use xlink:href="#path-33"></use>
                            </mask>
                            <g id="Clip-61"></g>
                            <path d="M2.5903679,0.460547983 C4.00197585,0.460547983 5.1463498,1.60492194 5.1463498,3.01652989 C5.1463498,4.42820383 4.00197585,5.57251179 2.5903679,5.57251179 C1.17875996,5.57251179 0.0343859987,4.42820383 0.0343859987,3.01652989 C0.0343859987,1.60492194 1.17875996,0.460547983 2.5903679,0.460547983" id="Fill-60" fill-opacity="0.61" fill="#FFFFFF" mask="url(#mask-34)"></path>
                        </g>
                    </g>
                    <g id="独家解决方案备份" transform="translate(0.000000, 236.000000)">
                        <rect id="Rectangle-3" fill="#FC790D" x="0.5098135" y="-2.13162821e-14" width="276" height="44.8081879" rx="4.8990285"></rect>
                        <text id="话术快捷回复" font-family="FZLTCHJW--GB1-0, FZLanTingHeiS-B-GB" font-size="24.4951425" font-weight="normal" line-spacing="29.394171" fill="#FFFFFF">
                            <tspan x="119.20103" y="29.3485428">话术快捷回复</tspan>
                        </text>
                        <g id="句客宝logo" transform="translate(13.196352, 8.981552)">
                            <path d="M11.430953,-2.3625546e-13 C14.5313149,-2.3625546e-13 17.2121507,1.10905154 19.4723253,3.32404366 C21.7315917,5.54036905 22.862133,8.16911673 22.862133,11.208509 C22.862133,17.9610352 18.0530192,22.9325459 8.43547259,26.128152 L8.43547259,26.128152 L8.43547259,22.031261 C5.85974537,21.3086331 3.80978796,19.9304849 2.28605439,17.8954831 C0.761185737,15.8600369 0,13.6321566 0,11.208509 C0,8.16911673 1.1291792,5.54036905 3.38980776,3.32404366 C5.64862019,1.10905154 8.32922895,-2.3625546e-13 11.430953,-2.3625546e-13 Z M7.13283022,10.5876535 C7.08016243,12.6793189 8.96553301,14.4212253 11.3444371,14.4792222 C11.4400109,14.4821109 11.5335417,14.4763335 11.6272994,14.4738892 C11.6272994,14.4743336 12.0325236,14.7549852 12.4770215,14.9789731 C12.9725982,15.2280709 13.5814559,15.3953952 13.9353744,15.365619 C14.4037091,15.3262878 14.4774894,15.0314148 14.3837316,14.880534 C14.2947412,14.7367639 14.139235,14.7303198 13.9889502,14.6378804 C13.8084723,14.5263308 13.7285625,14.4698894 13.6543282,14.2967876 C13.5691971,14.0974649 13.6677221,13.9494729 13.8550106,13.8505893 C13.8550106,13.8505893 13.8697667,13.8368123 13.8951925,13.8125914 C14.98646,13.1501825 15.7151824,12.0551302 15.7469647,10.7965311 C15.7998595,8.70508794 13.9144889,6.96251488 11.5353578,6.90451799 C9.15668076,6.84696553 7.18572502,8.49576585 7.13283022,10.5876535 Z" id="形状结合" fill="#FFFFFF"></path>
                            <path d="M42.5343205,24.1821127 C43.0590911,24.1821127 43.6261819,24.0662271 44.2355929,23.8344557 C44.8450039,23.6026844 45.4120946,23.2301947 45.9368652,22.7169867 C46.4616358,22.2037788 46.905998,21.5332974 47.2699518,20.7055426 C47.6339056,19.8777878 47.8243465,18.8679269 47.8412746,17.67596 L47.8412746,17.67596 L47.9682352,6.32744156 C48.0020914,5.76456829 47.8158825,5.2844705 47.4096085,4.8871482 C46.9864064,4.47327079 46.4531718,4.26633209 45.8099046,4.26633209 L45.8099046,4.26633209 L35.4245254,4.26633209 C35.543022,3.93523017 35.6530546,3.58343438 35.7546231,3.21094471 C35.8561916,2.83845505 35.9746882,2.44527152 36.1101128,2.03139411 C36.1947532,1.78306767 36.1693611,1.54715755 36.0339365,1.32366375 C35.8985118,1.10016996 35.7038388,0.947035316 35.4499176,0.864259835 C35.1790682,0.781484355 34.929379,0.806316999 34.7008499,0.938757768 C34.4723208,1.07119854 34.315736,1.26158214 34.2310956,1.50990858 C33.9433182,2.48665926 33.6682368,3.36407935 33.4058515,4.14216887 C33.1434662,4.92025839 32.8683849,5.6362663 32.5806074,6.29019259 C32.29283,6.94411889 31.9754285,7.55665745 31.6284027,8.12780827 C31.281377,8.69895908 30.8793351,9.26597113 30.4222768,9.82884439 C30.252996,10.0440606 30.1852836,10.2799708 30.2191398,10.5365748 C30.252996,10.7931787 30.3799566,11.0042562 30.6000217,11.1698072 C30.7862306,11.302248 30.9809036,11.3684683 31.1840406,11.3684683 C31.3194652,11.3684683 31.4591219,11.3394969 31.6030106,11.2815541 C31.7468993,11.2236112 31.8696279,11.1284194 31.9711964,10.9959787 C32.5975355,10.2178892 33.1265381,9.45221596 33.5582043,8.69895908 C33.9898704,7.94570221 34.3834483,7.09725353 34.7389381,6.15361305 L34.7389381,6.15361305 L45.8099046,6.15361305 C45.9114731,6.15361305 45.9791854,6.1784457 46.0130416,6.22811098 C46.0299697,6.22811098 46.0384337,6.25294363 46.0384337,6.30260892 L46.0384337,6.30260892 L45.886081,17.6511273 C45.8691529,18.5947678 45.7294962,19.3645798 45.4671109,19.9605632 C45.2047256,20.5565467 44.8957881,21.0283669 44.5402984,21.376024 C44.1848086,21.723681 43.8166228,21.9595911 43.4357409,22.0837543 C43.054859,22.2079175 42.7543856,22.2699991 42.5343205,22.2699991 L42.5343205,22.2699991 L41.8995173,22.2699991 C41.6117399,22.253444 41.3747468,22.3362195 41.1885378,22.5183256 C41.0023289,22.7004316 40.9092245,22.9239254 40.9092245,23.188807 C40.8922964,23.4702436 40.9769368,23.702015 41.1631457,23.884121 C41.3493546,24.0662271 41.5778838,24.1655577 41.8487331,24.1821127 L41.8487331,24.1821127 L42.5343205,24.1821127 Z M41.5688488,18.718931 C42.0259071,18.718931 42.415253,18.5616576 42.7368866,18.2471108 C43.0585201,17.932564 43.2193369,17.5517967 43.2193369,17.1048091 L43.2193369,17.1048091 L43.2193369,10.8718155 C43.2193369,10.4248279 43.0585201,10.0440606 42.7368866,9.72951382 C42.415253,9.41496699 42.0259071,9.25769358 41.5688488,9.25769358 L41.5688488,9.25769358 L35.6270915,9.25769358 C35.1700333,9.25769358 34.7806874,9.41496699 34.4590538,9.72951382 C34.1374202,10.0440606 33.9766034,10.4248279 33.9766034,10.8718155 L33.9766034,10.8718155 L33.9766034,17.1048091 C33.9766034,17.5517967 34.1374202,17.932564 34.4590538,18.2471108 C34.7806874,18.5616576 35.1700333,18.718931 35.6270915,18.718931 L35.6270915,18.718931 L41.5688488,18.718931 Z M41.2641433,16.8068174 L35.931797,16.8068174 L35.931797,11.1449745 L41.2641433,11.1449745 L41.2641433,16.8068174 Z M71.3532406,8.41338367 C71.6240899,8.41338367 71.8568511,8.31819187 72.051524,8.12780827 C72.246197,7.93742466 72.3435335,7.71806964 72.3435335,7.46974319 L72.3435335,7.46974319 L72.3435335,4.76298498 C72.3435335,4.31599738 72.1784847,3.93523017 71.848387,3.62068334 C71.5182894,3.30613652 71.1247115,3.1488631 70.6676532,3.1488631 L70.6676532,3.1488631 L64.929033,3.1488631 L64.0403086,1.38574536 C63.9048839,1.15397402 63.714443,0.992561831 63.4689858,0.901508802 C63.2235286,0.810455773 62.9823034,0.822872095 62.7453102,0.938757768 C62.508317,1.05464344 62.3390362,1.2367495 62.2374677,1.48507594 C62.1358992,1.73340238 62.1528273,1.97345128 62.288252,2.20522262 L62.288252,2.20522262 L62.7707023,3.12403046 L56.6258081,3.12403046 C56.1518217,3.12403046 55.7540118,3.28130387 55.4323782,3.5958507 C55.1107446,3.91039752 54.9499278,4.29116474 54.9499278,4.73815233 L54.9499278,4.73815233 L54.9499278,7.44491055 C54.9499278,7.72634718 55.0472643,7.95811853 55.2419372,8.14022459 C55.4366102,8.32233065 55.6693713,8.41338367 55.9402207,8.41338367 C56.21107,8.41338367 56.4395991,8.31819187 56.6258081,8.12780827 C56.812017,7.93742466 56.9051214,7.71806964 56.9051214,7.46974319 L56.9051214,7.46974319 L56.9051214,5.06097671 L70.3883399,5.06097671 L70.3883399,7.46974319 C70.3883399,7.71806964 70.4814443,7.93742466 70.6676532,8.12780827 C70.8538621,8.31819187 71.0823913,8.41338367 71.3532406,8.41338367 Z M71.8864752,16.906148 C72.1234684,16.906148 72.3308374,16.8357888 72.5085823,16.6950705 C72.6863272,16.5543522 72.7921277,16.3681074 72.8259839,16.136336 C72.8936962,15.8714545 72.851376,15.6314056 72.6990232,15.4161893 C72.5466705,15.2009731 72.3350694,15.0685323 72.0642201,15.018867 C70.625333,14.7374304 69.3684228,14.451855 68.2934895,14.1621408 C67.2185562,13.8724266 66.2748156,13.5454635 65.4622676,13.1812514 C66.3425279,12.601823 67.1254518,11.9727293 67.8110392,11.2939704 C68.4966265,10.6152115 69.1018055,9.86195459 69.6265761,9.03419978 C69.7281446,8.88520391 69.7831609,8.71551418 69.7916249,8.52513057 C69.800089,8.33474697 69.7704648,8.16091846 69.7027525,8.00364505 C69.6350401,7.84637163 69.5292396,7.70979209 69.3853509,7.59390642 C69.2414622,7.47802074 69.0679493,7.42007791 68.8648123,7.42007791 L68.8648123,7.42007791 L61.4757039,7.42007791 C61.5434163,7.28763714 61.6026646,7.17175146 61.6534488,7.07242089 C61.7042331,6.97309031 61.7550173,6.85720464 61.8058016,6.72476387 C61.9242982,6.49299252 61.9369942,6.2570824 61.8438898,6.01703351 C61.7507853,5.77698461 61.5772724,5.59073978 61.3233512,5.45829901 C61.086358,5.34241334 60.8451328,5.32999702 60.5996756,5.42105005 C60.3542184,5.51210308 60.1637775,5.68179281 60.0283528,5.93011925 C59.5882227,6.84064954 59.0211319,7.70151454 58.3270804,8.51271425 C57.633029,9.32391396 56.812017,10.0606157 55.8640443,10.7228196 C55.6270511,10.8718155 55.4916265,11.0746154 55.4577703,11.3312194 C55.4239141,11.5878234 55.4746984,11.8237335 55.6101231,12.0389497 C55.8301881,12.3038313 56.1010375,12.436272 56.4226711,12.436272 C56.6427361,12.436272 56.820481,12.3700517 56.9559057,12.2376109 C57.2944674,12.0058395 57.620333,11.7657906 57.9335025,11.5174642 C58.246672,11.2691378 58.5471455,11.0042562 58.8349229,10.7228196 C59.2750531,11.1698072 59.7109513,11.5961009 60.1426174,12.0017008 C60.5742835,12.4073006 61.0355738,12.7839291 61.5264882,13.1315861 C59.7659675,13.8931205 57.6838133,14.5222141 55.2800254,15.018867 C55.0091761,15.0685323 54.7975751,15.2051119 54.6452223,15.4286057 C54.4928696,15.6520995 54.4505493,15.8962871 54.5182617,16.1611687 C54.5690459,16.3763849 54.6833105,16.5543522 54.8610554,16.6950705 C55.0388002,16.8357888 55.2461693,16.906148 55.4831624,16.906148 C55.5678028,16.906148 55.6355152,16.8978704 55.6862994,16.8813153 C57.226755,16.5667685 58.64025,16.1984176 59.9267843,15.7762627 C61.2133187,15.3541077 62.3982845,14.8781487 63.4816818,14.3483856 C64.4804387,14.8781487 65.6357804,15.3458302 66.9477069,15.75143 C68.2596334,16.1570299 69.8466412,16.5336583 71.7087304,16.8813153 C71.7425865,16.8813153 71.7722107,16.8854541 71.7976028,16.8937317 C71.8229949,16.9020092 71.8526191,16.906148 71.8864752,16.906148 Z M63.4562897,12.1382803 C62.8638068,11.7575131 62.296716,11.3353581 61.7550173,10.8718155 C61.2133187,10.4082728 60.67162,9.89506478 60.1299213,9.33219151 L60.1299213,9.33219151 L66.960403,9.33219151 C66.0124303,10.4248279 64.8443925,11.3601908 63.4562897,12.1382803 Z M68.5601068,23.8592884 C68.9663808,23.8592884 69.3176386,23.7144313 69.61388,23.4247171 C69.9101215,23.1350029 70.0582422,22.7914847 70.0582422,22.3941624 L70.0582422,22.3941624 L70.0582422,18.0732823 C70.0582422,17.6594049 69.9143535,17.3076091 69.6265761,17.0178949 C69.3387987,16.7281807 68.9833089,16.5833236 68.5601068,16.5833236 L68.5601068,16.5833236 L58.6571781,16.5833236 C58.2509041,16.5833236 57.8996463,16.7281807 57.6034049,17.0178949 C57.3071634,17.3076091 57.1590427,17.6676824 57.1590427,18.0981149 L57.1590427,18.0981149 L57.1590427,22.3941624 C57.1590427,22.7914847 57.3029314,23.1350029 57.5907088,23.4247171 C57.8784862,23.7144313 58.233976,23.8592884 58.6571781,23.8592884 L58.6571781,23.8592884 L68.5601068,23.8592884 Z M68.1284407,21.9720074 L59.1142363,21.9720074 L59.1142363,18.4706046 L68.1284407,18.4706046 L68.1284407,21.9720074 Z M79.4781497,8.81070598 C79.748999,8.81070598 79.9775282,8.71551418 80.1637371,8.52513057 C80.349946,8.33474697 80.4430505,8.1071144 80.4430505,7.84223286 L80.4430505,7.84223286 L80.4430505,5.80595603 L93.9262689,5.80595603 L93.9262689,7.84223286 C93.9262689,8.0905593 94.0193733,8.30991432 94.2055823,8.50029793 C94.3917912,8.69068153 94.6203203,8.78587334 94.8911696,8.78587334 C95.162019,8.78587334 95.3947801,8.69068153 95.5894531,8.50029793 C95.784126,8.30991432 95.8814625,8.08228175 95.8814625,7.81740021 L95.8814625,7.81740021 L95.8814625,5.35896844 C95.8814625,4.94509103 95.7206457,4.59743401 95.3990121,4.31599738 C95.0773786,4.03456075 94.6795686,3.89384243 94.2055823,3.89384243 L94.2055823,3.89384243 L88.9494124,3.89384243 C88.9324843,3.77795676 88.8901641,3.66207108 88.8224517,3.54618541 L88.8224517,3.54618541 L87.3497085,1.33608008 C87.2142838,1.10430873 87.0153788,0.963590412 86.7529935,0.913925124 C86.4906083,0.864259835 86.240919,0.905647576 86.0039259,1.03808834 C85.7669327,1.18708421 85.623044,1.38988414 85.5722597,1.64648813 C85.5214755,1.90309212 85.5722597,2.13900224 85.7246125,2.35421849 L85.7246125,2.35421849 L86.7149054,3.91867507 L80.1637371,3.91867507 C79.6897508,3.91867507 79.2919408,4.06353216 78.9703072,4.35324635 C78.6486736,4.64296053 78.4878568,4.98647877 78.4878568,5.38380108 L78.4878568,5.38380108 L78.4878568,7.84223286 C78.4878568,8.1071144 78.5851933,8.33474697 78.7798663,8.52513057 C78.9745392,8.71551418 79.2073004,8.81070598 79.4781497,8.81070598 Z M95.0689145,23.8344557 C95.3566919,23.8344557 95.5936851,23.7392639 95.779894,23.5488803 C95.9661029,23.3584967 96.0592074,23.1391417 96.0592074,22.8908152 C96.0592074,22.6259337 95.9618709,22.3983011 95.767198,22.2079175 C95.572525,22.0175339 95.3397638,21.9223421 95.0689145,21.9223421 L95.0689145,21.9223421 L88.060688,21.9223421 L88.060688,16.558491 L93.5707791,16.558491 C93.8585566,16.558491 94.0955497,16.4674379 94.2817586,16.2853319 C94.4679676,16.1032258 94.561072,15.879732 94.561072,15.6148505 C94.561072,15.349969 94.4637355,15.1223364 94.2690626,14.9319528 C94.0743896,14.7415692 93.8416285,14.6463774 93.5707791,14.6463774 L93.5707791,14.6463774 L88.060688,14.6463774 L88.060688,10.9463134 L94.3833271,10.9463134 C94.6711046,10.9463134 94.9080977,10.8552604 95.0943066,10.6731543 C95.2805156,10.4910482 95.37362,10.2675544 95.37362,10.0026729 C95.37362,9.73779137 95.2762835,9.51015879 95.0816106,9.31977519 C94.8869376,9.12939158 94.6541765,9.03419978 94.3833271,9.03419978 L94.3833271,9.03419978 L81.0524615,9.03419978 C80.7646841,9.03419978 80.5319229,9.12939158 80.354178,9.31977519 C80.1764332,9.51015879 80.0875607,9.73779137 80.0875607,10.0026729 C80.0875607,10.2675544 80.1806652,10.4910482 80.3668741,10.6731543 C80.553083,10.8552604 80.7816121,10.9463134 81.0524615,10.9463134 L81.0524615,10.9463134 L86.0801022,10.9463134 L86.0801022,14.6463774 L81.0524615,14.6463774 C80.7646841,14.6463774 80.5319229,14.7415692 80.354178,14.9319528 C80.1764332,15.1223364 80.0875607,15.349969 80.0875607,15.6148505 C80.0875607,15.879732 80.1806652,16.1032258 80.3668741,16.2853319 C80.553083,16.4674379 80.7816121,16.558491 81.0524615,16.558491 L81.0524615,16.558491 L86.0801022,16.558491 L86.0801022,21.9223421 L79.1988363,21.9223421 C78.927987,21.9223421 78.6994579,22.0175339 78.513249,22.2079175 C78.32704,22.3983011 78.2339356,22.6259337 78.2339356,22.8908152 C78.2339356,23.1391417 78.3312721,23.3584967 78.525945,23.5488803 C78.720618,23.7392639 78.9449151,23.8344557 79.1988363,23.8344557 L79.1988363,23.8344557 L95.0689145,23.8344557 Z" id="句客宝" stroke="#FFFFFF" stroke-width="0.707199981" fill="#FFFFFF" fill-rule="nonzero"></path>
                            <circle id="椭圆形" stroke="#FFFFFF" stroke-width="1.32626505" fill="#FC790D" fill-rule="nonzero" cx="91.9920012" cy="19.2355456" r="1.91571618"></circle>
                        </g>
                    </g>
                </g>
            </g>
        </g>
    </g>
</svg>