<?xml version="1.0" encoding="UTF-8"?>
<svg width="277px" height="308px" viewBox="0 0 277 308" version="1.1" xmlns="http://www.w3.org/2000/svg" xmlns:xlink="http://www.w3.org/1999/xlink">
    <title>9-2</title>
    <defs>
        <polygon id="path-1" points="9.51656793e-05 0.379840827 260.068816 0.379840827 260.068816 37.7784003 9.51656793e-05 37.7784003"></polygon>
        <polygon id="path-3" points="0 250.456802 260.068816 250.456802 260.068816 0.524700004 0 0.524700004"></polygon>
        <polygon id="path-5" points="0.107808361 0.487740136 11.2193524 0.487740136 11.2193524 9.14971867 0.107808361 9.14971867"></polygon>
        <polygon id="path-7" points="0 250.456802 260.068816 250.456802 260.068816 0.524700004 0 0.524700004"></polygon>
        <polygon id="path-9" points="0.408622371 0.343293723 11.4723452 0.343293723 11.4723452 9.01574527 0.408622371 9.01574527"></polygon>
        <polygon id="path-11" points="0 250.456802 260.068816 250.456802 260.068816 0.524700004 0 0.524700004"></polygon>
        <polygon id="path-13" points="0.681760205 0.572811497 22.9694773 0.572811497 22.9694773 22.8604306 0.681760205 22.8604306"></polygon>
        <polyline id="path-15" points="0 250.456802 260.068816 250.456802 260.068816 0.524700004 0 0.524700004"></polyline>
        <polygon id="path-17" points="0.690715085 0.148825909 116.031529 0.148825909 116.031529 51.3952049 0.690715085 51.3952049"></polygon>
        <polygon id="path-19" points="0 250.456802 260.068816 250.456802 260.068816 0.524700004 0 0.524700004"></polygon>
        <polygon id="path-21" points="0.484326088 0.0370018443 70.4549676 0.0370018443 70.4549676 24.3260337 0.484326088 24.3260337"></polygon>
        <polygon id="path-23" points="0 250.456802 260.068816 250.456802 260.068816 0.524700004 0 0.524700004"></polygon>
        <polygon id="path-25" points="0.0521901604 0.0766062006 2.79296203 0.0766062006 2.79296203 4.40664051 0.0521901604 4.40664051"></polygon>
        <polyline id="path-27" points="0 250.456802 260.068816 250.456802 260.068816 0.524700004 0 0.524700004"></polyline>
        <polygon id="path-29" points="0.491399044 0.270395402 27.2709679 0.270395402 27.2709679 23.7921369 0.491399044 23.7921369"></polygon>
        <polyline id="path-31" points="0 250.456802 260.068816 250.456802 260.068816 0.524700004 0 0.524700004"></polyline>
        <polyline id="path-33" points="0 250.456802 260.068816 250.456802 260.068816 0.524700004 0 0.524700004"></polyline>
        <polygon id="path-35" points="0.547206136 0.488068948 48.6056898 0.488068948 48.6056898 55.0275282 0.547206136 55.0275282"></polygon>
        <polygon id="path-37" points="0 250.456802 260.068816 250.456802 260.068816 0.524700004 0 0.524700004"></polygon>
        <polygon id="path-39" points="0.0967127048 0.604531361 46.0140706 0.604531361 46.0140706 64.7227949 0.0967127048 64.7227949"></polygon>
        <polygon id="path-41" points="0 250.456802 260.068816 250.456802 260.068816 0.524700004 0 0.524700004"></polygon>
        <polygon id="path-43" points="0.469851364 0.478302532 25.0317582 0.478302532 25.0317582 52.5622777 0.469851364 52.5622777"></polygon>
        <polyline id="path-45" points="0 250.456802 260.068816 250.456802 260.068816 0.524700004 0 0.524700004"></polyline>
        <polygon id="path-47" points="0.38820094 0.42844941 27.2324759 0.42844941 27.2324759 33.0692527 0.38820094 33.0692527"></polygon>
        <polygon id="path-49" points="0 250.456802 260.068816 250.456802 260.068816 0.524700004 0 0.524700004"></polygon>
        <polygon id="path-51" points="0.0715061166 0.536624165 11.9481817 0.536624165 11.9481817 4.93420888 0.0715061166 4.93420888"></polygon>
        <polygon id="path-53" points="0 250.456802 260.068816 250.456802 260.068816 0.524700004 0 0.524700004"></polygon>
        <polygon id="path-55" points="0 250.456802 260.068816 250.456802 260.068816 0.524700004 0 0.524700004"></polygon>
        <polygon id="path-57" points="0.594590045 0.550997968 11.6907009 0.550997968 11.6907009 9.67812656 0.594590045 9.67812656"></polygon>
        <polygon id="path-59" points="0.59035629 0.524700004 7.84561529 0.524700004 7.84561529 15.4274394 0.59035629 15.4274394"></polygon>
        <polygon id="path-61" points="0 250.456802 260.068816 250.456802 260.068816 0.524700004 0 0.524700004"></polygon>
    </defs>
    <g id="最新版备份" stroke="none" stroke-width="1" fill="none" fill-rule="evenodd">
        <g id="亮点9" transform="translate(-174.000000, -318.000000)">
            <g id="编组-4" transform="translate(130.000000, 241.000000)">
                <g id="9-2" transform="translate(44.000000, 77.000000)">
                    <g id="编组" transform="translate(9.000000, 0.000000)">
                        <g transform="translate(139.220401, 16.965300)">
                            <polygon id="Fill-1" fill="#E6E6E6" points="0.263959082 8.11577982 25.1783384 8.11577982 25.1783384 4.17592013 0.263959082 4.17592013"></polygon>
                            <polygon id="Fill-3" fill="#C9C9C9" points="6.33550769 4.15688331 25.1783174 4.15688331 25.1783174 0.217023617 6.33550769 0.217023617"></polygon>
                        </g>
                        <g transform="translate(0.000000, 0.174900)">
                            <g transform="translate(0.000000, 212.678402)">
                                <mask id="mask-2" fill="white">
                                    <use xlink:href="#path-1"></use>
                                </mask>
                                <g id="Clip-5"></g>
                                <path d="M130.034513,0.379651935 C201.850343,0.379651935 260.068886,8.75233188 260.068886,19.0797082 C260.068886,29.408043 201.850343,37.7797685 130.034513,37.7797685 C58.2186626,37.7797685 9.51656793e-05,29.408043 9.51656793e-05,19.0797082 C9.51656793e-05,8.75233188 58.2186626,0.379651935 130.034513,0.379651935" id="Fill-4" fill-opacity="0.45" fill="#E6E6E6" mask="url(#mask-2)"></path>
                            </g>
                            <mask id="mask-4" fill="white">
                                <use xlink:href="#path-3"></use>
                            </mask>
                            <g id="Clip-7"></g>
                            <polygon id="Fill-6" fill="#E6E6E6" mask="url(#mask-4)" points="191.406574 55.9681404 191.406574 73.4500951 202.702735 73.4500951 205.167496 80.4067077 208.089096 73.4500951 219.385257 73.4500951 219.385257 55.9681404"></polygon>
                        </g>
                        <g transform="translate(0.000000, 0.174900)">
                            <g transform="translate(200.085602, 59.466000)">
                                <mask id="mask-6" fill="white">
                                    <use xlink:href="#path-5"></use>
                                </mask>
                                <g id="Clip-9"></g>
                                <path d="M3.90166923,9.14971867 L3.90166923,9.14971867 C3.64470615,9.13929463 3.40586271,9.01749427 3.24600411,8.81663911 L0.294881402,5.01004552 C-0.000139920001,4.64079664 0.0598158005,4.10119515 0.430044123,3.80617383 C0.434801403,3.80141655 0.441447603,3.79665927 0.447184324,3.79190199 C0.822099966,3.49408227 1.36645873,3.55592691 1.66434841,3.93084255 C1.66812625,3.93559983 1.67099461,3.93944763 1.67477245,3.94420491 L3.99779427,6.93240641 L9.70771964,0.746613126 C10.0370214,0.407866803 10.5794912,0.400241163 10.9182375,0.730452366 C10.9239742,0.735209646 10.929641,0.740946366 10.9353777,0.746613126 C11.2893753,1.06730977 11.3160301,1.61551633 10.9953334,1.97042342 C10.9905762,1.97427122 10.9867983,1.9790285 10.982041,1.98378578 L4.5583138,8.86428187 C4.39180899,9.04981579 4.15198611,9.15356647 3.90166923,9.14971867" id="Fill-8" fill-opacity="0.12" fill="#000000" mask="url(#mask-6)"></path>
                            </g>
                            <mask id="mask-8" fill="white">
                                <use xlink:href="#path-7"></use>
                            </mask>
                            <g id="Clip-11"></g>
                            <polygon id="Fill-10" fill="#E6E6E6" mask="url(#mask-8)" points="40.5689438 60.031837 40.5689438 77.5137217 51.8651123 77.5137217 54.3394226 84.4703343 57.2610082 77.5137217 68.5571766 77.5137217 68.5571766 60.031837"></polygon>
                        </g>
                        <g transform="translate(0.000000, 0.174900)">
                            <g transform="translate(48.972000, 63.663601)">
                                <mask id="mask-10" fill="white">
                                    <use xlink:href="#path-9"></use>
                                </mask>
                                <g id="Clip-13"></g>
                                <path d="M4.17813716,9.01574527 L4.17813716,9.01574527 C3.92118807,9.00525127 3.68137219,8.88345091 3.5214926,8.68266571 L0.571356329,4.87600216 C0.290613842,4.4820574 0.381974607,3.93580971 0.775961346,3.65506023 C1.14615469,3.39145095 1.6571985,3.45427503 1.95125438,3.80064699 L4.27330375,6.78884849 L9.98324311,0.603055205 C10.3182256,0.261440522 10.8663832,0.255703802 11.2080258,0.590742245 L11.2203948,0.603055205 C11.5563287,0.946628767 11.5563287,1.49665429 11.2203948,1.84022785 L4.78719493,8.77781131 C4.62446098,8.93578099 4.40462567,9.02141203 4.17813716,9.01574527" id="Fill-12" fill-opacity="0.12" fill="#000000" mask="url(#mask-10)"></path>
                            </g>
                            <mask id="mask-12" fill="white">
                                <use xlink:href="#path-11"></use>
                            </mask>
                            <g id="Clip-15"></g>
                            <polygon id="Fill-14" fill="#C9C9C9" mask="url(#mask-12)" points="73.4584203 229.21738 187.371771 229.21738 187.371771 24.9251531 73.4584203 24.9251531"></polygon>
                            <polygon id="Fill-16" fill="#FFFFFF" mask="url(#mask-12)" points="82.8797937 191.988557 177.169994 191.988557 177.169994 48.2122208 82.8797937 48.2122208"></polygon>
                        </g>
                        <g transform="translate(118.932001, 198.861302)">
                            <mask id="mask-14" fill="white">
                                <use xlink:href="#path-13"></use>
                            </mask>
                            <g id="Clip-18"></g>
                            <path d="M11.8255488,0.572622605 C17.97993,0.572622605 22.9694773,5.56216285 22.9694773,11.7165301 C22.9694773,17.8718488 17.97993,22.8604306 11.8255488,22.8604306 C5.67116752,22.8604306 0.681690245,17.8718488 0.681690245,11.7165301 C0.681690245,5.56216285 5.67116752,0.572622605 11.8255488,0.572622605" id="Fill-17" fill-opacity="0.56" fill="#FFFFFF" mask="url(#mask-14)"></path>
                        </g>
                        <g transform="translate(0.000000, 0.174900)">
                            <polygon id="Fill-19" fill-opacity="0.12" fill="#000000" points="120.774747 32.9096012 152.712355 32.9096012 152.712355 37.5632033 120.774747 37.5632033"></polygon>
                            <mask id="mask-16" fill="white">
                                <use xlink:href="#path-15"></use>
                            </mask>
                            <g id="Clip-22"></g>
                            <path d="M109.212318,30.5401288 C112.087324,30.5401288 114.417902,32.8707762 114.417902,35.7457125 C114.417902,38.6206487 112.087324,40.9512962 109.212318,40.9512962 C106.337382,40.9512962 104.006804,38.6206487 104.006804,35.7457125 C104.006804,32.8707762 106.337382,30.5401288 109.212318,30.5401288" id="Fill-21" fill="#FFFFFF" mask="url(#mask-16)"></path>
                            <path d="M200.200196,98.7355982 C199.924204,100.795011 199.924204,102.881008 200.200196,104.940421 C200.422879,105.950083 201.411623,106.597213 202.427023,106.396428 C204.038202,106.155696 205.360026,104.99464 205.805391,103.427256 L207.061593,100.210635 C207.436579,98.8402583 206.911249,97.3823619 205.748304,96.5657888 C203.740312,94.9670628 200.380063,96.4706432 200.200196,98.7355982" id="Fill-23" fill="#F4A28C" mask="url(#mask-16)"></path>
                        </g>
                        <g transform="translate(0.000000, 0.174900)">
                            <g transform="translate(71.359201, 125.928001)">
                                <mask id="mask-18" fill="white">
                                    <use xlink:href="#path-17"></use>
                                </mask>
                                <g id="Clip-25"></g>
                                <path d="M1.95643142,38.0054205 L2.45132846,48.3404015 L12.4437153,46.2667871 L16.6976332,28.241453 C18.3392446,21.2753259 24.1909789,16.0982858 31.3055611,15.317952 C38.9188183,14.4899754 48.3592207,13.710551 54.3831965,14.1283522 C65.7365153,14.9182006 89.7182438,12.2250204 97.7787553,19.115031 C105.839337,26.0059512 106.686272,44.5813807 116.031599,51.3952049 L116.031599,38.4621893 L113.300291,3.66009735 L102.993854,0.148525081 L66.5073346,5.56342912 L62.61504,6.22958825 L58.580027,8.41842679 L50.015104,4.13596527 L0.690715085,2.07088598 L1.95643142,38.0054205 Z" id="Fill-24" fill-opacity="0.08" fill="#000000" mask="url(#mask-18)"></path>
                            </g>
                            <mask id="mask-20" fill="white">
                                <use xlink:href="#path-19"></use>
                            </mask>
                            <g id="Clip-27"></g>
                            <polygon id="Fill-26" fill="#F4A28C" mask="url(#mask-20)" points="206.861787 100.800608 208.251193 112.953289 201.494386 113.238726 203.197912 104.274122"></polygon>
                            <path d="M61.619789,113.372 L125.723368,127.894297 L124.552867,133.347259 C124.552867,133.347259 92.5010428,132.539291 68.5478509,137.153923 C44.5946451,141.769464 61.619789,113.372 61.619789,113.372" id="Fill-28" fill="#FC790D" mask="url(#mask-20)"></path>
                        </g>
                        <g transform="translate(0.000000, 0.174900)">
                            <g transform="translate(55.268400, 113.335201)">
                                <mask id="mask-22" fill="white">
                                    <use xlink:href="#path-21"></use>
                                </mask>
                                <g id="Clip-30"></g>
                                <path d="M6.35138861,0.0367989603 L70.4549676,14.5590959 L69.2844668,20.0120582 C69.2844668,20.0120582 37.2326423,19.2040901 13.2794505,23.8187217 C-10.6737553,28.4342628 6.35138861,0.0367989603 6.35138861,0.0367989603" id="Fill-29" fill-opacity="0.08" fill="#000000" mask="url(#mask-22)"></path>
                            </g>
                            <mask id="mask-24" fill="white">
                                <use xlink:href="#path-23"></use>
                            </mask>
                            <g id="Clip-32"></g>
                            <path d="M200.009625,101.086394 L198.93427,102.4758 C198.733485,102.746055 198.790572,103.127687 199.060827,103.327563 C199.122672,103.374156 199.193122,103.407457 199.267349,103.427466 L200.685299,103.760545 L200.009625,101.086394 Z" id="Fill-31" fill="#F4A28C" mask="url(#mask-24)"></path>
                            <path d="M198.781897,113.372 L134.935281,129.064798 L136.648252,132.528867 C136.648252,132.528867 167.891129,132.528867 191.844314,137.097745 C215.797568,141.664734 198.781897,113.372 198.781897,113.372" id="Fill-33" fill="#F4A28C" mask="url(#mask-24)"></path>
                        </g>
                        <g transform="translate(0.000000, 0.174900)">
                            <g transform="translate(202.184402, 104.940001)">
                                <mask id="mask-26" fill="white">
                                    <use xlink:href="#path-25"></use>
                                </mask>
                                <g id="Clip-35"></g>
                                <path d="M0.556601764,1.28523517 C1.40451697,1.11012529 2.18205242,0.690435245 2.7930131,0.0766062006 C2.46182246,1.81532209 1.48252237,3.36367683 0.0521901604,4.40664051 L0.556601764,1.28523517 Z" id="Fill-34" fill-opacity="0.31" fill="#CE8172" mask="url(#mask-26)"></path>
                            </g>
                            <mask id="mask-28" fill="white">
                                <use xlink:href="#path-27"></use>
                            </mask>
                            <g id="Clip-37"></g>
                            <path d="M169.79453,134.166281 L171.431385,120.109358 L193.995164,114.305196 L196.574169,137.63028 C187.503925,138.331699 178.387018,137.152593 169.79453,134.166281" id="Fill-36" fill="#FC790D" mask="url(#mask-28)"></path>
                        </g>
                        <g transform="translate(0.000000, 0.174900)">
                            <g transform="translate(169.303201, 114.034801)">
                                <mask id="mask-30" fill="white">
                                    <use xlink:href="#path-29"></use>
                                </mask>
                                <g id="Clip-39"></g>
                                <path d="M0.491329084,20.1314799 L2.12818322,6.07455689 L24.6919624,0.270395402 L27.2709679,23.5954793 C18.2007238,24.2968983 9.08381635,23.1177925 0.491329084,20.1314799" id="Fill-38" fill-opacity="0.08" fill="#000000" mask="url(#mask-30)"></path>
                            </g>
                            <mask id="mask-32" fill="white">
                                <use xlink:href="#path-31"></use>
                            </mask>
                            <g id="Clip-41"></g>
                            <path d="M193.994884,114.304986 C193.994884,114.304986 222.963291,107.824242 233.33731,113.638827 C243.70944,119.453483 223.344923,174.268892 223.344923,174.268892 L191.368306,173.260139 C191.368306,173.260139 163.380108,119.872193 193.994884,114.304986" id="Fill-40" fill="#FC790D" mask="url(#mask-32)"></path>
                            <path d="M200.466814,225.743642 C200.466814,225.743642 198.972748,228.427314 196.364219,228.227467 C193.75667,228.027619 192.67278,230.435306 194.880578,231.463096 C197.087466,232.490885 203.549251,230.511444 203.549251,230.511444 L204.101166,225.753156 L200.466814,225.743642 Z" id="Fill-42" fill="#FC790D" mask="url(#mask-32)"></path>
                            <path d="M223.896838,225.182353 C223.896838,225.182353 224.961699,228.037322 227.569248,228.265721 C230.177706,228.494119 230.881994,231.016009 228.520914,231.691683 C226.161723,232.367364 220.109203,229.407706 220.109203,229.407706 L220.279556,224.649425 L223.896838,225.182353 Z" id="Fill-43" fill="#FC790D" mask="url(#mask-32)"></path>
                            <path d="M191.368516,173.260349 L199.543202,225.743257 L204.891574,225.743257 C204.891574,225.743257 199.942953,186.269481 208.594417,181.511193 C217.244061,176.752892 218.918974,225.743257 218.918974,225.743257 L224.628899,225.287419 L224.562297,171.17617 L191.368516,173.260349 Z" id="Fill-44" fill="#24285B" mask="url(#mask-32)"></path>
                            <path d="M60.1923042,98.7355982 C60.4739912,100.795011 60.4739912,102.881987 60.1923042,104.940421 C59.9686631,105.950083 58.9798904,106.597213 57.9654214,106.396428 C56.3542706,106.159474 55.0343213,104.995619 54.5965606,103.427256 L53.3308582,100.210635 C52.9559006,98.8383694 53.4850221,97.3785141 54.6536549,96.5657888 C56.6616538,94.9670628 59.9924565,96.4706432 60.1923042,98.7355982" id="Fill-45" fill="#F4A28C" mask="url(#mask-32)"></path>
                            <polygon id="Fill-46" fill="#F4A28C" mask="url(#mask-32)" points="53.530706 100.800608 52.1508009 112.953289 58.9075658 113.238726 57.1945811 104.274122"></polygon>
                            <path d="M60.3827283,101.086394 L61.4866482,102.4758 C61.6903017,102.736541 61.6436734,103.113415 61.381967,103.317069 C61.3143997,103.369399 61.2363663,103.407457 61.1535686,103.427466 L59.7355983,103.760545 L60.3827283,101.086394 Z" id="Fill-47" fill="#F4A28C" mask="url(#mask-32)"></path>
                        </g>
                        <g transform="translate(0.000000, 0.174900)">
                            <path d="M57.651378,106.225236 C56.8034488,106.050126 56.0259483,105.630436 55.4149806,105.016607 C55.7480602,106.757212 56.7311241,108.305567 58.1652692,109.346641 L57.651378,106.225236 Z" id="Fill-48" fill-opacity="0.31" fill="#CE8172"></path>
                            <mask id="mask-34" fill="white">
                                <use xlink:href="#path-33"></use>
                            </mask>
                            <g id="Clip-51"></g>
                            <path d="M66.3971056,114.304986 C66.3971056,114.304986 37.4286703,107.824242 27.05561,113.638827 C16.6825428,119.453483 37.0480039,174.268892 37.0480039,174.268892 L69.0331915,173.260139 C69.0331915,173.260139 97.0119237,119.872193 66.3971056,114.304986" id="Fill-50" fill="#FC790D" mask="url(#mask-34)"></path>
                            <path d="M59.9352572,225.743642 C59.9352572,225.743642 61.4198434,228.427314 64.0273855,228.227467 C66.6349207,228.027619 67.7293259,230.435306 65.5119717,231.463096 C63.2946105,232.490885 56.8518891,230.511444 56.8518891,230.511444 L56.2999327,225.753156 L59.9352572,225.743642 Z" id="Fill-52" fill="#FC790D" mask="url(#mask-34)"></path>
                            <path d="M36.4961384,225.182353 C36.4961384,225.182353 35.4397984,228.037322 32.8322562,228.265721 C30.2247211,228.494119 29.5109752,231.016009 31.8806043,231.691683 C34.2502265,232.367364 40.302767,229.407706 40.302767,229.407706 L40.1219484,224.649425 L36.4961384,225.182353 Z" id="Fill-53" fill="#FC790D" mask="url(#mask-34)"></path>
                        </g>
                        <g transform="translate(0.000000, 0.174900)">
                            <g transform="translate(25.185600, 118.232401)">
                                <mask id="mask-36" fill="white">
                                    <use xlink:href="#path-35"></use>
                                </mask>
                                <g id="Clip-55"></g>
                                <path d="M16.0590243,0.487971004 C16.0590243,0.487971004 25.213962,6.41680121 20.5508411,19.9588886 C15.8877202,33.5009759 15.1359161,43.207856 26.1275486,39.8104585 C37.1191882,36.4130609 36.3102827,21.2531486 36.3102827,21.2531486 L47.5208201,22.9851483 L48.6056898,44.502116 L43.8474024,55.0284376 L16.0590243,53.2764293 L4.74381973,50.4214317 L0.547010248,36.2036706 L8.23639786,12.1553402 L16.0590243,0.487971004 Z" id="Fill-54" fill-opacity="0.08" fill="#000000" mask="url(#mask-36)"></path>
                            </g>
                            <mask id="mask-38" fill="white">
                                <use xlink:href="#path-37"></use>
                            </mask>
                            <g id="Clip-57"></g>
                            <path d="M69.0331915,173.260349 L60.8489418,225.743257 L55.5006327,225.743257 C55.5006327,225.743257 60.4587679,186.269481 51.8082068,181.511193 C43.1576387,176.752892 41.4541757,225.743257 41.4541757,225.743257 L35.7442363,225.287419 L35.8013307,171.17617 L69.0331915,173.260349 Z" id="Fill-56" fill="#24285B" mask="url(#mask-38)"></path>
                            <path d="M35.6015809,111.935161 C35.6015809,111.935161 17.5867128,108.899387 17.5867128,137.249278 C17.5867128,165.599099 21.9167542,190.83705 63.5041617,165.551526 L60.3446631,160.726595 C60.3446631,160.726595 37.9426594,170.585778 33.1748574,161.925709 C28.4070553,153.265641 51.8844282,116.693491 35.6015809,111.935161" id="Fill-58" fill="#FC790D" mask="url(#mask-38)"></path>
                        </g>
                        <g transform="translate(0.000000, 0.174900)">
                            <g transform="translate(17.490000, 111.236401)">
                                <mask id="mask-40" fill="white">
                                    <use xlink:href="#path-39"></use>
                                </mask>
                                <g id="Clip-60"></g>
                                <path d="M18.1115808,0.698760486 C18.1115808,0.698760486 0.0967127048,-2.33701382 0.0967127048,26.0128772 C0.0967127048,54.3626983 4.42675401,79.6006495 46.0141615,54.3151255 L42.854663,49.4901941 C42.854663,49.4901941 20.4526592,59.3493771 15.6848572,50.6893085 C10.9170552,42.0292399 34.3944281,5.45708992 18.1115808,0.698760486" id="Fill-59" fill-opacity="0.46" fill="#FFFFFF" mask="url(#mask-40)"></path>
                            </g>
                            <mask id="mask-42" fill="white">
                                <use xlink:href="#path-41"></use>
                            </mask>
                            <g id="Clip-62"></g>
                            <polygon id="Fill-61" fill="#FFD200" mask="url(#mask-42)" points="78.0525537 163.814489 62.7965093 159.977393 68.5397636 137.145248 83.79578 140.982344"></polygon>
                        </g>
                        <g transform="translate(0.000000, 0.174900)">
                            <g transform="translate(207.781202, 119.631601)">
                                <mask id="mask-44" fill="white">
                                    <use xlink:href="#path-43"></use>
                                </mask>
                                <g id="Clip-64"></g>
                                <path d="M15.0774295,0.478106644 C15.0774295,0.478106644 8.12081694,5.99774081 12.3461911,18.0076342 C16.5715653,30.0175276 12.5650959,50.3639945 0.469501564,52.5622777 L16.771371,51.5440098 L25.0317582,24.2505148 L15.0774295,0.478106644 Z" id="Fill-63" fill-opacity="0.08" fill="#000000" mask="url(#mask-44)"></path>
                            </g>
                            <mask id="mask-46" fill="white">
                                <use xlink:href="#path-45"></use>
                            </mask>
                            <g id="Clip-66"></g>
                            <path d="M59.4785583,98.8972757 C59.2006772,98.9886435 58.9180318,99.0609821 58.6315805,99.1161806 C58.2299822,99.2075483 57.8369539,99.3378838 57.4610448,99.5063475 L57.1565159,99.6395513 C56.7149494,99.8336903 56.4304011,100.270521 56.4332554,100.753035 C56.6169284,102.557373 55.3036393,104.168482 53.5002524,104.352197 C53.3965157,104.3636 53.292786,104.369337 53.1881048,104.369337 C53.1881048,104.369337 50.2474831,99.9821455 52.5980762,96.6132916 C53.9913016,94.7252111 56.1639374,93.5680027 58.5078703,93.4633426 C60.0533567,93.4452229 61.3209689,94.6823956 61.3390466,96.227882 C61.3533254,97.424128 60.6062715,98.4966148 59.4785583,98.8972757" id="Fill-65" fill="#24285B" mask="url(#mask-46)"></path>
                            <path d="M56.37635,102.818184 C56.5895181,102.547928 56.6399593,102.184416 56.5095818,101.866518 C56.3002125,101.371691 55.8910025,100.705532 55.2058072,100.800677 C54.520619,100.895893 54.3778656,102.018821 54.8632131,102.704009 C55.1820208,103.12181 55.7796611,103.201705 56.1974343,102.882897 C56.2640502,102.831546 56.3249574,102.771591 56.37635,102.704009 L56.37635,102.818184 Z" id="Fill-67" fill="#F4A28C" mask="url(#mask-46)"></path>
                            <path d="M198.353462,94.9099055 C198.84738,95.6351109 199.171924,96.4602191 199.305128,97.3271634 C199.299391,98.2474173 200.038868,98.9973185 200.959122,99.0039647 C201.144656,99.0049442 201.328371,98.9754211 201.50439,98.9164448 C204.359388,98.4215477 203.407722,103.798394 207.146804,103.189322 C208.307791,103.148465 209.30514,102.351901 209.602051,101.228973 C209.866639,100.080299 210.630812,99.1096043 211.687138,98.5833652 C212.476987,98.2026429 213.085149,97.4318236 212.714921,95.8996296 C211.887014,92.4356302 209.202369,96.7466354 208.260218,93.0447019 C207.318066,89.3427685 205.748794,89.9232266 204.987489,90.5893858 C204.225205,91.2555449 203.44578,92.2547836 202.246736,91.03671 C201.046642,89.8185665 196.67855,92.2357544 198.353462,94.9099055" id="Fill-68" fill="#24285B" mask="url(#mask-46)"></path>
                            <path d="M204.025329,102.818184 C203.812161,102.547928 203.76172,102.184416 203.892125,101.866518 C204.101515,101.371691 204.511621,100.705532 205.187295,100.800677 C205.862968,100.895893 206.015271,102.018821 205.539403,102.704009 C205.219686,103.12181 204.622997,103.201705 204.204287,102.882897 C204.137615,102.831546 204.077659,102.771591 204.025329,102.704009 L204.025329,102.818184 Z" id="Fill-69" fill="#F4A28C" mask="url(#mask-46)"></path>
                            <path d="M125.552176,128.694219 L128.026521,129.435586 C129.412149,129.836246 130.465607,130.9668 130.767274,132.377124 C131.033752,133.670474 131.052781,135.089403 130.034513,135.517628 C128.036036,136.345535 124.819415,132.110716 124.819415,132.110716 L125.552176,128.694219 Z" id="Fill-70" fill="#F4A28C" mask="url(#mask-46)"></path>
                            <path d="M136.286698,128.694219 L133.965635,129.388013 C132.423927,129.841004 131.278122,131.135264 131.014513,132.718808 C130.814637,133.908338 130.881309,135.127461 131.804361,135.517628 C133.802839,136.345535 137.020439,132.110716 137.020439,132.110716 L136.286698,128.694219 Z" id="Fill-71" fill="#F4A28C" mask="url(#mask-46)"></path>
                            <path d="M129.939228,64.6855062 C144.861206,64.6855062 156.9568,76.7810306 156.9568,91.703079 C156.9568,106.624078 144.861206,118.720582 129.939228,118.720582 C115.018229,118.720582 102.921725,106.624078 102.921725,91.703079 C102.921725,76.7810306 115.018229,64.6855062 129.939228,64.6855062" id="Fill-72" fill="#24285B" mask="url(#mask-46)"></path>
                            <polyline id="Stroke-73" stroke="#FFFFFF" stroke-width="3.49800003" stroke-linecap="round" stroke-linejoin="round" mask="url(#mask-46)" points="120.051431 91.9977505 126.57028 102.61824 139.837327 83.6897867"></polyline>
                            <path d="M230.53891,112.382626 C236.658031,112.915581 244.414077,118.225825 249.705292,138.343872 L231.147982,145.005464 L223.249218,121.851642 C221.967341,118.106893 223.963929,114.032842 227.707699,112.750965 C228.616549,112.439713 229.579618,112.314135 230.53891,112.382626" id="Fill-74" fill="#FC790D" mask="url(#mask-46)"></path>
                        </g>
                        <g transform="translate(0.000000, 0.174900)">
                            <g transform="translate(222.472802, 111.936001)">
                                <mask id="mask-48" fill="white">
                                    <use xlink:href="#path-47"></use>
                                </mask>
                                <g id="Clip-76"></g>
                                <path d="M8.06610822,0.446624644 C14.1852296,0.979579928 21.9412751,6.28982381 27.2324899,26.4078714 L8.67517999,33.0694626 L0.776416086,9.91564076 C-0.505461004,6.17089181 1.49112745,2.09684114 5.23489696,0.814964046 C6.14374733,0.503712004 7.1068167,0.378133803 8.06610822,0.446624644" id="Fill-75" fill-opacity="0.46" fill="#FFFFFF" mask="url(#mask-48)"></path>
                            </g>
                            <mask id="mask-50" fill="white">
                                <use xlink:href="#path-49"></use>
                            </mask>
                            <g id="Clip-78"></g>
                            <path d="M49.7431065,112.392 C49.7431065,112.392 50.1618381,107.633671 55.7480602,109.346641 C61.3342893,111.059682 61.619789,113.37221 61.619789,113.37221 L49.7431065,112.392 Z" id="Fill-77" fill="#FC790D" mask="url(#mask-50)"></path>
                        </g>
                        <g transform="translate(0.000000, 0.174900)">
                            <g transform="translate(49.671600, 108.438001)">
                                <mask id="mask-52" fill="white">
                                    <use xlink:href="#path-51"></use>
                                </mask>
                                <g id="Clip-80"></g>
                                <path d="M0.0715061166,3.95399931 C0.0715061166,3.95399931 0.490237708,-0.804330126 6.0764598,0.908640487 C11.6626889,2.62168106 11.9481887,4.93420888 11.9481887,4.93420888 L0.0715061166,3.95399931 Z" id="Fill-79" fill-opacity="0.46" fill="#FFFFFF" mask="url(#mask-52)"></path>
                            </g>
                            <mask id="mask-54" fill="white">
                                <use xlink:href="#path-53"></use>
                            </mask>
                            <g id="Clip-82"></g>
                            <path d="M248.705843,138.343662 L253.008243,153.655808 C255.119076,161.189101 250.925114,169.050786 243.491724,171.489871 L230.472098,174.74455 C229.036029,175.091902 227.896871,176.181529 227.483897,177.599478 C227.084215,178.979439 226.399936,180.454476 225.266514,180.368845 C220.574857,179.950064 225.048589,173.278958 225.048589,173.278958 L237.76179,165.342136 C241.012622,163.308469 242.16983,159.12689 240.426427,155.711372 L234.365302,143.929898 L248.705843,138.343662 Z" id="Fill-81" fill="#F4A28C" mask="url(#mask-54)"></path>
                            <polygon id="Fill-83" fill="#FFD200" mask="url(#mask-54)" points="109.212178 168.60633 152.103353 168.60633 152.103353 148.849933 109.212178 148.849933"></polygon>
                        </g>
                        <g transform="translate(0.000000, 0.174900)">
                            <polygon id="Fill-84" fill-opacity="0.34" fill="#C9C9C9" points="117.110872 176.03879 144.41391 176.03879 144.41391 181.834381 117.110872 181.834381"></polygon>
                            <mask id="mask-56" fill="white">
                                <use xlink:href="#path-55"></use>
                            </mask>
                            <g id="Clip-87"></g>
                            <path d="M60.9441084,161.677841 C60.9441084,161.677841 63.9989258,157.04418 66.8729316,159.385252 C69.7469374,161.726323 62.7237089,164.39096 62.7237089,164.39096 L60.9441084,161.677841 Z" id="Fill-86" fill="#F4A28C" mask="url(#mask-56)"></path>
                        </g>
                        <polygon id="Fill-88" fill-opacity="0.46" fill="#FFFFFF" points="124.952549 157.23762 147.820864 157.23762 147.820864 152.32707 124.952549 152.32707"></polygon>
                        <g transform="translate(153.212401, 7.170900)">
                            <mask id="mask-58" fill="white">
                                <use xlink:href="#path-57"></use>
                            </mask>
                            <g id="Clip-91"></g>
                            <path d="M9.07381207,9.10711303 C9.07381207,9.10711303 2.10768494,7.20385122 0.594590045,0.723036606 C0.594590045,0.723036606 11.3863399,-1.45628737 11.6908758,9.67812656 L9.07381207,9.10711303 Z" id="Fill-90" fill-opacity="0.58" fill="#FC790D" mask="url(#mask-58)"></path>
                        </g>
                        <g transform="translate(0.000000, 0.174900)">
                            <g transform="translate(160.208401, 0.000000)">
                                <mask id="mask-60" fill="white">
                                    <use xlink:href="#path-59"></use>
                                </mask>
                                <g id="Clip-93"></g>
                                <path d="M2.93377262,15.4084103 C2.93377262,15.4084103 -1.92823754,7.71903666 2.35422398,0.524490124 C2.35422398,0.524490124 10.5575238,5.73958841 6.91267769,15.4274394 L2.93377262,15.4084103 Z" id="Fill-92" fill-opacity="0.73" fill="#FC790D" mask="url(#mask-60)"></path>
                            </g>
                            <mask id="mask-62" fill="white">
                                <use xlink:href="#path-61"></use>
                            </mask>
                            <g id="Clip-95"></g>
                            <path d="M164.398725,15.4182047 C164.398725,15.4182047 166.968216,7.29109134 174.733706,5.74938281 C174.733706,5.74938281 176.189784,11.031083 169.708969,15.4372338 L164.398725,15.4182047 Z" id="Fill-94" fill="#FC790D" mask="url(#mask-62)"></path>
                            <polygon id="Fill-96" fill="#24285B" mask="url(#mask-62)" points="159.345794 15.2277036 160.75332 24.8870109 169.641808 24.9250692 170.955097 15.284791"></polygon>
                        </g>
                    </g>
                    <g id="独家解决方案备份" transform="translate(0.000000, 263.000000)">
                        <rect id="Rectangle-3" fill="#FC790D" x="0.5098135" y="-2.13162821e-14" width="276" height="44.8081879" rx="4.8990285"></rect>
                        <text id="客户信息打通" font-family="FZLTCHJW--GB1-0, FZLanTingHeiS-B-GB" font-size="24.4951425" font-weight="normal" line-spacing="29.394171" fill="#FFFFFF">
                            <tspan x="119.20103" y="29.3485428">客户信息打通</tspan>
                        </text>
                        <g id="句客宝logo" transform="translate(13.196352, 8.981552)">
                            <path d="M11.430953,-2.3625546e-13 C14.5313149,-2.3625546e-13 17.2121507,1.10905154 19.4723253,3.32404366 C21.7315917,5.54036905 22.862133,8.16911673 22.862133,11.208509 C22.862133,17.9610352 18.0530192,22.9325459 8.43547259,26.128152 L8.43547259,26.128152 L8.43547259,22.031261 C5.85974537,21.3086331 3.80978796,19.9304849 2.28605439,17.8954831 C0.761185737,15.8600369 0,13.6321566 0,11.208509 C0,8.16911673 1.1291792,5.54036905 3.38980776,3.32404366 C5.64862019,1.10905154 8.32922895,-2.3625546e-13 11.430953,-2.3625546e-13 Z M7.13283022,10.5876535 C7.08016243,12.6793189 8.96553301,14.4212253 11.3444371,14.4792222 C11.4400109,14.4821109 11.5335417,14.4763335 11.6272994,14.4738892 C11.6272994,14.4743336 12.0325236,14.7549852 12.4770215,14.9789731 C12.9725982,15.2280709 13.5814559,15.3953952 13.9353744,15.365619 C14.4037091,15.3262878 14.4774894,15.0314148 14.3837316,14.880534 C14.2947412,14.7367639 14.139235,14.7303198 13.9889502,14.6378804 C13.8084723,14.5263308 13.7285625,14.4698894 13.6543282,14.2967876 C13.5691971,14.0974649 13.6677221,13.9494729 13.8550106,13.8505893 C13.8550106,13.8505893 13.8697667,13.8368123 13.8951925,13.8125914 C14.98646,13.1501825 15.7151824,12.0551302 15.7469647,10.7965311 C15.7998595,8.70508794 13.9144889,6.96251488 11.5353578,6.90451799 C9.15668076,6.84696553 7.18572502,8.49576585 7.13283022,10.5876535 Z" id="形状结合" fill="#FFFFFF"></path>
                            <path d="M42.5343205,24.1821127 C43.0590911,24.1821127 43.6261819,24.0662271 44.2355929,23.8344557 C44.8450039,23.6026844 45.4120946,23.2301947 45.9368652,22.7169867 C46.4616358,22.2037788 46.905998,21.5332974 47.2699518,20.7055426 C47.6339056,19.8777878 47.8243465,18.8679269 47.8412746,17.67596 L47.8412746,17.67596 L47.9682352,6.32744156 C48.0020914,5.76456829 47.8158825,5.2844705 47.4096085,4.8871482 C46.9864064,4.47327079 46.4531718,4.26633209 45.8099046,4.26633209 L45.8099046,4.26633209 L35.4245254,4.26633209 C35.543022,3.93523017 35.6530546,3.58343438 35.7546231,3.21094471 C35.8561916,2.83845505 35.9746882,2.44527152 36.1101128,2.03139411 C36.1947532,1.78306767 36.1693611,1.54715755 36.0339365,1.32366375 C35.8985118,1.10016996 35.7038388,0.947035316 35.4499176,0.864259835 C35.1790682,0.781484355 34.929379,0.806316999 34.7008499,0.938757768 C34.4723208,1.07119854 34.315736,1.26158214 34.2310956,1.50990858 C33.9433182,2.48665926 33.6682368,3.36407935 33.4058515,4.14216887 C33.1434662,4.92025839 32.8683849,5.6362663 32.5806074,6.29019259 C32.29283,6.94411889 31.9754285,7.55665745 31.6284027,8.12780827 C31.281377,8.69895908 30.8793351,9.26597113 30.4222768,9.82884439 C30.252996,10.0440606 30.1852836,10.2799708 30.2191398,10.5365748 C30.252996,10.7931787 30.3799566,11.0042562 30.6000217,11.1698072 C30.7862306,11.302248 30.9809036,11.3684683 31.1840406,11.3684683 C31.3194652,11.3684683 31.4591219,11.3394969 31.6030106,11.2815541 C31.7468993,11.2236112 31.8696279,11.1284194 31.9711964,10.9959787 C32.5975355,10.2178892 33.1265381,9.45221596 33.5582043,8.69895908 C33.9898704,7.94570221 34.3834483,7.09725353 34.7389381,6.15361305 L34.7389381,6.15361305 L45.8099046,6.15361305 C45.9114731,6.15361305 45.9791854,6.1784457 46.0130416,6.22811098 C46.0299697,6.22811098 46.0384337,6.25294363 46.0384337,6.30260892 L46.0384337,6.30260892 L45.886081,17.6511273 C45.8691529,18.5947678 45.7294962,19.3645798 45.4671109,19.9605632 C45.2047256,20.5565467 44.8957881,21.0283669 44.5402984,21.376024 C44.1848086,21.723681 43.8166228,21.9595911 43.4357409,22.0837543 C43.054859,22.2079175 42.7543856,22.2699991 42.5343205,22.2699991 L42.5343205,22.2699991 L41.8995173,22.2699991 C41.6117399,22.253444 41.3747468,22.3362195 41.1885378,22.5183256 C41.0023289,22.7004316 40.9092245,22.9239254 40.9092245,23.188807 C40.8922964,23.4702436 40.9769368,23.702015 41.1631457,23.884121 C41.3493546,24.0662271 41.5778838,24.1655577 41.8487331,24.1821127 L41.8487331,24.1821127 L42.5343205,24.1821127 Z M41.5688488,18.718931 C42.0259071,18.718931 42.415253,18.5616576 42.7368866,18.2471108 C43.0585201,17.932564 43.2193369,17.5517967 43.2193369,17.1048091 L43.2193369,17.1048091 L43.2193369,10.8718155 C43.2193369,10.4248279 43.0585201,10.0440606 42.7368866,9.72951382 C42.415253,9.41496699 42.0259071,9.25769358 41.5688488,9.25769358 L41.5688488,9.25769358 L35.6270915,9.25769358 C35.1700333,9.25769358 34.7806874,9.41496699 34.4590538,9.72951382 C34.1374202,10.0440606 33.9766034,10.4248279 33.9766034,10.8718155 L33.9766034,10.8718155 L33.9766034,17.1048091 C33.9766034,17.5517967 34.1374202,17.932564 34.4590538,18.2471108 C34.7806874,18.5616576 35.1700333,18.718931 35.6270915,18.718931 L35.6270915,18.718931 L41.5688488,18.718931 Z M41.2641433,16.8068174 L35.931797,16.8068174 L35.931797,11.1449745 L41.2641433,11.1449745 L41.2641433,16.8068174 Z M71.3532406,8.41338367 C71.6240899,8.41338367 71.8568511,8.31819187 72.051524,8.12780827 C72.246197,7.93742466 72.3435335,7.71806964 72.3435335,7.46974319 L72.3435335,7.46974319 L72.3435335,4.76298498 C72.3435335,4.31599738 72.1784847,3.93523017 71.848387,3.62068334 C71.5182894,3.30613652 71.1247115,3.1488631 70.6676532,3.1488631 L70.6676532,3.1488631 L64.929033,3.1488631 L64.0403086,1.38574536 C63.9048839,1.15397402 63.714443,0.992561831 63.4689858,0.901508802 C63.2235286,0.810455773 62.9823034,0.822872095 62.7453102,0.938757768 C62.508317,1.05464344 62.3390362,1.2367495 62.2374677,1.48507594 C62.1358992,1.73340238 62.1528273,1.97345128 62.288252,2.20522262 L62.288252,2.20522262 L62.7707023,3.12403046 L56.6258081,3.12403046 C56.1518217,3.12403046 55.7540118,3.28130387 55.4323782,3.5958507 C55.1107446,3.91039752 54.9499278,4.29116474 54.9499278,4.73815233 L54.9499278,4.73815233 L54.9499278,7.44491055 C54.9499278,7.72634718 55.0472643,7.95811853 55.2419372,8.14022459 C55.4366102,8.32233065 55.6693713,8.41338367 55.9402207,8.41338367 C56.21107,8.41338367 56.4395991,8.31819187 56.6258081,8.12780827 C56.812017,7.93742466 56.9051214,7.71806964 56.9051214,7.46974319 L56.9051214,7.46974319 L56.9051214,5.06097671 L70.3883399,5.06097671 L70.3883399,7.46974319 C70.3883399,7.71806964 70.4814443,7.93742466 70.6676532,8.12780827 C70.8538621,8.31819187 71.0823913,8.41338367 71.3532406,8.41338367 Z M71.8864752,16.906148 C72.1234684,16.906148 72.3308374,16.8357888 72.5085823,16.6950705 C72.6863272,16.5543522 72.7921277,16.3681074 72.8259839,16.136336 C72.8936962,15.8714545 72.851376,15.6314056 72.6990232,15.4161893 C72.5466705,15.2009731 72.3350694,15.0685323 72.0642201,15.018867 C70.625333,14.7374304 69.3684228,14.451855 68.2934895,14.1621408 C67.2185562,13.8724266 66.2748156,13.5454635 65.4622676,13.1812514 C66.3425279,12.601823 67.1254518,11.9727293 67.8110392,11.2939704 C68.4966265,10.6152115 69.1018055,9.86195459 69.6265761,9.03419978 C69.7281446,8.88520391 69.7831609,8.71551418 69.7916249,8.52513057 C69.800089,8.33474697 69.7704648,8.16091846 69.7027525,8.00364505 C69.6350401,7.84637163 69.5292396,7.70979209 69.3853509,7.59390642 C69.2414622,7.47802074 69.0679493,7.42007791 68.8648123,7.42007791 L68.8648123,7.42007791 L61.4757039,7.42007791 C61.5434163,7.28763714 61.6026646,7.17175146 61.6534488,7.07242089 C61.7042331,6.97309031 61.7550173,6.85720464 61.8058016,6.72476387 C61.9242982,6.49299252 61.9369942,6.2570824 61.8438898,6.01703351 C61.7507853,5.77698461 61.5772724,5.59073978 61.3233512,5.45829901 C61.086358,5.34241334 60.8451328,5.32999702 60.5996756,5.42105005 C60.3542184,5.51210308 60.1637775,5.68179281 60.0283528,5.93011925 C59.5882227,6.84064954 59.0211319,7.70151454 58.3270804,8.51271425 C57.633029,9.32391396 56.812017,10.0606157 55.8640443,10.7228196 C55.6270511,10.8718155 55.4916265,11.0746154 55.4577703,11.3312194 C55.4239141,11.5878234 55.4746984,11.8237335 55.6101231,12.0389497 C55.8301881,12.3038313 56.1010375,12.436272 56.4226711,12.436272 C56.6427361,12.436272 56.820481,12.3700517 56.9559057,12.2376109 C57.2944674,12.0058395 57.620333,11.7657906 57.9335025,11.5174642 C58.246672,11.2691378 58.5471455,11.0042562 58.8349229,10.7228196 C59.2750531,11.1698072 59.7109513,11.5961009 60.1426174,12.0017008 C60.5742835,12.4073006 61.0355738,12.7839291 61.5264882,13.1315861 C59.7659675,13.8931205 57.6838133,14.5222141 55.2800254,15.018867 C55.0091761,15.0685323 54.7975751,15.2051119 54.6452223,15.4286057 C54.4928696,15.6520995 54.4505493,15.8962871 54.5182617,16.1611687 C54.5690459,16.3763849 54.6833105,16.5543522 54.8610554,16.6950705 C55.0388002,16.8357888 55.2461693,16.906148 55.4831624,16.906148 C55.5678028,16.906148 55.6355152,16.8978704 55.6862994,16.8813153 C57.226755,16.5667685 58.64025,16.1984176 59.9267843,15.7762627 C61.2133187,15.3541077 62.3982845,14.8781487 63.4816818,14.3483856 C64.4804387,14.8781487 65.6357804,15.3458302 66.9477069,15.75143 C68.2596334,16.1570299 69.8466412,16.5336583 71.7087304,16.8813153 C71.7425865,16.8813153 71.7722107,16.8854541 71.7976028,16.8937317 C71.8229949,16.9020092 71.8526191,16.906148 71.8864752,16.906148 Z M63.4562897,12.1382803 C62.8638068,11.7575131 62.296716,11.3353581 61.7550173,10.8718155 C61.2133187,10.4082728 60.67162,9.89506478 60.1299213,9.33219151 L60.1299213,9.33219151 L66.960403,9.33219151 C66.0124303,10.4248279 64.8443925,11.3601908 63.4562897,12.1382803 Z M68.5601068,23.8592884 C68.9663808,23.8592884 69.3176386,23.7144313 69.61388,23.4247171 C69.9101215,23.1350029 70.0582422,22.7914847 70.0582422,22.3941624 L70.0582422,22.3941624 L70.0582422,18.0732823 C70.0582422,17.6594049 69.9143535,17.3076091 69.6265761,17.0178949 C69.3387987,16.7281807 68.9833089,16.5833236 68.5601068,16.5833236 L68.5601068,16.5833236 L58.6571781,16.5833236 C58.2509041,16.5833236 57.8996463,16.7281807 57.6034049,17.0178949 C57.3071634,17.3076091 57.1590427,17.6676824 57.1590427,18.0981149 L57.1590427,18.0981149 L57.1590427,22.3941624 C57.1590427,22.7914847 57.3029314,23.1350029 57.5907088,23.4247171 C57.8784862,23.7144313 58.233976,23.8592884 58.6571781,23.8592884 L58.6571781,23.8592884 L68.5601068,23.8592884 Z M68.1284407,21.9720074 L59.1142363,21.9720074 L59.1142363,18.4706046 L68.1284407,18.4706046 L68.1284407,21.9720074 Z M79.4781497,8.81070598 C79.748999,8.81070598 79.9775282,8.71551418 80.1637371,8.52513057 C80.349946,8.33474697 80.4430505,8.1071144 80.4430505,7.84223286 L80.4430505,7.84223286 L80.4430505,5.80595603 L93.9262689,5.80595603 L93.9262689,7.84223286 C93.9262689,8.0905593 94.0193733,8.30991432 94.2055823,8.50029793 C94.3917912,8.69068153 94.6203203,8.78587334 94.8911696,8.78587334 C95.162019,8.78587334 95.3947801,8.69068153 95.5894531,8.50029793 C95.784126,8.30991432 95.8814625,8.08228175 95.8814625,7.81740021 L95.8814625,7.81740021 L95.8814625,5.35896844 C95.8814625,4.94509103 95.7206457,4.59743401 95.3990121,4.31599738 C95.0773786,4.03456075 94.6795686,3.89384243 94.2055823,3.89384243 L94.2055823,3.89384243 L88.9494124,3.89384243 C88.9324843,3.77795676 88.8901641,3.66207108 88.8224517,3.54618541 L88.8224517,3.54618541 L87.3497085,1.33608008 C87.2142838,1.10430873 87.0153788,0.963590412 86.7529935,0.913925124 C86.4906083,0.864259835 86.240919,0.905647576 86.0039259,1.03808834 C85.7669327,1.18708421 85.623044,1.38988414 85.5722597,1.64648813 C85.5214755,1.90309212 85.5722597,2.13900224 85.7246125,2.35421849 L85.7246125,2.35421849 L86.7149054,3.91867507 L80.1637371,3.91867507 C79.6897508,3.91867507 79.2919408,4.06353216 78.9703072,4.35324635 C78.6486736,4.64296053 78.4878568,4.98647877 78.4878568,5.38380108 L78.4878568,5.38380108 L78.4878568,7.84223286 C78.4878568,8.1071144 78.5851933,8.33474697 78.7798663,8.52513057 C78.9745392,8.71551418 79.2073004,8.81070598 79.4781497,8.81070598 Z M95.0689145,23.8344557 C95.3566919,23.8344557 95.5936851,23.7392639 95.779894,23.5488803 C95.9661029,23.3584967 96.0592074,23.1391417 96.0592074,22.8908152 C96.0592074,22.6259337 95.9618709,22.3983011 95.767198,22.2079175 C95.572525,22.0175339 95.3397638,21.9223421 95.0689145,21.9223421 L95.0689145,21.9223421 L88.060688,21.9223421 L88.060688,16.558491 L93.5707791,16.558491 C93.8585566,16.558491 94.0955497,16.4674379 94.2817586,16.2853319 C94.4679676,16.1032258 94.561072,15.879732 94.561072,15.6148505 C94.561072,15.349969 94.4637355,15.1223364 94.2690626,14.9319528 C94.0743896,14.7415692 93.8416285,14.6463774 93.5707791,14.6463774 L93.5707791,14.6463774 L88.060688,14.6463774 L88.060688,10.9463134 L94.3833271,10.9463134 C94.6711046,10.9463134 94.9080977,10.8552604 95.0943066,10.6731543 C95.2805156,10.4910482 95.37362,10.2675544 95.37362,10.0026729 C95.37362,9.73779137 95.2762835,9.51015879 95.0816106,9.31977519 C94.8869376,9.12939158 94.6541765,9.03419978 94.3833271,9.03419978 L94.3833271,9.03419978 L81.0524615,9.03419978 C80.7646841,9.03419978 80.5319229,9.12939158 80.354178,9.31977519 C80.1764332,9.51015879 80.0875607,9.73779137 80.0875607,10.0026729 C80.0875607,10.2675544 80.1806652,10.4910482 80.3668741,10.6731543 C80.553083,10.8552604 80.7816121,10.9463134 81.0524615,10.9463134 L81.0524615,10.9463134 L86.0801022,10.9463134 L86.0801022,14.6463774 L81.0524615,14.6463774 C80.7646841,14.6463774 80.5319229,14.7415692 80.354178,14.9319528 C80.1764332,15.1223364 80.0875607,15.349969 80.0875607,15.6148505 C80.0875607,15.879732 80.1806652,16.1032258 80.3668741,16.2853319 C80.553083,16.4674379 80.7816121,16.558491 81.0524615,16.558491 L81.0524615,16.558491 L86.0801022,16.558491 L86.0801022,21.9223421 L79.1988363,21.9223421 C78.927987,21.9223421 78.6994579,22.0175339 78.513249,22.2079175 C78.32704,22.3983011 78.2339356,22.6259337 78.2339356,22.8908152 C78.2339356,23.1391417 78.3312721,23.3584967 78.525945,23.5488803 C78.720618,23.7392639 78.9449151,23.8344557 79.1988363,23.8344557 L79.1988363,23.8344557 L95.0689145,23.8344557 Z" id="句客宝" stroke="#FFFFFF" stroke-width="0.707199981" fill="#FFFFFF" fill-rule="nonzero"></path>
                            <circle id="椭圆形" stroke="#FFFFFF" stroke-width="1.32626505" fill="#FC790D" fill-rule="nonzero" cx="91.9920012" cy="19.2355456" r="1.91571618"></circle>
                        </g>
                    </g>
                </g>
            </g>
        </g>
    </g>
</svg>