<?xml version="1.0" encoding="UTF-8"?>
<svg width="221px" height="254px" viewBox="0 0 221 254" version="1.1" xmlns="http://www.w3.org/2000/svg" xmlns:xlink="http://www.w3.org/1999/xlink">
    <title>7-客户价值评分</title>
    <defs>
        <polygon id="path-1" points="0 0.14248903 181.278223 0.14248903 181.278223 62.605406 0 62.605406"></polygon>
        <polygon id="path-3" points="0.649276763 0.290825801 142.453851 0.290825801 142.453851 17.0283486 0.649276763 17.0283486"></polygon>
        <polygon id="path-5" points="0 123.47996 181.278223 123.47996 181.278223 0.243981115 0 0.243981115"></polygon>
        <polygon id="path-7" points="0.174736771 0.4897775 8.53278502 0.4897775 8.53278502 7.37087278 0.174736771 7.37087278"></polygon>
        <polygon id="path-9" points="0.468720637 0.184643868 5.93403591 0.184643868 5.93403591 11.4283753 0.468720637 11.4283753"></polygon>
        <polygon id="path-11" points="0 123.47996 181.278223 123.47996 181.278223 0.243981115 0 0.243981115"></polygon>
        <polygon id="path-13" points="0.324038704 0.408646445 12.7781675 0.408646445 12.7781675 12.8628959 0.324038704 12.8628959"></polygon>
        <polyline id="path-15" points="0 123.47996 181.278223 123.47996 181.278223 0.243981115 0 0.243981115"></polyline>
        <polygon id="path-17" points="0.0799806438 0.233632899 1.00092902 0.233632899 1.00092902 1.4757032 0.0799806438 1.4757032"></polygon>
        <polyline id="path-19" points="0 123.47996 181.278223 123.47996 181.278223 0.243981115 0 0.243981115"></polyline>
        <polygon id="path-21" points="0.173870965 0.0615432248 1.09474837 0.0615432248 1.09474837 1.30375546 0.173870965 1.30375546"></polygon>
        <polyline id="path-23" points="0 123.47996 181.278223 123.47996 181.278223 0.243981115 0 0.243981115"></polyline>
        <polygon id="path-25" points="0.479103218 0.0741258052 1.4053032 0.0741258052 1.4053032 1.31628836 0.479103218 1.31628836"></polygon>
        <polyline id="path-27" points="0 123.47996 181.278223 123.47996 181.278223 0.243981115 0 0.243981115"></polyline>
        <polygon id="path-29" points="0.0447096767 0.177680513 4.93857411 0.177680513 4.93857411 5.07156766 0.0447096767 5.07156766"></polygon>
        <polygon id="path-31" points="0.0598967732 0.177680513 4.95376121 0.177680513 4.95376121 5.07156766 0.0598967732 5.07156766"></polygon>
        <polygon id="path-33" points="0 123.47996 181.278223 123.47996 181.278223 0.243981115 0 0.243981115"></polygon>
        <polygon id="path-35" points="0 123.47996 181.278223 123.47996 181.278223 0.243981115 0 0.243981115"></polygon>
        <polygon id="path-37" points="0 123.47996 181.278223 123.47996 181.278223 0.243981115 0 0.243981115"></polygon>
        <polygon id="path-39" points="0 123.47996 181.278223 123.47996 181.278223 0.243981115 0 0.243981115"></polygon>
        <polygon id="path-41" points="0 123.47996 181.278223 123.47996 181.278223 0.243981115 0 0.243981115"></polygon>
        <polygon id="path-43" points="0 123.47996 181.278223 123.47996 181.278223 0.243981115 0 0.243981115"></polygon>
        <polygon id="path-45" points="0.158804513 0.685133214 16.7144926 0.685133214 16.7144926 4.03696445 0.158804513 4.03696445"></polygon>
        <polyline id="path-47" points="0 123.47996 181.278223 123.47996 181.278223 0.243981115 0 0.243981115"></polyline>
        <polygon id="path-49" points="0.217047738 0.449594831 4.03995219 0.449594831 4.03995219 4.27255606 0.217047738 4.27255606"></polygon>
        <polygon id="path-51" points="0.217047738 0.677188376 4.03995219 0.677188376 4.03995219 4.50009992 0.217047738 4.50009992"></polygon>
    </defs>
    <g id="最新版备份" stroke="none" stroke-width="1" fill="none" fill-rule="evenodd">
        <g id="十大功能" transform="translate(-365.000000, -480.000000)">
            <g id="7-客户价值评分" transform="translate(365.750000, 480.000000)">
                <rect id="矩形" fill="#FFFDF8" x="0" y="0" width="219.310578" height="253.050667" rx="16.6399984"></rect>
                <text id="客户价值评分" font-family="FZLTCHJW--GB1-0, FZLanTingHeiS-B-GB" font-size="26.6239974" font-weight="normal" fill="#000000" fill-opacity="0.7">
                    <tspan x="29.7832967" y="227.498321">客户价值评分</tspan>
                </text>
                <g id="编组" transform="translate(19.262673, 34.470046)">
                    <g transform="translate(0.000000, 26.723754)">
                        <mask id="mask-2" fill="white">
                            <use xlink:href="#path-1"></use>
                        </mask>
                        <g id="Clip-2"></g>
                        <polygon id="Fill-1" fill="#E6E6E6" mask="url(#mask-2)" points="0 62.605406 36.9022671 62.605406 36.9022671 4.29158251 0 4.29158251"></polygon>
                        <polygon id="Fill-3" fill="#E6E6E6" mask="url(#mask-2)" points="152.101894 32.128913 181.283169 32.128913 181.283169 0.14248903 152.101894 0.14248903"></polygon>
                    </g>
                    <g transform="translate(0.000000, 0.465690)">
                        <g transform="translate(22.000000, 106.451611)">
                            <mask id="mask-4" fill="white">
                                <use xlink:href="#path-3"></use>
                            </mask>
                            <g id="Clip-5"></g>
                            <path d="M71.5512375,0.290825801 C110.709817,0.290825801 142.454185,4.03726961 142.454185,8.65969663 C142.454185,13.28158 110.709817,17.0285627 71.5512375,17.0285627 C32.3931472,17.0285627 0.649276763,13.28158 0.649276763,8.65969663 C0.649276763,4.03726961 32.3931472,0.290825801 71.5512375,0.290825801" id="Fill-4" fill-opacity="0.45" fill="#E6E6E6" mask="url(#mask-4)"></path>
                        </g>
                        <mask id="mask-6" fill="white">
                            <use xlink:href="#path-5"></use>
                        </mask>
                        <g id="Clip-7"></g>
                        <polygon id="Fill-6" fill="#E6E6E6" mask="url(#mask-6)" points="122.738069 114.307939 158.258906 114.307939 158.258906 104.959223 122.738069 104.959223"></polygon>
                    </g>
                    <polygon id="Fill-8" fill-opacity="0.43" fill="#E6E6E6" points="114.974198 105.628378 150.495036 105.628378 150.495036 96.2796629 114.974198 96.2796629"></polygon>
                    <g transform="translate(31.935483, 101.239882)">
                        <mask id="mask-8" fill="white">
                            <use xlink:href="#path-7"></use>
                        </mask>
                        <g id="Clip-11"></g>
                        <path d="M6.56248634,6.93716762 C6.56248634,6.93716762 1.31520966,5.50219991 0.174736771,0.619023215 C0.174736771,0.619023215 8.30265792,-1.01940901 8.53289147,7.37087278 L6.56248634,6.93716762 Z" id="Fill-10" fill-opacity="0.58" fill="#FC790D" mask="url(#mask-8)"></path>
                    </g>
                    <g transform="translate(0.000000, 0.465690)">
                        <g transform="translate(36.903225, 95.806450)">
                            <mask id="mask-10" fill="white">
                                <use xlink:href="#path-9"></use>
                            </mask>
                            <g id="Clip-13"></g>
                            <path d="M2.23710899,11.3961417 C2.23710899,11.3961417 -1.43063159,5.60325797 1.79805287,0.184643868 C1.79805287,0.184643868 7.97698696,4.10938703 5.23019475,11.4288011 L2.23710899,11.3961417 Z" id="Fill-12" fill-opacity="0.73" fill="#FC790D" mask="url(#mask-10)"></path>
                        </g>
                        <mask id="mask-12" fill="white">
                            <use xlink:href="#path-11"></use>
                        </mask>
                        <g id="Clip-15"></g>
                        <path d="M40.0828638,107.207836 C40.0828638,107.207836 42.0211419,101.087798 47.8788121,99.9259073 C47.8788121,99.9259073 48.9496869,103.898845 44.0879283,107.223903 L40.0828638,107.207836 Z" id="Fill-14" fill="#FC790D" mask="url(#mask-12)"></path>
                        <polygon id="Fill-16" fill="#24285B" mask="url(#mask-12)" points="36.2812142 107.068732 37.3413729 114.34531 44.0396844 114.372619 45.0302379 107.10621"></polygon>
                        <polygon id="Fill-17" fill="#C9C9C9" mask="url(#mask-12)" points="58.9943616 114.377544 122.630957 114.377544 122.630957 0.243958706 58.9943616 0.243958706"></polygon>
                        <polygon id="Fill-18" fill="#FFFFFF" mask="url(#mask-12)" points="64.2576983 93.5704907 116.933915 93.5704907 116.933915 13.2496985 64.2576983 13.2496985"></polygon>
                    </g>
                    <g transform="translate(84.451611, 97.691495)">
                        <mask id="mask-14" fill="white">
                            <use xlink:href="#path-13"></use>
                        </mask>
                        <g id="Clip-20"></g>
                        <path d="M6.55103215,0.408483219 C9.99012886,0.408483219 12.7781675,3.19650059 12.7781675,6.6356115 C12.7781675,10.0752547 9.99012886,12.863272 6.55103215,12.863272 C3.11193543,12.863272 0.323896769,10.0752547 0.323896769,6.6356115 C0.323896769,3.19650059 3.11193543,0.408483219 6.55103215,0.408483219" id="Fill-19" fill-opacity="0.56" fill="#FFFFFF" mask="url(#mask-14)"></path>
                    </g>
                    <g transform="translate(0.000000, 0.465690)">
                        <polygon id="Fill-21" fill-opacity="0.12" fill="#000000" points="85.4288373 4.70412153 103.269574 4.70412153 103.269574 7.30634181 85.4288373 7.30634181"></polygon>
                        <mask id="mask-16" fill="white">
                            <use xlink:href="#path-15"></use>
                        </mask>
                        <g id="Clip-24"></g>
                        <path d="M78.966018,3.38154188 C80.5718051,3.38154188 81.8734244,4.68323218 81.8734244,6.28894828 C81.8734244,7.89473535 80.5718051,9.19642565 78.966018,9.19642565 C77.3602309,9.19642565 76.0586116,7.89473535 76.0586116,6.28894828 C76.0586116,4.68323218 77.3602309,3.38154188 78.966018,3.38154188" id="Fill-23" fill="#FFFFFF" mask="url(#mask-16)"></path>
                        <path d="M77.6810051,26.6194318 C82.0367922,26.6194318 85.568005,30.1506446 85.568005,34.5064317 C85.568005,38.8622187 82.0367922,42.3933606 77.6810051,42.3933606 C73.3252891,42.3933606 69.7940549,38.8622187 69.7940549,34.5064317 C69.7940549,30.1506446 73.3252891,26.6194318 77.6810051,26.6194318" id="Fill-25" fill="#24285B" mask="url(#mask-16)"></path>
                        <path d="M78.7304761,30.8815414 C78.8579341,31.4956253 78.9007277,32.1242575 78.8589987,32.750193 C78.8348696,33.0452059 78.5768309,33.2647091 78.281818,33.240651 C78.2619471,33.2390188 78.2416503,33.2358252 78.2218503,33.232064 C77.7372825,33.1913994 77.3196374,32.8743865 77.1509471,32.4182059 L76.7011535,31.4812188 C76.5603535,31.0758511 76.6861793,30.625064 77.0171019,30.3514124 C77.472218,29.973935 78.1474051,30.0365995 78.5248825,30.4917156 C78.6196245,30.6062575 78.6898116,30.7391092 78.7304761,30.8815414" id="Fill-26" fill="#F4A28C" mask="url(#mask-16)"></path>
                        <polygon id="Fill-27" fill="#F4A28C" mask="url(#mask-16)" points="76.7761664 31.6472124 76.6262826 35.3363994 78.6663212 35.2721026 77.95416 32.6163478"></polygon>
                        <path d="M78.4627858,30.9619479 C78.1173858,31.0160962 77.7672309,31.0300059 77.4186374,31.0048124 C77.6590761,31.2913091 77.7072632,31.6923478 77.5418374,32.0275285 C77.3844309,32.3589478 77.0133406,32.5318962 76.65836,32.4397801 L76.5084051,30.9994898 C76.4543277,30.5861027 76.6283406,30.1759801 76.9635213,29.9285866 C77.1080826,29.819864 77.2601664,29.7213608 77.4186374,29.6340705 C77.8095277,29.4199608 78.4466761,29.6340705 78.7893793,29.3021543 C78.8959728,29.1993221 79.0651599,29.2025156 79.1679212,29.3091092 C79.1995019,29.3417543 79.2219987,29.3813543 79.2337793,29.4252834 C79.4340503,29.9489543 79.2535793,30.5421737 78.7947729,30.8655737 C78.6892438,30.9126962 78.5773277,30.9454124 78.4627858,30.9619479" id="Fill-28" fill="#FFD200" mask="url(#mask-16)"></path>
                        <path d="M77.6543922,31.9792704 C77.6543922,31.9792704 77.595489,31.5509091 77.2795406,31.6205285 C76.9636632,31.6901478 77.0386051,32.3165801 77.4883987,32.3219027 L77.6543922,31.9792704 Z" id="Fill-29" fill="#F4A28C" mask="url(#mask-16)"></path>
                        <path d="M78.842889,31.5829156 L79.2016309,31.9791285 C79.2690503,32.0535736 79.2637277,32.1686833 79.1892825,32.2366704 C79.1711148,32.2527801 79.1502503,32.2656253 79.126689,32.2736446 L78.7036503,32.4021672 L78.842889,31.5829156 Z" id="Fill-30" fill="#F4A28C" mask="url(#mask-16)"></path>
                    </g>
                    <g transform="translate(0.000000, 0.465690)">
                        <g transform="translate(77.354837, 32.645161)">
                            <mask id="mask-18" fill="white">
                                <use xlink:href="#path-17"></use>
                            </mask>
                            <g id="Clip-32"></g>
                            <path d="M0.781354825,0.544109668 C0.522251604,0.510896765 0.27861935,0.403238703 0.0799806438,0.233554835 C0.221845158,0.748070955 0.550070958,1.19090966 1.00092902,1.4757032 L0.781354825,0.544109668 Z" id="Fill-31" fill-opacity="0.31" fill="#CE8172" mask="url(#mask-18)"></path>
                        </g>
                        <mask id="mask-20" fill="white">
                            <use xlink:href="#path-19"></use>
                        </mask>
                        <g id="Clip-34"></g>
                        <path d="M72.3643149,40.3321025 C72.3643149,40.3321025 72.2411859,35.3793349 77.5848438,35.1276833 C82.9285018,34.8760317 82.7838696,40.5516767 82.7838696,40.5516767 C82.7838696,40.5516767 77.7454438,45.1457025 72.3643149,40.3321025" id="Fill-33" fill="#FC790D" mask="url(#mask-20)"></path>
                        <path d="M77.0598955,71.1463665 C81.4156825,71.1463665 84.9468244,74.6775723 84.9468244,79.0333451 C84.9468244,83.3891179 81.4156825,86.9203166 77.0598955,86.9203166 C72.7041084,86.9203166 69.1728956,83.3891179 69.1728956,79.0333451 C69.1728956,74.6775723 72.7041084,71.1463665 77.0598955,71.1463665" id="Fill-35" fill="#24285B" mask="url(#mask-20)"></path>
                        <path d="M78.11476,75.4084407 C78.242218,76.0225813 78.2850825,76.6511851 78.2432825,77.2771135 C78.2192245,77.5721406 77.960618,77.7911329 77.6661019,77.7670393 C77.6463019,77.7654284 77.6259342,77.7627529 77.6061342,77.7590058 C77.1209987,77.7199167 76.7028568,77.4024071 76.535231,76.9451406 L76.0855084,76.0081252 C75.9409471,75.6022677 76.0678374,75.1503594 76.4013858,74.8783542 C76.8565019,74.5008768 77.531689,74.56352 77.9091664,75.0186432 C78.0039793,75.1326884 78.0740954,75.2654761 78.11476,75.4084407" id="Fill-36" fill="#F4A28C" mask="url(#mask-20)"></path>
                        <polygon id="Fill-37" fill="#F4A28C" mask="url(#mask-20)" points="76.1549858 76.1739555 76.0104245 79.8636464 78.0504632 79.7993922 77.3383019 77.1436303"></polygon>
                        <path d="M78.2219922,76.1206232 L78.5860567,76.5168432 C78.6529793,76.5918064 78.6460245,76.7069232 78.5710825,76.7738529 C78.552347,76.7909916 78.5298503,76.8033045 78.5057922,76.811338 L78.0881471,76.9398393 L78.2219922,76.1206232 Z" id="Fill-38" fill="#F4A28C" mask="url(#mask-20)"></path>
                    </g>
                    <g transform="translate(0.000000, 0.465690)">
                        <g transform="translate(76.645160, 77.354837)">
                            <mask id="mask-22" fill="white">
                                <use xlink:href="#path-21"></use>
                            </mask>
                            <g id="Clip-40"></g>
                            <path d="M0.869922566,0.372090961 C0.612877409,0.338899349 0.370877413,0.230205157 0.173799997,0.0615432248 C0.315167737,0.576094829 0.643961279,1.01889805 1.09474837,1.30375546 L0.869922566,0.372090961 Z" id="Fill-39" fill-opacity="0.31" fill="#CE8172" mask="url(#mask-22)"></path>
                        </g>
                        <mask id="mask-24" fill="white">
                            <use xlink:href="#path-23"></use>
                        </mask>
                        <g id="Clip-42"></g>
                        <path d="M71.7483149,84.8591011 C71.7483149,84.8591011 71.6251859,79.9116703 76.9688439,79.6541283 C82.3125018,79.3976509 82.1679405,85.0786327 82.1679405,85.0786327 C82.1679405,85.0786327 77.1295148,89.6721404 71.7483149,84.8591011" id="Fill-41" fill="#FC790D" mask="url(#mask-24)"></path>
                        <path d="M76.1123342,77.35202 L75.4966181,76.2013703 C75.4966181,76.2013703 74.4578632,76.3138116 74.4257149,75.5583103 C74.3936374,74.8033413 75.1967794,74.9853878 75.1967794,74.4874355 C75.1967794,73.9894762 75.0950116,73.2350465 75.892831,73.2505742 C76.6906503,73.2666413 76.9101535,73.91452 77.2796116,73.4968749 C77.4884696,73.2634265 77.8472116,73.24308 78.0811922,73.4524349 C78.2016245,73.5605968 78.2706761,73.7148026 78.2701793,73.8770349 C78.3130438,74.3857032 78.853818,74.2304258 78.6342438,74.9479097 C78.4147406,75.6659329 77.2796116,75.2905916 77.2796116,75.2905916 C77.2796116,75.2905916 76.2515729,75.2905916 76.3800955,75.7457077 C76.5086181,76.2013703 77.3224761,77.1913916 76.1123342,77.35202" id="Fill-43" fill="#FFD200" mask="url(#mask-24)"></path>
                        <path d="M76.8511793,76.3935864 C76.8511793,76.3935864 76.6638245,76.0032568 76.3800245,76.1633529 C76.0962245,76.3239813 76.3800245,76.8968968 76.7869535,76.7683955 L76.8511793,76.3935864 Z" id="Fill-44" fill="#F4A28C" mask="url(#mask-24)"></path>
                        <path d="M77.3704503,48.4598959 C81.7261664,48.4598959 85.2573792,51.9911088 85.2573792,56.3468532 C85.2573792,60.7026261 81.7261664,64.2338318 77.3704503,64.2338318 C73.0146633,64.2338318 69.4834504,60.7026261 69.4834504,56.3468532 C69.4834504,51.9911088 73.0146633,48.4598959 77.3704503,48.4598959" id="Fill-45" fill="#24285B" mask="url(#mask-24)"></path>
                        <path d="M78.4253858,52.7274133 C78.5496503,53.3404894 78.5924438,53.9664107 78.5539083,54.5907281 C78.5121083,54.9012829 78.2273148,55.1192036 77.91676,55.0779784 C77.4299922,55.0388894 77.0107858,54.7186971 76.8458568,54.2587623 L76.3960632,53.3217468 C76.2510052,52.9180256 76.3778955,52.4666636 76.7120116,52.197341 C77.1671277,51.8198636 77.8423148,51.8825281 78.2197922,52.3376443 C78.3145342,52.4521862 78.3847212,52.5844488 78.4253858,52.7274133" id="Fill-46" fill="#F4A28C" mask="url(#mask-24)"></path>
                        <polygon id="Fill-47" fill="#F4A28C" mask="url(#mask-24)" points="76.4656116 53.4931907 76.3210503 57.1823493 78.3556954 57.1180952 77.6435342 54.4569823"></polygon>
                        <path d="M77.349018,53.8250075 C77.349018,53.8250075 77.2901148,53.3966533 76.9688439,53.4662584 C76.6475729,53.5358707 76.733231,54.1569733 77.1777019,54.1676823 L77.349018,53.8250075 Z" id="Fill-48" fill="#F4A28C" mask="url(#mask-24)"></path>
                        <path d="M78.5323341,53.4288868 L78.8963987,53.8197559 C78.9633212,53.8947191 78.9569341,54.0098359 78.8819922,54.0767655 C78.862689,54.0938971 78.8407599,54.1062171 78.8161341,54.1142436 L78.398489,54.2481029 L78.5323341,53.4288868 Z" id="Fill-49" fill="#F4A28C" mask="url(#mask-24)"></path>
                    </g>
                    <g transform="translate(0.000000, 0.465690)">
                        <g transform="translate(76.645160, 54.645160)">
                            <mask id="mask-26" fill="white">
                                <use xlink:href="#path-25"></use>
                            </mask>
                            <g id="Clip-51"></g>
                            <path d="M1.18040643,0.390038703 C0.920735468,0.355768381 0.677103214,0.245470318 0.47903225,0.0741258052 C0.618199989,0.590827732 0.949122564,1.03577418 1.4053032,1.31633804 L1.18040643,0.390038703 Z" id="Fill-50" fill-opacity="0.31" fill="#CE8172" mask="url(#mask-26)"></path>
                        </g>
                        <mask id="mask-28" fill="white">
                            <use xlink:href="#path-27"></use>
                        </mask>
                        <g id="Clip-53"></g>
                        <path d="M72.0537601,62.1992789 C72.0537601,62.1992789 71.9359536,57.2464971 77.274289,56.9894874 C82.6125534,56.7324777 82.4787083,62.4188105 82.4787083,62.4188105 C82.4787083,62.4188105 77.434889,67.0182085 72.0537601,62.1992789" id="Fill-52" fill="#FC790D" mask="url(#mask-28)"></path>
                        <path d="M74.4898697,55.4260681 C74.19436,55.9079603 74.1258052,56.4953319 74.3025149,57.0323732 C74.4235149,57.538359 74.8914761,57.8842558 75.4108181,57.8515893 C76.8190309,57.7980513 76.6102439,57.3857642 76.7975987,55.3671649 C76.9689858,53.471723 77.1242632,52.9095165 78.23796,52.6257307 C79.3516567,52.3419733 78.6663212,51.2443153 77.7025084,51.2710701 C76.7386955,51.2978249 75.0253213,51.346012 75.0735084,53.112981 C75.0970697,53.9230991 74.8952374,54.724112 74.4898697,55.4260681" id="Fill-54" fill="#FFD200" mask="url(#mask-28)"></path>
                        <polygon id="Fill-55" fill="#E6E6E6" mask="url(#mask-28)" points="89.9104501 30.7210124 100.694672 30.7210124 100.694672 28.5096604 89.9104501 28.5096604"></polygon>
                        <polygon id="Fill-56" fill="#FFD200" mask="url(#mask-28)" points="64.2576983 22.6251545 116.933915 22.6251545 116.933915 13.249663 64.2576983 13.249663"></polygon>
                        <polygon id="Fill-57" fill="#FFFFFF" mask="url(#mask-28)" points="82.7837986 19.2787416 110.449785 19.2787416 110.449785 16.6069147 82.7837986 16.6069147"></polygon>
                        <path d="M70.3028298,15.0808578 C71.6542827,15.0808578 72.7497407,16.1763868 72.7497407,17.5278255 C72.7497407,18.8792642 71.6542827,19.9747932 70.3028298,19.9747932 C68.9513911,19.9747932 67.8558834,18.8792642 67.8558834,17.5278255 C67.8558834,16.1763868 68.9513911,15.0808578 70.3028298,15.0808578" id="Fill-58" fill="#24285B" mask="url(#mask-28)"></path>
                    </g>
                    <g transform="translate(70.258063, 15.368916)">
                        <mask id="mask-30" fill="white">
                            <use xlink:href="#path-29"></use>
                        </mask>
                        <g id="Clip-60"></g>
                        <path d="M2.49167738,0.177632255 C3.84311606,0.177632255 4.93857411,1.27316127 4.93857411,2.62459996 C4.93857411,3.97603864 3.84311606,5.07156766 2.49167738,5.07156766 C1.14023869,5.07156766 0.0447096767,3.97603864 0.0447096767,2.62459996 C0.0447096767,1.27316127 1.14023869,0.177632255 2.49167738,0.177632255" id="Fill-59" fill-opacity="0.74" fill="#24285B" mask="url(#mask-30)"></path>
                    </g>
                    <g transform="translate(0.000000, 0.465690)">
                        <g transform="translate(73.096773, 14.903226)">
                            <mask id="mask-32" fill="white">
                                <use xlink:href="#path-31"></use>
                            </mask>
                            <g id="Clip-62"></g>
                            <path d="M2.50679351,0.177632255 C3.85823219,0.177632255 4.95376121,1.27316127 4.95376121,2.62459996 C4.95376121,3.97603864 3.85823219,5.07156766 2.50679351,5.07156766 C1.15535482,5.07156766 0.0598967732,3.97603864 0.0598967732,2.62459996 C0.0598967732,1.27316127 1.15535482,0.177632255 2.50679351,0.177632255" id="Fill-61" fill-opacity="0.31" fill="#24285B" mask="url(#mask-32)"></path>
                        </g>
                        <mask id="mask-34" fill="white">
                            <use xlink:href="#path-33"></use>
                        </mask>
                        <g id="Clip-64"></g>
                        <polygon id="Fill-63" fill="#FFD200" mask="url(#mask-34)" points="89.9103081 33.0073091 89.9103081 37.5478252 86.8048308 39.7270316 89.9103081 39.7270316 132.734514 39.7270316 132.734514 33.0073091"></polygon>
                    </g>
                    <g transform="translate(0.000000, 0.465690)">
                        <polygon id="Fill-65" fill-opacity="0.39" fill="#FFFFFF" points="93.8887597 35.3364363 126.619976 35.3364363 126.619976 37.4942445 93.8887597 37.4942445"></polygon>
                        <mask id="mask-36" fill="white">
                            <use xlink:href="#path-35"></use>
                        </mask>
                        <g id="Clip-68"></g>
                        <polygon id="Fill-67" fill="#E6E6E6" mask="url(#mask-36)" points="89.9104501 51.6886443 100.694672 51.6886443 100.694672 49.4772923 89.9104501 49.4772923"></polygon>
                        <polygon id="Fill-69" fill="#FFD200" mask="url(#mask-36)" points="89.9103081 53.9695688 89.9103081 58.5100706 86.8048308 60.6946493 89.9103081 60.6946493 132.734514 60.6946493 132.734514 53.9695688"></polygon>
                    </g>
                    <g transform="translate(0.000000, 0.465690)">
                        <polygon id="Fill-70" fill-opacity="0.39" fill="#FFFFFF" points="93.8887597 56.304125 126.619976 56.304125 126.619976 58.4619332 93.8887597 58.4619332"></polygon>
                        <mask id="mask-38" fill="white">
                            <use xlink:href="#path-37"></use>
                        </mask>
                        <g id="Clip-73"></g>
                        <polygon id="Fill-72" fill="#E6E6E6" mask="url(#mask-38)" points="89.9104501 75.2478619 100.694672 75.2478619 100.694672 73.03651 89.9104501 73.03651"></polygon>
                        <polygon id="Fill-74" fill="#FFD200" mask="url(#mask-38)" points="89.9103081 77.53396 89.9103081 82.0744618 86.8048308 84.2542218 89.9103081 84.2542218 132.734514 84.2542218 132.734514 77.53396"></polygon>
                    </g>
                    <g transform="translate(0.000000, 0.465690)">
                        <polygon id="Fill-75" fill-opacity="0.39" fill="#FFFFFF" points="93.8887597 79.8633249 126.619976 79.8633249 126.619976 82.0205973 93.8887597 82.0205973"></polygon>
                        <mask id="mask-40" fill="white">
                            <use xlink:href="#path-39"></use>
                        </mask>
                        <g id="Clip-78"></g>
                        <polygon id="Fill-77" fill="#24285B" mask="url(#mask-40)" points="142.329636 51.3299024 171.510911 51.3299024 171.510911 19.342939 142.329636 19.342939"></polygon>
                        <path d="M148.990243,26.4696189 C150.057952,26.4696189 150.923191,27.3348576 150.923191,28.4025673 C150.923191,29.4702059 150.057952,30.3354446 148.990243,30.3354446 C147.923172,30.3354446 147.057862,29.4702059 147.057862,28.4025673 C147.057862,27.3348576 147.923172,26.4696189 148.990243,26.4696189" id="Fill-79" fill="#FC790D" mask="url(#mask-40)"></path>
                        <path d="M148.990243,33.9335801 C150.057952,33.9335801 150.923191,34.7988188 150.923191,35.8664575 C150.923191,36.9341671 150.057952,37.7994058 148.990243,37.7994058 C147.923172,37.7994058 147.057862,36.9341671 147.057862,35.8664575 C147.057862,34.7988188 147.923172,33.9335801 148.990243,33.9335801" id="Fill-80" fill="#FFFFFF" mask="url(#mask-40)"></path>
                        <path d="M148.990243,41.3975412 C150.057952,41.3975412 150.923191,42.2627799 150.923191,43.3304186 C150.923191,44.3981283 150.057952,45.263367 148.990243,45.263367 C147.923172,45.263367 147.057862,44.3981283 147.057862,43.3304186 C147.057862,42.2627799 147.923172,41.3975412 148.990243,41.3975412" id="Fill-81" fill="#FFD200" mask="url(#mask-40)"></path>
                    </g>
                    <polygon id="Fill-82" fill-opacity="0.2" fill="#FFFFFF" points="154.91243 29.9283737 166.692024 29.9283737 166.692024 27.1762312 154.91243 27.1762312"></polygon>
                    <polygon id="Fill-84" fill-opacity="0.2" fill="#FFFFFF" points="154.91243 37.7082832 166.692024 37.7082832 166.692024 34.9561408 154.91243 34.9561408"></polygon>
                    <g transform="translate(0.000000, 0.465690)">
                        <polygon id="Fill-86" fill-opacity="0.2" fill="#FFFFFF" points="154.91243 42.109689 166.692024 42.109689 166.692024 44.8618315 154.91243 44.8618315"></polygon>
                        <mask id="mask-42" fill="white">
                            <use xlink:href="#path-41"></use>
                        </mask>
                        <g id="Clip-89"></g>
                        <polygon id="Fill-88" fill="#24285B" mask="url(#mask-42)" points="10.0822663 81.1055322 46.9845334 81.1055322 46.9845334 22.7911693 10.0822663 22.7911693"></polygon>
                        <path d="M21.8566164,27.8991931 C25.2394996,27.8991931 27.9820053,30.6416704 27.9820053,34.0245607 C27.9820053,37.407451 25.2394996,40.1499283 21.8566164,40.1499283 C18.4737261,40.1499283 15.7312204,37.407451 15.7312204,34.0245607 C15.7312204,30.6416704 18.4737261,27.8991931 21.8566164,27.8991931" id="Fill-90" fill="#FC790D" mask="url(#mask-42)"></path>
                        <polygon id="Fill-91" fill="#FFFFFF" mask="url(#mask-42)" points="31.0445898 33.0715349 41.3356716 33.0715349 41.3356716 30.5496303 31.0445898 30.5496303"></polygon>
                    </g>
                    <polygon id="Fill-92" fill-opacity="0.21" fill="#FFFFFF" points="31.0445898 37.9599348 41.3356716 37.9599348 41.3356716 35.4380302 31.0445898 35.4380302"></polygon>
                    <g transform="translate(0.000000, 0.465690)">
                        <polygon id="Fill-94" fill-opacity="0.11" fill="#FFFFFF" points="10.0822663 45.9166605 46.9845334 45.9166605 46.9845334 81.1055322 10.0822663 81.1055322"></polygon>
                        <mask id="mask-44" fill="white">
                            <use xlink:href="#path-43"></use>
                        </mask>
                        <g id="Clip-97"></g>
                        <polygon id="Fill-96" fill="#FFFFFF" mask="url(#mask-44)" points="22.8684815 56.3308997 39.4241697 56.3308997 39.4241697 52.9790685 22.8684815 52.9790685"></polygon>
                    </g>
                    <g transform="translate(22.709677, 61.497947)">
                        <mask id="mask-46" fill="white">
                            <use xlink:href="#path-45"></use>
                        </mask>
                        <g id="Clip-99"></g>
                        <polygon id="Fill-98" fill-opacity="0.57" fill="#FFFFFF" mask="url(#mask-46)" points="0.158804513 4.03749671 16.7144926 4.03749671 16.7144926 0.685130375 0.158804513 0.685130375"></polygon>
                    </g>
                    <g transform="translate(0.000000, 0.465690)">
                        <polygon id="Fill-100" fill-opacity="0.23" fill="#FFFFFF" points="22.8684815 70.4557049 39.4241697 70.4557049 39.4241697 73.8075362 22.8684815 73.8075362"></polygon>
                        <mask id="mask-48" fill="white">
                            <use xlink:href="#path-47"></use>
                        </mask>
                        <g id="Clip-103"></g>
                        <path d="M18.4510236,52.9737139 C19.5069029,52.9737139 20.3625326,53.8293436 20.3625326,54.8852229 C20.3625326,55.9411023 19.5069029,56.7967319 18.4510236,56.7967319 C17.3951442,56.7967319 16.5395146,55.9411023 16.5395146,54.8852229 C16.5395146,53.8293436 17.3951442,52.9737139 18.4510236,52.9737139" id="Fill-102" fill="#FFD200" mask="url(#mask-48)"></path>
                    </g>
                    <g transform="translate(16.322580, 61.497947)">
                        <mask id="mask-50" fill="white">
                            <use xlink:href="#path-49"></use>
                        </mask>
                        <g id="Clip-105"></g>
                        <path d="M2.12844319,0.449594831 C3.18432253,0.449594831 4.03995219,1.30575675 4.03995219,2.36109673 C4.03995219,3.41644381 3.18432253,4.27260573 2.12844319,4.27260573 C1.07256385,4.27260573 0.21693419,3.41644381 0.21693419,2.36109673 C0.21693419,1.30575675 1.07256385,0.449594831 2.12844319,0.449594831" id="Fill-104" fill-opacity="0.36" fill="#FFD200" mask="url(#mask-50)"></path>
                    </g>
                    <g transform="translate(16.322580, 70.014076)">
                        <mask id="mask-52" fill="white">
                            <use xlink:href="#path-51"></use>
                        </mask>
                        <g id="Clip-107"></g>
                        <path d="M2.12844319,0.677188376 C3.18432253,0.677188376 4.03995219,1.53281804 4.03995219,2.58816512 C4.03995219,3.64404445 3.18432253,4.50020637 2.12844319,4.50020637 C1.07256385,4.50020637 0.21693419,3.64404445 0.21693419,2.58816512 C0.21693419,1.53281804 1.07256385,0.677188376 2.12844319,0.677188376" id="Fill-106" fill-opacity="0.36" fill="#FFD200" mask="url(#mask-52)"></path>
                    </g>
                </g>
                <g id="独家解决方案备份" transform="translate(24.461564, 150.986898)">
                    <rect id="Rectangle-3" fill="#FC790D" x="0" y="0" width="170.724849" height="33.4026878" rx="3.6022268"></rect>
                    <text id="独家功能" font-family="FZLTCHJW--GB1-0, FZLanTingHeiS-B-GB" font-size="18.011134" font-weight="normal" line-spacing="21.6133608" fill="#FFFFFF">
                        <tspan x="88.2357293" y="21.6301145">独家功能</tspan>
                    </text>
                    <g id="句客宝logo" transform="translate(7.586043, 6.804206)">
                        <path d="M8.5045812,-1.54758361e-13 C10.8112375,-1.54758361e-13 12.8057681,0.840190548 14.4873285,2.51821487 C16.1682133,4.19724924 17.0093313,6.18872473 17.0093313,8.49129462 C17.0093313,13.6068447 13.4313707,17.3731406 6.27595631,19.7940543 L6.27595631,19.7940543 L6.27595631,16.690349 C4.35962604,16.1429037 2.8344663,15.0988521 1.7008149,13.5571841 C0.566319003,12.0151794 0,10.3273913 0,8.49129462 C0,6.18872473 0.840104599,4.19724924 2.52200279,2.51821487 C4.20254978,0.840190548 6.19691149,-1.54758361e-13 8.5045812,-1.54758361e-13 Z M8.58225794,5.2306954 C6.81253216,5.18709504 5.34614935,6.43618618 5.30679584,8.02094952 C5.26761122,9.60554452 6.67031904,10.9251706 8.44021371,10.9691076 C8.51132027,10.9712961 8.58090674,10.9669192 8.65066211,10.9650674 C8.65066211,10.9654041 8.95214717,11.178019 9.2828518,11.3477068 C9.65155874,11.5364172 10.1045464,11.6631781 10.3678602,11.6406204 C10.7162993,11.610824 10.7711915,11.3874353 10.7014361,11.2731317 C10.6352277,11.164215 10.5195317,11.1593331 10.4077204,11.0893032 C10.2734456,11.0047959 10.2139931,10.9620373 10.158763,10.8308996 C10.0954258,10.6798976 10.1687281,10.5677824 10.3080699,10.4928706 L10.3218071,10.4797026 C10.326236,10.4754379 10.3316595,10.4702006 10.3379651,10.4640842 C11.1498635,9.96225936 11.6920299,9.1326743 11.7156758,8.17919018 C11.7550293,6.59476352 10.3523215,5.27463243 8.58225794,5.2306954 Z" id="形状结合" fill="#FFFFFF"></path>
                        <path d="M31.6453564,18.3197822 C32.0357836,18.3197822 32.4576967,18.23199 32.911096,18.0564057 C33.3644952,17.8808213 33.7864084,17.5986322 34.1768355,17.2098383 C34.5672626,16.8210443 34.8978662,16.3131039 35.1686463,15.6860169 C35.4394264,15.05893 35.5811137,14.2938839 35.5937081,13.3908786 L35.5937081,13.3908786 L35.6881663,4.79351628 C35.7133551,4.36709715 35.5748165,4.0033867 35.2725503,3.70238496 C34.9576897,3.38884147 34.5609654,3.23206973 34.0823773,3.23206973 L34.0823773,3.23206973 L26.3556987,3.23206973 C26.4438597,2.98123495 26.5257234,2.71472298 26.6012899,2.43253385 C26.6768565,2.15034471 26.7650174,1.8524784 26.8657728,1.53893492 C26.928745,1.35080883 26.9098533,1.17208904 26.8090979,1.00277556 C26.7083425,0.833462079 26.5635067,0.71745099 26.3745903,0.654742293 C26.1730796,0.592033596 25.9873118,0.610846205 25.8172871,0.71118012 C25.6472624,0.811514035 25.530764,0.955744037 25.4677919,1.14387013 C25.2536867,1.88383275 25.0490273,2.54854494 24.8538137,3.13800669 C24.6586002,3.72746844 24.4539408,4.26989867 24.2398356,4.76529737 C24.0257304,5.26069608 23.789585,5.72474043 23.5313993,6.15743044 C23.2732136,6.59012045 22.9740961,7.01967502 22.6340466,7.44609416 C22.5081024,7.60913677 22.4577247,7.78785656 22.4829136,7.98225352 C22.5081024,8.17665048 22.6025606,8.33655766 22.7662881,8.46197505 C22.9048267,8.56230896 23.0496626,8.61247592 23.2007957,8.61247592 C23.3015511,8.61247592 23.4054551,8.59052788 23.5125077,8.54663179 C23.6195603,8.5027357 23.7108698,8.4306207 23.7864364,8.33028679 C24.25243,7.74082504 24.6460057,7.16076959 24.9671635,6.59012045 C25.2883213,6.01947131 25.5811417,5.37670716 25.8456246,4.66182802 L25.8456246,4.66182802 L34.0823773,4.66182802 C34.1579439,4.66182802 34.2083216,4.68064063 34.2335104,4.71826585 C34.2461048,4.71826585 34.252402,4.73707846 34.252402,4.77470367 L34.252402,4.77470367 L34.1390522,13.372066 C34.1264578,14.0869452 34.0225538,14.670136 33.8273403,15.1216387 C33.6321267,15.5731413 33.4022785,15.9305808 33.1377956,16.1939574 C32.8733127,16.4573339 32.599384,16.6360537 32.3160095,16.7301167 C32.032635,16.8241798 31.8090839,16.8712113 31.6453564,16.8712113 L31.6453564,16.8712113 L31.1730656,16.8712113 C30.9589604,16.8586696 30.7826385,16.9213783 30.6440998,17.0593374 C30.5055611,17.1972965 30.4362918,17.36661 30.4362918,17.5672778 C30.4236974,17.7804874 30.4866695,17.9560717 30.6252082,18.0940309 C30.7637468,18.23199 30.9337715,18.3072405 31.1352823,18.3197822 L31.1352823,18.3197822 L31.6453564,18.3197822 Z M30.9270496,14.1810082 C31.267099,14.1810082 31.5567707,14.0618617 31.7960648,13.8235686 C32.0353588,13.5852756 32.1550058,13.2968156 32.1550058,12.9581886 L32.1550058,12.9581886 L32.1550058,8.23622374 C32.1550058,7.89759678 32.0353588,7.60913677 31.7960648,7.37084372 C31.5567707,7.13255068 31.267099,7.01340415 30.9270496,7.01340415 L30.9270496,7.01340415 L26.506407,7.01340415 C26.1663576,7.01340415 25.8766859,7.13255068 25.6373918,7.37084372 C25.3980978,7.60913677 25.2784508,7.89759678 25.2784508,8.23622374 L25.2784508,8.23622374 L25.2784508,12.9581886 C25.2784508,13.2968156 25.3980978,13.5852756 25.6373918,13.8235686 C25.8766859,14.0618617 26.1663576,14.1810082 26.506407,14.1810082 L26.506407,14.1810082 L30.9270496,14.1810082 Z M30.7003499,12.7324373 L26.7331066,12.7324373 L26.7331066,8.44316244 L30.7003499,8.44316244 L30.7003499,12.7324373 Z M53.0865124,6.37377544 C53.2880232,6.37377544 53.4611965,6.30166044 53.6060324,6.15743044 C53.7508682,6.01320044 53.8232862,5.84702239 53.8232862,5.6588963 L53.8232862,5.6588963 L53.8232862,3.60832191 C53.8232862,3.26969495 53.7004906,2.98123495 53.4548993,2.7429419 C53.209308,2.50464885 52.9164877,2.38550233 52.5764383,2.38550233 L52.5764383,2.38550233 L48.3069288,2.38550233 L47.6457216,1.04980708 C47.5449662,0.874222732 47.403279,0.751940773 47.2206598,0.682961206 C47.0380407,0.61398164 46.8585701,0.623387944 46.6822482,0.71118012 C46.5059263,0.798972295 46.3799821,0.936931428 46.3044155,1.12505752 C46.228849,1.31318361 46.2414434,1.49503883 46.3421988,1.67062318 L46.3421988,1.67062318 L46.7011399,2.36668972 L42.1293642,2.36668972 C41.7767204,2.36668972 41.4807514,2.48583624 41.2414574,2.72412929 C41.0021634,2.96242234 40.8825163,3.25088234 40.8825163,3.5895093 L40.8825163,3.5895093 L40.8825163,5.64008369 C40.8825163,5.85329326 40.9549343,6.02887761 41.0997701,6.16683674 C41.244606,6.30479588 41.4177793,6.37377544 41.6192901,6.37377544 C41.8208009,6.37377544 41.9908256,6.30166044 42.1293642,6.15743044 C42.2679029,6.01320044 42.3371722,5.84702239 42.3371722,5.6588963 L42.3371722,5.6588963 L42.3371722,3.83407322 L52.3686303,3.83407322 L52.3686303,5.6588963 C52.3686303,5.84702239 52.4378996,6.01320044 52.5764383,6.15743044 C52.7149769,6.30166044 52.8850017,6.37377544 53.0865124,6.37377544 Z M53.4832368,12.8076877 C53.6595587,12.8076877 53.8138404,12.7543853 53.9460818,12.6477806 C54.0783232,12.5411758 54.1570384,12.4000812 54.1822272,12.2244969 C54.2326049,12.023829 54.2011189,11.8419738 54.0877691,11.6789312 C53.9744193,11.5158886 53.816989,11.4155547 53.6154782,11.3779295 C52.5449522,11.1647199 51.6098163,10.9483749 50.8100704,10.7288944 C50.0103246,10.509414 49.3081855,10.2617146 48.7036531,9.98579638 C49.3585632,9.5468355 49.9410552,9.07024941 50.4511294,8.55603809 C50.9612035,8.04182678 51.4114541,7.47117764 51.8018813,6.84409067 C51.8774478,6.73121502 51.9183797,6.60266219 51.9246769,6.45843218 C51.9309741,6.31420218 51.9089339,6.18251392 51.8585562,6.06336739 C51.8081785,5.94422087 51.7294633,5.84075152 51.6224107,5.75295935 C51.5153581,5.66516717 51.3862653,5.62127108 51.2351322,5.62127108 L51.2351322,5.62127108 L45.7376665,5.62127108 C45.7880442,5.52093717 45.8321247,5.43314499 45.8699079,5.35789456 C45.9076912,5.28264412 45.9454745,5.19485194 45.9832577,5.09451803 C46.0714187,4.91893368 46.0808645,4.74021389 46.0115952,4.55835867 C45.9423259,4.37650345 45.813233,4.23540888 45.6243167,4.13507497 C45.4479947,4.04728279 45.2685242,4.03787649 45.0859051,4.10685605 C44.9032859,4.17583562 44.7615987,4.30438845 44.6608433,4.49251454 C44.3333883,5.1823102 43.9114751,5.83448065 43.3951038,6.44902588 C42.8787324,7.06357111 42.2679029,7.62167851 41.5626152,8.12334809 C41.3862933,8.23622374 41.2855379,8.38986005 41.260349,8.58425701 C41.2351602,8.77865397 41.2729435,8.95737375 41.3736988,9.12041637 C41.5374263,9.3210842 41.7389371,9.42141811 41.9782312,9.42141811 C42.1419587,9.42141811 42.2742001,9.37125115 42.3749555,9.27091724 C42.626844,9.09533289 42.8692866,8.91347767 43.1022834,8.72535158 C43.3352803,8.53722548 43.5588313,8.33655766 43.7729365,8.12334809 C44.1003915,8.46197505 44.4246979,8.78492484 44.7458557,9.09219745 C45.0670134,9.39947007 45.4102115,9.68479464 45.7754498,9.94817116 C44.4656297,10.5250912 42.9165157,11.0016773 41.1281076,11.3779295 C40.9265968,11.4155547 40.7691665,11.519024 40.6558167,11.6883375 C40.5424669,11.857651 40.5109809,12.0426416 40.5613585,12.2433095 C40.5991418,12.4063521 40.6841542,12.5411758 40.8163956,12.6477806 C40.9486371,12.7543853 41.1029187,12.8076877 41.2792407,12.8076877 C41.3422128,12.8076877 41.3925905,12.8014169 41.4303737,12.7888751 C42.5764663,12.5505821 43.6281006,12.2715284 44.5852768,11.951714 C45.5424529,11.6318997 46.4240625,11.2713247 47.2301056,10.869989 C47.9731766,11.2713247 48.832746,11.6256288 49.8088138,11.9329014 C50.7848816,12.240174 51.9656088,12.5254986 53.3509953,12.7888751 C53.3761842,12.7888751 53.3982244,12.7920106 53.417116,12.7982814 C53.4360077,12.8045523 53.4580479,12.8076877 53.4832368,12.8076877 Z M47.211214,9.1956668 C46.7704092,8.9072068 46.348496,8.58739244 45.9454745,8.23622374 C45.5424529,7.88505504 45.1394314,7.49626112 44.7364098,7.06984198 L44.7364098,7.06984198 L49.8182596,7.06984198 C49.1129719,7.89759678 48.2439567,8.60620505 47.211214,9.1956668 Z M51.0084326,18.0752183 C51.3106988,18.0752183 51.572033,17.9654781 51.7924354,17.7459976 C52.0128378,17.5265172 52.123039,17.2662761 52.123039,16.9652743 L52.123039,16.9652743 L52.123039,13.6918804 C52.123039,13.3783369 52.0159864,13.1118249 51.8018813,12.8923445 C51.5877761,12.672864 51.3232932,12.5631238 51.0084326,12.5631238 L51.0084326,12.5631238 L43.640695,12.5631238 C43.3384289,12.5631238 43.0770946,12.672864 42.8566922,12.8923445 C42.6362898,13.1118249 42.5260886,13.3846078 42.5260886,13.710693 L42.5260886,13.710693 L42.5260886,16.9652743 C42.5260886,17.2662761 42.6331412,17.5265172 42.8472464,17.7459976 C43.0613516,17.9654781 43.3258344,18.0752183 43.640695,18.0752183 L43.640695,18.0752183 L51.0084326,18.0752183 Z M50.6872748,16.64546 L43.9807444,16.64546 L43.9807444,13.9928821 L50.6872748,13.9928821 L50.6872748,16.64546 Z M59.1314108,6.67477719 C59.3329216,6.67477719 59.5029463,6.60266219 59.6414849,6.45843218 C59.7800236,6.31420218 59.8492929,6.14175327 59.8492929,5.94108544 L59.8492929,5.94108544 L59.8492929,4.39845149 L69.880751,4.39845149 L69.880751,5.94108544 C69.880751,6.12921153 69.9500203,6.29538957 70.088559,6.43961958 C70.2270976,6.58384958 70.3971224,6.65596458 70.5986331,6.65596458 C70.8001439,6.65596458 70.9733172,6.58384958 71.1181531,6.43961958 C71.2629889,6.29538957 71.3354069,6.12294066 71.3354069,5.92227283 L71.3354069,5.92227283 L71.3354069,4.05982453 C71.3354069,3.74628105 71.2157599,3.48290452 70.9764658,3.26969495 C70.7371718,3.05648538 70.4412028,2.9498806 70.088559,2.9498806 L70.088559,2.9498806 L66.1779906,2.9498806 C66.1653962,2.86208842 66.1339101,2.77429625 66.0835324,2.68650407 L66.0835324,2.68650407 L64.9878176,1.01218186 C64.8870622,0.836597514 64.7390777,0.729992729 64.5438642,0.692367511 C64.3486506,0.654742293 64.1628829,0.686096641 63.9865609,0.786430556 C63.810239,0.89930621 63.7031864,1.05294252 63.6654032,1.24733948 C63.6276199,1.44173644 63.6654032,1.62045622 63.778753,1.78349884 L63.778753,1.78349884 L64.5155267,2.96869321 L59.6414849,2.96869321 C59.2888411,2.96869321 58.9928721,3.07843343 58.7535781,3.29791386 C58.5142841,3.5173943 58.394637,3.7776354 58.394637,4.07863714 L58.394637,4.07863714 L58.394637,5.94108544 C58.394637,6.14175327 58.467055,6.31420218 58.6118908,6.45843218 C58.7567267,6.60266219 58.9299,6.67477719 59.1314108,6.67477719 Z M70.7308746,18.0564057 C70.9449798,18.0564057 71.1213017,17.9842907 71.2598403,17.8400607 C71.398379,17.6958307 71.4676483,17.5296526 71.4676483,17.3415265 C71.4676483,17.1408587 71.3952304,16.9684098 71.2503945,16.8241798 C71.1055587,16.6799498 70.9323853,16.6078348 70.7308746,16.6078348 L70.7308746,16.6078348 L65.5167834,16.6078348 L65.5167834,12.5443112 L69.6162681,12.5443112 C69.8303733,12.5443112 70.0066952,12.4753316 70.1452339,12.3373725 C70.2837725,12.1994134 70.3530419,12.0300999 70.3530419,11.8294321 C70.3530419,11.6287642 70.2806239,11.4563153 70.1357881,11.3120853 C69.9909522,11.1678553 69.8177789,11.0957403 69.6162681,11.0957403 L69.6162681,11.0957403 L65.5167834,11.0957403 L65.5167834,8.29266157 L70.2208004,8.29266157 C70.4349056,8.29266157 70.6112275,8.223682 70.7497662,8.08572287 C70.8883049,7.94776373 70.9575742,7.77845025 70.9575742,7.57778242 C70.9575742,7.37711459 70.8851563,7.20466568 70.7403204,7.06043567 C70.5954845,6.91620567 70.4223112,6.84409067 70.2208004,6.84409067 L70.2208004,6.84409067 L60.3026922,6.84409067 C60.088587,6.84409067 59.9154136,6.91620567 59.7831722,7.06043567 C59.6509308,7.20466568 59.58481,7.37711459 59.58481,7.57778242 C59.58481,7.77845025 59.6540794,7.94776373 59.792618,8.08572287 C59.9311567,8.223682 60.1011814,8.29266157 60.3026922,8.29266157 L60.3026922,8.29266157 L64.0432358,8.29266157 L64.0432358,11.0957403 L60.3026922,11.0957403 C60.088587,11.0957403 59.9154136,11.1678553 59.7831722,11.3120853 C59.6509308,11.4563153 59.58481,11.6287642 59.58481,11.8294321 C59.58481,12.0300999 59.6540794,12.1994134 59.792618,12.3373725 C59.9311567,12.4753316 60.1011814,12.5443112 60.3026922,12.5443112 L60.3026922,12.5443112 L64.0432358,12.5443112 L64.0432358,16.6078348 L58.9236028,16.6078348 C58.722092,16.6078348 58.5520673,16.6799498 58.4135287,16.8241798 C58.27499,16.9684098 58.2057207,17.1408587 58.2057207,17.3415265 C58.2057207,17.5296526 58.2781386,17.6958307 58.4229745,17.8400607 C58.5678104,17.9842907 58.7346865,18.0564057 58.9236028,18.0564057 L58.9236028,18.0564057 L70.7308746,18.0564057 Z" id="句客宝" stroke="#FFFFFF" stroke-width="0.519999981" fill="#FFFFFF" fill-rule="nonzero"></path>
                        <ellipse id="椭圆形" stroke="#FFFFFF" stroke-width="0.975194876" fill="#FC790D" fill-rule="nonzero" cx="68.4416639" cy="14.5723829" rx="1.4310552" ry="1.4660758"></ellipse>
                    </g>
                </g>
            </g>
        </g>
    </g>
</svg>