<?xml version="1.0" encoding="UTF-8"?>
<svg width="277px" height="281px" viewBox="0 0 277 281" version="1.1" xmlns="http://www.w3.org/2000/svg" xmlns:xlink="http://www.w3.org/1999/xlink">
    <title>6-2</title>
    <defs>
        <polygon id="path-1" points="0.289175983 0.50957997 11.4678533 0.50957997 11.4678533 18.1763029 0.289175983 18.1763029"></polygon>
        <polygon id="path-3" points="0.250631985 0.243538896 244.680003 0.243538896 244.680003 17.9949055 0.250631985 17.9949055"></polygon>
        <polygon id="path-5" points="0.284957983 0.422915975 126.20875 0.422915975 126.20875 57.6991766 0.284957983 57.6991766"></polygon>
        <polygon id="path-7" points="0.152514422 0.459575973 67.560356 0.459575973 67.560356 113.600177 0.152514422 113.600177"></polygon>
        <polygon id="path-9" points="0 187.194972 250.679985 187.194972 250.679985 0.0187429093 0 0.0187429093"></polygon>
        <polygon id="path-11" points="0.16775999 0.0984479941 63.5363962 0.0984479941 63.5363962 57.5790897 0.16775999 57.5790897"></polygon>
        <polygon id="path-13" points="0 187.194972 250.679985 187.194972 250.679985 0.0187429093 0 0.0187429093"></polygon>
        <polygon id="path-15" points="0.265847984 0.42485729 13.5449332 0.42485729 13.5449332 11.3167793 0.265847984 11.3167793"></polygon>
        <polygon id="path-17" points="0.22171806 0.424019975 8.90395147 0.424019975 8.90395147 18.2510389 0.22171806 18.2510389"></polygon>
        <polygon id="path-19" points="0 187.194972 250.679985 187.194972 250.679985 0.0187429093 0 0.0187429093"></polygon>
        <polygon id="path-21" points="0.0739799956 0.371039978 3.67601978 0.371039978 3.67601978 5.22473969 0.0739799956 5.22473969"></polygon>
        <polygon id="path-23" points="0 187.194972 250.679985 187.194972 250.679985 0.0187429093 0 0.0187429093"></polygon>
        <polygon id="path-25" points="0.555959967 0.0482459971 36.7678178 0.0482459971 36.7678178 45.9607773 0.555959967 45.9607773"></polygon>
        <polygon id="path-27" points="0 187.194972 250.679985 187.194972 250.679985 0.0187429093 0 0.0187429093"></polygon>
        <polygon id="path-29" points="0.555599967 0.520865969 10.8049734 0.520865969 10.8049734 14.1641392 0.555599967 14.1641392"></polygon>
        <polygon id="path-31" points="0 187.194972 250.679985 187.194972 250.679985 0.0187429093 0 0.0187429093"></polygon>
        <polygon id="path-33" points="0.142319992 0.118817993 32.2543262 0.118817993 32.2543262 55.7695167 0.142319992 55.7695167"></polygon>
        <polyline id="path-35" points="0 187.194972 250.679985 187.194972 250.679985 0.0187429093 0 0.0187429093"></polyline>
        <polygon id="path-37" points="0 187.194972 250.679985 187.194972 250.679985 0.0187429093 0 0.0187429093"></polygon>
    </defs>
    <g id="最新版备份" stroke="none" stroke-width="1" fill="none" fill-rule="evenodd">
        <g id="亮点6" transform="translate(-174.000000, -345.000000)">
            <g id="编组-4" transform="translate(130.000000, 241.000000)">
                <g id="6-2" transform="translate(44.000000, 104.000000)">
                    <g id="编组" transform="translate(14.000000, 0.000000)">
                        <g transform="translate(16.199999, 13.781279)">
                            <polygon id="Fill-1" fill="#E6E6E6" points="0.292205983 126.800248 191.466715 126.800248 191.466715 0.0980159942 0.292205983 0.0980159942"></polygon>
                            <line x1="98.1768541" y1="114.574421" x2="98.1768541" y2="139.759188" id="Stroke-3" stroke="#C9C9C9" stroke-width="1.79999989"></line>
                            <path d="M98.1768541,139.759186 C100.942599,139.759186 103.183281,142.00063 103.183281,144.765612 C103.183281,147.530594 100.942599,149.772038 98.1768541,149.772038 C95.411872,149.772038 93.1704278,147.530594 93.1704278,144.765612 C93.1704278,142.00063 95.411872,139.759186 98.1768541,139.759186 Z" id="Stroke-4" stroke="#C9C9C9" stroke-width="1.79999989"></path>
                        </g>
                        <g transform="translate(29.399998, 117.581273)">
                            <mask id="mask-2" fill="white">
                                <use xlink:href="#path-1"></use>
                            </mask>
                            <g id="Clip-6"></g>
                            <path d="M3.14161781,0.50957997 C3.14161781,0.50957997 7.04906958,6.05783964 10.1322954,6.85157959 L11.4678533,18.1763029 L4.48480173,18.1763029 L3.14161781,10.2095274 C3.14161781,10.2095274 -3.2766838,5.56181967 3.14161781,0.50957997" id="Fill-5" fill-opacity="0.08" fill="#000000" mask="url(#mask-2)"></path>
                        </g>
                        <g transform="translate(6.000000, 169.781270)">
                            <mask id="mask-4" fill="white">
                                <use xlink:href="#path-3"></use>
                            </mask>
                            <g id="Clip-8"></g>
                            <path d="M122.465393,0.243461985 C189.962089,0.243461985 244.680225,4.21731575 244.680225,9.11918346 C244.680225,14.0210548 189.962089,17.9949055 122.465393,17.9949055 C54.9679767,17.9949055 0.250631985,14.0210548 0.250631985,9.11918346 C0.250631985,4.21731575 54.9679767,0.243461985 122.465393,0.243461985" id="Fill-7" fill-opacity="0.45" fill="#E6E6E6" mask="url(#mask-4)"></path>
                        </g>
                        <g transform="translate(33.599998, 46.181277)">
                            <mask id="mask-6" fill="white">
                                <use xlink:href="#path-5"></use>
                            </mask>
                            <g id="Clip-10"></g>
                            <polygon id="Fill-9" fill-opacity="0.36" fill="#FFFFFF" mask="url(#mask-6)" points="0.284957983 57.6991766 126.20875 57.6991766 126.20875 0.422915975 0.284957983 0.422915975"></polygon>
                        </g>
                        <g transform="translate(0.000000, 0.581280)">
                            <g transform="translate(140.999992, 26.399998)">
                                <mask id="mask-8" fill="white">
                                    <use xlink:href="#path-7"></use>
                                </mask>
                                <g id="Clip-12"></g>
                                <path d="M62.8057763,0.459539973 C62.8057763,0.459539973 54.2963968,1.80269989 53.3424568,11.4034793 C52.3884569,21.0041987 58.0741165,25.5755985 58.0741165,25.5755985 C58.0741165,25.5755985 32.1643181,27.4835384 34.8354579,39.1219777 C37.5065378,50.760357 39.9868776,69.2673559 28.5392383,67.741016 C17.091659,66.2146761 3.73607978,50.249037 3.73607978,50.249037 C3.73607978,50.249037 -3.81935977,55.4462367 3.01103982,63.1237762 C8.78063948,69.6038959 20.8693788,85.5840549 33.538078,89.6975347 C37.4287178,90.9651546 39.7808376,94.9161543 39.0405577,98.9395741 L36.3465578,113.600177 L59.1654565,113.600177 L67.560356,52.3859369 L67.560356,10.0678794 L62.8057763,0.459539973 Z" id="Fill-11" fill-opacity="0.08" fill="#000000" mask="url(#mask-8)"></path>
                            </g>
                            <mask id="mask-10" fill="white">
                                <use xlink:href="#path-9"></use>
                            </mask>
                            <g id="Clip-14"></g>
                            <polygon id="Fill-13" fill="#A5A5A5" mask="url(#mask-10)" points="44.1649174 94.1410744 54.7272567 94.1410744 54.7272567 79.4499613 44.1649174 79.4499613"></polygon>
                            <polygon id="Fill-15" fill="#C9C9C9" mask="url(#mask-10)" points="60.3136764 94.1410744 70.8760158 94.1410744 70.8760158 69.3378979 60.3136764 69.3378979"></polygon>
                            <polygon id="Fill-16" fill="#A5A5A5" mask="url(#mask-10)" points="76.3403354 94.1410744 86.9026748 94.1410744 86.9026748 78.2441473 76.3403354 78.2441473"></polygon>
                            <polygon id="Fill-17" fill="#A5A5A5" mask="url(#mask-10)" points="138.729892 94.1410744 149.292231 94.1410744 149.292231 57.1271006 138.729892 57.1271006"></polygon>
                            <polygon id="Fill-18" fill="#C9C9C9" mask="url(#mask-10)" points="124.038773 94.1410744 134.601112 94.1410744 134.601112 71.6274197 124.038773 71.6274197"></polygon>
                            <polygon id="Fill-19" fill="#A5A5A5" mask="url(#mask-10)" points="108.821094 94.1410744 119.383433 94.1410744 119.383433 63.4232962 108.821094 63.4232962"></polygon>
                            <polygon id="Fill-20" fill="#C9C9C9" mask="url(#mask-10)" points="92.3670545 94.1410744 102.929394 94.1410744 102.929394 58.0810705 92.3670545 58.0810705"></polygon>
                            <path d="M204.660648,49.3273171 C204.660648,49.3273171 188.542369,48.1214971 189.007909,61.2709763 C189.473449,74.4205156 186.771829,99.0176341 174.05657,94.1867344 C161.34281,89.3558347 150.139431,78.2440153 150.139431,78.2440153 L146.567751,81.3424752 C146.567751,81.3424752 174.91973,122.034953 197.631768,100.482894 C220.343867,78.9308353 204.660648,49.3273171 204.660648,49.3273171" id="Fill-21" fill="#FC790D" mask="url(#mask-10)"></path>
                        </g>
                        <g transform="translate(0.000000, 0.581280)">
                            <g transform="translate(146.399991, 49.199997)">
                                <mask id="mask-12" fill="white">
                                    <use xlink:href="#path-11"></use>
                                </mask>
                                <g id="Clip-23"></g>
                                <path d="M58.2606565,0.127319992 C58.2606565,0.127319992 42.1423775,-1.07849994 42.6079175,12.0709793 C43.0734574,25.2205185 40.3718376,49.817637 27.6565784,44.9867373 C14.9428191,40.1558376 3.73943978,29.0440183 3.73943978,29.0440183 L0.16775999,32.1424781 C0.16775999,32.1424781 28.5197383,72.8349557 51.2317769,51.2828969 C73.9438756,29.7308382 58.2606565,0.127319992 58.2606565,0.127319992" id="Fill-22" fill-opacity="0.46" fill="#FFFFFF" mask="url(#mask-12)"></path>
                            </g>
                            <mask id="mask-14" fill="white">
                                <use xlink:href="#path-13"></use>
                            </mask>
                            <g id="Clip-25"></g>
                            <path d="M203.439108,32.873578 C203.439108,32.873578 194.693088,45.7025373 205.873608,44.8249173 C217.054907,43.9472374 211.834007,32.1103781 211.834007,32.1103781 L203.439108,32.873578 Z" id="Fill-24" fill="#FFD200" mask="url(#mask-14)"></path>
                            <path d="M203.439108,32.873578 C203.439108,32.873578 194.693088,45.7025373 205.873608,44.8249173 C217.054907,43.9472374 211.834007,32.1103781 211.834007,32.1103781 L203.439108,32.873578 Z" id="Fill-26" fill="#24285B" mask="url(#mask-14)"></path>
                            <polygon id="Fill-27" fill="#C9C9C9" mask="url(#mask-14)" points="16.492205 32.2171181 207.666714 32.2171181 207.666714 13.2980152 16.492205 13.2980152"></polygon>
                            <polygon id="Fill-28" fill="#C9C9C9" mask="url(#mask-14)" points="29.0845843 147.287805 62.6642663 147.287805 62.6642663 135.215146 29.0845843 135.215146"></polygon>
                            <polygon id="Fill-29" fill="#A5A5A5" mask="url(#mask-14)" points="29.0846623 147.288339 26.0319644 178.227439 31.3741841 178.227439 36.8995718 147.288339"></polygon>
                            <polygon id="Fill-30" fill="#A5A5A5" mask="url(#mask-14)" points="62.5420763 147.288339 65.5947561 178.227439 60.2525364 178.227439 54.7271787 147.288339"></polygon>
                        </g>
                        <g transform="translate(31.199998, 114.581273)">
                            <mask id="mask-16" fill="white">
                                <use xlink:href="#path-15"></use>
                            </mask>
                            <g id="Clip-32"></g>
                            <path d="M10.4084394,10.6680594 C10.4084394,10.6680594 2.07457188,8.3785795 0.265847984,0.632339962 C0.265847984,0.632339962 13.1711272,-1.97771988 13.5450832,11.3167793 L10.4084394,10.6680594 Z" id="Fill-31" fill-opacity="0.58" fill="#FC790D" mask="url(#mask-16)"></path>
                        </g>
                        <g transform="translate(0.000000, 0.581280)">
                            <g transform="translate(39.599998, 105.599994)">
                                <mask id="mask-18" fill="white">
                                    <use xlink:href="#path-17"></use>
                                </mask>
                                <g id="Clip-34"></g>
                                <path d="M3.03101382,18.2288989 C3.03101382,18.2288989 -2.79200983,9.02423946 2.32889386,0.424019975 C2.32889386,0.424019975 12.1509533,6.6591596 7.78559354,18.2510389 L3.03101382,18.2288989 Z" id="Fill-33" fill-opacity="0.73" fill="#FC790D" mask="url(#mask-18)"></path>
                            </g>
                            <mask id="mask-20" fill="white">
                                <use xlink:href="#path-19"></use>
                            </mask>
                            <g id="Clip-36"></g>
                            <path d="M44.1267574,123.836333 C44.1267574,123.836333 47.1794552,114.121133 56.5054526,112.274273 C56.5054526,112.274273 58.2454885,118.585733 50.484003,123.866873 L44.1267574,123.836333 Z" id="Fill-35" fill="#FC790D" mask="url(#mask-20)"></path>
                            <polygon id="Fill-37" fill="#24285B" mask="url(#mask-20)" points="38.0899717 123.614993 39.7765836 135.176296 50.415243 135.215218 51.9797489 123.676013"></polygon>
                            <path d="M204.401268,32.1790181 C204.401268,32.1790181 203.508408,36.4909178 203.897628,39.4673376 C204.058608,40.6792176 205.172088,41.5301975 206.384028,41.3691575 L206.392428,41.3676575 C208.306488,41.2249175 209.957987,39.9733176 210.613547,38.1699577 L212.368067,34.5067179 C212.934347,32.929198 212.441327,31.1662781 211.140107,30.1108182 C208.888788,28.0502383 204.821028,29.5231782 204.401268,32.1790181" id="Fill-38" fill="#F4A28C" mask="url(#mask-20)"></path>
                            <polygon id="Fill-39" fill="#F4A28C" mask="url(#mask-20)" points="212.055407 35.1705579 212.627807 49.579317 204.661008 49.3274371 207.445848 38.9482777"></polygon>
                            <path d="M208.606188,36.4681178 C208.606188,36.4681178 208.835088,34.7891379 210.086747,35.0714979 C211.338347,35.3539179 211.010147,37.7807977 209.270148,37.8036577 L208.606188,36.4681178 Z" id="Fill-40" fill="#F4A28C" mask="url(#mask-20)"></path>
                            <path d="M203.981688,34.9186779 L202.562208,36.4450178 C202.298148,36.7349978 202.319508,37.1837378 202.609488,37.4477978 C202.683528,37.5149978 202.771308,37.5661178 202.866708,37.5973778 L204.500688,38.1086977 L203.981688,34.9186779 Z" id="Fill-41" fill="#F4A28C" mask="url(#mask-20)"></path>
                        </g>
                        <g transform="translate(0.000000, 0.581280)">
                            <g transform="translate(205.799988, 39.599998)">
                                <mask id="mask-22" fill="white">
                                    <use xlink:href="#path-21"></use>
                                </mask>
                                <g id="Clip-43"></g>
                                <path d="M0.936239944,1.59209991 C1.94975988,1.46237991 2.90219983,1.03727994 3.67601978,0.371039978 C3.67601978,0.371039978 3.25631981,2.98109982 0.0738599956,5.22479969 L0.936239944,1.59209991 Z" id="Fill-42" fill-opacity="0.31" fill="#CE8172" mask="url(#mask-22)"></path>
                            </g>
                            <mask id="mask-24" fill="white">
                                <use xlink:href="#path-23"></use>
                            </mask>
                            <g id="Clip-45"></g>
                            <path d="M204.660648,49.3273171 C204.660648,49.3273171 169.55459,68.4066559 185.947609,86.3641749 L193.960908,107.160714 L219.144887,107.160714 C219.144887,107.160714 242.360686,63.7818562 212.627387,49.579137 L204.660648,49.3273171 Z" id="Fill-44" fill="#FC790D" mask="url(#mask-24)"></path>
                        </g>
                        <g transform="translate(0.000000, 0.581280)">
                            <g transform="translate(190.199989, 61.199996)">
                                <mask id="mask-26" fill="white">
                                    <use xlink:href="#path-25"></use>
                                </mask>
                                <g id="Clip-47"></g>
                                <path d="M16.925279,0.0481799971 C16.925279,0.0481799971 6.93533959,8.3285995 16.413959,19.2038389 C25.8926385,30.0790782 10.0109394,28.3619383 6.02795964,20.5394388 L0.555959967,37.6345178 L3.76055978,45.9607773 L28.3729183,44.5793973 L34.096738,35.3526579 L36.7678178,19.2038389 L16.925279,0.0481799971 Z" id="Fill-46" fill-opacity="0.08" fill="#000000" mask="url(#mask-26)"></path>
                            </g>
                            <mask id="mask-28" fill="white">
                                <use xlink:href="#path-27"></use>
                            </mask>
                            <g id="Clip-49"></g>
                            <polygon id="Fill-48" fill="#FFD200" mask="url(#mask-28)" points="186.020209 73.9583356 202.382688 76.1387355 199.208628 99.960414 182.846209 97.7800742"></polygon>
                        </g>
                        <g transform="translate(0.000000, 0.581280)">
                            <g transform="translate(190.199989, 85.799995)">
                                <mask id="mask-30" fill="white">
                                    <use xlink:href="#path-29"></use>
                                </mask>
                                <g id="Clip-51"></g>
                                <path d="M10.8050394,0.640799962 C10.8050394,0.640799962 5.0278197,-0.488699971 4.22645975,4.18193975 C3.82577977,6.83015959 2.88557983,9.36845944 1.46375991,11.6381393 L0.555599967,13.0347592 L9.02681946,14.1642592 L10.8050394,0.640799962 Z" id="Fill-50" fill-opacity="0.08" fill="#000000" mask="url(#mask-30)"></path>
                            </g>
                            <mask id="mask-32" fill="white">
                                <use xlink:href="#path-31"></use>
                            </mask>
                            <g id="Clip-53"></g>
                            <path d="M204.644988,92.6527145 C204.644988,92.6527145 200.768028,88.0736948 198.219048,89.9892546 C195.670068,91.9048145 202.378368,96.5525342 202.378368,96.5525342 L204.644988,92.6527145 Z" id="Fill-52" fill="#F4A28C" mask="url(#mask-32)"></path>
                            <path d="M149.826051,78.6256753 C149.826051,78.6256753 146.200971,73.2834556 143.660391,75.1913955 C141.119032,77.0993354 146.582571,81.3425952 146.582571,81.3425952 L149.826051,78.6256753 Z" id="Fill-54" fill="#F4A28C" mask="url(#mask-32)"></path>
                            <polygon id="Fill-55" fill="#F4A28C" mask="url(#mask-32)" points="210.895667 134.009482 225.121247 174.419582 227.998426 174.205892 222.136487 133.192882"></polygon>
                            <path d="M224.969027,173.80118 C224.969027,173.80118 224.083727,176.243341 222.098687,176.800453 C220.115207,177.357571 220.741007,180.211849 223.785347,178.883923 C224.734727,178.474861 225.649787,177.987193 226.517506,177.426259 C227.330266,176.937829 228.257506,176.675293 229.204606,176.663083 C229.567126,176.618059 229.868566,176.360107 229.967806,176.006756 C230.509666,174.663566 227.518006,172.954058 227.518006,172.954058 L224.969027,173.80118 Z" id="Fill-56" fill="#FC790D" mask="url(#mask-32)"></path>
                            <polygon id="Fill-57" fill="#F4A28C" mask="url(#mask-32)" points="195.029268 131.620894 192.098689 174.358682 194.823228 175.304252 205.675548 135.322294"></polygon>
                            <path d="M192.197929,173.73257 C192.197929,173.73257 190.419709,175.624478 188.382049,175.3505 C186.344329,175.07576 185.787229,177.945295 189.145189,177.930031 C190.168609,177.927739 191.189749,177.840739 192.197929,177.670549 C193.137348,177.535471 194.096688,177.654523 194.975868,178.013977 C195.329988,178.127695 195.716148,178.009399 195.945108,177.716341 C196.982988,176.701321 194.899548,173.969156 194.899548,173.969156 L192.197929,173.73257 Z" id="Fill-58" fill="#FC790D" mask="url(#mask-32)"></path>
                            <polygon id="Fill-59" fill="#24285B" mask="url(#mask-32)" points="193.960548 107.160534 190.587289 142.007092 229.509226 142.007092 221.625587 105.421254"></polygon>
                            <path d="M207.285588,63.3163762 C205.759188,55.6846167 214.917287,50.464497 220.831907,55.5243567 C223.931147,58.1801965 226.464887,61.7366363 229.158166,69.1928359 C237.461506,92.1415145 235.454326,128.621236 201.142008,96.5526542 L204.241248,92.2101545 C204.241248,92.2101545 220.480847,105.443634 221.794247,95.1407943 C222.748247,87.9364148 209.468268,74.3824156 207.285588,63.3163762" id="Fill-60" fill="#FC790D" mask="url(#mask-32)"></path>
                        </g>
                        <g transform="translate(0.000000, 0.581280)">
                            <g transform="translate(200.999988, 53.399997)">
                                <mask id="mask-34" fill="white">
                                    <use xlink:href="#path-33"></use>
                                </mask>
                                <g id="Clip-62"></g>
                                <path d="M6.28559963,9.91637941 C4.75919972,2.28461986 13.9172992,-2.93549983 19.8319188,2.12435987 C22.9311586,4.78019972 25.4648985,8.3366395 28.1581783,15.7928391 C36.4615178,38.7415177 34.4543379,75.2212395 0.142019992,43.1526574 L3.24125981,38.8101577 C3.24125981,38.8101577 19.4808588,52.0436369 20.7942588,41.7407975 C21.7482587,34.5364179 8.4682795,20.9824187 6.28559963,9.91637941" id="Fill-61" fill-opacity="0.46" fill="#FFFFFF" mask="url(#mask-34)"></path>
                            </g>
                            <mask id="mask-36" fill="white">
                                <use xlink:href="#path-35"></use>
                            </mask>
                            <g id="Clip-64"></g>
                            <path d="M203.805768,26.8595384 C202.573248,27.7990183 201.834528,29.2482583 201.798648,30.7975182 C201.798648,32.1330581 202.371048,33.537298 204.675828,33.789178 C209.254848,34.300498 210.842267,34.300498 210.842267,34.300498 C210.842267,34.300498 205.729008,46.8928772 214.757327,45.9999573 C223.785707,45.1070373 220.351427,37.4752778 216.413447,30.6067182 C212.857067,24.3944985 208.171128,23.3717986 203.805768,26.8595384" id="Fill-63" fill="#24285B" mask="url(#mask-36)"></path>
                        </g>
                        <polygon id="Fill-65" fill-opacity="0.08" fill="#000000" points="42.4706675 57.5023166 51.9874529 57.5023166 51.9874529 53.4956494 42.4706675 53.4956494"></polygon>
                        <polygon id="Fill-67" fill-opacity="0.08" fill="#000000" points="42.4706675 63.8290762 51.9874529 63.8290762 51.9874529 59.822409 42.4706675 59.822409"></polygon>
                        <g transform="translate(0.000000, 0.581280)">
                            <polygon id="Fill-69" fill-opacity="0.4" fill="#C9C9C9" points="82.2167951 110.419601 159.80801 110.419601 159.80801 128.865532 82.2167951 128.865532"></polygon>
                            <mask id="mask-38" fill="white">
                                <use xlink:href="#path-37"></use>
                            </mask>
                            <g id="Clip-72"></g>
                            <polygon id="Fill-71" fill="#FFD200" mask="url(#mask-38)" points="0 41.3904575 48.1715851 41.3904575 48.1715851 0.0187559989 0 0.0187559989"></polygon>
                            <path d="M24.8413365,8.72663948 C25.4518725,8.72663948 25.6045125,8.94035947 25.6045125,9.55085943 L25.6045125,10.8482994 C27.8177143,11.0566193 29.7309942,12.4807193 30.5651442,14.5420191 C30.8856762,15.1831191 30.7559382,15.5265591 30.0385542,15.8470791 L28.7335243,16.427099 C28.1229883,16.724699 27.8329783,16.587359 27.4819184,15.953939 C26.9255624,14.5969791 25.5449805,13.7651392 24.0857926,13.9085992 C21.7962707,13.9085992 20.7888768,14.5725591 20.7888768,16.083659 C20.8957248,17.038379 21.6627107,17.7839989 22.6204967,17.8618789 C23.2524046,18.0007189 23.8919446,18.0999589 24.5360625,18.1594789 C25.7411205,18.2152189 26.9316704,18.4464589 28.0695643,18.8463589 C28.6274443,19.0318189 29.1456403,19.3225788 29.5959102,19.7011188 C30.5498802,20.6977788 31.0596821,22.0387187 31.0077882,23.4177586 C31.0077882,26.3101784 29.0693203,28.2791983 25.6655625,28.7599783 L25.6655625,30.1413582 C25.6655625,30.7518582 25.4747685,30.9655782 24.9023865,30.9655782 L23.3836726,30.9655782 C22.7731306,30.9655782 22.5594407,30.7518582 22.5594407,30.1413582 L22.5594407,28.8133783 C20.1127068,28.6554583 18.0040549,27.0374984 17.217221,24.7151385 C17.003531,24.1351186 17.217221,23.7382786 17.8277569,23.4940786 L19.1251549,23.0209186 C19.7891208,22.7767186 20.0867568,22.9369786 20.3767608,23.6009386 C20.9644068,25.1272785 22.1549627,25.8370185 23.9636866,25.8370185 C26.4058424,25.8370185 27.6269204,25.0738785 27.6269204,23.4940786 C27.6711884,22.7484586 27.2025944,22.0684787 26.4897944,21.8456387 C25.6419045,21.5495387 24.7543305,21.3800987 23.8568386,21.3419387 C22.6357607,21.2755187 21.4337627,21.0175787 20.2928148,20.5787388 C19.7364588,20.3818788 19.2190249,20.0872788 18.7664629,19.7087388 C17.8040989,18.7562989 17.283617,17.444399 17.331695,16.091279 C17.331695,13.2217192 19.1327869,11.3138393 22.5365447,10.8559194 L22.5365447,9.55853943 C22.5365447,8.94797947 22.7502346,8.73425948 23.3607766,8.73425948 L24.8413365,8.72663948 Z" id="Fill-73" fill="#FFFFFF" mask="url(#mask-38)"></path>
                        </g>
                    </g>
                    <g id="独家解决方案备份" transform="translate(0.000000, 236.000000)">
                        <rect id="Rectangle-3" fill="#FC790D" x="0.5098135" y="-2.13162821e-14" width="276" height="44.8081879" rx="4.8990285"></rect>
                        <text id="引流渠道统计" font-family="FZLTCHJW--GB1-0, FZLanTingHeiS-B-GB" font-size="24.4951425" font-weight="normal" line-spacing="29.394171" fill="#FFFFFF">
                            <tspan x="119.20103" y="29.3485428">引流渠道统计</tspan>
                        </text>
                        <g id="句客宝logo" transform="translate(13.196352, 8.981552)">
                            <path d="M11.430953,-2.3625546e-13 C14.5313149,-2.3625546e-13 17.2121507,1.10905154 19.4723253,3.32404366 C21.7315917,5.54036905 22.862133,8.16911673 22.862133,11.208509 C22.862133,17.9610352 18.0530192,22.9325459 8.43547259,26.128152 L8.43547259,26.128152 L8.43547259,22.031261 C5.85974537,21.3086331 3.80978796,19.9304849 2.28605439,17.8954831 C0.761185737,15.8600369 0,13.6321566 0,11.208509 C0,8.16911673 1.1291792,5.54036905 3.38980776,3.32404366 C5.64862019,1.10905154 8.32922895,-2.3625546e-13 11.430953,-2.3625546e-13 Z M7.13283022,10.5876535 C7.08016243,12.6793189 8.96553301,14.4212253 11.3444371,14.4792222 C11.4400109,14.4821109 11.5335417,14.4763335 11.6272994,14.4738892 C11.6272994,14.4743336 12.0325236,14.7549852 12.4770215,14.9789731 C12.9725982,15.2280709 13.5814559,15.3953952 13.9353744,15.365619 C14.4037091,15.3262878 14.4774894,15.0314148 14.3837316,14.880534 C14.2947412,14.7367639 14.139235,14.7303198 13.9889502,14.6378804 C13.8084723,14.5263308 13.7285625,14.4698894 13.6543282,14.2967876 C13.5691971,14.0974649 13.6677221,13.9494729 13.8550106,13.8505893 C13.8550106,13.8505893 13.8697667,13.8368123 13.8951925,13.8125914 C14.98646,13.1501825 15.7151824,12.0551302 15.7469647,10.7965311 C15.7998595,8.70508794 13.9144889,6.96251488 11.5353578,6.90451799 C9.15668076,6.84696553 7.18572502,8.49576585 7.13283022,10.5876535 Z" id="形状结合" fill="#FFFFFF"></path>
                            <path d="M42.5343205,24.1821127 C43.0590911,24.1821127 43.6261819,24.0662271 44.2355929,23.8344557 C44.8450039,23.6026844 45.4120946,23.2301947 45.9368652,22.7169867 C46.4616358,22.2037788 46.905998,21.5332974 47.2699518,20.7055426 C47.6339056,19.8777878 47.8243465,18.8679269 47.8412746,17.67596 L47.8412746,17.67596 L47.9682352,6.32744156 C48.0020914,5.76456829 47.8158825,5.2844705 47.4096085,4.8871482 C46.9864064,4.47327079 46.4531718,4.26633209 45.8099046,4.26633209 L45.8099046,4.26633209 L35.4245254,4.26633209 C35.543022,3.93523017 35.6530546,3.58343438 35.7546231,3.21094471 C35.8561916,2.83845505 35.9746882,2.44527152 36.1101128,2.03139411 C36.1947532,1.78306767 36.1693611,1.54715755 36.0339365,1.32366375 C35.8985118,1.10016996 35.7038388,0.947035316 35.4499176,0.864259835 C35.1790682,0.781484355 34.929379,0.806316999 34.7008499,0.938757768 C34.4723208,1.07119854 34.315736,1.26158214 34.2310956,1.50990858 C33.9433182,2.48665926 33.6682368,3.36407935 33.4058515,4.14216887 C33.1434662,4.92025839 32.8683849,5.6362663 32.5806074,6.29019259 C32.29283,6.94411889 31.9754285,7.55665745 31.6284027,8.12780827 C31.281377,8.69895908 30.8793351,9.26597113 30.4222768,9.82884439 C30.252996,10.0440606 30.1852836,10.2799708 30.2191398,10.5365748 C30.252996,10.7931787 30.3799566,11.0042562 30.6000217,11.1698072 C30.7862306,11.302248 30.9809036,11.3684683 31.1840406,11.3684683 C31.3194652,11.3684683 31.4591219,11.3394969 31.6030106,11.2815541 C31.7468993,11.2236112 31.8696279,11.1284194 31.9711964,10.9959787 C32.5975355,10.2178892 33.1265381,9.45221596 33.5582043,8.69895908 C33.9898704,7.94570221 34.3834483,7.09725353 34.7389381,6.15361305 L34.7389381,6.15361305 L45.8099046,6.15361305 C45.9114731,6.15361305 45.9791854,6.1784457 46.0130416,6.22811098 C46.0299697,6.22811098 46.0384337,6.25294363 46.0384337,6.30260892 L46.0384337,6.30260892 L45.886081,17.6511273 C45.8691529,18.5947678 45.7294962,19.3645798 45.4671109,19.9605632 C45.2047256,20.5565467 44.8957881,21.0283669 44.5402984,21.376024 C44.1848086,21.723681 43.8166228,21.9595911 43.4357409,22.0837543 C43.054859,22.2079175 42.7543856,22.2699991 42.5343205,22.2699991 L42.5343205,22.2699991 L41.8995173,22.2699991 C41.6117399,22.253444 41.3747468,22.3362195 41.1885378,22.5183256 C41.0023289,22.7004316 40.9092245,22.9239254 40.9092245,23.188807 C40.8922964,23.4702436 40.9769368,23.702015 41.1631457,23.884121 C41.3493546,24.0662271 41.5778838,24.1655577 41.8487331,24.1821127 L41.8487331,24.1821127 L42.5343205,24.1821127 Z M41.5688488,18.718931 C42.0259071,18.718931 42.415253,18.5616576 42.7368866,18.2471108 C43.0585201,17.932564 43.2193369,17.5517967 43.2193369,17.1048091 L43.2193369,17.1048091 L43.2193369,10.8718155 C43.2193369,10.4248279 43.0585201,10.0440606 42.7368866,9.72951382 C42.415253,9.41496699 42.0259071,9.25769358 41.5688488,9.25769358 L41.5688488,9.25769358 L35.6270915,9.25769358 C35.1700333,9.25769358 34.7806874,9.41496699 34.4590538,9.72951382 C34.1374202,10.0440606 33.9766034,10.4248279 33.9766034,10.8718155 L33.9766034,10.8718155 L33.9766034,17.1048091 C33.9766034,17.5517967 34.1374202,17.932564 34.4590538,18.2471108 C34.7806874,18.5616576 35.1700333,18.718931 35.6270915,18.718931 L35.6270915,18.718931 L41.5688488,18.718931 Z M41.2641433,16.8068174 L35.931797,16.8068174 L35.931797,11.1449745 L41.2641433,11.1449745 L41.2641433,16.8068174 Z M71.3532406,8.41338367 C71.6240899,8.41338367 71.8568511,8.31819187 72.051524,8.12780827 C72.246197,7.93742466 72.3435335,7.71806964 72.3435335,7.46974319 L72.3435335,7.46974319 L72.3435335,4.76298498 C72.3435335,4.31599738 72.1784847,3.93523017 71.848387,3.62068334 C71.5182894,3.30613652 71.1247115,3.1488631 70.6676532,3.1488631 L70.6676532,3.1488631 L64.929033,3.1488631 L64.0403086,1.38574536 C63.9048839,1.15397402 63.714443,0.992561831 63.4689858,0.901508802 C63.2235286,0.810455773 62.9823034,0.822872095 62.7453102,0.938757768 C62.508317,1.05464344 62.3390362,1.2367495 62.2374677,1.48507594 C62.1358992,1.73340238 62.1528273,1.97345128 62.288252,2.20522262 L62.288252,2.20522262 L62.7707023,3.12403046 L56.6258081,3.12403046 C56.1518217,3.12403046 55.7540118,3.28130387 55.4323782,3.5958507 C55.1107446,3.91039752 54.9499278,4.29116474 54.9499278,4.73815233 L54.9499278,4.73815233 L54.9499278,7.44491055 C54.9499278,7.72634718 55.0472643,7.95811853 55.2419372,8.14022459 C55.4366102,8.32233065 55.6693713,8.41338367 55.9402207,8.41338367 C56.21107,8.41338367 56.4395991,8.31819187 56.6258081,8.12780827 C56.812017,7.93742466 56.9051214,7.71806964 56.9051214,7.46974319 L56.9051214,7.46974319 L56.9051214,5.06097671 L70.3883399,5.06097671 L70.3883399,7.46974319 C70.3883399,7.71806964 70.4814443,7.93742466 70.6676532,8.12780827 C70.8538621,8.31819187 71.0823913,8.41338367 71.3532406,8.41338367 Z M71.8864752,16.906148 C72.1234684,16.906148 72.3308374,16.8357888 72.5085823,16.6950705 C72.6863272,16.5543522 72.7921277,16.3681074 72.8259839,16.136336 C72.8936962,15.8714545 72.851376,15.6314056 72.6990232,15.4161893 C72.5466705,15.2009731 72.3350694,15.0685323 72.0642201,15.018867 C70.625333,14.7374304 69.3684228,14.451855 68.2934895,14.1621408 C67.2185562,13.8724266 66.2748156,13.5454635 65.4622676,13.1812514 C66.3425279,12.601823 67.1254518,11.9727293 67.8110392,11.2939704 C68.4966265,10.6152115 69.1018055,9.86195459 69.6265761,9.03419978 C69.7281446,8.88520391 69.7831609,8.71551418 69.7916249,8.52513057 C69.800089,8.33474697 69.7704648,8.16091846 69.7027525,8.00364505 C69.6350401,7.84637163 69.5292396,7.70979209 69.3853509,7.59390642 C69.2414622,7.47802074 69.0679493,7.42007791 68.8648123,7.42007791 L68.8648123,7.42007791 L61.4757039,7.42007791 C61.5434163,7.28763714 61.6026646,7.17175146 61.6534488,7.07242089 C61.7042331,6.97309031 61.7550173,6.85720464 61.8058016,6.72476387 C61.9242982,6.49299252 61.9369942,6.2570824 61.8438898,6.01703351 C61.7507853,5.77698461 61.5772724,5.59073978 61.3233512,5.45829901 C61.086358,5.34241334 60.8451328,5.32999702 60.5996756,5.42105005 C60.3542184,5.51210308 60.1637775,5.68179281 60.0283528,5.93011925 C59.5882227,6.84064954 59.0211319,7.70151454 58.3270804,8.51271425 C57.633029,9.32391396 56.812017,10.0606157 55.8640443,10.7228196 C55.6270511,10.8718155 55.4916265,11.0746154 55.4577703,11.3312194 C55.4239141,11.5878234 55.4746984,11.8237335 55.6101231,12.0389497 C55.8301881,12.3038313 56.1010375,12.436272 56.4226711,12.436272 C56.6427361,12.436272 56.820481,12.3700517 56.9559057,12.2376109 C57.2944674,12.0058395 57.620333,11.7657906 57.9335025,11.5174642 C58.246672,11.2691378 58.5471455,11.0042562 58.8349229,10.7228196 C59.2750531,11.1698072 59.7109513,11.5961009 60.1426174,12.0017008 C60.5742835,12.4073006 61.0355738,12.7839291 61.5264882,13.1315861 C59.7659675,13.8931205 57.6838133,14.5222141 55.2800254,15.018867 C55.0091761,15.0685323 54.7975751,15.2051119 54.6452223,15.4286057 C54.4928696,15.6520995 54.4505493,15.8962871 54.5182617,16.1611687 C54.5690459,16.3763849 54.6833105,16.5543522 54.8610554,16.6950705 C55.0388002,16.8357888 55.2461693,16.906148 55.4831624,16.906148 C55.5678028,16.906148 55.6355152,16.8978704 55.6862994,16.8813153 C57.226755,16.5667685 58.64025,16.1984176 59.9267843,15.7762627 C61.2133187,15.3541077 62.3982845,14.8781487 63.4816818,14.3483856 C64.4804387,14.8781487 65.6357804,15.3458302 66.9477069,15.75143 C68.2596334,16.1570299 69.8466412,16.5336583 71.7087304,16.8813153 C71.7425865,16.8813153 71.7722107,16.8854541 71.7976028,16.8937317 C71.8229949,16.9020092 71.8526191,16.906148 71.8864752,16.906148 Z M63.4562897,12.1382803 C62.8638068,11.7575131 62.296716,11.3353581 61.7550173,10.8718155 C61.2133187,10.4082728 60.67162,9.89506478 60.1299213,9.33219151 L60.1299213,9.33219151 L66.960403,9.33219151 C66.0124303,10.4248279 64.8443925,11.3601908 63.4562897,12.1382803 Z M68.5601068,23.8592884 C68.9663808,23.8592884 69.3176386,23.7144313 69.61388,23.4247171 C69.9101215,23.1350029 70.0582422,22.7914847 70.0582422,22.3941624 L70.0582422,22.3941624 L70.0582422,18.0732823 C70.0582422,17.6594049 69.9143535,17.3076091 69.6265761,17.0178949 C69.3387987,16.7281807 68.9833089,16.5833236 68.5601068,16.5833236 L68.5601068,16.5833236 L58.6571781,16.5833236 C58.2509041,16.5833236 57.8996463,16.7281807 57.6034049,17.0178949 C57.3071634,17.3076091 57.1590427,17.6676824 57.1590427,18.0981149 L57.1590427,18.0981149 L57.1590427,22.3941624 C57.1590427,22.7914847 57.3029314,23.1350029 57.5907088,23.4247171 C57.8784862,23.7144313 58.233976,23.8592884 58.6571781,23.8592884 L58.6571781,23.8592884 L68.5601068,23.8592884 Z M68.1284407,21.9720074 L59.1142363,21.9720074 L59.1142363,18.4706046 L68.1284407,18.4706046 L68.1284407,21.9720074 Z M79.4781497,8.81070598 C79.748999,8.81070598 79.9775282,8.71551418 80.1637371,8.52513057 C80.349946,8.33474697 80.4430505,8.1071144 80.4430505,7.84223286 L80.4430505,7.84223286 L80.4430505,5.80595603 L93.9262689,5.80595603 L93.9262689,7.84223286 C93.9262689,8.0905593 94.0193733,8.30991432 94.2055823,8.50029793 C94.3917912,8.69068153 94.6203203,8.78587334 94.8911696,8.78587334 C95.162019,8.78587334 95.3947801,8.69068153 95.5894531,8.50029793 C95.784126,8.30991432 95.8814625,8.08228175 95.8814625,7.81740021 L95.8814625,7.81740021 L95.8814625,5.35896844 C95.8814625,4.94509103 95.7206457,4.59743401 95.3990121,4.31599738 C95.0773786,4.03456075 94.6795686,3.89384243 94.2055823,3.89384243 L94.2055823,3.89384243 L88.9494124,3.89384243 C88.9324843,3.77795676 88.8901641,3.66207108 88.8224517,3.54618541 L88.8224517,3.54618541 L87.3497085,1.33608008 C87.2142838,1.10430873 87.0153788,0.963590412 86.7529935,0.913925124 C86.4906083,0.864259835 86.240919,0.905647576 86.0039259,1.03808834 C85.7669327,1.18708421 85.623044,1.38988414 85.5722597,1.64648813 C85.5214755,1.90309212 85.5722597,2.13900224 85.7246125,2.35421849 L85.7246125,2.35421849 L86.7149054,3.91867507 L80.1637371,3.91867507 C79.6897508,3.91867507 79.2919408,4.06353216 78.9703072,4.35324635 C78.6486736,4.64296053 78.4878568,4.98647877 78.4878568,5.38380108 L78.4878568,5.38380108 L78.4878568,7.84223286 C78.4878568,8.1071144 78.5851933,8.33474697 78.7798663,8.52513057 C78.9745392,8.71551418 79.2073004,8.81070598 79.4781497,8.81070598 Z M95.0689145,23.8344557 C95.3566919,23.8344557 95.5936851,23.7392639 95.779894,23.5488803 C95.9661029,23.3584967 96.0592074,23.1391417 96.0592074,22.8908152 C96.0592074,22.6259337 95.9618709,22.3983011 95.767198,22.2079175 C95.572525,22.0175339 95.3397638,21.9223421 95.0689145,21.9223421 L95.0689145,21.9223421 L88.060688,21.9223421 L88.060688,16.558491 L93.5707791,16.558491 C93.8585566,16.558491 94.0955497,16.4674379 94.2817586,16.2853319 C94.4679676,16.1032258 94.561072,15.879732 94.561072,15.6148505 C94.561072,15.349969 94.4637355,15.1223364 94.2690626,14.9319528 C94.0743896,14.7415692 93.8416285,14.6463774 93.5707791,14.6463774 L93.5707791,14.6463774 L88.060688,14.6463774 L88.060688,10.9463134 L94.3833271,10.9463134 C94.6711046,10.9463134 94.9080977,10.8552604 95.0943066,10.6731543 C95.2805156,10.4910482 95.37362,10.2675544 95.37362,10.0026729 C95.37362,9.73779137 95.2762835,9.51015879 95.0816106,9.31977519 C94.8869376,9.12939158 94.6541765,9.03419978 94.3833271,9.03419978 L94.3833271,9.03419978 L81.0524615,9.03419978 C80.7646841,9.03419978 80.5319229,9.12939158 80.354178,9.31977519 C80.1764332,9.51015879 80.0875607,9.73779137 80.0875607,10.0026729 C80.0875607,10.2675544 80.1806652,10.4910482 80.3668741,10.6731543 C80.553083,10.8552604 80.7816121,10.9463134 81.0524615,10.9463134 L81.0524615,10.9463134 L86.0801022,10.9463134 L86.0801022,14.6463774 L81.0524615,14.6463774 C80.7646841,14.6463774 80.5319229,14.7415692 80.354178,14.9319528 C80.1764332,15.1223364 80.0875607,15.349969 80.0875607,15.6148505 C80.0875607,15.879732 80.1806652,16.1032258 80.3668741,16.2853319 C80.553083,16.4674379 80.7816121,16.558491 81.0524615,16.558491 L81.0524615,16.558491 L86.0801022,16.558491 L86.0801022,21.9223421 L79.1988363,21.9223421 C78.927987,21.9223421 78.6994579,22.0175339 78.513249,22.2079175 C78.32704,22.3983011 78.2339356,22.6259337 78.2339356,22.8908152 C78.2339356,23.1391417 78.3312721,23.3584967 78.525945,23.5488803 C78.720618,23.7392639 78.9449151,23.8344557 79.1988363,23.8344557 L79.1988363,23.8344557 L95.0689145,23.8344557 Z" id="句客宝" stroke="#FFFFFF" stroke-width="0.707199981" fill="#FFFFFF" fill-rule="nonzero"></path>
                            <circle id="椭圆形" stroke="#FFFFFF" stroke-width="1.32626505" fill="#FC790D" fill-rule="nonzero" cx="91.9920012" cy="19.2355456" r="1.91571618"></circle>
                        </g>
                    </g>
                </g>
            </g>
        </g>
    </g>
</svg>