<?xml version="1.0" encoding="UTF-8"?>
<svg width="240px" height="140px" viewBox="0 0 240 140" version="1.1" xmlns="http://www.w3.org/2000/svg" xmlns:xlink="http://www.w3.org/1999/xlink">
    <title>1-8</title>
    <g id="最新版备份" stroke="none" stroke-width="1" fill="none" fill-rule="evenodd">
        <g id="企微SCRM-新版" transform="translate(-1007.000000, -3667.000000)">
            <g id="亮点1" transform="translate(0.000000, 2416.000000)">
                <g id="编组-25" transform="translate(130.000000, 241.000000)">
                    <g id="编组-19备份-6" transform="translate(814.000000, 960.000000)">
                        <g id="1-8" transform="translate(63.000000, 50.000000)">
                            <rect id="矩形" fill="#F1F1F1" x="0" y="0" width="240" height="140"></rect>
                            <line x1="116.5" y1="70.5" x2="166.5" y2="70.5" id="直线" stroke-opacity="0.65" stroke="#A4A4A4" stroke-linecap="square"></line>
                            <g id="编组-26" transform="translate(160.000000, 20.000000)">
                                <rect id="矩形" fill="#FFFFFF" x="0" y="0" width="54" height="25"></rect>
                                <circle id="椭圆形" fill="#D8D8D8" cx="13.5" cy="12.5" r="6.5"></circle>
                                <rect id="矩形" fill="#D8D8D8" x="26" y="7" width="19" height="4"></rect>
                                <rect id="矩形备份-13" fill="#F4F4F4" x="26" y="15" width="19" height="4"></rect>
                            </g>
                            <g id="编组-26备份" transform="translate(160.000000, 57.000000)">
                                <rect id="矩形" fill="#FFFFFF" x="0" y="0" width="54" height="25"></rect>
                                <circle id="椭圆形" fill="#D8D8D8" cx="13.5" cy="12.5" r="6.5"></circle>
                                <rect id="矩形" fill="#D8D8D8" x="26" y="7" width="19" height="4"></rect>
                                <rect id="矩形备份-13" fill="#F4F4F4" x="26" y="15" width="19" height="4"></rect>
                            </g>
                            <g id="编组-26备份-2" transform="translate(160.000000, 94.000000)">
                                <rect id="矩形" fill="#FFFFFF" x="0" y="0" width="54" height="25"></rect>
                                <circle id="椭圆形" fill="#D8D8D8" cx="13.5" cy="12.5" r="6.5"></circle>
                                <rect id="矩形" fill="#D8D8D8" x="26" y="7" width="19" height="4"></rect>
                                <rect id="矩形备份-13" fill="#F4F4F4" x="26" y="15" width="19" height="4"></rect>
                            </g>
                            <g id="编组-17备份-3" transform="translate(25.000000, 20.000000)">
                                <rect id="矩形" fill="#FFFFFF" fill-rule="nonzero" x="0" y="0" width="100" height="100"></rect>
                                <g id="编组-23" transform="translate(9.000000, 9.000000)">
                                    <g id="编组-22">
                                        <rect id="矩形" stroke="#FC790D" stroke-width="6.22080012" x="3.11040006" y="3.11040006" width="31.1040006" height="31.1040006"></rect>
                                        <rect id="矩形备份-4" fill="#FC790D" x="13.9968003" y="13.9968003" width="9.33120019" height="9.33120019"></rect>
                                    </g>
                                    <g id="编组-22备份" transform="translate(45.100801, 0.000000)">
                                        <rect id="矩形" stroke="#FC790D" stroke-width="6.22080012" x="3.11040006" y="3.11040006" width="31.1040006" height="31.1040006"></rect>
                                        <rect id="矩形备份-4" fill="#FC790D" x="13.9968003" y="13.9968003" width="9.33120019" height="9.33120019"></rect>
                                    </g>
                                    <g id="编组-22备份-2" transform="translate(0.000000, 45.100801)">
                                        <rect id="矩形" stroke="#FC790D" stroke-width="6.22080012" x="3.11040006" y="3.11040006" width="31.1040006" height="31.1040006"></rect>
                                        <rect id="矩形备份-4" fill="#FC790D" x="13.9968003" y="13.9968003" width="9.33120019" height="9.33120019"></rect>
                                    </g>
                                    <path d="M82.4256016,68.4288014 L57.5424011,68.4288014 L57.5418009,60.6528009 L51.3208009,60.6528009 L51.321601,82.4256016 L45.1008009,82.4256016 L45.1008009,45.1008009 L69.9840014,45.1008009 L69.9838009,51.3208009 L76.2048009,51.3208009 L76.2048015,45.1008009 L82.4256016,45.1008009 L82.4256016,68.4288014 Z M65.3184013,76.2048015 L65.3184013,82.4256016 L59.0976012,82.4256016 L59.0976012,76.2048015 L65.3184013,76.2048015 Z M82.4256016,76.2048015 L82.4256016,82.4256016 L76.2048015,82.4256016 L76.2048015,76.2048015 L82.4256016,76.2048015 Z" id="形状结合" fill="#FC790D"></path>
                                </g>
                            </g>
                        </g>
                    </g>
                </g>
            </g>
        </g>
    </g>
</svg>