<?xml version="1.0" encoding="UTF-8"?>
<svg width="277px" height="313px" viewBox="0 0 277 313" version="1.1" xmlns="http://www.w3.org/2000/svg" xmlns:xlink="http://www.w3.org/1999/xlink">
    <title>10-2</title>
    <defs>
        <polygon id="path-1" points="0.189559997 0.0506169991 28.1168295 0.0506169991 28.1168295 50.0404091 0.189559997 50.0404091"></polygon>
        <polyline id="path-3" points="0 256.199996 251.233076 256.199996 251.233076 0.262499996 0 0.262499996"></polyline>
        <polygon id="path-5" points="0.396710993 0.523676991 35.7960706 0.523676991 35.7960706 40.9314869 0.396710993 40.9314869"></polygon>
        <polygon id="path-7" points="0 0.105475998 251.232936 0.105475998 251.232936 25.8999996 0 25.8999996"></polygon>
        <polyline id="path-9" points="0 256.199996 251.233076 256.199996 251.233076 0.262499996 0 0.262499996"></polyline>
        <polygon id="path-11" points="0.60507999 0.232679996 3.80583484 0.232679996 3.80583484 4.75656992 0.60507999 4.75656992"></polygon>
        <polyline id="path-13" points="0 256.199996 251.233076 256.199996 251.233076 0.262499996 0 0.262499996"></polyline>
        <polyline id="path-15" points="0 256.199996 251.233076 256.199996 251.233076 0.262499996 0 0.262499996"></polyline>
        <polygon id="path-17" points="0 256.199996 251.233076 256.199996 251.233076 0.262499996 0 0.262499996"></polygon>
        <polygon id="path-19" points="0 256.199996 251.233076 256.199996 251.233076 0.262499996 0 0.262499996"></polygon>
        <polygon id="path-21" points="0.358609994 0.0973626651 4.79941482 0.0973626651 4.79941482 12.2622991 0.358609994 12.2622991"></polygon>
        <polygon id="path-23" points="0 256.199996 251.233076 256.199996 251.233076 0.262499996 0 0.262499996"></polygon>
        <polygon id="path-25" points="0.693995395 0.457211992 28.253379 0.457211992 28.253379 42.8057693 0.693995395 42.8057693"></polygon>
        <polygon id="path-27" points="0 256.199996 251.233076 256.199996 251.233076 0.262499996 0 0.262499996"></polygon>
        <polygon id="path-29" points="0.172549997 0.491735992 27.8711995 0.491735992 27.8711995 39.2126693 0.172549997 39.2126693"></polygon>
        <polygon id="path-31" points="0 256.199996 251.233076 256.199996 251.233076 0.262499996 0 0.262499996"></polygon>
        <polygon id="path-33" points="0.23812287 0.484679992 9.25184384 0.484679992 9.25184384 14.4814107 0.23812287 14.4814107"></polygon>
        <polygon id="path-35" points="0.157667876 0.654569989 9.17125984 0.654569989 9.17125984 14.6512937 0.157667876 14.6512937"></polygon>
        <polygon id="path-37" points="0.504243127 0.690234988 9.51805384 0.690234988 9.51805384 14.6869589 0.504243127 14.6869589"></polygon>
    </defs>
    <g id="最新版备份" stroke="none" stroke-width="1" fill="none" fill-rule="evenodd">
        <g id="亮点10" transform="translate(-174.000000, -313.000000)">
            <g id="编组-4" transform="translate(130.000000, 241.000000)">
                <g id="10-2" transform="translate(44.000000, 72.000000)">
                    <g id="编组" transform="translate(13.000000, 0.000000)">
                        <path d="M180.993117,115.288108 C180.993117,115.288108 158.767767,123.066508 167.367687,153.486337 C171.891717,169.491137 193.316827,164.561667 193.316827,164.561667 L187.181607,158.159747 L180.993117,115.288108 Z" id="Fill-1" fill="#F4A28C"></path>
                        <g transform="translate(0.000000, 0.437500)">
                            <g transform="translate(165.199997, 114.799998)">
                                <mask id="mask-2" fill="white">
                                    <use xlink:href="#path-1"></use>
                                </mask>
                                <g id="Clip-4"></g>
                                <path d="M15.7931197,0.0506099991 C15.7931197,0.0506099991 -6.43222989,7.82900987 2.16768996,38.2488393 C6.69171989,54.2536391 28.1168295,49.3241692 28.1168295,49.3241692 L21.9816096,42.9222493 L15.7931197,0.0506099991 Z" id="Fill-3" fill-opacity="0.08" fill="#000000" mask="url(#mask-2)"></path>
                            </g>
                            <mask id="mask-4" fill="white">
                                <use xlink:href="#path-3"></use>
                            </mask>
                            <g id="Clip-6"></g>
                            <path d="M74.0060987,99.2511783 C71.9990588,96.7821384 68.3702588,96.4065884 65.9012469,98.4146783 C65.1799599,99.0004383 64.6112589,99.7526583 64.2431499,100.606238 C62.1091719,105.685088 60.572707,112.929948 64.0617589,120.334828 C70.4636788,134.002958 79.5971386,144.182078 89.0506385,132.263808 C98.5041383,120.345538 97.3517983,105.877168 97.3517983,105.877168 C97.3517983,105.877168 97.4051383,97.3412283 93.5533184,97.8747683 C89.7014985,98.4082383 93.5533184,105.717148 93.5533184,105.717148 L82.5206886,125.371048 C82.8919686,115.927138 79.8713286,106.662498 74.0060987,99.2511783" id="Fill-5" fill="#F4A28C" mask="url(#mask-4)"></path>
                        </g>
                        <g transform="translate(61.599999, 97.037498)">
                            <mask id="mask-6" fill="white">
                                <use xlink:href="#path-5"></use>
                            </mask>
                            <g id="Clip-8"></g>
                            <path d="M12.4060998,2.65117995 C10.3990598,0.182139997 6.77025988,-0.193409997 4.30124793,1.81467997 C3.57996094,2.40043996 3.01125995,3.15265995 2.64315095,4.00623993 C0.509172991,9.08508985 -1.02729198,16.3299497 2.46175996,23.7348296 C8.86367985,37.4029594 17.9971397,47.5820792 27.4506395,35.6638094 C36.9041394,23.7455396 35.7517994,9.27716984 35.7517994,9.27716984 C35.7517994,9.27716984 35.8051394,0.741229987 31.9533195,1.27476998 C28.1014995,1.80823997 31.9533195,9.11714984 31.9533195,9.11714984 L20.9206896,28.7710495 C21.2919696,19.3271397 18.2713297,10.0624998 12.4060998,2.65117995" id="Fill-7" fill-opacity="0.08" fill="#000000" mask="url(#mask-6)"></path>
                        </g>
                        <g transform="translate(0.000000, 0.437500)">
                            <g transform="translate(0.000000, 230.299996)">
                                <mask id="mask-8" fill="white">
                                    <use xlink:href="#path-7"></use>
                                </mask>
                                <g id="Clip-10"></g>
                                <path d="M125.616398,0.105265998 C194.993047,0.105265998 251.232936,5.8808749 251.232936,13.0051528 C251.232936,20.130501 194.993047,25.9061083 125.616398,25.9061083 C56.239777,25.9061083 -0.000106698828,20.130501 -0.000106698828,13.0051528 C-0.000106698828,5.8808749 56.239777,0.105265998 125.616398,0.105265998" id="Fill-9" fill-opacity="0.45" fill="#E6E6E6" mask="url(#mask-8)"></path>
                            </g>
                            <mask id="mask-10" fill="white">
                                <use xlink:href="#path-9"></use>
                            </mask>
                            <g id="Clip-12"></g>
                            <path d="M125.051218,46.8514892 C126.127818,48.8093892 126.932328,50.9060291 127.441298,53.0826791 C127.626938,54.1806291 126.886478,55.2208991 125.788528,55.4066091 C125.784258,55.4076591 125.781038,55.4087091 125.776768,55.4087091 C124.070658,55.803509 122.290908,55.1601391 121.231388,53.7655291 L118.723988,51.0447691 C117.802088,49.8187892 117.759458,48.1436192 118.617308,46.8728392 C120.079048,44.4507692 123.984278,44.6534892 125.051218,46.8514892" id="Fill-11" fill="#F4A28C" mask="url(#mask-10)"></path>
                            <polygon id="Fill-13" fill="#F4A28C" mask="url(#mask-10)" points="120.174808 50.3936991 119.267818 63.5282889 126.544668 63.5176489 124.282688 53.9573991"></polygon>
                            <path d="M124.208208,47.3636092 C123.093178,47.9110092 121.918438,48.3260392 120.708488,48.6013492 C121.852288,49.3268992 122.445538,50.6713191 122.212928,52.0050291 C122.019798,53.2982091 120.937878,54.2744991 119.630838,54.3310591 L117.614208,49.5829592 C116.975108,48.2214592 117.134078,46.6188792 118.030358,45.4110292 C118.412348,44.8956892 118.826328,44.4037992 119.268028,43.9385793 C120.388378,42.7969493 122.778458,42.8716393 123.600048,41.3671293 C123.876338,40.9072993 124.472808,40.7589693 124.932708,41.0353293 C125.068228,41.1175093 125.182398,41.2305593 125.264508,41.3671293 C126.107448,42.7115493 126.843638,45.0909192 125.264508,46.7021092 C124.951888,46.9795192 124.594468,47.2035892 124.208208,47.3636092" id="Fill-14" fill="#24285B" mask="url(#mask-10)"></path>
                            <path d="M122.532688,51.7274091 C122.532688,51.7274091 121.881828,50.3190091 120.868228,50.9058191 C119.854558,51.4926291 120.782828,53.5092591 122.308618,53.0397691 L122.532688,51.7274091 Z" id="Fill-15" fill="#F4A28C" mask="url(#mask-10)"></path>
                            <path d="M126.160928,49.1349592 L127.804038,50.1059291 C128.098528,50.3011591 128.179658,50.6980591 127.983308,50.9935991 C127.936338,51.0640191 127.874458,51.1259691 127.804038,51.1728691 L126.513028,52.0585091 L126.160928,49.1349592 Z" id="Fill-16" fill="#F4A28C" mask="url(#mask-10)"></path>
                        </g>
                        <g transform="translate(0.000000, 0.437500)">
                            <g transform="translate(121.799998, 54.599999)">
                                <mask id="mask-12" fill="white">
                                    <use xlink:href="#path-11"></use>
                                </mask>
                                <g id="Clip-18"></g>
                                <path d="M3.06984995,1.42764998 C2.14794996,1.28148998 1.29114998,0.865409985 0.60507999,0.232679996 C1.05216998,2.09453996 2.19813996,3.71531994 3.80603994,4.75670992 L3.06984995,1.42764998 Z" id="Fill-17" fill-opacity="0.31" fill="#CE8172" mask="url(#mask-12)"></path>
                            </g>
                            <mask id="mask-14" fill="white">
                                <use xlink:href="#path-13"></use>
                            </mask>
                            <g id="Clip-20"></g>
                            <path d="M57.329173,76.0441487 C58.400425,78.0052687 59.204935,80.1008586 59.719225,82.2754086 C59.904879,83.3732886 59.164391,84.4146786 58.066462,84.6003186 C58.062192,84.6003186 58.058993,84.6014386 58.054723,84.6014386 C56.343272,84.9972886 54.5603371,84.3442586 53.5093501,82.9369086 L50.9912611,80.2160786 C50.0768511,78.9879987 50.0341721,77.3170987 50.8845601,76.0441487 C52.3036561,73.6434287 56.251509,73.8355087 57.329173,76.0441487" id="Fill-19" fill="#F4A28C" mask="url(#mask-14)"></path>
                            <polygon id="Fill-21" fill="#F4A28C" mask="url(#mask-14)" points="52.4532461 79.5869186 51.5463051 92.7215084 58.823169 92.7108684 56.561154 83.1506186"></polygon>
                            <path d="M58.428488,78.3062687 L60.082322,79.2665987 C60.376812,79.4618286 60.456836,79.8598486 60.261571,80.1532186 C60.214629,80.2247586 60.153806,80.2855886 60.082322,80.3335386 L58.801931,81.2191786 L58.428488,78.3062687 Z" id="Fill-22" fill="#F4A28C" mask="url(#mask-14)"></path>
                        </g>
                        <g transform="translate(0.000000, 0.437500)">
                            <path d="M57.126551,85.2203785 C56.206807,85.0752686 55.3500141,84.6633886 54.6618091,84.0360486 C55.1174111,85.8946885 56.261225,87.5122485 57.862769,88.5600785 L57.126551,85.2203785 Z" id="Fill-23" fill-opacity="0.31" fill="#CE8172"></path>
                            <mask id="mask-16" fill="white">
                                <use xlink:href="#path-15"></use>
                            </mask>
                            <g id="Clip-26"></g>
                            <path d="M194.767997,94.9832084 C193.695737,96.9443283 192.892277,99.0399183 192.377987,101.214398 C192.192347,102.312348 192.932807,103.353738 194.031807,103.539378 C194.035027,103.539378 194.038177,103.540428 194.042447,103.540428 C195.752827,103.927808 197.531527,103.275828 198.587827,101.875968 L201.105937,99.1444983 C202.019297,97.9185183 202.057727,96.2497184 201.201977,94.9832084 C199.836207,92.5718484 195.835007,92.7745684 194.767997,94.9832084" id="Fill-25" fill="#F4A28C" mask="url(#mask-16)"></path>
                            <polygon id="Fill-27" fill="#F4A28C" mask="url(#mask-16)" points="199.687247 98.5149183 200.594237 111.660218 193.316267 111.638868 195.578317 102.089328"></polygon>
                            <path d="M193.701057,97.2666783 L192.047237,98.2269383 C191.752747,98.4328783 191.680157,98.8383183 191.887147,99.1339283 C191.930897,99.1958083 191.985357,99.2501983 192.047237,99.2939483 L193.338247,100.179518 L193.701057,97.2666783 Z" id="Fill-28" fill="#F4A28C" mask="url(#mask-16)"></path>
                        </g>
                        <g transform="translate(0.000000, 0.437500)">
                            <path d="M194.992067,104.159438 C195.915017,104.007888 196.775037,103.593908 197.467477,102.964398 C197.012967,104.824158 195.868117,106.440668 194.266517,107.488428 L194.992067,104.159438 Z" id="Fill-29" fill-opacity="0.31" fill="#CE8172"></path>
                            <mask id="mask-18" fill="white">
                                <use xlink:href="#path-17"></use>
                            </mask>
                            <g id="Clip-32"></g>
                            <path d="M52.4850471,84.0361186 L49.4441282,79.9495886 C49.4441282,79.9495886 45.1761722,78.9892587 46.3071832,76.7486287 C47.4381872,74.5079287 50.0736521,75.3508687 49.3054162,72.8433988 C48.5371872,70.3359988 51.7915011,69.7704688 53.0292061,71.2322788 C54.2669111,72.6940188 54.4803131,71.5416788 56.112804,71.0509088 C57.745295,70.5600688 59.921952,71.8617888 59.13238,73.8570687 C58.342808,75.8523487 54.0748591,78.0396387 54.0748591,78.0396387 C54.0748591,78.0396387 57.115771,80.2803386 54.3949551,82.7663886 L52.4850471,84.0361186 Z" id="Fill-31" fill="#24285B" mask="url(#mask-18)"></path>
                            <polygon id="Fill-33" fill="#FFD200" mask="url(#mask-18)" points="124.848288 23.2923596 127.526428 23.2923596 127.526428 14.9911927 124.848288 14.9911927"></polygon>
                            <path d="M117.613018,0.262359996 L135.952458,0.948499984 L135.593918,10.5438898 C135.457348,14.1887198 132.391908,17.0333097 128.747078,16.8977897 L123.608448,16.7057797 C119.963618,16.5692097 117.119028,13.5036998 117.254548,9.85886983 L117.613018,0.262359996 Z" id="Fill-34" fill="#FFD200" mask="url(#mask-18)"></path>
                            <polygon id="Fill-35" fill="#24285B" mask="url(#mask-18)" points="121.593988 28.4779595 131.271572 28.4779595 131.271572 21.1797596 121.593988 21.1797596"></polygon>
                        </g>
                        <g transform="translate(0.000000, 0.437500)">
                            <polygon id="Fill-36" fill-opacity="0.13" fill="#FFFFFF" points="123.845328 22.8762327 129.030891 22.8762327 129.030891 26.7920795 123.845328 26.7920795"></polygon>
                            <mask id="mask-20" fill="white">
                                <use xlink:href="#path-19"></use>
                            </mask>
                            <g id="Clip-39"></g>
                            <path d="M116.354838,3.83074993 C114.225158,3.94274993 112.588418,5.7609299 112.700418,7.89060987 C112.804998,9.86453983 114.380908,11.4404498 116.354838,11.5450298 L123.983788,11.5450298 L123.983788,3.83074993 L116.354838,3.83074993 Z M125.189538,12.7614198 L116.354838,12.7614198 C113.556168,12.7614198 111.286628,10.4919498 111.286628,7.69320987 C111.286628,4.89453992 113.556168,2.62499996 116.354838,2.62499996 L125.189538,2.62499996 L125.189538,12.7614198 Z" id="Fill-38" fill="#FFD200" mask="url(#mask-20)"></path>
                            <path d="M130.087088,11.5450298 L137.705398,11.5450298 C139.836198,11.4330298 141.471888,9.61484984 141.358768,7.48516987 C141.256358,5.51123991 139.679328,3.93420993 137.705398,3.83074993 L130.087088,3.83074993 L130.087088,11.5450298 Z M137.705398,12.7614198 L128.870698,12.7614198 L128.870698,2.62499996 L137.705398,2.62499996 C140.505188,2.62499996 142.773608,4.89453992 142.773608,7.69320987 C142.773608,10.4919498 140.505188,12.7614198 137.705398,12.7614198 L137.705398,12.7614198 Z" id="Fill-40" fill="#FFD200" mask="url(#mask-20)"></path>
                        </g>
                        <g transform="translate(0.000000, 0.437500)">
                            <g transform="translate(118.999998, 2.100000)">
                                <mask id="mask-22" fill="white">
                                    <use xlink:href="#path-21"></use>
                                </mask>
                                <g id="Clip-42"></g>
                                <path d="M0.545369991,1.51710997 C0.182559997,4.18459993 -0.0627899989,9.90366983 3.93840993,12.1869998 C4.21469993,12.3438698 4.56686992,12.2478298 4.72478992,11.9714698 C4.82292992,11.7964698 4.82502992,11.5841598 4.72793992,11.4081098 C3.09014995,8.41196986 2.61533996,4.91651992 3.39422994,1.59179997 C3.53611994,0.922809984 3.10827995,0.266629995 2.44033996,0.124669998 C2.34324996,0.103319998 2.24503996,0.0948499984 2.14584996,0.0979999983 C1.33384998,0.106539998 0.652049989,0.711549988 0.545369991,1.51710997" id="Fill-41" fill-opacity="0.43" fill="#FFFFFF" mask="url(#mask-22)"></path>
                            </g>
                            <mask id="mask-24" fill="white">
                                <use xlink:href="#path-23"></use>
                            </mask>
                            <g id="Clip-44"></g>
                            <polygon id="Fill-43" fill="#B2B2B2" mask="url(#mask-24)" points="156.719217 240.595211 219.052669 240.595211 219.052669 212.437389 156.719217 212.437389"></polygon>
                            <polygon id="Fill-45" fill="#C9C9C9" mask="url(#mask-24)" points="33.0126154 240.594147 95.3460674 240.594147 95.3460674 194.373281 33.0126154 194.373281"></polygon>
                            <polygon id="Fill-46" fill="#E6E6E6" mask="url(#mask-24)" points="95.3460884 240.595211 157.67954 240.595211 157.67954 176.917346 95.3460884 176.917346"></polygon>
                            <path d="M117.752598,25.4372296 C117.752598,25.4372296 119.107658,19.8355497 121.519088,23.4846496 C123.930448,27.1337495 121.337718,30.0466595 119.811928,30.2280295 C118.286068,30.4093995 97.9493183,42.3063193 98.6748683,52.7948391 C99.4004183,63.2832889 121.775148,67.7326288 113.420648,82.6704886 C105.066148,97.6083483 88.3250885,71.2644088 87.0553585,62.9098389 C85.7856285,54.5553391 82.5206886,36.6939294 117.752598,25.4372296" id="Fill-47" fill="#F4A28C" mask="url(#mask-24)"></path>
                            <path d="M134.408188,26.3437296 C134.408188,26.3437296 133.043538,20.7314096 130.642818,24.3911496 C128.242028,28.0509595 130.824188,30.9424495 132.339268,31.1238895 C133.853368,31.3052595 154.222177,43.2021793 153.475277,53.6906291 C152.728377,64.1791489 130.952218,66.9319689 139.284318,81.8164886 C147.617467,96.7009384 163.825057,72.2136088 165.084077,63.8164089 C166.344217,55.4192091 169.641217,37.5471594 134.408188,26.3437296" id="Fill-48" fill="#F4A28C" mask="url(#mask-24)"></path>
                            <path d="M119.268168,63.5284289 L126.545018,63.5284289 C126.545018,63.5284289 152.099357,64.1899289 150.178837,84.5373886 C148.258247,104.884848 137.374928,121.946018 137.374928,121.946018 L111.137738,120.452218 C111.137738,120.452218 82.6491386,64.3393089 119.268168,63.5284289" id="Fill-49" fill="#FC790D" mask="url(#mask-24)"></path>
                            <path d="M119.492238,60.348749 C119.492238,60.348749 113.570448,62.9095589 115.928468,70.5385088 C118.286558,78.1674587 123.813548,85.2736485 123.813548,85.2736485 L126.160928,84.4520586 C126.160928,84.4520586 115.096238,69.3328288 119.268168,63.5284289 L119.492238,60.348749 Z" id="Fill-50" fill="#24285B" mask="url(#mask-24)"></path>
                            <path d="M125.754998,60.167519 C125.754998,60.167519 130.728218,60.999749 129.628168,70.5172988 C129.042408,75.3891587 127.881528,80.1735186 126.171148,84.7722386 L123.727728,84.6548486 C123.727728,84.6548486 127.472868,72.5552088 126.288538,63.5071489 L125.754998,60.167519 Z" id="Fill-51" fill="#24285B" mask="url(#mask-24)"></path>
                            <path d="M126.779308,81.8166986 C129.944008,81.8166986 132.510138,84.3817086 132.510138,87.5464085 C132.510138,90.7111085 129.944008,93.2761184 126.779308,93.2761184 C123.615728,93.2761184 121.049598,90.7111085 121.049598,87.5464085 C121.049598,84.3817086 123.615728,81.8166986 126.779308,81.8166986" id="Fill-52" fill="#FFD200" mask="url(#mask-24)"></path>
                            <path d="M111.126748,120.441858 L115.394648,172.116137 L119.374568,172.116137 L121.316438,138.623378 C121.559758,134.344698 123.856948,130.449128 127.483648,128.166848 L137.385288,121.935658 L111.126748,120.441858 Z" id="Fill-53" fill="#F4A28C" mask="url(#mask-24)"></path>
                            <polygon id="Fill-54" fill="#F4A28C" mask="url(#mask-24)" points="137.364288 121.935518 142.772838 172.115997 138.484638 172.115997 125.616748 126.011478"></polygon>
                            <polygon id="Fill-55" fill="#24285B" mask="url(#mask-24)" points="111.126748 120.441858 109.291488 140.521498 122.906278 141.610908 125.435028 134.162278 126.758098 141.610908 141.802638 141.610908 137.363938 121.935658"></polygon>
                            <path d="M115.373298,172.115787 C115.373298,172.115787 108.021758,174.441817 109.291488,176.917227 L119.961378,176.917227 L119.310518,172.115787 L115.373298,172.115787 Z" id="Fill-56" fill="#FC790D" mask="url(#mask-24)"></path>
                            <path d="M142.293898,172.115787 C142.293898,172.115787 149.645437,174.441817 148.374657,176.917227 L137.651428,176.917227 L138.303338,172.115787 L142.293898,172.115787 Z" id="Fill-57" fill="#FC790D" mask="url(#mask-24)"></path>
                            <path d="M51.5462001,92.7210884 L58.823064,92.7210884 C58.823064,92.7210884 78.8717987,92.7210884 78.5943187,113.111248 C78.3169087,133.502458 71.3388188,143.627118 71.3388188,143.627118 L45.1762842,143.627118 C45.1762842,143.627118 12.3130418,97.5118883 51.5462001,92.7210884" id="Fill-58" fill="#FC790D" mask="url(#mask-24)"></path>
                            <path d="M56.059562,80.7388386 C56.059562,80.7388386 55.4086951,79.3410786 54.3950601,79.9172486 C53.3814181,80.4934186 54.3097021,82.5313286 55.835492,82.0511986 L56.059562,80.7388386 Z" id="Fill-59" fill="#F4A28C" mask="url(#mask-24)"></path>
                        </g>
                        <g transform="translate(0.000000, 0.437500)">
                            <g transform="translate(41.999999, 100.799998)">
                                <mask id="mask-26" fill="white">
                                    <use xlink:href="#path-25"></use>
                                </mask>
                                <g id="Clip-61"></g>
                                <path d="M3.61374994,0.457029992 C3.61374994,0.457029992 11.4454408,11.7137298 12.9712308,21.1352396 C14.4970278,30.5567495 20.4401537,17.3581097 20.4401537,17.3581097 L23.7158036,7.84055987 C23.7158036,7.84055987 31.4834795,10.9454798 26.6927005,19.0119297 C21.9019286,27.0783795 16.6523417,36.0090494 21.7312056,42.8057693 L3.17628495,42.8057693 C3.17628495,42.8057693 1.54378697,40.4797393 0.796900986,39.1673093 C0.0500079991,37.8549494 3.61374994,0.457029992 3.61374994,0.457029992" id="Fill-60" fill-opacity="0.08" fill="#000000" mask="url(#mask-26)"></path>
                            </g>
                            <mask id="mask-28" fill="white">
                                <use xlink:href="#path-27"></use>
                            </mask>
                            <g id="Clip-63"></g>
                            <path d="M51.7916061,89.7659685 C51.7916061,89.7659685 46.2646092,92.4867984 48.5906462,100.105108 C50.9166761,107.723348 56.465016,114.850888 56.465016,114.850888 L58.812389,114.029298 C58.812389,114.029298 47.6303512,98.5046283 51.8022811,92.6895184 L51.7916061,89.7659685 Z" id="Fill-62" fill="#24285B" mask="url(#mask-28)"></path>
                            <path d="M58.086734,89.6269485 C58.086734,89.6269485 63.4216719,90.5979185 62.2693249,100.104758 C61.6899489,104.979838 60.532268,109.768468 58.822952,114.370408 L56.379553,114.242378 C56.379553,114.242378 60.124679,102.142738 58.929653,93.1053184 L58.086734,89.6269485 Z" id="Fill-64" fill="#24285B" mask="url(#mask-28)"></path>
                            <path d="M57.990918,111.511048 C61.155604,111.511048 63.7206419,114.076128 63.7206419,117.240828 C63.7206419,120.404408 61.155604,122.970538 57.990918,122.970538 C54.8262321,122.970538 52.2611871,120.404408 52.2611871,117.240828 C52.2611871,114.076128 54.8262321,111.511048 57.990918,111.511048" id="Fill-65" fill="#FFD200" mask="url(#mask-28)"></path>
                            <path d="M45.6137492,101.257028 C44.4859372,98.2811883 41.1601393,96.7831184 38.1843063,97.9098383 C37.3125754,98.2405883 36.5336784,98.7773483 35.9148224,99.4751083 C32.2977334,103.625688 28.5739435,110.016968 29.5128955,118.147398 C31.3267775,133.085258 36.7790844,145.675738 49.4869122,137.353228 C62.1947399,129.030718 65.6624559,114.861108 65.6624559,114.861108 C65.6624559,114.861108 68.3832718,106.805368 64.5954669,106.079818 C60.807662,105.354198 62.1627359,113.548678 62.1627359,113.548678 L45.5177162,128.753308 C48.8349812,119.894108 48.8691272,110.139678 45.6137492,101.257028" id="Fill-66" fill="#F4A28C" mask="url(#mask-28)"></path>
                            <polygon id="Fill-67" fill="#F4A28C" mask="url(#mask-28)" points="45.1760672 143.606188 49.5400492 191.555578 53.4025441 191.555578 57.830548 154.500147 71.3279688 143.606188"></polygon>
                            <polygon id="Fill-68" fill="#F4A28C" mask="url(#mask-28)" points="71.3282488 143.606188 78.6050987 191.555578 74.2411587 191.555578 60.402313 149.057437"></polygon>
                            <polygon id="Fill-69" fill="#24285B" mask="url(#mask-28)" points="45.1760672 143.606188 45.1760672 163.761567 59.751124 162.673277 60.401991 155.044327 71.3279688 143.606188"></polygon>
                            <polygon id="Fill-70" fill="#24285B" mask="url(#mask-28)" points="60.401991 151.779457 62.4292679 162.491977 76.9616387 161.403687 71.3279688 143.606328"></polygon>
                            <path d="M53.3389561,189.550281 C53.3389561,189.550281 60.690503,191.877382 59.420787,194.351728 L48.7509042,194.351728 L49.4017712,189.550281 L53.3389561,189.550281 Z" id="Fill-71" fill="#FC790D" mask="url(#mask-28)"></path>
                            <path d="M77.7087487,189.550281 C77.7087487,189.550281 85.0602886,191.877382 83.7905586,194.351728 L73.1313788,194.351728 L73.7822387,189.550281 L77.7087487,189.550281 Z" id="Fill-72" fill="#FC790D" mask="url(#mask-28)"></path>
                            <path d="M200.785547,110.796278 L193.509747,110.796278 C193.509747,110.796278 173.449287,110.796278 173.727747,131.185388 C174.004107,151.576597 180.992907,161.702307 180.992907,161.702307 L207.144766,161.702307 C207.144766,161.702307 240.019776,115.651128 200.785547,110.796278" id="Fill-73" fill="#FC790D" mask="url(#mask-28)"></path>
                            <path d="M200.252007,107.829748 C200.252007,107.829748 205.672316,110.753298 203.016587,118.286208 C200.359807,125.819188 194.576687,132.722588 194.576687,132.722588 L192.261367,131.804958 C192.261367,131.804958 203.998197,116.728428 200.093037,110.774648 L200.252007,107.829748 Z" id="Fill-74" fill="#24285B" mask="url(#mask-28)"></path>
                            <path d="M194.298157,107.488498 C194.298157,107.488498 188.589727,108.214048 189.327037,117.763658 C189.722887,122.651478 190.697077,127.476438 192.229237,132.135988 L194.672657,132.135988 C194.672657,132.135988 190.404687,118.062348 193.509607,110.796208 L194.298157,107.488498 Z" id="Fill-75" fill="#24285B" mask="url(#mask-28)"></path>
                            <path d="M192.943447,129.308128 C196.108147,129.308128 198.673227,131.873138 198.673227,135.037838 C198.673227,138.202538 196.108147,140.767548 192.943447,140.767548 C189.778817,140.767548 187.213737,138.202538 187.213737,135.037838 C187.213737,131.873138 189.778817,129.308128 192.943447,129.308128" id="Fill-76" fill="#FFD200" mask="url(#mask-28)"></path>
                            <polygon id="Fill-77" fill="#F4A28C" mask="url(#mask-28)" points="207.144696 161.680327 202.780687 209.630781 198.918157 209.630781 194.491287 172.574287 180.992767 161.680327"></polygon>
                            <polygon id="Fill-78" fill="#F4A28C" mask="url(#mask-28)" points="180.993117 161.680327 173.726907 209.630781 178.081327 209.630781 191.929707 167.132627"></polygon>
                            <polygon id="Fill-79" fill="#24285B" mask="url(#mask-28)" points="207.144696 161.680327 207.144696 181.836827 192.581337 180.747417 191.929427 173.119517 180.992767 161.680327"></polygon>
                        </g>
                        <g transform="translate(0.000000, 0.437500)">
                            <g transform="translate(191.799997, 122.499998)">
                                <mask id="mask-30" fill="white">
                                    <use xlink:href="#path-29"></use>
                                </mask>
                                <g id="Clip-81"></g>
                                <path d="M12.0050698,0.491679992 C12.0050698,0.491679992 8.67607985,7.70447987 15.3447697,15.7389397 C22.0134596,23.7733296 0.172199997,39.2126693 0.172199997,39.2126693 L14.5231798,39.2126693 L26.5054995,27.4757695 L27.8711995,11.9510998 L12.0050698,0.491679992 Z" id="Fill-80" fill-opacity="0.08" fill="#000000" mask="url(#mask-30)"></path>
                            </g>
                            <mask id="mask-32" fill="white">
                                <use xlink:href="#path-31"></use>
                            </mask>
                            <g id="Clip-83"></g>
                            <polygon id="Fill-82" fill="#24285B" mask="url(#mask-32)" points="191.929707 169.853667 189.903557 180.566257 175.359377 179.478947 180.993117 161.680537"></polygon>
                            <path d="M199.035967,207.625484 C199.035967,207.625484 191.684427,209.951521 192.954157,212.426931 L203.624047,212.426931 L202.973187,207.625484 L199.035967,207.625484 Z" id="Fill-84" fill="#FC790D" mask="url(#mask-32)"></path>
                            <path d="M174.623397,207.625484 C174.623397,207.625484 167.261147,209.951521 168.530877,212.426931 L179.254107,212.426931 L178.602197,207.625484 L174.623397,207.625484 Z" id="Fill-85" fill="#FC790D" mask="url(#mask-32)"></path>
                            <path d="M197.969027,90.1604185 C196.229807,89.8424785 194.563177,90.9948185 194.245237,92.7339684 C194.140657,93.3016684 194.192947,93.8874284 194.394617,94.4283884 C194.717877,95.0920584 195.255617,95.6255284 195.920407,95.9434684 C198.758557,97.3732883 195.226847,100.424868 199.953597,101.726588 C199.953597,101.726588 205.288507,99.3472183 203.389267,96.2209484 C203.389267,96.2209484 203.997497,91.4514984 201.009897,90.8859685 C199.814857,90.6299085 198.811897,90.3311485 197.969027,90.1604185" id="Fill-86" fill="#24285B" mask="url(#mask-32)"></path>
                            <path d="M197.329227,99.8486983 C197.329227,99.8486983 197.979037,98.4509383 198.993757,99.0271083 C200.007357,99.6032783 199.079087,101.641188 197.553297,101.161058 L197.329227,99.8486983 Z" id="Fill-87" fill="#F4A28C" mask="url(#mask-32)"></path>
                            <path d="M204.370947,118.777398 C205.365367,115.420618 208.890706,113.505348 212.247416,114.498718 C212.859916,114.680158 213.442456,114.954348 213.973826,115.309668 C220.044996,119.310868 228.580866,126.758448 229.103696,137.225618 C229.925286,153.571877 206.355516,163.237687 206.355516,163.237687 C206.355516,163.237687 206.462196,168.915177 203.954797,168.328297 C201.447397,167.741487 203.367987,159.877757 203.367987,159.877757 C203.367987,159.877757 218.071066,148.621057 215.211496,140.127818 C212.725446,132.989638 201.169987,129.447288 204.370947,118.777398" id="Fill-88" fill="#F4A28C" mask="url(#mask-32)"></path>
                        </g>
                        <g transform="translate(121.099998, 199.937497)">
                            <mask id="mask-34" fill="white">
                                <use xlink:href="#path-33"></use>
                            </mask>
                            <g id="Clip-89"></g>
                            <text id="1" mask="url(#mask-34)" font-family="Arial-BoldMT, Arial" font-size="16.207552" font-weight="bold" fill="#000000">
                                <tspan x="0.23812287" y="11.281411">1</tspan>
                            </text>
                        </g>
                        <g transform="translate(58.099999, 210.437496)">
                            <mask id="mask-36" fill="white">
                                <use xlink:href="#path-35"></use>
                            </mask>
                            <g id="Clip-90"></g>
                            <text id="2" mask="url(#mask-36)" font-family="Arial-BoldMT, Arial" font-size="16.207552" font-weight="bold" fill="#000000">
                                <tspan x="0.157667876" y="11.451294">2</tspan>
                            </text>
                        </g>
                        <g transform="translate(181.299997, 218.137496)">
                            <mask id="mask-38" fill="white">
                                <use xlink:href="#path-37"></use>
                            </mask>
                            <g id="Clip-91"></g>
                            <text id="3" mask="url(#mask-38)" font-family="Arial-BoldMT, Arial" font-size="16.207552" font-weight="bold" fill="#000000">
                                <tspan x="0.504243127" y="11.4869592">3</tspan>
                            </text>
                        </g>
                    </g>
                    <g id="独家解决方案备份" transform="translate(0.000000, 268.000000)">
                        <rect id="Rectangle-3" fill="#FC790D" x="0.5098135" y="-2.13162821e-14" width="276" height="44.8081879" rx="4.8990285"></rect>
                        <text id="员工绩效管理" font-family="FZLTCHJW--GB1-0, FZLanTingHeiS-B-GB" font-size="24.4951425" font-weight="normal" line-spacing="29.394171" fill="#FFFFFF">
                            <tspan x="119.20103" y="29.3485428">员工绩效管理</tspan>
                        </text>
                        <g id="句客宝logo" transform="translate(13.196352, 8.981552)">
                            <path d="M11.430953,-2.3625546e-13 C14.5313149,-2.3625546e-13 17.2121507,1.10905154 19.4723253,3.32404366 C21.7315917,5.54036905 22.862133,8.16911673 22.862133,11.208509 C22.862133,17.9610352 18.0530192,22.9325459 8.43547259,26.128152 L8.43547259,26.128152 L8.43547259,22.031261 C5.85974537,21.3086331 3.80978796,19.9304849 2.28605439,17.8954831 C0.761185737,15.8600369 0,13.6321566 0,11.208509 C0,8.16911673 1.1291792,5.54036905 3.38980776,3.32404366 C5.64862019,1.10905154 8.32922895,-2.3625546e-13 11.430953,-2.3625546e-13 Z M7.13283022,10.5876535 C7.08016243,12.6793189 8.96553301,14.4212253 11.3444371,14.4792222 C11.4400109,14.4821109 11.5335417,14.4763335 11.6272994,14.4738892 C11.6272994,14.4743336 12.0325236,14.7549852 12.4770215,14.9789731 C12.9725982,15.2280709 13.5814559,15.3953952 13.9353744,15.365619 C14.4037091,15.3262878 14.4774894,15.0314148 14.3837316,14.880534 C14.2947412,14.7367639 14.139235,14.7303198 13.9889502,14.6378804 C13.8084723,14.5263308 13.7285625,14.4698894 13.6543282,14.2967876 C13.5691971,14.0974649 13.6677221,13.9494729 13.8550106,13.8505893 C13.8550106,13.8505893 13.8697667,13.8368123 13.8951925,13.8125914 C14.98646,13.1501825 15.7151824,12.0551302 15.7469647,10.7965311 C15.7998595,8.70508794 13.9144889,6.96251488 11.5353578,6.90451799 C9.15668076,6.84696553 7.18572502,8.49576585 7.13283022,10.5876535 Z" id="形状结合" fill="#FFFFFF"></path>
                            <path d="M42.5343205,24.1821127 C43.0590911,24.1821127 43.6261819,24.0662271 44.2355929,23.8344557 C44.8450039,23.6026844 45.4120946,23.2301947 45.9368652,22.7169867 C46.4616358,22.2037788 46.905998,21.5332974 47.2699518,20.7055426 C47.6339056,19.8777878 47.8243465,18.8679269 47.8412746,17.67596 L47.8412746,17.67596 L47.9682352,6.32744156 C48.0020914,5.76456829 47.8158825,5.2844705 47.4096085,4.8871482 C46.9864064,4.47327079 46.4531718,4.26633209 45.8099046,4.26633209 L45.8099046,4.26633209 L35.4245254,4.26633209 C35.543022,3.93523017 35.6530546,3.58343438 35.7546231,3.21094471 C35.8561916,2.83845505 35.9746882,2.44527152 36.1101128,2.03139411 C36.1947532,1.78306767 36.1693611,1.54715755 36.0339365,1.32366375 C35.8985118,1.10016996 35.7038388,0.947035316 35.4499176,0.864259835 C35.1790682,0.781484355 34.929379,0.806316999 34.7008499,0.938757768 C34.4723208,1.07119854 34.315736,1.26158214 34.2310956,1.50990858 C33.9433182,2.48665926 33.6682368,3.36407935 33.4058515,4.14216887 C33.1434662,4.92025839 32.8683849,5.6362663 32.5806074,6.29019259 C32.29283,6.94411889 31.9754285,7.55665745 31.6284027,8.12780827 C31.281377,8.69895908 30.8793351,9.26597113 30.4222768,9.82884439 C30.252996,10.0440606 30.1852836,10.2799708 30.2191398,10.5365748 C30.252996,10.7931787 30.3799566,11.0042562 30.6000217,11.1698072 C30.7862306,11.302248 30.9809036,11.3684683 31.1840406,11.3684683 C31.3194652,11.3684683 31.4591219,11.3394969 31.6030106,11.2815541 C31.7468993,11.2236112 31.8696279,11.1284194 31.9711964,10.9959787 C32.5975355,10.2178892 33.1265381,9.45221596 33.5582043,8.69895908 C33.9898704,7.94570221 34.3834483,7.09725353 34.7389381,6.15361305 L34.7389381,6.15361305 L45.8099046,6.15361305 C45.9114731,6.15361305 45.9791854,6.1784457 46.0130416,6.22811098 C46.0299697,6.22811098 46.0384337,6.25294363 46.0384337,6.30260892 L46.0384337,6.30260892 L45.886081,17.6511273 C45.8691529,18.5947678 45.7294962,19.3645798 45.4671109,19.9605632 C45.2047256,20.5565467 44.8957881,21.0283669 44.5402984,21.376024 C44.1848086,21.723681 43.8166228,21.9595911 43.4357409,22.0837543 C43.054859,22.2079175 42.7543856,22.2699991 42.5343205,22.2699991 L42.5343205,22.2699991 L41.8995173,22.2699991 C41.6117399,22.253444 41.3747468,22.3362195 41.1885378,22.5183256 C41.0023289,22.7004316 40.9092245,22.9239254 40.9092245,23.188807 C40.8922964,23.4702436 40.9769368,23.702015 41.1631457,23.884121 C41.3493546,24.0662271 41.5778838,24.1655577 41.8487331,24.1821127 L41.8487331,24.1821127 L42.5343205,24.1821127 Z M41.5688488,18.718931 C42.0259071,18.718931 42.415253,18.5616576 42.7368866,18.2471108 C43.0585201,17.932564 43.2193369,17.5517967 43.2193369,17.1048091 L43.2193369,17.1048091 L43.2193369,10.8718155 C43.2193369,10.4248279 43.0585201,10.0440606 42.7368866,9.72951382 C42.415253,9.41496699 42.0259071,9.25769358 41.5688488,9.25769358 L41.5688488,9.25769358 L35.6270915,9.25769358 C35.1700333,9.25769358 34.7806874,9.41496699 34.4590538,9.72951382 C34.1374202,10.0440606 33.9766034,10.4248279 33.9766034,10.8718155 L33.9766034,10.8718155 L33.9766034,17.1048091 C33.9766034,17.5517967 34.1374202,17.932564 34.4590538,18.2471108 C34.7806874,18.5616576 35.1700333,18.718931 35.6270915,18.718931 L35.6270915,18.718931 L41.5688488,18.718931 Z M41.2641433,16.8068174 L35.931797,16.8068174 L35.931797,11.1449745 L41.2641433,11.1449745 L41.2641433,16.8068174 Z M71.3532406,8.41338367 C71.6240899,8.41338367 71.8568511,8.31819187 72.051524,8.12780827 C72.246197,7.93742466 72.3435335,7.71806964 72.3435335,7.46974319 L72.3435335,7.46974319 L72.3435335,4.76298498 C72.3435335,4.31599738 72.1784847,3.93523017 71.848387,3.62068334 C71.5182894,3.30613652 71.1247115,3.1488631 70.6676532,3.1488631 L70.6676532,3.1488631 L64.929033,3.1488631 L64.0403086,1.38574536 C63.9048839,1.15397402 63.714443,0.992561831 63.4689858,0.901508802 C63.2235286,0.810455773 62.9823034,0.822872095 62.7453102,0.938757768 C62.508317,1.05464344 62.3390362,1.2367495 62.2374677,1.48507594 C62.1358992,1.73340238 62.1528273,1.97345128 62.288252,2.20522262 L62.288252,2.20522262 L62.7707023,3.12403046 L56.6258081,3.12403046 C56.1518217,3.12403046 55.7540118,3.28130387 55.4323782,3.5958507 C55.1107446,3.91039752 54.9499278,4.29116474 54.9499278,4.73815233 L54.9499278,4.73815233 L54.9499278,7.44491055 C54.9499278,7.72634718 55.0472643,7.95811853 55.2419372,8.14022459 C55.4366102,8.32233065 55.6693713,8.41338367 55.9402207,8.41338367 C56.21107,8.41338367 56.4395991,8.31819187 56.6258081,8.12780827 C56.812017,7.93742466 56.9051214,7.71806964 56.9051214,7.46974319 L56.9051214,7.46974319 L56.9051214,5.06097671 L70.3883399,5.06097671 L70.3883399,7.46974319 C70.3883399,7.71806964 70.4814443,7.93742466 70.6676532,8.12780827 C70.8538621,8.31819187 71.0823913,8.41338367 71.3532406,8.41338367 Z M71.8864752,16.906148 C72.1234684,16.906148 72.3308374,16.8357888 72.5085823,16.6950705 C72.6863272,16.5543522 72.7921277,16.3681074 72.8259839,16.136336 C72.8936962,15.8714545 72.851376,15.6314056 72.6990232,15.4161893 C72.5466705,15.2009731 72.3350694,15.0685323 72.0642201,15.018867 C70.625333,14.7374304 69.3684228,14.451855 68.2934895,14.1621408 C67.2185562,13.8724266 66.2748156,13.5454635 65.4622676,13.1812514 C66.3425279,12.601823 67.1254518,11.9727293 67.8110392,11.2939704 C68.4966265,10.6152115 69.1018055,9.86195459 69.6265761,9.03419978 C69.7281446,8.88520391 69.7831609,8.71551418 69.7916249,8.52513057 C69.800089,8.33474697 69.7704648,8.16091846 69.7027525,8.00364505 C69.6350401,7.84637163 69.5292396,7.70979209 69.3853509,7.59390642 C69.2414622,7.47802074 69.0679493,7.42007791 68.8648123,7.42007791 L68.8648123,7.42007791 L61.4757039,7.42007791 C61.5434163,7.28763714 61.6026646,7.17175146 61.6534488,7.07242089 C61.7042331,6.97309031 61.7550173,6.85720464 61.8058016,6.72476387 C61.9242982,6.49299252 61.9369942,6.2570824 61.8438898,6.01703351 C61.7507853,5.77698461 61.5772724,5.59073978 61.3233512,5.45829901 C61.086358,5.34241334 60.8451328,5.32999702 60.5996756,5.42105005 C60.3542184,5.51210308 60.1637775,5.68179281 60.0283528,5.93011925 C59.5882227,6.84064954 59.0211319,7.70151454 58.3270804,8.51271425 C57.633029,9.32391396 56.812017,10.0606157 55.8640443,10.7228196 C55.6270511,10.8718155 55.4916265,11.0746154 55.4577703,11.3312194 C55.4239141,11.5878234 55.4746984,11.8237335 55.6101231,12.0389497 C55.8301881,12.3038313 56.1010375,12.436272 56.4226711,12.436272 C56.6427361,12.436272 56.820481,12.3700517 56.9559057,12.2376109 C57.2944674,12.0058395 57.620333,11.7657906 57.9335025,11.5174642 C58.246672,11.2691378 58.5471455,11.0042562 58.8349229,10.7228196 C59.2750531,11.1698072 59.7109513,11.5961009 60.1426174,12.0017008 C60.5742835,12.4073006 61.0355738,12.7839291 61.5264882,13.1315861 C59.7659675,13.8931205 57.6838133,14.5222141 55.2800254,15.018867 C55.0091761,15.0685323 54.7975751,15.2051119 54.6452223,15.4286057 C54.4928696,15.6520995 54.4505493,15.8962871 54.5182617,16.1611687 C54.5690459,16.3763849 54.6833105,16.5543522 54.8610554,16.6950705 C55.0388002,16.8357888 55.2461693,16.906148 55.4831624,16.906148 C55.5678028,16.906148 55.6355152,16.8978704 55.6862994,16.8813153 C57.226755,16.5667685 58.64025,16.1984176 59.9267843,15.7762627 C61.2133187,15.3541077 62.3982845,14.8781487 63.4816818,14.3483856 C64.4804387,14.8781487 65.6357804,15.3458302 66.9477069,15.75143 C68.2596334,16.1570299 69.8466412,16.5336583 71.7087304,16.8813153 C71.7425865,16.8813153 71.7722107,16.8854541 71.7976028,16.8937317 C71.8229949,16.9020092 71.8526191,16.906148 71.8864752,16.906148 Z M63.4562897,12.1382803 C62.8638068,11.7575131 62.296716,11.3353581 61.7550173,10.8718155 C61.2133187,10.4082728 60.67162,9.89506478 60.1299213,9.33219151 L60.1299213,9.33219151 L66.960403,9.33219151 C66.0124303,10.4248279 64.8443925,11.3601908 63.4562897,12.1382803 Z M68.5601068,23.8592884 C68.9663808,23.8592884 69.3176386,23.7144313 69.61388,23.4247171 C69.9101215,23.1350029 70.0582422,22.7914847 70.0582422,22.3941624 L70.0582422,22.3941624 L70.0582422,18.0732823 C70.0582422,17.6594049 69.9143535,17.3076091 69.6265761,17.0178949 C69.3387987,16.7281807 68.9833089,16.5833236 68.5601068,16.5833236 L68.5601068,16.5833236 L58.6571781,16.5833236 C58.2509041,16.5833236 57.8996463,16.7281807 57.6034049,17.0178949 C57.3071634,17.3076091 57.1590427,17.6676824 57.1590427,18.0981149 L57.1590427,18.0981149 L57.1590427,22.3941624 C57.1590427,22.7914847 57.3029314,23.1350029 57.5907088,23.4247171 C57.8784862,23.7144313 58.233976,23.8592884 58.6571781,23.8592884 L58.6571781,23.8592884 L68.5601068,23.8592884 Z M68.1284407,21.9720074 L59.1142363,21.9720074 L59.1142363,18.4706046 L68.1284407,18.4706046 L68.1284407,21.9720074 Z M79.4781497,8.81070598 C79.748999,8.81070598 79.9775282,8.71551418 80.1637371,8.52513057 C80.349946,8.33474697 80.4430505,8.1071144 80.4430505,7.84223286 L80.4430505,7.84223286 L80.4430505,5.80595603 L93.9262689,5.80595603 L93.9262689,7.84223286 C93.9262689,8.0905593 94.0193733,8.30991432 94.2055823,8.50029793 C94.3917912,8.69068153 94.6203203,8.78587334 94.8911696,8.78587334 C95.162019,8.78587334 95.3947801,8.69068153 95.5894531,8.50029793 C95.784126,8.30991432 95.8814625,8.08228175 95.8814625,7.81740021 L95.8814625,7.81740021 L95.8814625,5.35896844 C95.8814625,4.94509103 95.7206457,4.59743401 95.3990121,4.31599738 C95.0773786,4.03456075 94.6795686,3.89384243 94.2055823,3.89384243 L94.2055823,3.89384243 L88.9494124,3.89384243 C88.9324843,3.77795676 88.8901641,3.66207108 88.8224517,3.54618541 L88.8224517,3.54618541 L87.3497085,1.33608008 C87.2142838,1.10430873 87.0153788,0.963590412 86.7529935,0.913925124 C86.4906083,0.864259835 86.240919,0.905647576 86.0039259,1.03808834 C85.7669327,1.18708421 85.623044,1.38988414 85.5722597,1.64648813 C85.5214755,1.90309212 85.5722597,2.13900224 85.7246125,2.35421849 L85.7246125,2.35421849 L86.7149054,3.91867507 L80.1637371,3.91867507 C79.6897508,3.91867507 79.2919408,4.06353216 78.9703072,4.35324635 C78.6486736,4.64296053 78.4878568,4.98647877 78.4878568,5.38380108 L78.4878568,5.38380108 L78.4878568,7.84223286 C78.4878568,8.1071144 78.5851933,8.33474697 78.7798663,8.52513057 C78.9745392,8.71551418 79.2073004,8.81070598 79.4781497,8.81070598 Z M95.0689145,23.8344557 C95.3566919,23.8344557 95.5936851,23.7392639 95.779894,23.5488803 C95.9661029,23.3584967 96.0592074,23.1391417 96.0592074,22.8908152 C96.0592074,22.6259337 95.9618709,22.3983011 95.767198,22.2079175 C95.572525,22.0175339 95.3397638,21.9223421 95.0689145,21.9223421 L95.0689145,21.9223421 L88.060688,21.9223421 L88.060688,16.558491 L93.5707791,16.558491 C93.8585566,16.558491 94.0955497,16.4674379 94.2817586,16.2853319 C94.4679676,16.1032258 94.561072,15.879732 94.561072,15.6148505 C94.561072,15.349969 94.4637355,15.1223364 94.2690626,14.9319528 C94.0743896,14.7415692 93.8416285,14.6463774 93.5707791,14.6463774 L93.5707791,14.6463774 L88.060688,14.6463774 L88.060688,10.9463134 L94.3833271,10.9463134 C94.6711046,10.9463134 94.9080977,10.8552604 95.0943066,10.6731543 C95.2805156,10.4910482 95.37362,10.2675544 95.37362,10.0026729 C95.37362,9.73779137 95.2762835,9.51015879 95.0816106,9.31977519 C94.8869376,9.12939158 94.6541765,9.03419978 94.3833271,9.03419978 L94.3833271,9.03419978 L81.0524615,9.03419978 C80.7646841,9.03419978 80.5319229,9.12939158 80.354178,9.31977519 C80.1764332,9.51015879 80.0875607,9.73779137 80.0875607,10.0026729 C80.0875607,10.2675544 80.1806652,10.4910482 80.3668741,10.6731543 C80.553083,10.8552604 80.7816121,10.9463134 81.0524615,10.9463134 L81.0524615,10.9463134 L86.0801022,10.9463134 L86.0801022,14.6463774 L81.0524615,14.6463774 C80.7646841,14.6463774 80.5319229,14.7415692 80.354178,14.9319528 C80.1764332,15.1223364 80.0875607,15.349969 80.0875607,15.6148505 C80.0875607,15.879732 80.1806652,16.1032258 80.3668741,16.2853319 C80.553083,16.4674379 80.7816121,16.558491 81.0524615,16.558491 L81.0524615,16.558491 L86.0801022,16.558491 L86.0801022,21.9223421 L79.1988363,21.9223421 C78.927987,21.9223421 78.6994579,22.0175339 78.513249,22.2079175 C78.32704,22.3983011 78.2339356,22.6259337 78.2339356,22.8908152 C78.2339356,23.1391417 78.3312721,23.3584967 78.525945,23.5488803 C78.720618,23.7392639 78.9449151,23.8344557 79.1988363,23.8344557 L79.1988363,23.8344557 L95.0689145,23.8344557 Z" id="句客宝" stroke="#FFFFFF" stroke-width="0.707199981" fill="#FFFFFF" fill-rule="nonzero"></path>
                            <circle id="椭圆形" stroke="#FFFFFF" stroke-width="1.32626505" fill="#FC790D" fill-rule="nonzero" cx="91.9920012" cy="19.2355456" r="1.91571618"></circle>
                        </g>
                    </g>
                </g>
            </g>
        </g>
    </g>
</svg>