<?xml version="1.0" encoding="UTF-8"?>
<svg width="221px" height="254px" viewBox="0 0 221 254" version="1.1" xmlns="http://www.w3.org/2000/svg" xmlns:xlink="http://www.w3.org/1999/xlink">
    <title>4-话术快捷回复</title>
    <defs>
        <polyline id="path-1" points="162.984827 0.651848792 162.984973 24.0822955 0 24.0822955 0 0.651163637"></polyline>
        <polygon id="path-3" points="0 141.604866 162.984973 141.604866 162.984973 0.273755595 0 0.273755595"></polygon>
        <polygon id="path-5" points="0 141.604866 162.984973 141.604866 162.984973 0.273755595 0 0.273755595"></polygon>
        <polygon id="path-7" points="0.711420326 0.395102123 49.6813175 0.395102123 49.6813175 77.2373663 0.711420326 77.2373663"></polygon>
        <polygon id="path-9" points="0 141.604866 162.984973 141.604866 162.984973 0.273755595 0 0.273755595"></polygon>
        <polygon id="path-11" points="0.597511027 0.155633461 38.5616956 0.155633461 38.5616956 41.7637185 0.597511027 41.7637185"></polygon>
        <polygon id="path-13" points="0.200883301 0.0974342405 2.77422658 0.0974342405 2.77422658 5.78313241 0.200883301 5.78313241"></polygon>
        <polygon id="path-15" points="0 141.604866 162.984973 141.604866 162.984973 0.273755595 0 0.273755595"></polygon>
        <polygon id="path-17" points="0.604963856 0.214431244 35.0947944 0.214431244 35.0947944 46.188363 0.604963856 46.188363"></polygon>
        <polygon id="path-19" points="0 141.604866 162.984973 141.604866 162.984973 0.273755595 0 0.273755595"></polygon>
        <polygon id="path-21" points="0.589313645 0.257637213 14.5065043 0.257637213 14.5065043 9.71503614 0.589313645 9.71503614"></polygon>
        <polygon id="path-23" points="0.271659626 0.629162484 29.40914 0.629162484 29.40914 36.4256463 0.271659626 36.4256463"></polygon>
        <polygon id="path-25" points="0 141.604866 162.984973 141.604866 162.984973 0.273755595 0 0.273755595"></polygon>
        <polygon id="path-27" points="0.266652143 0.0362860061 14.2402318 0.0362860061 14.2402318 14.0098948 0.266652143 14.0098948"></polygon>
        <polyline id="path-29" points="0 141.604866 162.984973 141.604866 162.984973 0.273755595 0 0.273755595"></polyline>
        <polygon id="path-31" points="0.371181535 0.00856965825 15.3705361 0.00856965825 15.3705361 15.0079972 0.371181535 15.0079972"></polygon>
        <polygon id="path-33" points="0.0417533605 0.50096733 17.7743836 0.50096733 17.7743836 13.7051683 0.0417533605 13.7051683"></polygon>
        <polygon id="path-35" points="0.0559144652 0.631004959 3.33348027 0.631004959 3.33348027 3.90846492 0.0559144652 3.90846492"></polygon>
    </defs>
    <g id="最新版备份" stroke="none" stroke-width="1" fill="none" fill-rule="evenodd">
        <g id="十大功能" transform="translate(-857.000000, -200.000000)">
            <g id="4-话术快捷回复" transform="translate(857.250000, 200.000000)">
                <rect id="矩形" fill="#FFFDF8" x="0" y="0" width="219.310578" height="253.050667" rx="16.6399984"></rect>
                <text id="话术快捷回复" font-family="FZLTCHJW--GB1-0, FZLanTingHeiS-B-GB" font-size="26.6239974" font-weight="normal" fill="#000000" fill-opacity="0.7">
                    <tspan x="29.7832967" y="227.498321">话术快捷回复</tspan>
                </text>
                <g id="编组" transform="translate(28.387097, 28.387097)">
                    <g transform="translate(0.000000, 0.456221)">
                        <g transform="translate(0.000000, 117.522571)">
                            <mask id="mask-2" fill="white">
                                <use xlink:href="#path-1"></use>
                            </mask>
                            <g id="Clip-2"></g>
                            <path d="M81.496136,0.651352423 C126.505018,0.651352423 162.992126,5.89677162 162.992126,12.3662942 C162.992126,18.8370621 126.505018,24.0824831 81.496136,24.0824831 C36.4865755,24.0824831 6.25497312e-05,18.8370621 6.25497312e-05,12.3662942 C6.25497312e-05,5.89677162 36.4865755,0.651352423 81.496136,0.651352423" id="Fill-1" fill-opacity="0.45" fill="#E6E6E6" mask="url(#mask-2)"></path>
                        </g>
                        <mask id="mask-4" fill="white">
                            <use xlink:href="#path-3"></use>
                        </mask>
                        <g id="Clip-4"></g>
                        <path d="M43.2406268,38.2226467 L41.895811,40.099139 C41.6468602,40.447546 41.7269288,40.9323084 42.0753285,41.1812956 C42.1672735,41.2469185 42.2729854,41.2919566 42.3836975,41.3126143 L44.2289187,41.6566416 L43.2406268,38.2226467 Z" id="Fill-3" fill="#F4A28C" mask="url(#mask-4)"></path>
                        <polygon id="Fill-5" fill="#E6E6E6" mask="url(#mask-4)" points="107.041382 128.313675 143.1013 128.313675 143.1013 118.817998 107.041382 118.817998"></polygon>
                    </g>
                    <g transform="translate(0.000000, 0.456221)">
                        <polygon id="Fill-6" fill-opacity="0.43" fill="#E6E6E6" points="99.1600704 109.529364 135.219367 109.529364 135.219367 119.024414 99.1600704 119.024414"></polygon>
                        <mask id="mask-6" fill="white">
                            <use xlink:href="#path-5"></use>
                        </mask>
                        <g id="Clip-9"></g>
                        <polygon id="Fill-8" fill="#C9C9C9" mask="url(#mask-6)" points="45.7989107 128.306164 117.186923 128.306164 117.186923 0.273718096 45.7989107 0.273718096"></polygon>
                        <polygon id="Fill-10" fill="#FFFFFF" mask="url(#mask-6)" points="51.7036096 104.975737 110.794345 104.975737 110.794345 14.8728609 51.7036096 14.8728609"></polygon>
                        <path d="M42.9904936,35.0951594 C42.9904936,35.0951594 43.0718104,39.9177455 44.2414885,43.0139908 C44.7043595,44.2681245 46.0960895,44.9098269 47.3502086,44.4469632 C47.3564643,44.4444813 47.3627201,44.4425835 47.3689758,44.4401016 C48.920208,43.8146042 50.840483,42.5636092 51.1219605,39.9990624 L52.1165007,35.6580998 C52.3297932,33.8429235 51.3777874,32.0896474 49.7396104,31.2796176 C46.7872609,29.5907963 42.7903329,32.1553432 42.9904936,35.0951594" id="Fill-11" fill="#F4A28C" mask="url(#mask-6)"></path>
                    </g>
                    <g transform="translate(0.000000, 0.456221)">
                        <g transform="translate(50.366816, 27.738246)">
                            <mask id="mask-8" fill="white">
                                <use xlink:href="#path-7"></use>
                            </mask>
                            <g id="Clip-13"></g>
                            <path d="M3.93272858,0.964196046 C3.93272858,0.964196046 10.0751151,-2.2320529 10.8569905,6.52491151 C11.6388587,15.2818759 12.233085,21.3804214 18.9196447,22.6064519 C25.6061972,23.8324094 37.4969265,17.0895336 43.2764822,26.6095918 C49.0561108,36.12965 54.1976868,58.8984071 43.2764822,63.445151 L45.8348244,77.2373663 L1.33691778,77.2373663 L1.33691778,63.445151 L0.711420326,13.255232 L3.93272858,0.964196046 Z" id="Fill-12" fill-opacity="0.08" fill="#000000" mask="url(#mask-8)"></path>
                        </g>
                        <mask id="mask-10" fill="white">
                            <use xlink:href="#path-9"></use>
                        </mask>
                        <g id="Clip-15"></g>
                        <polygon id="Fill-14" fill="#F4A28C" mask="url(#mask-10)" points="51.4783678 36.840333 59.5723005 50.6450014 51.6409942 54.3479843 49.032672 43.1578647"></polygon>
                        <path d="M52.785591,36.7841266 L53.1171069,39.6426989 C51.7222454,40.3588566 50.0152629,39.9866531 49.0451177,38.754491 C48.0368178,37.5147374 47.857928,35.796499 48.5885097,34.3760088 C48.5885097,34.3760088 48.13815,36.1711844 46.524368,35.2891811 C44.9105861,34.4072509 43.9222942,34.5698846 43.9348057,35.7208028 C43.9473171,36.8717211 41.9582366,37.0280772 40.8761238,34.832595 C39.7940183,32.6371128 43.1091476,33.187498 41.9832521,31.9427807 C40.8573567,30.6980633 39.3624185,29.9162098 41.257678,28.5087857 C43.1529375,27.1014347 43.1341704,29.7597807 44.3851653,28.1835183 C45.6361602,26.607329 45.6361602,25.056031 47.9379894,25.5877294 C50.2398186,26.1194278 48.9888237,28.4525063 51.215599,27.8019714 C53.442367,27.1515096 54.1741968,27.5768537 54.6933619,29.9849714 C55.0248778,31.5549562 55.2750768,32.712152 54.5494953,33.2375728 C53.3566704,34.0075281 52.6805142,35.3680161 52.785591,36.7841266" id="Fill-16" fill="#24285B" mask="url(#mask-10)"></path>
                        <path d="M48.5197626,38.6667506 C48.5197626,38.6667506 48.3633919,36.7902582 49.7707575,36.7902582 C51.1781305,36.7902582 51.415818,39.4611594 49.5580928,39.9177455 L48.5197626,38.6667506 Z" id="Fill-17" fill="#F4A28C" mask="url(#mask-10)"></path>
                        <path d="M48.5136967,56.3620729 C48.5136967,56.3620729 33.5518033,66.595223 42.9843035,87.2366318 L18.8463574,86.1795419 L18.8463574,92.0154353 L56.2823766,97.9701653 C56.2823766,97.9701653 59.8352007,73.4256494 48.5136967,56.3620729" id="Fill-18" fill="#FC790D" mask="url(#mask-10)"></path>
                    </g>
                    <g transform="translate(18.248846, 56.662668)">
                        <mask id="mask-12" fill="white">
                            <use xlink:href="#path-11"></use>
                        </mask>
                        <g id="Clip-20"></g>
                        <path d="M30.2648503,0.155626162 C30.2648503,0.155626162 15.302957,10.3887762 24.7354572,31.0301851 L0.597511027,29.9730951 L0.597511027,35.8089885 L38.0335302,41.7637185 C38.0335302,41.7637185 41.5863543,17.2192026 30.2648503,0.155626162" id="Fill-19" fill-opacity="0.2" fill="#FFFFFF" mask="url(#mask-12)"></path>
                    </g>
                    <g transform="translate(0.000000, 0.456221)">
                        <g transform="translate(48.906908, 40.877416)">
                            <mask id="mask-14" fill="white">
                                <use xlink:href="#path-13"></use>
                            </mask>
                            <g id="Clip-22"></g>
                            <path d="M0.200824904,2.59936567 C1.06714144,1.95883117 1.74204947,1.09376286 2.15237843,0.0973758442 C2.15237843,0.0973758442 4.16647441,2.91207791 0.945166149,5.78313241 L0.200824904,2.59936567 Z" id="Fill-21" fill-opacity="0.31" fill="#CE8172" mask="url(#mask-14)"></path>
                        </g>
                        <mask id="mask-16" fill="white">
                            <use xlink:href="#path-15"></use>
                        </mask>
                        <g id="Clip-24"></g>
                        <path d="M59.5723005,50.6450014 C59.5723005,50.6450014 79.7821314,42.2695838 81.464675,56.3432401 C83.1472916,70.4169475 85.4303683,95.1240898 85.4303683,95.1240898 L58.2525001,100.93496 C58.2525001,100.93496 32.2693474,63.9054891 51.666017,54.3479113 L59.5723005,50.6450014 Z" id="Fill-23" fill="#FC790D" mask="url(#mask-16)"></path>
                    </g>
                    <g transform="translate(0.000000, 0.456221)">
                        <g transform="translate(50.366816, 54.746539)">
                            <mask id="mask-18" fill="white">
                                <use xlink:href="#path-17"></use>
                            </mask>
                            <g id="Clip-26"></g>
                            <path d="M16.2297575,0.214314452 C16.2297575,0.214314452 13.2023542,15.9518203 22.8975575,24.3459903 L7.88562579,25.2779881 L0.604832464,33.8035133 L7.88562579,46.188363 L35.0947944,40.3962595 L34.0876771,29.7628027 L33.0618729,16.320863 L16.2297575,0.214314452 Z" id="Fill-25" fill-opacity="0.08" fill="#000000" mask="url(#mask-18)"></path>
                        </g>
                        <mask id="mask-20" fill="white">
                            <use xlink:href="#path-19"></use>
                        </mask>
                        <g id="Clip-28"></g>
                        <polygon id="Fill-27" fill="#FFD200" mask="url(#mask-20)" points="46.6808629 69.628882 60.2854289 69.628882 61.2236751 88.5501765 47.5503036 88.5501765"></polygon>
                        <path d="M66.6405459,57.2567044 C65.9531264,53.3367062 68.5733323,49.6018243 72.4933232,48.9144268 C73.8162185,48.6823744 75.1767065,48.8249344 76.4233217,49.3253908 C78.9853867,50.3711957 81.2096291,52.1025732 82.8534122,54.3293704 C88.9020288,62.3920027 97.8653512,76.7778165 91.4040187,82.1952493 C84.9426131,87.6120544 64.5075988,82.1952493 64.5075988,82.1952493 L64.5075988,77.1912697 L79.7259249,75.7526255 C79.7259249,75.7526255 68.6296263,68.177252 66.6405459,57.2567044" id="Fill-29" fill="#FC790D" mask="url(#mask-20)"></path>
                    </g>
                    <g transform="translate(46.717047, 79.291237)">
                        <mask id="mask-22" fill="white">
                            <use xlink:href="#path-21"></use>
                        </mask>
                        <g id="Clip-31"></g>
                        <path d="M9.50878038,0.257513121 C9.50878038,0.257513121 7.33205069,7.50077952 0.589189553,4.42333057 L0.833132831,9.71503614 L14.5065043,9.71503614 L14.1687401,2.90336956 L9.50878038,0.257513121 Z" id="Fill-30" fill-opacity="0.08" fill="#000000" mask="url(#mask-22)"></path>
                    </g>
                    <g transform="translate(0.000000, 0.456221)">
                        <g transform="translate(64.235939, 48.176954)">
                            <mask id="mask-24" fill="white">
                                <use xlink:href="#path-23"></use>
                            </mask>
                            <g id="Clip-33"></g>
                            <path d="M2.40460669,9.07975 C1.71718724,5.15975181 4.3373931,1.42486992 8.25738399,0.737472379 C9.58027936,0.505420049 10.9407674,0.647980036 12.1873825,1.1484364 C14.7494476,2.19424129 16.97369,3.92561883 18.6174731,6.15241606 C24.6660897,14.2150484 33.629412,28.6008621 27.1680795,34.018295 C20.706674,39.4351 0.271659626,34.018295 0.271659626,34.018295 L0.271659626,29.0143153 L15.4899858,27.5756711 C15.4899858,27.5756711 4.39368714,20.0002976 2.40460669,9.07975" id="Fill-32" fill-opacity="0.2" fill="#FFFFFF" mask="url(#mask-24)"></path>
                        </g>
                        <mask id="mask-26" fill="white">
                            <use xlink:href="#path-25"></use>
                        </mask>
                        <g id="Clip-35"></g>
                        <path d="M64.5075404,77.2099711 C62.5140802,77.0135697 60.5074809,76.9822912 58.5090205,77.1161501 C56.9434009,77.2568852 55.7887307,78.6398631 55.9294658,80.2054827 C55.9607443,80.5513787 56.0545653,80.8885224 56.2071913,81.2006434 L56.2447183,81.2694489 C56.7864024,82.4084834 58.1481094,82.8919903 59.2871367,82.3503134 C59.3159115,82.3365465 59.3440585,82.3227869 59.3722055,82.307779 C60.962848,81.4283306 62.8856267,81.3933001 64.5075404,82.2139507 L64.5075404,77.2099711 Z" id="Fill-34" fill="#F4A28C" mask="url(#mask-26)"></path>
                        <polygon id="Fill-36" fill="#24285B" mask="url(#mask-26)" points="58.227543 100.934902 85.4616833 95.1427985 86.399966 104.975613 58.227543 104.975613"></polygon>
                        <polygon id="Fill-37" fill="#FFD200" mask="url(#mask-26)" points="81.2521125 44.5964577 147.036291 44.5964577 147.036291 17.700067 81.2521125 17.700067"></polygon>
                        <polygon id="Fill-38" fill="#24285B" mask="url(#mask-26)" points="97.2085387 77.7415819 162.99209 77.7415819 162.99209 50.8451912 97.2085387 50.8451912"></polygon>
                    </g>
                    <g transform="translate(74.455293, 109.949299)">
                        <mask id="mask-28" fill="white">
                            <use xlink:href="#path-27"></use>
                        </mask>
                        <g id="Clip-40"></g>
                        <path d="M7.25340546,0.0362787066 C11.1120875,0.0362787066 14.2402318,3.16439376 14.2402318,7.02309042 C14.2402318,10.8817798 11.1120875,14.0098948 7.25340546,14.0098948 C3.39472339,14.0098948 0.266652143,10.8817798 0.266652143,7.02309042 C0.266652143,3.16439376 3.39472339,0.0362787066 7.25340546,0.0362787066" id="Fill-39" fill-opacity="0.56" fill="#FFFFFF" mask="url(#mask-28)"></path>
                    </g>
                    <g transform="translate(0.000000, 0.456221)">
                        <polygon id="Fill-41" fill-opacity="0.12" fill="#000000" points="75.453724 5.27769557 95.4696354 5.27769557 95.4696354 8.1987687 75.453724 8.1987687"></polygon>
                        <mask id="mask-30" fill="white">
                            <use xlink:href="#path-29"></use>
                        </mask>
                        <g id="Clip-44"></g>
                        <path d="M68.2042895,3.80167267 C70.0038447,3.80167267 71.463132,5.26092342 71.463132,7.06047865 C71.463132,8.86003389 70.0038447,10.3193576 68.2042895,10.3193576 C66.4047343,10.3193576 64.945447,8.86003389 64.945447,7.06047865 C64.945447,5.26092342 66.4047343,3.80167267 68.2042895,3.80167267" id="Fill-43" fill="#FFFFFF" mask="url(#mask-30)"></path>
                        <path d="M18.8462333,87.1617021 L17.4013334,81.4821793 C17.2518389,80.8854566 16.6469845,80.5232973 16.0508896,80.6721641 C15.8682406,80.7178227 15.6999862,80.809775 15.5623753,80.9379987 C15.3353158,81.150043 15.2064644,81.4465284 15.2058366,81.7567733 L15.2058366,84.6034182 L13.4982337,85.146971 C12.2034561,85.553548 11.4328365,86.8808523 11.721818,88.2062806 L12.0095512,89.5385924 C12.2609984,90.6988833 13.2405308,91.5589441 14.4239685,91.6584003 L18.8462333,92.0155594 L18.8462333,87.1617021 Z" id="Fill-45" fill="#F4A28C" mask="url(#mask-30)"></path>
                        <polygon id="Fill-46" fill="#E6E6E6" mask="url(#mask-30)" points="3.15869866 50.3136023 3.15869866 69.5344917 13.4231068 69.5344917 15.2558166 75.3334787 17.1760916 69.5344917 27.3466773 69.5344917 27.3466773 50.3136023"></polygon>
                        <polyline id="Stroke-47" stroke="#A5A5A5" stroke-width="1.43999988" stroke-linecap="round" stroke-linejoin="round" mask="url(#mask-30)" points="11.1337891 59.8459967 13.929762 63.1048381 19.6780823 56.1493071"></polyline>
                    </g>
                    <g transform="translate(88.324416, 23.814744)">
                        <mask id="mask-32" fill="white">
                            <use xlink:href="#path-31"></use>
                        </mask>
                        <g id="Clip-49"></g>
                        <path d="M7.87087342,0.00854046009 C12.0129236,0.00854046009 15.3705653,3.36625519 15.3705653,7.50830534 C15.3705653,11.6503555 12.0129236,15.0079972 7.87087342,15.0079972 C3.72882327,15.0079972 0.371181535,11.6503555 0.371181535,7.50830534 C0.371181535,3.36625519 3.72882327,0.00854046009 7.87087342,0.00854046009" id="Fill-48" fill-opacity="0.17" fill="#000000" mask="url(#mask-32)"></path>
                    </g>
                    <polygon id="Fill-50" fill-opacity="0.09" fill="#000000" points="111.732577 29.7655473 135.032353 29.7655473 135.032353 25.9187387 111.732577 25.9187387"></polygon>
                    <polygon id="Fill-52" fill-opacity="0.09" fill="#000000" points="111.732577 37.0400484 135.032353 37.0400484 135.032353 33.1932398 111.732577 33.1932398"></polygon>
                    <polygon id="Fill-54" fill-opacity="0.61" fill="#FFFFFF" points="128.621008 61.8473112 151.920785 61.8473112 151.920785 58.0005025 128.621008 58.0005025"></polygon>
                    <polygon id="Fill-56" fill-opacity="0.21" fill="#FFFFFF" points="128.621008 69.1218342 151.920785 69.1218342 151.920785 65.2750256 128.621008 65.2750256"></polygon>
                    <g transform="translate(103.653447, 59.582483)">
                        <mask id="mask-34" fill="white">
                            <use xlink:href="#path-33"></use>
                        </mask>
                        <g id="Clip-59"></g>
                        <polygon id="Fill-58" fill-opacity="0.61" fill="#FFFFFF" mask="url(#mask-34)" points="0.0417533605 13.7052267 4.84557967 0.50096733 9.43669744 10.5026855 13.5331255 3.97875947 17.7745953 13.7052267"></polygon>
                    </g>
                    <g transform="translate(111.682940, 56.662668)">
                        <mask id="mask-36" fill="white">
                            <use xlink:href="#path-35"></use>
                        </mask>
                        <g id="Clip-61"></g>
                        <path d="M1.69466087,0.630899116 C2.59973065,0.630899116 3.33348027,1.36457574 3.33348027,2.26971851 C3.33348027,3.1747883 2.59973065,3.90846492 1.69466087,3.90846492 C0.789518089,3.90846492 0.0558414698,3.1747883 0.0558414698,2.26971851 C0.0558414698,1.36457574 0.789518089,0.630899116 1.69466087,0.630899116" id="Fill-60" fill-opacity="0.61" fill="#FFFFFF" mask="url(#mask-36)"></path>
                    </g>
                </g>
                <g id="独家解决方案备份" transform="translate(24.461564, 150.986898)">
                    <rect id="Rectangle-3" fill="#FC790D" x="0" y="0" width="170.724849" height="33.4026878" rx="3.6022268"></rect>
                    <text id="独家功能" font-family="FZLTCHJW--GB1-0, FZLanTingHeiS-B-GB" font-size="18.011134" font-weight="normal" line-spacing="21.6133608" fill="#FFFFFF">
                        <tspan x="88.2357293" y="21.6301145">独家功能</tspan>
                    </text>
                    <g id="句客宝logo" transform="translate(7.586043, 6.804206)">
                        <path d="M8.5045812,-1.54758361e-13 C10.8112375,-1.54758361e-13 12.8057681,0.840190548 14.4873285,2.51821487 C16.1682133,4.19724924 17.0093313,6.18872473 17.0093313,8.49129462 C17.0093313,13.6068447 13.4313707,17.3731406 6.27595631,19.7940543 L6.27595631,19.7940543 L6.27595631,16.690349 C4.35962604,16.1429037 2.8344663,15.0988521 1.7008149,13.5571841 C0.566319003,12.0151794 0,10.3273913 0,8.49129462 C0,6.18872473 0.840104599,4.19724924 2.52200279,2.51821487 C4.20254978,0.840190548 6.19691149,-1.54758361e-13 8.5045812,-1.54758361e-13 Z M8.58225794,5.2306954 C6.81253216,5.18709504 5.34614935,6.43618618 5.30679584,8.02094952 C5.26761122,9.60554452 6.67031904,10.9251706 8.44021371,10.9691076 C8.51132027,10.9712961 8.58090674,10.9669192 8.65066211,10.9650674 C8.65066211,10.9654041 8.95214717,11.178019 9.2828518,11.3477068 C9.65155874,11.5364172 10.1045464,11.6631781 10.3678602,11.6406204 C10.7162993,11.610824 10.7711915,11.3874353 10.7014361,11.2731317 C10.6352277,11.164215 10.5195317,11.1593331 10.4077204,11.0893032 C10.2734456,11.0047959 10.2139931,10.9620373 10.158763,10.8308996 C10.0954258,10.6798976 10.1687281,10.5677824 10.3080699,10.4928706 L10.3218071,10.4797026 C10.326236,10.4754379 10.3316595,10.4702006 10.3379651,10.4640842 C11.1498635,9.96225936 11.6920299,9.1326743 11.7156758,8.17919018 C11.7550293,6.59476352 10.3523215,5.27463243 8.58225794,5.2306954 Z" id="形状结合" fill="#FFFFFF"></path>
                        <path d="M31.6453564,18.3197822 C32.0357836,18.3197822 32.4576967,18.23199 32.911096,18.0564057 C33.3644952,17.8808213 33.7864084,17.5986322 34.1768355,17.2098383 C34.5672626,16.8210443 34.8978662,16.3131039 35.1686463,15.6860169 C35.4394264,15.05893 35.5811137,14.2938839 35.5937081,13.3908786 L35.5937081,13.3908786 L35.6881663,4.79351628 C35.7133551,4.36709715 35.5748165,4.0033867 35.2725503,3.70238496 C34.9576897,3.38884147 34.5609654,3.23206973 34.0823773,3.23206973 L34.0823773,3.23206973 L26.3556987,3.23206973 C26.4438597,2.98123495 26.5257234,2.71472298 26.6012899,2.43253385 C26.6768565,2.15034471 26.7650174,1.8524784 26.8657728,1.53893492 C26.928745,1.35080883 26.9098533,1.17208904 26.8090979,1.00277556 C26.7083425,0.833462079 26.5635067,0.71745099 26.3745903,0.654742293 C26.1730796,0.592033596 25.9873118,0.610846205 25.8172871,0.71118012 C25.6472624,0.811514035 25.530764,0.955744037 25.4677919,1.14387013 C25.2536867,1.88383275 25.0490273,2.54854494 24.8538137,3.13800669 C24.6586002,3.72746844 24.4539408,4.26989867 24.2398356,4.76529737 C24.0257304,5.26069608 23.789585,5.72474043 23.5313993,6.15743044 C23.2732136,6.59012045 22.9740961,7.01967502 22.6340466,7.44609416 C22.5081024,7.60913677 22.4577247,7.78785656 22.4829136,7.98225352 C22.5081024,8.17665048 22.6025606,8.33655766 22.7662881,8.46197505 C22.9048267,8.56230896 23.0496626,8.61247592 23.2007957,8.61247592 C23.3015511,8.61247592 23.4054551,8.59052788 23.5125077,8.54663179 C23.6195603,8.5027357 23.7108698,8.4306207 23.7864364,8.33028679 C24.25243,7.74082504 24.6460057,7.16076959 24.9671635,6.59012045 C25.2883213,6.01947131 25.5811417,5.37670716 25.8456246,4.66182802 L25.8456246,4.66182802 L34.0823773,4.66182802 C34.1579439,4.66182802 34.2083216,4.68064063 34.2335104,4.71826585 C34.2461048,4.71826585 34.252402,4.73707846 34.252402,4.77470367 L34.252402,4.77470367 L34.1390522,13.372066 C34.1264578,14.0869452 34.0225538,14.670136 33.8273403,15.1216387 C33.6321267,15.5731413 33.4022785,15.9305808 33.1377956,16.1939574 C32.8733127,16.4573339 32.599384,16.6360537 32.3160095,16.7301167 C32.032635,16.8241798 31.8090839,16.8712113 31.6453564,16.8712113 L31.6453564,16.8712113 L31.1730656,16.8712113 C30.9589604,16.8586696 30.7826385,16.9213783 30.6440998,17.0593374 C30.5055611,17.1972965 30.4362918,17.36661 30.4362918,17.5672778 C30.4236974,17.7804874 30.4866695,17.9560717 30.6252082,18.0940309 C30.7637468,18.23199 30.9337715,18.3072405 31.1352823,18.3197822 L31.1352823,18.3197822 L31.6453564,18.3197822 Z M30.9270496,14.1810082 C31.267099,14.1810082 31.5567707,14.0618617 31.7960648,13.8235686 C32.0353588,13.5852756 32.1550058,13.2968156 32.1550058,12.9581886 L32.1550058,12.9581886 L32.1550058,8.23622374 C32.1550058,7.89759678 32.0353588,7.60913677 31.7960648,7.37084372 C31.5567707,7.13255068 31.267099,7.01340415 30.9270496,7.01340415 L30.9270496,7.01340415 L26.506407,7.01340415 C26.1663576,7.01340415 25.8766859,7.13255068 25.6373918,7.37084372 C25.3980978,7.60913677 25.2784508,7.89759678 25.2784508,8.23622374 L25.2784508,8.23622374 L25.2784508,12.9581886 C25.2784508,13.2968156 25.3980978,13.5852756 25.6373918,13.8235686 C25.8766859,14.0618617 26.1663576,14.1810082 26.506407,14.1810082 L26.506407,14.1810082 L30.9270496,14.1810082 Z M30.7003499,12.7324373 L26.7331066,12.7324373 L26.7331066,8.44316244 L30.7003499,8.44316244 L30.7003499,12.7324373 Z M53.0865124,6.37377544 C53.2880232,6.37377544 53.4611965,6.30166044 53.6060324,6.15743044 C53.7508682,6.01320044 53.8232862,5.84702239 53.8232862,5.6588963 L53.8232862,5.6588963 L53.8232862,3.60832191 C53.8232862,3.26969495 53.7004906,2.98123495 53.4548993,2.7429419 C53.209308,2.50464885 52.9164877,2.38550233 52.5764383,2.38550233 L52.5764383,2.38550233 L48.3069288,2.38550233 L47.6457216,1.04980708 C47.5449662,0.874222732 47.403279,0.751940773 47.2206598,0.682961206 C47.0380407,0.61398164 46.8585701,0.623387944 46.6822482,0.71118012 C46.5059263,0.798972295 46.3799821,0.936931428 46.3044155,1.12505752 C46.228849,1.31318361 46.2414434,1.49503883 46.3421988,1.67062318 L46.3421988,1.67062318 L46.7011399,2.36668972 L42.1293642,2.36668972 C41.7767204,2.36668972 41.4807514,2.48583624 41.2414574,2.72412929 C41.0021634,2.96242234 40.8825163,3.25088234 40.8825163,3.5895093 L40.8825163,3.5895093 L40.8825163,5.64008369 C40.8825163,5.85329326 40.9549343,6.02887761 41.0997701,6.16683674 C41.244606,6.30479588 41.4177793,6.37377544 41.6192901,6.37377544 C41.8208009,6.37377544 41.9908256,6.30166044 42.1293642,6.15743044 C42.2679029,6.01320044 42.3371722,5.84702239 42.3371722,5.6588963 L42.3371722,5.6588963 L42.3371722,3.83407322 L52.3686303,3.83407322 L52.3686303,5.6588963 C52.3686303,5.84702239 52.4378996,6.01320044 52.5764383,6.15743044 C52.7149769,6.30166044 52.8850017,6.37377544 53.0865124,6.37377544 Z M53.4832368,12.8076877 C53.6595587,12.8076877 53.8138404,12.7543853 53.9460818,12.6477806 C54.0783232,12.5411758 54.1570384,12.4000812 54.1822272,12.2244969 C54.2326049,12.023829 54.2011189,11.8419738 54.0877691,11.6789312 C53.9744193,11.5158886 53.816989,11.4155547 53.6154782,11.3779295 C52.5449522,11.1647199 51.6098163,10.9483749 50.8100704,10.7288944 C50.0103246,10.509414 49.3081855,10.2617146 48.7036531,9.98579638 C49.3585632,9.5468355 49.9410552,9.07024941 50.4511294,8.55603809 C50.9612035,8.04182678 51.4114541,7.47117764 51.8018813,6.84409067 C51.8774478,6.73121502 51.9183797,6.60266219 51.9246769,6.45843218 C51.9309741,6.31420218 51.9089339,6.18251392 51.8585562,6.06336739 C51.8081785,5.94422087 51.7294633,5.84075152 51.6224107,5.75295935 C51.5153581,5.66516717 51.3862653,5.62127108 51.2351322,5.62127108 L51.2351322,5.62127108 L45.7376665,5.62127108 C45.7880442,5.52093717 45.8321247,5.43314499 45.8699079,5.35789456 C45.9076912,5.28264412 45.9454745,5.19485194 45.9832577,5.09451803 C46.0714187,4.91893368 46.0808645,4.74021389 46.0115952,4.55835867 C45.9423259,4.37650345 45.813233,4.23540888 45.6243167,4.13507497 C45.4479947,4.04728279 45.2685242,4.03787649 45.0859051,4.10685605 C44.9032859,4.17583562 44.7615987,4.30438845 44.6608433,4.49251454 C44.3333883,5.1823102 43.9114751,5.83448065 43.3951038,6.44902588 C42.8787324,7.06357111 42.2679029,7.62167851 41.5626152,8.12334809 C41.3862933,8.23622374 41.2855379,8.38986005 41.260349,8.58425701 C41.2351602,8.77865397 41.2729435,8.95737375 41.3736988,9.12041637 C41.5374263,9.3210842 41.7389371,9.42141811 41.9782312,9.42141811 C42.1419587,9.42141811 42.2742001,9.37125115 42.3749555,9.27091724 C42.626844,9.09533289 42.8692866,8.91347767 43.1022834,8.72535158 C43.3352803,8.53722548 43.5588313,8.33655766 43.7729365,8.12334809 C44.1003915,8.46197505 44.4246979,8.78492484 44.7458557,9.09219745 C45.0670134,9.39947007 45.4102115,9.68479464 45.7754498,9.94817116 C44.4656297,10.5250912 42.9165157,11.0016773 41.1281076,11.3779295 C40.9265968,11.4155547 40.7691665,11.519024 40.6558167,11.6883375 C40.5424669,11.857651 40.5109809,12.0426416 40.5613585,12.2433095 C40.5991418,12.4063521 40.6841542,12.5411758 40.8163956,12.6477806 C40.9486371,12.7543853 41.1029187,12.8076877 41.2792407,12.8076877 C41.3422128,12.8076877 41.3925905,12.8014169 41.4303737,12.7888751 C42.5764663,12.5505821 43.6281006,12.2715284 44.5852768,11.951714 C45.5424529,11.6318997 46.4240625,11.2713247 47.2301056,10.869989 C47.9731766,11.2713247 48.832746,11.6256288 49.8088138,11.9329014 C50.7848816,12.240174 51.9656088,12.5254986 53.3509953,12.7888751 C53.3761842,12.7888751 53.3982244,12.7920106 53.417116,12.7982814 C53.4360077,12.8045523 53.4580479,12.8076877 53.4832368,12.8076877 Z M47.211214,9.1956668 C46.7704092,8.9072068 46.348496,8.58739244 45.9454745,8.23622374 C45.5424529,7.88505504 45.1394314,7.49626112 44.7364098,7.06984198 L44.7364098,7.06984198 L49.8182596,7.06984198 C49.1129719,7.89759678 48.2439567,8.60620505 47.211214,9.1956668 Z M51.0084326,18.0752183 C51.3106988,18.0752183 51.572033,17.9654781 51.7924354,17.7459976 C52.0128378,17.5265172 52.123039,17.2662761 52.123039,16.9652743 L52.123039,16.9652743 L52.123039,13.6918804 C52.123039,13.3783369 52.0159864,13.1118249 51.8018813,12.8923445 C51.5877761,12.672864 51.3232932,12.5631238 51.0084326,12.5631238 L51.0084326,12.5631238 L43.640695,12.5631238 C43.3384289,12.5631238 43.0770946,12.672864 42.8566922,12.8923445 C42.6362898,13.1118249 42.5260886,13.3846078 42.5260886,13.710693 L42.5260886,13.710693 L42.5260886,16.9652743 C42.5260886,17.2662761 42.6331412,17.5265172 42.8472464,17.7459976 C43.0613516,17.9654781 43.3258344,18.0752183 43.640695,18.0752183 L43.640695,18.0752183 L51.0084326,18.0752183 Z M50.6872748,16.64546 L43.9807444,16.64546 L43.9807444,13.9928821 L50.6872748,13.9928821 L50.6872748,16.64546 Z M59.1314108,6.67477719 C59.3329216,6.67477719 59.5029463,6.60266219 59.6414849,6.45843218 C59.7800236,6.31420218 59.8492929,6.14175327 59.8492929,5.94108544 L59.8492929,5.94108544 L59.8492929,4.39845149 L69.880751,4.39845149 L69.880751,5.94108544 C69.880751,6.12921153 69.9500203,6.29538957 70.088559,6.43961958 C70.2270976,6.58384958 70.3971224,6.65596458 70.5986331,6.65596458 C70.8001439,6.65596458 70.9733172,6.58384958 71.1181531,6.43961958 C71.2629889,6.29538957 71.3354069,6.12294066 71.3354069,5.92227283 L71.3354069,5.92227283 L71.3354069,4.05982453 C71.3354069,3.74628105 71.2157599,3.48290452 70.9764658,3.26969495 C70.7371718,3.05648538 70.4412028,2.9498806 70.088559,2.9498806 L70.088559,2.9498806 L66.1779906,2.9498806 C66.1653962,2.86208842 66.1339101,2.77429625 66.0835324,2.68650407 L66.0835324,2.68650407 L64.9878176,1.01218186 C64.8870622,0.836597514 64.7390777,0.729992729 64.5438642,0.692367511 C64.3486506,0.654742293 64.1628829,0.686096641 63.9865609,0.786430556 C63.810239,0.89930621 63.7031864,1.05294252 63.6654032,1.24733948 C63.6276199,1.44173644 63.6654032,1.62045622 63.778753,1.78349884 L63.778753,1.78349884 L64.5155267,2.96869321 L59.6414849,2.96869321 C59.2888411,2.96869321 58.9928721,3.07843343 58.7535781,3.29791386 C58.5142841,3.5173943 58.394637,3.7776354 58.394637,4.07863714 L58.394637,4.07863714 L58.394637,5.94108544 C58.394637,6.14175327 58.467055,6.31420218 58.6118908,6.45843218 C58.7567267,6.60266219 58.9299,6.67477719 59.1314108,6.67477719 Z M70.7308746,18.0564057 C70.9449798,18.0564057 71.1213017,17.9842907 71.2598403,17.8400607 C71.398379,17.6958307 71.4676483,17.5296526 71.4676483,17.3415265 C71.4676483,17.1408587 71.3952304,16.9684098 71.2503945,16.8241798 C71.1055587,16.6799498 70.9323853,16.6078348 70.7308746,16.6078348 L70.7308746,16.6078348 L65.5167834,16.6078348 L65.5167834,12.5443112 L69.6162681,12.5443112 C69.8303733,12.5443112 70.0066952,12.4753316 70.1452339,12.3373725 C70.2837725,12.1994134 70.3530419,12.0300999 70.3530419,11.8294321 C70.3530419,11.6287642 70.2806239,11.4563153 70.1357881,11.3120853 C69.9909522,11.1678553 69.8177789,11.0957403 69.6162681,11.0957403 L69.6162681,11.0957403 L65.5167834,11.0957403 L65.5167834,8.29266157 L70.2208004,8.29266157 C70.4349056,8.29266157 70.6112275,8.223682 70.7497662,8.08572287 C70.8883049,7.94776373 70.9575742,7.77845025 70.9575742,7.57778242 C70.9575742,7.37711459 70.8851563,7.20466568 70.7403204,7.06043567 C70.5954845,6.91620567 70.4223112,6.84409067 70.2208004,6.84409067 L70.2208004,6.84409067 L60.3026922,6.84409067 C60.088587,6.84409067 59.9154136,6.91620567 59.7831722,7.06043567 C59.6509308,7.20466568 59.58481,7.37711459 59.58481,7.57778242 C59.58481,7.77845025 59.6540794,7.94776373 59.792618,8.08572287 C59.9311567,8.223682 60.1011814,8.29266157 60.3026922,8.29266157 L60.3026922,8.29266157 L64.0432358,8.29266157 L64.0432358,11.0957403 L60.3026922,11.0957403 C60.088587,11.0957403 59.9154136,11.1678553 59.7831722,11.3120853 C59.6509308,11.4563153 59.58481,11.6287642 59.58481,11.8294321 C59.58481,12.0300999 59.6540794,12.1994134 59.792618,12.3373725 C59.9311567,12.4753316 60.1011814,12.5443112 60.3026922,12.5443112 L60.3026922,12.5443112 L64.0432358,12.5443112 L64.0432358,16.6078348 L58.9236028,16.6078348 C58.722092,16.6078348 58.5520673,16.6799498 58.4135287,16.8241798 C58.27499,16.9684098 58.2057207,17.1408587 58.2057207,17.3415265 C58.2057207,17.5296526 58.2781386,17.6958307 58.4229745,17.8400607 C58.5678104,17.9842907 58.7346865,18.0564057 58.9236028,18.0564057 L58.9236028,18.0564057 L70.7308746,18.0564057 Z" id="句客宝" stroke="#FFFFFF" stroke-width="0.519999981" fill="#FFFFFF" fill-rule="nonzero"></path>
                        <ellipse id="椭圆形" stroke="#FFFFFF" stroke-width="0.975194876" fill="#FC790D" fill-rule="nonzero" cx="68.4416639" cy="14.5723829" rx="1.4310552" ry="1.4660758"></ellipse>
                    </g>
                </g>
            </g>
        </g>
    </g>
</svg>