<?xml version="1.0" encoding="UTF-8"?>
<svg width="240px" height="140px" viewBox="0 0 240 140" version="1.1" xmlns="http://www.w3.org/2000/svg" xmlns:xlink="http://www.w3.org/1999/xlink">
    <title>1-4</title>
    <g id="最新版备份" stroke="none" stroke-width="1" fill="none" fill-rule="evenodd">
        <g id="企微SCRM-新版" transform="translate(-600.000000, -3327.000000)">
            <g id="亮点1" transform="translate(0.000000, 2416.000000)">
                <g id="编组-25" transform="translate(130.000000, 241.000000)">
                    <g id="编组-19备份-4" transform="translate(407.000000, 620.000000)">
                        <g id="1-4" transform="translate(63.000000, 50.000000)">
                            <rect id="矩形" fill="#F1F1F1" x="0" y="0" width="240" height="140"></rect>
                            <line x1="66.8184017" y1="43.2722638" x2="130.301871" y2="67.6412844" id="直线" stroke-opacity="0.65" stroke="#A4A4A4" stroke-linecap="square"></line>
                            <line x1="130.509685" y1="73.8280892" x2="66.6105871" y2="97.085459" id="直线备份" stroke-opacity="0.65" stroke="#A4A4A4" stroke-linecap="square"></line>
                            <g id="编组-20" transform="translate(23.000000, 15.000000)">
                                <circle id="椭圆形" fill="#FFFFFF" cx="25.1999993" cy="25.1999993" r="25.1999993"></circle>
                                <g id="编组-11" transform="translate(10.800000, 9.900000)">
                                    <path d="M24.6294249,4.30950156 C21.7706601,1.43784493 18.379825,0 14.4583554,0 C10.5351629,0 7.144615,1.43784493 4.28757299,4.30950156 C1.42823386,7.18288671 0,10.5909623 0,14.5314238 C0,17.6735946 0.962780085,20.5619603 2.89149879,23.2008422 C4.8187818,25.8391479 7.4116551,27.6258669 10.6695444,28.5627275 L10.6695444,33.8741976 C22.8342263,29.7312106 28.9169979,23.285828 28.9169979,14.5314238 C28.9169979,10.5909623 27.4870412,7.18288671 24.6294249,4.30950156" id="Fill-1" fill="#FC790D"></path>
                                    <path d="M17.4690394,17.9023707 C17.4690394,17.9023707 17.4874335,17.8848921 17.5191279,17.8541636 C18.8794415,17.0137811 19.7878264,15.6245142 19.8274444,14.0277593 C19.8933802,11.3743947 17.5431817,9.1636334 14.5774888,9.09005413 C11.6123619,9.01703867 9.15547776,11.1088327 9.08954203,13.7627611 C9.02388928,16.4164076 11.3740877,18.6263232 14.3394976,18.6999024 C14.4586347,18.7035673 14.5752249,18.6962376 14.6920981,18.6931365 C14.6920981,18.6937003 15.1972281,19.0497564 15.7513146,19.3339246 C16.369073,19.649949 17.1280413,19.8622295 17.5692164,19.8244532 C18.1530165,19.7745546 18.2449869,19.4004561 18.1281137,19.2090372 C18.0171832,19.0266395 17.8233378,19.0184641 17.6360011,18.9011883 C17.4110273,18.759668 17.3114162,18.6880621 17.2188798,18.4684519 C17.1127601,18.215576 17.235576,18.027822 17.4690394,17.9023707" id="Fill-3" fill="#FFFFFF"></path>
                                </g>
                            </g>
                            <g id="编组-20备份" transform="translate(23.000000, 75.000000)">
                                <circle id="椭圆形" fill="#FFFFFF" cx="25.200001" cy="25.200001" r="25.200001"></circle>
                                <g id="编组-11" transform="translate(10.800000, 9.900000)">
                                    <path d="M24.6294266,4.30950184 C21.7706615,1.43784502 18.3798262,0 14.4583564,0 C10.5351636,0 7.14461547,1.43784502 4.28757327,4.30950184 C1.42823396,7.18288719 0,10.590963 0,14.5314247 C0,17.6735958 0.962780149,20.5619617 2.89149899,23.2008437 C4.81878212,25.8391496 7.41165559,27.6258687 10.6695451,28.5627294 L10.6695451,33.8741998 C22.8342278,29.7312126 28.9169998,23.2858296 28.9169998,14.5314247 C28.9169998,10.590963 27.487043,7.18288719 24.6294266,4.30950184" id="Fill-1" fill="#FC790D"></path>
                                    <path d="M17.4690406,17.9023719 C17.4690406,17.9023719 17.4874347,17.8848933 17.5191291,17.8541648 C18.8794427,17.0137823 19.7878277,15.6245152 19.8274458,14.0277602 C19.8933815,11.3743954 17.5431829,9.16363401 14.5774898,9.09005473 C11.6123627,9.01703927 9.15547836,11.1088334 9.08954263,13.762762 C9.02388988,16.4164087 11.3740885,18.6263244 14.3394986,18.6999037 C14.4586357,18.7035685 14.5752259,18.6962388 14.6920991,18.6931378 C14.6920991,18.6937016 15.1972291,19.0497577 15.7513157,19.3339259 C16.3690741,19.6499503 17.1280425,19.8622308 17.5692176,19.8244545 C18.1530177,19.7745559 18.2449881,19.4004574 18.1281149,19.2090385 C18.0171844,19.0266408 17.823339,19.0184653 17.6360023,18.9011895 C17.4110284,18.7596692 17.3114174,18.6880633 17.218881,18.4684531 C17.1127612,18.2155772 17.2355771,18.0278232 17.4690406,17.9023719" id="Fill-3" fill="#FFFFFF"></path>
                                </g>
                            </g>
                            <g id="编组-17" transform="translate(122.000000, 20.000000)">
                                <rect id="矩形" fill="#FFFFFF" fill-rule="nonzero" x="0" y="0" width="100" height="100"></rect>
                                <g id="编组-23" transform="translate(9.000000, 9.000000)">
                                    <g id="编组-22">
                                        <rect id="矩形" stroke="#FC790D" stroke-width="6.22080012" x="3.11040006" y="3.11040006" width="31.1040006" height="31.1040006"></rect>
                                        <rect id="矩形备份-4" fill="#FC790D" x="13.9968003" y="13.9968003" width="9.33120019" height="9.33120019"></rect>
                                    </g>
                                    <g id="编组-22备份" transform="translate(45.100801, 0.000000)">
                                        <rect id="矩形" stroke="#FC790D" stroke-width="6.22080012" x="3.11040006" y="3.11040006" width="31.1040006" height="31.1040006"></rect>
                                        <rect id="矩形备份-4" fill="#FC790D" x="13.9968003" y="13.9968003" width="9.33120019" height="9.33120019"></rect>
                                    </g>
                                    <g id="编组-22备份-2" transform="translate(0.000000, 45.100801)">
                                        <rect id="矩形" stroke="#FC790D" stroke-width="6.22080012" x="3.11040006" y="3.11040006" width="31.1040006" height="31.1040006"></rect>
                                        <rect id="矩形备份-4" fill="#FC790D" x="13.9968003" y="13.9968003" width="9.33120019" height="9.33120019"></rect>
                                    </g>
                                    <path d="M82.4256016,68.4288014 L57.5424011,68.4288014 L57.5418009,60.6528009 L51.3208009,60.6528009 L51.321601,82.4256016 L45.1008009,82.4256016 L45.1008009,45.1008009 L69.9840014,45.1008009 L69.9838009,51.3208009 L76.2048009,51.3208009 L76.2048015,45.1008009 L82.4256016,45.1008009 L82.4256016,68.4288014 Z M65.3184013,76.2048015 L65.3184013,82.4256016 L59.0976012,82.4256016 L59.0976012,76.2048015 L65.3184013,76.2048015 Z M82.4256016,76.2048015 L82.4256016,82.4256016 L76.2048015,82.4256016 L76.2048015,76.2048015 L82.4256016,76.2048015 Z" id="形状结合" fill="#FC790D"></path>
                                </g>
                            </g>
                        </g>
                    </g>
                </g>
            </g>
        </g>
    </g>
</svg>