<?xml version="1.0" encoding="UTF-8"?>
<svg width="220px" height="254px" viewBox="0 0 220 254" version="1.1" xmlns="http://www.w3.org/2000/svg" xmlns:xlink="http://www.w3.org/1999/xlink">
    <title>6-引流渠道统计</title>
    <defs>
        <polygon id="path-1" points="0.396956205 0.251542098 7.96723463 0.251542098 7.96723463 12.2155734 0.396956205 12.2155734"></polygon>
        <polyline id="path-3" points="166.109759 0.383955727 166.110124 12.4051946 0.583044801 12.4051946 0.583044801 0.383796289"></polyline>
        <polygon id="path-5" points="0.69545326 0.17890439 46.3445512 0.17890439 46.3445512 76.7984596 0.69545326 76.7984596"></polygon>
        <polygon id="path-7" points="0 127.00795 169.759893 127.00795 169.759893 0.250951987 0 0.250951987"></polygon>
        <polygon id="path-9" points="0.712945929 0.0456075168 43.6265826 0.0456075168 43.6265826 38.9718892 0.712945929 38.9718892"></polygon>
        <polygon id="path-11" points="0 127.00795 169.759893 127.00795 169.759893 0.250951987 0 0.250951987"></polygon>
        <polygon id="path-13" points="0.140224135 0.352407976 9.13291254 0.352407976 9.13291254 7.72849592 0.140224135 7.72849592"></polygon>
        <polygon id="path-15" points="0.68920277 0.502945505 6.56887079 0.502945505 6.56887079 12.5755063 0.68920277 12.5755063"></polygon>
        <polygon id="path-17" points="0 127.00795 169.759893 127.00795 169.759893 0.250951987 0 0.250951987"></polygon>
        <polygon id="path-19" points="-0.00189788002 0.298551126 2.43738891 0.298551126 2.43738891 3.58553333 -0.00189788002 3.58553333"></polygon>
        <polygon id="path-21" points="0 127.00795 169.759893 127.00795 169.759893 0.250951987 0 0.250951987"></polygon>
        <polygon id="path-23" points="0.709369156 0.108595235 25.2323149 0.108595235 25.2323149 31.2008629 0.709369156 31.2008629"></polygon>
        <polygon id="path-25" points="0 127.00795 169.759893 127.00795 169.759893 0.250951987 0 0.250951987"></polygon>
        <polygon id="path-27" points="0.709150169 0.298981799 7.6500653 0.298981799 7.6500653 9.53829971 0.709150169 9.53829971"></polygon>
        <polygon id="path-29" points="0 127.00795 169.759893 127.00795 169.759893 0.250951987 0 0.250951987"></polygon>
        <polygon id="path-31" points="0.443519962 0.713799975 22.1900038 0.713799975 22.1900038 38.4008357 0.443519962 38.4008357"></polygon>
        <polyline id="path-33" points="0 127.00795 169.759893 127.00795 169.759893 0.250951987 0 0.250951987"></polyline>
        <polygon id="path-35" points="0 127.00795 169.759893 127.00795 169.759893 0.250951987 0 0.250951987"></polygon>
    </defs>
    <g id="最新版备份" stroke="none" stroke-width="1" fill="none" fill-rule="evenodd">
        <g id="十大功能" transform="translate(-120.000000, -480.000000)">
            <g id="6-引流渠道统计" transform="translate(120.000000, 480.000000)">
                <rect id="矩形" fill="#FFFDF8" x="0" y="0" width="219.310578" height="253.050667" rx="16.6399984"></rect>
                <text id="引流渠道统计" font-family="FZLTCHJW--GB1-0, FZLanTingHeiS-B-GB" font-size="26.6239974" font-weight="normal" fill="#000000" fill-opacity="0.7">
                    <tspan x="29.7832967" y="227.498321">引流渠道统计</tspan>
                </text>
                <g id="编组" transform="translate(24.331797, 31.428571)">
                    <g transform="translate(10.949308, 9.238442)">
                        <polygon id="Fill-1" fill="#E6E6E6" points="0.219329235 86.2879108 129.684018 86.2879108 129.684018 0.484244087 0.219329235 0.484244087"></polygon>
                        <line x1="66.5074826" y1="78.0084968" x2="66.5074826" y2="95.0637939" id="Stroke-3" stroke="#C9C9C9" stroke-width="2.15999981"></line>
                        <path d="M66.5074826,95.0637956 C68.380464,95.0637956 69.8978684,96.5817171 69.8978684,98.4541819 C69.8978684,100.326647 68.380464,101.844568 66.5074826,101.844568 C64.6350179,101.844568 63.1170967,100.326647 63.1170967,98.4541819 C63.1170967,96.5817171 64.6350179,95.0637956 66.5074826,95.0637956 Z" id="Stroke-4" stroke="#C9C9C9" stroke-width="2.15999981"></path>
                    </g>
                    <g transform="translate(19.708754, 80.043966)">
                        <mask id="mask-2" fill="white">
                            <use xlink:href="#path-1"></use>
                        </mask>
                        <g id="Clip-6"></g>
                        <path d="M2.32865499,0.251542098 C2.32865499,0.251542098 4.97480341,4.00887737 7.06278531,4.54637889 L7.96723463,12.2155734 L3.23826509,12.2155734 L2.32865499,6.82041873 C2.32865499,6.82041873 -2.01786254,3.67293801 2.32865499,0.251542098" id="Fill-5" fill-opacity="0.08" fill="#000000" mask="url(#mask-2)"></path>
                    </g>
                    <g transform="translate(3.649769, 115.081751)">
                        <mask id="mask-4" fill="white">
                            <use xlink:href="#path-3"></use>
                        </mask>
                        <g id="Clip-8"></g>
                        <path d="M83.347883,0.383744041 C129.057155,0.383744041 166.112606,3.07486491 166.112606,6.39444321 C166.112606,9.71402369 129.057155,12.4051429 83.347883,12.4051429 C37.638158,12.4051429 0.583200282,9.71402369 0.583200282,6.39444321 C0.583200282,3.07486491 37.638158,0.383744041 83.347883,0.383744041" id="Fill-7" fill-opacity="0.45" fill="#E6E6E6" mask="url(#mask-4)"></path>
                    </g>
                    <polygon id="Fill-9" fill-opacity="0.36" fill="#FFFFFF" points="22.9471213 70.6721394 108.223615 70.6721394 108.223615 31.8842603 22.9471213 31.8842603"></polygon>
                    <g transform="translate(0.000000, 0.478996)">
                        <g transform="translate(94.894001, 18.248846)">
                            <mask id="mask-6" fill="white">
                                <use xlink:href="#path-5"></use>
                            </mask>
                            <g id="Clip-12"></g>
                            <path d="M43.1246518,0.178838694 C43.1246518,0.178838694 37.3620311,1.08843419 36.7160219,7.59013317 C36.0700127,14.0918322 39.9203733,17.1876394 39.9203733,17.1876394 C39.9203733,17.1876394 22.3741076,18.4796578 24.1830062,26.3613345 C25.9918319,34.2429382 27.6715287,46.7759685 19.9191268,45.7423174 C12.1667249,44.7086589 3.12223162,33.8966481 3.12223162,33.8966481 C3.12223162,33.8966481 -1.99430693,37.4162301 2.63126466,42.615509 C6.53848865,47.0038893 14.7250671,57.8257326 23.3043608,60.6114336 C25.9391292,61.4698812 27.5320345,64.1454979 27.0307022,66.8702112 L25.2062555,76.7984596 L40.6594516,76.7984596 L46.3445512,35.3437817 L46.3445512,6.68572035 L43.1246518,0.178838694 Z" id="Fill-11" fill-opacity="0.08" fill="#000000" mask="url(#mask-6)"></path>
                        </g>
                        <mask id="mask-8" fill="white">
                            <use xlink:href="#path-7"></use>
                        </mask>
                        <g id="Clip-14"></g>
                        <polygon id="Fill-13" fill="#A5A5A5" mask="url(#mask-8)" points="29.9087861 63.9912148 37.061674 63.9912148 37.061674 54.0422942 29.9087861 54.0422942"></polygon>
                        <polygon id="Fill-15" fill="#C9C9C9" mask="url(#mask-8)" points="40.8448453 63.9912148 47.9977332 63.9912148 47.9977332 47.1943343 40.8448453 47.1943343"></polygon>
                        <polygon id="Fill-16" fill="#A5A5A5" mask="url(#mask-8)" points="51.6982153 63.9912148 58.8511032 63.9912148 58.8511032 53.2257021 51.6982153 53.2257021"></polygon>
                        <polygon id="Fill-17" fill="#A5A5A5" mask="url(#mask-8)" points="93.9488568 63.9912148 101.101745 63.9912148 101.101745 38.9250959 93.9488568 38.9250959"></polygon>
                        <polygon id="Fill-18" fill="#C9C9C9" mask="url(#mask-8)" points="83.9999507 63.9912148 91.1528386 63.9912148 91.1528386 48.7448147 83.9999507 48.7448147"></polygon>
                        <polygon id="Fill-19" fill="#A5A5A5" mask="url(#mask-8)" points="73.6943892 63.9912148 80.8472771 63.9912148 80.8472771 43.1889242 73.6943892 43.1889242"></polygon>
                        <polygon id="Fill-20" fill="#C9C9C9" mask="url(#mask-8)" points="62.5515853 63.9912148 69.7044731 63.9912148 69.7044731 39.5711342 62.5515853 39.5711342"></polygon>
                        <path d="M138.597579,33.6429892 C138.597579,33.6429892 127.682214,32.8264628 127.997481,41.7313888 C128.312748,50.6363149 126.483192,67.2936356 117.872291,64.0221211 C109.262486,60.7506066 101.675418,53.2256072 101.675418,53.2256072 L99.2567162,55.323918 C99.2567162,55.323918 118.456838,82.8811432 133.837623,68.2859421 C149.218408,53.6907338 138.597579,33.6429892 138.597579,33.6429892" id="Fill-21" fill="#FC790D" mask="url(#mask-8)"></path>
                    </g>
                    <g transform="translate(0.000000, 0.478996)">
                        <g transform="translate(98.543770, 33.577877)">
                            <mask id="mask-10" fill="white">
                                <use xlink:href="#path-9"></use>
                            </mask>
                            <g id="Clip-23"></g>
                            <path d="M40.0538089,0.0651118838 C40.0538089,0.0651118838 29.1384439,-0.751414498 29.453711,8.15351156 C29.7689781,17.0584376 27.9394217,33.7157583 19.3285211,30.4442438 C10.7187154,27.1727293 3.13164803,19.6477299 3.13164803,19.6477299 L0.712945929,21.7460407 C0.712945929,21.7460407 19.9130681,49.3032659 35.2938528,34.7080648 C50.6746375,20.1128565 40.0538089,0.0651118838 40.0538089,0.0651118838" id="Fill-22" fill-opacity="0.46" fill="#FFFFFF" mask="url(#mask-10)"></path>
                        </g>
                        <mask id="mask-12" fill="white">
                            <use xlink:href="#path-11"></use>
                        </mask>
                        <g id="Clip-25"></g>
                        <path d="M137.770323,22.5004626 C137.770323,22.5004626 131.847477,31.1883004 139.418996,30.5939719 C146.9911,29.9995705 143.455422,21.9835823 143.455422,21.9835823 L137.770323,22.5004626 Z" id="Fill-24" fill="#FFD200" mask="url(#mask-12)"></path>
                        <path d="M137.770323,22.5004626 C137.770323,22.5004626 131.847477,31.1883004 139.418996,30.5939719 C146.9911,29.9995705 143.455422,21.9835823 143.455422,21.9835823 L137.770323,22.5004626 Z" id="Fill-26" fill="#24285B" mask="url(#mask-12)"></path>
                        <polygon id="Fill-27" fill="#C9C9C9" mask="url(#mask-12)" points="11.168637 22.0558477 140.633326 22.0558477 140.633326 9.24370494 11.168637 9.24370494"></polygon>
                        <polygon id="Fill-28" fill="#C9C9C9" mask="url(#mask-12)" points="19.6962792 99.9825386 42.4366703 99.9825386 42.4366703 91.806851 19.6962792 91.806851"></polygon>
                        <polygon id="Fill-29" fill="#A5A5A5" mask="url(#mask-12)" points="19.6963375 99.9829035 17.6290279 120.935076 21.2468179 120.935076 24.9886417 99.9829035"></polygon>
                        <polygon id="Fill-30" fill="#A5A5A5" mask="url(#mask-12)" points="42.35393 99.9829035 44.4212396 120.935076 40.8034496 120.935076 37.0616259 99.9829035"></polygon>
                    </g>
                    <g transform="translate(21.168662, 77.854104)">
                        <mask id="mask-14" fill="white">
                            <use xlink:href="#path-13"></use>
                        </mask>
                        <g id="Clip-32"></g>
                        <path d="M7.00885632,7.2891951 C7.00885632,7.2891951 1.3651013,5.73870741 0.140224135,0.492915939 C0.140224135,0.492915939 8.87977184,-1.27463082 9.13301473,7.72849592 L7.00885632,7.2891951 Z" id="Fill-31" fill-opacity="0.58" fill="#FC790D" mask="url(#mask-14)"></path>
                    </g>
                    <g transform="translate(0.000000, 0.478996)">
                        <g transform="translate(26.278339, 71.535478)">
                            <mask id="mask-16" fill="white">
                                <use xlink:href="#path-15"></use>
                            </mask>
                            <g id="Clip-34"></g>
                            <path d="M2.59167926,12.5605204 C2.59167926,12.5605204 -1.35171395,6.32706482 2.11619462,0.502945505 C2.11619462,0.502945505 8.76776042,4.72542197 5.81151301,12.5755063 L2.59167926,12.5605204 Z" id="Fill-33" fill-opacity="0.73" fill="#FC790D" mask="url(#mask-16)"></path>
                        </g>
                        <mask id="mask-18" fill="white">
                            <use xlink:href="#path-17"></use>
                        </mask>
                        <g id="Clip-36"></g>
                        <path d="M29.8829458,84.1010639 C29.8829458,84.1010639 31.9502554,77.5218512 38.2658818,76.2711336 C38.2658818,76.2711336 39.4442463,80.5452908 34.1881187,84.1217362 L29.8829458,84.1010639 Z" id="Fill-35" fill="#FC790D" mask="url(#mask-18)"></path>
                        <polygon id="Fill-37" fill="#24285B" mask="url(#mask-18)" points="25.7947881 83.9511314 26.9369761 91.7805435 34.1415477 91.8069021 35.2010465 83.992476"></polygon>
                        <path d="M138.421952,22.0300803 C138.421952,22.0300803 137.817259,24.9501147 138.080845,26.9657363 C138.1899,27.7864964 138.943942,28.362722 139.764702,28.2536669 L139.770396,28.2526449 C141.066575,28.1559991 142.18501,27.3084496 142.628968,26.0871638 L143.817114,23.6064157 C144.200632,22.5381282 143.866751,21.3442157 142.985551,20.6294449 C141.460896,19.2340651 138.706196,20.231547 138.421952,22.0300803" id="Fill-38" fill="#F4A28C" mask="url(#mask-18)"></path>
                        <polygon id="Fill-39" fill="#F4A28C" mask="url(#mask-18)" points="143.605355 24.0559942 143.993033 33.8136524 138.597871 33.6431352 140.48378 26.6142635"></polygon>
                        <path d="M141.269502,24.9347127 C141.269502,24.9347127 141.424545,23.7976636 142.272167,23.9889115 C143.119789,24.1800864 142.897518,25.8236505 141.719154,25.8391255 L141.269502,24.9347127 Z" id="Fill-40" fill="#F4A28C" mask="url(#mask-18)"></path>
                        <path d="M138.137781,23.885404 L137.176505,24.9190187 C136.997666,25.1154493 137.012192,25.4193291 137.20855,25.5981678 C137.258698,25.6436439 137.318116,25.6782437 137.382717,25.6994123 L138.489254,26.0457025 L138.137781,23.885404 Z" id="Fill-41" fill="#F4A28C" mask="url(#mask-18)"></path>
                    </g>
                    <g transform="translate(0.000000, 0.478996)">
                        <g transform="translate(139.421186, 27.008293)">
                            <mask id="mask-20" fill="white">
                                <use xlink:href="#path-19"></use>
                            </mask>
                            <g id="Clip-43"></g>
                            <path d="M0.581992208,1.12551585 C1.26836782,1.0376294 1.91335504,0.749808599 2.43738891,0.298551126 C2.43738891,0.298551126 2.15314488,2.06613438 -0.00197087541,3.58560633 L0.581992208,1.12551585 Z" id="Fill-42" fill-opacity="0.31" fill="#CE8172" mask="url(#mask-20)"></path>
                        </g>
                        <mask id="mask-22" fill="white">
                            <use xlink:href="#path-21"></use>
                        </mask>
                        <g id="Clip-45"></g>
                        <path d="M138.597579,33.6429892 C138.597579,33.6429892 114.823566,46.5636834 125.924996,58.7246416 L131.351692,72.8081815 L148.40648,72.8081815 C148.40648,72.8081815 164.128299,43.4317434 143.992741,33.8135794 L138.597579,33.6429892 Z" id="Fill-44" fill="#FC790D" mask="url(#mask-22)"></path>
                    </g>
                    <g transform="translate(0.000000, 0.478996)">
                        <g transform="translate(128.471878, 41.607370)">
                            <mask id="mask-24" fill="white">
                                <use xlink:href="#path-23"></use>
                            </mask>
                            <g id="Clip-47"></g>
                            <path d="M11.7948134,0.108544138 C11.7948134,0.108544138 5.02952805,5.71612264 11.4485233,13.0809045 C17.8675185,20.4456936 7.11237837,19.2828333 4.41505289,13.9853538 L0.709369156,25.5622832 L2.87952196,31.2008629 L19.5472153,30.2654051 L23.4234162,24.0169636 L25.2323149,13.0809045 L11.7948134,0.108544138 Z" id="Fill-46" fill-opacity="0.08" fill="#000000" mask="url(#mask-24)"></path>
                        </g>
                        <mask id="mask-26" fill="white">
                            <use xlink:href="#path-25"></use>
                        </mask>
                        <g id="Clip-49"></g>
                        <polygon id="Fill-48" fill="#FFD200" mask="url(#mask-26)" points="125.974195 50.3233107 137.054968 51.7998613 134.905473 67.9321262 123.8247 66.4555464"></polygon>
                    </g>
                    <g transform="translate(0.000000, 0.478996)">
                        <g transform="translate(128.471878, 58.396308)">
                            <mask id="mask-28" fill="white">
                                <use xlink:href="#path-27"></use>
                            </mask>
                            <g id="Clip-51"></g>
                            <path d="M7.65013538,0.380225663 C7.65013538,0.380225663 3.73772871,-0.384678382 3.19508102,2.77829926 C2.92375717,4.57169369 2.28701842,6.29066202 1.32413629,7.82770395 L0.709150169,8.77349786 L6.4459305,9.53840191 L7.65013538,0.380225663 Z" id="Fill-50" fill-opacity="0.08" fill="#000000" mask="url(#mask-28)"></path>
                        </g>
                        <mask id="mask-30" fill="white">
                            <use xlink:href="#path-29"></use>
                        </mask>
                        <g id="Clip-53"></g>
                        <path d="M138.586995,62.9833019 C138.586995,62.9833019 135.961497,59.8823338 134.235302,61.1795713 C132.509107,62.4768088 137.052048,65.6242822 137.052048,65.6242822 L138.586995,62.9833019 Z" id="Fill-52" fill="#F4A28C" mask="url(#mask-30)"></path>
                        <path d="M101.463221,53.4840839 C101.463221,53.4840839 99.008313,49.8662866 97.2878117,51.1583779 C95.5667995,52.4503962 99.2667166,55.3239691 99.2667166,55.3239691 L101.463221,53.4840839 Z" id="Fill-54" fill="#F4A28C" mask="url(#mask-30)"></path>
                        <polygon id="Fill-55" fill="#F4A28C" mask="url(#mask-30)" points="142.819997 90.9903684 152.453636 118.356368 154.402102 118.211654 150.432394 90.4373627"></polygon>
                        <path d="M152.350567,117.937578 C152.350567,117.937578 151.751056,119.591428 150.406773,119.968712 C149.063512,120.345996 149.487323,122.278929 151.548931,121.37965 C152.191875,121.102631 152.811606,120.772378 153.399218,120.39251 C153.949604,120.061741 154.577583,119.883952 155.21892,119.875683 C155.464477,119.84519 155.668572,119.670504 155.735801,119.43121 C156.102749,118.521593 154.076762,117.3639 154.076762,117.3639 L152.350567,117.937578 Z" id="Fill-56" fill="#FC790D" mask="url(#mask-30)"></path>
                        <polygon id="Fill-57" fill="#F4A28C" mask="url(#mask-30)" points="132.07515 89.3728053 130.090551 118.315125 131.935655 118.95547 139.284904 91.8794157"></polygon>
                        <path d="M130.15778,117.891117 C130.15778,117.891117 128.953575,119.172332 127.573597,118.986792 C126.193692,118.800734 125.816379,120.744004 128.090404,120.733668 C128.783496,120.732118 129.475054,120.6732 130.15778,120.557947 C130.793935,120.466469 131.443593,120.547093 132.039017,120.790519 C132.278807,120.867526 132.540349,120.787418 132.695391,120.588956 C133.398264,119.901576 131.987336,118.051334 131.987336,118.051334 L130.15778,117.891117 Z" id="Fill-58" fill="#FC790D" mask="url(#mask-30)"></path>
                        <polygon id="Fill-59" fill="#24285B" mask="url(#mask-30)" points="131.3514 72.8080793 129.06701 96.406407 155.425205 96.406407 150.086396 71.630233"></polygon>
                        <path d="M140.375236,43.1165493 C139.341548,37.948257 145.543455,34.4131635 149.548858,37.8397129 C151.647694,39.6382462 153.363597,42.0466559 155.187459,47.0961117 C160.810586,62.6370774 159.451266,87.3414167 136.214718,65.6243333 L138.313554,62.6835901 C138.313554,62.6835901 149.311185,71.6453723 150.200634,64.6682032 C150.846643,59.7893596 141.853319,50.6104745 140.375236,43.1165493" id="Fill-60" fill="#FC790D" mask="url(#mask-30)"></path>
                    </g>
                    <g transform="translate(0.000000, 0.478996)">
                        <g transform="translate(135.771417, 35.767739)">
                            <mask id="mask-32" fill="white">
                                <use xlink:href="#path-31"></use>
                            </mask>
                            <g id="Clip-62"></g>
                            <path d="M4.60381896,7.34881043 C3.57013131,2.18051815 9.77203824,-1.35457537 13.777441,2.07197402 C15.8762773,3.87050732 17.5921799,6.27891706 19.4160426,11.3283728 C25.0391691,26.8693386 23.679849,51.5736778 0.443300976,29.8565944 L2.54213729,26.9158512 C2.54213729,26.9158512 13.5397681,35.8776334 14.4292168,28.9004644 C15.075226,24.0216207 6.08190252,14.8427357 4.60381896,7.34881043" id="Fill-61" fill-opacity="0.46" fill="#FFFFFF" mask="url(#mask-32)"></path>
                        </g>
                        <mask id="mask-34" fill="white">
                            <use xlink:href="#path-33"></use>
                        </mask>
                        <g id="Clip-64"></g>
                        <path d="M138.018653,18.427685 C137.184024,19.0639128 136.683713,20.0453358 136.659406,21.0944985 C136.659406,21.9989843 137.047084,22.9498952 138.607872,23.1204854 C141.708862,23.4667755 142.783865,23.4667755 142.783865,23.4667755 C142.783865,23.4667755 139.321109,31.9943884 145.43513,31.3896946 C151.549223,30.7850009 149.223517,25.6167816 146.556704,20.9652966 C144.148221,16.7583536 140.974966,16.0657734 138.018653,18.427685" id="Fill-63" fill="#24285B" mask="url(#mask-34)"></path>
                    </g>
                    <polygon id="Fill-65" fill-opacity="0.08" fill="#000000" points="28.7614301 39.2645828 35.2062642 39.2645828 35.2062642 36.5512399 28.7614301 36.5512399"></polygon>
                    <polygon id="Fill-67" fill-opacity="0.08" fill="#000000" points="28.7614301 43.5490469 35.2062642 43.5490469 35.2062642 40.8357041 28.7614301 40.8357041"></polygon>
                    <g transform="translate(0.000000, 0.478996)">
                        <polygon id="Fill-69" fill-opacity="0.4" fill="#C9C9C9" points="55.677785 75.0151385 108.223083 75.0151385 108.223083 87.5068534 55.677785 87.5068534"></polygon>
                        <mask id="mask-36" fill="white">
                            <use xlink:href="#path-35"></use>
                        </mask>
                        <g id="Clip-72"></g>
                        <polygon id="Fill-71" fill="#FFD200" mask="url(#mask-36)" points="0 28.26812 32.6221268 28.26812 32.6221268 0.250921637 0 0.250921637"></polygon>
                        <path d="M16.8227209,6.14796334 C17.2361887,6.14796334 17.3395501,6.29271319 17.3395501,6.70615905 L17.3395501,7.58473151 C18.8383498,7.72583159 20.1340325,8.69024663 20.6989292,10.0862104 C20.9159955,10.5203139 20.828131,10.7528772 20.3423175,10.9699655 L19.4585405,11.3627537 C19.04508,11.5642939 18.8486859,11.4712978 18.6109473,11.0423039 C18.2341816,10.123438 17.2992348,9.56005964 16.3110671,9.6572165 C14.7605867,9.6572165 14.0783718,10.1068681 14.0783718,11.1301904 C14.1507248,11.7767105 14.6701381,12.2816926 15.3187532,12.3343953 C15.7466886,12.4284863 16.1797922,12.4956421 16.6159907,12.5359355 C17.4320645,12.5736741 18.2383131,12.7302492 19.0089035,13.0011351 C19.3867057,13.1266872 19.737631,13.3236287 20.0425547,13.5799155 C20.688593,14.2549038 21.033832,15.1629664 20.9986847,16.0968694 C20.9986847,18.0557006 19.685943,19.3891073 17.3808947,19.7146667 L17.3808947,20.6501755 C17.3808947,21.0636214 17.2516929,21.2082983 16.8640728,21.2082983 L15.8355824,21.2082983 C15.422122,21.2082983 15.2774086,21.0636214 15.2774086,20.6501755 L15.2774086,19.7508724 C13.6204644,19.6438612 12.1924703,18.5482004 11.6596186,16.9755149 C11.5149053,16.5827267 11.6596186,16.3139577 12.0730791,16.1485501 L12.951688,15.8281734 C13.401325,15.6627658 13.6028872,15.77131 13.7992812,16.2209616 C14.1972448,17.2545762 15.0034934,17.7352508 16.2283706,17.7352508 C17.8822197,17.7352508 18.7091407,17.2184435 18.7091407,16.1485501 C18.7391199,15.643641 18.421787,15.1831132 17.9390685,15.0322317 C17.3648722,14.8317134 16.7638063,14.7169646 16.1560176,14.6911243 C15.3290893,14.6461591 14.5150886,14.4714812 13.7424324,14.1743169 C13.3656668,14.0409544 13.0152597,13.841458 12.7087813,13.5850982 C12.0570639,12.940111 11.7045838,12.0516841 11.737147,11.1353731 C11.737147,9.1920899 12.9568561,7.89999858 15.2619044,7.58991419 L15.2619044,6.71134173 C15.2619044,6.29782287 15.4066177,6.15314601 15.8200782,6.15314601 L16.8227209,6.14796334 Z" id="Fill-73" fill="#FFFFFF" mask="url(#mask-36)"></path>
                    </g>
                </g>
                <g id="独家解决方案备份" transform="translate(24.461564, 150.986898)">
                    <rect id="Rectangle-3" fill="#FC790D" x="0" y="0" width="170.724849" height="33.4026878" rx="3.6022268"></rect>
                    <text id="独家功能" font-family="FZLTCHJW--GB1-0, FZLanTingHeiS-B-GB" font-size="18.011134" font-weight="normal" line-spacing="21.6133608" fill="#FFFFFF">
                        <tspan x="88.2357293" y="21.6301145">独家功能</tspan>
                    </text>
                    <g id="句客宝logo" transform="translate(7.586043, 6.804206)">
                        <path d="M8.5045812,-1.54758361e-13 C10.8112375,-1.54758361e-13 12.8057681,0.840190548 14.4873285,2.51821487 C16.1682133,4.19724924 17.0093313,6.18872473 17.0093313,8.49129462 C17.0093313,13.6068447 13.4313707,17.3731406 6.27595631,19.7940543 L6.27595631,19.7940543 L6.27595631,16.690349 C4.35962604,16.1429037 2.8344663,15.0988521 1.7008149,13.5571841 C0.566319003,12.0151794 0,10.3273913 0,8.49129462 C0,6.18872473 0.840104599,4.19724924 2.52200279,2.51821487 C4.20254978,0.840190548 6.19691149,-1.54758361e-13 8.5045812,-1.54758361e-13 Z M8.58225794,5.2306954 C6.81253216,5.18709504 5.34614935,6.43618618 5.30679584,8.02094952 C5.26761122,9.60554452 6.67031904,10.9251706 8.44021371,10.9691076 C8.51132027,10.9712961 8.58090674,10.9669192 8.65066211,10.9650674 C8.65066211,10.9654041 8.95214717,11.178019 9.2828518,11.3477068 C9.65155874,11.5364172 10.1045464,11.6631781 10.3678602,11.6406204 C10.7162993,11.610824 10.7711915,11.3874353 10.7014361,11.2731317 C10.6352277,11.164215 10.5195317,11.1593331 10.4077204,11.0893032 C10.2734456,11.0047959 10.2139931,10.9620373 10.158763,10.8308996 C10.0954258,10.6798976 10.1687281,10.5677824 10.3080699,10.4928706 L10.3218071,10.4797026 C10.326236,10.4754379 10.3316595,10.4702006 10.3379651,10.4640842 C11.1498635,9.96225936 11.6920299,9.1326743 11.7156758,8.17919018 C11.7550293,6.59476352 10.3523215,5.27463243 8.58225794,5.2306954 Z" id="形状结合" fill="#FFFFFF"></path>
                        <path d="M31.6453564,18.3197822 C32.0357836,18.3197822 32.4576967,18.23199 32.911096,18.0564057 C33.3644952,17.8808213 33.7864084,17.5986322 34.1768355,17.2098383 C34.5672626,16.8210443 34.8978662,16.3131039 35.1686463,15.6860169 C35.4394264,15.05893 35.5811137,14.2938839 35.5937081,13.3908786 L35.5937081,13.3908786 L35.6881663,4.79351628 C35.7133551,4.36709715 35.5748165,4.0033867 35.2725503,3.70238496 C34.9576897,3.38884147 34.5609654,3.23206973 34.0823773,3.23206973 L34.0823773,3.23206973 L26.3556987,3.23206973 C26.4438597,2.98123495 26.5257234,2.71472298 26.6012899,2.43253385 C26.6768565,2.15034471 26.7650174,1.8524784 26.8657728,1.53893492 C26.928745,1.35080883 26.9098533,1.17208904 26.8090979,1.00277556 C26.7083425,0.833462079 26.5635067,0.71745099 26.3745903,0.654742293 C26.1730796,0.592033596 25.9873118,0.610846205 25.8172871,0.71118012 C25.6472624,0.811514035 25.530764,0.955744037 25.4677919,1.14387013 C25.2536867,1.88383275 25.0490273,2.54854494 24.8538137,3.13800669 C24.6586002,3.72746844 24.4539408,4.26989867 24.2398356,4.76529737 C24.0257304,5.26069608 23.789585,5.72474043 23.5313993,6.15743044 C23.2732136,6.59012045 22.9740961,7.01967502 22.6340466,7.44609416 C22.5081024,7.60913677 22.4577247,7.78785656 22.4829136,7.98225352 C22.5081024,8.17665048 22.6025606,8.33655766 22.7662881,8.46197505 C22.9048267,8.56230896 23.0496626,8.61247592 23.2007957,8.61247592 C23.3015511,8.61247592 23.4054551,8.59052788 23.5125077,8.54663179 C23.6195603,8.5027357 23.7108698,8.4306207 23.7864364,8.33028679 C24.25243,7.74082504 24.6460057,7.16076959 24.9671635,6.59012045 C25.2883213,6.01947131 25.5811417,5.37670716 25.8456246,4.66182802 L25.8456246,4.66182802 L34.0823773,4.66182802 C34.1579439,4.66182802 34.2083216,4.68064063 34.2335104,4.71826585 C34.2461048,4.71826585 34.252402,4.73707846 34.252402,4.77470367 L34.252402,4.77470367 L34.1390522,13.372066 C34.1264578,14.0869452 34.0225538,14.670136 33.8273403,15.1216387 C33.6321267,15.5731413 33.4022785,15.9305808 33.1377956,16.1939574 C32.8733127,16.4573339 32.599384,16.6360537 32.3160095,16.7301167 C32.032635,16.8241798 31.8090839,16.8712113 31.6453564,16.8712113 L31.6453564,16.8712113 L31.1730656,16.8712113 C30.9589604,16.8586696 30.7826385,16.9213783 30.6440998,17.0593374 C30.5055611,17.1972965 30.4362918,17.36661 30.4362918,17.5672778 C30.4236974,17.7804874 30.4866695,17.9560717 30.6252082,18.0940309 C30.7637468,18.23199 30.9337715,18.3072405 31.1352823,18.3197822 L31.1352823,18.3197822 L31.6453564,18.3197822 Z M30.9270496,14.1810082 C31.267099,14.1810082 31.5567707,14.0618617 31.7960648,13.8235686 C32.0353588,13.5852756 32.1550058,13.2968156 32.1550058,12.9581886 L32.1550058,12.9581886 L32.1550058,8.23622374 C32.1550058,7.89759678 32.0353588,7.60913677 31.7960648,7.37084372 C31.5567707,7.13255068 31.267099,7.01340415 30.9270496,7.01340415 L30.9270496,7.01340415 L26.506407,7.01340415 C26.1663576,7.01340415 25.8766859,7.13255068 25.6373918,7.37084372 C25.3980978,7.60913677 25.2784508,7.89759678 25.2784508,8.23622374 L25.2784508,8.23622374 L25.2784508,12.9581886 C25.2784508,13.2968156 25.3980978,13.5852756 25.6373918,13.8235686 C25.8766859,14.0618617 26.1663576,14.1810082 26.506407,14.1810082 L26.506407,14.1810082 L30.9270496,14.1810082 Z M30.7003499,12.7324373 L26.7331066,12.7324373 L26.7331066,8.44316244 L30.7003499,8.44316244 L30.7003499,12.7324373 Z M53.0865124,6.37377544 C53.2880232,6.37377544 53.4611965,6.30166044 53.6060324,6.15743044 C53.7508682,6.01320044 53.8232862,5.84702239 53.8232862,5.6588963 L53.8232862,5.6588963 L53.8232862,3.60832191 C53.8232862,3.26969495 53.7004906,2.98123495 53.4548993,2.7429419 C53.209308,2.50464885 52.9164877,2.38550233 52.5764383,2.38550233 L52.5764383,2.38550233 L48.3069288,2.38550233 L47.6457216,1.04980708 C47.5449662,0.874222732 47.403279,0.751940773 47.2206598,0.682961206 C47.0380407,0.61398164 46.8585701,0.623387944 46.6822482,0.71118012 C46.5059263,0.798972295 46.3799821,0.936931428 46.3044155,1.12505752 C46.228849,1.31318361 46.2414434,1.49503883 46.3421988,1.67062318 L46.3421988,1.67062318 L46.7011399,2.36668972 L42.1293642,2.36668972 C41.7767204,2.36668972 41.4807514,2.48583624 41.2414574,2.72412929 C41.0021634,2.96242234 40.8825163,3.25088234 40.8825163,3.5895093 L40.8825163,3.5895093 L40.8825163,5.64008369 C40.8825163,5.85329326 40.9549343,6.02887761 41.0997701,6.16683674 C41.244606,6.30479588 41.4177793,6.37377544 41.6192901,6.37377544 C41.8208009,6.37377544 41.9908256,6.30166044 42.1293642,6.15743044 C42.2679029,6.01320044 42.3371722,5.84702239 42.3371722,5.6588963 L42.3371722,5.6588963 L42.3371722,3.83407322 L52.3686303,3.83407322 L52.3686303,5.6588963 C52.3686303,5.84702239 52.4378996,6.01320044 52.5764383,6.15743044 C52.7149769,6.30166044 52.8850017,6.37377544 53.0865124,6.37377544 Z M53.4832368,12.8076877 C53.6595587,12.8076877 53.8138404,12.7543853 53.9460818,12.6477806 C54.0783232,12.5411758 54.1570384,12.4000812 54.1822272,12.2244969 C54.2326049,12.023829 54.2011189,11.8419738 54.0877691,11.6789312 C53.9744193,11.5158886 53.816989,11.4155547 53.6154782,11.3779295 C52.5449522,11.1647199 51.6098163,10.9483749 50.8100704,10.7288944 C50.0103246,10.509414 49.3081855,10.2617146 48.7036531,9.98579638 C49.3585632,9.5468355 49.9410552,9.07024941 50.4511294,8.55603809 C50.9612035,8.04182678 51.4114541,7.47117764 51.8018813,6.84409067 C51.8774478,6.73121502 51.9183797,6.60266219 51.9246769,6.45843218 C51.9309741,6.31420218 51.9089339,6.18251392 51.8585562,6.06336739 C51.8081785,5.94422087 51.7294633,5.84075152 51.6224107,5.75295935 C51.5153581,5.66516717 51.3862653,5.62127108 51.2351322,5.62127108 L51.2351322,5.62127108 L45.7376665,5.62127108 C45.7880442,5.52093717 45.8321247,5.43314499 45.8699079,5.35789456 C45.9076912,5.28264412 45.9454745,5.19485194 45.9832577,5.09451803 C46.0714187,4.91893368 46.0808645,4.74021389 46.0115952,4.55835867 C45.9423259,4.37650345 45.813233,4.23540888 45.6243167,4.13507497 C45.4479947,4.04728279 45.2685242,4.03787649 45.0859051,4.10685605 C44.9032859,4.17583562 44.7615987,4.30438845 44.6608433,4.49251454 C44.3333883,5.1823102 43.9114751,5.83448065 43.3951038,6.44902588 C42.8787324,7.06357111 42.2679029,7.62167851 41.5626152,8.12334809 C41.3862933,8.23622374 41.2855379,8.38986005 41.260349,8.58425701 C41.2351602,8.77865397 41.2729435,8.95737375 41.3736988,9.12041637 C41.5374263,9.3210842 41.7389371,9.42141811 41.9782312,9.42141811 C42.1419587,9.42141811 42.2742001,9.37125115 42.3749555,9.27091724 C42.626844,9.09533289 42.8692866,8.91347767 43.1022834,8.72535158 C43.3352803,8.53722548 43.5588313,8.33655766 43.7729365,8.12334809 C44.1003915,8.46197505 44.4246979,8.78492484 44.7458557,9.09219745 C45.0670134,9.39947007 45.4102115,9.68479464 45.7754498,9.94817116 C44.4656297,10.5250912 42.9165157,11.0016773 41.1281076,11.3779295 C40.9265968,11.4155547 40.7691665,11.519024 40.6558167,11.6883375 C40.5424669,11.857651 40.5109809,12.0426416 40.5613585,12.2433095 C40.5991418,12.4063521 40.6841542,12.5411758 40.8163956,12.6477806 C40.9486371,12.7543853 41.1029187,12.8076877 41.2792407,12.8076877 C41.3422128,12.8076877 41.3925905,12.8014169 41.4303737,12.7888751 C42.5764663,12.5505821 43.6281006,12.2715284 44.5852768,11.951714 C45.5424529,11.6318997 46.4240625,11.2713247 47.2301056,10.869989 C47.9731766,11.2713247 48.832746,11.6256288 49.8088138,11.9329014 C50.7848816,12.240174 51.9656088,12.5254986 53.3509953,12.7888751 C53.3761842,12.7888751 53.3982244,12.7920106 53.417116,12.7982814 C53.4360077,12.8045523 53.4580479,12.8076877 53.4832368,12.8076877 Z M47.211214,9.1956668 C46.7704092,8.9072068 46.348496,8.58739244 45.9454745,8.23622374 C45.5424529,7.88505504 45.1394314,7.49626112 44.7364098,7.06984198 L44.7364098,7.06984198 L49.8182596,7.06984198 C49.1129719,7.89759678 48.2439567,8.60620505 47.211214,9.1956668 Z M51.0084326,18.0752183 C51.3106988,18.0752183 51.572033,17.9654781 51.7924354,17.7459976 C52.0128378,17.5265172 52.123039,17.2662761 52.123039,16.9652743 L52.123039,16.9652743 L52.123039,13.6918804 C52.123039,13.3783369 52.0159864,13.1118249 51.8018813,12.8923445 C51.5877761,12.672864 51.3232932,12.5631238 51.0084326,12.5631238 L51.0084326,12.5631238 L43.640695,12.5631238 C43.3384289,12.5631238 43.0770946,12.672864 42.8566922,12.8923445 C42.6362898,13.1118249 42.5260886,13.3846078 42.5260886,13.710693 L42.5260886,13.710693 L42.5260886,16.9652743 C42.5260886,17.2662761 42.6331412,17.5265172 42.8472464,17.7459976 C43.0613516,17.9654781 43.3258344,18.0752183 43.640695,18.0752183 L43.640695,18.0752183 L51.0084326,18.0752183 Z M50.6872748,16.64546 L43.9807444,16.64546 L43.9807444,13.9928821 L50.6872748,13.9928821 L50.6872748,16.64546 Z M59.1314108,6.67477719 C59.3329216,6.67477719 59.5029463,6.60266219 59.6414849,6.45843218 C59.7800236,6.31420218 59.8492929,6.14175327 59.8492929,5.94108544 L59.8492929,5.94108544 L59.8492929,4.39845149 L69.880751,4.39845149 L69.880751,5.94108544 C69.880751,6.12921153 69.9500203,6.29538957 70.088559,6.43961958 C70.2270976,6.58384958 70.3971224,6.65596458 70.5986331,6.65596458 C70.8001439,6.65596458 70.9733172,6.58384958 71.1181531,6.43961958 C71.2629889,6.29538957 71.3354069,6.12294066 71.3354069,5.92227283 L71.3354069,5.92227283 L71.3354069,4.05982453 C71.3354069,3.74628105 71.2157599,3.48290452 70.9764658,3.26969495 C70.7371718,3.05648538 70.4412028,2.9498806 70.088559,2.9498806 L70.088559,2.9498806 L66.1779906,2.9498806 C66.1653962,2.86208842 66.1339101,2.77429625 66.0835324,2.68650407 L66.0835324,2.68650407 L64.9878176,1.01218186 C64.8870622,0.836597514 64.7390777,0.729992729 64.5438642,0.692367511 C64.3486506,0.654742293 64.1628829,0.686096641 63.9865609,0.786430556 C63.810239,0.89930621 63.7031864,1.05294252 63.6654032,1.24733948 C63.6276199,1.44173644 63.6654032,1.62045622 63.778753,1.78349884 L63.778753,1.78349884 L64.5155267,2.96869321 L59.6414849,2.96869321 C59.2888411,2.96869321 58.9928721,3.07843343 58.7535781,3.29791386 C58.5142841,3.5173943 58.394637,3.7776354 58.394637,4.07863714 L58.394637,4.07863714 L58.394637,5.94108544 C58.394637,6.14175327 58.467055,6.31420218 58.6118908,6.45843218 C58.7567267,6.60266219 58.9299,6.67477719 59.1314108,6.67477719 Z M70.7308746,18.0564057 C70.9449798,18.0564057 71.1213017,17.9842907 71.2598403,17.8400607 C71.398379,17.6958307 71.4676483,17.5296526 71.4676483,17.3415265 C71.4676483,17.1408587 71.3952304,16.9684098 71.2503945,16.8241798 C71.1055587,16.6799498 70.9323853,16.6078348 70.7308746,16.6078348 L70.7308746,16.6078348 L65.5167834,16.6078348 L65.5167834,12.5443112 L69.6162681,12.5443112 C69.8303733,12.5443112 70.0066952,12.4753316 70.1452339,12.3373725 C70.2837725,12.1994134 70.3530419,12.0300999 70.3530419,11.8294321 C70.3530419,11.6287642 70.2806239,11.4563153 70.1357881,11.3120853 C69.9909522,11.1678553 69.8177789,11.0957403 69.6162681,11.0957403 L69.6162681,11.0957403 L65.5167834,11.0957403 L65.5167834,8.29266157 L70.2208004,8.29266157 C70.4349056,8.29266157 70.6112275,8.223682 70.7497662,8.08572287 C70.8883049,7.94776373 70.9575742,7.77845025 70.9575742,7.57778242 C70.9575742,7.37711459 70.8851563,7.20466568 70.7403204,7.06043567 C70.5954845,6.91620567 70.4223112,6.84409067 70.2208004,6.84409067 L70.2208004,6.84409067 L60.3026922,6.84409067 C60.088587,6.84409067 59.9154136,6.91620567 59.7831722,7.06043567 C59.6509308,7.20466568 59.58481,7.37711459 59.58481,7.57778242 C59.58481,7.77845025 59.6540794,7.94776373 59.792618,8.08572287 C59.9311567,8.223682 60.1011814,8.29266157 60.3026922,8.29266157 L60.3026922,8.29266157 L64.0432358,8.29266157 L64.0432358,11.0957403 L60.3026922,11.0957403 C60.088587,11.0957403 59.9154136,11.1678553 59.7831722,11.3120853 C59.6509308,11.4563153 59.58481,11.6287642 59.58481,11.8294321 C59.58481,12.0300999 59.6540794,12.1994134 59.792618,12.3373725 C59.9311567,12.4753316 60.1011814,12.5443112 60.3026922,12.5443112 L60.3026922,12.5443112 L64.0432358,12.5443112 L64.0432358,16.6078348 L58.9236028,16.6078348 C58.722092,16.6078348 58.5520673,16.6799498 58.4135287,16.8241798 C58.27499,16.9684098 58.2057207,17.1408587 58.2057207,17.3415265 C58.2057207,17.5296526 58.2781386,17.6958307 58.4229745,17.8400607 C58.5678104,17.9842907 58.7346865,18.0564057 58.9236028,18.0564057 L58.9236028,18.0564057 L70.7308746,18.0564057 Z" id="句客宝" stroke="#FFFFFF" stroke-width="0.519999981" fill="#FFFFFF" fill-rule="nonzero"></path>
                        <ellipse id="椭圆形" stroke="#FFFFFF" stroke-width="0.975194876" fill="#FC790D" fill-rule="nonzero" cx="68.4416639" cy="14.5723829" rx="1.4310552" ry="1.4660758"></ellipse>
                    </g>
                </g>
            </g>
        </g>
    </g>
</svg>