<?xml version="1.0" encoding="UTF-8"?>
<svg width="303px" height="301px" viewBox="0 0 303 301" version="1.1" xmlns="http://www.w3.org/2000/svg" xmlns:xlink="http://www.w3.org/1999/xlink">
    <title>2-2</title>
    <defs>
        <polygon id="path-1" points="0.522751964 0.0521751753 255.716831 0.0521751753 255.716831 36.7412452 0.522751964 36.7412452"></polygon>
        <polygon id="path-3" points="0 244.118953 292.656661 244.118953 292.656661 0.471939497 0 0.471939497"></polygon>
        <polygon id="path-5" points="0.142073366 0.014272187 61.6938048 0.014272187 61.6938048 16.2223012 0.142073366 16.2223012"></polygon>
        <polygon id="path-7" points="0 244.118953 292.656661 244.118953 292.656661 0.471939497 0 0.471939497"></polygon>
        <polygon id="path-9" points="0.0102704749 0.014272187 23.859959 0.014272187 23.859959 23.8639229 0.0102704749 23.8639229"></polygon>
        <polyline id="path-11" points="0 244.118953 292.656661 244.118953 292.656661 0.471939497 0 0.471939497"></polyline>
        <polygon id="path-13" points="0.126192357 0.328005748 12.2098605 0.328005748 12.2098605 12.4117255 0.126192357 12.4117255"></polygon>
        <polygon id="path-15" points="0.409483376 0.00019069046 38.2214476 0.00019069046 38.2214476 12.0036787 0.409483376 12.0036787"></polygon>
        <polygon id="path-17" points="0 244.118953 292.656661 244.118953 292.656661 0.471939497 0 0.471939497"></polygon>
        <polygon id="path-19" points="0.932264041 0.0801149579 11.811884 0.0801149579 11.811884 22.4192704 0.932264041 22.4192704"></polygon>
        <polygon id="path-21" points="0 244.118953 292.656661 244.118953 292.656661 0.471939497 0 0.471939497"></polygon>
        <polygon id="path-23" points="0.394621671 0.747841981 16.7583248 0.747841981 16.7583248 15.1669169 0.394621671 15.1669169"></polygon>
        <polygon id="path-25" points="0 244.118953 292.656661 244.118953 292.656661 0.471939497 0 0.471939497"></polygon>
        <polygon id="path-27" points="0.150378806 0.395838544 45.4056409 0.395838544 45.4056409 4.53976626 0.150378806 4.53976626"></polygon>
        <polyline id="path-29" points="0 244.118953 292.656661 244.118953 292.656661 0.471939497 0 0.471939497"></polyline>
        <polygon id="path-31" points="0.340697574 0.752900749 4.60668169 0.752900749 4.60668169 7.43060061 0.340697574 7.43060061"></polygon>
        <polyline id="path-33" points="0 244.118953 292.656661 244.118953 292.656661 0.471939497 0 0.471939497"></polyline>
        <polygon id="path-35" points="0.213296827 0.627815784 63.7911047 0.627815784 63.7911047 45.9318189 0.213296827 45.9318189"></polygon>
        <polygon id="path-37" points="0 244.118953 292.656661 244.118953 292.656661 0.471939497 0 0.471939497"></polygon>
        <polygon id="path-39" points="0.050461842 0.508871812 41.4794202 0.508871812 41.4794202 32.0897801 0.050461842 32.0897801"></polygon>
        <polygon id="path-41" points="0 244.118953 292.656661 244.118953 292.656661 0.471939497 0 0.471939497"></polygon>
        <polygon id="path-43" points="0.319885292 0.0874124254 5.45528045 0.0874124254 5.45528045 6.27820836 0.319885292 6.27820836"></polygon>
        <polygon id="path-45" points="0 244.118953 292.656661 244.118953 292.656661 0.471939497 0 0.471939497"></polygon>
        <polygon id="path-47" points="0.290690411 2.26512009e-05 15.9719029 2.26512009e-05 15.9719029 3.27926469 0.290690411 3.27926469"></polygon>
        <polygon id="path-49" points="0 244.118953 292.656661 244.118953 292.656661 0.471939497 0 0.471939497"></polygon>
        <polygon id="path-51" points="0.126091685 0.0816827472 25.2180224 0.0816827472 25.2180224 48.4194587 0.126091685 48.4194587"></polygon>
        <polygon id="path-53" points="0 244.118953 292.656661 244.118953 292.656661 0.471939497 0 0.471939497"></polygon>
        <polygon id="path-55" points="0.980419478 0.00374265894 41.6444719 0.00374265894 41.6444719 27.4907232 0.980419478 27.4907232"></polygon>
        <polygon id="path-57" points="0 244.118953 292.656661 244.118953 292.656661 0.471939497 0 0.471939497"></polygon>
        <polyline id="path-59" points="0 244.118953 292.656661 244.118953 292.656661 0.471939497 0 0.471939497"></polyline>
    </defs>
    <g id="最新版备份" stroke="none" stroke-width="1" fill="none" fill-rule="evenodd">
        <g id="亮点2" transform="translate(-162.000000, -875.000000)">
            <g id="3备份-9" transform="translate(0.000000, 550.000000)">
                <g id="编组-4" transform="translate(130.000000, 241.000000)">
                    <g id="2-2" transform="translate(32.000000, 84.000000)">
                        <g id="编组" transform="translate(5.000000, 0.000000)">
                            <path d="M223.066761,175.750554 C223.066761,175.750554 302.566567,175.750554 289.777036,121.154056 C270.309521,38.2456856 137.256658,78.2837803 72.5636916,106.456527 C4.29323349,136.199396 -26.2346919,56.0933942 33.0423507,28.9442072" id="Stroke-1" stroke="#C9C9C9" stroke-width="3.77520015" stroke-linecap="round" stroke-linejoin="round" stroke-dasharray="3.775199995803831,15.10079998321532"></path>
                            <g transform="translate(0.000000, 0.786500)">
                                <g transform="translate(32.718401, 207.377608)">
                                    <mask id="mask-2" fill="white">
                                        <use xlink:href="#path-1"></use>
                                    </mask>
                                    <g id="Clip-4"></g>
                                    <path d="M128.119597,0.0520853608 C198.590251,0.0520853608 255.716831,8.2654108 255.716831,18.3966638 C255.716831,28.5279205 198.590251,36.7412452 128.119597,36.7412452 C57.6500244,36.7412452 0.522449948,28.5279205 0.522449948,18.3966638 C0.522449948,8.2654108 57.6500244,0.0520853608 128.119597,0.0520853608" id="Fill-3" fill-opacity="0.45" fill="#E6E6E6" mask="url(#mask-2)"></path>
                                </g>
                                <mask id="mask-4" fill="white">
                                    <use xlink:href="#path-3"></use>
                                </mask>
                                <g id="Clip-6"></g>
                                <polygon id="Fill-5" fill="#E6E6E6" mask="url(#mask-4)" points="192.290197 227.077169 253.841928 227.077169 253.841928 210.868146 192.290197 210.868146"></polygon>
                            </g>
                            <g transform="translate(0.000000, 0.786500)">
                                <g transform="translate(178.692807, 195.003608)">
                                    <mask id="mask-6" fill="white">
                                        <use xlink:href="#path-5"></use>
                                    </mask>
                                    <g id="Clip-8"></g>
                                    <polygon id="Fill-7" fill-opacity="0.43" fill="#E6E6E6" mask="url(#mask-6)" points="0.142073366 16.2232954 61.6938048 16.2232954 61.6938048 0.014272187 0.142073366 0.014272187"></polygon>
                                </g>
                                <mask id="mask-8" fill="white">
                                    <use xlink:href="#path-7"></use>
                                </mask>
                                <g id="Clip-10"></g>
                                <polygon id="Fill-9" fill="#C9C9C9" mask="url(#mask-8)" points="87.7479082 227.076175 209.61118 227.076175 209.61118 8.51133974 87.7479082 8.51133974"></polygon>
                                <polygon id="Fill-11" fill="#FFFFFF" mask="url(#mask-8)" points="97.8344502 187.247763 198.709774 187.247763 198.709774 33.4245902 97.8344502 33.4245902"></polygon>
                            </g>
                            <g transform="translate(137.117205, 195.790108)">
                                <mask id="mask-10" fill="white">
                                    <use xlink:href="#path-9"></use>
                                </mask>
                                <g id="Clip-13"></g>
                                <path d="M11.9352469,0.013970171 C18.520706,0.013970171 23.8602232,5.35338675 23.8602232,11.9389466 C23.8602232,18.5255005 18.520706,23.8639229 11.9352469,23.8639229 C5.34966188,23.8639229 0.0102704749,18.5255005 0.0102704749,11.9389466 C0.0102704749,5.35338675 5.34966188,0.013970171 11.9352469,0.013970171" id="Fill-12" fill-opacity="0.56" fill="#FFFFFF" mask="url(#mask-10)"></path>
                            </g>
                            <g transform="translate(0.000000, 0.786500)">
                                <polygon id="Fill-14" fill-opacity="0.12" fill="#000000" points="138.369391 17.0575447 172.534436 17.0575447 172.534436 22.0362208 138.369391 22.0362208"></polygon>
                                <mask id="mask-12" fill="white">
                                    <use xlink:href="#path-11"></use>
                                </mask>
                                <g id="Clip-17"></g>
                                <path d="M125.997808,14.5233208 C129.07145,14.5233208 131.562705,17.0145754 131.562705,20.0882175 C131.562705,23.1619855 129.07145,25.65324 125.997808,25.65324 C122.924091,25.65324 120.432773,23.1619855 120.432773,20.0882175 C120.432773,17.0145754 122.924091,14.5233208 125.997808,14.5233208" id="Fill-16" fill="#FFFFFF" mask="url(#mask-12)"></path>
                                <polygon id="Fill-18" fill="#E6E6E6" mask="url(#mask-12)" points="108.348295 154.164916 189.229416 154.164916 189.229416 62.3326946 108.348295 62.3326946"></polygon>
                            </g>
                            <g transform="translate(108.222404, 43.572102)">
                                <mask id="mask-14" fill="white">
                                    <use xlink:href="#path-13"></use>
                                </mask>
                                <g id="Clip-20"></g>
                                <path d="M6.16818626,0.327813213 C9.50518634,0.327813213 12.2101676,3.03274412 12.2101676,6.36976937 C12.2101676,9.70679462 9.50518634,12.4117255 6.16818626,12.4117255 C2.8311736,12.4117255 0.126192357,9.70679462 0.126192357,6.36976937 C0.126192357,3.03274412 2.8311736,0.327813213 6.16818626,0.327813213" id="Fill-19" fill-opacity="0.12" fill="#000000" mask="url(#mask-14)"></path>
                            </g>
                            <g transform="translate(0.000000, 0.786500)">
                                <g transform="translate(151.008006, 142.150806)">
                                    <mask id="mask-16" fill="white">
                                        <use xlink:href="#path-15"></use>
                                    </mask>
                                    <g id="Clip-22"></g>
                                    <polygon id="Fill-21" fill-opacity="0.12" fill="#000000" mask="url(#mask-16)" points="4.50381377 0.00019069046 38.2216364 0.00019069046 38.2216364 12.0036787 0.409483376 12.0036787"></polygon>
                                </g>
                                <mask id="mask-18" fill="white">
                                    <use xlink:href="#path-17"></use>
                                </mask>
                                <g id="Clip-24"></g>
                                <polygon id="Fill-23" fill="#E6E6E6" mask="url(#mask-18)" points="125.063132 47.615341 142.652469 47.615341 142.652469 44.5049109 125.063132 44.5049109"></polygon>
                            </g>
                            <polygon id="Fill-25" fill-opacity="0.56" fill="#E6E6E6" points="125.063132 54.5927918 142.652469 54.5927918 142.652469 51.4823616 125.063132 51.4823616"></polygon>
                            <path d="M53.5036717,214.079696 C53.5036717,214.079696 43.0693205,211.227645 40.7936425,201.508795 C40.7936425,201.508795 56.9718474,198.239359 57.4389152,214.933332 L53.5036717,214.079696 Z" id="Fill-27" fill-opacity="0.58" fill="#FC790D"></path>
                            <g transform="translate(0.000000, 0.786500)">
                                <g transform="translate(50.336002, 189.860007)">
                                    <mask id="mask-20" fill="white">
                                        <use xlink:href="#path-19"></use>
                                    </mask>
                                    <g id="Clip-30"></g>
                                    <path d="M4.4496019,22.3996897 C4.4496019,22.3996897 -2.84450005,10.8622879 3.57510195,0.0801149579 C3.57510195,0.0801149579 15.877699,7.88998476 10.4120901,22.4195724 L4.4496019,22.3996897 Z" id="Fill-29" fill-opacity="0.73" fill="#FC790D" mask="url(#mask-20)"></path>
                                </g>
                                <mask id="mask-22" fill="white">
                                    <use xlink:href="#path-21"></use>
                                </mask>
                                <g id="Clip-32"></g>
                                <path d="M56.6638918,212.269336 C56.6638918,212.269336 60.5196295,200.085998 72.1762898,197.780496 C72.1762898,197.780496 74.3625334,205.730476 64.633742,212.299148 L56.6638918,212.269336 Z" id="Fill-31" fill="#FC790D" mask="url(#mask-22)"></path>
                                <polygon id="Fill-33" fill="#24285B" mask="url(#mask-22)" points="49.0914317 211.99089 51.2081109 226.469789 64.5442068 226.529425 66.5118285 212.060455"></polygon>
                            </g>
                            <g transform="translate(0.000000, 0.786500)">
                                <g transform="translate(114.514404, 159.816806)">
                                    <mask id="mask-24" fill="white">
                                        <use xlink:href="#path-23"></use>
                                    </mask>
                                    <g id="Clip-35"></g>
                                    <path d="M12.3975056,0.747600842 C11.52103,0.743664093 10.66937,1.0378151 9.98268624,1.58238773 C9.40234989,2.04846135 8.92136423,2.62582788 8.57156676,3.28170598 C8.22077517,2.62582788 7.74079622,2.04846135 7.16044729,1.58238773 C6.47376355,1.0378151 5.62212873,0.743664093 4.74564051,0.747600842 C2.29803983,0.792364175 0.350300822,2.81264995 0.395011775,5.26025063 C0.397000047,5.32285603 0.398988319,5.38546143 0.402964864,5.44806684 C0.402964864,8.34981151 2.72833715,10.3373034 6.25613584,13.3384239 L8.24362771,15.0377296 C8.33705133,15.1212118 8.45729146,15.1669169 8.58150812,15.1669169 C8.70572479,15.1639471 8.82497078,15.1182294 8.91938854,15.0377296 L10.9068804,13.3384239 C14.4247881,10.3571861 16.7500597,8.36969423 16.7500597,5.44806684 C16.8981734,3.0044427 15.0378806,0.903657075 12.5952002,0.755593725 C12.5286309,0.751617181 12.4630682,0.748634773 12.3975056,0.747600842" id="Fill-34" fill-opacity="0.12" fill="#000000" mask="url(#mask-24)"></path>
                                </g>
                                <mask id="mask-26" fill="white">
                                    <use xlink:href="#path-25"></use>
                                </mask>
                                <g id="Clip-37"></g>
                                <polygon id="Fill-36" fill="#C9C9C9" mask="url(#mask-26)" points="137.315984 166.517195 182.571246 166.517195 182.571246 162.373267 137.315984 162.373267"></polygon>
                                <path d="M163.868729,154.154585 C164.276198,154.154585 180.823152,122.872396 180.823152,122.872396 L174.721548,120.388024 L150.66182,154.175449 L163.868729,154.154585 Z" id="Fill-38" fill="#FC790D" mask="url(#mask-26)"></path>
                            </g>
                            <g transform="translate(0.000000, 0.786500)">
                                <g transform="translate(137.165605, 168.625607)">
                                    <mask id="mask-28" fill="white">
                                        <use xlink:href="#path-27"></use>
                                    </mask>
                                    <g id="Clip-40"></g>
                                    <polygon id="Fill-39" fill-opacity="0.34" fill="#C9C9C9" mask="url(#mask-28)" points="0.150378806 4.5407604 45.4056409 4.5407604 45.4056409 0.395838544 0.150378806 0.395838544"></polygon>
                                </g>
                                <mask id="mask-30" fill="white">
                                    <use xlink:href="#path-29"></use>
                                </mask>
                                <g id="Clip-42"></g>
                                <path d="M136.382125,82.6746181 C136.382125,82.6746181 138.488813,88.8458119 138.458989,93.307721 C138.448167,95.1133992 136.976342,96.5682355 135.17079,96.5573488 L135.139959,96.5573488 C132.894092,96.5573488 129.873051,95.7920544 128.342711,92.5822533 L125.053392,87.514173 C123.931452,85.2971238 124.32995,82.6129565 126.047138,80.8163387 C129.028413,77.4077105 135.288953,78.8487044 136.382125,82.6746181" id="Fill-41" fill="#F4A28C" mask="url(#mask-30)"></path>
                                <polygon id="Fill-43" fill="#F4A28C" mask="url(#mask-30)" points="126.384892 88.7763482 123.085682 106.465049 134.195781 111.125659 132.387209 95.7027079"></polygon>
                                <path d="M137.504996,86.6297694 L139.870033,88.6171606 C140.311354,88.9878853 140.368988,89.6457768 139.999271,90.0869719 C139.89885,90.2062682 139.773639,90.3016549 139.631566,90.3662109 L137.31611,91.4892071 L137.504996,86.6297694 Z" id="Fill-44" fill="#F4A28C" mask="url(#mask-30)"></path>
                            </g>
                            <g transform="translate(0.000000, 0.786500)">
                                <g transform="translate(128.356805, 93.121604)">
                                    <mask id="mask-32" fill="white">
                                        <use xlink:href="#path-31"></use>
                                    </mask>
                                    <g id="Clip-46"></g>
                                    <path d="M4.08036216,3.0185242 C2.69410866,2.60513978 1.44690838,1.82216327 0.473032578,0.752900749 C0.473032578,0.752900749 -0.808899551,5.25457524 4.60700258,7.43085229 L4.08036216,3.0185242 Z" id="Fill-45" fill-opacity="0.31" fill="#CE8172" mask="url(#mask-32)"></path>
                                </g>
                                <mask id="mask-34" fill="white">
                                    <use xlink:href="#path-33"></use>
                                </mask>
                                <g id="Clip-48"></g>
                                <path d="M126.703267,92.2840125 C126.703267,92.2840125 130.290588,97.7993283 133.540155,97.8689178 C136.789721,97.9385073 141.271513,97.2528051 139.502706,92.1648421 C138.399592,88.9946806 134.99109,91.0816113 130.896885,93.0194215 C130.896885,93.0194215 127.91561,89.4717401 127.587671,86.8184036 C127.587671,86.8184036 130.211183,85.6259437 129.277073,83.2508395 C129.277073,83.2508395 136.382377,85.168767 136.849369,81.3826188 C137.316487,77.5964705 136.571137,75.678543 133.331512,75.1716595 C130.091887,74.6649018 122.072355,77.5069983 120.929539,81.7105578 C119.786736,85.9141173 126.703267,92.2840125 126.703267,92.2840125" id="Fill-47" fill="#24285B" mask="url(#mask-34)"></path>
                                <path d="M127.041022,91.2504886 C127.068833,90.1623501 126.470589,89.1537424 125.500677,88.6569261 C124.816989,88.3020573 123.985211,88.4004641 123.403881,88.9053342 C121.535635,90.4058505 124.079629,94.2218228 127.031081,92.8306615 L127.041022,91.2504886 Z" id="Fill-49" fill="#F4A28C" mask="url(#mask-34)"></path>
                                <path d="M180.822649,122.871905 C180.822649,122.871905 185.344206,113.481006 179.829016,111.125785 C174.313701,108.770563 175.963337,120.655837 175.963337,120.655837 L180.822649,122.871905 Z" id="Fill-50" fill="#E59383" mask="url(#mask-34)"></path>
                                <path d="M108.348496,105.838869 C108.348496,105.838869 131.035813,103.970648 145.723355,113.848459 C160.410897,123.726321 154.796293,154.154874 154.796293,154.154874 L108.348496,154.154874 L108.348496,105.838869 Z" id="Fill-51" fill="#FC790D" mask="url(#mask-34)"></path>
                            </g>
                            <g transform="translate(0.000000, 0.786500)">
                                <g transform="translate(117.031205, 108.222404)">
                                    <mask id="mask-36" fill="white">
                                        <use xlink:href="#path-35"></use>
                                    </mask>
                                    <g id="Clip-53"></g>
                                    <path d="M0.8374904,0.627815784 C0.8374904,0.627815784 11.5998058,4.96061299 12.2755666,17.1041483 C12.9513275,29.2467524 15.2567164,41.6685954 26.4265269,41.6685954 C37.5962115,41.6685954 62.3405092,14.3514737 62.3405092,14.3514737 L63.7914445,14.6495887 L46.8380273,45.9318189 L16.4095366,45.9318189 C16.4095366,45.9318189 -3.52505538,46.2110169 0.8374904,0.627815784" id="Fill-52" fill-opacity="0.12" fill="#000000" mask="url(#mask-36)"></path>
                                </g>
                                <mask id="mask-38" fill="white">
                                    <use xlink:href="#path-37"></use>
                                </mask>
                                <g id="Clip-55"></g>
                                <polygon id="Fill-54" fill="#FC790D" mask="url(#mask-38)" points="140.407118 148.192097 169.176031 122.573274 174.870291 128.794137 154.945665 154.154585 133.440867 154.154585"></polygon>
                            </g>
                            <g transform="translate(0.000000, 0.786500)">
                                <g transform="translate(133.390405, 122.064805)">
                                    <mask id="mask-40" fill="white">
                                        <use xlink:href="#path-39"></use>
                                    </mask>
                                    <g id="Clip-57"></g>
                                    <polygon id="Fill-56" fill-opacity="0.46" fill="#FFFFFF" mask="url(#mask-40)" points="7.01671283 26.1272919 35.7856255 0.508469124 41.4798858 6.72933201 21.5552603 32.0897801 0.050461842 32.0897801"></polygon>
                                </g>
                                <mask id="mask-42" fill="white">
                                    <use xlink:href="#path-41"></use>
                                </mask>
                                <g id="Clip-59"></g>
                                <path d="M170.060308,123.537611 C170.060308,123.537611 172.395647,118.270729 174.870039,117.793795 C177.344557,117.316736 184.002626,121.182427 174.13463,127.999533 L170.060308,123.537611 Z" id="Fill-58" fill="#F4A28C" mask="url(#mask-42)"></path>
                                <path d="M119.568013,105.967981 C119.568013,105.967981 120.780381,101.49613 127.041022,102.49983 C133.301562,103.503404 137.197065,103.940698 137.316362,109.624891 L119.568013,105.967981 Z" id="Fill-60" fill="#FFFFFF" mask="url(#mask-42)"></path>
                                <path d="M177.24464,112.904282 L175.416185,112.983812 L175.416185,111.920464 L177.234699,111.841059 C178.332779,111.791353 179.18245,110.86215 179.132744,109.76407 C179.084044,108.666997 178.15396,107.816318 177.056761,107.866025 L175.23724,107.945556 L175.23724,106.882208 L177.056761,106.802677 C178.74717,106.667525 180.226797,107.927561 180.362955,109.61797 C180.498108,111.308379 179.238072,112.789012 177.54867,112.925171 C177.473166,112.930205 177.398668,112.934106 177.324171,112.934106 L177.24464,112.904282 Z" id="Fill-61" fill="#FFD200" mask="url(#mask-42)"></path>
                            </g>
                            <g transform="translate(0.000000, 0.786500)">
                                <g transform="translate(174.917607, 106.705604)">
                                    <mask id="mask-44" fill="white">
                                        <use xlink:href="#path-43"></use>
                                    </mask>
                                    <g id="Clip-63"></g>
                                    <path d="M2.32703337,6.19867748 L0.498578099,6.27820836 L0.498578099,5.21486032 L2.31709201,5.13545528 C3.41517189,5.08574848 4.26484361,4.15654588 4.2151368,3.058466 C4.16643672,1.96139283 3.23635325,1.1107144 2.13915424,1.1604212 L0.319633612,1.23995209 L0.319633612,0.176604046 L2.13915424,0.0970731625 C3.82956303,-0.0380790027 5.30918981,1.22195697 5.44534869,2.91236575 C5.58050086,4.60277454 4.32046489,6.08340803 2.63106282,6.21956692 C2.55555882,6.22460052 2.48106154,6.22850156 2.40656425,6.22850156 L2.32703337,6.19867748 Z" id="Fill-62" fill-opacity="0.46" fill="#FFFFFF" mask="url(#mask-44)"></path>
                                </g>
                                <mask id="mask-46" fill="white">
                                    <use xlink:href="#path-45"></use>
                                </mask>
                                <g id="Clip-65"></g>
                                <polygon id="Fill-64" fill="#FFD200" mask="url(#mask-46)" points="175.734686 114.236172 169.334841 114.51453 166.999628 104.726065 176.867498 104.298713"></polygon>
                                <polygon id="Fill-66" fill="#FFD200" mask="url(#mask-46)" points="165.141097 114.514279 180.822397 114.514279 178.089656 117.793669 168.143136 117.793669"></polygon>
                            </g>
                            <g transform="translate(164.850406, 115.300904)">
                                <mask id="mask-48" fill="white">
                                    <use xlink:href="#path-47"></use>
                                </mask>
                                <g id="Clip-68"></g>
                                <polygon id="Fill-67" fill-opacity="0.31" fill="#CE8172" mask="url(#mask-48)" points="0.290690411 -0.000125840005 15.9719909 -0.000125840005 13.2392494 3.27926469 3.29272957 3.27926469"></polygon>
                            </g>
                            <g transform="translate(0.000000, 0.786500)">
                                <path d="M175.793705,104.348294 C175.793705,104.348294 179.023389,98.5646872 174.721548,96.9647574 C170.418575,95.3648275 167.765238,100.055262 166.075836,93.8741268 C164.38656,87.6929916 161.205576,85.7551814 155.194325,87.2856475 C149.181187,88.8159878 154.726326,96.5274633 147.989733,97.2231069 C141.251127,97.9187504 142.603529,107.915858 148.266959,107.717031 C153.931269,107.518329 158.204418,96.8852265 160.470168,100.56202 C162.735917,104.238939 167.873587,104.696116 167.873587,104.696116 L175.793705,104.348294 Z" id="Fill-69" fill-opacity="0.54" fill="#FFFFFF"></path>
                                <mask id="mask-50" fill="white">
                                    <use xlink:href="#path-49"></use>
                                </mask>
                                <g id="Clip-72"></g>
                                <path d="M108.348496,105.838869 C108.348496,105.838869 120.889598,104.238939 122.092024,118.757591 C123.294463,133.276243 118.623848,149.722764 133.440615,154.125063 L108.348496,154.125063 L108.348496,105.838869 Z" id="Fill-71" fill="#FC790D" mask="url(#mask-50)"></path>
                            </g>
                            <g transform="translate(0.000000, 0.786500)">
                                <g transform="translate(108.222404, 105.705604)">
                                    <mask id="mask-52" fill="white">
                                        <use xlink:href="#path-51"></use>
                                    </mask>
                                    <g id="Clip-74"></g>
                                    <path d="M0.126091685,0.133264565 C0.126091685,0.133264565 12.6671933,-1.46666526 13.8696197,13.0519869 C15.0720587,27.570639 10.401444,44.01716 25.2182111,48.4194587 L0.126091685,48.4194587 L0.126091685,0.133264565 Z" id="Fill-73" fill-opacity="0.46" fill="#FFFFFF" mask="url(#mask-52)"></path>
                                </g>
                                <mask id="mask-54" fill="white">
                                    <use xlink:href="#path-53"></use>
                                </mask>
                                <g id="Clip-76"></g>
                                <polygon id="Fill-75" fill="#FFD200" mask="url(#mask-54)" points="23.6315197 23.7456314 10.2357996 15.9347423 64.2956728 9.91254302 39.5712327 46.472588 30.7666228 27.6509501"></polygon>
                                <polygon id="Fill-77" fill="#FFD200" mask="url(#mask-54)" points="23.6315197 23.7456314 27.3680114 37.3996494 30.7666228 27.6509501 64.2956728 9.91254302"></polygon>
                            </g>
                            <g transform="translate(0.000000, 0.786500)">
                                <g transform="translate(22.651201, 9.908800)">
                                    <mask id="mask-56" fill="white">
                                        <use xlink:href="#path-55"></use>
                                    </mask>
                                    <g id="Clip-79"></g>
                                    <polygon id="Fill-78" fill-opacity="0.46" fill="#FFFFFF" mask="url(#mask-56)" points="0.980318806 13.836831 4.71681057 27.4908491 8.11542191 17.7421497 41.6444719 0.00374265894"></polygon>
                                </g>
                                <mask id="mask-58" fill="white">
                                    <use xlink:href="#path-57"></use>
                                </mask>
                                <g id="Clip-81"></g>
                                <polygon id="Fill-80" fill="#24285B" mask="url(#mask-58)" points="27.3683009 37.3993978 33.3407304 33.1560728 30.7669248 27.6506984"></polygon>
                                <polygon id="Fill-82" fill="#24285B" mask="url(#mask-58)" points="185.125245 43.6104829 257.668824 43.6104829 257.668824 0.471900018 185.125245 0.471900018"></polygon>
                            </g>
                            <g transform="translate(0.000000, 0.786500)">
                                <polygon id="Fill-83" fill-opacity="0.12" fill="#000000" points="185.125245 43.6005227 209.620127 43.6005227 209.620127 52.2461274 185.125245 52.2461274"></polygon>
                                <mask id="mask-60" fill="white">
                                    <use xlink:href="#path-59"></use>
                                </mask>
                                <g id="Clip-86"></g>
                                <path d="M211.708442,13.7978068 C210.551721,13.7929454 209.427844,14.1775125 208.518524,14.8910253 C207.756311,15.5051245 207.125349,16.265324 206.660245,17.1269505 C206.19816,16.2633106 205.566192,15.5031111 204.801965,14.8910253 C203.895666,14.1794001 202.774683,13.7938263 201.621988,13.7978068 C198.361474,13.7978068 195.907845,16.461131 195.907845,19.9889297 C195.907845,23.804902 198.968652,26.4184731 203.60938,30.3736245 C204.394495,31.0492594 205.28884,31.8045512 206.221944,32.619491 C206.343254,32.7277134 206.498289,32.7883683 206.660245,32.7883683 C206.825221,32.7883683 206.983276,32.7287201 207.10748,32.619491 C208.031649,31.8045512 208.925994,31.0492594 209.71111,30.3736245 C214.351837,26.3985904 217.422585,23.804902 217.422585,19.9889297 C217.472166,16.461131 214.958009,13.7978068 211.708442,13.7978068" id="Fill-85" fill="#FC790D" mask="url(#mask-60)"></path>
                                <path d="M230.320934,20.625051 C230.460994,19.4752508 229.641146,18.4307788 228.491346,18.2917256 C228.366135,18.2757439 228.240925,18.2718429 228.114707,18.2797708 C226.851651,18.3840922 225.911626,19.4931201 226.015947,20.7561762 C226.111334,21.9088707 227.049471,22.8112694 228.204179,22.8609762 C229.299365,22.9413879 230.252351,22.118646 230.332763,21.0244671 C230.341698,20.8913284 230.338803,20.757183 230.320934,20.625051 L230.320934,20.625051 Z M226.206721,26.2595372 C226.341873,27.3149573 227.28303,28.0771702 228.344365,27.9887047 C229.893581,27.9887047 230.569342,26.825943 230.569342,23.725497 C229.855829,24.5900178 228.777632,25.068084 227.657656,25.0173705 C225.41179,25.1466082 223.485934,23.4293955 223.356696,21.1835289 C223.345748,20.990742 223.348769,20.7969484 223.364624,20.6051682 C223.202668,18.2400053 224.988464,16.1909525 227.354508,16.0288706 C227.574224,16.0130148 227.795829,16.0150282 228.016426,16.0339042 C231.761802,16.0339042 232.914622,18.5679444 232.914622,22.9304398 C232.914622,27.6210002 231.872164,30.1550404 228.225069,30.1550404 C225.967247,30.3656965 223.966895,28.7071253 223.756239,26.4503106 C223.750198,26.3867614 223.74529,26.3232122 223.74227,26.2595372 L226.206721,26.2595372 Z" id="Fill-87" fill="#FFFFFF" mask="url(#mask-60)"></path>
                                <path d="M242.156564,20.625051 C242.144609,19.4017603 241.141916,18.418824 239.918625,18.4307788 C238.695335,18.4437403 237.712524,19.4454268 237.724353,20.6687174 C237.737315,21.8930148 238.739001,22.8758253 239.963299,22.8628638 C239.988215,22.8628638 240.015019,22.8619829 240.039809,22.8609762 C241.134995,22.9413879 242.087981,22.118646 242.167386,21.0244671 C242.177328,20.8913284 242.174433,20.757183 242.156564,20.625051 L242.156564,20.625051 Z M238.033416,26.2595372 C238.166555,27.3149573 239.109726,28.0771702 240.169047,27.9887047 C241.720277,27.9887047 242.404972,26.825943 242.404972,23.725497 C241.690453,24.5881302 240.612255,25.0660706 239.493286,25.0173705 C237.24742,25.1466082 235.321564,23.4293955 235.192326,21.1835289 C235.181378,20.990742 235.183392,20.7969484 235.200254,20.6051682 C235.038298,18.2400053 236.824094,16.1909525 239.189131,16.0288706 C239.409854,16.0130148 239.631458,16.0150282 239.851049,16.0339042 C243.597432,16.0339042 244.750252,18.5679444 244.750252,22.9304398 C244.750252,27.6210002 243.707794,30.1550404 240.060699,30.1550404 C237.802877,30.3656965 235.801518,28.7071253 235.591868,26.4503106 C235.585828,26.3867614 235.58092,26.3232122 235.5779,26.2595372 L238.033416,26.2595372 Z" id="Fill-88" fill="#FFFFFF" mask="url(#mask-60)"></path>
                            </g>
                        </g>
                        <g id="独家解决方案备份" transform="translate(0.000000, 256.000000)">
                            <rect id="Rectangle-3" fill="#FC790D" x="0.5098135" y="0" width="302" height="44.8081879" rx="4.8990285"></rect>
                            <text id="朋友圈访问追踪" font-family="FZLTCHJW--GB1-0, FZLanTingHeiS-B-GB" font-size="24.4951425" font-weight="normal" line-spacing="29.394171" fill="#FFFFFF">
                                <tspan x="120.953458" y="29.3485428">朋友圈访问追踪</tspan>
                            </text>
                            <g id="句客宝logo" transform="translate(12.196352, 8.981552)">
                                <path d="M11.430953,-2.3625546e-13 C14.5313149,-2.3625546e-13 17.2121507,1.10905154 19.4723253,3.32404366 C21.7315917,5.54036905 22.862133,8.16911673 22.862133,11.208509 C22.862133,17.9610352 18.0530192,22.9325459 8.43547259,26.128152 L8.43547259,26.128152 L8.43547259,22.031261 C5.85974537,21.3086331 3.80978796,19.9304849 2.28605439,17.8954831 C0.761185737,15.8600369 0,13.6321566 0,11.208509 C0,8.16911673 1.1291792,5.54036905 3.38980776,3.32404366 C5.64862019,1.10905154 8.32922895,-2.3625546e-13 11.430953,-2.3625546e-13 Z M7.13283022,10.5876535 C7.08016243,12.6793189 8.96553301,14.4212253 11.3444371,14.4792222 C11.4400109,14.4821109 11.5335417,14.4763335 11.6272994,14.4738892 C11.6272994,14.4743336 12.0325236,14.7549852 12.4770215,14.9789731 C12.9725982,15.2280709 13.5814559,15.3953952 13.9353744,15.365619 C14.4037091,15.3262878 14.4774894,15.0314148 14.3837316,14.880534 C14.2947412,14.7367639 14.139235,14.7303198 13.9889502,14.6378804 C13.8084723,14.5263308 13.7285625,14.4698894 13.6543282,14.2967876 C13.5691971,14.0974649 13.6677221,13.9494729 13.8550106,13.8505893 C13.8550106,13.8505893 13.8697667,13.8368123 13.8951925,13.8125914 C14.98646,13.1501825 15.7151824,12.0551302 15.7469647,10.7965311 C15.7998595,8.70508794 13.9144889,6.96251488 11.5353578,6.90451799 C9.15668076,6.84696553 7.18572502,8.49576585 7.13283022,10.5876535 Z" id="形状结合" fill="#FFFFFF"></path>
                                <path d="M42.5343205,24.1821127 C43.0590911,24.1821127 43.6261819,24.0662271 44.2355929,23.8344557 C44.8450039,23.6026844 45.4120946,23.2301947 45.9368652,22.7169867 C46.4616358,22.2037788 46.905998,21.5332974 47.2699518,20.7055426 C47.6339056,19.8777878 47.8243465,18.8679269 47.8412746,17.67596 L47.8412746,17.67596 L47.9682352,6.32744156 C48.0020914,5.76456829 47.8158825,5.2844705 47.4096085,4.8871482 C46.9864064,4.47327079 46.4531718,4.26633209 45.8099046,4.26633209 L45.8099046,4.26633209 L35.4245254,4.26633209 C35.543022,3.93523017 35.6530546,3.58343438 35.7546231,3.21094471 C35.8561916,2.83845505 35.9746882,2.44527152 36.1101128,2.03139411 C36.1947532,1.78306767 36.1693611,1.54715755 36.0339365,1.32366375 C35.8985118,1.10016996 35.7038388,0.947035316 35.4499176,0.864259835 C35.1790682,0.781484355 34.929379,0.806316999 34.7008499,0.938757768 C34.4723208,1.07119854 34.315736,1.26158214 34.2310956,1.50990858 C33.9433182,2.48665926 33.6682368,3.36407935 33.4058515,4.14216887 C33.1434662,4.92025839 32.8683849,5.6362663 32.5806074,6.29019259 C32.29283,6.94411889 31.9754285,7.55665745 31.6284027,8.12780827 C31.281377,8.69895908 30.8793351,9.26597113 30.4222768,9.82884439 C30.252996,10.0440606 30.1852836,10.2799708 30.2191398,10.5365748 C30.252996,10.7931787 30.3799566,11.0042562 30.6000217,11.1698072 C30.7862306,11.302248 30.9809036,11.3684683 31.1840406,11.3684683 C31.3194652,11.3684683 31.4591219,11.3394969 31.6030106,11.2815541 C31.7468993,11.2236112 31.8696279,11.1284194 31.9711964,10.9959787 C32.5975355,10.2178892 33.1265381,9.45221596 33.5582043,8.69895908 C33.9898704,7.94570221 34.3834483,7.09725353 34.7389381,6.15361305 L34.7389381,6.15361305 L45.8099046,6.15361305 C45.9114731,6.15361305 45.9791854,6.1784457 46.0130416,6.22811098 C46.0299697,6.22811098 46.0384337,6.25294363 46.0384337,6.30260892 L46.0384337,6.30260892 L45.886081,17.6511273 C45.8691529,18.5947678 45.7294962,19.3645798 45.4671109,19.9605632 C45.2047256,20.5565467 44.8957881,21.0283669 44.5402984,21.376024 C44.1848086,21.723681 43.8166228,21.9595911 43.4357409,22.0837543 C43.054859,22.2079175 42.7543856,22.2699991 42.5343205,22.2699991 L42.5343205,22.2699991 L41.8995173,22.2699991 C41.6117399,22.253444 41.3747468,22.3362195 41.1885378,22.5183256 C41.0023289,22.7004316 40.9092245,22.9239254 40.9092245,23.188807 C40.8922964,23.4702436 40.9769368,23.702015 41.1631457,23.884121 C41.3493546,24.0662271 41.5778838,24.1655577 41.8487331,24.1821127 L41.8487331,24.1821127 L42.5343205,24.1821127 Z M41.5688488,18.718931 C42.0259071,18.718931 42.415253,18.5616576 42.7368866,18.2471108 C43.0585201,17.932564 43.2193369,17.5517967 43.2193369,17.1048091 L43.2193369,17.1048091 L43.2193369,10.8718155 C43.2193369,10.4248279 43.0585201,10.0440606 42.7368866,9.72951382 C42.415253,9.41496699 42.0259071,9.25769358 41.5688488,9.25769358 L41.5688488,9.25769358 L35.6270915,9.25769358 C35.1700333,9.25769358 34.7806874,9.41496699 34.4590538,9.72951382 C34.1374202,10.0440606 33.9766034,10.4248279 33.9766034,10.8718155 L33.9766034,10.8718155 L33.9766034,17.1048091 C33.9766034,17.5517967 34.1374202,17.932564 34.4590538,18.2471108 C34.7806874,18.5616576 35.1700333,18.718931 35.6270915,18.718931 L35.6270915,18.718931 L41.5688488,18.718931 Z M41.2641433,16.8068174 L35.931797,16.8068174 L35.931797,11.1449745 L41.2641433,11.1449745 L41.2641433,16.8068174 Z M71.3532406,8.41338367 C71.6240899,8.41338367 71.8568511,8.31819187 72.051524,8.12780827 C72.246197,7.93742466 72.3435335,7.71806964 72.3435335,7.46974319 L72.3435335,7.46974319 L72.3435335,4.76298498 C72.3435335,4.31599738 72.1784847,3.93523017 71.848387,3.62068334 C71.5182894,3.30613652 71.1247115,3.1488631 70.6676532,3.1488631 L70.6676532,3.1488631 L64.929033,3.1488631 L64.0403086,1.38574536 C63.9048839,1.15397402 63.714443,0.992561831 63.4689858,0.901508802 C63.2235286,0.810455773 62.9823034,0.822872095 62.7453102,0.938757768 C62.508317,1.05464344 62.3390362,1.2367495 62.2374677,1.48507594 C62.1358992,1.73340238 62.1528273,1.97345128 62.288252,2.20522262 L62.288252,2.20522262 L62.7707023,3.12403046 L56.6258081,3.12403046 C56.1518217,3.12403046 55.7540118,3.28130387 55.4323782,3.5958507 C55.1107446,3.91039752 54.9499278,4.29116474 54.9499278,4.73815233 L54.9499278,4.73815233 L54.9499278,7.44491055 C54.9499278,7.72634718 55.0472643,7.95811853 55.2419372,8.14022459 C55.4366102,8.32233065 55.6693713,8.41338367 55.9402207,8.41338367 C56.21107,8.41338367 56.4395991,8.31819187 56.6258081,8.12780827 C56.812017,7.93742466 56.9051214,7.71806964 56.9051214,7.46974319 L56.9051214,7.46974319 L56.9051214,5.06097671 L70.3883399,5.06097671 L70.3883399,7.46974319 C70.3883399,7.71806964 70.4814443,7.93742466 70.6676532,8.12780827 C70.8538621,8.31819187 71.0823913,8.41338367 71.3532406,8.41338367 Z M71.8864752,16.906148 C72.1234684,16.906148 72.3308374,16.8357888 72.5085823,16.6950705 C72.6863272,16.5543522 72.7921277,16.3681074 72.8259839,16.136336 C72.8936962,15.8714545 72.851376,15.6314056 72.6990232,15.4161893 C72.5466705,15.2009731 72.3350694,15.0685323 72.0642201,15.018867 C70.625333,14.7374304 69.3684228,14.451855 68.2934895,14.1621408 C67.2185562,13.8724266 66.2748156,13.5454635 65.4622676,13.1812514 C66.3425279,12.601823 67.1254518,11.9727293 67.8110392,11.2939704 C68.4966265,10.6152115 69.1018055,9.86195459 69.6265761,9.03419978 C69.7281446,8.88520391 69.7831609,8.71551418 69.7916249,8.52513057 C69.800089,8.33474697 69.7704648,8.16091846 69.7027525,8.00364505 C69.6350401,7.84637163 69.5292396,7.70979209 69.3853509,7.59390642 C69.2414622,7.47802074 69.0679493,7.42007791 68.8648123,7.42007791 L68.8648123,7.42007791 L61.4757039,7.42007791 C61.5434163,7.28763714 61.6026646,7.17175146 61.6534488,7.07242089 C61.7042331,6.97309031 61.7550173,6.85720464 61.8058016,6.72476387 C61.9242982,6.49299252 61.9369942,6.2570824 61.8438898,6.01703351 C61.7507853,5.77698461 61.5772724,5.59073978 61.3233512,5.45829901 C61.086358,5.34241334 60.8451328,5.32999702 60.5996756,5.42105005 C60.3542184,5.51210308 60.1637775,5.68179281 60.0283528,5.93011925 C59.5882227,6.84064954 59.0211319,7.70151454 58.3270804,8.51271425 C57.633029,9.32391396 56.812017,10.0606157 55.8640443,10.7228196 C55.6270511,10.8718155 55.4916265,11.0746154 55.4577703,11.3312194 C55.4239141,11.5878234 55.4746984,11.8237335 55.6101231,12.0389497 C55.8301881,12.3038313 56.1010375,12.436272 56.4226711,12.436272 C56.6427361,12.436272 56.820481,12.3700517 56.9559057,12.2376109 C57.2944674,12.0058395 57.620333,11.7657906 57.9335025,11.5174642 C58.246672,11.2691378 58.5471455,11.0042562 58.8349229,10.7228196 C59.2750531,11.1698072 59.7109513,11.5961009 60.1426174,12.0017008 C60.5742835,12.4073006 61.0355738,12.7839291 61.5264882,13.1315861 C59.7659675,13.8931205 57.6838133,14.5222141 55.2800254,15.018867 C55.0091761,15.0685323 54.7975751,15.2051119 54.6452223,15.4286057 C54.4928696,15.6520995 54.4505493,15.8962871 54.5182617,16.1611687 C54.5690459,16.3763849 54.6833105,16.5543522 54.8610554,16.6950705 C55.0388002,16.8357888 55.2461693,16.906148 55.4831624,16.906148 C55.5678028,16.906148 55.6355152,16.8978704 55.6862994,16.8813153 C57.226755,16.5667685 58.64025,16.1984176 59.9267843,15.7762627 C61.2133187,15.3541077 62.3982845,14.8781487 63.4816818,14.3483856 C64.4804387,14.8781487 65.6357804,15.3458302 66.9477069,15.75143 C68.2596334,16.1570299 69.8466412,16.5336583 71.7087304,16.8813153 C71.7425865,16.8813153 71.7722107,16.8854541 71.7976028,16.8937317 C71.8229949,16.9020092 71.8526191,16.906148 71.8864752,16.906148 Z M63.4562897,12.1382803 C62.8638068,11.7575131 62.296716,11.3353581 61.7550173,10.8718155 C61.2133187,10.4082728 60.67162,9.89506478 60.1299213,9.33219151 L60.1299213,9.33219151 L66.960403,9.33219151 C66.0124303,10.4248279 64.8443925,11.3601908 63.4562897,12.1382803 Z M68.5601068,23.8592884 C68.9663808,23.8592884 69.3176386,23.7144313 69.61388,23.4247171 C69.9101215,23.1350029 70.0582422,22.7914847 70.0582422,22.3941624 L70.0582422,22.3941624 L70.0582422,18.0732823 C70.0582422,17.6594049 69.9143535,17.3076091 69.6265761,17.0178949 C69.3387987,16.7281807 68.9833089,16.5833236 68.5601068,16.5833236 L68.5601068,16.5833236 L58.6571781,16.5833236 C58.2509041,16.5833236 57.8996463,16.7281807 57.6034049,17.0178949 C57.3071634,17.3076091 57.1590427,17.6676824 57.1590427,18.0981149 L57.1590427,18.0981149 L57.1590427,22.3941624 C57.1590427,22.7914847 57.3029314,23.1350029 57.5907088,23.4247171 C57.8784862,23.7144313 58.233976,23.8592884 58.6571781,23.8592884 L58.6571781,23.8592884 L68.5601068,23.8592884 Z M68.1284407,21.9720074 L59.1142363,21.9720074 L59.1142363,18.4706046 L68.1284407,18.4706046 L68.1284407,21.9720074 Z M79.4781497,8.81070598 C79.748999,8.81070598 79.9775282,8.71551418 80.1637371,8.52513057 C80.349946,8.33474697 80.4430505,8.1071144 80.4430505,7.84223286 L80.4430505,7.84223286 L80.4430505,5.80595603 L93.9262689,5.80595603 L93.9262689,7.84223286 C93.9262689,8.0905593 94.0193733,8.30991432 94.2055823,8.50029793 C94.3917912,8.69068153 94.6203203,8.78587334 94.8911696,8.78587334 C95.162019,8.78587334 95.3947801,8.69068153 95.5894531,8.50029793 C95.784126,8.30991432 95.8814625,8.08228175 95.8814625,7.81740021 L95.8814625,7.81740021 L95.8814625,5.35896844 C95.8814625,4.94509103 95.7206457,4.59743401 95.3990121,4.31599738 C95.0773786,4.03456075 94.6795686,3.89384243 94.2055823,3.89384243 L94.2055823,3.89384243 L88.9494124,3.89384243 C88.9324843,3.77795676 88.8901641,3.66207108 88.8224517,3.54618541 L88.8224517,3.54618541 L87.3497085,1.33608008 C87.2142838,1.10430873 87.0153788,0.963590412 86.7529935,0.913925124 C86.4906083,0.864259835 86.240919,0.905647576 86.0039259,1.03808834 C85.7669327,1.18708421 85.623044,1.38988414 85.5722597,1.64648813 C85.5214755,1.90309212 85.5722597,2.13900224 85.7246125,2.35421849 L85.7246125,2.35421849 L86.7149054,3.91867507 L80.1637371,3.91867507 C79.6897508,3.91867507 79.2919408,4.06353216 78.9703072,4.35324635 C78.6486736,4.64296053 78.4878568,4.98647877 78.4878568,5.38380108 L78.4878568,5.38380108 L78.4878568,7.84223286 C78.4878568,8.1071144 78.5851933,8.33474697 78.7798663,8.52513057 C78.9745392,8.71551418 79.2073004,8.81070598 79.4781497,8.81070598 Z M95.0689145,23.8344557 C95.3566919,23.8344557 95.5936851,23.7392639 95.779894,23.5488803 C95.9661029,23.3584967 96.0592074,23.1391417 96.0592074,22.8908152 C96.0592074,22.6259337 95.9618709,22.3983011 95.767198,22.2079175 C95.572525,22.0175339 95.3397638,21.9223421 95.0689145,21.9223421 L95.0689145,21.9223421 L88.060688,21.9223421 L88.060688,16.558491 L93.5707791,16.558491 C93.8585566,16.558491 94.0955497,16.4674379 94.2817586,16.2853319 C94.4679676,16.1032258 94.561072,15.879732 94.561072,15.6148505 C94.561072,15.349969 94.4637355,15.1223364 94.2690626,14.9319528 C94.0743896,14.7415692 93.8416285,14.6463774 93.5707791,14.6463774 L93.5707791,14.6463774 L88.060688,14.6463774 L88.060688,10.9463134 L94.3833271,10.9463134 C94.6711046,10.9463134 94.9080977,10.8552604 95.0943066,10.6731543 C95.2805156,10.4910482 95.37362,10.2675544 95.37362,10.0026729 C95.37362,9.73779137 95.2762835,9.51015879 95.0816106,9.31977519 C94.8869376,9.12939158 94.6541765,9.03419978 94.3833271,9.03419978 L94.3833271,9.03419978 L81.0524615,9.03419978 C80.7646841,9.03419978 80.5319229,9.12939158 80.354178,9.31977519 C80.1764332,9.51015879 80.0875607,9.73779137 80.0875607,10.0026729 C80.0875607,10.2675544 80.1806652,10.4910482 80.3668741,10.6731543 C80.553083,10.8552604 80.7816121,10.9463134 81.0524615,10.9463134 L81.0524615,10.9463134 L86.0801022,10.9463134 L86.0801022,14.6463774 L81.0524615,14.6463774 C80.7646841,14.6463774 80.5319229,14.7415692 80.354178,14.9319528 C80.1764332,15.1223364 80.0875607,15.349969 80.0875607,15.6148505 C80.0875607,15.879732 80.1806652,16.1032258 80.3668741,16.2853319 C80.553083,16.4674379 80.7816121,16.558491 81.0524615,16.558491 L81.0524615,16.558491 L86.0801022,16.558491 L86.0801022,21.9223421 L79.1988363,21.9223421 C78.927987,21.9223421 78.6994579,22.0175339 78.513249,22.2079175 C78.32704,22.3983011 78.2339356,22.6259337 78.2339356,22.8908152 C78.2339356,23.1391417 78.3312721,23.3584967 78.525945,23.5488803 C78.720618,23.7392639 78.9449151,23.8344557 79.1988363,23.8344557 L79.1988363,23.8344557 L95.0689145,23.8344557 Z" id="句客宝" stroke="#FFFFFF" stroke-width="0.707199981" fill="#FFFFFF" fill-rule="nonzero"></path>
                                <circle id="椭圆形" stroke="#FFFFFF" stroke-width="1.32626505" fill="#FC790D" fill-rule="nonzero" cx="91.9920012" cy="19.2355456" r="1.91571618"></circle>
                            </g>
                        </g>
                    </g>
                </g>
            </g>
        </g>
    </g>
</svg>