<?xml version="1.0" encoding="UTF-8"?>
<svg width="240px" height="140px" viewBox="0 0 240 140" version="1.1" xmlns="http://www.w3.org/2000/svg" xmlns:xlink="http://www.w3.org/1999/xlink">
    <title>1-3</title>
    <g id="最新版备份" stroke="none" stroke-width="1" fill="none" fill-rule="evenodd">
        <g id="企微SCRM-新版" transform="translate(-193.000000, -3327.000000)">
            <g id="亮点1" transform="translate(0.000000, 2416.000000)">
                <g id="编组-25" transform="translate(130.000000, 241.000000)">
                    <g id="编组-19" transform="translate(0.000000, 620.000000)">
                        <g id="1-3" transform="translate(63.000000, 50.000000)">
                            <rect id="矩形" fill="#F1F1F1" x="0" y="0" width="240" height="140"></rect>
                            <g id="编组-20" transform="translate(20.000000, 42.000000)">
                                <circle id="椭圆形" fill="#FFFFFF" cx="28" cy="28" r="28"></circle>
                                <g id="编组-11" transform="translate(12.000000, 11.000000)">
                                    <path d="M27.3660284,4.78833519 C24.189623,1.59760552 20.4220283,0 16.0648398,0 C11.7057369,0 7.93846132,1.59760552 4.76397011,4.78833519 C1.58692656,7.98098545 0,11.7677362 0,16.1460268 C0,19.6373278 1.06975568,22.8466232 3.21277652,25.7787142 C5.35420215,28.7101651 8.23517256,30.6954084 11.8550497,31.7363648 L11.8550497,37.6379983 C25.3713632,33.0346793 32.1299985,25.8731429 32.1299985,16.1460268 C32.1299985,11.7677362 30.5411577,7.98098545 27.3660284,4.78833519" id="Fill-1" fill="#FC790D"></path>
                                    <path d="M19.4100443,19.8915236 C19.4100443,19.8915236 19.4304822,19.8721029 19.4656982,19.8379601 C20.9771577,18.9042018 21.9864744,17.3605718 22.0304944,15.5863996 C22.1037563,12.6382166 19.4924247,10.1818152 16.1972102,10.1000604 C12.9026247,10.0189321 10.1727533,12.3431478 10.0994914,15.2919572 C10.0265439,18.2404534 12.6378756,20.6959152 15.9327756,20.7776699 C16.0651501,20.781742 16.1946948,20.7735978 16.3245539,20.7701522 C16.3245539,20.7707787 16.8858094,21.1663966 17.5014611,21.4821391 C18.1878593,21.8332773 19.0311575,22.0691445 19.5213521,22.0271708 C20.1700189,21.9717279 20.2722082,21.5560629 20.1423491,21.3433752 C20.019093,21.1407111 19.8037092,21.1316273 19.5955573,21.0013209 C19.3455864,20.8440761 19.2349074,20.764514 19.1320892,20.5205027 C19.0141784,20.2395294 19.1506405,20.0309138 19.4100443,19.8915236" id="Fill-3" fill="#FFFFFF"></path>
                                </g>
                            </g>
                            <line x1="76.5" y1="70.5" x2="126.5" y2="70.5" id="直线" stroke-opacity="0.65" stroke="#A4A4A4" stroke-linecap="square"></line>
                            <g id="编组-17" transform="translate(122.000000, 20.000000)">
                                <rect id="矩形" fill="#FFFFFF" fill-rule="nonzero" x="0" y="0" width="100" height="100"></rect>
                                <g id="编组-23" transform="translate(9.000000, 9.000000)">
                                    <g id="编组-22">
                                        <rect id="矩形" stroke="#FC790D" stroke-width="6.22080012" x="3.11040006" y="3.11040006" width="31.1040006" height="31.1040006"></rect>
                                        <rect id="矩形备份-4" fill="#FC790D" x="13.9968003" y="13.9968003" width="9.33120019" height="9.33120019"></rect>
                                    </g>
                                    <g id="编组-22备份" transform="translate(45.100801, 0.000000)">
                                        <rect id="矩形" stroke="#FC790D" stroke-width="6.22080012" x="3.11040006" y="3.11040006" width="31.1040006" height="31.1040006"></rect>
                                        <rect id="矩形备份-4" fill="#FC790D" x="13.9968003" y="13.9968003" width="9.33120019" height="9.33120019"></rect>
                                    </g>
                                    <g id="编组-22备份-2" transform="translate(0.000000, 45.100801)">
                                        <rect id="矩形" stroke="#FC790D" stroke-width="6.22080012" x="3.11040006" y="3.11040006" width="31.1040006" height="31.1040006"></rect>
                                        <rect id="矩形备份-4" fill="#FC790D" x="13.9968003" y="13.9968003" width="9.33120019" height="9.33120019"></rect>
                                    </g>
                                    <path d="M82.4256016,68.4288014 L57.5424011,68.4288014 L57.5418009,60.6528009 L51.3208009,60.6528009 L51.321601,82.4256016 L45.1008009,82.4256016 L45.1008009,45.1008009 L69.9840014,45.1008009 L69.9838009,51.3208009 L76.2048009,51.3208009 L76.2048015,45.1008009 L82.4256016,45.1008009 L82.4256016,68.4288014 Z M65.3184013,76.2048015 L65.3184013,82.4256016 L59.0976012,82.4256016 L59.0976012,76.2048015 L65.3184013,76.2048015 Z M82.4256016,76.2048015 L82.4256016,82.4256016 L76.2048015,82.4256016 L76.2048015,76.2048015 L82.4256016,76.2048015 Z" id="形状结合" fill="#FC790D"></path>
                                </g>
                            </g>
                        </g>
                    </g>
                </g>
            </g>
        </g>
    </g>
</svg>