<?xml version="1.0" encoding="UTF-8"?>
<svg width="296px" height="277px" viewBox="0 0 296 277" version="1.1" xmlns="http://www.w3.org/2000/svg" xmlns:xlink="http://www.w3.org/1999/xlink">
    <title>7-2</title>
    <defs>
        <polygon id="path-1" points="0 0.325194247 295.524775 0.325194247 295.524775 102.151488 0 102.151488"></polygon>
        <polygon id="path-3" points="0.634576334 0.257564166 231.802729 0.257564166 231.802729 27.5428747 0.634576334 27.5428747"></polygon>
        <polygon id="path-5" points="0 200.918879 295.524775 200.918879 295.524775 0.0209796254 0 0.0209796254"></polygon>
        <polygon id="path-7" points="0.601695374 0.0626269111 14.2268922 0.0626269111 14.2268922 11.2801116 0.601695374 11.2801116"></polygon>
        <polygon id="path-9" points="0.44330497 0.202849925 9.35278909 0.202849925 9.35278909 18.5322484 0.44330497 18.5322484"></polygon>
        <polygon id="path-11" points="0 200.918879 295.524775 200.918879 295.524775 0.0209796254 0 0.0209796254"></polygon>
        <polygon id="path-13" points="0.44022721 0.193831684 20.7427589 0.193831684 20.7427589 20.4965985 0.44022721 20.4965985"></polygon>
        <polyline id="path-15" points="0 200.918879 295.524775 200.918879 295.524775 0.0209796254 0 0.0209796254"></polyline>
        <polygon id="path-17" points="0.569251213 0.133895331 2.07056645 0.133895331 2.07056645 2.15880005 0.569251213 2.15880005"></polygon>
        <polyline id="path-19" points="0 200.918879 295.524775 200.918879 295.524775 0.0209796254 0 0.0209796254"></polyline>
        <polygon id="path-21" points="0.237484805 0.162589732 1.73873284 0.162589732 1.73873284 2.18762885 0.237484805 2.18762885"></polygon>
        <polyline id="path-23" points="0 200.918879 295.524775 200.918879 295.524775 0.0209796254 0 0.0209796254"></polyline>
        <polygon id="path-25" points="0.0630336014 0.122035203 1.57295044 0.122035203 1.57295044 2.14697285 0.0630336014 2.14697285"></polygon>
        <polyline id="path-27" points="0 200.918879 295.524775 200.918879 295.524775 0.0209796254 0 0.0209796254"></polyline>
        <polygon id="path-29" points="0.366777608 0.0160204804 8.34469459 0.0160204804 8.34469459 7.99397778 0.366777608 7.99397778"></polygon>
        <polygon id="path-31" points="0.315100807 0.0160204804 8.29305811 0.0160204804 8.29305811 7.99397778 0.315100807 7.99397778"></polygon>
        <polygon id="path-33" points="0 200.918879 295.524775 200.918879 295.524775 0.0209796254 0 0.0209796254"></polygon>
        <polygon id="path-35" points="0 200.918879 295.524775 200.918879 295.524775 0.0209796254 0 0.0209796254"></polygon>
        <polygon id="path-37" points="0 200.918879 295.524775 200.918879 295.524775 0.0209796254 0 0.0209796254"></polygon>
        <polygon id="path-39" points="0.512332812 0.119566947 53.8703705 0.119566947 53.8703705 3.63632648 0.512332812 3.63632648"></polygon>
        <polygon id="path-41" points="0 200.918879 295.524775 200.918879 295.524775 0.0209796254 0 0.0209796254"></polygon>
        <polygon id="path-43" points="0 200.918879 295.524775 200.918879 295.524775 0.0209796254 0 0.0209796254"></polygon>
        <polygon id="path-45" points="0 200.918879 295.524775 200.918879 295.524775 0.0209796254 0 0.0209796254"></polygon>
        <polygon id="path-47" points="0.319925767 0.106295618 27.3088105 0.106295618 27.3088105 5.57040973 0.319925767 5.57040973"></polygon>
        <polyline id="path-49" points="0 200.918879 295.524775 200.918879 295.524775 0.0209796254 0 0.0209796254"></polyline>
        <polygon id="path-51" points="0.0826963219 0.394262409 6.31475726 0.394262409 6.31475726 6.62645775 0.0826963219 6.62645775"></polygon>
        <polygon id="path-53" points="0.0826963219 0.536188812 6.31475726 0.536188812 6.31475726 6.76824975 0.0826963219 6.76824975"></polygon>
    </defs>
    <g id="最新版备份" stroke="none" stroke-width="1" fill="none" fill-rule="evenodd">
        <g id="亮点7" transform="translate(-165.000000, -349.000000)">
            <g id="编组-4" transform="translate(130.000000, 241.000000)">
                <g id="7-2" transform="translate(35.000000, 108.000000)">
                    <g id="编组">
                        <g transform="translate(0.000000, 42.987035)">
                            <mask id="mask-2" fill="white">
                                <use xlink:href="#path-1"></use>
                            </mask>
                            <g id="Clip-2"></g>
                            <polygon id="Fill-1" fill="#E6E6E6" mask="url(#mask-2)" points="0 102.151488 60.1576295 102.151488 60.1576295 7.08895504 0 7.08895504"></polygon>
                            <polygon id="Fill-3" fill="#E6E6E6" mask="url(#mask-2)" points="247.9547 52.4690892 295.525668 52.4690892 295.525668 0.325194247 247.9547 0.325194247"></polygon>
                        </g>
                        <g transform="translate(0.000000, 0.651034)">
                            <g transform="translate(36.288001, 173.376004)">
                                <mask id="mask-4" fill="white">
                                    <use xlink:href="#path-3"></use>
                                </mask>
                                <g id="Clip-5"></g>
                                <path d="M116.218035,0.257564166 C180.053937,0.257564166 231.803314,6.36497582 231.803314,13.9003942 C231.803314,21.434937 180.053937,27.5432238 116.218035,27.5432238 C52.3830732,27.5432238 0.634576334,21.434937 0.634576334,13.9003942 C0.634576334,6.36497582 52.3830732,0.257564166 116.218035,0.257564166" id="Fill-4" fill-opacity="0.45" fill="#E6E6E6" mask="url(#mask-4)"></path>
                            </g>
                            <mask id="mask-6" fill="white">
                                <use xlink:href="#path-5"></use>
                            </mask>
                            <g id="Clip-7"></g>
                            <polygon id="Fill-6" fill="#E6E6E6" mask="url(#mask-6)" points="200.086123 185.966758 257.991773 185.966758 257.991773 170.72659 200.086123 170.72659"></polygon>
                        </g>
                        <polygon id="Fill-8" fill-opacity="0.43" fill="#E6E6E6" points="187.429607 171.709309 245.335257 171.709309 245.335257 156.469142 187.429607 156.469142"></polygon>
                        <g transform="translate(51.744001, 165.291037)">
                            <mask id="mask-8" fill="white">
                                <use xlink:href="#path-7"></use>
                            </mask>
                            <g id="Clip-11"></g>
                            <path d="M11.0149337,10.5730937 C11.0149337,10.5730937 2.46089094,8.23382131 0.601695374,0.273322566 C0.601695374,0.273322566 13.8517347,-2.39763557 14.2270669,11.2801116 L11.0149337,10.5730937 Z" id="Fill-10" fill-opacity="0.58" fill="#FC790D" mask="url(#mask-8)"></path>
                        </g>
                        <g transform="translate(0.000000, 0.651034)">
                            <g transform="translate(60.480001, 155.904004)">
                                <mask id="mask-10" fill="white">
                                    <use xlink:href="#path-9"></use>
                                </mask>
                                <g id="Clip-13"></g>
                                <path d="M3.3261044,18.479698 C3.3261044,18.479698 -2.65299558,9.03620949 2.61035718,0.202849925 C2.61035718,0.202849925 12.6831939,6.60092175 8.20538899,18.5329473 L3.3261044,18.479698 Z" id="Fill-12" fill-opacity="0.73" fill="#FC790D" mask="url(#mask-10)"></path>
                            </g>
                            <mask id="mask-12" fill="white">
                                <use xlink:href="#path-11"></use>
                            </mask>
                            <g id="Clip-15"></g>
                            <path d="M65.3426069,174.392256 C65.3426069,174.392256 68.5023376,164.415448 78.0514578,162.521336 C78.0514578,162.521336 79.7971794,168.997971 71.8716112,174.418444 L65.3426069,174.392256 Z" id="Fill-14" fill="#FC790D" mask="url(#mask-12)"></path>
                            <polygon id="Fill-16" fill="#24285B" mask="url(#mask-12)" points="59.145201 174.16549 60.8734641 186.027681 71.7929872 186.072194 73.4077361 174.226588"></polygon>
                            <polygon id="Fill-17" fill="#C9C9C9" mask="url(#mask-12)" points="96.1719382 186.080225 199.911537 186.080225 199.911537 0.0210268805 96.1719382 0.0210268805"></polygon>
                            <polygon id="Fill-18" fill="#FFFFFF" mask="url(#mask-12)" points="104.752169 152.160816 190.624296 152.160816 190.624296 21.2228222 104.752169 21.2228222"></polygon>
                        </g>
                        <g transform="translate(137.760003, 159.243037)">
                            <mask id="mask-14" fill="white">
                                <use xlink:href="#path-13"></use>
                            </mask>
                            <g id="Clip-20"></g>
                            <path d="M10.5913922,0.193569604 C16.1978212,0.193569604 20.7427589,4.73856107 20.7427589,10.3449564 C20.7427589,15.9522186 16.1978212,20.4972101 10.5913922,20.4972101 C4.98503051,20.4972101 0.44002561,15.9522186 0.44002561,10.3449564 C0.44002561,4.73856107 4.98503051,0.193569604 10.5913922,0.193569604" id="Fill-19" fill-opacity="0.56" fill="#FFFFFF" mask="url(#mask-14)"></path>
                        </g>
                        <g transform="translate(0.000000, 0.651034)">
                            <polygon id="Fill-21" fill-opacity="0.12" fill="#000000" points="139.265082 7.29196557 168.348832 7.29196557 168.348832 11.5340739 139.265082 11.5340739"></polygon>
                            <mask id="mask-16" fill="white">
                                <use xlink:href="#path-15"></use>
                            </mask>
                            <g id="Clip-24"></g>
                            <path d="M128.729465,5.13589452 C131.347174,5.13589452 133.469149,7.25780176 133.469149,9.87551062 C133.469149,12.4932195 131.347174,14.6151939 128.729465,14.6151939 C126.111756,14.6151939 123.989849,12.4932195 123.989849,9.87551062 C123.989849,7.25780176 126.111756,5.13589452 128.729465,5.13589452" id="Fill-23" fill="#FFFFFF" mask="url(#mask-16)"></path>
                            <path d="M126.634707,43.0180138 C133.735395,43.0180138 139.491949,48.7745003 139.491949,55.8752557 C139.491949,62.976011 133.735395,68.7324976 126.634707,68.7324976 C119.533952,68.7324976 113.777465,62.976011 113.777465,55.8752557 C113.777465,48.7745003 119.533952,43.0180138 126.634707,43.0180138" id="Fill-25" fill="#24285B" mask="url(#mask-16)"></path>
                            <path d="M128.345485,49.9659563 C128.553267,50.9671692 128.623088,51.991902 128.555014,53.0122668 C128.515702,53.4932172 128.094963,53.8510572 127.61408,53.8118124 C127.581756,53.8091916 127.54856,53.80395 127.516304,53.7978348 C126.726368,53.7315084 126.045497,53.2147404 125.770582,52.4711052 L125.037363,50.943582 C124.807808,50.2828043 125.012902,49.5479051 125.552316,49.1018315 C126.294272,48.4864811 127.39494,48.5886251 128.010358,49.3305131 C128.164851,49.5173291 128.279158,49.7337803 128.345485,49.9659563" id="Fill-26" fill="#F4A28C" mask="url(#mask-16)"></path>
                            <polygon id="Fill-27" fill="#F4A28C" mask="url(#mask-16)" points="125.159667 51.2142636 124.91526 57.2282605 128.240854 57.1235629 127.079974 52.7941356"></polygon>
                            <path d="M127.909088,50.0971979 C127.346086,50.1852971 126.775222,50.2080107 126.206979,50.1670187 C126.598889,50.6339915 126.677446,51.2877804 126.407772,51.8341836 C126.151136,52.3744716 125.546268,52.6563756 124.967542,52.5062508 L124.723136,50.1582827 C124.634969,49.4844011 124.91862,48.8158283 125.465091,48.4125611 C125.700761,48.2353547 125.948595,48.0747467 126.206979,47.9324843 C126.844169,47.5833131 127.88288,47.9324843 128.441513,47.3913227 C128.615225,47.2237259 128.891014,47.2289675 129.058611,47.4026795 C129.110153,47.4559019 129.146777,47.5204811 129.165997,47.5920491 C129.492454,48.4456907 129.19832,49.4128331 128.450249,49.9400843 C128.278285,50.0168939 128.095837,50.0701163 127.909088,50.0971979" id="Fill-28" fill="#FFD200" mask="url(#mask-16)"></path>
                            <path d="M126.591228,51.7554924 C126.591228,51.7554924 126.4952,51.0572172 125.980246,51.170718 C125.465225,51.2841516 125.587462,52.30539 126.320614,52.314126 L126.591228,51.7554924 Z" id="Fill-29" fill="#F4A28C" mask="url(#mask-16)"></path>
                            <path d="M128.528739,51.1094316 L129.113513,51.755358 C129.22352,51.876654 129.214784,52.0643436 129.093488,52.1752236 C129.063785,52.2013644 129.029715,52.2223308 128.991344,52.2354348 L128.301805,52.4448972 L128.528739,51.1094316 Z" id="Fill-30" fill="#F4A28C" mask="url(#mask-16)"></path>
                        </g>
                        <g transform="translate(0.000000, 0.651034)">
                            <g transform="translate(125.664003, 53.088001)">
                                <mask id="mask-18" fill="white">
                                    <use xlink:href="#path-17"></use>
                                </mask>
                                <g id="Clip-32"></g>
                                <path d="M1.71272644,0.640012815 C1.29024003,0.585916813 0.89308802,0.410457609 0.569251213,0.133728003 C0.800553618,0.972585622 1.33566723,1.69444804 2.07056645,2.15880005 L1.71272644,0.640012815 Z" id="Fill-31" fill-opacity="0.31" fill="#CE8172" mask="url(#mask-18)"></path>
                            </g>
                            <mask id="mask-20" fill="white">
                                <use xlink:href="#path-19"></use>
                            </mask>
                            <g id="Clip-34"></g>
                            <path d="M117.967452,65.3722287 C117.967452,65.3722287 117.766659,57.2982829 126.477862,56.8880269 C135.188998,56.4777709 134.953328,65.7301359 134.953328,65.7301359 C134.953328,65.7301359 126.739673,73.2193073 117.967452,65.3722287" id="Fill-33" fill="#FC790D" mask="url(#mask-20)"></path>
                            <path d="M125.62207,115.605305 C132.722825,115.605305 138.479312,121.361792 138.479312,128.462547 C138.479312,135.563262 132.722825,141.319789 125.62207,141.319789 C118.521382,141.319789 112.764828,135.563262 112.764828,128.462547 C112.764828,121.361792 118.521382,115.605305 125.62207,115.605305" id="Fill-35" fill="#24285B" mask="url(#mask-20)"></path>
                            <path d="M127.341785,122.553248 C127.549568,123.55446 127.619388,124.579193 127.551315,125.599558 C127.512003,126.080508 127.09039,126.437475 126.610313,126.39823 C126.578057,126.395609 126.54486,126.391241 126.512604,126.385126 C125.721795,126.32142 125.040051,125.803779 124.766883,125.058396 L124.033664,123.530873 C123.797993,122.869222 124.004835,122.132508 124.548617,121.689123 C125.290572,121.073772 126.391241,121.175849 127.006592,121.917804 C127.161152,122.103747 127.275459,122.320198 127.341785,122.553248" id="Fill-36" fill="#F4A28C" mask="url(#mask-20)"></path>
                            <polygon id="Fill-37" fill="#F4A28C" mask="url(#mask-20)" points="124.146963 123.801219 123.911292 129.816089 127.236886 129.711325 126.076006 125.381964"></polygon>
                            <path d="M127.516572,123.714262 L128.110083,124.360188 C128.219216,124.482358 128.207859,124.670048 128.085622,124.779113 C128.055113,124.807068 128.018422,124.827161 127.979177,124.840265 L127.298307,125.049728 L127.516572,123.714262 Z" id="Fill-38" fill="#F4A28C" mask="url(#mask-20)"></path>
                        </g>
                        <g transform="translate(0.000000, 0.651034)">
                            <g transform="translate(124.992003, 125.664003)">
                                <mask id="mask-22" fill="white">
                                    <use xlink:href="#path-21"></use>
                                </mask>
                                <g id="Clip-40"></g>
                                <path d="M1.37208963,0.668841615 C0.953164822,0.614745614 0.558566413,0.43753921 0.237417605,0.162556804 C0.467846411,1.00141442 1.00376642,1.72327684 1.73873284,2.18762885 L1.37208963,0.668841615 Z" id="Fill-39" fill-opacity="0.31" fill="#CE8172" mask="url(#mask-22)"></path>
                            </g>
                            <mask id="mask-24" fill="white">
                                <use xlink:href="#path-23"></use>
                            </mask>
                            <g id="Clip-42"></g>
                            <path d="M116.963283,137.959614 C116.963283,137.959614 116.762556,129.894377 125.473692,129.474512 C134.184896,129.056393 133.949158,138.317488 133.949158,138.317488 C133.949158,138.317488 125.735571,145.805772 116.963283,137.959614" id="Fill-41" fill="#FC790D" mask="url(#mask-24)"></path>
                            <path d="M124.077478,125.72166 L123.073712,123.845907 C123.073712,123.845907 121.380339,124.029161 121.32799,122.797587 C121.275574,121.566819 122.584899,121.863641 122.584899,121.051865 C122.584899,120.240089 122.419049,119.010195 123.719571,119.035529 C125.02016,119.061737 125.378067,120.117852 125.980313,119.437049 C126.320748,119.056496 126.905523,119.023299 127.287017,119.364608 C127.483376,119.54094 127.596003,119.792336 127.595129,120.056768 C127.66495,120.886016 128.546547,120.632873 128.18864,121.802489 C127.8308,122.973046 125.980313,122.361123 125.980313,122.361123 C125.980313,122.361123 124.304412,122.361123 124.513875,123.103078 C124.723404,123.845907 126.050134,125.459782 124.077478,125.72166" id="Fill-43" fill="#FFD200" mask="url(#mask-24)"></path>
                            <path d="M125.281904,124.15926 C125.281904,124.15926 124.976412,123.522944 124.513808,123.783881 C124.051203,124.04576 124.513808,124.979705 125.177206,124.770243 L125.281904,124.15926 Z" id="Fill-44" fill="#F4A28C" mask="url(#mask-24)"></path>
                            <path d="M126.128355,78.622053 C133.22911,78.622053 138.985597,84.3785395 138.985597,91.4792949 C138.985597,98.5800502 133.22911,104.336537 126.128355,104.336537 C119.0276,104.336537 113.271113,98.5800502 113.271113,91.4792949 C113.271113,84.3785395 119.0276,78.622053 126.128355,78.622053" id="Fill-45" fill="#24285B" mask="url(#mask-24)"></path>
                            <path d="M127.848137,85.5789331 C128.050678,86.5783316 128.120499,87.5986964 128.057667,88.6165076 C127.989526,89.1227252 127.525174,89.4780116 127.018956,89.4108116 C126.225526,89.3470388 125.542035,88.8250964 125.273235,88.0752788 L124.540016,86.5478228 C124.303472,85.889666 124.510313,85.1538259 125.054969,84.7148083 C125.796924,84.0993907 126.897593,84.2015347 127.512944,84.9434899 C127.667436,85.1302387 127.781811,85.3458835 127.848137,85.5789331" id="Fill-46" fill="#F4A28C" mask="url(#mask-24)"></path>
                            <polygon id="Fill-47" fill="#F4A28C" mask="url(#mask-24)" points="124.653315 86.8273076 124.417644 92.8413045 127.734502 92.7365397 126.573622 88.3984436"></polygon>
                            <path d="M126.093411,87.3682004 C126.093411,87.3682004 125.997449,86.6699252 125.473692,86.7833588 C124.950003,86.8968596 125.089644,87.909362 125.814128,87.926834 L126.093411,87.3682004 Z" id="Fill-48" fill="#F4A28C" mask="url(#mask-24)"></path>
                            <path d="M128.022454,86.7224756 L128.616032,87.359666 C128.725097,87.4818356 128.714614,87.6695252 128.592445,87.7785908 C128.560995,87.806546 128.525245,87.8266388 128.485059,87.8397428 L127.804256,88.0579412 L128.022454,86.7224756 Z" id="Fill-49" fill="#F4A28C" mask="url(#mask-24)"></path>
                        </g>
                        <g transform="translate(0.000000, 0.651034)">
                            <g transform="translate(125.664003, 88.704002)">
                                <mask id="mask-26" fill="white">
                                    <use xlink:href="#path-25"></use>
                                </mask>
                                <g id="Clip-51"></g>
                                <path d="M1.20637443,0.637056014 C0.783014418,0.581145613 0.385862409,0.401385609 0.0628992014,0.122035203 C0.289833607,0.964387222 0.829315219,1.68967684 1.57295044,2.14710725 L1.20637443,0.637056014 Z" id="Fill-50" fill-opacity="0.31" fill="#CE8172" mask="url(#mask-26)"></path>
                            </g>
                            <mask id="mask-28" fill="white">
                                <use xlink:href="#path-27"></use>
                            </mask>
                            <g id="Clip-53"></g>
                            <path d="M117.461167,101.019813 C117.461167,101.019813 117.269177,92.9458677 125.971577,92.5268757 C134.674045,92.1079509 134.455779,101.377721 134.455779,101.377721 C134.455779,101.377721 126.233456,108.875628 117.461167,101.019813" id="Fill-52" fill="#FC790D" mask="url(#mask-28)"></path>
                            <path d="M121.432553,89.9782484 C120.950729,90.7638165 120.838976,91.7213493 121.126995,92.5968309 C121.324294,93.4216437 122.087148,93.9855189 122.933868,93.9322965 C125.229488,93.8450037 124.889052,93.1728693 125.194544,89.8822196 C125.473894,86.7922964 125.727036,85.8757555 127.542579,85.4131507 C129.358121,84.9505459 128.240854,83.1611443 126.669718,83.2048243 C125.098515,83.2484371 122.305414,83.3269939 122.383971,86.2074548 C122.422342,87.5281364 122.093264,88.8338996 121.432553,89.9782484" id="Fill-54" fill="#FFD200" mask="url(#mask-28)"></path>
                            <polygon id="Fill-55" fill="#E6E6E6" mask="url(#mask-28)" points="146.570931 49.7042795 164.151238 49.7042795 164.151238 46.0993603 146.570931 46.0993603"></polygon>
                            <polygon id="Fill-56" fill="#FFD200" mask="url(#mask-28)" points="104.752169 36.5066024 190.624296 36.5066024 190.624296 21.2227886 104.752169 21.2227886"></polygon>
                            <polygon id="Fill-57" fill="#FFFFFF" mask="url(#mask-28)" points="134.953126 31.0512391 180.05389 31.0512391 180.05389 26.6956589 134.953126 26.6956589"></polygon>
                            <path d="M114.606847,24.2079941 C116.809932,24.2079941 118.595839,25.9939014 118.595839,28.1969862 C118.595839,30.4000711 116.809932,32.1859783 114.606847,32.1859783 C112.403763,32.1859783 110.617855,30.4000711 110.617855,28.1969862 C110.617855,25.9939014 112.403763,24.2079941 114.606847,24.2079941" id="Fill-58" fill="#24285B" mask="url(#mask-28)"></path>
                        </g>
                        <g transform="translate(114.240003, 24.843034)">
                            <mask id="mask-30" fill="white">
                                <use xlink:href="#path-29"></use>
                            </mask>
                            <g id="Clip-60"></g>
                            <path d="M4.3557025,0.0159936004 C6.55885455,0.0159936004 8.34469459,1.80190084 8.34469459,4.00498569 C8.34469459,6.20807054 6.55885455,7.99397778 4.3557025,7.99397778 C2.15261765,7.99397778 0.366777608,6.20807054 0.366777608,4.00498569 C0.366777608,1.80190084 2.15261765,0.0159936004 4.3557025,0.0159936004" id="Fill-59" fill-opacity="0.74" fill="#24285B" mask="url(#mask-30)"></path>
                        </g>
                        <g transform="translate(0.000000, 0.651034)">
                            <g transform="translate(118.944003, 24.192001)">
                                <mask id="mask-32" fill="white">
                                    <use xlink:href="#path-31"></use>
                                </mask>
                                <g id="Clip-62"></g>
                                <path d="M4.3040929,0.0159936004 C6.50717775,0.0159936004 8.29308499,1.80190084 8.29308499,4.00498569 C8.29308499,6.20807054 6.50717775,7.99397778 4.3040929,7.99397778 C2.10094085,7.99397778 0.315100807,6.20807054 0.315100807,4.00498569 C0.315100807,1.80190084 2.10094085,0.0159936004 4.3040929,0.0159936004" id="Fill-61" fill-opacity="0.31" fill="#24285B" mask="url(#mask-32)"></path>
                            </g>
                            <mask id="mask-34" fill="white">
                                <use xlink:href="#path-33"></use>
                            </mask>
                            <g id="Clip-64"></g>
                            <polygon id="Fill-63" fill="#FFD200" mask="url(#mask-34)" points="146.570797 53.4313932 146.570797 60.8332718 141.50815 64.3857999 146.570797 64.3857999 216.382258 64.3857999 216.382258 53.4313932"></polygon>
                        </g>
                        <g transform="translate(0.000000, 0.651034)">
                            <polygon id="Fill-65" fill-opacity="0.39" fill="#FFFFFF" points="153.056336 57.2283458 206.414374 57.2283458 206.414374 60.745979 153.056336 60.745979"></polygon>
                            <mask id="mask-36" fill="white">
                                <use xlink:href="#path-35"></use>
                            </mask>
                            <g id="Clip-68"></g>
                            <polygon id="Fill-67" fill="#E6E6E6" mask="url(#mask-36)" points="146.570931 83.8855603 164.151238 83.8855603 164.151238 80.2806411 146.570931 80.2806411"></polygon>
                            <polygon id="Fill-69" fill="#FFD200" mask="url(#mask-36)" points="146.570797 87.6038708 146.570797 95.0057494 141.50815 98.5670134 146.570797 98.5670134 216.382258 98.5670134 216.382258 87.6038708"></polygon>
                        </g>
                        <g transform="translate(0.000000, 0.651034)">
                            <polygon id="Fill-70" fill-opacity="0.39" fill="#FFFFFF" points="153.056336 91.4096266 206.414374 91.4096266 206.414374 94.9272598 153.056336 94.9272598"></polygon>
                            <mask id="mask-38" fill="white">
                                <use xlink:href="#path-37"></use>
                            </mask>
                            <g id="Clip-73"></g>
                            <polygon id="Fill-72" fill="#E6E6E6" mask="url(#mask-38)" points="146.570931 122.291504 164.151238 122.291504 164.151238 118.686584 146.570931 118.686584"></polygon>
                            <polygon id="Fill-74" fill="#FFD200" mask="url(#mask-38)" points="146.570797 126.018281 146.570797 133.420093 141.50815 136.973541 146.570797 136.973541 216.382258 136.973541 216.382258 126.018281"></polygon>
                        </g>
                        <g transform="translate(0.000000, 0.651034)">
                            <g transform="translate(152.544003, 129.696003)">
                                <mask id="mask-40" fill="white">
                                    <use xlink:href="#path-39"></use>
                                </mask>
                                <g id="Clip-76"></g>
                                <polygon id="Fill-75" fill-opacity="0.39" fill="#FFFFFF" mask="url(#mask-40)" points="0.512332812 3.63632648 53.8703705 3.63632648 53.8703705 0.119566275 0.512332812 0.119566275"></polygon>
                            </g>
                            <mask id="mask-42" fill="white">
                                <use xlink:href="#path-41"></use>
                            </mask>
                            <g id="Clip-78"></g>
                            <polygon id="Fill-77" fill="#24285B" mask="url(#mask-42)" points="232.024133 83.3007187 279.595102 83.3007187 279.595102 31.1559501 232.024133 31.1559501"></polygon>
                            <path d="M242.882175,42.7737418 C244.622655,42.7737418 246.033183,44.184337 246.033183,45.924817 C246.033183,47.6652971 244.622655,49.0758251 242.882175,49.0758251 C241.142569,49.0758251 239.731973,47.6652971 239.731973,45.924817 C239.731973,44.184337 241.142569,42.7737418 242.882175,42.7737418" id="Fill-79" fill="#FC790D" mask="url(#mask-42)"></path>
                            <path d="M242.882175,54.9413772 C244.622655,54.9413772 246.033183,56.3519053 246.033183,58.0923853 C246.033183,59.8328654 244.622655,61.2434606 242.882175,61.2434606 C241.142569,61.2434606 239.731973,59.8328654 239.731973,58.0923853 C239.731973,56.3519053 241.142569,54.9413772 242.882175,54.9413772" id="Fill-80" fill="#FFFFFF" mask="url(#mask-42)"></path>
                            <path d="M242.882175,67.1090799 C244.622655,67.1090799 246.033183,68.519608 246.033183,70.260088 C246.033183,72.000568 244.622655,73.4111633 242.882175,73.4111633 C241.142569,73.4111633 239.731973,72.000568 239.731973,70.260088 C239.731973,68.519608 241.142569,67.1090799 242.882175,67.1090799" id="Fill-81" fill="#FFD200" mask="url(#mask-42)"></path>
                        </g>
                        <polygon id="Fill-82" fill-opacity="0.2" fill="#FFFFFF" points="252.536329 48.3041003 271.739287 48.3041003 271.739287 43.8175903 252.536329 43.8175903"></polygon>
                        <polygon id="Fill-84" fill-opacity="0.2" fill="#FFFFFF" points="252.536329 60.9867566 271.739287 60.9867566 271.739287 56.5002466 252.536329 56.5002466"></polygon>
                        <g transform="translate(0.000000, 0.651034)">
                            <polygon id="Fill-86" fill-opacity="0.2" fill="#FFFFFF" points="252.536329 68.2700581 271.739287 68.2700581 271.739287 72.7565681 252.536329 72.7565681"></polygon>
                            <mask id="mask-44" fill="white">
                                <use xlink:href="#path-43"></use>
                            </mask>
                            <g id="Clip-89"></g>
                            <polygon id="Fill-88" fill="#24285B" mask="url(#mask-44)" points="16.4359847 131.840624 76.5936142 131.840624 76.5936142 36.7772168 16.4359847 36.7772168"></polygon>
                            <path d="M35.6303883,45.1042378 C41.1451296,45.1042378 45.6159322,49.5750539 45.6159322,55.0897549 C45.6159322,60.604523 41.1451296,65.0752719 35.6303883,65.0752719 C30.1156538,65.0752719 25.6448511,60.604523 25.6448511,55.0897549 C25.6448511,49.5750539 30.1156538,45.1042378 35.6303883,45.1042378" id="Fill-90" fill="#FC790D" mask="url(#mask-44)"></path>
                            <polygon id="Fill-91" fill="#FFFFFF" mask="url(#mask-44)" points="50.6085227 53.536158 67.3849225 53.536158 67.3849225 49.4249789 50.6085227 49.4249789"></polygon>
                        </g>
                        <polygon id="Fill-92" fill-opacity="0.21" fill="#FFFFFF" points="50.6085227 61.3970126 67.3849225 61.3970126 67.3849225 57.2858334 50.6085227 57.2858334"></polygon>
                        <g transform="translate(0.000000, 0.651034)">
                            <polygon id="Fill-94" fill-opacity="0.11" fill="#FFFFFF" points="16.4359847 74.4761422 76.5936142 74.4761422 76.5936142 131.840624 16.4359847 131.840624"></polygon>
                            <mask id="mask-46" fill="white">
                                <use xlink:href="#path-45"></use>
                            </mask>
                            <g id="Clip-97"></g>
                            <polygon id="Fill-96" fill="#FFFFFF" mask="url(#mask-46)" points="37.2799266 91.4532885 64.2688114 91.4532885 64.2688114 85.9891737 37.2799266 85.9891737"></polygon>
                        </g>
                        <g transform="translate(36.960001, 100.779036)">
                            <mask id="mask-48" fill="white">
                                <use xlink:href="#path-47"></use>
                            </mask>
                            <g id="Clip-99"></g>
                            <polygon id="Fill-98" fill-opacity="0.57" fill="#FFFFFF" mask="url(#mask-48)" points="0.319925767 5.57128333 27.3088105 5.57128333 27.3088105 0.106295618 0.319925767 0.106295618"></polygon>
                        </g>
                        <g transform="translate(0.000000, 0.651034)">
                            <polygon id="Fill-100" fill-opacity="0.23" fill="#FFFFFF" points="37.2799266 114.479354 64.2688114 114.479354 64.2688114 119.943468 37.2799266 119.943468"></polygon>
                            <mask id="mask-50" fill="white">
                                <use xlink:href="#path-49"></use>
                            </mask>
                            <g id="Clip-103"></g>
                            <path d="M30.07864,85.9804532 C31.7999278,85.9804532 33.1947579,87.3752564 33.1947579,89.0965172 C33.1947579,90.8178453 31.7999278,92.2126485 30.07864,92.2126485 C28.357359,92.2126485 26.9625222,90.8178453 26.9625222,89.0965172 C26.9625222,87.3752564 28.357359,85.9804532 30.07864,85.9804532" id="Fill-102" fill="#FFD200" mask="url(#mask-50)"></path>
                        </g>
                        <g transform="translate(26.880001, 100.107036)">
                            <mask id="mask-52" fill="white">
                                <use xlink:href="#path-51"></use>
                            </mask>
                            <g id="Clip-105"></g>
                            <path d="M3.19863943,0.394262409 C4.91992715,0.394262409 6.31475726,1.79000644 6.31475726,3.51039368 C6.31475726,5.23084812 4.91992715,6.62652495 3.19863943,6.62652495 C1.47735843,6.62652495 0.0825216019,5.23084812 0.0825216019,3.51039368 C0.0825216019,1.79000644 1.47735843,0.394262409 3.19863943,0.394262409" id="Fill-104" fill-opacity="0.36" fill="#FFD200" mask="url(#mask-52)"></path>
                        </g>
                        <g transform="translate(26.880001, 114.219036)">
                            <mask id="mask-54" fill="white">
                                <use xlink:href="#path-53"></use>
                            </mask>
                            <g id="Clip-107"></g>
                            <path d="M3.19863943,0.536188812 C4.91992715,0.536188812 6.31475726,1.93105924 6.31475726,3.65144648 C6.31475726,5.37270732 4.91992715,6.76845135 3.19863943,6.76845135 C1.47735843,6.76845135 0.0825216019,5.37270732 0.0825216019,3.65144648 C0.0825216019,1.93105924 1.47735843,0.536188812 3.19863943,0.536188812" id="Fill-106" fill-opacity="0.36" fill="#FFD200" mask="url(#mask-54)"></path>
                        </g>
                    </g>
                    <g id="独家解决方案备份" transform="translate(9.000000, 232.000000)">
                        <rect id="Rectangle-3" fill="#FC790D" x="0.5098135" y="-2.13162821e-14" width="276" height="44.8081879" rx="4.8990285"></rect>
                        <text id="客户价值评分" font-family="FZLTCHJW--GB1-0, FZLanTingHeiS-B-GB" font-size="24.4951425" font-weight="normal" line-spacing="29.394171" fill="#FFFFFF">
                            <tspan x="119.20103" y="29.3485428">客户价值评分</tspan>
                        </text>
                        <g id="句客宝logo" transform="translate(13.196352, 8.981552)">
                            <path d="M11.430953,-2.3625546e-13 C14.5313149,-2.3625546e-13 17.2121507,1.10905154 19.4723253,3.32404366 C21.7315917,5.54036905 22.862133,8.16911673 22.862133,11.208509 C22.862133,17.9610352 18.0530192,22.9325459 8.43547259,26.128152 L8.43547259,26.128152 L8.43547259,22.031261 C5.85974537,21.3086331 3.80978796,19.9304849 2.28605439,17.8954831 C0.761185737,15.8600369 0,13.6321566 0,11.208509 C0,8.16911673 1.1291792,5.54036905 3.38980776,3.32404366 C5.64862019,1.10905154 8.32922895,-2.3625546e-13 11.430953,-2.3625546e-13 Z M7.13283022,10.5876535 C7.08016243,12.6793189 8.96553301,14.4212253 11.3444371,14.4792222 C11.4400109,14.4821109 11.5335417,14.4763335 11.6272994,14.4738892 C11.6272994,14.4743336 12.0325236,14.7549852 12.4770215,14.9789731 C12.9725982,15.2280709 13.5814559,15.3953952 13.9353744,15.365619 C14.4037091,15.3262878 14.4774894,15.0314148 14.3837316,14.880534 C14.2947412,14.7367639 14.139235,14.7303198 13.9889502,14.6378804 C13.8084723,14.5263308 13.7285625,14.4698894 13.6543282,14.2967876 C13.5691971,14.0974649 13.6677221,13.9494729 13.8550106,13.8505893 C13.8550106,13.8505893 13.8697667,13.8368123 13.8951925,13.8125914 C14.98646,13.1501825 15.7151824,12.0551302 15.7469647,10.7965311 C15.7998595,8.70508794 13.9144889,6.96251488 11.5353578,6.90451799 C9.15668076,6.84696553 7.18572502,8.49576585 7.13283022,10.5876535 Z" id="形状结合" fill="#FFFFFF"></path>
                            <path d="M42.5343205,24.1821127 C43.0590911,24.1821127 43.6261819,24.0662271 44.2355929,23.8344557 C44.8450039,23.6026844 45.4120946,23.2301947 45.9368652,22.7169867 C46.4616358,22.2037788 46.905998,21.5332974 47.2699518,20.7055426 C47.6339056,19.8777878 47.8243465,18.8679269 47.8412746,17.67596 L47.8412746,17.67596 L47.9682352,6.32744156 C48.0020914,5.76456829 47.8158825,5.2844705 47.4096085,4.8871482 C46.9864064,4.47327079 46.4531718,4.26633209 45.8099046,4.26633209 L45.8099046,4.26633209 L35.4245254,4.26633209 C35.543022,3.93523017 35.6530546,3.58343438 35.7546231,3.21094471 C35.8561916,2.83845505 35.9746882,2.44527152 36.1101128,2.03139411 C36.1947532,1.78306767 36.1693611,1.54715755 36.0339365,1.32366375 C35.8985118,1.10016996 35.7038388,0.947035316 35.4499176,0.864259835 C35.1790682,0.781484355 34.929379,0.806316999 34.7008499,0.938757768 C34.4723208,1.07119854 34.315736,1.26158214 34.2310956,1.50990858 C33.9433182,2.48665926 33.6682368,3.36407935 33.4058515,4.14216887 C33.1434662,4.92025839 32.8683849,5.6362663 32.5806074,6.29019259 C32.29283,6.94411889 31.9754285,7.55665745 31.6284027,8.12780827 C31.281377,8.69895908 30.8793351,9.26597113 30.4222768,9.82884439 C30.252996,10.0440606 30.1852836,10.2799708 30.2191398,10.5365748 C30.252996,10.7931787 30.3799566,11.0042562 30.6000217,11.1698072 C30.7862306,11.302248 30.9809036,11.3684683 31.1840406,11.3684683 C31.3194652,11.3684683 31.4591219,11.3394969 31.6030106,11.2815541 C31.7468993,11.2236112 31.8696279,11.1284194 31.9711964,10.9959787 C32.5975355,10.2178892 33.1265381,9.45221596 33.5582043,8.69895908 C33.9898704,7.94570221 34.3834483,7.09725353 34.7389381,6.15361305 L34.7389381,6.15361305 L45.8099046,6.15361305 C45.9114731,6.15361305 45.9791854,6.1784457 46.0130416,6.22811098 C46.0299697,6.22811098 46.0384337,6.25294363 46.0384337,6.30260892 L46.0384337,6.30260892 L45.886081,17.6511273 C45.8691529,18.5947678 45.7294962,19.3645798 45.4671109,19.9605632 C45.2047256,20.5565467 44.8957881,21.0283669 44.5402984,21.376024 C44.1848086,21.723681 43.8166228,21.9595911 43.4357409,22.0837543 C43.054859,22.2079175 42.7543856,22.2699991 42.5343205,22.2699991 L42.5343205,22.2699991 L41.8995173,22.2699991 C41.6117399,22.253444 41.3747468,22.3362195 41.1885378,22.5183256 C41.0023289,22.7004316 40.9092245,22.9239254 40.9092245,23.188807 C40.8922964,23.4702436 40.9769368,23.702015 41.1631457,23.884121 C41.3493546,24.0662271 41.5778838,24.1655577 41.8487331,24.1821127 L41.8487331,24.1821127 L42.5343205,24.1821127 Z M41.5688488,18.718931 C42.0259071,18.718931 42.415253,18.5616576 42.7368866,18.2471108 C43.0585201,17.932564 43.2193369,17.5517967 43.2193369,17.1048091 L43.2193369,17.1048091 L43.2193369,10.8718155 C43.2193369,10.4248279 43.0585201,10.0440606 42.7368866,9.72951382 C42.415253,9.41496699 42.0259071,9.25769358 41.5688488,9.25769358 L41.5688488,9.25769358 L35.6270915,9.25769358 C35.1700333,9.25769358 34.7806874,9.41496699 34.4590538,9.72951382 C34.1374202,10.0440606 33.9766034,10.4248279 33.9766034,10.8718155 L33.9766034,10.8718155 L33.9766034,17.1048091 C33.9766034,17.5517967 34.1374202,17.932564 34.4590538,18.2471108 C34.7806874,18.5616576 35.1700333,18.718931 35.6270915,18.718931 L35.6270915,18.718931 L41.5688488,18.718931 Z M41.2641433,16.8068174 L35.931797,16.8068174 L35.931797,11.1449745 L41.2641433,11.1449745 L41.2641433,16.8068174 Z M71.3532406,8.41338367 C71.6240899,8.41338367 71.8568511,8.31819187 72.051524,8.12780827 C72.246197,7.93742466 72.3435335,7.71806964 72.3435335,7.46974319 L72.3435335,7.46974319 L72.3435335,4.76298498 C72.3435335,4.31599738 72.1784847,3.93523017 71.848387,3.62068334 C71.5182894,3.30613652 71.1247115,3.1488631 70.6676532,3.1488631 L70.6676532,3.1488631 L64.929033,3.1488631 L64.0403086,1.38574536 C63.9048839,1.15397402 63.714443,0.992561831 63.4689858,0.901508802 C63.2235286,0.810455773 62.9823034,0.822872095 62.7453102,0.938757768 C62.508317,1.05464344 62.3390362,1.2367495 62.2374677,1.48507594 C62.1358992,1.73340238 62.1528273,1.97345128 62.288252,2.20522262 L62.288252,2.20522262 L62.7707023,3.12403046 L56.6258081,3.12403046 C56.1518217,3.12403046 55.7540118,3.28130387 55.4323782,3.5958507 C55.1107446,3.91039752 54.9499278,4.29116474 54.9499278,4.73815233 L54.9499278,4.73815233 L54.9499278,7.44491055 C54.9499278,7.72634718 55.0472643,7.95811853 55.2419372,8.14022459 C55.4366102,8.32233065 55.6693713,8.41338367 55.9402207,8.41338367 C56.21107,8.41338367 56.4395991,8.31819187 56.6258081,8.12780827 C56.812017,7.93742466 56.9051214,7.71806964 56.9051214,7.46974319 L56.9051214,7.46974319 L56.9051214,5.06097671 L70.3883399,5.06097671 L70.3883399,7.46974319 C70.3883399,7.71806964 70.4814443,7.93742466 70.6676532,8.12780827 C70.8538621,8.31819187 71.0823913,8.41338367 71.3532406,8.41338367 Z M71.8864752,16.906148 C72.1234684,16.906148 72.3308374,16.8357888 72.5085823,16.6950705 C72.6863272,16.5543522 72.7921277,16.3681074 72.8259839,16.136336 C72.8936962,15.8714545 72.851376,15.6314056 72.6990232,15.4161893 C72.5466705,15.2009731 72.3350694,15.0685323 72.0642201,15.018867 C70.625333,14.7374304 69.3684228,14.451855 68.2934895,14.1621408 C67.2185562,13.8724266 66.2748156,13.5454635 65.4622676,13.1812514 C66.3425279,12.601823 67.1254518,11.9727293 67.8110392,11.2939704 C68.4966265,10.6152115 69.1018055,9.86195459 69.6265761,9.03419978 C69.7281446,8.88520391 69.7831609,8.71551418 69.7916249,8.52513057 C69.800089,8.33474697 69.7704648,8.16091846 69.7027525,8.00364505 C69.6350401,7.84637163 69.5292396,7.70979209 69.3853509,7.59390642 C69.2414622,7.47802074 69.0679493,7.42007791 68.8648123,7.42007791 L68.8648123,7.42007791 L61.4757039,7.42007791 C61.5434163,7.28763714 61.6026646,7.17175146 61.6534488,7.07242089 C61.7042331,6.97309031 61.7550173,6.85720464 61.8058016,6.72476387 C61.9242982,6.49299252 61.9369942,6.2570824 61.8438898,6.01703351 C61.7507853,5.77698461 61.5772724,5.59073978 61.3233512,5.45829901 C61.086358,5.34241334 60.8451328,5.32999702 60.5996756,5.42105005 C60.3542184,5.51210308 60.1637775,5.68179281 60.0283528,5.93011925 C59.5882227,6.84064954 59.0211319,7.70151454 58.3270804,8.51271425 C57.633029,9.32391396 56.812017,10.0606157 55.8640443,10.7228196 C55.6270511,10.8718155 55.4916265,11.0746154 55.4577703,11.3312194 C55.4239141,11.5878234 55.4746984,11.8237335 55.6101231,12.0389497 C55.8301881,12.3038313 56.1010375,12.436272 56.4226711,12.436272 C56.6427361,12.436272 56.820481,12.3700517 56.9559057,12.2376109 C57.2944674,12.0058395 57.620333,11.7657906 57.9335025,11.5174642 C58.246672,11.2691378 58.5471455,11.0042562 58.8349229,10.7228196 C59.2750531,11.1698072 59.7109513,11.5961009 60.1426174,12.0017008 C60.5742835,12.4073006 61.0355738,12.7839291 61.5264882,13.1315861 C59.7659675,13.8931205 57.6838133,14.5222141 55.2800254,15.018867 C55.0091761,15.0685323 54.7975751,15.2051119 54.6452223,15.4286057 C54.4928696,15.6520995 54.4505493,15.8962871 54.5182617,16.1611687 C54.5690459,16.3763849 54.6833105,16.5543522 54.8610554,16.6950705 C55.0388002,16.8357888 55.2461693,16.906148 55.4831624,16.906148 C55.5678028,16.906148 55.6355152,16.8978704 55.6862994,16.8813153 C57.226755,16.5667685 58.64025,16.1984176 59.9267843,15.7762627 C61.2133187,15.3541077 62.3982845,14.8781487 63.4816818,14.3483856 C64.4804387,14.8781487 65.6357804,15.3458302 66.9477069,15.75143 C68.2596334,16.1570299 69.8466412,16.5336583 71.7087304,16.8813153 C71.7425865,16.8813153 71.7722107,16.8854541 71.7976028,16.8937317 C71.8229949,16.9020092 71.8526191,16.906148 71.8864752,16.906148 Z M63.4562897,12.1382803 C62.8638068,11.7575131 62.296716,11.3353581 61.7550173,10.8718155 C61.2133187,10.4082728 60.67162,9.89506478 60.1299213,9.33219151 L60.1299213,9.33219151 L66.960403,9.33219151 C66.0124303,10.4248279 64.8443925,11.3601908 63.4562897,12.1382803 Z M68.5601068,23.8592884 C68.9663808,23.8592884 69.3176386,23.7144313 69.61388,23.4247171 C69.9101215,23.1350029 70.0582422,22.7914847 70.0582422,22.3941624 L70.0582422,22.3941624 L70.0582422,18.0732823 C70.0582422,17.6594049 69.9143535,17.3076091 69.6265761,17.0178949 C69.3387987,16.7281807 68.9833089,16.5833236 68.5601068,16.5833236 L68.5601068,16.5833236 L58.6571781,16.5833236 C58.2509041,16.5833236 57.8996463,16.7281807 57.6034049,17.0178949 C57.3071634,17.3076091 57.1590427,17.6676824 57.1590427,18.0981149 L57.1590427,18.0981149 L57.1590427,22.3941624 C57.1590427,22.7914847 57.3029314,23.1350029 57.5907088,23.4247171 C57.8784862,23.7144313 58.233976,23.8592884 58.6571781,23.8592884 L58.6571781,23.8592884 L68.5601068,23.8592884 Z M68.1284407,21.9720074 L59.1142363,21.9720074 L59.1142363,18.4706046 L68.1284407,18.4706046 L68.1284407,21.9720074 Z M79.4781497,8.81070598 C79.748999,8.81070598 79.9775282,8.71551418 80.1637371,8.52513057 C80.349946,8.33474697 80.4430505,8.1071144 80.4430505,7.84223286 L80.4430505,7.84223286 L80.4430505,5.80595603 L93.9262689,5.80595603 L93.9262689,7.84223286 C93.9262689,8.0905593 94.0193733,8.30991432 94.2055823,8.50029793 C94.3917912,8.69068153 94.6203203,8.78587334 94.8911696,8.78587334 C95.162019,8.78587334 95.3947801,8.69068153 95.5894531,8.50029793 C95.784126,8.30991432 95.8814625,8.08228175 95.8814625,7.81740021 L95.8814625,7.81740021 L95.8814625,5.35896844 C95.8814625,4.94509103 95.7206457,4.59743401 95.3990121,4.31599738 C95.0773786,4.03456075 94.6795686,3.89384243 94.2055823,3.89384243 L94.2055823,3.89384243 L88.9494124,3.89384243 C88.9324843,3.77795676 88.8901641,3.66207108 88.8224517,3.54618541 L88.8224517,3.54618541 L87.3497085,1.33608008 C87.2142838,1.10430873 87.0153788,0.963590412 86.7529935,0.913925124 C86.4906083,0.864259835 86.240919,0.905647576 86.0039259,1.03808834 C85.7669327,1.18708421 85.623044,1.38988414 85.5722597,1.64648813 C85.5214755,1.90309212 85.5722597,2.13900224 85.7246125,2.35421849 L85.7246125,2.35421849 L86.7149054,3.91867507 L80.1637371,3.91867507 C79.6897508,3.91867507 79.2919408,4.06353216 78.9703072,4.35324635 C78.6486736,4.64296053 78.4878568,4.98647877 78.4878568,5.38380108 L78.4878568,5.38380108 L78.4878568,7.84223286 C78.4878568,8.1071144 78.5851933,8.33474697 78.7798663,8.52513057 C78.9745392,8.71551418 79.2073004,8.81070598 79.4781497,8.81070598 Z M95.0689145,23.8344557 C95.3566919,23.8344557 95.5936851,23.7392639 95.779894,23.5488803 C95.9661029,23.3584967 96.0592074,23.1391417 96.0592074,22.8908152 C96.0592074,22.6259337 95.9618709,22.3983011 95.767198,22.2079175 C95.572525,22.0175339 95.3397638,21.9223421 95.0689145,21.9223421 L95.0689145,21.9223421 L88.060688,21.9223421 L88.060688,16.558491 L93.5707791,16.558491 C93.8585566,16.558491 94.0955497,16.4674379 94.2817586,16.2853319 C94.4679676,16.1032258 94.561072,15.879732 94.561072,15.6148505 C94.561072,15.349969 94.4637355,15.1223364 94.2690626,14.9319528 C94.0743896,14.7415692 93.8416285,14.6463774 93.5707791,14.6463774 L93.5707791,14.6463774 L88.060688,14.6463774 L88.060688,10.9463134 L94.3833271,10.9463134 C94.6711046,10.9463134 94.9080977,10.8552604 95.0943066,10.6731543 C95.2805156,10.4910482 95.37362,10.2675544 95.37362,10.0026729 C95.37362,9.73779137 95.2762835,9.51015879 95.0816106,9.31977519 C94.8869376,9.12939158 94.6541765,9.03419978 94.3833271,9.03419978 L94.3833271,9.03419978 L81.0524615,9.03419978 C80.7646841,9.03419978 80.5319229,9.12939158 80.354178,9.31977519 C80.1764332,9.51015879 80.0875607,9.73779137 80.0875607,10.0026729 C80.0875607,10.2675544 80.1806652,10.4910482 80.3668741,10.6731543 C80.553083,10.8552604 80.7816121,10.9463134 81.0524615,10.9463134 L81.0524615,10.9463134 L86.0801022,10.9463134 L86.0801022,14.6463774 L81.0524615,14.6463774 C80.7646841,14.6463774 80.5319229,14.7415692 80.354178,14.9319528 C80.1764332,15.1223364 80.0875607,15.349969 80.0875607,15.6148505 C80.0875607,15.879732 80.1806652,16.1032258 80.3668741,16.2853319 C80.553083,16.4674379 80.7816121,16.558491 81.0524615,16.558491 L81.0524615,16.558491 L86.0801022,16.558491 L86.0801022,21.9223421 L79.1988363,21.9223421 C78.927987,21.9223421 78.6994579,22.0175339 78.513249,22.2079175 C78.32704,22.3983011 78.2339356,22.6259337 78.2339356,22.8908152 C78.2339356,23.1391417 78.3312721,23.3584967 78.525945,23.5488803 C78.720618,23.7392639 78.9449151,23.8344557 79.1988363,23.8344557 L79.1988363,23.8344557 L95.0689145,23.8344557 Z" id="句客宝" stroke="#FFFFFF" stroke-width="0.707199981" fill="#FFFFFF" fill-rule="nonzero"></path>
                            <circle id="椭圆形" stroke="#FFFFFF" stroke-width="1.32626505" fill="#FC790D" fill-rule="nonzero" cx="91.9920012" cy="19.2355456" r="1.91571618"></circle>
                        </g>
                    </g>
                </g>
            </g>
        </g>
    </g>
</svg>