<?xml version="1.0" encoding="UTF-8"?>
<svg width="309px" height="185px" viewBox="0 0 309 185" version="1.1" xmlns="http://www.w3.org/2000/svg" xmlns:xlink="http://www.w3.org/1999/xlink">
    <title>success__two_color备份</title>
    <g id="最新版备份" stroke="none" stroke-width="1" fill="none" fill-rule="evenodd">
        <g id="行业案例" transform="translate(0.000000, -426.000000)" fill-rule="nonzero">
            <g id="success__two_color备份" transform="translate(0.000000, 426.000000)">
                <path d="M147.839997,67.1039987 C147.839997,67.1039987 177.436796,106.915198 203.673596,103.075198 C229.910395,99.235198 247.516795,57.9551988 247.516795,57.9551988 L236.956795,51.235199 C236.956795,51.235199 199.353596,107.212798 166.233597,44.5151991 L147.839997,67.1039987 Z" id="路径" fill="#FC790D"></path>
                <path d="M147.839997,67.1039987 C147.839997,67.1039987 177.436796,106.915198 203.673596,103.075198 C229.910395,99.235198 247.516795,57.9551988 247.516795,57.9551988 L236.956795,51.235199 C236.956795,51.235199 199.353596,107.212798 166.233597,44.5151991 L147.839997,67.1039987 Z" id="路径" fill="#000000" opacity="0.08"></path>
                <path d="M171.004797,49.257599 C171.004797,49.257599 179.289596,54.2015989 181.468796,62.6015988 C183.647996,71.0015986 183.187196,92.2847982 166.022397,102.921598 C148.857597,113.558398 130.367997,118.281598 133.247997,130.761597 L123.407998,125.961597 L135.647997,99.561598 L163.583997,83.7599983 L171.004797,49.257599 Z" id="路径" fill="#FC790D"></path>
                <path d="M157.871997,176.179196 C157.871997,176.179196 161.279997,179.059196 164.726397,177.446396 C168.172797,175.833597 170.889597,178.550396 168.412797,181.084796 C165.935997,183.619196 156.124797,184.223996 156.124797,184.223996 L153.350397,178.857596 L157.871997,176.179196 Z" id="路径" fill="#FFA700"></path>
                <path d="M46.5887991,154.118397 C46.5887991,154.118397 42.1343992,153.964797 40.4255992,157.363197 C38.7167992,160.761597 34.9055993,160.310397 35.2703993,156.787197 C35.6351993,153.263997 42.9503991,146.726397 42.9503991,146.726397 L48.451199,149.212797 L46.5887991,154.118397 Z" id="路径" fill="#FFA700"></path>
                <path d="M182.188796,29.5967994 C182.188796,29.5967994 183.148796,36.1343993 182.246396,40.5503992 C182.088574,41.4245837 181.585225,42.1983242 180.850015,42.6968943 C180.114804,43.1954644 179.209738,43.3768171 178.339196,43.1999991 C176.121597,42.7391992 173.251197,41.4527992 172.329597,38.0159992 L170.044797,32.3711994 C169.351254,29.9578105 170.260141,27.3697927 172.310397,25.9199995 C175.871997,23.0399995 181.823996,25.5935995 182.188796,29.5967994 Z" id="路径" fill="#F4A28C"></path>
                <polygon id="路径" fill="#F4A28C" points="174.585597 32.1791994 157.459197 45.3599991 165.398397 54.2783989 174.441597 41.4335992"></polygon>
                <path d="M180.566396,29.9615994 C178.53606,30.1533513 176.490309,30.1082481 174.470397,29.8271994 C175.773349,31.5913086 175.901673,33.96153 174.796797,35.8559993 C173.754288,37.7263398 171.532621,38.5956878 169.497597,37.9295992 L169.142397,29.4623994 C168.955968,26.9995615 170.135589,24.6329477 172.214397,23.2991995 C173.101063,22.7322439 174.021136,22.2193117 174.969597,21.7631996 C177.350396,20.6591996 181.007996,22.0895996 183.100796,20.3231996 C183.53111,19.9687211 184.115385,19.8648961 184.64148,20.0494218 C185.167574,20.2339475 185.558985,20.6799904 185.673596,21.2255996 C186.191996,23.7791995 185.951996,27.8495994 182.553596,29.4527994 C181.924092,29.7317038 181.252478,29.9036629 180.566396,29.9615994 Z" id="路径" fill="#24285B"></path>
                <path d="M175.497597,35.6159993 C175.497597,35.6159993 175.305597,33.0815993 173.414397,33.3887993 C171.523197,33.6959993 171.772797,37.3439993 174.374397,37.5455993 L175.497597,35.6159993 Z" id="路径" fill="#F4A28C"></path>
                <path d="M182.563196,33.7439993 L184.531196,36.1823993 C184.758482,36.4630113 184.826618,36.840307 184.711841,37.1826926 C184.597064,37.5250782 184.31529,37.7850744 183.964796,37.8719992 L181.468796,38.4767992 L182.563196,33.7439993 Z" id="路径" fill="#F4A28C"></path>
                <path d="M174.182397,41.7983992 C173.412,40.5511578 172.997057,39.1171142 172.982397,37.6511993 C172.982397,37.6511993 168.979197,40.1855992 171.590397,45.4751991 L174.182397,41.7983992 Z" id="路径" fill="#CE8172" opacity="0.31"></path>
                <path d="M167.923197,50.687999 C167.923197,50.687999 163.411197,41.6543992 145.171197,41.5677655 C126.931197,41.4815992 82.2623984,65.3471987 85.3343983,117.321598 L123.407998,125.961597 C123.407998,125.961597 130.444797,108.479998 152.899197,101.001598 C175.948797,93.3023981 179.260796,58.3007988 167.923197,50.687999 Z" id="路径" fill="#FFFFFF"></path>
                <path d="M160.233597,43.1999991 C160.233597,43.1999991 117.993598,18.4127996 85.1807983,22.2527996 C52.367999,26.0927995 34.7423993,64.0127987 34.7423993,64.0127987 L44.2079991,70.7327986 C44.2079991,70.7327986 76.8479985,32.8799993 97.4879981,46.2911991 C118.127998,59.7023988 153.849597,87.2159983 160.233597,43.1999991 Z" id="路径" fill="#FC790D"></path>
                <path d="M112.607998,51.081599 C112.607998,51.081599 76.1279985,69.8015986 77.5679985,115.641598 L100.607998,123.561598 C100.607998,123.561598 103.727998,76.7615985 147.167997,72.2015986 C147.167997,72.2015986 163.238397,63.3695987 164.735997,48.835199 C164.735997,48.835199 166.915197,43.4399991 150.556797,38.1407992 L112.607998,51.081599 Z" id="路径" fill="#FC790D"></path>
                <polygon id="路径" fill="#FFFFFF" points="168.508797 46.7327991 167.615997 52.195199 170.707197 52.195199 171.004797 46.3199991"></polygon>
                <path d="M163.862397,62.3999988 C163.862397,62.3999988 155.443197,93.2063981 131.673597,96.0959981 C107.903998,98.985598 80.1791984,92.9759982 80.1791984,92.9759982 C81.7628651,87.00411 84.2042759,81.2934723 87.4271983,76.0223985 C92.8511982,67.0943987 118.233598,75.6959985 118.233598,75.6959985 L163.862397,62.3999988 Z" id="路径" fill="#000000" opacity="0.08"></path>
                <path d="M164.889597,46.6751991 C164.889597,46.6751991 162.575997,52.723199 164.889597,53.6735989 C166.060797,54.1631989 167.510397,53.4239989 168.652797,52.579199 C169.837864,51.685454 170.237859,50.0854765 169.612797,48.739199 L168.652797,46.6271991 L164.889597,46.6751991 Z" id="路径" fill="#FFD200"></path>
                <path d="M167.615997,50.687999 C167.615997,50.687999 169.247997,68.3615986 144.047997,82.2815984 C118.847998,96.2015981 91.3727982,82.2815984 91.3727982,82.2815984 L83.0879983,69.1775986 L100.607998,65.4815987 C100.607998,65.4815987 141.014397,82.5599984 164.371197,49.555199 L167.615997,50.687999 Z" id="路径" fill="#FFD200"></path>
                <path d="M80.7359984,116.726398 C80.7359984,116.726398 74.7743985,130.435197 87.5711983,137.481597 C95.1167981,141.628797 108.431998,143.807997 118.099198,144.892797 C125.641922,145.746298 132.386347,149.985853 136.425597,156.412797 L151.487997,180.239996 L160.233597,174.719997 L151.852797,153.263997 C147.334167,141.662775 138.339066,132.366685 126.892797,127.468797 L123.446398,125.999997 L80.7359984,116.726398 Z" id="路径" fill="#24285B"></path>
                <path d="M109.670398,136.319997 C109.670398,136.319997 110.313598,159.686397 90.1535982,163.199997 C69.9935986,166.713597 44.7167991,154.886397 44.7167991,154.886397 L49.190399,146.879997 C49.190399,146.879997 90.7967982,159.686397 87.9167983,133.766397 L109.670398,136.319997 Z" id="路径" fill="#24285B"></path>
                <polygon id="路径" fill="#FFFFFF" points="160.233597 42.3743992 163.583997 40.6463992 168.508797 46.7327991 164.735997 51.532799"></polygon>
                <polygon id="路径" fill="#FC790D" opacity="0.26" points="34.7423993 64.0415987 33.0335993 67.8719987 41.9903992 74.5919985 44.2079991 70.7615986"></polygon>
                <path d="M45.1871991,91.3439982 L42.3551992,90.8543982 L43.4975991,84.3263983 C43.8986052,81.9772103 42.3299634,79.744253 39.9839992,79.3247984 L29.7599994,77.5391985 C27.4114736,77.1266866 25.172848,78.6950136 24.7583995,81.0431984 L23.6159995,87.5711983 L20.7359996,87.0815983 L21.8783996,80.5535984 C22.5663394,76.6380037 26.2941029,74.0182621 30.2111994,74.6975985 L40.4543992,76.4927985 C42.3361618,76.8208278 44.0104555,77.883167 45.1087469,79.4459816 C46.2070383,81.0087963 46.6393048,82.9439887 46.3103991,84.8255983 L45.1871991,91.3439982 Z" id="路径" fill="#FC790D"></path>
                <path d="M45.1871991,91.3439982 L42.3551992,90.8543982 L43.4975991,84.3263983 C43.8986052,81.9772103 42.3299634,79.744253 39.9839992,79.3247984 L29.7599994,77.5391985 C27.4114736,77.1266866 25.172848,78.6950136 24.7583995,81.0431984 L23.6159995,87.5711983 L20.7359996,87.0815983 L21.8783996,80.5535984 C22.5663394,76.6380037 26.2941029,74.0182621 30.2111994,74.6975985 L40.4543992,76.4927985 C42.3361618,76.8208278 44.0104555,77.883167 45.1087469,79.4459816 C46.2070383,81.0087963 46.6393048,82.9439887 46.3103991,84.8255983 L45.1871991,91.3439982 Z" id="路径" fill="#FFFFFF" opacity="0.3"></path>
                <path d="M33.9743993,68.5727986 C33.9743993,68.5727986 24.8735995,78.3071984 31.2383994,80.8511984 C37.6031993,83.3951983 40.1567992,83.3087983 41.9903992,74.5919985 L33.9743993,68.5727986 Z" id="路径" fill="#F4A28C"></path>
                <rect id="矩形" fill="#FC790D" transform="translate(30.039064, 104.338001) rotate(9.910000) translate(-30.039064, -104.338001) " x="3.27906457" y="85.891601" width="53.5199989" height="36.8927993"></rect>
                <path d="M52.9823989,89.6351982 C52.9823989,89.6351982 62.9375987,126.019197 1.62239997,111.465598 L0.48959999,117.907198 L53.2127989,127.123197 L59.5679988,90.7775982 L52.9823989,89.6351982 Z" id="路径" fill="#000000" opacity="0.08"></path>
                <polygon id="路径" fill="#FC790D" opacity="0.4" points="238.617595 52.319999 240.153595 49.094399 248.476795 55.0079989 247.516795 57.9551988"></polygon>
                <path d="M241.622395,50.140799 C241.622395,50.140799 248.956795,41.0111992 254.716795,43.7279991 C260.476795,46.4447991 259.036795,51.014399 248.476795,55.0079989 L241.622395,50.140799 Z" id="路径" fill="#F4A28C"></path>
                <ellipse id="椭圆形" fill="#FFD200" transform="translate(274.175203, 24.637818) rotate(-17.660000) translate(-274.175203, -24.637818) " cx="274.175203" cy="24.6378176" rx="19.3055996" ry="4.67519991"></ellipse>
                <path d="M255.782395,30.4895994 C255.782395,30.4895994 262.502395,58.2047988 282.998394,52.319999 C303.494394,46.4351991 292.598394,18.7679996 292.598394,18.7679996 L255.782395,30.4895994 Z" id="路径" fill="#FFD200"></path>
                <ellipse id="椭圆形" fill="#000000" opacity="0.08" transform="translate(274.175203, 24.637818) rotate(-17.660000) translate(-274.175203, -24.637818) " cx="274.175203" cy="24.6378176" rx="19.3055996" ry="4.67519991"></ellipse>
                <rect id="矩形" fill="#FFD200" transform="translate(284.218252, 57.121574) rotate(-17.660000) translate(-284.218252, -57.121574) " x="281.779852" y="47.612774" width="4.8767999" height="19.0175996"></rect>
                <rect id="矩形" fill="#24285B" transform="translate(288.787430, 70.121052) rotate(-17.660000) translate(-288.787430, -70.121052) " x="278.62583" y="62.0186524" width="20.3231996" height="16.2047997"></rect>
                <rect id="矩形" fill="#FFD200" transform="translate(287.436234, 70.944959) rotate(-17.525568) translate(-287.436234, -70.944959) " x="282.266929" y="66.8229039" width="10.3386106" height="8.24410943"></rect>
                <rect id="矩形" fill="#FFFFFF" opacity="0.3" transform="translate(287.436234, 70.944959) rotate(-17.525568) translate(-287.436234, -70.944959) " x="282.266929" y="66.8229039" width="10.3386106" height="8.24410943"></rect>
                <path d="M273.599995,51.839999 L262.463995,55.3823989 C257.085424,57.0359043 251.37845,54.0498907 249.67026,48.6884364 C247.962069,43.3269821 250.889813,37.5898975 256.233595,35.8271993 L260.303995,34.5311993 L261.263995,37.6319993 L257.193595,38.9279992 C253.503449,40.1023775 251.464017,44.0458533 252.638395,47.7359991 C253.812773,51.4261448 257.756249,53.4655772 261.446395,52.291199 L272.582395,48.739199 L273.599995,51.839999 Z" id="路径" fill="#FFD200"></path>
                <path d="M289.967994,46.5695991 L301.103994,43.0271991 C306.506664,41.3067217 309.491671,35.5322696 307.771194,30.1295994 C306.050716,24.7269293 300.276264,21.7419222 294.873594,23.4623995 L290.803194,24.7583995 L291.839994,27.8399994 L295.910394,26.5439995 C298.2975,25.7843099 300.908566,26.3558336 302.760029,28.043283 C304.611493,29.7307324 305.422072,32.2777439 304.886429,34.7248829 C304.350787,37.1720219 302.5503,39.1475097 300.163194,39.9071992 L288.959994,43.4783991 L289.967994,46.5695991 Z" id="路径" fill="#FFD200"></path>
                <path d="M284.649594,34.3487993 C284.908794,38.1887992 284.649594,44.3615991 280.732794,48.239999 C280.732794,48.239999 290.735994,49.199999 292.732794,34.5215993 C292.909418,33.1693424 292.382098,31.8206998 291.33508,30.9468874 C290.288062,30.073075 288.866842,29.7955197 287.567994,30.2111994 L287.423994,30.2111994 C285.646893,30.7738881 284.495425,32.4911288 284.649594,34.3487993 Z" id="路径" fill="#FFFFFF" opacity="0.3"></path>
                <rect id="矩形" fill="#C9C9C9" transform="translate(254.903351, 13.153428) rotate(-68.500000) translate(-254.903351, -13.153428) " x="253.943352" y="8.10862781" width="1.91999996" height="10.0895998"></rect>
                <rect id="矩形" fill="#C9C9C9" transform="translate(262.323568, 5.438490) rotate(-25.850000) translate(-262.323568, -5.438490) " x="261.363568" y="0.393690098" width="1.91999996" height="10.0895998"></rect>
                <rect id="矩形" fill="#C9C9C9" transform="translate(273.495883, 7.091616) rotate(-70.655671) translate(-273.495883, -7.091616) " x="268.470036" y="6.13522265" width="10.0516926" height="1.91278641"></rect>
            </g>
        </g>
    </g>
</svg>