<?xml version="1.0" encoding="UTF-8"?>
<svg width="291px" height="199px" viewBox="0 0 291 199" version="1.1" xmlns="http://www.w3.org/2000/svg" xmlns:xlink="http://www.w3.org/1999/xlink">
    <title>hero_employee__two_color</title>
    <g id="最新版备份" stroke="none" stroke-width="1" fill="none" fill-rule="evenodd">
        <g id="行业案例" transform="translate(-1147.000000, -412.000000)">
            <g id="hero_employee__two_color" transform="translate(1149.000000, 412.000000)">
                <path d="M116.643996,70.9895973 L96.2367963,80.018397 C81.0140385,86.7345792 63.2165129,83.2186713 51.691198,71.2183973 L31.6007988,50.2919981 L23.9447991,55.5719979 L40.8407985,81.0919969 C55.4104032,103.07332 81.39465,114.624161 107.474396,110.712796 L137.139195,106.268796 L116.643996,70.9895973 Z" id="路径" fill="#FC790D" fill-rule="nonzero"></path>
                <path d="M116.643996,70.9895973 L96.2367963,80.018397 C81.0140385,86.7345792 63.2165129,83.2186713 51.691198,71.2183973 L31.6007988,50.2919981 L23.9447991,55.5719979 L40.8407985,81.0919969 C55.4104032,103.07332 81.39465,114.624161 107.474396,110.712796 L137.139195,106.268796 L116.643996,70.9895973 Z" id="路径" fill="#FFFFFF" fill-rule="nonzero" opacity="0.46"></path>
                <path d="M227.453591,88.3959966 C227.453591,88.3959966 249.453591,80.5551969 265.29359,98.0759963 C281.133589,115.596796 288.173589,147.355994 288.173589,147.355994 C288.173589,147.355994 238.893591,124.475995 213.373592,147.355994 C187.853593,170.235994 144.883195,145.199994 144.883195,145.199994 L130.556795,96.2807963 L120.119995,75.5127971 L144.883195,64.7679975 L177.733593,65.3575975 L190.959993,79.199997 L204.159992,91.1239965 L227.453591,88.3959966 Z" id="路径" fill="#FFD200" fill-rule="nonzero"></path>
                <path d="M227.453591,88.3959966 C227.453591,88.3959966 249.453591,80.5551969 265.29359,98.0759963 C281.133589,115.596796 288.173589,147.355994 288.173589,147.355994 C288.173589,147.355994 238.893591,124.475995 213.373592,147.355994 C187.853593,170.235994 144.883195,145.199994 144.883195,145.199994 L130.556795,96.2807963 L120.119995,75.5127971 L144.883195,64.7679975 L177.733593,65.3575975 L190.959993,79.199997 L204.159992,91.1239965 L227.453591,88.3959966 Z" id="路径" fill="#000000" fill-rule="nonzero" opacity="0.08"></path>
                <path d="M175.427993,185.407193 C175.427993,185.407193 179.062393,188.601593 177.874393,192.552793 C176.686393,196.503993 180.039193,198.994392 182.371193,195.931993 C184.703193,192.869593 183.787993,182.256793 183.787993,182.256793 L176.651193,179.801593 L175.427993,185.407193 Z" id="路径" fill="#FC790D" fill-rule="nonzero"></path>
                <path d="M237.177591,189.657593 C237.177591,189.657593 241.885591,190.792793 242.677591,194.849593 C243.469591,198.906392 247.587991,199.531192 248.230391,195.729593 C248.872791,191.927993 243.099991,182.969593 243.099991,182.969593 L235.646391,184.131193 L237.177591,189.657593 Z" id="路径" fill="#FC790D" fill-rule="nonzero"></path>
                <path d="M133.883195,147.241594 L166.249594,170.332794 C182.98634,182.273673 202.822142,189.113815 223.361592,190.027193 L236.843191,190.625593 L236.843191,183.286393 L215.124792,175.999993 C206.837832,173.201896 199.325532,168.493143 193.195193,162.254394 L171.723193,140.395195 L133.883195,147.241594 Z" id="路径" fill="#24285B" fill-rule="nonzero"></path>
                <path d="M133.883195,147.241594 L166.249594,170.332794 C182.98634,182.273673 202.822142,189.113815 223.361592,190.027193 L236.843191,190.625593 L236.843191,183.286393 L215.124792,175.999993 C206.837832,173.201896 199.325532,168.493143 193.195193,162.254394 L171.723193,140.395195 L133.883195,147.241594 Z" id="路径" fill="#000000" fill-rule="nonzero" opacity="0.08"></path>
                <path d="M111.654396,45.4519983 C111.654396,45.4519983 109.401596,50.2479981 109.014396,53.847198 C108.935861,54.5537184 109.145573,55.2620549 109.596085,55.8119441 C110.046597,56.3618334 110.699832,56.7068013 111.407996,56.7687978 C113.686584,57.1323096 115.967475,56.1311947 117.242396,54.2079979 L120.322395,50.4063981 C121.444136,48.7106557 121.362775,46.4891421 120.119995,44.8799983 C118.060796,41.8703984 112.877596,42.4599984 111.654396,45.4519983 Z" id="路径" fill="#F4A28C" fill-rule="nonzero"></path>
                <polygon id="路径" fill="#F4A28C" fill-rule="nonzero" points="118.104796 51.0311981 121.915195 67.9623974 112.437596 69.4055974 113.467196 56.5047979"></polygon>
                <path d="M112.815996,46.1119983 C114.329051,46.7343802 115.908813,47.180257 117.523996,47.4407982 C116.106288,48.4859822 115.448482,50.2759062 115.851996,51.990398 C116.209743,53.6754224 117.711259,54.8707326 119.433595,54.8415979 L121.703995,48.3999982 C122.430905,46.5544082 122.093528,44.4593001 120.823995,42.9351984 C120.27635,42.2914729 119.688508,41.6830566 119.063995,41.1135984 C117.497596,39.6967985 114.355996,39.9343985 113.159196,38.0863986 C112.913806,37.7094011 112.488043,37.4894606 112.03858,37.5075113 C111.589117,37.5255621 111.182363,37.778937 110.967996,38.1743986 C109.964796,40.0135985 109.207996,43.1991984 111.425596,45.2143983 C111.837527,45.586748 112.307081,45.8898775 112.815996,46.1119983 L112.815996,46.1119983 Z" id="路径" fill="#24285B" fill-rule="nonzero"></path>
                <path d="M115.376796,51.647198 C115.376796,51.647198 116.115996,49.7463981 117.497596,50.4239981 C118.879195,51.1015981 117.831996,53.855998 115.737596,53.398398 L115.376796,51.647198 Z" id="路径" fill="#F4A28C" fill-rule="nonzero"></path>
                <path d="M110.395996,48.5495982 L108.301596,49.9487981 C108.074316,50.1208866 107.94448,50.3924129 107.953221,50.6773593 C107.961962,50.9623056 108.108195,51.2253635 108.345596,51.3831981 L110.105596,52.439198 L110.395996,48.5495982 Z" id="路径" fill="#F4A28C" fill-rule="nonzero"></path>
                <path d="M113.643196,56.9007978 C114.86427,56.7732382 116.020964,56.2897524 116.969596,55.5103979 C116.969596,55.5103979 117.180796,58.7047978 113.291196,61.3183977 L113.643196,56.9007978 Z" id="路径" fill="#CE8172" fill-rule="nonzero" opacity="0.31"></path>
                <path d="M112.437596,69.4055974 L121.915195,67.9711974 C121.915195,67.9711974 170.253594,54.3399979 177.293593,83.3359968 C184.333593,112.331996 183.506393,131.480795 183.506393,131.480795 L150.893594,147.320794 C150.893594,147.320794 61.1335977,110.879996 112.437596,69.4055974 Z" id="路径" fill="#FC790D" fill-rule="nonzero"></path>
                <rect id="矩形" fill="#24285B" fill-rule="nonzero" transform="translate(118.889653, 114.922647) rotate(-15.170000) translate(-118.889653, -114.922647) " x="106.085653" y="97.1862478" width="25.607999" height="35.4727987"></rect>
                <rect id="矩形" fill="#FFD200" fill-rule="nonzero" transform="translate(113.100245, 98.112400) rotate(-15.170000) translate(-113.100245, -98.112400) " x="108.682645" y="95.7143996" width="8.83519966" height="4.79599982"></rect>
                <path d="M133.495995,87.5335967 C133.495995,87.5335967 128.215995,100.619196 148.033594,104.843196 C167.851194,109.067196 167.833594,122.443195 154.853594,123.226395 C141.873595,124.009595 122.707195,116.987196 123.050395,132.175995 C123.050395,132.175995 138.133595,142.515995 150.893594,147.355994 L183.506393,131.515995 L183.506393,129.491995 L185.213593,101.199996 L168.273594,84.9199968 L133.495995,87.5335967 Z" id="路径" fill="#000000" fill-rule="nonzero" opacity="0.08"></path>
                <path d="M131.577595,79.076797 C132.818395,70.0391973 141.319195,63.8527976 150.383194,64.8823975 C162.817594,66.2903975 181.667193,71.8519973 190.396793,91.7927965 C204.036792,122.962395 195.676793,142.410395 130.556795,123.226395 L132.316795,115.922396 C132.316795,115.922396 176.316793,121.202395 173.676793,107.324796 C171.450393,95.6471964 128.717595,99.9943962 131.577595,79.076797 Z" id="路径" fill="#FC790D" fill-rule="nonzero"></path>
                <path d="M131.577595,79.076797 C132.818395,70.0391973 141.319195,63.8527976 150.383194,64.8823975 C162.817594,66.2903975 181.667193,71.8519973 190.396793,91.7927965 C204.036792,122.962395 195.676793,142.410395 130.556795,123.226395 L132.316795,115.922396 C132.316795,115.922396 176.316793,121.202395 173.676793,107.324796 C171.450393,95.6471964 128.717595,99.9943962 131.577595,79.076797 Z" id="路径" fill="#FFFFFF" fill-rule="nonzero" opacity="0.46"></path>
                <path d="M118.615196,63.4831976 C113.301346,64.6117894 108.389247,67.1499099 104.394396,70.8311973 C102.247223,72.7488506 100.549547,75.1165826 99.4223962,77.7655971 C96.3335963,85.7559967 113.502396,87.8063967 134.191195,79.736797 C154.879994,71.6671973 164.111194,65.1639975 180.831193,75.8999971 C197.551193,86.6359967 204.591192,98.9559962 227.471191,88.3959966 C227.471191,88.3959966 200.191192,88.3959966 191.391193,67.7335974 C184.060793,50.5383981 135.000795,59.8399977 118.615196,63.4831976 Z" id="路径" fill="#FFD200" fill-rule="nonzero"></path>
                <path d="M132.316795,115.922396 C132.316795,115.922396 126.253595,109.999996 122.073595,110.879996 C117.893596,111.759996 120.313595,120.445595 130.556795,123.270395 L132.316795,115.922396 Z" id="路径" fill="#F4A28C" fill-rule="nonzero"></path>
                <path d="M183.506393,131.480795 C183.506393,131.480795 120.278395,139.400795 123.050395,155.240794 C125.822395,171.080794 175.973593,186.920793 175.973593,186.920793 L179.933593,179.000793 L147.373594,155.680794 C147.373594,155.680794 202.479192,168.845594 183.506393,131.480795 Z" id="路径" fill="#24285B" fill-rule="nonzero"></path>
                <path d="M23.9447991,55.5367979 C23.9447991,55.5367979 9.86479963,53.662398 13.6839995,49.7111981 C17.5031993,45.7599983 31.6007988,50.2919981 31.6007988,50.2919981 L23.9447991,55.5367979 Z" id="路径" fill="#F4A28C" fill-rule="nonzero"></path>
                <path d="M8.58879967,3.81039986 L36.0799986,3.81039986 C36.0799986,3.81039986 38.9487985,25.519999 22.3167992,25.519999 C22.3167992,25.519999 6.43279976,26.039199 8.58879967,3.81039986 Z" id="路径" fill="#FFD200" fill-rule="nonzero"></path>
                <ellipse id="椭圆形" fill="#FFD200" fill-rule="nonzero" cx="22.3343992" cy="4.07439985" rx="13.7455995" ry="3.92479985"></ellipse>
                <ellipse id="椭圆形" fill="#000000" fill-rule="nonzero" opacity="0.08" cx="22.3343992" cy="4.07439985" rx="13.7455995" ry="3.92479985"></ellipse>
                <rect id="矩形" fill="#24285B" fill-rule="nonzero" x="14.9599994" y="34.7599987" width="13.7895995" height="13.7895995"></rect>
                <rect id="矩形" fill="#FFD200" fill-rule="nonzero" x="21.0143992" y="21.2343992" width="2.93919989" height="13.5343995"></rect>
                <path d="M10.5599996,11.7303996 L5.64959979,11.7303996 C2.68979547,11.7303996 0.290399989,14.129795 0.290399989,17.0895994 L0.290399989,17.0895994 C0.295254457,20.0459665 2.69322868,22.4399991 5.64959979,22.4399991 L19.6503993,22.4399991" id="路径" stroke="#FFD200" stroke-width="2.6399999"></path>
                <path d="M34.1087987,11.7303996 L39.0191985,11.7303996 C41.9790028,11.7303996 44.3783983,14.129795 44.3783983,17.0895994 L44.3783983,17.0895994 C44.3735438,20.0459665 41.9755696,22.4399991 39.0191985,22.4399991 L25.0183991,22.4399991" id="路径" stroke="#FFD200" stroke-width="2.6399999"></path>
                <circle id="椭圆形" fill="#FFFFFF" fill-rule="nonzero" opacity="0.46" cx="17.7495993" cy="15.6199994" r="4.72559982"></circle>
            </g>
        </g>
    </g>
</svg>