<?xml version="1.0" encoding="UTF-8"?>
<svg width="113px" height="84px" viewBox="0 0 113 84" version="1.1" xmlns="http://www.w3.org/2000/svg" xmlns:xlink="http://www.w3.org/1999/xlink">
    <title>5</title>
    <g id="最新版备份" stroke="none" stroke-width="1" fill="none" fill-rule="evenodd">
        <g id="手机端-二版备份" transform="translate(-63.000000, -1870.000000)">
            <g id="亮点1" transform="translate(0.000000, 1787.000000)">
                <g id="编组-25" transform="translate(48.000000, 68.000000)">
                    <g id="5" transform="translate(71.000000, 57.000000) scale(-1, 1) translate(-71.000000, -57.000000) translate(15.000000, 15.000000)">
                        <path d="M21.2734511,20.8552751 C11.6788202,26.6963579 5.9949716,37.4183914 6.88819561,48.6221637 C7.35989817,54.3394664 9.48757783,59.85939 15.1112091,62.8936753 C30.1086744,70.9226551 95.5816594,71.0731985 105.273307,56.8719404 C114.964955,42.6706824 111.358605,22.4677619 90.2858782,14.0507147 C72.0166036,6.73430683 46.0428539,5.77082925 21.2734511,20.8552751 Z" id="路径" fill="#E6E6E6" fill-rule="nonzero" opacity="0.3"></path>
                        <rect id="矩形" fill="#C9C9C9" fill-rule="nonzero" opacity="0.58" transform="translate(85.255092, 21.809973) rotate(-24.190000) translate(-85.255092, -21.809973) " x="81.4396535" y="16.5526636" width="7.63087624" height="10.5146182"></rect>
                        <path d="M44.3433865,26.9874084 L36.5853847,30.4197973 C30.7983005,32.9730215 24.0323923,31.6364138 19.6509281,27.0743891 L12.0133611,19.1190082 L9.10285588,21.1262532 L15.5260397,30.8279371 C21.0648213,39.1843577 30.9429937,43.5755263 40.8574711,42.0885813 L52.1348423,40.3991502 L44.3433865,26.9874084 Z" id="路径" fill="#FC790D" fill-rule="nonzero"></path>
                        <path d="M44.3433865,26.9874084 L36.5853847,30.4197973 C30.7983005,32.9730215 24.0323923,31.6364138 19.6509281,27.0743891 L12.0133611,19.1190082 L9.10285588,21.1262532 L15.5260397,30.8279371 C21.0648213,39.1843577 30.9429937,43.5755263 40.8574711,42.0885813 L52.1348423,40.3991502 L44.3433865,26.9874084 Z" id="路径" fill="#FFFFFF" fill-rule="nonzero" opacity="0.46"></path>
                        <path d="M86.4687673,33.604626 C86.4687673,33.604626 94.832288,30.6238672 100.854023,37.2845751 C106.875758,43.9452829 109.552084,56.0188613 109.552084,56.0188613 C109.552084,56.0188613 90.8177981,47.3207999 81.1161141,56.0188613 C71.4144302,64.7169228 55.0788016,55.1992363 55.0788016,55.1992363 L49.632477,36.6021118 L45.6648228,28.7069483 L55.0788016,24.6222048 L67.5672107,24.8463472 L72.5953593,30.1086744 L77.6134717,34.6417025 L86.4687673,33.604626 Z" id="路径" fill="#FFD200" fill-rule="nonzero"></path>
                        <path d="M86.4687673,33.604626 C86.4687673,33.604626 94.832288,30.6238672 100.854023,37.2845751 C106.875758,43.9452829 109.552084,56.0188613 109.552084,56.0188613 C109.552084,56.0188613 90.8177981,47.3207999 81.1161141,56.0188613 C71.4144302,64.7169228 55.0788016,55.1992363 55.0788016,55.1992363 L49.632477,36.6021118 L45.6648228,28.7069483 L55.0788016,24.6222048 L67.5672107,24.8463472 L72.5953593,30.1086744 L77.6134717,34.6417025 L86.4687673,33.604626 Z" id="路径" fill="#000000" fill-rule="nonzero" opacity="0.08"></path>
                        <path d="M66.6907137,70.4844067 C66.6907137,70.4844067 68.0723673,71.6987899 67.6207372,73.2008782 C67.1691071,74.7029665 68.4437076,75.649717 69.3302408,74.4855149 C70.216774,73.3213129 69.8688515,69.2867505 69.8688515,69.2867505 L67.1557254,68.3533816 L66.6907137,70.4844067 Z" id="路径" fill="#FC790D" fill-rule="nonzero"></path>
                        <path d="M90.1654435,72.1002388 C90.1654435,72.1002388 91.9552369,72.5317965 92.2563236,74.0740297 C92.5574104,75.6162629 94.1230614,75.8537869 94.3672762,74.4085705 C94.611491,72.9633542 92.4169032,69.5577286 92.4169032,69.5577286 L89.5833424,69.9993225 L90.1654435,72.1002388 Z" id="路径" fill="#FC790D" fill-rule="nonzero"></path>
                        <path d="M50.8970413,55.975371 L63.2014529,64.7537223 C69.564095,69.2931675 77.1048743,71.8935163 84.9131525,72.240746 L90.0383179,72.4682338 L90.0383179,69.6781633 L81.7818504,66.9081652 C78.6314792,65.8444405 75.775603,64.0543608 73.445093,61.6826375 L65.2822968,53.3726434 L50.8970413,55.975371 Z" id="路径" fill="#24285B" fill-rule="nonzero"></path>
                        <path d="M50.8970413,55.975371 L63.2014529,64.7537223 C69.564095,69.2931675 77.1048743,71.8935163 84.9131525,72.240746 L90.0383179,72.4682338 L90.0383179,69.6781633 L81.7818504,66.9081652 C78.6314792,65.8444405 75.775603,64.0543608 73.445093,61.6826375 L65.2822968,53.3726434 L50.8970413,55.975371 Z" id="路径" fill="#000000" fill-rule="nonzero" opacity="0.08"></path>
                        <rect id="矩形" fill="#E6E6E6" fill-rule="nonzero" opacity="0.75" transform="translate(107.046895, 73.422343) rotate(11.170000) translate(-107.046895, -73.422343) " x="103.146149" y="68.046272" width="7.80149207" height="10.7521422"></rect>
                        <rect id="矩形" fill="#E6E6E6" fill-rule="nonzero" opacity="0.75" transform="translate(56.873640, 77.988978) rotate(-30.000000) translate(-56.873640, -77.988978) " x="53.4914324" y="73.3288239" width="6.7644155" height="9.32030742"></rect>
                        <path d="M42.44654,17.2790337 C42.44654,17.2790337 41.5901155,19.1022812 41.4429175,20.4705532 C41.4130617,20.739144 41.492786,21.0084252 41.6640525,21.2174711 C41.835319,21.4265171 42.0836532,21.5576601 42.3528686,21.5812287 C43.219097,21.7194214 44.0862005,21.3388374 44.5708743,20.6077149 L45.7417672,19.1624985 C46.168208,18.517845 46.1372778,17.6733143 45.6648228,17.0615821 C44.8819972,15.9174525 42.9115518,16.1415949 42.44654,17.2790337 Z" id="路径" fill="#F4A28C" fill-rule="nonzero"></path>
                        <polygon id="路径" fill="#F4A28C" fill-rule="nonzero" points="44.8987243 19.4000225 46.3472861 25.836588 42.7442814 26.385235 43.1356941 21.4808664"></polygon>
                        <path d="M42.8881339,17.5299393 C43.4633371,17.766544 44.0638995,17.9360486 44.6779273,18.0350959 C44.1389714,18.4324331 43.8889,19.1128907 44.0422998,19.764672 C44.1783011,20.4052509 44.7491176,20.8596601 45.4038809,20.8485843 L46.2669963,18.3997454 C46.5433381,17.6981259 46.415081,16.9016495 45.9324554,16.3222469 C45.7242624,16.0775282 45.5007884,15.8462326 45.2633738,15.6297474 C44.6678911,15.0911367 43.4735804,15.1814627 43.0186048,14.478927 C42.9253176,14.3356076 42.7634595,14.251995 42.5925916,14.2588572 C42.4217237,14.2657193 42.2670919,14.3620424 42.1855982,14.512381 C41.8042216,15.2115714 41.5165165,16.4226092 42.3595594,17.1887076 C42.5161593,17.3302601 42.6946648,17.4454978 42.8881339,17.5299393 L42.8881339,17.5299393 Z" id="路径" fill="#24285B" fill-rule="nonzero"></path>
                        <path d="M43.8616477,19.6342011 C43.8616477,19.6342011 44.142662,18.9115929 44.6678911,19.1691893 C45.1931202,19.4267858 44.7950166,20.4738986 43.9988095,20.2999373 L43.8616477,19.6342011 Z" id="路径" fill="#F4A28C" fill-rule="nonzero"></path>
                        <path d="M41.9681466,18.4566174 L41.1719395,18.9885373 C41.0855366,19.0539585 41.0361784,19.1571819 41.0395012,19.2655071 C41.0428241,19.3738323 41.0984163,19.4738365 41.1886665,19.5338388 L41.8577482,19.9352878 L41.9681466,18.4566174 Z" id="路径" fill="#F4A28C" fill-rule="nonzero"></path>
                        <path d="M43.2026023,21.6314098 C43.6668061,21.5829167 44.1065349,21.3991148 44.4671666,21.1028353 C44.4671666,21.1028353 44.5474564,22.3172185 43.068786,23.3108048 L43.2026023,21.6314098 Z" id="路径" fill="#CE8172" fill-rule="nonzero" opacity="0.31"></path>
                        <path d="M42.7442814,26.385235 L46.3472861,25.8399334 C46.3472861,25.8399334 64.7236136,20.657896 67.3999402,31.6810162 C70.0762669,42.7041365 69.7617985,49.9837448 69.7617985,49.9837448 L57.3637155,56.0054797 C57.3637155,56.0054797 23.2405512,42.1521441 42.7442814,26.385235 Z" id="路径" fill="#FC790D" fill-rule="nonzero"></path>
                        <rect id="矩形" fill="#24285B" fill-rule="nonzero" transform="translate(45.197096, 43.688999) rotate(-15.170000) translate(-45.197096, -43.688999) " x="40.3295266" y="36.9463282" width="9.73513804" height="13.4853407"></rect>
                        <rect id="矩形" fill="#FFD200" fill-rule="nonzero" transform="translate(42.996194, 37.298414) rotate(-15.170000) translate(-42.996194, -37.298414) " x="41.3167991" y="36.3867904" width="3.35878989" height="1.8232475"></rect>
                        <path d="M50.7498433,33.276776 C50.7498433,33.276776 48.7425984,38.2513981 56.2764578,39.857194 C63.8103172,41.46299 63.8036264,46.5480105 58.8691492,46.8457519 C53.934672,47.1434932 46.6483728,44.4738574 46.7788437,50.2480321 C46.7788437,50.2480321 52.5128735,54.1788868 57.3637155,56.0188613 L69.7617985,49.9971265 L69.7617985,49.2276826 L70.4108077,38.472195 L63.9708968,32.2831897 L50.7498433,33.276776 Z" id="路径" fill="#000000" fill-rule="nonzero" opacity="0.08"></path>
                        <path d="M50.0205443,30.0618386 C50.4922469,26.6261044 53.7239113,24.2742823 57.1696818,24.6656951 C61.8967437,25.2009604 69.0626081,27.3152585 72.3812531,34.8959536 C77.5666359,46.7453896 74.3884981,54.1387419 49.632477,46.8457519 L50.3015586,44.069063 C50.3015586,44.069063 67.0285999,46.076308 66.0249774,40.8005992 C65.1785892,36.3612424 48.9332866,38.0138741 50.0205443,30.0618386 Z" id="路径" fill="#FC790D" fill-rule="nonzero"></path>
                        <path d="M50.0205443,30.0618386 C50.4922469,26.6261044 53.7239113,24.2742823 57.1696818,24.6656951 C61.8967437,25.2009604 69.0626081,27.3152585 72.3812531,34.8959536 C77.5666359,46.7453896 74.3884981,54.1387419 49.632477,46.8457519 L50.3015586,44.069063 C50.3015586,44.069063 67.0285999,46.076308 66.0249774,40.8005992 C65.1785892,36.3612424 48.9332866,38.0138741 50.0205443,30.0618386 Z" id="路径" fill="#FFFFFF" fill-rule="nonzero" opacity="0.46"></path>
                        <path d="M45.092758,24.1337752 C43.0726448,24.5628207 41.205261,25.5277127 39.6865782,26.9271911 C38.8703088,27.6562063 38.2249202,28.5563234 37.7964225,29.5633728 C36.6221842,32.6010035 43.1490758,33.3804836 51.0141306,30.3127443 C58.8791854,27.2450049 62.3885187,24.7727482 68.7447944,28.8541463 C75.1010701,32.9355443 77.7773967,37.6191159 86.4754581,33.604626 C86.4754581,33.604626 76.1046925,33.604626 72.7592843,25.7496074 C69.9725592,19.2126796 51.3219081,22.7487762 45.092758,24.1337752 Z" id="路径" fill="#FFD200" fill-rule="nonzero"></path>
                        <path d="M50.3015586,44.069063 C50.3015586,44.069063 47.9965723,41.8176033 46.4075034,42.1521441 C44.8184345,42.4866849 45.7384217,45.7886029 49.632477,46.8624789 L50.3015586,44.069063 Z" id="路径" fill="#F4A28C" fill-rule="nonzero"></path>
                        <path d="M69.7617985,49.9837448 C69.7617985,49.9837448 45.7250401,52.9946123 46.7788437,59.0163471 C47.8326473,65.038082 66.898129,71.0598169 66.898129,71.0598169 L68.4035627,68.0489494 L56.0255522,59.1836176 C56.0255522,59.1836176 76.9744987,64.1883483 69.7617985,49.9837448 Z" id="路径" fill="#24285B" fill-rule="nonzero"></path>
                        <path d="M9.10285588,21.1128715 C9.10285588,21.1128715 3.75020266,20.4002996 5.20210985,18.8982113 C6.65401703,17.396123 12.0133611,19.1190082 12.0133611,19.1190082 L9.10285588,21.1128715 Z" id="路径" fill="#F4A28C" fill-rule="nonzero"></path>
                        <path d="M3.26511846,1.44856178 L13.7161739,1.44856178 C13.7161739,1.44856178 14.806777,9.70168396 8.48395535,9.70168396 C8.48395535,9.70168396 2.44549344,9.89906305 3.26511846,1.44856178 Z" id="路径" fill="#FFD200" fill-rule="nonzero"></path>
                        <ellipse id="椭圆形" fill="#FFD200" fill-rule="nonzero" cx="8.49064617" cy="1.54892402" rx="5.2255277" ry="1.49205208"></ellipse>
                        <ellipse id="椭圆形" fill="#000000" fill-rule="nonzero" opacity="0.08" cx="8.49064617" cy="1.54892402" rx="5.2255277" ry="1.49205208"></ellipse>
                        <rect id="矩形" fill="#24285B" fill-rule="nonzero" x="5.68719404" y="13.2143626" width="5.24225475" height="5.24225475"></rect>
                        <rect id="矩形" fill="#FFD200" fill-rule="nonzero" x="7.98883493" y="8.07247013" width="1.11736636" height="5.14523791"></rect>
                        <path d="M4.01448991,4.45942921 L2.1477521,4.45942921 C1.02255276,4.45942921 0.110398473,5.3715835 0.110398473,6.49678284 L0.110398473,6.49678284 C0.112243947,7.6206755 1.02385793,8.53079107 2.1477521,8.53079107 L7.47029665,8.53079107" id="路径" stroke="#FFD200" stroke-width="1.00362248"></path>
                        <path d="M12.9668024,4.45942921 L14.8335402,4.45942921 C15.9587396,4.45942921 16.8708939,5.3715835 16.8708939,6.49678284 L16.8708939,6.49678284 C16.8690484,7.6206755 15.9574344,8.53079107 14.8335402,8.53079107 L9.51099569,8.53079107" id="路径" stroke="#FFD200" stroke-width="1.00362248"></path>
                        <circle id="椭圆形" fill="#FFFFFF" fill-rule="nonzero" opacity="0.46" cx="6.74768846" cy="5.93809966" r="1.79648424"></circle>
                    </g>
                </g>
            </g>
        </g>
    </g>
</svg>