<?xml version="1.0" encoding="UTF-8"?>
<svg width="244px" height="190px" viewBox="0 0 244 190" version="1.1" xmlns="http://www.w3.org/2000/svg" xmlns:xlink="http://www.w3.org/1999/xlink">
    <title>2</title>
    <g id="最新版备份" stroke="none" stroke-width="1" fill="none" fill-rule="evenodd">
        <g id="行业案例" transform="translate(-599.000000, -1882.000000)">
            <g id="3备份-5" transform="translate(0.000000, 1612.000000)">
                <g id="编组-19备份" transform="translate(537.000000, 235.000000)">
                    <g id="2" transform="translate(62.000000, 35.000000)">
                        <g id="hero_employee__two_color" transform="translate(121.500000, 91.000000) scale(-1, 1) translate(-121.500000, -91.000000) ">
                            <path d="M46.1663392,45.2588393 C25.3446596,57.9347991 13.0099198,81.2030987 14.9483398,105.516838 C15.9719997,117.924178 20.5893597,129.903178 32.7934195,136.487998 C65.3399989,153.911997 207.425457,154.238697 228.457676,123.419998 C249.489896,92.6012985 241.663616,48.7581592 195.932877,30.4919995 C156.286017,14.6143798 99.9193784,12.5234998 46.1663392,45.2588393 Z" id="路径" fill="#E6E6E6" fill-rule="nonzero" opacity="0.3"></path>
                            <rect id="矩形" fill="#C9C9C9" fill-rule="nonzero" opacity="0.58" transform="translate(185.015372, 47.330665) rotate(-24.190000) translate(-185.015372, -47.330665) " x="176.735342" y="35.9215756" width="16.5600597" height="22.8181796"></rect>
                            <path d="M96.2312984,58.566419 L79.3953587,66.0151789 C66.8365832,71.5560294 52.1536243,68.6554053 42.6452393,58.755179 L26.0706596,41.4908993 L19.7544597,45.8468993 L33.6936595,66.9008989 C45.7135837,85.0354904 67.1505877,94.5649352 88.6663786,91.3380585 L113.139838,87.6717586 L96.2312984,58.566419 Z" id="路径" fill="#FC790D" fill-rule="nonzero"></path>
                            <path d="M96.2312984,58.566419 L79.3953587,66.0151789 C66.8365832,71.5560294 52.1536243,68.6554053 42.6452393,58.755179 L26.0706596,41.4908993 L19.7544597,45.8468993 L33.6936595,66.9008989 C45.7135837,85.0354904 67.1505877,94.5649352 88.6663786,91.3380585 L113.139838,87.6717586 L96.2312984,58.566419 Z" id="路径" fill="#FFFFFF" fill-rule="nonzero" opacity="0.46"></path>
                            <path d="M187.649217,72.9266988 C187.649217,72.9266988 205.799217,66.4580389 218.867216,80.9126987 C231.935216,95.3673584 237.743216,121.568698 237.743216,121.568698 C237.743216,121.568698 197.087217,102.692698 176.033217,121.568698 C154.979217,140.444698 119.528638,119.789998 119.528638,119.789998 L107.709358,79.4316587 L99.0989984,62.298059 L119.528638,53.4335991 L146.630218,53.9200191 L157.541997,65.3399989 L168.431997,75.1772988 L187.649217,72.9266988 Z" id="路径" fill="#FFD200" fill-rule="nonzero"></path>
                            <path d="M187.649217,72.9266988 C187.649217,72.9266988 205.799217,66.4580389 218.867216,80.9126987 C231.935216,95.3673584 237.743216,121.568698 237.743216,121.568698 C237.743216,121.568698 197.087217,102.692698 176.033217,121.568698 C154.979217,140.444698 119.528638,119.789998 119.528638,119.789998 L107.709358,79.4316587 L99.0989984,62.298059 L119.528638,53.4335991 L146.630218,53.9200191 L157.541997,65.3399989 L168.431997,75.1772988 L187.649217,72.9266988 Z" id="路径" fill="#000000" fill-rule="nonzero" opacity="0.08"></path>
                            <path d="M144.728098,152.960938 C144.728098,152.960938 147.726478,155.596317 146.746378,158.856057 C145.766278,162.115797 148.532338,164.170377 150.456238,161.643897 C152.380138,159.117417 151.625098,150.361858 151.625098,150.361858 L145.737238,148.336318 L144.728098,152.960938 Z" id="路径" fill="#FC790D" fill-rule="nonzero"></path>
                            <path d="M195.671517,156.467517 C195.671517,156.467517 199.555617,157.404057 200.209017,160.750917 C200.862417,164.097777 204.260097,164.613237 204.790077,161.476917 C205.320057,158.340597 200.557497,150.949918 200.557497,150.949918 L194.408277,151.908238 L195.671517,156.467517 Z" id="路径" fill="#FC790D" fill-rule="nonzero"></path>
                            <path d="M110.453638,121.474318 L137.155918,140.524558 C150.963734,150.375783 167.32827,156.018901 184.273317,156.772437 L195.395637,157.266117 L195.395637,151.211278 L177.477957,145.199998 C170.641215,142.891568 164.443567,139.006846 159.386037,133.859878 L141.671638,115.826038 L110.453638,121.474318 Z" id="路径" fill="#24285B" fill-rule="nonzero"></path>
                            <path d="M110.453638,121.474318 L137.155918,140.524558 C150.963734,150.375783 167.32827,156.018901 184.273317,156.772437 L195.395637,157.266117 L195.395637,151.211278 L177.477957,145.199998 C170.641215,142.891568 164.443567,139.006846 159.386037,133.859878 L141.671638,115.826038 L110.453638,121.474318 Z" id="路径" fill="#000000" fill-rule="nonzero" opacity="0.08"></path>
                            <rect id="矩形" fill="#E6E6E6" fill-rule="nonzero" opacity="0.75" transform="translate(232.306607, 159.336667) rotate(11.170000) translate(-232.306607, -159.336667) " x="223.841447" y="147.669847" width="16.9303197" height="23.3336396"></rect>
                            <rect id="矩形" fill="#E6E6E6" fill-rule="nonzero" opacity="0.75" transform="translate(123.423687, 169.246897) rotate(-30.000000) translate(-123.423687, -169.246897) " x="116.083827" y="159.133717" width="14.6797198" height="20.2263597"></rect>
                            <path d="M92.1148785,37.4978994 C92.1148785,37.4978994 90.2563185,41.4545993 89.9368785,44.4239393 C89.8720872,45.0068187 90.0451,45.5911963 90.4167721,46.0448549 C90.7884442,46.4985135 91.3273637,46.7831121 91.9115985,46.8342592 C93.7914342,47.1341565 95.6731692,46.3082366 96.7249784,44.7215993 L99.2659784,41.5852793 C100.191414,40.1862918 100.124291,38.353543 99.0989984,37.0259994 C97.4001584,34.5430794 93.1240185,35.0294994 92.1148785,37.4978994 Z" id="路径" fill="#F4A28C" fill-rule="nonzero"></path>
                            <polygon id="路径" fill="#F4A28C" fill-rule="nonzero" points="97.4364584 42.1007393 100.580038 56.0689791 92.7610185 57.2596191 93.6104385 46.6164592"></polygon>
                            <path d="M93.0731985,38.0423994 C94.3214692,38.5558645 95.6247729,38.9237128 96.9572984,39.1386594 C95.7876893,40.0009362 95.2449996,41.4776235 95.5778984,42.8920793 C95.8730401,44.2822244 97.1117911,45.2683554 98.5327184,45.2443193 L100.405798,39.9299994 C101.005499,38.4073876 100.727163,36.6789234 99.6797984,35.4215394 C99.2279906,34.8904659 98.7430211,34.3885224 98.2277984,33.9187194 C96.9355184,32.7498595 94.3436985,32.9458795 93.3563385,31.4212795 C93.1538923,31.1102566 92.8026378,30.9288057 92.4318307,30.9436975 C92.0610236,30.9585894 91.7254512,31.1676237 91.5485985,31.4938795 C90.7209585,33.0112195 90.0965985,35.6393394 91.9261185,37.3018794 C92.2659621,37.6090679 92.6533438,37.8591497 93.0731985,38.0423994 L93.0731985,38.0423994 Z" id="路径" fill="#24285B" fill-rule="nonzero"></path>
                            <path d="M95.1858585,42.6089393 C95.1858585,42.6089393 95.7956984,41.0407793 96.9355184,41.5997993 C98.0753384,42.1588193 97.2113984,44.4311993 95.4835184,44.0536793 L95.1858585,42.6089393 Z" id="路径" fill="#F4A28C" fill-rule="nonzero"></path>
                            <path d="M91.0766985,40.0534193 L89.3488185,41.2077593 C89.1613123,41.3497324 89.0541982,41.5737416 89.0614092,41.8088223 C89.0686203,42.043903 89.189263,42.2609258 89.3851185,42.3911393 L90.8371185,43.2623393 L91.0766985,40.0534193 Z" id="路径" fill="#F4A28C" fill-rule="nonzero"></path>
                            <path d="M93.7556385,46.9431592 C94.7630252,46.8379225 95.7172975,46.4390468 96.4999184,45.7960793 C96.4999184,45.7960793 96.6741584,48.4314592 93.4652385,50.5876792 L93.7556385,46.9431592 Z" id="路径" fill="#CE8172" fill-rule="nonzero" opacity="0.31"></path>
                            <path d="M92.7610185,57.2596191 L100.580038,56.0762391 C100.580038,56.0762391 140.459218,44.8304993 146.267218,68.7521989 C152.075218,92.6738985 151.392778,108.471658 151.392778,108.471658 L124.487218,121.539658 C124.487218,121.539658 50.4352192,91.4759985 92.7610185,57.2596191 Z" id="路径" fill="#FC790D" fill-rule="nonzero"></path>
                            <rect id="矩形" fill="#24285B" fill-rule="nonzero" transform="translate(98.083966, 94.811186) rotate(-15.170000) translate(-98.083966, -94.811186) " x="87.5206658" y="80.1786562" width="21.1265997" height="29.2650595"></rect>
                            <rect id="矩形" fill="#FFD200" fill-rule="nonzero" transform="translate(93.307704, 80.942731) rotate(-15.170000) translate(-93.307704, -80.942731) " x="89.6631841" y="78.9643814" width="7.28903988" height="3.95669994"></rect>
                            <path d="M110.134198,72.2152188 C110.134198,72.2152188 105.778198,83.0108387 122.127718,86.4956386 C138.477238,89.9804385 138.462718,101.015638 127.754218,101.661778 C117.045718,102.307918 101.233438,96.5144384 101.516578,109.045198 C101.516578,109.045198 113.960218,117.575698 124.487218,121.568698 L151.392778,108.500698 L151.392778,106.830898 L152.801218,83.4899986 L138.825718,70.0589989 L110.134198,72.2152188 Z" id="路径" fill="#000000" fill-rule="nonzero" opacity="0.08"></path>
                            <path d="M108.551518,65.2383589 C109.575178,57.7823391 116.588338,52.6785591 124.066138,53.5279791 C134.324518,54.6895791 149.875438,59.277899 157.077357,75.7290588 C168.330357,101.443978 161.433357,117.488578 107.709358,101.661778 L109.161358,95.6359784 C109.161358,95.6359784 145.461358,99.9919784 143.283358,88.5429586 C141.446578,78.9089387 106.192018,82.4953787 108.551518,65.2383589 Z" id="路径" fill="#FC790D" fill-rule="nonzero"></path>
                            <path d="M108.551518,65.2383589 C109.575178,57.7823391 116.588338,52.6785591 124.066138,53.5279791 C134.324518,54.6895791 149.875438,59.277899 157.077357,75.7290588 C168.330357,101.443978 161.433357,117.488578 107.709358,101.661778 L109.161358,95.6359784 C109.161358,95.6359784 145.461358,99.9919784 143.283358,88.5429586 C141.446578,78.9089387 106.192018,82.4953787 108.551518,65.2383589 Z" id="路径" fill="#FFFFFF" fill-rule="nonzero" opacity="0.46"></path>
                            <path d="M97.8575384,52.3736391 C93.4736127,53.3047274 89.4211309,55.3986768 86.1253786,58.4357391 C84.3539607,60.017803 82.9533781,61.971182 82.0234787,64.156619 C79.4752187,70.7486988 93.6394785,72.4402788 110.707738,65.7828589 C127.775998,59.125439 135.391738,53.7602991 149.185738,62.617499 C162.979737,71.4746988 168.787737,81.6386987 187.663737,72.9266988 C187.663737,72.9266988 165.157737,72.9266988 157.897737,55.8802191 C151.850158,41.6941793 111.375658,49.3679992 97.8575384,52.3736391 Z" id="路径" fill="#FFD200" fill-rule="nonzero"></path>
                            <path d="M109.161358,95.6359784 C109.161358,95.6359784 104.159218,90.7499985 100.710718,91.4759985 C97.2622184,92.2019985 99.2587184,99.3676184 107.709358,101.698078 L109.161358,95.6359784 Z" id="路径" fill="#F4A28C" fill-rule="nonzero"></path>
                            <path d="M151.392778,108.471658 C151.392778,108.471658 99.2296784,115.005658 101.516578,128.073658 C103.803478,141.141658 145.178218,154.209657 145.178218,154.209657 L148.445218,147.675658 L121.583218,128.436658 C121.583218,128.436658 167.045337,139.297618 151.392778,108.471658 Z" id="路径" fill="#24285B" fill-rule="nonzero"></path>
                            <path d="M19.7544597,45.8178593 C19.7544597,45.8178593 8.13845987,44.2714793 11.2892998,41.0117393 C14.4401398,37.7519994 26.0706596,41.4908993 26.0706596,41.4908993 L19.7544597,45.8178593 Z" id="路径" fill="#F4A28C" fill-rule="nonzero"></path>
                            <path d="M7.08575988,3.14357995 L29.7659995,3.14357995 C29.7659995,3.14357995 32.1327595,21.0539997 18.4113597,21.0539997 C18.4113597,21.0539997 5.30705991,21.4823397 7.08575988,3.14357995 Z" id="路径" fill="#FFD200" fill-rule="nonzero"></path>
                            <ellipse id="椭圆形" fill="#FFD200" fill-rule="nonzero" cx="18.4258797" cy="3.36137995" rx="11.3401198" ry="3.23795995"></ellipse>
                            <ellipse id="椭圆形" fill="#000000" fill-rule="nonzero" opacity="0.08" cx="18.4258797" cy="3.36137995" rx="11.3401198" ry="3.23795995"></ellipse>
                            <rect id="矩形" fill="#24285B" fill-rule="nonzero" x="12.3419998" y="28.6769995" width="11.3764198" height="11.3764198"></rect>
                            <rect id="矩形" fill="#FFD200" fill-rule="nonzero" x="17.3368797" y="17.5183797" width="2.42483996" height="11.1658798"></rect>
                            <path d="M8.71199986,9.67757984 L4.66091992,9.67757984 C2.21908131,9.67757984 0.239579996,11.6570812 0.239579996,14.0989198 L0.239579996,14.0989198 C0.243584932,16.5379227 2.22191371,18.5129997 4.66091992,18.5129997 L16.2115797,18.5129997" id="路径" stroke="#FFD200" stroke-width="2.17799996"></path>
                            <path d="M28.1397595,9.67757984 L32.1908395,9.67757984 C34.6326781,9.67757984 36.6121794,11.6570812 36.6121794,14.0989198 L36.6121794,14.0989198 C36.6081745,16.5379227 34.6298457,18.5129997 32.1908395,18.5129997 L20.6401797,18.5129997" id="路径" stroke="#FFD200" stroke-width="2.17799996"></path>
                            <circle id="椭圆形" fill="#FFFFFF" fill-rule="nonzero" opacity="0.46" cx="14.6434198" cy="12.8864998" r="3.89861994"></circle>
                        </g>
                        <g id="独家解决方案备份" transform="translate(37.000000, 157.000000)">
                            <rect id="Rectangle-3" fill="#FC790D" x="0" y="0" width="168.396783" height="32.9471966" rx="3.6022268"></rect>
                            <text id="独家方案" font-family="FZLTCHJW--GB1-0, FZLanTingHeiS-B-GB" font-size="18.011134" font-weight="normal" line-spacing="21.6133608" fill="#FFFFFF">
                                <tspan x="86.5413021" y="21.4033402">独家方案</tspan>
                            </text>
                            <g id="句客宝logo" transform="translate(7.497317, 6.604082)">
                                <path d="M8.40511241,-1.49213975e-13 C10.6847903,-1.49213975e-13 12.655993,0.815479062 14.3178861,2.44414973 C15.9791114,4.07380073 16.8103917,6.00670341 16.8103917,8.24155066 C16.8103917,13.2066434 13.2742787,16.8621659 6.20255331,19.2118763 L6.20255331,19.2118763 L6.20255331,16.1994564 C4.30863626,15.6681124 2.80131465,14.6547682 1.68092233,13.1584433 C0.559695389,11.6617917 0,10.0236445 0,8.24155066 C0,6.00670341 0.830278814,4.07380073 2.49250568,2.44414973 C4.15339716,0.815479062 6.12443299,-1.49213975e-13 8.40511241,-1.49213975e-13 Z M8.48188065,5.07685141 C6.73285343,5.03453343 5.28362129,6.24688659 5.24472805,7.78503924 C5.20600173,9.3230285 6.59230361,10.603842 8.34149776,10.6464868 C8.41177267,10.6486109 8.48054526,10.6443627 8.54948478,10.6425654 C8.54948478,10.6428922 8.8474437,10.8492537 9.17428043,11.0139507 C9.53867502,11.1971108 9.98636456,11.3201434 10.2465987,11.2982492 C10.5909624,11.2693292 10.6452127,11.0525107 10.5762731,10.941569 C10.510839,10.8358557 10.3964963,10.8311174 10.2859927,10.7631472 C10.1532883,10.6811255 10.0945312,10.6396244 10.0399471,10.5123437 C9.97735067,10.3657829 10.0497956,10.2569653 10.1875077,10.1842567 C10.1875077,10.1842567 10.1983577,10.1741266 10.2170532,10.1563171 C11.0194557,9.66925173 11.555281,8.86406623 11.5786504,7.93862576 C11.6175436,6.40079989 10.2312417,5.11949618 8.48188065,5.07685141 Z" id="形状结合" fill="#FFFFFF"></path>
                                <path d="M31.2752353,17.7809651 C31.661096,17.7809651 32.0780746,17.695755 32.5261709,17.5253349 C32.9742672,17.3549148 33.3912457,17.0810253 33.7771064,16.7036665 C34.1629672,16.3263077 34.4897041,15.8333067 34.7573171,15.2246635 C35.0249302,14.6160203 35.1649603,13.8734755 35.1774074,12.9970292 L35.1774074,12.9970292 L35.2707608,4.65253051 C35.2956551,4.23865311 35.1587368,3.88564004 34.8600059,3.59349128 C34.5488279,3.28916967 34.1567436,3.13700886 33.683753,3.13700886 L33.683753,3.13700886 L26.0474449,3.13700886 C26.1345747,2.89355156 26.215481,2.63487819 26.2901637,2.36098873 C26.3648465,2.08709928 26.4519763,1.79799374 26.5515533,1.49367213 C26.6137889,1.31107916 26.5951182,1.13761583 26.4955412,0.973282161 C26.3959643,0.808948488 26.2528224,0.69634949 26.0661156,0.635485166 C25.8669617,0.574620843 25.6833666,0.59288014 25.5153305,0.690263057 C25.3472944,0.787645975 25.2321585,0.927633919 25.1699229,1.11022689 C24.9583219,1.82842591 24.7560562,2.47358773 24.5631258,3.04571237 C24.3701955,3.61783701 24.1679298,4.14431341 23.9563287,4.62514157 C23.7447277,5.10596972 23.5113442,5.55636571 23.2561782,5.97632954 C23.0010123,6.39629338 22.7053932,6.81321399 22.3693209,7.22709139 C22.2448497,7.38533863 22.1950613,7.55880195 22.2199555,7.74748136 C22.2448497,7.93616076 22.3382031,8.09136478 22.5000157,8.21309343 C22.636934,8.31047635 22.7800759,8.35916781 22.9294413,8.35916781 C23.0290183,8.35916781 23.131707,8.33786529 23.2375076,8.29526027 C23.3433081,8.25265524 23.4335497,8.18266127 23.5082324,8.08527835 C23.9687759,7.51315371 24.3577484,6.95015872 24.6751499,6.39629338 C24.9925515,5.84242803 25.281947,5.21856872 25.5433365,4.52471543 L25.5433365,4.52471543 L33.683753,4.52471543 C33.7584358,4.52471543 33.8082242,4.54297473 33.8331185,4.57949332 C33.8455656,4.57949332 33.8517892,4.59775262 33.8517892,4.63427121 L33.8517892,4.63427121 L33.7397651,12.97877 C33.727318,13.6726232 33.6246292,14.2386614 33.4316989,14.6768846 C33.2387685,15.1151077 33.0116086,15.4620343 32.750219,15.7176645 C32.4888295,15.9732947 32.2181047,16.146758 31.9380445,16.2380545 C31.6579843,16.329351 31.4370479,16.3749992 31.2752353,16.3749992 L31.2752353,16.3749992 L30.8084683,16.3749992 C30.5968673,16.3628263 30.4226076,16.4236907 30.2856893,16.5575922 C30.148771,16.6914937 30.0803118,16.8558274 30.0803118,17.0505932 C30.0678647,17.2575319 30.1301003,17.427952 30.2670186,17.5618535 C30.4039369,17.695755 30.571973,17.7687922 30.771127,17.7809651 L30.771127,17.7809651 L31.2752353,17.7809651 Z M30.5653297,13.7639197 C30.9014019,13.7639197 31.1876857,13.6482775 31.424181,13.4169931 C31.6606762,13.1857087 31.7789239,12.9057328 31.7789239,12.5770654 L31.7789239,12.5770654 L31.7789239,7.99398187 C31.7789239,7.66531452 31.6606762,7.38533863 31.424181,7.1540542 C31.1876857,6.92276977 30.9014019,6.80712756 30.5653297,6.80712756 L30.5653297,6.80712756 L26.1963906,6.80712756 C25.8603183,6.80712756 25.5740346,6.92276977 25.3375393,7.1540542 C25.101044,7.38533863 24.9827964,7.66531452 24.9827964,7.99398187 L24.9827964,7.99398187 L24.9827964,12.5770654 C24.9827964,12.9057328 25.101044,13.1857087 25.3375393,13.4169931 C25.5740346,13.6482775 25.8603183,13.7639197 26.1963906,13.7639197 L26.1963906,13.7639197 L30.5653297,13.7639197 Z M30.3412815,12.3579539 L26.4204387,12.3579539 L26.4204387,8.19483413 L30.3412815,8.19483413 L30.3412815,12.3579539 Z M52.4656175,6.18631146 C52.6647715,6.18631146 52.8359194,6.11631749 52.9790612,5.97632954 C53.1222031,5.8363416 53.1937741,5.67505114 53.1937741,5.49245817 L53.1937741,5.49245817 L53.1937741,3.5021948 C53.1937741,3.17352745 53.0724146,2.89355156 52.8296958,2.66226714 C52.586977,2.43098271 52.2975814,2.31534049 51.9615092,2.31534049 L51.9615092,2.31534049 L47.7419355,2.31534049 L47.0884617,1.0189304 C46.9888847,0.848510298 46.8488546,0.729824868 46.6683714,0.662874112 C46.4878882,0.595923356 46.3105167,0.605053005 46.136257,0.690263057 C45.9619973,0.77547311 45.8375261,0.909374622 45.7628434,1.09196759 C45.6881607,1.27456056 45.7006078,1.4510671 45.8001848,1.62148721 L45.8001848,1.62148721 L46.1549277,2.2970812 L41.6366231,2.2970812 C41.2881038,2.2970812 40.9955965,2.41272341 40.7591012,2.64400784 C40.5226059,2.87529227 40.4043583,3.15526816 40.4043583,3.4839355 L40.4043583,3.4839355 L40.4043583,5.47419888 C40.4043583,5.68113758 40.4759292,5.85155768 40.6190711,5.98545919 C40.762213,6.1193607 40.9333609,6.18631146 41.1325148,6.18631146 C41.3316687,6.18631146 41.4997048,6.11631749 41.6366231,5.97632954 C41.7735415,5.8363416 41.8420006,5.67505114 41.8420006,5.49245817 L41.8420006,5.49245817 L41.8420006,3.72130636 L51.7561317,3.72130636 L51.7561317,5.49245817 C51.7561317,5.67505114 51.8245909,5.8363416 51.9615092,5.97632954 C52.0984275,6.11631749 52.2664636,6.18631146 52.4656175,6.18631146 Z M52.8577018,12.430991 C53.0319615,12.430991 53.1844387,12.3792564 53.3151335,12.275787 C53.4458282,12.1723177 53.5236227,12.0353729 53.548517,11.8649528 C53.5983055,11.670187 53.5671877,11.4936805 53.4551636,11.3354332 C53.3431395,11.177186 53.1875505,11.0798031 52.9883966,11.0432845 C51.9303914,10.8363458 51.0061927,10.6263639 50.2158006,10.4133387 C49.4254085,10.2003136 48.7314815,9.95989951 48.1340198,9.69209649 C48.78127,9.26604622 49.3569493,8.80347737 49.8610577,8.30438991 C50.365166,7.80530246 50.8101506,7.25143712 51.1960113,6.64279389 C51.270694,6.5332381 51.3111472,6.40846624 51.3173707,6.2684783 C51.3235943,6.12849035 51.3018118,6.00067527 51.2520233,5.88503306 C51.2022349,5.76939085 51.1244404,5.66896471 51.0186398,5.58375466 C50.9128393,5.49854461 50.7852563,5.45593958 50.6358909,5.45593958 L50.6358909,5.45593958 L45.202723,5.45593958 C45.2525115,5.35855666 45.2960764,5.27334661 45.3334178,5.20030942 C45.3707591,5.12727223 45.4081005,5.04206218 45.4454419,4.94467926 C45.5325717,4.77425916 45.541907,4.60079584 45.4734479,4.4242893 C45.4049887,4.24778276 45.2774057,4.11083803 45.0906989,4.01345512 C44.9164393,3.92824506 44.7390678,3.91911541 44.5585846,3.98606617 C44.3781013,4.05301693 44.2380712,4.17778879 44.1384943,4.36038176 C43.8148691,5.02988932 43.3978906,5.66287828 42.8875587,6.25934865 C42.3772268,6.85581902 41.7735415,7.3975115 41.0765027,7.88442608 C40.9022431,7.99398187 40.8026661,8.14309946 40.7777719,8.33177886 C40.7528776,8.52045826 40.790219,8.69392158 40.8897959,8.85216883 C41.0516085,9.04693466 41.2507624,9.14431758 41.4872577,9.14431758 C41.6490703,9.14431758 41.779765,9.09562612 41.879342,8.9982432 C42.1282844,8.8278231 42.3678914,8.65131656 42.5981632,8.46872359 C42.8284349,8.28613062 43.0493713,8.09136478 43.2609723,7.88442608 C43.5845974,8.21309343 43.9051108,8.5265447 44.2225123,8.82477988 C44.5399139,9.12301506 44.8790979,9.39994774 45.2400644,9.65557789 C43.9455639,10.2155297 42.4145681,10.6780985 40.6470771,11.0432845 C40.4479232,11.0798031 40.2923342,11.1802292 40.1803101,11.3445629 C40.068286,11.5088965 40.0371682,11.6884463 40.0869567,11.8832121 C40.1242981,12.0414594 40.2083161,12.1723177 40.3390109,12.275787 C40.4697056,12.3792564 40.6221829,12.430991 40.7964425,12.430991 C40.8586781,12.430991 40.9084666,12.4249046 40.945808,12.4127317 C42.0784959,12.1814473 43.1178304,11.9106011 44.0638115,11.600193 C45.0097927,11.289785 45.8810911,10.9398151 46.6777067,10.5502834 C47.4120868,10.9398151 48.2616028,11.2836985 49.2262546,11.5819337 C50.1909064,11.8801689 51.3578239,12.1571016 52.7270071,12.4127317 C52.7519013,12.4127317 52.7736838,12.415775 52.7923544,12.4218614 C52.8110251,12.4279478 52.8328076,12.430991 52.8577018,12.430991 Z M46.6590361,8.92520601 C46.2233869,8.64523013 45.8064083,8.33482208 45.4081005,7.99398187 C45.0097927,7.65314165 44.6114848,7.27578285 44.213177,6.86190545 L44.213177,6.86190545 L49.2355899,6.86190545 C48.5385512,7.66531452 47.6796999,8.35308137 46.6590361,8.92520601 Z M50.4118427,17.5435942 C50.7105736,17.5435942 50.9688514,17.4370816 51.186676,17.2240565 C51.4045006,17.0110314 51.5134129,16.7584444 51.5134129,16.4662957 L51.5134129,16.4662957 L51.5134129,13.289178 C51.5134129,12.9848564 51.4076123,12.726183 51.1960113,12.5131579 C50.9844103,12.3001327 50.7230207,12.1936202 50.4118427,12.1936202 L50.4118427,12.1936202 L43.1302775,12.1936202 C42.8315467,12.1936202 42.5732689,12.3001327 42.3554443,12.5131579 C42.1376197,12.726183 42.0287074,12.9909428 42.0287074,13.3074373 L42.0287074,13.3074373 L42.0287074,16.4662957 C42.0287074,16.7584444 42.1345079,17.0110314 42.346109,17.2240565 C42.55771,17.4370816 42.8190995,17.5435942 43.1302775,17.5435942 L43.1302775,17.5435942 L50.4118427,17.5435942 Z M50.0944412,16.1558876 L43.4663498,16.1558876 L43.4663498,13.5813268 L50.0944412,13.5813268 L50.0944412,16.1558876 Z M58.4398154,6.47846021 C58.6389693,6.47846021 58.8070054,6.40846624 58.9439237,6.2684783 C59.080842,6.12849035 59.1493012,5.96111346 59.1493012,5.76634763 L59.1493012,5.76634763 L59.1493012,4.26908527 L69.0634323,4.26908527 L69.0634323,5.76634763 C69.0634323,5.9489406 69.1318914,6.11023106 69.2688098,6.250219 C69.4057281,6.39020694 69.5737642,6.46020092 69.7729181,6.46020092 C69.972072,6.46020092 70.1432199,6.39020694 70.2863618,6.250219 C70.4295037,6.11023106 70.5010746,5.94285417 70.5010746,5.74808833 L70.5010746,5.74808833 L70.5010746,3.94041793 C70.5010746,3.63609631 70.382827,3.38046615 70.1463317,3.17352745 C69.9098364,2.96658875 69.6173291,2.8631194 69.2688098,2.8631194 L69.2688098,2.8631194 L65.403979,2.8631194 C65.3915319,2.77790935 65.3604141,2.6926993 65.3106256,2.60748924 L65.3106256,2.60748924 L64.2277262,0.98241181 C64.1281492,0.811991704 63.9818955,0.708522355 63.7889652,0.67200376 C63.5960348,0.635485166 63.4124398,0.665917328 63.2381801,0.763300246 C63.0639204,0.872856028 62.9581199,1.02197362 62.9207786,1.21065302 C62.8834372,1.39933243 62.9207786,1.57279575 63.0328026,1.73104299 L63.0328026,1.73104299 L63.7609592,2.8813787 L58.9439237,2.8813787 C58.5954044,2.8813787 58.302897,2.98789127 58.0664018,3.2009164 C57.8299065,3.41394153 57.7116588,3.66652847 57.7116588,3.95867722 L57.7116588,3.95867722 L57.7116588,5.76634763 C57.7116588,5.96111346 57.7832298,6.12849035 57.9263717,6.2684783 C58.0695135,6.40846624 58.2406614,6.47846021 58.4398154,6.47846021 Z M69.9036129,17.5253349 C70.1152139,17.5253349 70.2894736,17.4553409 70.4263919,17.315353 C70.5633102,17.1753651 70.6317694,17.0140746 70.6317694,16.8314816 C70.6317694,16.6367158 70.5601985,16.4693389 70.4170566,16.329351 C70.2739147,16.189363 70.1027668,16.119369 69.9036129,16.119369 L69.9036129,16.119369 L64.7505052,16.119369 L64.7505052,12.1753609 L68.8020428,12.1753609 C69.0136438,12.1753609 69.1879035,12.1084101 69.3248218,11.9745086 C69.4617401,11.8406071 69.5301993,11.6762734 69.5301993,11.4815076 C69.5301993,11.2867418 69.4586283,11.1193649 69.3154865,10.9793769 C69.1723446,10.839389 69.0011967,10.769395 68.8020428,10.769395 L68.8020428,10.769395 L64.7505052,10.769395 L64.7505052,8.04875976 L69.3995045,8.04875976 C69.6111056,8.04875976 69.7853652,7.981809 69.9222836,7.84790749 C70.0592019,7.71400598 70.127661,7.5496723 70.127661,7.35490647 C70.127661,7.16014063 70.0560901,6.99276375 69.9129482,6.8527758 C69.7698063,6.71278786 69.5986584,6.64279389 69.3995045,6.64279389 L69.3995045,6.64279389 L59.5973975,6.64279389 C59.3857965,6.64279389 59.2146486,6.71278786 59.0839538,6.8527758 C58.9532591,6.99276375 58.8879117,7.16014063 58.8879117,7.35490647 C58.8879117,7.5496723 58.9563708,7.71400598 59.0932892,7.84790749 C59.2302075,7.981809 59.3982436,8.04875976 59.5973975,8.04875976 L59.5973975,8.04875976 L63.2941922,8.04875976 L63.2941922,10.769395 L59.5973975,10.769395 C59.3857965,10.769395 59.2146486,10.839389 59.0839538,10.9793769 C58.9532591,11.1193649 58.8879117,11.2867418 58.8879117,11.4815076 C58.8879117,11.6762734 58.9563708,11.8406071 59.0932892,11.9745086 C59.2302075,12.1084101 59.3982436,12.1753609 59.5973975,12.1753609 L59.5973975,12.1753609 L63.2941922,12.1753609 L63.2941922,16.119369 L58.2344379,16.119369 C58.035284,16.119369 57.8672478,16.189363 57.7303295,16.329351 C57.5934112,16.4693389 57.524952,16.6367158 57.524952,16.8314816 C57.524952,17.0140746 57.596523,17.1753651 57.7396649,17.315353 C57.8828067,17.4553409 58.0477311,17.5253349 58.2344379,17.5253349 L58.2344379,17.5253349 L69.9036129,17.5253349 Z" id="句客宝" stroke="#FFFFFF" stroke-width="0.519999981" fill="#FFFFFF" fill-rule="nonzero"></path>
                                <circle id="椭圆形" stroke="#FFFFFF" stroke-width="0.975194876" fill="#FC790D" fill-rule="nonzero" cx="67.6411767" cy="14.1437834" r="1.40861482"></circle>
                            </g>
                        </g>
                    </g>
                </g>
            </g>
        </g>
    </g>
</svg>