<?xml version="1.0" encoding="UTF-8"?>
<svg width="213px" height="168px" viewBox="0 0 213 168" version="1.1" xmlns="http://www.w3.org/2000/svg" xmlns:xlink="http://www.w3.org/1999/xlink">
    <title>1</title>
    <g id="最新版备份" stroke="none" stroke-width="1" fill="none" fill-rule="evenodd">
        <g id="行业案例" transform="translate(-184.000000, -1904.000000)">
            <g id="3备份-5" transform="translate(0.000000, 1612.000000)">
                <g id="编组-19" transform="translate(120.000000, 235.000000)">
                    <g id="1" transform="translate(64.000000, 57.000000)">
                        <g id="scooter_two_color" transform="translate(106.500000, 76.500000) scale(-1, 1) translate(-106.500000, -76.500000) " fill-rule="nonzero">
                            <path d="M137.689998,106.182998 C137.689998,106.182998 165.374997,109.857998 166.424997,94.8849984 C167.474997,79.9119986 161.874997,78.0289987 173.774997,73.0239988 C185.674997,68.0189988 177.274997,84.7979986 187.074997,82.8799986 C196.874997,80.9619986 183.574997,65.2329989 192.324997,61.550999 C201.074997,57.868999 216.124996,64.1689989 211.574996,76.4189987 C207.024996,88.6689985 194.774997,86.0579985 194.074997,94.8849984 C193.374997,103.711998 209.474996,112.461998 195.474997,119.286998 C188.089997,122.891998 182.062997,120.392998 178.023997,117.221998 C174.211839,114.15406 169.236935,112.931479 164.436997,113.882998 C157.285198,115.406381 149.826195,114.394194 143.338998,111.019998 L137.689998,106.182998 Z" id="路径" fill="#E6E6E6" opacity="0.54"></path>
                            <path d="M77.6999987,115.072998 C77.6999987,115.072998 77.5109987,117.655998 75.4389987,118.432998 C73.3669988,119.209998 73.3949988,121.449998 75.4389987,121.449998 C77.4829987,121.449998 81.7389986,117.613998 81.7389986,117.613998 L80.7379986,114.582998 L77.6999987,115.072998 Z" id="路径" fill="#FC790D"></path>
                            <path d="M77.6999987,115.072998 C77.6999987,115.072998 77.5109987,117.655998 75.4389987,118.432998 C73.3669988,119.209998 73.3949988,121.449998 75.4389987,121.449998 C77.4829987,121.449998 81.7389986,117.613998 81.7389986,117.613998 L80.7379986,114.582998 L77.6999987,115.072998 Z" id="路径" fill="#000000" opacity="0.08"></path>
                            <path d="M77.3919987,66.3879989 C77.3919987,66.3879989 69.5099988,63.3149989 68.7329988,66.3879989 C67.9559988,69.4609988 78.5679987,70.8539988 78.5679987,70.8539988 L77.3919987,66.3879989 Z" id="路径" fill="#F4A28C"></path>
                            <path d="M77.3919987,66.3879989 C77.3919987,66.3879989 69.5099988,63.3149989 68.7329988,66.3879989 C67.9559988,69.4609988 78.5679987,70.8539988 78.5679987,70.8539988 L77.3919987,66.3879989 Z" id="路径" fill="#000000" opacity="0.08"></path>
                            <ellipse id="椭圆形" fill="#E6E6E6" opacity="0.45" cx="93.6599984" cy="140.293998" rx="93.3169984" ry="11.8089998"></ellipse>
                            <path d="M62.0829989,15.5189997 C62.0829989,15.5189997 61.6979989,20.6919996 62.6149989,24.1149996 C62.9874134,25.5019101 64.412319,26.3255369 65.7999989,25.9559996 C67.5149989,25.4729996 69.6989988,24.3179996 70.2449988,21.5669996 L71.7359988,17.0169997 C72.1534429,15.0891918 71.3124705,13.1073003 69.6359988,12.0679998 C66.6889989,10.0029998 62.1599989,12.3549998 62.0829989,15.5189997 Z" id="路径" fill="#F4A28C"></path>
                            <polygon id="路径" fill="#F4A28C" points="66.8709989 16.7019997 82.2779986 23.8699996 77.7209987 32.0809995 68.5719988 23.7859996"></polygon>
                            <path d="M63.3709989,15.7149997 C64.9759777,15.7633741 66.5809944,15.6200271 68.1519988,15.2879997 C67.2218317,16.7394067 67.2438439,18.6049446 68.2079988,20.0339997 C69.1198866,21.4586938 70.9201782,22.027362 72.4849988,21.3849996 L72.3099988,14.6999997 C72.3297327,12.7577382 71.2810841,10.9615915 69.5799988,10.0239998 C68.8568176,9.62186653 68.108619,9.26647218 67.3399989,8.95999985 C65.4079989,8.21799986 62.6149989,9.53399984 60.878999,8.25999986 C60.5231449,8.00310457 60.0588176,7.95112585 59.6549679,8.12297678 C59.2511182,8.2948277 58.9666229,8.66545435 58.904999,9.09999985 C58.631999,11.1369998 59.037999,14.3149998 61.7889989,15.3999997 C62.29531,15.5916725 62.8298851,15.6981145 63.3709989,15.7149997 L63.3709989,15.7149997 Z" id="路径" fill="#24285B"></path>
                            <path d="M67.6549988,19.8869997 C67.6549988,19.8869997 67.6549988,17.8919997 69.1669988,18.0249997 C70.6789988,18.1579997 70.6719988,21.0489996 68.6349988,21.3429996 L67.6549988,19.8869997 Z" id="路径" fill="#F4A28C"></path>
                            <path d="M62.0129989,18.7879997 L60.612999,20.8039996 C60.4479768,21.0365091 60.4133375,21.3372678 60.5211825,21.6012042 C60.6290274,21.8651406 60.8643726,22.0555831 61.144999,22.1059996 L63.1329989,22.4489996 L62.0129989,18.7879997 Z" id="路径" fill="#F4A28C"></path>
                            <path d="M77.1819987,66.3039989 L95.0179984,61.7819989 C95.0179984,61.7819989 76.9579987,54.3409991 81.3329986,40.9429993 C85.7079985,27.5449995 110.137998,65.6599989 110.137998,65.6599989 L78.8759987,71.2179988 L77.1819987,66.3039989 Z" id="路径" fill="#FC790D"></path>
                            <path d="M77.1819987,66.3039989 L95.0179984,61.7819989 C95.0179984,61.7819989 76.9579987,54.3409991 81.3329986,40.9429993 C85.7079985,27.5449995 110.137998,65.6599989 110.137998,65.6599989 L78.8759987,71.2179988 L77.1819987,66.3039989 Z" id="路径" fill="#000000" opacity="0.08"></path>
                            <path d="M147.223997,74.0599987 C147.223997,74.0599987 149.029997,90.8599985 128.358998,89.5649985 C117.732998,88.9069985 105.440998,88.7529985 95.9979984,88.7599985 C92.1866768,88.7645409 88.5721931,90.4532063 86.1230917,93.3734965 C83.6739902,96.2937868 82.6406616,100.147138 83.2999986,103.900998 L85.0639986,113.994998 L78.2179987,115.534998 L75.5999987,104.572998 C72.5759387,91.7915467 80.0410869,78.8687365 92.6239984,75.1029987 L105.587998,71.2179988 L147.223997,74.0599987 Z" id="路径" fill="#24285B"></path>
                            <path d="M88.6269985,75.5999987 C88.6269985,75.5999987 72.1419988,79.3939986 72.9189988,98.1959983 L76.4189987,115.569998 L80.9969986,114.715998 C80.9969986,114.715998 76.2299987,81.3329986 93.6739984,76.8739987 L93.6739984,74.8369987 L88.6269985,75.5999987 Z" id="路径" fill="#24285B"></path>
                            <path d="M74.4589987,35.2589994 L82.2779986,23.8699996 C82.2779986,23.8699996 90.3629985,19.7959997 107.680998,21.3429996 C124.998998,22.8899996 149.799997,36.3229994 147.223997,74.0599987 L110.081998,74.9629987 C110.081998,74.9629987 118.369998,63.2379989 102.899998,62.4679989 C87.4299985,61.6979989 68.5369988,57.119999 74.4589987,35.2589994 Z" id="路径" fill="#FC790D"></path>
                            <path d="M105.853998,36.8689994 C105.853998,36.8689994 132.677998,40.9849993 133.657998,74.3889987 L107.099998,75.5439987 L111.075998,62.4679989 L105.853998,36.8689994 Z" id="路径" fill="#000000" opacity="0.08"></path>
                            <path d="M96.6629984,17.4999997 C96.6629984,17.4999997 74.7109987,18.8999997 74.5709987,34.7759994 C74.4309987,50.6519991 86.6529985,58.239999 99.0709983,61.067999 C114.288998,64.5329989 129.660998,56.307999 133.643998,39.5569993 L127.763998,33.9989994 C127.763998,33.9989994 124.263998,51.0579991 108.373998,49.8959992 C92.4839984,48.7339992 66.9199989,29.6379995 102.073998,22.8129996 L96.6629984,17.4999997 Z" id="路径" fill="#24285B"></path>
                            <path d="M92.7009984,29.5329995 C89.4541321,28.3617437 85.8227782,29.1757615 83.386588,31.6209523 C80.9503978,34.0661432 80.1497771,37.7004744 81.3329986,40.9429993 L81.4449986,41.2369993 C85.3229985,51.1909991 105.608998,63.3359989 105.608998,63.3359989 L78.2179987,67.9839988 L79.5059986,74.2839987 C79.5059986,74.2839987 108.457998,79.8419986 119.048998,71.1829988 C128.799998,63.2659989 115.191998,37.6669994 92.7009984,29.5329995 Z" id="路径" fill="#FC790D"></path>
                            <path d="M92.7009984,29.5329995 C89.4541321,28.3617437 85.8227782,29.1757615 83.386588,31.6209523 C80.9503978,34.0661432 80.1497771,37.7004744 81.3329986,40.9429993 L81.4449986,41.2369993 C85.3229985,51.1909991 105.608998,63.3359989 105.608998,63.3359989 L78.2179987,67.9839988 L79.5059986,74.2839987 C79.5059986,74.2839987 108.457998,79.8419986 119.048998,71.1829988 C128.799998,63.2659989 115.191998,37.6669994 92.7009984,29.5329995 Z" id="路径" fill="#FFFFFF" opacity="0.46"></path>
                            <polygon id="路径" fill="#24285B" points="100.225998 131.956998 125.845998 131.956998 143.989998 113.700998 138.823998 105.202998 103.669998 117.739998"></polygon>
                            <path d="M93.4639984,21.6369996 C93.4639984,21.6369996 91.3289984,8.60999985 101.996998,4.53599992 C111.999998,0.699999988 140.608998,5.8029999 149.267997,31.7869995 C150.240585,34.7596548 149.237006,38.022687 146.761998,39.9349993 L143.758998,42.2729993 C141.797173,43.8123152 139.302165,44.5050667 136.827557,44.1975478 C134.35295,43.8900289 132.103388,42.6076706 130.577998,40.6349993 C124.830998,33.1169994 113.434998,22.8969996 93.4639984,21.6369996 Z" id="路径" fill="#24285B"></path>
                            <path d="M63.6999989,62.5659989 L60.507999,62.9999989 C59.1158091,63.1899037 57.8586253,63.9321052 57.0197957,65.0593236 C56.1809661,66.186542 55.8310811,67.6039181 56.048999,68.9919988 L56.433999,71.4629988 C56.8539778,74.1185485 59.1424446,76.0745792 61.8309989,76.0759987 L62.0129989,76.0759987 C62.0129989,76.0759987 44.0999992,91.5039984 41.6429993,102.899998 L61.634999,127.105998 C64.1762222,130.201915 67.968693,131.999295 71.9739988,132.005998 L100.225998,132.005998 C100.225998,132.005998 108.065998,112.489998 142.309998,110.942998 C142.309998,110.942998 145.809998,101.891998 136.366998,93.8839984 L100.225998,96.3339984 L92.2949984,101.632998 L93.2889984,108.541998 C93.994909,113.390489 91.1700787,118.060406 86.5479985,119.685998 L86.5479985,119.685998 C80.9277895,121.663521 74.6719583,119.855656 70.9729988,115.184998 C65.5759989,108.387998 60.661999,96.9849983 68.6559988,81.8649986 C68.6559988,81.8649986 78.6939987,67.6059988 69.0759988,63.3079989 C67.3881256,62.5646347 65.5261307,62.3076406 63.6999989,62.5659989 Z" id="路径" fill="#FFD200"></path>
                            <polygon id="路径" fill="#FFD200" points="59.282999 63.3289989 61.8239989 76.0759987 56.118999 76.0759987 54.3059991 65.0159989"></polygon>
                            <polygon id="路径" fill="#FFFFFF" opacity="0.51" points="59.282999 63.3289989 61.8239989 76.0759987 56.118999 76.0759987 54.3059991 65.0159989"></polygon>
                            <path d="M78.2179987,69.2999988 C78.2179987,69.2999988 70.3359988,66.2199989 69.5589988,69.2999988 C68.7819988,72.3799988 79.3589986,73.7659987 79.3589986,73.7659987 L78.2179987,69.2999988 Z" id="路径" fill="#F4A28C"></path>
                            <circle id="椭圆形" fill="#FFD200" cx="69.5169988" cy="71.9739988" r="2.98899995"></circle>
                            <circle id="椭圆形" fill="#24285B" cx="39.3679993" cy="126.286998" r="16.0719997"></circle>
                            <circle id="椭圆形" fill="#FFFFFF" cx="39.3679993" cy="126.286998" r="10.7519998"></circle>
                            <path d="M39.3679993,138.088998 C34.594536,138.088998 30.2910986,135.213533 28.4643733,130.803428 C26.6376479,126.393323 27.6473769,121.317072 31.0227252,117.941724 C34.3980735,114.566375 39.474324,113.556646 43.8844291,115.383372 C48.2945342,117.210097 51.1699991,121.513535 51.1699991,126.286998 C51.1661375,132.803462 45.8844636,138.085136 39.3679993,138.088998 Z M39.3679993,116.584998 C34.0097328,116.584998 29.6659995,120.928731 29.6659995,126.286998 C29.6659995,131.645264 34.0097328,135.988998 39.3679993,135.988998 C44.7262659,135.988998 49.0699992,131.645264 49.0699992,126.286998 C49.0661385,120.930331 44.7246659,116.588859 39.3679993,116.584998 L39.3679993,116.584998 Z" id="形状" fill="#FC790D"></path>
                            <path d="M116.465998,117.998998 C116.465998,117.998998 110.165998,125.754998 108.842998,131.956998 L123.542998,131.956998 L128.323998,123.423998 L123.794998,115.534998 L116.465998,117.998998 Z" id="路径" fill="#FFFFFF" opacity="0.11"></path>
                            <circle id="椭圆形" fill="#24285B" cx="136.660998" cy="126.286998" r="16.0719997"></circle>
                            <circle id="椭圆形" fill="#FFFFFF" cx="136.660998" cy="126.286998" r="10.7519998"></circle>
                            <path d="M136.653998,138.088998 C130.136846,138.085132 124.856422,132.799486 124.858998,126.282334 C124.861575,119.765181 130.146177,114.483713 136.66333,114.485 C143.180483,114.486288 148.462997,119.769845 148.462997,126.286998 C148.455276,132.804594 143.171598,138.085141 136.653998,138.088998 L136.653998,138.088998 Z M136.653998,116.584998 C131.296644,116.588863 126.956423,120.934307 126.958998,126.291661 C126.961575,131.649016 131.305974,135.990282 136.663329,135.988995 C142.020684,135.987707 146.362998,131.644353 146.362998,126.286998 C146.355279,120.929199 142.011801,116.588853 136.653998,116.584998 L136.653998,116.584998 Z" id="形状" fill="#FC790D"></path>
                            <circle id="椭圆形" fill="#000000" opacity="0.08" cx="69.5169988" cy="71.9739988" r="2.98899995"></circle>
                            <path d="M41.6429993,102.899998 C41.6429993,102.899998 32.4799994,103.984998 27.7479995,111.663998 C27.3573035,112.285576 27.3716051,113.079479 27.7844351,113.686582 C28.197265,114.293685 28.93032,114.598836 29.6519995,114.463998 C35.1679994,113.504998 46.3889992,113.532998 59.520999,124.564998 L41.6429993,102.899998 Z" id="路径" fill="#FFD200"></path>
                            <path d="M41.6429993,102.899998 C41.6429993,102.899998 32.4799994,103.984998 27.7479995,111.663998 C27.3573035,112.285576 27.3716051,113.079479 27.7844351,113.686582 C28.197265,114.293685 28.93032,114.598836 29.6519995,114.463998 C35.1679994,113.504998 46.3889992,113.532998 59.520999,124.564998 L41.6429993,102.899998 Z" id="路径" fill="#000000" opacity="0.08"></path>
                            <path d="M92.8549984,101.583998 C92.8549984,101.583998 84.6999986,95.0599984 88.1999985,89.4389985 C91.6999984,83.8179986 108.163998,89.8239985 120.959998,85.5609985 C133.755998,81.2979986 145.704998,84.6579986 136.919998,93.8349984 L92.8549984,101.583998 Z" id="路径" fill="#FFD200"></path>
                            <path d="M92.8549984,101.583998 C92.8549984,101.583998 84.6999986,95.0599984 88.1999985,89.4389985 C91.6999984,83.8179986 108.163998,89.8239985 120.959998,85.5609985 C133.755998,81.2979986 145.704998,84.6579986 136.919998,93.8349984 L92.8549984,101.583998 Z" id="路径" fill="#000000" opacity="0.17"></path>
                            <ellipse id="椭圆形" fill="#FFD200" transform="translate(113.914077, 4.046050) rotate(-81.310000) translate(-113.914077, -4.046050) " cx="113.914077" cy="4.04605049" rx="2.81399995" ry="5.33399991"></ellipse>
                            <path d="M108.380998,122.044998 C108.380998,122.044998 99.5189983,113.343998 108.380998,106.644998 C116.318998,100.624998 134.490998,96.8869984 145.942998,104.908998 C146.844399,105.559243 147.334277,106.638035 147.230666,107.744654 C147.127056,108.851274 146.445436,109.820381 145.438998,110.291998 C137.794998,113.938998 121.211998,121.204998 108.380998,122.044998 Z" id="路径" fill="#FFD200"></path>
                            <path d="M108.380998,122.044998 C108.380998,122.044998 99.5189983,113.343998 108.380998,106.644998 C116.318998,100.624998 134.490998,96.8869984 145.942998,104.908998 C146.844399,105.559243 147.334277,106.638035 147.230666,107.744654 C147.127056,108.851274 146.445436,109.820381 145.438998,110.291998 C137.794998,113.938998 121.211998,121.204998 108.380998,122.044998 Z" id="路径" fill="#000000" opacity="0.08"></path>
                            <path d="M147.188997,107.953998 C149.069162,110.964367 151.489873,113.601043 154.328997,115.730998 C154.734256,116.039874 154.861465,116.593913 154.631532,117.048632 C154.401598,117.503351 153.879978,117.729303 153.390997,117.585998 C149.378749,116.466925 145.760536,114.245556 142.946998,111.173998 L147.188997,107.953998 Z" id="路径" fill="#FFD200"></path>
                            <path d="M59.996999,6.58699989 C58.5831946,7.52190442 57.6377496,9.01779725 57.399999,10.6959998 C57.140999,12.5719998 57.266999,14.8959997 59.226999,15.7779997 C62.7269989,17.3319997 66.8499989,16.7019997 66.8499989,16.7019997 C66.8499989,16.7019997 66.4999989,23.4359996 71.3439988,23.1419996 C76.1879987,22.8479996 77.0629987,14.9099997 75.5019987,10.8359998 C74.0669987,7.04899988 68.4459988,0.979999983 59.996999,6.58699989 Z" id="路径" fill="#FC790D"></path>
                            <path d="M57.679999,14.1399998 C57.679999,14.1399998 50.7219991,18.1019997 53.8229991,19.2709997 C56.923999,20.4399997 66.8709989,16.7019997 66.8709989,16.7019997 C66.8709989,16.7019997 59.023999,17.5349997 57.679999,14.1399998 Z" id="路径" fill="#24285B"></path>
                            <path d="M80.9829986,114.680998 C80.9829986,114.680998 80.7939986,117.270998 78.7219987,118.047998 C76.6499987,118.824998 76.6779987,121.057998 78.7219987,121.065007 C80.7659986,121.071998 85.0219986,117.221998 85.0219986,117.221998 L84.0209986,114.197998 L80.9829986,114.680998 Z" id="路径" fill="#FC790D"></path>
                            <circle id="椭圆形" fill="#FFFFFF" opacity="0.46" cx="70.4969988" cy="16.1419997" r="2.84199995"></circle>
                            <path d="M55.0969991,93.8839984 C55.1783169,93.0066535 54.6662765,92.1822617 53.8437749,91.8662908 C53.0212732,91.5503199 52.0889889,91.8198622 51.5619991,92.5259984 C48.6709992,96.3689984 46.0739992,100.995998 47.5999992,103.774998 C50.5749991,109.199998 54.1729991,110.249998 55.4399991,106.574998 C56.328999,103.977998 54.5999991,99.6659983 55.0969991,93.8839984 Z" id="路径" fill="#FFFFFF" opacity="0.17"></path>
                        </g>
                        <g id="独家解决方案备份" transform="translate(35.000000, 135.000000)">
                            <rect id="Rectangle-3" fill="#FC790D" x="0" y="0" width="168.396783" height="32.9471966" rx="3.6022268"></rect>
                            <text id="独家方案" font-family="FZLTCHJW--GB1-0, FZLanTingHeiS-B-GB" font-size="18.011134" font-weight="normal" line-spacing="21.6133608" fill="#FFFFFF">
                                <tspan x="86.5413021" y="21.4033402">独家方案</tspan>
                            </text>
                            <g id="句客宝logo" transform="translate(7.497317, 6.604082)">
                                <path d="M8.40511241,-1.49213975e-13 C10.6847903,-1.49213975e-13 12.655993,0.815479062 14.3178861,2.44414973 C15.9791114,4.07380073 16.8103917,6.00670341 16.8103917,8.24155066 C16.8103917,13.2066434 13.2742787,16.8621659 6.20255331,19.2118763 L6.20255331,19.2118763 L6.20255331,16.1994564 C4.30863626,15.6681124 2.80131465,14.6547682 1.68092233,13.1584433 C0.559695389,11.6617917 0,10.0236445 0,8.24155066 C0,6.00670341 0.830278814,4.07380073 2.49250568,2.44414973 C4.15339716,0.815479062 6.12443299,-1.49213975e-13 8.40511241,-1.49213975e-13 Z M8.48188065,5.07685141 C6.73285343,5.03453343 5.28362129,6.24688659 5.24472805,7.78503924 C5.20600173,9.3230285 6.59230361,10.603842 8.34149776,10.6464868 C8.41177267,10.6486109 8.48054526,10.6443627 8.54948478,10.6425654 C8.54948478,10.6428922 8.8474437,10.8492537 9.17428043,11.0139507 C9.53867502,11.1971108 9.98636456,11.3201434 10.2465987,11.2982492 C10.5909624,11.2693292 10.6452127,11.0525107 10.5762731,10.941569 C10.510839,10.8358557 10.3964963,10.8311174 10.2859927,10.7631472 C10.1532883,10.6811255 10.0945312,10.6396244 10.0399471,10.5123437 C9.97735067,10.3657829 10.0497956,10.2569653 10.1875077,10.1842567 C10.1875077,10.1842567 10.1983577,10.1741266 10.2170532,10.1563171 C11.0194557,9.66925173 11.555281,8.86406623 11.5786504,7.93862576 C11.6175436,6.40079989 10.2312417,5.11949618 8.48188065,5.07685141 Z" id="形状结合" fill="#FFFFFF"></path>
                                <path d="M31.2752353,17.7809651 C31.661096,17.7809651 32.0780746,17.695755 32.5261709,17.5253349 C32.9742672,17.3549148 33.3912457,17.0810253 33.7771064,16.7036665 C34.1629672,16.3263077 34.4897041,15.8333067 34.7573171,15.2246635 C35.0249302,14.6160203 35.1649603,13.8734755 35.1774074,12.9970292 L35.1774074,12.9970292 L35.2707608,4.65253051 C35.2956551,4.23865311 35.1587368,3.88564004 34.8600059,3.59349128 C34.5488279,3.28916967 34.1567436,3.13700886 33.683753,3.13700886 L33.683753,3.13700886 L26.0474449,3.13700886 C26.1345747,2.89355156 26.215481,2.63487819 26.2901637,2.36098873 C26.3648465,2.08709928 26.4519763,1.79799374 26.5515533,1.49367213 C26.6137889,1.31107916 26.5951182,1.13761583 26.4955412,0.973282161 C26.3959643,0.808948488 26.2528224,0.69634949 26.0661156,0.635485166 C25.8669617,0.574620843 25.6833666,0.59288014 25.5153305,0.690263057 C25.3472944,0.787645975 25.2321585,0.927633919 25.1699229,1.11022689 C24.9583219,1.82842591 24.7560562,2.47358773 24.5631258,3.04571237 C24.3701955,3.61783701 24.1679298,4.14431341 23.9563287,4.62514157 C23.7447277,5.10596972 23.5113442,5.55636571 23.2561782,5.97632954 C23.0010123,6.39629338 22.7053932,6.81321399 22.3693209,7.22709139 C22.2448497,7.38533863 22.1950613,7.55880195 22.2199555,7.74748136 C22.2448497,7.93616076 22.3382031,8.09136478 22.5000157,8.21309343 C22.636934,8.31047635 22.7800759,8.35916781 22.9294413,8.35916781 C23.0290183,8.35916781 23.131707,8.33786529 23.2375076,8.29526027 C23.3433081,8.25265524 23.4335497,8.18266127 23.5082324,8.08527835 C23.9687759,7.51315371 24.3577484,6.95015872 24.6751499,6.39629338 C24.9925515,5.84242803 25.281947,5.21856872 25.5433365,4.52471543 L25.5433365,4.52471543 L33.683753,4.52471543 C33.7584358,4.52471543 33.8082242,4.54297473 33.8331185,4.57949332 C33.8455656,4.57949332 33.8517892,4.59775262 33.8517892,4.63427121 L33.8517892,4.63427121 L33.7397651,12.97877 C33.727318,13.6726232 33.6246292,14.2386614 33.4316989,14.6768846 C33.2387685,15.1151077 33.0116086,15.4620343 32.750219,15.7176645 C32.4888295,15.9732947 32.2181047,16.146758 31.9380445,16.2380545 C31.6579843,16.329351 31.4370479,16.3749992 31.2752353,16.3749992 L31.2752353,16.3749992 L30.8084683,16.3749992 C30.5968673,16.3628263 30.4226076,16.4236907 30.2856893,16.5575922 C30.148771,16.6914937 30.0803118,16.8558274 30.0803118,17.0505932 C30.0678647,17.2575319 30.1301003,17.427952 30.2670186,17.5618535 C30.4039369,17.695755 30.571973,17.7687922 30.771127,17.7809651 L30.771127,17.7809651 L31.2752353,17.7809651 Z M30.5653297,13.7639197 C30.9014019,13.7639197 31.1876857,13.6482775 31.424181,13.4169931 C31.6606762,13.1857087 31.7789239,12.9057328 31.7789239,12.5770654 L31.7789239,12.5770654 L31.7789239,7.99398187 C31.7789239,7.66531452 31.6606762,7.38533863 31.424181,7.1540542 C31.1876857,6.92276977 30.9014019,6.80712756 30.5653297,6.80712756 L30.5653297,6.80712756 L26.1963906,6.80712756 C25.8603183,6.80712756 25.5740346,6.92276977 25.3375393,7.1540542 C25.101044,7.38533863 24.9827964,7.66531452 24.9827964,7.99398187 L24.9827964,7.99398187 L24.9827964,12.5770654 C24.9827964,12.9057328 25.101044,13.1857087 25.3375393,13.4169931 C25.5740346,13.6482775 25.8603183,13.7639197 26.1963906,13.7639197 L26.1963906,13.7639197 L30.5653297,13.7639197 Z M30.3412815,12.3579539 L26.4204387,12.3579539 L26.4204387,8.19483413 L30.3412815,8.19483413 L30.3412815,12.3579539 Z M52.4656175,6.18631146 C52.6647715,6.18631146 52.8359194,6.11631749 52.9790612,5.97632954 C53.1222031,5.8363416 53.1937741,5.67505114 53.1937741,5.49245817 L53.1937741,5.49245817 L53.1937741,3.5021948 C53.1937741,3.17352745 53.0724146,2.89355156 52.8296958,2.66226714 C52.586977,2.43098271 52.2975814,2.31534049 51.9615092,2.31534049 L51.9615092,2.31534049 L47.7419355,2.31534049 L47.0884617,1.0189304 C46.9888847,0.848510298 46.8488546,0.729824868 46.6683714,0.662874112 C46.4878882,0.595923356 46.3105167,0.605053005 46.136257,0.690263057 C45.9619973,0.77547311 45.8375261,0.909374622 45.7628434,1.09196759 C45.6881607,1.27456056 45.7006078,1.4510671 45.8001848,1.62148721 L45.8001848,1.62148721 L46.1549277,2.2970812 L41.6366231,2.2970812 C41.2881038,2.2970812 40.9955965,2.41272341 40.7591012,2.64400784 C40.5226059,2.87529227 40.4043583,3.15526816 40.4043583,3.4839355 L40.4043583,3.4839355 L40.4043583,5.47419888 C40.4043583,5.68113758 40.4759292,5.85155768 40.6190711,5.98545919 C40.762213,6.1193607 40.9333609,6.18631146 41.1325148,6.18631146 C41.3316687,6.18631146 41.4997048,6.11631749 41.6366231,5.97632954 C41.7735415,5.8363416 41.8420006,5.67505114 41.8420006,5.49245817 L41.8420006,5.49245817 L41.8420006,3.72130636 L51.7561317,3.72130636 L51.7561317,5.49245817 C51.7561317,5.67505114 51.8245909,5.8363416 51.9615092,5.97632954 C52.0984275,6.11631749 52.2664636,6.18631146 52.4656175,6.18631146 Z M52.8577018,12.430991 C53.0319615,12.430991 53.1844387,12.3792564 53.3151335,12.275787 C53.4458282,12.1723177 53.5236227,12.0353729 53.548517,11.8649528 C53.5983055,11.670187 53.5671877,11.4936805 53.4551636,11.3354332 C53.3431395,11.177186 53.1875505,11.0798031 52.9883966,11.0432845 C51.9303914,10.8363458 51.0061927,10.6263639 50.2158006,10.4133387 C49.4254085,10.2003136 48.7314815,9.95989951 48.1340198,9.69209649 C48.78127,9.26604622 49.3569493,8.80347737 49.8610577,8.30438991 C50.365166,7.80530246 50.8101506,7.25143712 51.1960113,6.64279389 C51.270694,6.5332381 51.3111472,6.40846624 51.3173707,6.2684783 C51.3235943,6.12849035 51.3018118,6.00067527 51.2520233,5.88503306 C51.2022349,5.76939085 51.1244404,5.66896471 51.0186398,5.58375466 C50.9128393,5.49854461 50.7852563,5.45593958 50.6358909,5.45593958 L50.6358909,5.45593958 L45.202723,5.45593958 C45.2525115,5.35855666 45.2960764,5.27334661 45.3334178,5.20030942 C45.3707591,5.12727223 45.4081005,5.04206218 45.4454419,4.94467926 C45.5325717,4.77425916 45.541907,4.60079584 45.4734479,4.4242893 C45.4049887,4.24778276 45.2774057,4.11083803 45.0906989,4.01345512 C44.9164393,3.92824506 44.7390678,3.91911541 44.5585846,3.98606617 C44.3781013,4.05301693 44.2380712,4.17778879 44.1384943,4.36038176 C43.8148691,5.02988932 43.3978906,5.66287828 42.8875587,6.25934865 C42.3772268,6.85581902 41.7735415,7.3975115 41.0765027,7.88442608 C40.9022431,7.99398187 40.8026661,8.14309946 40.7777719,8.33177886 C40.7528776,8.52045826 40.790219,8.69392158 40.8897959,8.85216883 C41.0516085,9.04693466 41.2507624,9.14431758 41.4872577,9.14431758 C41.6490703,9.14431758 41.779765,9.09562612 41.879342,8.9982432 C42.1282844,8.8278231 42.3678914,8.65131656 42.5981632,8.46872359 C42.8284349,8.28613062 43.0493713,8.09136478 43.2609723,7.88442608 C43.5845974,8.21309343 43.9051108,8.5265447 44.2225123,8.82477988 C44.5399139,9.12301506 44.8790979,9.39994774 45.2400644,9.65557789 C43.9455639,10.2155297 42.4145681,10.6780985 40.6470771,11.0432845 C40.4479232,11.0798031 40.2923342,11.1802292 40.1803101,11.3445629 C40.068286,11.5088965 40.0371682,11.6884463 40.0869567,11.8832121 C40.1242981,12.0414594 40.2083161,12.1723177 40.3390109,12.275787 C40.4697056,12.3792564 40.6221829,12.430991 40.7964425,12.430991 C40.8586781,12.430991 40.9084666,12.4249046 40.945808,12.4127317 C42.0784959,12.1814473 43.1178304,11.9106011 44.0638115,11.600193 C45.0097927,11.289785 45.8810911,10.9398151 46.6777067,10.5502834 C47.4120868,10.9398151 48.2616028,11.2836985 49.2262546,11.5819337 C50.1909064,11.8801689 51.3578239,12.1571016 52.7270071,12.4127317 C52.7519013,12.4127317 52.7736838,12.415775 52.7923544,12.4218614 C52.8110251,12.4279478 52.8328076,12.430991 52.8577018,12.430991 Z M46.6590361,8.92520601 C46.2233869,8.64523013 45.8064083,8.33482208 45.4081005,7.99398187 C45.0097927,7.65314165 44.6114848,7.27578285 44.213177,6.86190545 L44.213177,6.86190545 L49.2355899,6.86190545 C48.5385512,7.66531452 47.6796999,8.35308137 46.6590361,8.92520601 Z M50.4118427,17.5435942 C50.7105736,17.5435942 50.9688514,17.4370816 51.186676,17.2240565 C51.4045006,17.0110314 51.5134129,16.7584444 51.5134129,16.4662957 L51.5134129,16.4662957 L51.5134129,13.289178 C51.5134129,12.9848564 51.4076123,12.726183 51.1960113,12.5131579 C50.9844103,12.3001327 50.7230207,12.1936202 50.4118427,12.1936202 L50.4118427,12.1936202 L43.1302775,12.1936202 C42.8315467,12.1936202 42.5732689,12.3001327 42.3554443,12.5131579 C42.1376197,12.726183 42.0287074,12.9909428 42.0287074,13.3074373 L42.0287074,13.3074373 L42.0287074,16.4662957 C42.0287074,16.7584444 42.1345079,17.0110314 42.346109,17.2240565 C42.55771,17.4370816 42.8190995,17.5435942 43.1302775,17.5435942 L43.1302775,17.5435942 L50.4118427,17.5435942 Z M50.0944412,16.1558876 L43.4663498,16.1558876 L43.4663498,13.5813268 L50.0944412,13.5813268 L50.0944412,16.1558876 Z M58.4398154,6.47846021 C58.6389693,6.47846021 58.8070054,6.40846624 58.9439237,6.2684783 C59.080842,6.12849035 59.1493012,5.96111346 59.1493012,5.76634763 L59.1493012,5.76634763 L59.1493012,4.26908527 L69.0634323,4.26908527 L69.0634323,5.76634763 C69.0634323,5.9489406 69.1318914,6.11023106 69.2688098,6.250219 C69.4057281,6.39020694 69.5737642,6.46020092 69.7729181,6.46020092 C69.972072,6.46020092 70.1432199,6.39020694 70.2863618,6.250219 C70.4295037,6.11023106 70.5010746,5.94285417 70.5010746,5.74808833 L70.5010746,5.74808833 L70.5010746,3.94041793 C70.5010746,3.63609631 70.382827,3.38046615 70.1463317,3.17352745 C69.9098364,2.96658875 69.6173291,2.8631194 69.2688098,2.8631194 L69.2688098,2.8631194 L65.403979,2.8631194 C65.3915319,2.77790935 65.3604141,2.6926993 65.3106256,2.60748924 L65.3106256,2.60748924 L64.2277262,0.98241181 C64.1281492,0.811991704 63.9818955,0.708522355 63.7889652,0.67200376 C63.5960348,0.635485166 63.4124398,0.665917328 63.2381801,0.763300246 C63.0639204,0.872856028 62.9581199,1.02197362 62.9207786,1.21065302 C62.8834372,1.39933243 62.9207786,1.57279575 63.0328026,1.73104299 L63.0328026,1.73104299 L63.7609592,2.8813787 L58.9439237,2.8813787 C58.5954044,2.8813787 58.302897,2.98789127 58.0664018,3.2009164 C57.8299065,3.41394153 57.7116588,3.66652847 57.7116588,3.95867722 L57.7116588,3.95867722 L57.7116588,5.76634763 C57.7116588,5.96111346 57.7832298,6.12849035 57.9263717,6.2684783 C58.0695135,6.40846624 58.2406614,6.47846021 58.4398154,6.47846021 Z M69.9036129,17.5253349 C70.1152139,17.5253349 70.2894736,17.4553409 70.4263919,17.315353 C70.5633102,17.1753651 70.6317694,17.0140746 70.6317694,16.8314816 C70.6317694,16.6367158 70.5601985,16.4693389 70.4170566,16.329351 C70.2739147,16.189363 70.1027668,16.119369 69.9036129,16.119369 L69.9036129,16.119369 L64.7505052,16.119369 L64.7505052,12.1753609 L68.8020428,12.1753609 C69.0136438,12.1753609 69.1879035,12.1084101 69.3248218,11.9745086 C69.4617401,11.8406071 69.5301993,11.6762734 69.5301993,11.4815076 C69.5301993,11.2867418 69.4586283,11.1193649 69.3154865,10.9793769 C69.1723446,10.839389 69.0011967,10.769395 68.8020428,10.769395 L68.8020428,10.769395 L64.7505052,10.769395 L64.7505052,8.04875976 L69.3995045,8.04875976 C69.6111056,8.04875976 69.7853652,7.981809 69.9222836,7.84790749 C70.0592019,7.71400598 70.127661,7.5496723 70.127661,7.35490647 C70.127661,7.16014063 70.0560901,6.99276375 69.9129482,6.8527758 C69.7698063,6.71278786 69.5986584,6.64279389 69.3995045,6.64279389 L69.3995045,6.64279389 L59.5973975,6.64279389 C59.3857965,6.64279389 59.2146486,6.71278786 59.0839538,6.8527758 C58.9532591,6.99276375 58.8879117,7.16014063 58.8879117,7.35490647 C58.8879117,7.5496723 58.9563708,7.71400598 59.0932892,7.84790749 C59.2302075,7.981809 59.3982436,8.04875976 59.5973975,8.04875976 L59.5973975,8.04875976 L63.2941922,8.04875976 L63.2941922,10.769395 L59.5973975,10.769395 C59.3857965,10.769395 59.2146486,10.839389 59.0839538,10.9793769 C58.9532591,11.1193649 58.8879117,11.2867418 58.8879117,11.4815076 C58.8879117,11.6762734 58.9563708,11.8406071 59.0932892,11.9745086 C59.2302075,12.1084101 59.3982436,12.1753609 59.5973975,12.1753609 L59.5973975,12.1753609 L63.2941922,12.1753609 L63.2941922,16.119369 L58.2344379,16.119369 C58.035284,16.119369 57.8672478,16.189363 57.7303295,16.329351 C57.5934112,16.4693389 57.524952,16.6367158 57.524952,16.8314816 C57.524952,17.0140746 57.596523,17.1753651 57.7396649,17.315353 C57.8828067,17.4553409 58.0477311,17.5253349 58.2344379,17.5253349 L58.2344379,17.5253349 L69.9036129,17.5253349 Z" id="句客宝" stroke="#FFFFFF" stroke-width="0.519999981" fill="#FFFFFF" fill-rule="nonzero"></path>
                                <circle id="椭圆形" stroke="#FFFFFF" stroke-width="0.975194876" fill="#FC790D" fill-rule="nonzero" cx="67.6411767" cy="14.1437834" r="1.40861482"></circle>
                            </g>
                        </g>
                    </g>
                </g>
            </g>
        </g>
    </g>
</svg>