<?xml version="1.0" encoding="UTF-8"?>
<svg width="111px" height="75px" viewBox="0 0 111 75" version="1.1" xmlns="http://www.w3.org/2000/svg" xmlns:xlink="http://www.w3.org/1999/xlink">
    <title>6</title>
    <defs>
        <linearGradient x1="96.2799638%" y1="49.8891536%" x2="7.32700136%" y2="47.2810028%" id="linearGradient-1">
            <stop stop-color="#E6E6E6" stop-opacity="0" offset="0%"></stop>
            <stop stop-color="#000000" offset="100%"></stop>
        </linearGradient>
    </defs>
    <g id="最新版备份" stroke="none" stroke-width="1" fill="none" fill-rule="evenodd">
        <g id="手机端-二版备份" transform="translate(-66.000000, -2360.000000)">
            <g id="亮点1备份-2" transform="translate(0.000000, 2268.000000)">
                <g id="编组-25" transform="translate(48.000000, 68.000000)">
                    <g id="6" transform="translate(18.000000, 24.000000)">
                        <ellipse id="椭圆形" fill="#E6E6E6" fill-rule="nonzero" opacity="0.45" cx="25.1842359" cy="70.0294381" rx="25.0671466" ry="4.7504802"></ellipse>
                        <rect id="矩形" fill="#E6E6E6" fill-rule="nonzero" x="27.1279183" y="0.183997473" width="76.5630211" height="54.0116217"></rect>
                        <circle id="椭圆形" fill="#24285B" fill-rule="nonzero" cx="33.3035426" cy="5.03149452" r="1.47197978"></circle>
                        <circle id="椭圆形" fill="#FC790D" fill-rule="nonzero" cx="37.6860278" cy="5.03149452" r="1.47197978"></circle>
                        <circle id="椭圆形" fill="#FFD200" fill-rule="nonzero" cx="41.8109166" cy="5.03149452" r="1.47197978"></circle>
                        <polygon id="路径" fill="#E6E6E6" fill-rule="nonzero" points="11.8092923 7.26622747 11.8092923 13.4117431 15.7802923 13.4117431 16.6467532 15.8572367 17.6737936 13.4117431 21.6447936 13.4117431 21.6447936 7.26622747"></polygon>
                        <path d="M16.2319225,11.7089301 L16.2319225,11.7089301 C16.1416244,11.7052777 16.0573765,11.6625433 16.0010893,11.5918408 L14.9640126,10.2536773 C14.9130758,10.1896619 14.8900467,10.1078397 14.9001162,10.0266539 C14.9101858,9.94546802 14.9525065,9.87175124 15.0175392,9.82211963 C15.0823072,9.77242848 15.1641633,9.75050386 15.2450976,9.76116961 C15.3260318,9.77183536 15.3994134,9.81421767 15.4490969,9.87899158 L16.2653766,10.9294499 L18.2726217,8.75493429 C18.3467241,8.67485592 18.4579188,8.64039359 18.5643199,8.66452894 C18.670721,8.68866429 18.7561636,8.76773057 18.7884623,8.87194428 C18.820761,8.976158 18.7950089,9.0896866 18.7209065,9.16976496 L16.4627557,11.6119132 C16.4035448,11.6762304 16.3193027,11.7116365 16.2319225,11.7089301 L16.2319225,11.7089301 Z" id="路径" fill="#000000" fill-rule="nonzero" opacity="0.12"></path>
                        <path d="M29.4128324,11.5617321 C29.4128324,11.5617321 30.9550657,11.9966352 30.8680851,14.4454743 C30.8478411,14.9999642 30.7625055,15.550154 30.613834,16.0847245 C29.9909065,18.2285884 29.8189062,20.4782616 30.1086773,22.6919065 L30.1287498,22.8290682 L44.6612047,37.1340354 L47.7322898,20.6712797 L48.0099587,15.0744111 C48.0099587,15.0744111 50.4320345,14.6696167 50.5156698,16.5698088 C50.599305,18.4700008 49.846588,22.3205661 49.846588,22.3205661 L50.8870101,22.819032 C50.8870101,22.819032 53.1317793,40.1348669 47.6821087,42.2224019 C44.8987287,43.2929326 42.0149865,42.8078484 39.7233816,42.9985367 C38.3729981,43.1178414 37.2206471,44.0237209 36.7858729,45.3077539 C36.3510987,46.591787 36.7160305,48.0114191 37.7161365,48.9266007 C38.9338652,50.0540034 40.1582848,51.7902704 40.0579225,54.1822376 L27.1279183,54.1822376 L27.4959132,43.5605653 L26.8268315,16.7972965 L29.4128324,11.5617321 Z" id="路径" fill="#000000" fill-rule="nonzero" opacity="0.08"></path>
                        <path d="M35.8226352,35.3944229 L42.3729452,39.9809781 C43.565326,40.8158428 45.1201765,40.9274562 46.4195771,40.2714617 C47.7189778,39.6154672 48.5524324,38.2981324 48.5887144,36.8429848 L48.9232553,23.0431744 L45.768535,23.0431744 L44.4102991,33.7886268 C44.4102991,33.7886268 42.0417498,25.0336925 31.8382536,21.0560017 C21.6347574,17.0783109 22.507909,26.5792713 35.8226352,35.3944229 Z" id="路径" fill="#FC790D" fill-rule="nonzero"></path>
                        <path d="M35.8226352,35.3944229 L42.3729452,39.9809781 C43.565326,40.8158428 45.1201765,40.9274562 46.4195771,40.2714617 C47.7189778,39.6154672 48.5524324,38.2981324 48.5887144,36.8429848 L48.9232553,23.0431744 L45.768535,23.0431744 L44.4102991,33.7886268 C44.4102991,33.7886268 42.0417498,25.0336925 31.8382536,21.0560017 C21.6347574,17.0783109 22.507909,26.5792713 35.8226352,35.3944229 Z" id="路径" fill="#FFFFFF" fill-rule="nonzero" opacity="0.46"></path>
                        <path d="M28.7705139,13.9168997 C28.9031365,14.8190606 28.9143878,15.7349158 28.803968,16.6400623 C28.7665994,16.8580824 28.6430384,17.0518808 28.4611473,17.177757 C28.2792563,17.3036332 28.0543504,17.3509883 27.8371449,17.3091441 C27.1276045,17.2139623 26.5390753,16.7130585 26.331711,16.0278526 L25.7596462,14.6127447 C25.582629,14.0135547 25.8040898,13.3679629 26.3116386,13.0036032 C27.1780994,12.2843404 28.6601154,12.919968 28.7705139,13.9168997 Z" id="路径" fill="#F4A28C" fill-rule="nonzero"></path>
                        <polygon id="路径" fill="#F4A28C" fill-rule="nonzero" points="26.0573875 15.007503 24.9166032 20.2597944 27.8572174 20.6813159 27.5059495 16.6902435"></polygon>
                        <path d="M25.6091028,15.8973816 L25.6091028,15.8973816 C25.6142018,15.9678457 25.6666244,16.0257864 25.7362283,16.0378888 C26.213917,16.1424056 26.702611,15.9151698 26.9305392,15.482551 C27.2025948,15.0097978 27.167077,14.4204655 26.8402131,13.9838079 C27.342694,14.0511455 27.8513617,14.0590057 28.3556832,14.0072258 C28.5259505,13.9926777 28.6923724,13.948525 28.8474583,13.8767548 L29.1819992,12.6222266 C29.1819992,12.6222266 29.7808273,11.3543168 29.041492,11.1301744 C28.3021567,10.906032 28.0077607,11.7524204 27.3888602,11.1903917 C26.7699596,10.6283631 26.6227616,10.4109115 26.0306243,10.7688703 C25.4384869,11.126829 26.1577498,11.5684229 25.1641634,11.618604 C24.1705771,11.6687852 24.1605409,12.0802704 24.1873041,12.5319006 C24.2145987,12.6851797 24.2881452,12.8264356 24.3980649,12.936695 C25.1126393,13.7658362 25.537754,14.8051358 25.6091028,15.8973816 L25.6091028,15.8973816 Z" id="路径" fill="#24285B" fill-rule="nonzero"></path>
                        <path d="M27.0978096,15.4223336 C27.0978096,15.4223336 27.0442831,14.7933968 26.5759259,14.8703412 C26.1075687,14.9472856 26.1711314,15.8739638 26.8201407,15.9040725 L27.0978096,15.4223336 Z" id="路径" fill="#F4A28C" fill-rule="nonzero"></path>
                        <polygon id="路径" fill="url(#linearGradient-1)" fill-rule="nonzero" opacity="0.08" points="47.6085097 13.870064 77.1953033 8.02898062 77.1953033 25.0905645 47.6085097 19.1792275"></polygon>
                        <path d="M28.8574945,14.9472856 L29.352615,15.5494591 C29.4088639,15.6194958 29.4256878,15.7133083 29.3972817,15.7985266 C29.3688756,15.883745 29.299129,15.9487006 29.2121078,15.9709806 L28.5932073,16.1248694 L28.8574945,14.9472856 Z" id="路径" fill="#F4A28C" fill-rule="nonzero"></path>
                        <path d="M27.542749,17.2221634 C27.542749,17.2221634 27.1647178,17.1719823 26.4655274,16.579845 C26.4655274,16.579845 26.4086554,17.6537211 27.6564928,18.3930564 L27.542749,17.2221634 Z" id="路径" fill="#CE8172" fill-rule="nonzero" opacity="0.31"></path>
                        <path d="M13.4451971,25.4819773 C13.8252374,22.2253932 16.5567048,19.7527717 19.8349276,19.6977658 C24.4582822,19.6141306 32.2129393,19.9888163 36.3043741,23.0732831 C42.3495274,27.6431112 30.3629284,45.8220615 30.3629284,45.8220615 L19.0086116,45.0659992 C19.0086116,45.0659992 12.5218644,33.618011 13.4451971,25.4819773 Z" id="路径" fill="#FC790D" fill-rule="nonzero"></path>
                        <rect id="矩形" fill="#FFD200" fill-rule="nonzero" transform="translate(27.657728, 34.724558) rotate(6.960000) translate(-27.657728, -34.724558) " x="23.1732077" y="29.1544523" width="8.96904044" height="11.1402106"></rect>
                        <path d="M21.9726436,23.0833193 C21.9726436,23.0833193 23.5081862,28.5062266 21.0493109,32.2898837 C18.5904356,36.0735409 19.32308,38.8067397 21.7451559,38.8067397 C24.1672317,38.8067397 28.9980017,35.9664878 28.9980017,35.9664878 L29.1819992,36.3311373 C29.7557749,37.4645433 29.519281,38.8400137 28.5998981,39.7166908 L22.7487784,45.3068686 L18.9985754,45.0559629 C18.9985754,45.0559629 15.318626,38.2146024 14.7733243,35.2003892 C14.2280227,32.1861761 21.9726436,23.0833193 21.9726436,23.0833193 Z" id="路径" fill="#000000" fill-rule="nonzero" opacity="0.08"></path>
                        <path d="M21.7451559,26.4019646 C23.5483311,22.8089958 19.8750725,18.9283218 16.1683597,20.4805914 C14.3560006,21.1874872 12.8609737,22.5268316 11.9598357,24.2508669 C8.94896799,30.1822763 2.37189469,37.7495906 7.79814743,41.5365931 C13.2244002,45.3235956 26.4688728,38.8870295 26.4688728,38.8870295 L25.5622671,35.8761618 C25.5622671,35.8761618 15.8605821,39.1479714 12.5921179,37.0035645 C12.5887725,36.9935282 18.5268728,32.8117675 21.7451559,26.4019646 Z" id="路径" fill="#FC790D" fill-rule="nonzero"></path>
                        <path d="M21.7451559,26.4019646 C23.5483311,22.8089958 19.8750725,18.9283218 16.1683597,20.4805914 C14.3560006,21.1874872 12.8609737,22.5268316 11.9598357,24.2508669 C8.94896799,30.1822763 2.37189469,37.7495906 7.79814743,41.5365931 C13.2244002,45.3235956 26.4688728,38.8870295 26.4688728,38.8870295 L25.5622671,35.8761618 C25.5622671,35.8761618 15.8605821,39.1479714 12.5921179,37.0035645 C12.5887725,36.9935282 18.5268728,32.8117675 21.7451559,26.4019646 Z" id="路径" fill="#FFFFFF" fill-rule="nonzero" opacity="0.46"></path>
                        <path d="M25.783064,36.6121516 C25.783064,36.6121516 27.9040531,35.026428 29.0013471,35.9698332 C30.0986411,36.9132384 26.3852376,38.6193968 26.3852376,38.6193968 L25.783064,36.6121516 Z" id="路径" fill="#F4A28C" fill-rule="nonzero"></path>
                        <path d="M19.0086116,45.0559629 L13.1641828,68.2463353 L15.8639276,68.3199343 L21.6949747,54.7442662 C23.343792,50.9091764 26.3104433,47.7906325 30.0584962,45.9525324 L30.3729646,45.7986436 L19.0086116,45.0559629 Z" id="路径" fill="#24285B" fill-rule="nonzero"></path>
                        <path d="M30.3629284,45.8120253 L32.8117675,49.8800421 C34.4809843,52.6526624 34.89906,56.0021296 33.962588,59.0999882 L31.1725173,68.3333159 L28.5932073,68.3333159 L29.8878804,58.5011601 C30.1883299,56.2306983 29.4112472,53.9501834 27.7869638,52.335572 L23.5081862,48.0835577 L30.3629284,45.8120253 Z" id="路径" fill="#24285B" fill-rule="nonzero"></path>
                        <rect id="矩形" fill="#FFD200" fill-rule="nonzero" x="47.2070607" y="18.3261483" width="1" height="4.71702612"></rect>
                        <rect id="矩形" fill="#000000" fill-rule="nonzero" opacity="0.08" x="47.2070607" y="18.3261483" width="1" height="4.71702612"></rect>
                        <ellipse id="椭圆形" fill="#FFD200" fill-rule="nonzero" cx="47.6085097" cy="16.5263185" rx="1.80652064" ry="2.65625442"></ellipse>
                        <ellipse id="椭圆形" fill="#FFFFFF" fill-rule="nonzero" opacity="0.46" cx="47.6085097" cy="16.5263185" rx="1" ry="1.4385257"></ellipse>
                        <path d="M15.3085897,68.2965164 C15.3085897,68.2965164 15.5528046,69.4741003 16.5530817,69.7049335 C17.5533589,69.9357667 17.6737936,70.9661525 16.727043,71.093278 C15.7802923,71.2204036 13.5990859,69.7116243 13.5990859,69.7116243 L13.8767548,68.2597169 L15.3085897,68.2965164 Z" id="路径" fill="#FC790D" fill-rule="nonzero"></path>
                        <path d="M30.6907784,68.2965164 C30.6907784,68.2965164 30.9316479,69.4741003 31.931925,69.7049335 C32.9322022,69.9357667 33.0526369,70.9661525 32.1058863,71.093278 C31.1591356,71.2204036 28.9812746,69.7116243 28.9812746,69.7116243 L29.2555982,68.2597169 L30.6907784,68.2965164 Z" id="路径" fill="#FC790D" fill-rule="nonzero"></path>
                        <path d="M46.407508,23.0431744 C46.407508,23.0431744 46.1231483,21.099492 47.7456714,20.6813159 C49.3681946,20.2631399 48.9433277,23.0431744 48.9433277,23.0431744 L46.407508,23.0431744 Z" id="路径" fill="#F4A28C" fill-rule="nonzero"></path>
                        <rect id="矩形" fill="#F2F2F2" fill-rule="nonzero" x="78.2859065" y="8.02898062" width="32.3099562" height="42.3762907"></rect>
                        <circle id="椭圆形" stroke="#E6E6E6" stroke-width="2.67632687" cx="94.4408846" cy="23.0431744" r="8.59770009"></circle>
                        <path d="M94.4408846,31.640886 C92.3382872,31.6443183 90.3079533,30.8738632 88.7369629,29.4763951" id="路径" stroke="#24285B" stroke-width="2.67632687"></path>
                        <path d="M94.4408846,14.4454743 C99.1892632,14.4454743 103.038585,18.2947958 103.038585,23.0431744" id="路径" stroke="#FC790D" stroke-width="2.67632687"></path>
                        <path d="M103.038585,23.0431744 C103.038585,27.791553 99.1892632,31.6408745 94.4408846,31.6408745" id="路径" stroke="#FFD200" stroke-width="2.67632687"></path>
                        <path d="M94.6750632,19.32308 C94.8690969,19.32308 94.9259688,19.3899882 94.9259688,19.5806765 L94.9259688,19.9921618 C95.6165299,20.0632731 96.2105911,20.5117184 96.4682022,21.1563639 C96.5685645,21.3570885 96.5250742,21.4641415 96.3009318,21.5645038 L95.8894465,21.7485013 C95.6987582,21.8421727 95.6050868,21.7986824 95.4980337,21.5979579 C95.3196929,21.1714984 94.8842495,20.9110463 94.4241576,20.9556394 C93.7115855,20.9556394 93.3870809,21.1630548 93.3870809,21.6247211 C93.4208886,21.9250313 93.6614687,22.1600166 93.9624912,22.1867498 C94.1620517,22.2305403 94.3643574,22.2607185 94.5680101,22.2770758 C94.9476931,22.2971 95.3226887,22.3702973 95.6820312,22.4945274 C95.8606184,22.553666 96.0271722,22.6443075 96.1738063,22.7621601 C96.4737089,23.0779909 96.6340445,23.5011323 96.6187456,23.9363985 C96.6187456,24.849695 96.0065358,25.4685956 94.9259688,25.6258298 L94.9259688,26.094187 C94.9259688,26.2848753 94.8690969,26.3517835 94.6750632,26.3517835 L94.2167422,26.3517835 C94.0227085,26.3517835 93.9558004,26.2848753 93.9558004,26.094187 L93.9558004,25.6659747 C93.1892342,25.6112024 92.530137,25.1023794 92.2830961,24.374647 C92.2161879,24.1906495 92.2830961,24.0668694 92.4771298,23.989925 L92.888615,23.8393816 C93.0960303,23.7657826 93.1897018,23.8159638 93.2800278,24.0233791 C93.4544642,24.4868828 93.9177545,24.7760965 94.4107759,24.7292603 C95.1802199,24.7292603 95.5682873,24.4850455 95.5682873,23.989925 C95.5792701,23.7551759 95.4310063,23.5423898 95.2069832,23.4713867 C94.9394945,23.3791062 94.6600269,23.3261425 94.3773218,23.3141525 C93.9934459,23.2906433 93.6154632,23.2082769 93.25661,23.0699377 C93.0788056,23.006677 92.9134868,22.9126944 92.7681803,22.7922687 C92.4647862,22.4932355 92.3009197,22.0805346 92.3165501,21.6548298 C92.3165501,20.7515695 92.888615,20.1460506 93.9591458,20.0055434 L93.9591458,19.5806765 C93.9591458,19.3899882 94.0260539,19.32308 94.2200876,19.32308 L94.6750632,19.32308 Z" id="路径" fill="#A5A5A5" fill-rule="nonzero"></path>
                        <rect id="矩形" fill="#A5A5A5" fill-rule="nonzero" x="89.212011" y="36.4649537" width="10.9829764" height="2.67632687"></rect>
                        <rect id="矩形" fill="#A5A5A5" fill-rule="nonzero" opacity="0.19" x="89.212011" y="41.8176074" width="10.9829764" height="2.67632687"></rect>
                        <rect id="矩形" fill="#FFFFFF" fill-rule="nonzero" x="50.8870101" y="43.9352511" width="24.1739225" height="6.02173547"></rect>
                        <rect id="矩形" fill="#FC790D" fill-rule="nonzero" x="66.720829" y="43.9352511" width="8.34010362" height="6.02173547"></rect>
                        <rect id="矩形" fill="#FC790D" fill-rule="nonzero" x="59.1468239" y="32.5675527" width="3.82380202" height="6.05184415"></rect>
                        <rect id="矩形" fill="#FC790D" fill-rule="nonzero" x="53.6770809" y="36.1371036" width="3.82380202" height="2.48229318"></rect>
                        <rect id="矩形" fill="#FC790D" fill-rule="nonzero" x="64.4258787" y="27.231626" width="3.82380202" height="11.3877709"></rect>
                        <rect id="矩形" fill="#FC790D" fill-rule="nonzero" x="70.1967085" y="20.6846613" width="3.82380202" height="17.9347355"></rect>
                        <rect id="矩形" fill="#000000" fill-rule="nonzero" opacity="0.08" x="59.1468239" y="32.5675527" width="3.82380202" height="6.05184415"></rect>
                        <rect id="矩形" fill="#000000" fill-rule="nonzero" opacity="0.08" x="70.1967085" y="20.6846613" width="3.82380202" height="17.9347355"></rect>
                    </g>
                </g>
            </g>
        </g>
    </g>
</svg>