<?xml version="1.0" encoding="UTF-8"?>
<svg width="108px" height="77px" viewBox="0 0 108 77" version="1.1" xmlns="http://www.w3.org/2000/svg" xmlns:xlink="http://www.w3.org/1999/xlink">
    <title>4</title>
    <g id="最新版备份" stroke="none" stroke-width="1" fill="none" fill-rule="evenodd">
        <g id="手机端-二版备份" transform="translate(-66.000000, -1392.000000)" fill-rule="nonzero">
            <g id="亮点1备份" transform="translate(0.000000, 1306.000000)">
                <g id="编组-25" transform="translate(48.000000, 68.000000)">
                    <g id="4" transform="translate(72.000000, 56.500000) scale(-1, 1) translate(-72.000000, -56.500000) translate(18.000000, 18.000000)">
                        <path d="M69.3957568,53.5162296 C69.3957568,53.5162296 83.3489962,55.3684295 83.8781962,47.8220378 C84.4073961,40.2756462 81.5849963,39.3266142 87.582596,36.8040943 C93.5801957,34.2815744 89.3465959,42.73819 94.2857957,41.7715181 C99.2249955,40.8048461 92.5217958,32.8774305 96.9317956,31.0217026 C101.341795,29.1659747 108.926995,32.3411745 106.633795,38.5151742 C104.340595,44.689174 98.1665955,43.37323 97.8137955,47.8220378 C97.4609956,52.2708456 105.575395,56.6808454 98.5193955,60.1206453 C94.7973557,61.9375652 91.7597478,60.6780692 89.7240919,59.0798853 C87.8027646,57.5336448 85.2954126,56.917464 82.8762442,57.3970294 C79.2717376,58.1648145 75.5124,57.6546721 72.2428527,55.9540774 L69.3957568,53.5162296 Z" id="路径" fill="#E6E6E6" opacity="0.54"></path>
                        <path d="M39.1607982,57.9967894 C39.1607982,57.9967894 39.0655422,59.2986213 38.0212543,59.6902293 C36.9769663,60.0818373 36.9910783,61.2107972 38.0212543,61.2107972 C39.0514302,61.2107972 41.1964541,59.2774533 41.1964541,59.2774533 L40.6919501,57.7498294 L39.1607982,57.9967894 Z" id="路径" fill="#FC790D"></path>
                        <path d="M39.1607982,57.9967894 C39.1607982,57.9967894 39.0655422,59.2986213 38.0212543,59.6902293 C36.9769663,60.0818373 36.9910783,61.2107972 38.0212543,61.2107972 C39.0514302,61.2107972 41.1964541,59.2774533 41.1964541,59.2774533 L40.6919501,57.7498294 L39.1607982,57.9967894 Z" id="路径" fill="#000000" opacity="0.08"></path>
                        <path d="M39.0055662,33.4595505 C39.0055662,33.4595505 35.0330384,31.9107585 34.6414304,33.4595505 C34.2498224,35.0083424 39.5982702,35.7104144 39.5982702,35.7104144 L39.0055662,33.4595505 Z" id="路径" fill="#F4A28C"></path>
                        <path d="M39.0055662,33.4595505 C39.0055662,33.4595505 35.0330384,31.9107585 34.6414304,33.4595505 C34.2498224,35.0083424 39.5982702,35.7104144 39.5982702,35.7104144 L39.0055662,33.4595505 Z" id="路径" fill="#000000" opacity="0.08"></path>
                        <ellipse id="椭圆形" fill="#E6E6E6" opacity="0.45" cx="47.2046378" cy="70.7081728" rx="47.0317659" ry="5.95173573"></ellipse>
                        <path d="M31.2898306,7.82157564 C31.2898306,7.82157564 31.0957906,10.4287675 31.5579586,12.1539594 C31.7456554,12.8529623 32.4638078,13.2680702 33.1631985,13.0818234 C34.0275584,12.8383914 35.1282944,12.2562714 35.4034784,10.8697675 L36.1549423,8.57656761 C36.3653342,7.60495247 35.9414841,6.60607914 35.0965424,6.08227172 C33.6112545,5.04151177 31.3286386,6.22691972 31.2898306,7.82157564 Z" id="路径" fill="#F4A28C"></path>
                        <polygon id="路径" fill="#F4A28C" points="33.7029825 8.41780762 41.4681101 12.0304795 39.1713822 16.1688233 34.5602864 11.9881435"></polygon>
                        <path d="M31.9389825,7.92035964 C32.7478918,7.94474034 33.5568202,7.87249344 34.3486064,7.70515165 C33.8798022,8.43666073 33.8908964,9.37689181 34.3768304,10.0971355 C34.8364219,10.8151814 35.7437688,11.1017901 36.5324383,10.7780395 L36.4442383,7.40879966 C36.4541842,6.42989988 35.9256654,5.52464194 35.0683184,5.05209577 C34.7038351,4.84942059 34.326743,4.67030185 33.9393585,4.51583979 C32.9656305,4.14187181 31.5579586,4.80513578 30.6830146,4.16303981 C30.5036642,4.03356459 30.2696432,4.00736732 30.066103,4.09398018 C29.8625627,4.18059304 29.7191771,4.36738887 29.6881186,4.58639979 C29.5505267,5.61304774 29.7551506,7.21475967 31.1416546,7.76159965 C31.3968353,7.85820272 31.6662612,7.91184946 31.9389825,7.92035964 L31.9389825,7.92035964 Z" id="路径" fill="#24285B"></path>
                        <path d="M34.0981184,10.0230475 C34.0981184,10.0230475 34.0981184,9.01756759 34.8601664,9.08459959 C35.6222144,9.15163158 35.6186864,10.6086955 34.5920384,10.7568715 L34.0981184,10.0230475 Z" id="路径" fill="#F4A28C"></path>
                        <path d="M31.2545506,9.46915157 L30.5489506,10.4852155 C30.4657794,10.6024003 30.4483212,10.7539827 30.5026751,10.8870066 C30.557029,11.0200306 30.6756429,11.1160136 30.8170786,11.1414235 L31.8190305,11.3142955 L31.2545506,9.46915157 Z" id="路径" fill="#F4A28C"></path>
                        <path d="M38.8997262,33.4172145 L47.8890698,31.1381266 C47.8890698,31.1381266 38.7868302,27.3878627 40.9918301,20.6352711 C43.19683,13.8826794 55.5095495,33.0926385 55.5095495,33.0926385 L39.7535022,35.8938704 L38.8997262,33.4172145 Z" id="路径" fill="#FC790D"></path>
                        <path d="M38.8997262,33.4172145 L47.8890698,31.1381266 C47.8890698,31.1381266 38.7868302,27.3878627 40.9918301,20.6352711 C43.19683,13.8826794 55.5095495,33.0926385 55.5095495,33.0926385 L39.7535022,35.8938704 L38.8997262,33.4172145 Z" id="路径" fill="#000000" opacity="0.08"></path>
                        <path d="M74.2008926,37.3262383 C74.2008926,37.3262383 75.1111166,45.7934379 64.692933,45.1407579 C59.3374293,44.809126 53.1422616,44.73151 48.3829898,44.735038 C46.4620838,44.7373273 44.6403841,45.5884147 43.406037,47.0602409 C42.1716898,48.5320671 41.6508922,50.474156 41.9831981,52.3661016 L42.872254,57.4534774 L39.4218702,58.2296373 L38.1023983,52.7047896 C36.578272,46.2629382 40.3407067,39.7498421 46.6824939,37.8519103 L53.2163496,35.8938704 L74.2008926,37.3262383 Z" id="路径" fill="#24285B"></path>
                        <path d="M44.668006,38.1023983 C44.668006,38.1023983 36.3595663,40.0145742 36.7511743,49.4907817 L38.5151742,58.2472773 L40.8224861,57.8168614 C40.8224861,57.8168614 38.4199182,40.9918301 47.2116938,38.7444942 L47.2116938,37.7178463 L44.668006,38.1023983 Z" id="路径" fill="#24285B"></path>
                        <path d="M37.5273343,17.7705352 L41.4681101,12.0304795 C41.4681101,12.0304795 45.5429499,9.97718354 54.2712215,10.7568715 C62.9994931,11.5365595 75.4991966,18.3067912 74.2008926,37.3262383 L55.4813255,37.7813503 C55.4813255,37.7813503 59.6584773,31.8719505 51.8615976,31.4838706 C44.064718,31.0957906 34.5426464,28.7884787 37.5273343,17.7705352 Z" id="路径" fill="#FC790D"></path>
                        <path d="M53.3504136,18.5819752 C53.3504136,18.5819752 66.8697089,20.6564391 67.3636289,37.4920543 L53.9783975,38.0741743 L55.9823014,31.4838706 L53.3504136,18.5819752 Z" id="路径" fill="#000000" opacity="0.08"></path>
                        <path d="M48.7181498,8.8199996 C48.7181498,8.8199996 37.6543423,9.52559957 37.5837823,17.5271032 C37.5132223,25.5286068 43.67311,29.3529587 49.9317817,30.7782706 C57.6016534,32.5246305 65.349141,28.3792307 67.3565729,19.9367271 L64.3930531,17.1354952 C64.3930531,17.1354952 62.6290531,25.7332308 54.6204935,25.1475829 C46.6119339,24.5619349 33.7276785,14.9375513 51.4452937,11.4977515 L48.7181498,8.8199996 Z" id="路径" fill="#24285B"></path>
                        <path d="M46.7213019,14.8846313 C45.0848813,14.2943184 43.254679,14.7045834 42.0268391,15.9369595 C40.7989993,17.1693357 40.3954865,19.0010386 40.9918301,20.6352711 L41.0482781,20.7834471 C43.00279,25.8002628 53.2269336,31.9213425 53.2269336,31.9213425 L39.4218702,34.2639344 L40.0710222,37.4391343 C40.0710222,37.4391343 54.6628295,40.2403662 60.0006933,35.8762304 C64.915197,31.8860625 58.0567653,18.9841671 46.7213019,14.8846313 Z" id="路径" fill="#FC790D"></path>
                        <path d="M46.7213019,14.8846313 C45.0848813,14.2943184 43.254679,14.7045834 42.0268391,15.9369595 C40.7989993,17.1693357 40.3954865,19.0010386 40.9918301,20.6352711 L41.0482781,20.7834471 C43.00279,25.8002628 53.2269336,31.9213425 53.2269336,31.9213425 L39.4218702,34.2639344 L40.0710222,37.4391343 C40.0710222,37.4391343 54.6628295,40.2403662 60.0006933,35.8762304 C64.915197,31.8860625 58.0567653,18.9841671 46.7213019,14.8846313 Z" id="路径" fill="#FFFFFF" opacity="0.46"></path>
                        <polygon id="路径" fill="#24285B" points="50.5139017 66.506325 63.4263811 66.506325 72.5709567 57.3053014 69.9672928 53.0223096 52.2496776 59.3409573"></polygon>
                        <path d="M47.1058538,10.9050475 C47.1058538,10.9050475 46.0298139,4.3394398 51.4064857,2.2861439 C56.4479974,0.352799984 70.8669328,2.92471187 75.2310686,16.0206473 C75.7212525,17.5188655 75.2154489,19.1634337 73.9680446,20.1272391 L72.4545327,21.305591 C71.4657733,22.0814062 70.2082889,22.430553 68.961087,22.2755635 C67.7138851,22.1205739 66.5801057,21.4742654 65.811309,20.4800391 C62.9148211,16.6909672 57.1712374,11.5400875 47.1058538,10.9050475 Z" id="路径" fill="#24285B"></path>
                        <path d="M32.1047985,31.5332626 L30.4960306,31.7519986 C29.7943669,31.8477106 29.1607463,32.2217801 28.7379762,32.7898982 C28.3152061,33.3580162 28.1388641,34.0723737 28.2486947,34.7719664 L28.4427347,36.0173504 C28.654404,37.3557474 29.8077912,38.3415868 31.1628226,38.3423022 L31.2545506,38.3423022 C31.2545506,38.3423022 22.226399,46.1180139 20.988071,51.8615976 L31.0640386,64.0614211 C32.3448151,65.6217633 34.2562203,66.5276426 36.2748943,66.531021 L50.5139017,66.531021 C50.5139017,66.531021 54.4652615,56.6949574 71.7242367,55.9152694 C71.7242367,55.9152694 73.4882366,51.3535657 68.7289649,47.3175338 L50.5139017,48.5523338 L46.5166779,51.2230297 L47.0176539,54.7051655 C47.3734328,57.1488049 45.9497184,59.5024429 43.62019,60.3217412 L43.62019,60.3217412 C40.7876048,61.3184127 37.6346659,60.4072488 35.7703904,58.0532373 C33.0503025,54.6275495 30.5736466,48.8804378 34.6026224,41.2599581 C34.6026224,41.2599581 39.6617742,34.0734224 34.8143024,31.9072305 C33.9636143,31.532575 33.0251689,31.40305 32.1047985,31.5332626 Z" id="路径" fill="#FFD200"></path>
                        <polygon id="路径" fill="#FFD200" points="29.8786306 31.9178145 31.1592946 38.3423022 28.2839747 38.3423022 27.3702228 32.7680625"></polygon>
                        <polygon id="路径" fill="#FFFFFF" opacity="0.51" points="29.8786306 31.9178145 31.1592946 38.3423022 28.2839747 38.3423022 27.3702228 32.7680625"></polygon>
                        <path d="M39.4218702,34.9271984 C39.4218702,34.9271984 35.4493424,33.3748785 35.0577344,34.9271984 C34.6661264,36.4795183 39.9969342,37.1780623 39.9969342,37.1780623 L39.4218702,34.9271984 Z" id="路径" fill="#F4A28C"></path>
                        <circle id="椭圆形" fill="#FFD200" cx="35.0365664" cy="36.2748943" r="1.50645593"></circle>
                        <circle id="椭圆形" fill="#24285B" cx="19.8414711" cy="63.6486451" r="8.10028763"></circle>
                        <circle id="椭圆形" fill="#FFFFFF" cx="19.8414711" cy="63.6486451" r="5.41900775"></circle>
                        <path d="M19.8414711,69.5968528 C17.4356456,69.5968528 15.2667133,68.1476185 14.3460437,65.9249256 C13.4253742,63.7022328 13.9342776,61.1438026 15.6354531,59.4426271 C17.3366286,57.7414516 19.8950588,57.2325482 22.1177516,58.1532177 C24.3404445,59.0738873 25.7896788,61.2428196 25.7896788,63.6486451 C25.7877326,66.932943 23.125769,69.5949066 19.8414711,69.5968528 Z M19.8414711,58.7588373 C17.1409048,58.7588373 14.9516633,60.9480788 14.9516633,63.6486451 C14.9516633,66.3492114 17.1409048,68.5384529 19.8414711,68.5384529 C22.5420374,68.5384529 24.7312789,66.3492114 24.7312789,63.6486451 C24.7293331,60.9488852 22.541231,58.7607831 19.8414711,58.7588373 L19.8414711,58.7588373 Z" id="形状" fill="#FC790D"></path>
                        <path d="M58.6988613,59.4714933 C58.6988613,59.4714933 55.5236615,63.3805171 54.8568695,66.506325 L62.2656692,66.506325 L64.675293,62.2056932 L62.3926772,58.2296373 L58.6988613,59.4714933 Z" id="路径" fill="#FFFFFF" opacity="0.11"></path>
                        <circle id="椭圆形" fill="#24285B" cx="68.8771409" cy="63.6486451" r="8.10028763"></circle>
                        <circle id="椭圆形" fill="#FFFFFF" cx="68.8771409" cy="63.6486451" r="5.41900775"></circle>
                        <path d="M68.8736129,69.5968528 C65.5889684,69.5949046 62.927635,66.9309393 62.9289331,63.6462945 C62.9302322,60.3616497 65.5936712,57.6997895 68.8783162,57.7004384 C72.1629611,57.7010875 74.8253486,60.3640001 74.8253486,63.6486451 C74.8214571,66.9335136 72.1584831,69.5949091 68.8736129,69.5968528 L68.8736129,69.5968528 Z M68.8736129,58.7588373 C66.1735067,58.7607854 63.9860351,60.9508889 63.9873331,63.6509954 C63.9886322,66.3511019 66.1782092,68.5391004 68.878316,68.5384516 C71.5784228,68.5378025 73.7669486,66.3487519 73.7669486,63.6486451 C73.7630584,60.9483146 71.5739454,58.76078 68.8736129,58.7588373 L68.8736129,58.7588373 Z" id="形状" fill="#FC790D"></path>
                        <circle id="椭圆形" fill="#000000" opacity="0.08" cx="35.0365664" cy="36.2748943" r="1.50645593"></circle>
                        <path d="M20.988071,51.8615976 C20.988071,51.8615976 16.3699193,52.4084376 13.9849914,56.2786534 C13.7880805,56.5919287 13.7952886,56.9920558 14.0033549,57.2980356 C14.2114212,57.6040155 14.5808808,57.7578115 14.9446073,57.6898534 C17.7246712,57.2065174 23.3800549,57.2206294 29.9985826,62.7807571 L20.988071,51.8615976 Z" id="路径" fill="#FFD200"></path>
                        <path d="M20.988071,51.8615976 C20.988071,51.8615976 16.3699193,52.4084376 13.9849914,56.2786534 C13.7880805,56.5919287 13.7952886,56.9920558 14.0033549,57.2980356 C14.2114212,57.6040155 14.5808808,57.7578115 14.9446073,57.6898534 C17.7246712,57.2065174 23.3800549,57.2206294 29.9985826,62.7807571 L20.988071,51.8615976 Z" id="路径" fill="#000000" opacity="0.08"></path>
                        <path d="M46.7989179,51.1983337 C46.7989179,51.1983337 42.6887981,47.9102378 44.452798,45.0772539 C46.2167979,42.2442701 54.5146535,45.2712939 60.9638372,43.122742 C67.4130209,40.9741901 73.4353166,42.6676301 69.0076768,47.2928378 L46.7989179,51.1983337 Z" id="路径" fill="#FFD200"></path>
                        <path d="M46.7989179,51.1983337 C46.7989179,51.1983337 42.6887981,47.9102378 44.452798,45.0772539 C46.2167979,42.2442701 54.5146535,45.2712939 60.9638372,43.122742 C67.4130209,40.9741901 73.4353166,42.6676301 69.0076768,47.2928378 L46.7989179,51.1983337 Z" id="路径" fill="#000000" opacity="0.17"></path>
                        <ellipse id="椭圆形" fill="#FFD200" transform="translate(57.412693, 2.039209) rotate(-81.310000) translate(-57.412693, -2.039209) " cx="57.4126933" cy="2.03920939" rx="1.41825594" ry="2.68833588"></ellipse>
                        <path d="M54.6240215,61.5106772 C54.6240215,61.5106772 50.1575737,57.1253734 54.6240215,53.7490775 C58.6247733,50.7149977 67.7834609,48.8310458 73.5552686,52.8741336 C74.0095747,53.2018569 74.2564735,53.7455681 74.2042537,54.3033043 C74.1520339,54.8610405 73.8084978,55.3494704 73.3012527,55.5871655 C69.4486768,57.4252534 61.0908452,61.0873172 54.6240215,61.5106772 Z" id="路径" fill="#FFD200"></path>
                        <path d="M54.6240215,61.5106772 C54.6240215,61.5106772 50.1575737,57.1253734 54.6240215,53.7490775 C58.6247733,50.7149977 67.7834609,48.8310458 73.5552686,52.8741336 C74.0095747,53.2018569 74.2564735,53.7455681 74.2042537,54.3033043 C74.1520339,54.8610405 73.8084978,55.3494704 73.3012527,55.5871655 C69.4486768,57.4252534 61.0908452,61.0873172 54.6240215,61.5106772 Z" id="路径" fill="#000000" opacity="0.08"></path>
                        <path d="M74.1832526,54.4088135 C75.1308557,55.9260392 76.3508937,57.2549238 77.7818124,58.3284213 C77.9860626,58.484095 78.0501763,58.7633306 77.9342898,58.9925091 C77.8184034,59.2216875 77.5555069,59.335567 77.3090605,59.2633413 C75.2868872,58.6993287 73.4633078,57.5797585 72.0452847,56.0316934 L74.1832526,54.4088135 Z" id="路径" fill="#FFD200"></path>
                        <path d="M30.2384866,3.31984785 C29.5259293,3.79103972 29.049425,4.54496969 28.9295987,5.39078375 C28.7990627,6.33628771 28.8625667,7.50758366 29.8504066,7.95211164 C31.6144066,8.7353276 33.6923985,8.41780762 33.6923985,8.41780762 C33.6923985,8.41780762 33.5159985,11.8117435 35.9573744,11.6635675 C38.3987502,11.5153915 38.8397502,7.51463966 38.0530063,5.46134375 C37.3297663,3.55269584 34.4967824,0.493919977 30.2384866,3.31984785 Z" id="路径" fill="#FC790D"></path>
                        <path d="M29.0707187,7.12655967 C29.0707187,7.12655967 25.5638868,9.12340758 27.1267908,9.71258356 C28.6896947,10.3017595 33.7029825,8.41780762 33.7029825,8.41780762 C33.7029825,8.41780762 29.7480946,8.8376396 29.0707187,7.12655967 Z" id="路径" fill="#24285B"></path>
                        <path d="M40.8154301,57.7992214 C40.8154301,57.7992214 40.7201741,59.1045813 39.6758862,59.4961893 C38.6315982,59.8877973 38.6457102,61.0132292 39.6758862,61.016762 C40.7060621,61.0202852 42.851086,59.0798853 42.851086,59.0798853 L42.3465821,57.5557894 L40.8154301,57.7992214 Z" id="路径" fill="#FC790D"></path>
                        <circle id="椭圆形" fill="#FFFFFF" opacity="0.46" cx="35.5304864" cy="8.13556763" r="1.43236793"></circle>
                        <path d="M27.7688867,47.3175338 C27.8098709,46.875352 27.5518026,46.4598586 27.1372618,46.3006092 C26.7227209,46.1413599 26.2528496,46.2772092 25.9872468,46.6331019 C24.5301829,48.5699738 23.2212949,50.9019817 23.9903989,52.3025976 C25.4897988,55.0367975 27.3031908,55.5659975 27.9417587,53.7137975 C28.3898147,52.4049096 27.5183987,50.2316617 27.7688867,47.3175338 Z" id="路径" fill="#FFFFFF" opacity="0.17"></path>
                    </g>
                </g>
            </g>
        </g>
    </g>
</svg>