<?xml version="1.0" encoding="UTF-8"?>
<svg width="1440px" height="780px" viewBox="0 0 1440 780" version="1.1" xmlns="http://www.w3.org/2000/svg" xmlns:xlink="http://www.w3.org/1999/xlink">
    <title>2</title>
    <script type="text/javascript">
      function showMask() {
        var pwindow = window.parent;
        var mask = pwindow.document.getElementById('mask');
        mask.style.display = 'block';
        mask.className = '';
        var contactUs = pwindow.document.getElementById('contact');
        contactUs.className = 'contact contact-active';
      }
    </script>
    <defs>
        <linearGradient x1="92.852105%" y1="33.597333%" x2="4.39941406%" y2="71.1787396%" id="linearGradient-1">
            <stop stop-color="#FE8C00" offset="0%"></stop>
            <stop stop-color="#F83600" offset="100%"></stop>
        </linearGradient>
        <rect id="path-2" x="0" y="0" width="1440" height="780"></rect>
        <linearGradient x1="100%" y1="50%" x2="50%" y2="55.5102759%" id="linearGradient-3">
            <stop stop-color="#F83600" offset="0%"></stop>
            <stop stop-color="#FC790D" offset="100%"></stop>
        </linearGradient>
        <linearGradient x1="100%" y1="50%" x2="0%" y2="50%" id="linearGradient-4">
            <stop stop-color="#0A63CB" offset="0%"></stop>
            <stop stop-color="#50A1FF" offset="100%"></stop>
        </linearGradient>
        <rect id="path-5" x="0" y="0" width="130" height="44" rx="6"></rect>
        <rect id="path-6" x="0" y="0" width="130" height="44" rx="6"></rect>
        <linearGradient x1="50%" y1="99.9981053%" x2="50%" y2="0.00457553381%" id="linearGradient-7">
            <stop stop-color="#808080" stop-opacity="0.25" offset="0%"></stop>
            <stop stop-color="#808080" stop-opacity="0.12" offset="54%"></stop>
            <stop stop-color="#808080" stop-opacity="0.1" offset="100%"></stop>
        </linearGradient>
        <linearGradient x1="49.9990691%" y1="100.013859%" x2="49.9990691%" y2="0.00607616106%" id="linearGradient-8">
            <stop stop-color="#808080" stop-opacity="0.25" offset="0%"></stop>
            <stop stop-color="#808080" stop-opacity="0.12" offset="54%"></stop>
            <stop stop-color="#808080" stop-opacity="0.1" offset="100%"></stop>
        </linearGradient>
        <linearGradient x1="49.9993196%" y1="100%" x2="49.9993196%" y2="0%" id="linearGradient-9">
            <stop stop-color="#808080" stop-opacity="0.25" offset="0%"></stop>
            <stop stop-color="#808080" stop-opacity="0.12" offset="54%"></stop>
            <stop stop-color="#808080" stop-opacity="0.1" offset="100%"></stop>
        </linearGradient>
        <linearGradient x1="49.9962628%" y1="100%" x2="49.9962628%" y2="0%" id="linearGradient-10">
            <stop stop-color="#808080" stop-opacity="0.25" offset="0%"></stop>
            <stop stop-color="#808080" stop-opacity="0.12" offset="54%"></stop>
            <stop stop-color="#808080" stop-opacity="0.1" offset="100%"></stop>
        </linearGradient>
        <linearGradient x1="50%" y1="100%" x2="50%" y2="1.13686838e-14%" id="linearGradient-11">
            <stop stop-color="#808080" stop-opacity="0.25" offset="0%"></stop>
            <stop stop-color="#808080" stop-opacity="0.12" offset="54%"></stop>
            <stop stop-color="#808080" stop-opacity="0.1" offset="100%"></stop>
        </linearGradient>
        <linearGradient x1="-0.035070183%" y1="49.9849547%" x2="99.964881%" y2="49.9849547%" id="linearGradient-12">
            <stop stop-color="#808080" stop-opacity="0.25" offset="0%"></stop>
            <stop stop-color="#808080" stop-opacity="0.12" offset="54%"></stop>
            <stop stop-color="#808080" stop-opacity="0.1" offset="100%"></stop>
        </linearGradient>
        <linearGradient x1="50%" y1="100%" x2="50%" y2="-0.0125015627%" id="linearGradient-13">
            <stop stop-color="#808080" stop-opacity="0.25" offset="0%"></stop>
            <stop stop-color="#808080" stop-opacity="0.12" offset="54%"></stop>
            <stop stop-color="#808080" stop-opacity="0.1" offset="100%"></stop>
        </linearGradient>
    </defs>
    <g id="第三版" stroke="none" stroke-width="1" fill="none" fill-rule="evenodd">
        <g id="官网-第二版备份" transform="translate(0.000000, -1657.000000)">
            <g id="2" transform="translate(0.000000, 1657.000000)">
                <g id="矩形">
                    <use fill="url(#linearGradient-1)" xlink:href="#path-2"></use>
                    <use fill="#F6F6F6" xlink:href="#path-2"></use>
                </g>
                <text id="为了更好地帮助企业转向企业微信-句子互动" font-family="PingFangSC-Medium, PingFang SC" font-size="30" font-weight="400" line-spacing="40" fill="#2E3558">
                    <tspan x="495" y="121">为了更好地帮助企业转向企业微信</tspan>
                    <tspan x="390" y="161">句子互动提供完整入门指南和企业微信注册优惠券</tspan>
                </text>
                <g id="Group-23" transform="translate(451.000000, 618.000000)">
                  <a onclick="showMask()" xlink:href="#">
                    <g id="Rectangle-3">
                        <use fill="url(#linearGradient-3)" xlink:href="#path-5"></use>
                        <use fill="url(#linearGradient-4)" xlink:href="#path-5"></use>
                    </g>
                    <text id="联系客服领取" font-family="PingFangSC-Medium, PingFang SC" font-size="18" font-weight="400" fill="#FFFFFF">
                        <tspan x="11" y="28">联系客服领取</tspan>
                    </text>
                  </a>
                </g>
                <text id="微域运营指南" font-family="PingFangSC-Regular, PingFang SC" font-size="30" font-weight="normal" fill="#0A63CB">
                    <tspan x="241" y="651">微域运营指南</tspan>
                </text>
                <g id="Group-23" transform="translate(1077.000000, 618.000000)">
                  <a xlink:href="https://qiwei.juzibot.com/user/login?register=immediately" target="_blank">
                    <g id="Rectangle-3">
                        <use fill="url(#linearGradient-3)" xlink:href="#path-6"></use>
                        <use fill="url(#linearGradient-4)" xlink:href="#path-6"></use>
                    </g>
                    <text id="注册企业微信" font-family="PingFangSC-Medium, PingFang SC" font-size="18" font-weight="400" fill="#FFFFFF">
                        <tspan x="11" y="28">注册企业微信</tspan>
                    </text>
                  </a>
                </g>
                <text id="点击省三百注册费" font-family="PingFangSC-Regular, PingFang SC" font-size="30" font-weight="normal" fill="#0A63CB">
                    <tspan x="807" y="651">点击省三百注册费</tspan>
                </text>
                <g id="undraw_Bibliophile_hwqc" transform="translate(210.000000, 267.000000)">
                    <path d="M347.102039,167.371292 C334.375894,188.094562 336.626294,216.24209 342.078757,238.436834 C343.903709,245.868525 346.012293,253.705243 344.38887,262.032452 C342.403442,272.213868 335.290235,280.240094 328.106121,284.832879 C315.006775,293.21211 300.093673,293.041181 289.293244,284.390693 C279.944565,276.914412 273.824073,263.834637 264.288794,256.763383 C248.31207,244.928416 226.308154,252.237484 207.166688,263.451905 C193.623233,271.381519 178.717595,281.418017 166.263887,275.82567 C157.501133,271.89059 152.082258,260.705895 149.570617,248.517923 C148.361447,242.635739 147.644901,236.207327 144.8347,231.729733 C143.162761,229.069188 140.85638,227.293014 138.464163,225.840119 C116.628188,212.585698 86.9624605,223.870721 65.9176706,208.847558 C51.7024543,198.699584 43.6823703,177.656752 41.1184812,155.127582 C38.5545921,132.598412 40.8236526,108.463997 43.6525142,84.7011659 C45.6752623,67.8163648 48.3921637,49.7350615 57.2146292,35.9678546 C66.5446478,21.4054568 81.189045,14.8581374 93.8853343,16.1623991 C106.581624,17.4666608 117.576118,25.5783511 127.040488,35.4847947 C138.870952,47.8659913 149.514637,63.6992082 164.87558,67.6417201 C175.325201,70.3282762 186.789927,67.1177859 197.922506,65.2821583 C216.534027,62.2128701 234.869379,62.9931976 253.066648,64.0373501 C270.49139,65.0369125 288.024361,66.3077316 304.239934,72.4463081 C315.715856,76.7901312 324.49727,85.8976681 335.196935,91.7984305 C342.172057,95.6443304 350.057789,96.1013793 356.551482,101.244109 C364.549174,107.561046 371.442192,119.303117 368.165489,134.170215 C365.049263,148.309006 353.85324,156.376106 347.102039,167.371292 Z" id="路径" fill="#6C63FF" fill-rule="nonzero" opacity="0.1"></path>
                    <path d="M110.160553,102.313692 C110.160553,102.313692 56.187929,90.1524584 124.862353,19 C124.862353,19 154.46403,47.2739443 143.606414,82.4195402 C139.241358,96.5509677 125.192483,105.274527 110.960202,102.480031 L110.160553,102.313692 Z" id="路径" fill="#6C63FF" fill-rule="nonzero"></path>
                    <path d="M110.051509,102.313692 C108.863104,102.04755 57.0699618,88.9511207 124.79804,19 C124.79804,19 154.489782,47.2739443 143.599131,82.4195402 C139.220795,96.5509677 125.129175,105.274527 110.853591,102.480031 L110.051509,102.313692 Z" id="路径" fill="#FFFFFF" fill-rule="nonzero" opacity="0.4"></path>
                    <path d="M110,103 C110,103 138.330921,59.5757683 123.906647,19" id="路径" stroke="#535461"></path>
                    <path d="M335.258119,146 C335.258119,146 325.192252,107.907545 340.445851,80.7865825 C346.852124,69.4047316 349.396375,56.4374048 347.256982,43.7200236 C346.230002,37.6874217 344.617061,31.7559512 342.438385,26" id="路径" stroke="#535461" stroke-width="2"></path>
                    <path d="M350.997702,8.49395532 C350.796433,13.0752535 341.71655,26 341.71655,26 C341.71655,26 333.802506,12.3635955 334.003775,7.78229735 C334.294177,3.2699952 338.230227,-0.186036363 342.858134,0.00776737044 C347.48604,0.201571104 351.104343,3.97395779 350.997702,8.49395532 L350.997702,8.49395532 Z" id="路径" fill="#6C63FF" fill-rule="nonzero"></path>
                    <path d="M363.429775,34.2389396 C360.882965,37.9738315 347,44 347,44 C347,44 347.88925,28.3756405 350.43606,24.6407486 C352.05612,22.1524808 354.843294,20.7713971 357.720718,21.0310987 C360.598143,21.2908002 363.115213,23.1506177 364.299424,25.8919845 C365.483635,28.6333514 365.149539,31.8269695 363.426218,34.2389396 L363.429775,34.2389396 Z" id="路径" fill="#6C63FF" fill-rule="nonzero"></path>
                    <path d="M361.345607,78.1919272 C357.245851,80.1248301 342,77.9830673 342,77.9830673 C342,77.9830673 350.537822,64.6274297 354.637578,62.6907293 C358.717717,60.8639097 363.447901,62.7828691 365.275605,67.0064062 C367.10331,71.2299433 365.355842,76.2035689 361.345607,78.1919272 L361.345607,78.1919272 Z" id="路径" fill="#6C63FF" fill-rule="nonzero"></path>
                    <path d="M351.46529,109.910834 C347.665647,112.443657 332,113 332,113 C332,113 338.372278,98.8608439 342.171921,96.3243605 C345.969074,93.8886334 351.042557,94.9057766 353.57689,98.6108543 C356.111223,102.315932 355.171881,107.34271 351.46529,109.910834 Z" id="路径" fill="#6C63FF" fill-rule="nonzero"></path>
                    <path d="M328.111118,44.7690137 C331.184921,48.0758672 346,52 346,52 C346,52 342.973263,36.7701025 339.899461,33.4669233 C336.804574,30.2650051 331.753293,30.1674775 328.540641,33.2476127 C325.327988,36.327748 325.136979,41.4513288 328.111118,44.7690137 L328.111118,44.7690137 Z" id="路径" fill="#6C63FF" fill-rule="nonzero"></path>
                    <path d="M318.126573,82.3098223 C322.176252,84.6572913 338,83.8748017 338,83.8748017 C338,83.8748017 330.376853,69.3752679 326.323424,67.0160615 C322.290924,64.7937545 317.295632,66.334839 315.069754,70.4879017 C312.843877,74.6409644 314.200741,79.8884923 318.126573,82.3098223 L318.126573,82.3098223 Z" id="路径" fill="#6C63FF" fill-rule="nonzero"></path>
                    <path d="M313.946962,121.326195 C317.499786,124.141347 333,126 333,126 C333,126 327.896046,111.507583 324.343221,108.7033 C320.783671,105.994675 315.669309,106.578004 312.838146,110.015537 C310.006983,113.453069 310.499886,118.481007 313.946962,121.326195 L313.946962,121.326195 Z" id="路径" fill="#6C63FF" fill-rule="nonzero"></path>
                    <path d="M350.997702,8.49395532 C350.796433,13.0752535 341.71655,26 341.71655,26 C341.71655,26 333.802506,12.3635955 334.003775,7.78229735 C334.294177,3.2699952 338.230227,-0.186036363 342.858134,0.00776737044 C347.48604,0.201571104 351.104343,3.97395779 350.997702,8.49395532 L350.997702,8.49395532 Z" id="路径" fill="#FC6681" fill-rule="nonzero"></path>
                    <path d="M363.429775,34.2389396 C360.882965,37.9738315 347,44 347,44 C347,44 347.88925,28.3756405 350.43606,24.6407486 C352.05612,22.1524808 354.843294,20.7713971 357.720718,21.0310987 C360.598143,21.2908002 363.115213,23.1506177 364.299424,25.8919845 C365.483635,28.6333514 365.149539,31.8269695 363.426218,34.2389396 L363.429775,34.2389396 Z" id="路径" fill="#FC6681" fill-rule="nonzero"></path>
                    <path d="M361.345607,78.1919272 C357.245851,80.1248301 342,77.9830673 342,77.9830673 C342,77.9830673 350.537822,64.6274297 354.637578,62.6907293 C358.717717,60.8639097 363.447901,62.7828691 365.275605,67.0064062 C367.10331,71.2299433 365.355842,76.2035689 361.345607,78.1919272 L361.345607,78.1919272 Z" id="路径" fill="#FC6681" fill-rule="nonzero"></path>
                    <path d="M351.46529,109.910834 C347.665647,112.443657 332,113 332,113 C332,113 338.372278,98.8608439 342.171921,96.3243605 C345.969074,93.8886334 351.042557,94.9057766 353.57689,98.6108543 C356.111223,102.315932 355.171881,107.34271 351.46529,109.910834 Z" id="路径" fill="#FC6681" fill-rule="nonzero"></path>
                    <path d="M328.111118,44.7690137 C331.184921,48.0758672 346,52 346,52 C346,52 342.973263,36.7701025 339.899461,33.4669233 C336.804574,30.2650051 331.753293,30.1674775 328.540641,33.2476127 C325.327988,36.327748 325.136979,41.4513288 328.111118,44.7690137 L328.111118,44.7690137 Z" id="路径" fill="#FC6681" fill-rule="nonzero"></path>
                    <path d="M318.126573,82.3098223 C322.176252,84.6572913 338,83.8748017 338,83.8748017 C338,83.8748017 330.376853,69.3752679 326.323424,67.0160615 C322.290924,64.7937545 317.295632,66.334839 315.069754,70.4879017 C312.843877,74.6409644 314.200741,79.8884923 318.126573,82.3098223 L318.126573,82.3098223 Z" id="路径" fill="#FC6681" fill-rule="nonzero"></path>
                    <path d="M313.946962,121.326195 C317.499786,124.141347 333,126 333,126 C333,126 327.896046,111.507583 324.343221,108.7033 C320.783671,105.994675 315.669309,106.578004 312.838146,110.015537 C310.006983,113.453069 310.499886,118.481007 313.946962,121.326195 L313.946962,121.326195 Z" id="路径" fill="#FC6681" fill-rule="nonzero"></path>
                    <path d="M301,121 C301,121 340.356152,87.844868 349.103608,71.1240873 C357.851064,54.4033065 369,40 369,40" id="路径" stroke="#535461" stroke-width="2"></path>
                    <path d="M364,77.7350024 L346,74 C346,74 350.241739,91.4659937 364,77.7350024 Z" id="路径" fill="#6C63FF" fill-rule="nonzero"></path>
                    <path d="M337.70209,59 L348,73.9690723 C348,73.9690723 327.878631,75.3882279 337.70209,59 Z" id="路径" fill="#6C63FF" fill-rule="nonzero"></path>
                    <path d="M371,63.5489218 L355,61 C355,61 365.054208,74.880917 371,63.5489218 Z" id="路径" fill="#6C63FF" fill-rule="nonzero"></path>
                    <path d="M347.463202,51 L355,60.9568209 C355,60.9568209 341.658126,62.2261872 347.463202,51 Z" id="路径" fill="#6C63FF" fill-rule="nonzero"></path>
                    <path d="M363,48 C363,48 376.99595,48.6653976 378.616123,49.9961929 C380.236296,51.3269881 376.53137,59.1327638 371.198464,57.8603368 C365.865559,56.5879097 363,48 363,48 Z" id="路径" fill="#6C63FF" fill-rule="nonzero"></path>
                    <path d="M357.861818,36 C357.861818,36 363.19498,46.1856957 362.994485,48.1227353 C362.793991,50.059775 354.868977,52.2375119 353.265018,44.8943359 C351.66106,37.55116 357.861818,36 357.861818,36 Z" id="路径" fill="#6C63FF" fill-rule="nonzero"></path>
                    <ellipse id="椭圆形" fill="#FFD037" fill-rule="nonzero" transform="translate(372.012177, 41.689316) rotate(-72.430000) translate(-372.012177, -41.689316) " cx="372.012177" cy="41.689316" rx="3.72596312" ry="3.72570112"></ellipse>
                    <ellipse id="椭圆形" fill="#FFD037" fill-rule="nonzero" transform="translate(366.182083, 37.889112) rotate(-72.430000) translate(-366.182083, -37.889112) " cx="366.182083" cy="37.8891123" rx="3.72596312" ry="3.72570112"></ellipse>
                    <path d="M122.002613,130 C122.002613,130 137.896175,118.088328 117.936818,76.3974763 C117.936818,76.3974763 91.3243433,43.2681388 117.936818,12 C117.936818,12 59.906838,13.488959 61.0156912,67.8359621 C62.1245443,122.182965 90.0306814,130 90.0306814,130 L122.002613,130 Z" id="路径" fill="#6C63FF" fill-rule="nonzero"></path>
                    <path d="M107.265589,130 C107.265589,130 103.280205,101.340252 92.6083528,83.8466391 C90.5005885,80.3085299 88.9849151,76.4426741 88.1224952,72.4050721 C84.5566247,56.5379932 89.6423141,39.9451156 101.164234,28.5891556 L118,12" id="路径" stroke="#535461" stroke-width="2"></path>
                    <path d="M155.914119,34 C155.914119,34 159.518578,38.8125155 154.250522,46.0759871 C148.982467,53.3394587 144.641064,59.4854731 146.395866,64 C146.395866,64 154.341728,50.5085672 160.810054,50.3185995 C167.278379,50.1286317 163.028182,42.112739 155.914119,34 Z" id="路径" fill="#6C63FF" fill-rule="nonzero"></path>
                    <path d="M155.825248,34 C156.14064,34.4650976 156.389085,34.9730133 156.563156,35.5085672 C162.946062,43.077477 166.344129,50.1435312 160.212112,50.3223243 C154.497013,50.486218 147.641846,60.8040725 146,63.4077477 C146.054198,63.6086901 146.119482,63.8064161 146.195546,64 C146.195546,64 154.231366,50.5085672 160.772922,50.3185995 C167.314478,50.1286317 163.019852,42.112739 155.825248,34 Z" id="路径" fill="#000000" fill-rule="nonzero" opacity="0.1"></path>
                    <path d="M163,40.3058232 C163,42.3481688 162.776316,44 162.5,44 C162.223684,44 162,42.3436801 162,40.3058232 C162,38.2679662 162.280702,39.2240533 162.557018,39.2240533 C162.833333,39.2240533 163,38.2679662 163,40.3058232 Z" id="路径" fill="#FFD037" fill-rule="nonzero"></path>
                    <path d="M165.049686,42.0078327 C163.483885,42.7134302 162.125553,43.1374359 162.008118,42.9594182 C161.890683,42.7814005 163.061119,42.0660931 164.623005,41.3604957 C166.184892,40.6548983 165.570315,41.1695312 165.68775,41.3604957 C165.805185,41.5514601 166.611572,41.3022353 165.049686,42.0078327 Z" id="路径" fill="#FFD037" fill-rule="nonzero"></path>
                    <path d="M137.086823,34 C137.086823,34 133.482707,38.8125155 138.750262,46.0759871 C144.017816,53.3394587 148.358807,59.4854731 146.604171,64 C146.604171,64 138.659064,50.5085672 132.191354,50.3185995 C125.723643,50.1286317 129.96614,42.112739 137.086823,34 Z" id="路径" fill="#6C63FF" fill-rule="nonzero"></path>
                    <path d="M137.18007,34 C136.864848,34.4650976 136.616538,34.9730133 136.442561,35.5085672 C130.06311,43.077477 126.666882,50.1435312 132.79558,50.3223243 C138.507586,50.486218 145.359043,60.8040725 147,63.4077477 C146.945831,63.6086901 146.880583,63.8064161 146.80456,64 C146.80456,64 138.762027,50.5048423 132.224011,50.3223243 C125.685995,50.1398063 129.981984,42.112739 137.18007,34 Z" id="路径" fill="#000000" fill-rule="nonzero" opacity="0.1"></path>
                    <path d="M129,40.3058232 C129,42.3481688 129.223684,44 129.5,44 C129.776316,44 130,42.3436801 130,40.3058232 C130,38.2679662 129.719298,39.2240533 129.442982,39.2240533 C129.166667,39.2240533 129,38.2679662 129,40.3058232 Z" id="路径" fill="#FFD037" fill-rule="nonzero"></path>
                    <path d="M126.950314,42.0078327 C128.516115,42.7134302 129.874447,43.1374359 129.991882,42.9594182 C130.109317,42.7814005 128.938881,42.0660931 127.376995,41.3604957 C125.815108,40.6548983 126.429685,41.1695312 126.31225,41.3604957 C126.194815,41.5514601 125.388428,41.3022353 126.950314,42.0078327 Z" id="路径" fill="#FFD037" fill-rule="nonzero"></path>
                    <path d="M402,240.769843 L369.344256,96.8833714 L357.211572,96.8833714 C356.72701,91.3851672 356.402726,86.0586653 356.279722,81.041974 C356.279722,81.041974 312.296412,90.679695 277.221586,62.7967454 C242.146759,34.9137958 200.910542,65.208042 200.910542,65.208042 L200.750264,65.0923296 L200.750264,65.0363397 L200.750264,65.1072602 C197.887622,63.0766947 158.384645,35.9664051 124.610682,62.8191413 C89.550765,90.702091 45.5525452,81.06437 45.5525452,81.06437 C45.429541,86.1445165 45.1015299,91.5158102 44.6057858,97.0662716 L33.3490403,97.0662716 L0,241.288682 C0,241.288682 135.565508,246.372561 183.07121,241.684344 C184.774631,245.290091 192.117608,248 200.91427,248 C210.799332,248 218.839332,244.577153 219.118887,240.310726 C256.098414,243.128882 335.670932,247.6342 402,240.769843 Z" id="路径" fill="url(#linearGradient-7)" fill-rule="nonzero"></path>
                    <path d="M36.6803598,98.1637513 L4,238.967518 C4,238.967518 183.900549,245.688764 198.388258,236.280509 C198.388258,236.280509 310.070095,247.538409 398,238.4651 L365.994962,98 L36.6803598,98.1637513 Z" id="路径" fill="#E2E2EC" fill-rule="nonzero"></path>
                    <path d="M47.4401288,102.157174 L17,234.15739 C17,234.15739 184.573543,240.459331 198.067697,231.638859 C198.067697,231.638859 302.0957,242.191991 384,233.685867 L354.178664,102 L47.4401288,102.157174 Z" id="路径" fill="#000000" fill-rule="nonzero" opacity="0.1"></path>
                    <path d="M353.08125,82.3331399 C353.08125,82.3331399 310.01274,91.7429307 275.69357,64.5185595 C241.374399,37.2941884 200.996274,66.8710073 200.996274,66.8710073 C200.996274,66.8710073 160.621875,37.2941884 126.302704,64.5185595 C91.9835335,91.7429307 48.9150238,82.3331399 48.9150238,82.3331399 C47.5586527,137.116883 22,225.847339 22,225.847339 C22,225.847339 69.1040864,238.618302 131.351833,212.741377 C193.599579,186.864452 201,221.816167 201,221.816167 C201,221.816167 208.400421,186.86073 270.648167,212.741377 C332.895914,238.622024 380,225.847339 380,225.847339 C380,225.847339 354.426442,137.116883 353.08125,82.3331399 Z" id="路径" fill="#F1F2FB" fill-rule="nonzero"></path>
                    <path d="M118,223.866152 C118,223.866152 174.565214,210.915241 200.660831,230 C200.660831,230 225.763035,206.823492 284,224.889089" id="路径" fill="#000000" fill-rule="nonzero" opacity="0.1"></path>
                    <ellipse id="椭圆形" fill="#E8EAF8" fill-rule="nonzero" cx="201" cy="238" rx="18" ry="8"></ellipse>
                    <path d="M201,67 C201,67 214.264949,131.748898 201.347958,223" id="路径" fill="#000000" fill-rule="nonzero" opacity="0.1"></path>
                    <path d="M61,102.249235 C61,102.249235 87.6353425,108.438456 110.690646,102.249235 C133.745949,96.0600149 176.07639,75.8134812 190,102.249235" id="路径" stroke="#000000" stroke-width="4" opacity="0.1"></path>
                    <path d="M61,114.350836 C61,114.350836 87.6353425,120.311455 110.690646,114.350836 C133.745949,108.390217 183.66637,108.711448 190,114.350836" id="路径" stroke="#000000" stroke-width="4" opacity="0.1"></path>
                    <path d="M61,135.249235 C61,135.249235 87.6353425,141.438456 110.690646,135.249235 C133.745949,129.060015 176.07639,108.813481 190,135.249235" id="路径" stroke="#000000" stroke-width="4" opacity="0.1"></path>
                    <path d="M61,146.350836 C61,146.350836 87.6353425,152.311455 110.690646,146.350836 C133.745949,140.390217 183.66637,140.711448 190,146.350836" id="路径" stroke="#000000" stroke-width="4" opacity="0.1"></path>
                    <path d="M340,102.249235 C340,102.249235 313.364658,108.438456 290.309354,102.249235 C267.254051,96.0600149 224.92361,75.8134812 211,102.249235" id="路径" stroke="#000000" stroke-width="4" opacity="0.1"></path>
                    <path d="M340,114.350836 C340,114.350836 313.364658,120.311455 290.309354,114.350836 C267.254051,108.390217 217.33363,108.711448 211,114.350836" id="路径" stroke="#000000" stroke-width="4" opacity="0.1"></path>
                    <path d="M340,135.249235 C340,135.249235 313.364658,141.438456 290.309354,135.249235 C267.254051,129.060015 224.92361,108.813481 211,135.249235" id="路径" stroke="#000000" stroke-width="4" opacity="0.1"></path>
                    <path d="M340,146.350836 C340,146.350836 313.364658,152.311455 290.309354,146.350836 C267.254051,140.390217 217.33363,140.711448 211,146.350836" id="路径" stroke="#000000" stroke-width="4" opacity="0.1"></path>
                    <path d="M341.401313,267.711278 C342.524508,266.870745 343.591543,265.876054 343.917269,264.675817 C344.263748,263.351738 343.492054,261.993519 342.161342,261.585299 C340.547686,261.093459 338.825454,261.985378 337.515061,262.888308 C336.204667,263.791239 334.710818,264.822635 332.999819,264.631772 C334.770722,263.376478 335.620606,261.328368 335.1264,259.493143 C335.04311,259.093301 334.836626,258.728162 334.534851,258.447066 C333.64004,257.679942 332.015152,258.010282 330.944373,258.612236 C327.533606,260.53188 326.582634,264.235363 326.563914,267.571801 C326.219468,266.367894 326.511499,265.116271 326.500267,263.87933 C326.489035,262.642388 326.069709,261.276981 324.766803,260.61263 C323.933388,260.259613 323.031024,260.090454 322.123552,260.11712 C320.592264,260.073074 318.881264,260.194199 317.836693,261.093459 C316.537532,262.194594 316.87449,264.077534 318.005172,265.303464 C319.135855,266.529394 320.858086,267.300188 322.441791,268.148061 C323.651097,268.79406 324.871635,269.546502 325.612943,270.566887 C325.707788,270.702188 325.786903,270.847461 325.848814,271 L335.459615,271 C337.571173,270.148635 339.566953,269.043973 341.401313,267.711278 Z" id="路径" fill="#6C63FF" fill-rule="nonzero"></path>
                    <path d="M274.755099,132.938496 C274.755099,132.938496 274.847376,133.474651 275.002401,134.427816 C274.921197,134.576748 274.839994,134.725679 274.755099,134.870888 C271.728422,140.009039 271.263347,147.410956 271.54756,153.487378 C271.812739,158.388311 272.664168,163.23895 274.083325,167.933774 C275.814517,174.035353 276.684326,180.352656 276.667073,186.699195 C277.864763,188.005585 279.304246,189.063003 280.904421,189.811872 C280.985624,190.061333 281.070519,190.314518 281.14434,190.556532 C282.539254,195.245898 283.482386,200.060087 283.960626,204.932185 L284.912922,217.092476 C284.912922,217.092476 292.210167,244.615095 294.4285,249.734629 C296.008277,253.376015 295.661317,260.904523 295.329121,264.940578 C294.380516,267.654862 293.225211,270.242554 292.206476,270.525525 C290.360941,271.054233 288.515406,275.537084 291.202505,277.789679 L291.202505,277.789679 C291.403833,277.958205 291.62005,278.107762 291.848442,278.236475 L291.955483,278.296048 L292.15111,278.396577 L292.439013,278.526892 L292.586656,278.582742 L292.893015,278.686994 L293.025893,278.72795 C293.169845,278.768907 293.317488,278.809863 293.476204,278.847096 C295.34717,279.218416 297.288055,278.908382 298.953751,277.972121 C300.976457,277.666811 302.774008,276.572161 304.121248,275.466341 L304.084337,277.40618 L306.298979,277.40618 L306.195629,273.530226 C306.594265,273.079707 306.815729,272.785567 306.815729,272.785567 C306.815729,272.785567 306.882168,270.443613 307.136852,267.718158 L306.974445,276.464185 L309.189086,276.464185 L308.591133,260.323689 C308.702904,260.082437 308.851076,259.860123 309.03037,259.664665 C310.875905,257.803016 307.686821,251.797336 306.036913,250.795769 C306.775127,246.849073 309.591413,241.148704 312.839554,230.220825 C317.597343,214.210644 311.569826,198.539283 311.569826,198.539283 L311.569826,186.2524 C313.168059,185.559866 314.109282,185.087007 314.109282,185.087007 C314.109282,185.087007 311.89464,171.966105 314.109282,162.687647 C315.545108,156.689414 315.917906,151.361375 314.718309,146.26418 C316.312851,140.723912 317.601034,136.445843 317.601034,136.445843 L319.815675,113.406076 C320.380409,109.947132 320.760589,106.98711 321.0042,104.47016 C321.044802,104.157403 321.07433,103.840923 321.089094,103.528166 C321.495112,98.840534 321.406526,95.7092404 321.140769,93.6614266 C321.269863,92.722942 321.314338,91.7745834 321.273648,90.8279968 C321.324991,90.3420692 321.344719,89.8532704 321.332705,89.3647408 C321.650137,88.992411 321.960187,88.6200812 322.255472,88.2477514 C323.041368,87.263191 323.709162,86.1883918 324.244959,85.0457152 C326.684756,80.4027626 326.754886,74.7321799 323.348029,70.6402754 C321.251502,68.1196027 320.598182,65.4053185 318.785867,62.7208207 C317.128577,60.2634441 316.814836,57.3183154 316.4162,54.488609 C315.922549,50.971192 315.244907,47.4825583 314.386112,44.0373117 C314.131428,43.0245747 312.736204,42.4027839 312.042283,41.5613186 C310.702425,39.9342374 306.789891,39.9900868 304.534648,39.6289269 C300.747611,39.0220294 296.646832,38.4560881 293.199373,39.9565772 C290.800178,41.0028239 289.076449,42.9054291 287.201386,44.5846365 C285.18237,46.390436 281.048373,47.2616877 280.406127,49.4249238 C279.834011,50.251496 279.804482,51.2865728 280.775234,52.6716396 C281.712765,54.0045803 283.189193,54.9577445 284.565962,55.9555884 C284.743133,56.0821805 284.909231,56.2162192 285.082712,56.3279182 C284.124645,62.2267184 287.097858,68.0649078 292.409485,70.7147414 C292.372574,70.9567558 292.331972,71.1950468 292.287679,71.4296146 C291.882634,73.5173759 291.32499,75.5720409 290.619316,77.5767795 C290.209607,78.8129144 285.470274,80.9724272 282.129856,82.357494 C281.743542,81.9573805 281.283358,81.6373719 280.775234,81.4154997 C278.235778,80.7750924 269.672497,85.5744235 269.037633,87.1754416 C268.860461,87.6222373 269.325536,88.8583722 270.082205,90.4147108 C270.132271,91.1238611 270.247182,91.8268288 270.425475,92.5146508 C270.23723,95.791153 270.576809,101.078236 272.211952,109.578525 L274.755099,132.938496 Z M310.37392,136.538926 C310.255806,136.311804 310.134,136.08096 310.004813,135.842669 C306.479841,128.652981 304.387005,117.028844 309.436388,110.096064 C309.886699,110.144467 310.337009,110.189146 310.78732,110.218932 C311.086296,119.653769 310.912816,135.165029 310.912816,135.165029 C310.912816,135.165029 310.713498,135.68629 310.37392,136.538926 Z M297.791064,191.338425 C298.507131,194.96864 299.348695,199.187137 300.134893,203.022134 C301.069847,207.487683 301.006802,212.107256 299.95034,216.545152 L296.967955,207.519877 L296.274034,191.640012 L296.229741,190.988435 C296.709581,190.906522 297.185728,190.818404 297.658185,190.72408 L297.791064,191.338425 Z" id="形状" fill="url(#linearGradient-8)" fill-rule="nonzero"></path>
                    <path d="M300.965012,202.730849 C301.868142,207.181302 301.807531,211.785341 300.787582,216.208352 C300.605127,217.048956 300.363063,217.87432 300.063379,218.677657 L300.888971,253.624915 L300.983117,257.587112 C301.747934,257.754345 302.521864,257.87269 303.300567,257.941486 C304.022832,258.019505 304.750912,258.019505 305.473176,257.941486 C306.197379,257.847237 306.834678,257.621042 307.175054,257.1875 C307.515429,256.753958 307.587849,256.05652 307.106254,255.042409 C306.576658,253.927863 306.371505,252.676462 306.516029,251.442125 C306.544997,251.095291 306.599312,250.729608 306.66449,250.352615 C307.388694,246.420577 310.093592,240.735522 313.233013,229.847962 C317.828081,213.901154 312.009109,198.274791 312.009109,198.274791 L312.009109,183.594681 L297,182 C297,182 297.724203,185.950887 298.719982,191.085533 C299.393491,194.704667 300.204599,198.90814 300.965012,202.730849 Z" id="路径" fill="#FDC2CC" fill-rule="nonzero"></path>
                    <path d="M300.965012,202.730849 C301.868142,207.181302 301.807531,211.785341 300.787582,216.208352 C300.605127,217.048956 300.363063,217.87432 300.063379,218.677657 L300.888971,253.624915 L300.983117,257.587112 C301.747934,257.754345 302.521864,257.87269 303.300567,257.941486 C304.022832,258.019505 304.750912,258.019505 305.473176,257.941486 C306.197379,257.847237 306.834678,257.621042 307.175054,257.1875 C307.515429,256.753958 307.587849,256.05652 307.106254,255.042409 C306.576658,253.927863 306.371505,252.676462 306.516029,251.442125 C306.544997,251.095291 306.599312,250.729608 306.66449,250.352615 C307.388694,246.420577 310.093592,240.735522 313.233013,229.847962 C317.828081,213.901154 312.009109,198.274791 312.009109,198.274791 L312.009109,183.594681 L297,182 C297,182 297.724203,185.950887 298.719982,191.085533 C299.393491,194.704667 300.204599,198.90814 300.965012,202.730849 Z" id="路径" fill="#000000" fill-rule="nonzero" opacity="0.1"></path>
                    <path d="M279,184 C280.012484,186.13181 280.862797,188.336801 281.54372,190.596255 C282.920949,195.182066 283.852159,199.889943 284.324409,204.654455 L285.264882,216.548432 C285.264882,216.548432 292.470236,243.462486 294.662205,248.471644 C296.22102,252.034288 295.880376,259.396346 295.55084,263.351139 C295.417545,264.956734 295.287952,266 295.287952,266 L298.483338,262.089601 L302.671034,256.958358 L304.581601,254.616558 L305,254.106023 C304.494565,253.056336 304.085594,251.962951 303.778126,250.839341 C303.778126,250.839341 303.778126,250.839341 303.778126,250.839341 C302.809198,247.41205 302.170668,243.899997 301.871262,240.351184 C300.930789,230.651026 300.619766,217.50291 300.619766,217.50291 L300.123612,216.023099 L297.161492,207.177532 L296.476502,191.639522 L296.22102,185.886758 L279,184 Z" id="路径" fill="#FDC2CC" fill-rule="nonzero"></path>
                    <path d="M303.47978,251.155528 C301.754727,253.371003 300.46466,255.884412 299.675903,258.566535 C298.658763,261.975822 296.87026,267.214573 295.369128,267.635611 C293.130664,268.265304 290.892199,274.56969 296.64717,275.832803 C302.402141,277.095916 307.204252,270.787804 307.204252,270.787804 C307.204252,270.787804 307.525653,259.755128 309.442716,257.866048 C311.359779,255.976968 307.843273,249.668856 306.24383,249.039162 C305.604809,248.782069 304.523388,249.825348 303.47978,251.155528 Z" id="路径" fill="#5F5D7E" fill-rule="nonzero"></path>
                    <path d="M295.379131,274.892329 C296.918499,275.203057 298.519149,275.062846 299.975129,274.489737 C303.633773,273.078643 306.131961,269.774969 306.404885,265.986846 C306.68343,262.609547 307.27147,258.069205 308.466894,256.917344 C310.014368,255.426263 308.080026,251.176682 306.416491,249.145083 C306.633589,249.004535 306.904047,248.963603 307.15541,249.033252 C308.791864,249.663234 312.39361,255.970508 310.428318,257.864181 C308.463025,259.757854 308.138056,270.791855 308.138056,270.791855 C308.138056,270.791855 303.236431,277.099129 297.344423,275.83171 C296.487389,275.672132 295.68308,275.315326 295,274.791681 C295.123798,274.828958 295.247596,274.862507 295.379131,274.892329 Z" id="路径" fill="#000000" fill-rule="nonzero" opacity="0.1"></path>
                    <path d="M308.449324,258.586375 L309,275 L307,275 L307.277027,258.597643 C307.293419,258.253515 307.555113,257.987653 307.864865,258.000443 L307.864865,258.000443 C308.169625,257.9895 308.427703,258.248229 308.449324,258.586375 L308.449324,258.586375 Z" id="路径" fill="#5F5D7E" fill-rule="nonzero"></path>
                    <path d="M308.449324,258.586375 L309,275 L307,275 L307.277027,258.597643 C307.293419,258.253515 307.555113,257.987653 307.864865,258.000443 L307.864865,258.000443 C308.169625,257.9895 308.427703,258.248229 308.449324,258.586375 L308.449324,258.586375 Z" id="路径" fill="#000000" fill-rule="nonzero" opacity="0.15"></path>
                    <path d="M300.47978,252.157219 C298.754727,254.372559 297.46466,256.885814 296.675903,259.567774 C295.658763,262.976852 293.87026,268.215283 292.369128,268.636295 C290.130664,269.26595 287.892199,275.569951 293.64717,276.832987 C299.402141,278.096023 304.204252,271.780844 304.204252,271.780844 C304.204252,271.780844 304.525653,260.748843 306.442716,258.859878 C308.359779,256.970913 304.843273,250.663186 303.24383,250.033531 C302.597246,249.798808 301.523388,250.82712 300.47978,252.157219 Z" id="路径" fill="#5F5D7E" fill-rule="nonzero"></path>
                    <path d="M291.382907,275.886961 C292.921903,276.197624 294.522166,276.057443 295.977795,275.484452 C299.635553,274.073652 302.133137,270.770662 302.405996,266.983324 C302.684474,263.606726 303.272372,259.067325 304.467506,257.915703 C306.014607,256.424931 304.080731,252.17623 302.417599,250.145053 C302.634645,250.004534 302.905037,249.96361 303.156339,250.033245 C304.792397,250.663097 308.393273,256.969063 306.428456,258.862343 C304.463639,260.755624 304.142615,271.787338 304.142615,271.787338 C304.142615,271.787338 299.23444,278.093304 293.343857,276.833601 C292.48703,276.674056 291.682915,276.317324 291,275.793788 C291.139239,275.831057 291.251404,275.864599 291.382907,275.886961 Z" id="路径" fill="#000000" fill-rule="nonzero" opacity="0.1"></path>
                    <path d="M305.45302,258.586921 L306,275 L304,275 L304.275168,258.598188 C304.29145,258.254071 304.551387,257.988218 304.85906,258.001008 L304.85906,258.001008 C305.166882,257.981679 305.431482,258.242695 305.45302,258.586921 L305.45302,258.586921 Z" id="路径" fill="#5F5D7E" fill-rule="nonzero"></path>
                    <path d="M305.45302,258.586921 L306,275 L304,275 L304.275168,258.598188 C304.29145,258.254071 304.551387,257.988218 304.85906,258.001008 L304.85906,258.001008 C305.166882,257.981679 305.431482,258.242695 305.45302,258.586921 L305.45302,258.586921 Z" id="路径" fill="#000000" fill-rule="nonzero" opacity="0.15"></path>
                    <path d="M279,85.3404659 L291.519025,105.115272 L306.22814,107 C306.22814,107 315.302953,89.1099223 314.992197,88.1675582 C314.681441,87.2251941 309.983107,85.344176 305.602928,81.8900777 C301.222749,78.4359793 306.542595,64 306.542595,64 L292.147936,65.2540121 C292.203428,65.446937 292.25892,65.6250216 292.299614,65.8402071 C292.873033,68.2777394 292.669562,70.9823986 292.229324,73.3605695 C291.827863,75.4045074 291.276373,77.4159067 290.579358,79.3783434 C289.954147,81.2593615 279,85.3404659 279,85.3404659 Z" id="路径" fill="#FDC2CC" fill-rule="nonzero"></path>
                    <path d="M297,182 C297,182 297.771828,185.913693 298.833092,191 C303.693713,189.999364 308.439391,188.533221 313,186.623237 L313,183.579668 L297,182 Z" id="路径" fill="#000000" fill-rule="nonzero" opacity="0.1"></path>
                    <path d="M279,184 C280.042592,186.07726 280.918189,188.225829 281.61936,190.427468 C286.106969,192.341649 291.688837,192.287576 297,191.433224 L296.73692,185.827665 L279,184 Z" id="路径" fill="#000000" fill-rule="nonzero" opacity="0.1"></path>
                    <path d="M275.719089,134.906481 C272.708444,139.990479 272.245842,147.304103 272.529372,153.33457 C272.793138,158.180089 273.639919,162.975884 275.0513,167.617648 C276.774947,173.651924 277.641528,179.899759 277.625458,186.176672 C288.354843,197.885953 314.864932,184.594236 314.864932,184.594236 C314.864932,184.594236 312.65638,171.620502 314.864932,162.440126 C316.401965,156.058007 316.730264,150.435307 315.170847,145.04829 C314.453161,142.586572 313.394522,140.238026 312.025898,138.071354 C311.608064,137.405458 311.201421,136.668485 310.809702,135.879137 C307.153652,128.464506 305.042097,116.283861 310.921622,109.565053 C311.532825,108.865742 312.221183,108.238231 312.973486,107.69456 C318.099417,103.972281 320.434812,99.8384931 321.419707,96.3406727 C322.035833,94.1674267 322.163252,91.8841425 321.792773,89.6555336 C321.162291,86.1726771 312.324351,83.0078043 312.324351,83.0078043 C312.641457,93.4526328 299.386413,102.311284 299.386413,102.311284 C299.386413,102.311284 284.236192,82.6898206 281.714264,82.0575943 C279.192336,81.4253679 270.667772,86.1726771 270.03729,87.7551135 C269.406808,89.3375499 276.980053,101.046831 276.980053,101.046831 C276.980053,101.046831 281.717994,124.779636 275.719089,134.906481 Z" id="路径" fill="#D39999" fill-rule="nonzero"></path>
                    <path d="M312.578861,108.142746 C317.68957,104.476144 320.01803,100.404189 321,96.9586889 C320.754507,91.7996509 319.512166,91 319.512166,91 C319.512166,91 309.115928,100.971683 310.060702,104.413499 C310.276438,105.20578 310.432661,107.276765 310.533089,110 C311.14164,109.305987 311.827986,108.682888 312.578861,108.142746 Z" id="路径" fill="#000000" fill-rule="nonzero" opacity="0.1"></path>
                    <path d="M295.312853,180.00737 C297.500725,186.66165 308.443777,174.937086 308.757914,169.870546 C308.957484,166.627662 312.486904,153.914505 315,145.178188 C314.289035,142.714045 313.240309,140.363185 311.884501,138.194377 C311.470579,137.527826 311.067745,136.790126 310.679693,136 C309.493364,138.954545 304.72957,151.06481 305.00675,154.667183 C305.320887,158.786321 303.129319,164.804007 303.129319,164.804007 C303.129319,164.804007 293.124982,173.35309 295.312853,180.00737 Z" id="路径" fill="#000000" fill-rule="nonzero" opacity="0.1"></path>
                    <path d="M320.425963,91 C320.425963,91 323.967547,93.2012978 320.425963,114.277237 L318.173956,136.926064 C318.173956,136.926064 309.485472,164.921961 309.162126,169.956686 C308.838781,174.991411 297.578749,186.626312 295.322939,180.022418 C293.067128,173.418525 303.368536,164.921961 303.368536,164.921961 C303.368536,164.921961 305.620542,158.946479 305.301001,154.856229 C304.981459,150.76598 311.414133,135.669241 311.414133,135.669241 C311.414133,135.669241 311.737478,107.989408 310.771246,104.52757 C309.805013,101.065732 320.425963,91 320.425963,91 Z" id="路径" fill="#FDC2CC" fill-rule="nonzero"></path>
                    <path d="M273.81961,89 C273.81961,89 269.725488,89.938851 273.81961,110.889274 L276.339355,133.717399 C276.339355,133.717399 282.007852,166.55131 281.691488,170.31041 C281.375124,174.069511 293.973853,183.757418 294.915501,178.442191 C295.857148,173.126963 288.617997,164.370515 288.617997,164.370515 C288.617997,164.370515 285.461802,157.480679 285.461802,144.65834 L284.832796,134.338371 L280.429755,97.1317803 L273.81961,89 Z" id="路径" fill="#000000" fill-rule="nonzero" opacity="0.1"></path>
                    <path d="M272.81961,89 C272.81961,89 268.725488,89.938851 272.81961,110.889274 L275.339355,133.717399 C275.339355,133.717399 281.007852,166.55131 280.691488,170.31041 C280.375124,174.069511 292.973853,183.757418 293.915501,178.442191 C294.857148,173.126963 287.617997,164.370515 287.617997,164.370515 C287.617997,164.370515 284.469246,157.491768 284.469246,144.669429 L283.84024,134.34946 L279.44092,97.1317803 L272.81961,89 Z" id="路径" fill="#FDC2CC" fill-rule="nonzero"></path>
                    <path d="M271.093924,90.2548122 C271.093924,90.2548122 269.194466,100.113396 282.479453,103.503991 C295.76444,106.894587 280.897818,91.7916879 280.897818,91.7916879 C280.897818,91.7916879 275.838829,84.4023024 271.093924,90.2548122 Z" id="路径" fill="#000000" fill-rule="nonzero" opacity="0.1"></path>
                    <path d="M271.093434,90.2566773 C271.093434,90.2566773 269.198079,100.112819 282.480514,103.503827 C295.762948,106.894835 280.899183,91.79374 280.899183,91.79374 C280.899183,91.79374 275.837427,84.3998126 271.093434,90.2566773 Z" id="路径" fill="#D39999" fill-rule="nonzero"></path>
                    <path d="M321.906081,90.2548122 C321.906081,90.2548122 323.805444,100.113396 310.521121,103.503991 C297.236798,106.894587 312.098938,91.7916879 312.098938,91.7916879 C312.098938,91.7916879 317.146457,84.4023024 321.906081,90.2548122 Z" id="路径" fill="#000000" fill-rule="nonzero" opacity="0.1"></path>
                    <path d="M320.90439,90.2566773 C320.90439,90.2566773 322.817864,100.112819 309.524452,103.503827 C296.23104,106.894835 311.105311,91.79374 311.105311,91.79374 C311.105311,91.79374 316.161815,84.3998126 320.90439,90.2566773 Z" id="路径" fill="#D39999" fill-rule="nonzero"></path>
                    <path d="M293,72.9554693 C294.727801,73.4728626 296.662791,69.31089 298.705074,69.31089 C300.86945,69.31089 302.908034,73.7657985 304.713531,72.8223166 C305.23995,69.8222382 306.004668,66.871584 307,64 L293.070296,65.2630483 C293.640063,67.7472971 293.440275,70.5168729 293,72.9554693 Z" id="路径" fill="#000000" fill-rule="nonzero" opacity="0.1"></path>
                    <circle id="椭圆形" fill="#FDC2CC" fill-rule="nonzero" cx="298.5" cy="59.5" r="13.5"></circle>
                    <path d="M281.771315,54.7155898 C282.695018,56.0178437 284.150773,56.9353408 285.506768,57.9268296 C287.183028,59.1290314 288.766426,60.4560069 290.243514,61.8964843 C291.287129,62.8513849 292.180314,63.9590184 292.892692,65.1817158 C293.945713,67.149895 294.086115,69.3770452 294.211739,71.5450021 L295.501228,93.9385902 C295.586208,95.4184242 295.671189,96.9315545 295.294318,98.3780923 C294.912204,99.6105447 294.374578,100.789133 293.694466,101.885299 C291.991158,104.911559 290.239819,107.997013 287.49827,110.394344 C286.581957,111.189755 285.466125,112.21824 285.950145,113.261523 C286.341795,114.101329 287.546303,114.371398 288.580849,114.493485 C292.92225,115.078019 297.732892,115.577463 301.387059,113.457601 C302.765223,112.65849 303.906919,111.511619 305.451349,111.015875 C307.601729,110.331451 309.973796,111.045471 312.264578,111.041772 C314.695763,111.041772 317.016103,110.231563 319.284716,109.432452 C319.720123,109.322307 320.118154,109.097486 320.437497,108.781325 C320.618573,108.518421 320.731571,108.214584 320.766335,107.897125 C321.109952,106.080628 321.435095,104.19754 320.873484,102.418039 C320.263841,100.490555 318.656599,98.8220425 318.475553,96.8316657 C318.239085,94.0643761 320.788504,91.8113288 322.621129,89.536084 C326.522848,84.6933272 327.391128,77.7196095 323.385955,72.9434452 C321.320556,70.4795216 320.673965,67.8232195 318.889372,65.2002137 C317.256266,62.7991831 316.945902,59.9172063 316.554252,57.1499167 C316.067086,53.7096447 315.398625,50.2975656 314.551665,46.9279633 C314.304113,45.9364745 312.925949,45.3297426 312.242409,44.5047351 C310.919667,42.9139135 307.069676,42.9694073 304.85279,42.6142471 C301.121033,42.0223135 297.09369,41.4673758 293.683381,42.936111 C291.318703,43.9571965 289.619091,45.8217874 287.771686,47.4607035 C285.155761,49.7988413 278.808078,50.5313591 281.771315,54.7155898 Z" id="路径" fill="#000000" fill-rule="nonzero" opacity="0.1"></path>
                    <path d="M281.772543,54.7155898 C282.695989,56.0178437 284.151339,56.9353408 285.506956,57.9268296 C287.183009,59.1313996 288.765973,60.4608542 290.242384,61.9038835 C291.285708,62.858784 292.178645,63.9664176 292.890825,65.189115 C293.943552,67.1572942 294.083916,69.3844444 294.209505,71.5524012 L295.509716,93.9385902 C295.594673,95.4184242 295.67963,96.9315545 295.302864,98.3780923 C294.920856,99.6105447 294.383379,100.789133 293.703457,101.885299 C292.000624,104.911559 290.249771,107.997013 287.508986,110.394344 C286.592928,111.189755 285.477406,112.21824 285.961291,113.261523 C286.352832,114.101329 287.557005,114.371398 288.591263,114.493485 C292.931456,115.078019 297.740759,115.577463 301.393909,113.457601 C302.771689,112.65849 303.913068,111.511619 305.457068,111.015875 C307.606849,110.331451 309.978257,111.045471 312.268401,111.041772 C314.698909,111.041772 317.018603,110.231563 319.286585,109.432452 C319.721871,109.322307 320.119791,109.097486 320.439045,108.781325 C320.620071,108.518421 320.733038,108.214584 320.767791,107.897125 C321.111313,106.080628 321.436366,104.19754 320.874911,102.418039 C320.265437,100.490555 318.658642,98.8220425 318.477647,96.8316657 C318.241245,94.0643761 320.789954,91.8113288 322.622069,89.536084 C326.522702,84.6933272 327.390741,77.7196095 323.386682,72.9434452 C321.321859,70.4795216 320.675447,67.8232195 318.891351,65.2002137 C317.258699,62.7991831 316.948422,59.9172063 316.556881,57.1499167 C316.069851,53.7096447 315.401575,50.2975656 314.554851,46.9279633 C314.307368,45.9364745 312.929588,45.3297426 312.246238,44.5047351 C310.923865,42.9139135 307.074945,42.9694073 304.858676,42.6142471 C301.127957,42.0223135 297.101735,41.4673758 293.692375,42.936111 C291.328355,43.9571965 289.629216,45.8217874 287.782325,47.4607035 C285.137578,49.7988413 278.810131,50.5313591 281.772543,54.7155898 Z" id="路径" fill="#865A61" fill-rule="nonzero"></path>
                </g>
                <g id="undraw_add_user_ipe3" transform="translate(807.000000, 292.000000)" fill-rule="nonzero">
                    <g id="编组" opacity="0.5" fill="url(#linearGradient-9)">
                        <polygon id="路径" points="0 0 0 12.1492353 0 240.792078 347.910041 240.792078 347.910041 12.1492353 347.910041 0"></polygon>
                    </g>
                    <rect id="矩形" fill="#FFFFFF" x="5" y="14" width="339" height="221"></rect>
                    <rect id="矩形" fill="#F5F5F5" x="5" y="5" width="339" height="16"></rect>
                    <circle id="椭圆形" fill="#FF5252" cx="18" cy="12" r="4"></circle>
                    <circle id="椭圆形" fill="#FFFF00" cx="28" cy="12" r="4"></circle>
                    <circle id="椭圆形" fill="#69F0AE" cx="40" cy="12" r="4"></circle>
                    <rect id="矩形" fill="#6C63FF" opacity="0.5" x="143" y="74" width="62" height="6"></rect>
                    <rect id="矩形" fill="#E0E0E0" x="97" y="103" width="69" height="6"></rect>
                    <rect id="矩形" fill="#3AD29F" transform="translate(215.500000, 106.000000) rotate(-180.000000) translate(-215.500000, -106.000000) " x="181" y="103" width="69" height="6"></rect>
                    <rect id="矩形" fill="#E0E0E0" x="99" y="117" width="151" height="6"></rect>
                    <rect id="矩形" fill="#E0E0E0" x="99" y="132" width="151" height="6"></rect>
                    <rect id="矩形" fill="url(#linearGradient-10)" x="142" y="162" width="63" height="13"></rect>
                    <rect id="矩形" fill="#6C63FF" x="143" y="163" width="62" height="10"></rect>
                    <g id="编组" opacity="0.5" transform="translate(284.000000, 71.000000)" fill="url(#linearGradient-11)">
                        <circle id="椭圆形" cx="59.1128287" cy="58.7743426" r="58.7649402"></circle>
                    </g>
                    <circle id="椭圆形" fill="#F5F5F5" cx="344" cy="130" r="55"></circle>
                    <g id="编组" opacity="0.5" transform="translate(316.000000, 87.000000)" fill="url(#linearGradient-12)">
                        <path d="M34.9369565,30.2721893 L33.8608696,29.8934911 L33.8034783,29.9881657 L33.7413043,29.9881657 L33.7413043,27.1005917 C33.7418084,26.7518796 33.7146232,26.4036675 33.66,26.0591716 C35.396599,24.7938496 36.7255514,23.0575615 37.486087,21.060355 C41.6568898,15.7069947 40.9955472,8.08500008 35.9636221,3.51390013 C30.931697,-1.05719982 23.2026508,-1.05719982 18.1707258,3.51390013 C13.1388007,8.08500008 12.477458,15.7069947 16.6482609,21.060355 C17.4087964,23.0575615 18.7377488,24.7938496 20.4743478,26.0591716 C20.4197246,26.4036675 20.3925394,26.7518796 20.3930435,27.1005917 L20.3930435,30.2627219 L20.3930435,30.2627219 C8.55844422,33.4899493 0.362821193,44.1481495 0.373033926,56.2982249 L0.373033926,79.9668639 L54.8947997,79.9668639 L54.8947997,56.2982249 C54.9084223,44.1690493 46.7434671,33.5215261 34.9369565,30.2721893 Z" id="路径"></path>
                    </g>
                    <path d="M344,116 L344,116 C350.895629,116 357.50883,118.749584 362.384776,123.643876 C367.260722,128.538168 370,135.176252 370,142.097826 L370,165 L318,165 L318,142.097826 C318,127.684395 329.640597,116 344,116 L344,116 Z" id="路径" fill="#6C63FF"></path>
                    <rect id="矩形" fill="#FDA57D" x="336" y="109" width="13" height="15" rx="6.5"></rect>
                    <polygon id="路径" fill="#000000" opacity="0.05" points="332 118.62963 336.01113 128 340 123.654321 336.01113 117"></polygon>
                    <path d="M332,117.646127 L336,127 L340,122.642606 L336,116 L334.168889,116.610035 C333.99026,116.669359 333.815119,116.740501 333.644444,116.823063 L332,117.646127 Z" id="路径" fill="#FFFFFF"></path>
                    <polygon id="路径" fill="#000000" opacity="0.05" points="353 117.614695 348.980011 128 345 123.407091 349.091061 116"></polygon>
                    <path d="M353,116.627292 L349,127 L345,122.394456 L349.093333,115 L349.844444,115.245629 C350.65415,115.513354 351.448329,115.839806 352.222222,116.223028 L353,116.627292 Z" id="路径" fill="#FFFFFF"></path>
                    <polygon id="路径" fill="#FDA57D" points="341 123 342.945631 127 345 123"></polygon>
                    <path d="M327,135 C327,135 323.499164,160.348303 325.76094,162" id="路径" fill="#000000" opacity="0.1"></path>
                    <path d="M358,135 C358,135 361.500836,160.348303 359.23906,162" id="路径" fill="#000000" opacity="0.1"></path>
                    <path d="M343.504902,115 C345.840626,115.005854 348.116961,114.328226 350,113.066448 C349.489388,110.147875 346.732186,108.000384 343.495098,108 L343.495098,108 C340.261723,108.004777 337.510023,110.151218 337,113.066448 C338.885737,114.330047 341.165829,115.00777 343.504902,115 Z" id="路径" fill="#000000" opacity="0.05"></path>
                    <circle id="椭圆形" fill="#000000" cx="343.5" cy="101.5" r="12.5"></circle>
                    <circle id="椭圆形" fill="#FDA57D" cx="343" cy="105" r="11"></circle>
                    <path d="M335,93.7707513 L337.527153,96.8146131 C337.527153,96.8146131 348.609122,97.7837153 349.872699,95.2904797 C351.136276,92.7972441 342.576995,91 342.576995,91 L335,93.7707513 Z" id="路径" fill="#000000" opacity="0.05"></path>
                    <path d="M335,93.7707513 L337.527153,96.8146131 C337.527153,96.8146131 348.609122,97.7837153 349.872699,95.2904797 C351.136276,92.7972441 342.576995,91 342.576995,91 L335,93.7707513 Z" id="路径" fill="#000000"></path>
                    <ellipse id="椭圆形" fill="#FDA57D" cx="332" cy="104.5" rx="1" ry="1.5"></ellipse>
                    <ellipse id="椭圆形" fill="#FDA57D" cx="353" cy="104.5" rx="1" ry="1.5"></ellipse>
                    <g id="编组" opacity="0.5" transform="translate(374.000000, 83.000000)" fill="url(#linearGradient-13)">
                        <polygon id="路径" points="38.8748148 14.9692593 23.9151852 14.9692593 23.9151852 0.0144444444 15.3159259 0.0144444444 15.3159259 14.9692593 0.356296296 14.9692593 0.356296296 23.5733333 15.3159259 23.5733333 15.3159259 38.5281481 23.9151852 38.5281481 23.9151852 23.5733333 38.8748148 23.5733333"></polygon>
                    </g>
                    <rect id="矩形" fill="#3AD29F" x="391" y="86" width="7" height="32"></rect>
                    <polygon id="矩形" fill="#3AD29F" transform="translate(394.500000, 102.000000) rotate(90.000000) translate(-394.500000, -102.000000) " points="391 86 398 86 398 118 391 118"></polygon>
                </g>
            </g>
        </g>
    </g>
</svg>