<?xml version="1.0" encoding="UTF-8"?>
<svg width="284px" height="241px" viewBox="0 0 284 241" version="1.1" xmlns="http://www.w3.org/2000/svg" xmlns:xlink="http://www.w3.org/1999/xlink">
    <title>wallet_two_color</title>
    <g id="最新版备份" stroke="none" stroke-width="1" fill="none" fill-rule="evenodd">
        <g id="企微SCRM-新版" transform="translate(-888.000000, -1392.000000)" fill-rule="nonzero">
            <g id="2备份" transform="translate(0.000000, 1023.000000)">
                <g id="wallet_two_color" transform="translate(888.000000, 369.000000)">
                    <path d="M92.802417,34.9793491 C92.802417,34.9793491 90.1269169,40.6499484 89.6703469,44.8960493 C89.5836484,45.7295308 89.8325904,46.5632095 90.3621095,47.2126843 C90.8916286,47.8621592 91.658086,48.2739057 92.4919494,48.3568499 C94.6378284,48.5577407 97.6055334,48.2016161 99.4135505,45.3343565 L103.06611,40.8417078 C104.378207,38.8447112 104.28295,36.2361292 102.828694,34.3401511 C100.39061,30.751511 94.263441,31.4363659 92.802417,34.9793491 Z" id="路径" fill="#F4A28C"></path>
                    <polygon id="路径" fill="#F4A28C" points="101.687269 41.8918188 103.166556 62.3918115 91.8070945 62.4009429 95.2039752 47.8546229"></polygon>
                    <path d="M94.172127,35.7646495 C95.9648528,36.5063368 97.8369058,37.0394583 99.7514123,37.3535131 C98.0749512,38.589125 97.2927239,40.7025741 97.7607672,42.7319076 C98.183959,44.726085 99.9593907,46.1418388 101.997737,46.1105255 L104.737157,38.5132008 C105.589289,36.3207291 105.168385,33.8373993 103.641389,32.0481697 C102.998921,31.2847931 102.309697,30.5620233 101.577692,29.884028 C99.7514123,28.2038504 95.998407,28.4777924 94.5921714,26.2862564 C94.3003521,25.8426912 93.7977217,25.5841458 93.2671689,25.6046954 C92.7366161,25.625245 92.2554897,25.9218936 91.9988539,26.3867018 C90.8026405,28.559975 89.8803691,32.3312431 92.528475,34.7328013 C93.0151248,35.1658155 93.5706429,35.5145573 94.172127,35.7646495 Z" id="路径" fill="#24285B"></path>
                    <path d="M97.1946204,42.3209946 C97.1946204,42.3209946 98.1077604,40.0746702 99.7148867,40.8782334 C101.322013,41.6817966 100.098406,44.9417063 97.6694532,44.3938223 L97.1946204,42.3209946 Z" id="路径" fill="#F4A28C"></path>
                    <path d="M91.3048675,38.6410404 L88.8211267,40.3303494 C88.5297676,40.5143919 88.3530987,40.8349513 88.3530987,41.1795696 C88.3530987,41.5241879 88.5297676,41.8447473 88.8211267,42.0287898 L90.9122173,43.2797916 L91.3048675,38.6410404 Z" id="路径" fill="#F4A28C"></path>
                    <path d="M95.1126612,48.2655359 C96.4830387,48.0207193 97.7612398,47.4084452 98.8108782,46.4940443 C98.8108782,46.4940443 99.5413901,50.941036 94.1356014,52.4294542 L95.1126612,48.2655359 Z" id="路径" fill="#CE8172" opacity="0.31"></path>
                    <circle id="椭圆形" fill="#24285B" cx="179.176328" cy="31.6646509" r="30.9097885"></circle>
                    <polygon id="路径" fill="#24285B" points="156.009967 39.1523988 134.724674 54.502282 164.283015 49.1969387"></polygon>
                    <path d="M29.430502,65.4782246 C29.430502,65.4782246 3.57950902,115.509164 23.9516621,125.553704 C44.3238152,135.598244 86.1730207,86.4439187 86.1730207,86.4439187 L73.9552077,61.7343507 C73.9552077,61.7343507 46.2870662,77.7690888 33.6583402,104.551485 L35.7859563,63.3414771 L29.430502,65.4782246 Z" id="路径" fill="#FC790D"></path>
                    <path d="M29.430502,65.4782246 C29.430502,65.4782246 3.57950902,115.509164 23.9516621,125.553704 C44.3238152,135.598244 86.1730207,86.4439187 86.1730207,86.4439187 L73.9552077,61.7343507 C73.9552077,61.7343507 46.2870662,77.7690888 33.6583402,104.551485 L35.7859563,63.3414771 L29.430502,65.4782246 Z" id="路径" fill="#FFFFFF" opacity="0.2"></path>
                    <ellipse id="椭圆形" fill="#E6E6E6" opacity="0.45" cx="149.764089" cy="218.593537" rx="133.638037" ry="21.6962061"></ellipse>
                    <rect id="矩形" fill="#C9C9C9" x="116.224458" y="99.1000389" width="130.442047" height="95.2313691" rx="8.90311486"></rect>
                    <circle id="椭圆形" fill="#FFD200" cx="23.5894487" cy="35.764648" r="23.5894487"></circle>
                    <rect id="矩形" fill="#E6E6E6" x="116.224458" y="109.939011" width="130.442047" height="109.028914" rx="12.2999956"></rect>
                    <path d="M166.775887,99.1000389 L188.691247,99.1000389 C188.691247,99.1000389 200.753826,155.267279 161.981902,168.854802 C123.209979,182.442325 147.371663,218.967925 147.371663,218.967925 L126.278129,218.967925 L119.475236,210.402672 L119.475236,184.679518 L114.242944,159.038548 L126.250735,111.10783 L139.126009,100.378435 L166.775887,99.1000389 Z" id="路径" fill="#000000" opacity="0.08"></path>
                    <rect id="矩形" fill="#A5A5A5" x="197.073872" y="149.021402" width="59.7650121" height="31.5215923" rx="12.8661424"></rect>
                    <circle id="椭圆形" fill="#E6E6E6" cx="211.830214" cy="164.654358" r="6.92160109"></circle>
                    <path d="M68.7046528,66.0169772 C71.4382461,62.5567184 75.5012751,60.4058979 79.899749,60.0906987 C89.3142223,59.4241065 114.379915,62.6109651 129.108863,71.6875765 C149.745827,84.3984851 153.215759,100.67064 119.466105,153.824518 L83.8536452,151.733428 C83.8536452,151.733428 44.2233698,96.8902401 68.7046528,66.0169772 Z" id="路径" fill="#FC790D"></path>
                    <path d="M111.731809,79.0109592 C111.731809,79.0109592 104.116221,96.9450285 114.242944,112.797139 C124.369666,128.649249 96.4915026,152.500465 96.4915026,152.500465 L118.251628,153.824518 L122.43381,149.039665 C122.43381,149.039665 138.395497,122.805153 141.609749,111.600925 C144.824002,100.396698 125.83069,94.3699738 125.83069,94.3699738 L111.731809,79.0109592 Z" id="路径" fill="#000000" opacity="0.08"></path>
                    <path d="M112.371007,90.9365674 C106.161655,79.9149678 117.265437,67.1949278 129.0906,71.6875765 C148.147832,78.9287766 176.500828,94.990909 171.907734,125.562836 C165.086578,171.009813 130.624675,156.993114 130.624675,156.993114 L130.259419,147.925634 C130.259419,147.925634 152.238699,148.427861 152.457852,126.010274 C152.622218,109.473309 121.730692,107.555715 112.371007,90.9365674 Z" id="路径" fill="#FC790D"></path>
                    <path d="M112.371007,90.9365674 C106.161655,79.9149678 117.265437,67.1949278 129.0906,71.6875765 C148.147832,78.9287766 176.500828,94.990909 171.907734,125.562836 C165.086578,171.009813 130.624675,156.993114 130.624675,156.993114 L130.259419,147.925634 C130.259419,147.925634 152.238699,148.427861 152.457852,126.010274 C152.622218,109.473309 121.730692,107.555715 112.371007,90.9365674 Z" id="路径" fill="#FFFFFF" opacity="0.2"></path>
                    <path d="M83.8079882,151.733428 L89.8438435,213.826947 L98.8474038,213.826947 L100.673684,177.228296 C100.973928,171.197827 103.925548,165.608804 108.73671,161.960596 L119.484367,153.824518 L83.8079882,151.733428 Z" id="路径" fill="#24285B"></path>
                    <polygon id="路径" fill="#24285B" points="119.447842 153.824518 127.255189 213.826947 117.67635 215.534519 103.97925 165.540104 94.1356014 159.029416"></polygon>
                    <path d="M35.7859563,63.3414771 C35.7859563,63.3414771 34.0144647,57.3786729 23.9151365,57.6800091 C13.8158083,57.9813453 19.0481004,71.1305611 35.7859563,63.3414771 Z" id="路径" fill="#F4A28C"></path>
                    <path d="M130.259419,147.925634 C130.259419,147.925634 118.215103,147.450801 117.831584,154.16238 C117.448065,160.873959 121.319779,163.111152 125.885479,162.791553 C130.451179,162.471954 124.369666,158.773737 130.259419,155.367725 L130.259419,147.925634 Z" id="路径" fill="#F4A28C"></path>
                    <path d="M92.5923948,213.826947 C92.5923948,213.826947 91.6244665,217.872157 88.1454031,218.557012 C84.6663398,219.241867 84.1275872,222.775719 87.3874969,223.323603 C90.6474067,223.871487 98.3451768,218.904005 98.3451768,218.904005 L97.550745,213.863472 L92.5923948,213.826947 Z" id="路径" fill="#FC790D"></path>
                    <path d="M124.296615,214.329174 C124.296615,214.329174 126.049844,218.100442 129.592827,218.082179 C133.13581,218.063916 134.377681,221.424271 131.291267,222.602222 C128.204854,223.780173 119.676127,220.447212 119.676127,220.447212 L119.447842,215.351891 L124.296615,214.329174 Z" id="路径" fill="#FC790D"></path>
                    <path d="M180.345147,13.4749024 C181.258287,13.4749024 181.541361,13.7945014 181.541361,14.7076414 L181.541361,16.661761 C185.193921,17.1822508 187.312406,19.0085307 188.846481,22.1953893 C189.321314,23.1085293 189.120423,23.6655447 188.042918,24.1403775 L186.097929,25.0535174 C185.184789,25.4918246 184.746482,25.2909338 184.271649,24.3412683 C183.435989,22.3065267 181.365625,21.0598559 179.176328,21.2731179 C175.79771,21.2731179 174.245372,22.2684405 174.245372,24.5330277 C174.245372,26.0123144 175.59682,26.9254544 176.984792,27.1993964 C177.929607,27.4097809 178.887533,27.5562155 179.852052,27.6377036 C181.658319,27.7282927 183.442081,28.0788944 185.148264,28.6786832 C186.003833,28.9493575 186.800204,29.3800792 187.495034,29.9479478 C188.919763,31.4447269 189.680292,33.4530498 189.604387,35.5181017 C189.604387,39.8555166 186.700602,42.8232216 181.568755,43.562865 L181.568755,45.6265613 C181.568755,46.5397013 181.285682,46.8593003 180.372542,46.8593003 L178.181006,46.8593003 C177.267866,46.8593003 176.948267,46.5397013 176.948267,45.6265613 L176.948267,43.562865 C172.966976,43.0423752 170.300608,41.0152044 168.985686,37.4356957 C168.818593,37.0751401 168.824783,36.6581165 169.002502,36.3026784 C169.180221,35.9472404 169.510126,35.6920748 169.898826,35.6094157 L171.843814,34.8971665 C172.839137,34.5410419 173.277444,34.7784583 173.715751,35.8103065 C174.592366,38.038368 176.38212,39.1523988 179.085014,39.1523988 C182.737574,39.1523988 184.563854,37.992711 184.563854,35.6459413 C184.629433,34.5263444 183.919953,33.5074099 182.847151,33.1804633 C181.579532,32.7362202 180.253461,32.4808516 178.911518,32.4225571 C177.068526,32.2997686 175.25647,31.886817 173.542255,31.1989496 C172.6948,30.9136881 171.905932,30.4774905 171.213748,29.9114222 C169.778686,28.4819995 169.001528,26.5209153 169.067869,24.4965021 C169.067869,20.2047441 171.807289,17.3374846 176.866084,16.661761 L176.866084,14.7076414 C176.866084,13.7945014 177.185683,13.4749024 178.098823,13.4749024 L180.345147,13.4749024 Z" id="路径" fill="#FFD200"></path>
                    <g id="优惠券" transform="translate(6.848550, 18.262799)">
                        <rect id="矩形" fill="#000000" opacity="0" x="0" y="0" width="34.2853605" height="34.2853605"></rect>
                        <path d="M6.24137715,19.6235557 C6.00219733,19.7234889 5.84409542,19.9513367 5.84409542,20.2071658 L5.84409542,24.0166206 C5.84409542,25.0079582 6.66298226,25.8114214 7.66429439,25.8114214 L25.9392543,25.8114214 C26.9446203,25.8114214 27.7594532,25.0039609 27.7594532,24.0166206 L27.7594532,20.2071658 C27.7594532,19.9513367 27.6013513,19.7194916 27.3621715,19.6235557 C26.3000509,19.1878468 25.6149426,18.1765225 25.6149426,17.0452783 C25.6149426,15.9140341 26.3000509,14.8987125 27.3621715,14.4670009 C27.6013513,14.3670677 27.7594532,14.1392199 27.7594532,13.8833908 L27.7594532,10.073936 C27.7594532,9.08259836 26.9405664,8.27913517 25.9392543,8.27913517 L7.66834829,8.27913517 C6.66298226,8.27913517 5.84814931,9.08659569 5.84814931,10.073936 L5.84814931,13.8833908 C5.84814931,14.1392199 6.00625123,14.371065 6.24543105,14.4670009 C7.30755161,14.9027098 7.99265991,15.9140341 7.99265991,17.0452783 C7.98860601,18.1765225 7.30349771,19.1878468 6.24137715,19.6235557 Z M13.1208374,13.3037781 C13.1532686,12.7241653 13.485688,12.4003817 14.105934,12.3324271 C14.4180839,12.368403 14.6775332,12.5043122 14.8842819,12.744152 L16.8058282,15.4583386 L18.7273746,12.744152 C18.9016921,12.5043122 19.1611414,12.368403 19.5057225,12.3324271 C20.0935373,12.4003817 20.4219028,12.7241653 20.490819,13.3037781 C20.490819,13.5436178 20.4219028,13.7314923 20.2840704,13.8674015 L18.6219733,16.1738605 L19.7124711,16.1738605 C20.0570522,16.2418151 20.2678548,16.4296896 20.336771,16.7374839 C20.3002859,17.1132329 20.0935373,17.3011074 19.7124711,17.3011074 L17.7909248,17.3011074 L17.7909248,18.1725252 L19.7124711,18.1725252 C20.0570522,18.2404798 20.2678548,18.4283542 20.336771,18.7361486 C20.3002859,19.1118975 20.0935373,19.299772 19.7124711,19.299772 L17.7909248,19.299772 L17.7909248,20.8867117 C17.7544397,21.4663245 17.4260742,21.7581295 16.8058282,21.7581295 C16.1490972,21.7581295 15.8207317,21.4703218 15.8207317,20.8867117 L15.8207317,19.299772 L13.8991853,19.299772 C13.485688,19.299772 13.2748854,19.1118975 13.2748854,18.7361486 C13.3073166,18.4283542 13.5181192,18.2404798 13.8991853,18.1725252 L15.8207317,18.1725252 L15.8207317,17.3011074 L13.8991853,17.3011074 C13.485688,17.3011074 13.2748854,17.1132329 13.2748854,16.7374839 C13.3073166,16.4296896 13.5181192,16.2418151 13.8991853,16.1738605 L14.9896831,16.1738605 L13.3275861,13.8674015 C13.1573225,13.7314923 13.0843524,13.5436178 13.1208374,13.3037781 L13.1208374,13.3037781 Z" id="形状" fill="#FFD200"></path>
                        <path d="M14.5272756,15.6351009 L12.9979655,15.6351009 C12.4635597,15.7272668 12.1736161,15.9820785 12.1224496,16.399536 C12.1224496,16.9091595 12.4123932,17.1639712 12.9979655,17.1639712 L15.692735,17.1639712 L15.692735,18.3458639 L12.9979655,18.3458639 C12.4635597,18.4380298 12.1736161,18.6928416 12.1224496,19.1102991 C12.1224496,19.6199225 12.4123932,19.8747343 12.9979655,19.8747343 L15.692735,19.8747343 L15.692735,22.0270801 C15.692735,22.8132014 16.1532336,23.2089728 17.0742308,23.2089728 C17.9497467,23.2089728 18.4102453,22.8186229 18.4557266,22.0270801 L18.4557266,19.8747343 L21.1504962,19.8747343 C21.684902,19.8747343 21.9748455,19.6199225 22.026012,19.1102991 C21.9293642,18.6928416 21.6394206,18.4380298 21.1504962,18.3458639 L18.4557266,18.3458639 L18.4557266,17.1639712 L21.1504962,17.1639712 C21.684902,17.1639712 21.9748455,16.9091595 22.026012,16.399536 C21.9293642,15.9820785 21.6394206,15.7272668 21.1504962,15.6351009 L19.621186,15.6351009 L21.9521049,12.5068803 C22.1454006,12.3225484 22.2420484,12.0677367 22.2420484,11.7424451 C22.1454006,10.9563238 21.684902,10.5171802 20.8605526,10.4250143 C20.3773134,10.473808 20.0077774,10.6581399 19.7690004,10.9834315 L17.0742308,14.6646477 L14.3794612,10.9834315 C14.0895177,10.6581399 13.7256669,10.473808 13.287909,10.4250143 C12.4123932,10.5171802 11.9518946,10.9563238 11.9064132,11.7424451 C11.8552467,12.0677367 11.9518946,12.3225484 12.1963568,12.5068803 L14.5272756,15.6351009 L14.5272756,15.6351009 Z" id="形状" fill="#FFFFFF"></path>
                        <path d="M29.6079406,14.6118046 C30.1107354,14.4014788 30.4379983,13.9087154 30.4379983,13.3588636 L30.4379983,8.8278446 C30.4379983,7.31650337 29.2211754,6.08759966 27.7246915,6.08759966 L6.51805661,6.08759966 C5.0215727,6.08759966 3.80474979,7.31650337 3.80474979,8.8278446 L3.80474979,13.3588636 C3.80474979,13.9087154 4.12903756,14.4014788 4.63480747,14.6118046 C5.64337218,15.0324562 6.29194771,16.0179829 6.29194771,17.1176865 C6.29194771,18.21739 5.64039706,19.2029167 4.63480747,19.6235684 C4.13201267,19.8338942 3.80474979,20.3266575 3.80474979,20.8765093 L3.80474979,25.4075284 C3.80474979,26.9188696 5.0215727,28.1477733 6.51805661,28.1477733 L21.691154,28.1477733 C22.021392,28.1477733 22.2891525,27.8773544 22.2891525,27.5438377 C22.2891525,27.2103211 22.021392,26.9399022 21.691154,26.9399022 L6.51805661,26.9399022 C5.6820487,26.9399022 5.00372199,26.2548409 5.00372199,25.410533 L5.00372199,20.879514 C5.00372199,20.8194209 5.0394234,20.7653371 5.09595062,20.7412999 C6.5507829,20.131355 7.49389503,18.7101534 7.49389503,17.1176865 C7.49389503,15.5252196 6.55375802,14.104018 5.09595062,13.4940731 C5.0394234,13.4700359 5.00669711,13.4159521 5.00669711,13.355859 L5.00669711,8.8278446 C5.00669711,7.98353668 5.68502382,7.29847544 6.52103173,7.29847544 L27.7276666,7.29847544 C28.5636745,7.29847544 29.2420012,7.98353668 29.2420012,8.8278446 L29.2420012,13.3588636 C29.2420012,13.4189567 29.2062998,13.4730405 29.1527477,13.4970778 C27.6979154,14.1070226 26.7548033,15.5282242 26.7548033,17.1206911 C26.7548033,18.713158 27.6949403,20.1343596 29.1497726,20.7443045 C29.2062998,20.7683417 29.2420012,20.8224255 29.2420012,20.8825186 L29.2420012,25.4135377 C29.2420012,25.7470543 29.5097618,26.0174732 29.8399998,26.0174732 C30.1702378,26.0174732 30.4379983,25.7470543 30.4379983,25.4135377 L30.4379983,20.879514 C30.4379983,20.3296622 30.1137106,19.8368988 29.6079406,19.626573 C28.5993759,19.2059214 27.9508004,18.2203947 27.9508004,17.1206911 C27.9508004,16.0209876 28.5993759,15.0354609 29.6079406,14.6118046 Z M24.9094193,26.9472773 C25.2396574,26.9472773 25.5074179,27.2176962 25.5074179,27.5512129 C25.5074179,27.8847295 25.2396574,28.1551484 24.9094193,28.1551484 L24.9094193,28.1551484 L23.9960584,28.1551484 C23.6658204,28.1551484 23.3980598,27.8847295 23.3980598,27.5512129 C23.3980598,27.2176962 23.6658204,26.9472773 23.9960584,26.9472773 L23.9960584,26.9472773 Z M27.3260258,26.9399022 C27.6562638,26.9399022 27.9240243,27.2103211 27.9240243,27.5438377 C27.9240243,27.8773544 27.6562638,28.1477733 27.3260258,28.1477733 L27.3260258,28.1477733 L27.2754488,28.1477733 C26.9452108,28.1477733 26.6774503,27.8773544 26.6774503,27.5438377 C26.6774503,27.2103211 26.9452108,26.9399022 27.2754488,26.9399022 L27.2754488,26.9399022 Z" id="形状" stroke="#FFFFFF" stroke-width="0.760949958" fill="#FFFFFF"></path>
                    </g>
                </g>
            </g>
        </g>
    </g>
</svg>