<?xml version="1.0" encoding="UTF-8"?>
<svg width="325px" height="33px" viewBox="0 0 325 33" version="1.1" xmlns="http://www.w3.org/2000/svg" xmlns:xlink="http://www.w3.org/1999/xlink">
    <title>logo</title>
    <g id="最新版备份" stroke="none" stroke-width="1" fill="none" fill-rule="evenodd">
        <g id="行业案例" transform="translate(-120.000000, -18.000000)">
            <g id="logo" transform="translate(120.000000, 18.000000)">
                <g id="句子互动logo-源文件备份" fill="#FFFFFF" fill-rule="nonzero">
                    <g id="编组">
                        <path d="M14.0484008,-7.46069873e-13 C17.802001,-7.46069873e-13 21.0588012,1.38000008 23.8188014,4.14000024 C26.5788015,6.9000004 27.9312016,10.1568006 27.9588016,13.9380008 C27.9588016,22.3008013 22.1352013,28.4832016 10.4328006,32.4576019 L10.4328006,32.4576019 L10.4328006,27.3792016 C7.28640042,26.4960015 4.80240028,24.7848014 2.95320017,22.2456013 C1.10400006,19.7064011 0.16560001,16.946401 0.16560001,13.9380008 C0.16560001,10.1568006 1.51800009,6.9000004 4.27800025,4.14000024 C7.01040041,1.38000008 10.2672006,-7.46069873e-13 14.0484008,-7.46069873e-13 Z M8.83200051,13.1652008 C8.77680051,15.7596009 11.0676006,17.940001 13.9656008,17.995201 L14.2968008,17.995201 L14.2968008,17.995201 C14.2968008,17.995201 14.7936009,18.3540011 15.3180009,18.6300011 C15.9252009,18.9336011 16.670401,19.1544011 17.084401,19.0992011 C17.664001,19.0440011 17.746801,18.6852011 17.636401,18.4920011 C17.526001,18.3264011 17.332801,18.2988011 17.167201,18.1884011 C16.946401,18.050401 16.863601,17.967601 16.753201,17.774401 C16.642801,17.526001 16.753201,17.332801 17.001601,17.222401 C17.001601,17.222401 17.029201,17.194801 17.056801,17.167201 C18.3816011,16.3392009 19.2648011,14.9868009 19.3200011,13.4136008 C19.3752011,10.8192006 17.084401,8.6388005 14.1864008,8.5836005 C11.2884007,8.50080049 8.88720051,10.5708006 8.83200051,13.1652008 Z" id="形状结合"></path>
                        <path d="M78.0528045,12.6132007 L80.2608046,3.33960019 L77.1420045,3.33960019 L77.1420045,1.6560001 L91.9356053,1.6560001 L91.9356053,3.33960019 L82.1652048,3.33960019 L81.5028047,6.32040037 L90.9144053,6.32040037 L89.3964052,15.3180009 L92.5428054,15.3180009 L92.5428054,17.001601 L76.6176044,17.001601 L76.6176044,15.3180009 L87.4368051,15.3180009 L87.9612051,12.5856007 L78.0528045,12.5856007 L78.0528045,12.6132007 Z M88.1820051,11.0124006 L88.7064051,7.97640046 L81.1164047,7.97640046 L80.4540047,11.0400006 L88.1820051,11.0124006 L88.1820051,11.0124006 Z" id="形状"></path>
                        <polygon id="路径" points="73.4160042 8.91480052 66.9300039 8.91480052 66.9300039 8.11440047 72.0636042 2.89800017 72.0636042 1.6836001 58.9260034 1.6836001 58.9260034 3.33960019 69.110404 3.33960019 64.9704038 7.45200043 64.9704038 7.45200043 64.9704038 7.45200043 64.9704038 8.91480052 57.7392033 8.91480052 57.7392033 10.5984006 64.9704038 10.5984006 64.9704038 15.3180009 60.4992035 15.3180009 60.4992035 17.029201 66.9300039 17.029201 66.9300039 15.5388009 66.9300039 10.5984006 73.4160042 10.5984006"></polygon>
                        <polygon id="路径" points="101.264406 11.6472007 101.650806 14.8764009 97.8144057 14.8764009 99.0564057 8.52840049 103.472406 8.52840049 103.472406 6.8724004 95.6892055 6.8724004 95.6892055 8.52840049 97.2348056 8.52840049 95.6892055 16.560001 103.720806 16.560001 102.920406 11.3160007"></polygon>
                        <rect id="矩形" x="96.0756056" y="2.29080013" width="7.09320041" height="1.60080009"></rect>
                        <polygon id="路径" points="107.888406 2.76000016 108.054006 1.40760008 106.260006 1.21440007 106.094406 2.76000016 104.686806 2.76000016 104.686806 4.44360026 105.901206 4.44360026 104.493606 16.808401 106.260006 17.029201 107.722806 4.44360026 110.151606 4.44360026 109.930806 15.1800009 109.020006 15.1800009 109.020006 16.946401 111.918006 16.946401 112.056006 2.76000016"></polygon>
                        <polygon id="路径" points="41.7864024 1.7940001 42.1728024 0.441600026 40.4064023 0.220800013 39.9924023 1.7940001 39.9924023 1.7940001 39.5508023 3.4776002 39.5508023 3.4776002 38.1432022 8.11440047 39.9372023 8.30760048 41.3448024 3.4776002 51.777603 3.4776002 51.529203 15.1524009 48.4656028 15.1524009 48.4656028 16.918801 53.5164031 16.918801 53.6820031 1.7940001"></polygon>
                        <path d="M41.9796024,12.8616007 L49.6524029,12.8616007 L49.6524029,5.65800033 L41.9796024,5.65800033 L41.9796024,12.8616007 L41.9796024,12.8616007 Z M43.8840025,7.28640042 L47.7480028,7.28640042 L47.7480028,11.1780006 L43.8840025,11.1780006 L43.8840025,7.28640042 L43.8840025,7.28640042 Z" id="形状"></path>
                    </g>
                    <g id="编组" transform="translate(38.364002, 20.700001)">
                        <path d="M5.32680031,8.00400046 C5.32680031,10.4604006 4.30560025,11.7024007 2.26320013,11.7024007 C1.46280008,11.7024007 0.717600042,11.3988007 0.0552000032,10.7640006 L1.35240008,9.46680055 C1.6560001,9.93600058 1.98720012,10.1568006 2.34600014,10.1568006 C2.70480016,10.1568006 2.98080017,9.99120058 3.14640018,9.68760056 C3.33960019,9.38400054 3.4224002,8.7216005 3.4224002,7.70040045 L3.4224002,1.35240008 L5.32680031,1.35240008 L5.32680031,8.00400046 L5.32680031,8.00400046 Z" id="路径"></path>
                        <path d="M10.1568006,4.85760028 L10.1568006,8.41800049 C10.1568006,9.68760056 10.6536006,10.3224006 11.6472007,10.3224006 C12.6408007,10.3224006 13.1376008,9.68760056 13.1376008,8.41800049 L13.1376008,4.85760028 L14.9316009,4.85760028 L14.9316009,8.7216005 C14.9316009,10.6812006 13.8276008,11.6472007 11.6472007,11.6472007 C9.43920055,11.6472007 8.36280048,10.6812006 8.36280048,8.7216005 L8.36280048,4.85760028 L10.1568006,4.85760028 Z" id="路径"></path>
                        <polygon id="路径" points="24.0672014 10.1016006 24.0672014 11.4264007 17.222401 11.4264007 21.1968012 6.15480036 17.664001 6.15480036 17.664001 4.83000028 24.1500014 4.83000028 20.2308012 10.1016006"></polygon>
                        <path d="M28.7040017,2.07000012 C28.7040017,2.31840013 28.5936017,2.53920015 28.4004016,2.73240016 C28.1796016,2.92560017 27.9312016,3.00840017 27.6552016,3.00840017 C27.3792016,3.00840017 27.1308016,2.92560017 26.9100016,2.73240016 C26.6892015,2.53920015 26.6064015,2.31840013 26.6064015,2.07000012 C26.6064015,1.82160011 26.7168015,1.60080009 26.9100016,1.40760008 C27.1308016,1.21440007 27.3792016,1.13160007 27.6552016,1.13160007 C27.9312016,1.13160007 28.1796016,1.21440007 28.4004016,1.40760008 C28.5936017,1.60080009 28.7040017,1.82160011 28.7040017,2.07000012 Z M28.5384017,11.4264007 L26.7444015,11.4264007 L26.7444015,4.85760028 L28.5384017,4.85760028 L28.5384017,11.4264007 Z" id="形状"></path>
                        <path d="M34.444802,10.4880006 C34.444802,10.8192006 34.306802,11.0952006 34.058402,11.3436007 C33.810002,11.5920007 33.4788019,11.7024007 33.1200019,11.7024007 C32.7612019,11.7024007 32.4300019,11.5920007 32.1816019,11.3436007 C31.9332018,11.1228006 31.7952018,10.8192006 31.7952018,10.5156006 C31.7952018,10.1844006 31.9332018,9.90840057 32.1816019,9.68760056 C32.4300019,9.46680055 32.7612019,9.32880054 33.1200019,9.32880054 C33.4788019,9.32880054 33.810002,9.43920055 34.058402,9.66000056 C34.334402,9.85320057 34.444802,10.1568006 34.444802,10.4880006 Z" id="路径"></path>
                        <path d="M37.4532022,0.0552000032 L39.2472023,0.0552000032 L39.2472023,5.46480032 C39.7716023,4.91280028 40.5444023,4.63680027 41.5656024,4.63680027 C42.5316025,4.63680027 43.3320025,4.96800029 43.9668025,5.65800033 C44.6016026,6.34800037 44.9328026,7.14840041 44.9328026,8.08680047 C44.9328026,9.10800053 44.6292026,9.93600058 43.9944025,10.6260006 C43.3596025,11.3160007 42.5316025,11.6472007 41.5380024,11.6472007 C40.4616023,11.6472007 39.7164023,11.3712007 39.2748023,10.8192006 L39.2472023,11.4264007 L37.4532022,11.4264007 L37.4532022,0.0552000032 Z M43.1112025,8.11440047 C43.1112025,7.56240044 42.9180025,7.06560041 42.5316025,6.65160038 C42.1452024,6.23760036 41.6484024,6.01680035 41.0688024,6.01680035 C40.4616023,6.01680035 39.9924023,6.23760036 39.6060023,6.65160038 C39.2472023,7.06560041 39.0540023,7.56240044 39.0540023,8.14200047 C39.0540023,8.7216005 39.2472023,9.21840053 39.6336023,9.63240056 C40.0200023,10.0464006 40.5168023,10.2672006 41.0688024,10.2672006 C41.6760024,10.2672006 42.1728024,10.0740006 42.5592025,9.66000056 C42.9456025,9.21840053 43.1112025,8.7216005 43.1112025,8.11440047 Z" id="形状"></path>
                        <path d="M54.5928032,8.11440047 C54.5928032,9.13560053 54.2340031,9.99120058 53.5440031,10.6536006 C52.8264031,11.3160007 51.915603,11.6472007 50.7564029,11.6472007 C49.5972029,11.6472007 48.6864028,11.3160007 47.9412028,10.6536006 C47.2236027,9.99120058 46.8648027,9.16320053 46.8648027,8.14200047 C46.8648027,7.12080041 47.2236027,6.26520036 47.9136028,5.63040033 C48.6312028,4.96800029 49.5420029,4.63680027 50.7012029,4.63680027 C51.860403,4.63680027 52.7988031,4.96800029 53.5164031,5.60280032 C54.2340031,6.26520036 54.5928032,7.09320041 54.5928032,8.11440047 Z M48.6864028,8.14200047 C48.6864028,8.74920051 48.8796028,9.27360054 49.2660029,9.66000056 C49.6524029,10.0464006 50.1492029,10.2396006 50.7564029,10.2396006 C51.363603,10.2396006 51.860403,10.0188006 52.219203,9.60480056 C52.578003,9.19080053 52.7712031,8.6940005 52.7712031,8.11440047 C52.7712031,7.53480044 52.578003,7.03800041 52.219203,6.62400038 C51.860403,6.21000036 51.363603,5.98920035 50.7564029,5.98920035 C50.1492029,5.98920035 49.6524029,6.18240036 49.2660029,6.59640038 C48.8796028,7.03800041 48.6864028,7.53480044 48.6864028,8.14200047 Z" id="形状"></path>
                        <path d="M60.7476035,10.2120006 C60.0852035,10.1292006 59.6160035,9.90840057 59.3676034,9.52200055 C59.2848034,9.32880054 59.2296034,8.80440051 59.2020034,8.33520048 L59.1744034,7.12080041 L59.1744034,7.12080041 L59.1744034,7.03800041 L59.1744034,7.03800041 L59.1744034,6.8724004 L59.1744034,6.8724004 L59.1744034,6.54120038 L60.4164035,6.54120038 L60.4164035,4.96800029 L59.1744034,4.96800029 L59.1744034,2.62200015 L57.4080033,2.62200015 L57.4080033,4.60920027 L57.4080033,4.60920027 L57.4080033,4.96800029 L56.1936033,4.96800029 L56.1936033,6.56880038 L57.4080033,6.56880038 L57.4080033,8.16960047 L57.4080033,8.16960047 C57.4080033,9.19080053 57.5184033,10.2672006 57.9048034,10.7364006 C58.4844034,11.4264007 59.3952034,11.7576007 60.5268035,11.7576007 L61.4376036,11.7576007 L61.4376036,10.2120006 L60.7476035,10.2120006 Z" id="路径"></path>
                    </g>
                </g>
                <g id="编组-4" transform="translate(130.000000, 2.000000)">
                    <rect id="矩形备份" stroke="#FFFFFF" x="-0.5" y="-0.5" width="195" height="31" rx="4"></rect>
                    <text id="企业微信官方服务商备份" font-family="PingFangSC-Regular, PingFang SC" font-size="16" font-weight="normal" fill="#FFFFFF">
                        <tspan x="40" y="21">企业微信官方服务商</tspan>
                    </text>
                    <g id="编组备份" transform="translate(10.000000, 5.000000)" fill="#FFFFFF" fill-rule="nonzero">
                        <path d="M15.0940665,16.092749 C15.0274334,16.1587483 14.9933966,16.2507564 15.0010646,16.3441509 C15.0087326,16.4375454 15.0573227,16.522792 15.1338317,16.5770779 C15.823843,17.2222671 16.2680041,18.0866619 16.39041,19.0225418 C16.5666377,19.6681778 17.1971292,20.0815336 17.8606154,19.9864215 C18.5241015,19.8913093 19.0126155,19.3175416 18.9997518,18.6484869 C18.9868881,17.9794323 18.4766789,17.424803 17.8100254,17.35518 C16.9368813,17.1921861 16.1409742,16.7488912 15.5434126,16.092749 C15.4192412,15.9690837 15.2182379,15.9690837 15.0940665,16.092749 Z" id="路径"></path>
                        <path d="M21.7343288,14.3904498 C21.5198524,14.6046699 21.385528,14.8862553 21.353913,15.1879189 C21.1931024,16.0600011 20.7519799,16.8555495 20.0977484,17.4533662 C20.0098912,17.537615 19.977936,17.6647708 20.0155074,17.780618 C20.0530789,17.8964651 20.1535493,17.9805677 20.274081,17.9970667 C20.3946126,18.0135657 20.5139432,17.9595506 20.5811935,17.858052 C21.225004,17.169336 22.0879234,16.7261285 23.0221948,16.6043194 C23.5592734,16.4587916 23.9481003,15.9924865 23.9952197,15.4374084 C24.0423391,14.8823303 23.7376888,14.3570135 23.2328437,14.1228226 C22.7279987,13.8886318 22.1307661,13.9955773 21.7382915,14.3904498 L21.7343288,14.3904498 Z" id="路径"></path>
                        <path d="M18.3873613,9.38828268 C18.0267731,9.7496965 17.905688,10.2859798 18.0760139,10.7672343 C18.2463398,11.2484888 18.6778312,11.5892562 19.1855128,11.6434537 C20.0583412,11.8045772 20.8545702,12.2465576 21.4528984,12.9020615 C21.5372194,12.9900895 21.664484,13.0221069 21.7804303,12.9844624 C21.8963765,12.9468179 21.9805511,12.846152 21.9970642,12.725386 C22.0135773,12.6046199 21.959516,12.4850572 21.8579306,12.4176762 C21.1688928,11.7724117 20.7253584,10.9079162 20.6031252,9.97192729 C20.477116,9.51736595 20.1190968,9.16394659 19.6628992,9.04378161 C19.2067017,8.92361663 18.7210023,9.05479577 18.3873613,9.38828268 L18.3873613,9.38828268 Z" id="路径"></path>
                        <path d="M16.4722534,11.0813279 L16.4485373,11.1051123 C15.8041244,11.8169747 14.9286763,12.2763285 13.9781154,12.4013602 C13.5216426,12.5219215 13.1649048,12.87906 13.0438893,13.3366354 C12.9228737,13.7942109 13.0562286,14.2817125 13.3931195,14.6133062 C13.7529224,14.9732731 14.2868154,15.0941495 14.7659249,14.9241171 C15.2450344,14.7540847 15.584283,14.3233368 15.6382389,13.8165299 C15.799992,12.944797 16.2413796,12.1499596 16.8951896,11.5530512 C17.0250782,11.4359241 17.0356962,11.2353751 16.9189056,11.1051123 C16.802115,10.9748496 16.602142,10.9642009 16.4722534,11.0813279 Z" id="路径"></path>
                        <path d="M8.74079818,0.0651586413 C6.24440418,0.333306043 3.98139593,1.37339294 2.35603089,2.9985287 C1.71005248,3.64045733 1.18493454,4.36364275 0.797347492,5.13558224 C-0.433535138,7.55092082 -0.227858245,10.4264043 1.33496824,12.6518352 C1.77673412,13.3018895 2.50189698,14.1144574 3.16454581,14.6913806 L2.86447842,16.9909477 L2.83113759,17.0884558 C2.82280239,17.1168957 2.82280239,17.1493984 2.81863479,17.1778383 L2.81029958,17.2509694 L2.81863479,17.3241005 C2.84104443,17.5774029 2.99537068,17.801718 3.2272661,17.9180513 C3.45916152,18.0343846 3.73610108,18.0264195 3.96055792,17.8969609 L3.97306073,17.8969609 L4.01890435,17.8644582 L4.73573201,17.515054 L6.87371218,16.4668414 C7.88967605,16.7515528 8.94233168,16.8924835 9.99941418,16.8853139 C11.3065802,16.8881979 12.6041925,16.6681991 13.8336086,16.2352595 C13.2166955,16.0367373 12.8236064,15.4475763 12.8875628,14.8173286 C11.6160445,15.2158155 10.2721054,15.3460001 8.94501071,15.1992355 L8.73246297,15.1707956 C8.25331684,15.1097967 7.77962279,15.0133648 7.31547807,14.882334 C7.06247326,14.8056683 6.78828106,14.8335732 6.55697438,14.959528 L6.49862794,14.9879678 L4.73989962,15.995552 L4.66488277,16.0402433 C4.62320674,16.0646203 4.60236873,16.072746 4.58153072,16.072746 C4.51641635,16.0684011 4.46660251,16.0144437 4.46900544,15.9508608 L4.53568709,15.6867762 L4.61487154,15.3983146 L4.73989962,14.9229624 L4.88576571,14.3947933 C4.98298982,14.099843 4.87551712,13.7773444 4.61903914,13.5944139 C3.92783314,13.0942341 3.32768929,12.4844556 2.8436404,11.7905132 C1.60811419,10.0386401 1.44226366,7.77199044 2.41020972,5.86689334 C2.72694753,5.24934175 3.14370779,4.67648139 3.66049053,4.16050078 C4.99412338,2.81976377 6.86954458,1.96656749 8.94501071,1.74717416 C9.66244058,1.67001821 10.386399,1.67001821 11.1038289,1.74717416 C13.1667922,1.97875601 15.0338782,2.84414081 16.3591759,4.17675214 C16.871791,4.69273274 17.2885513,5.27371878 17.5969538,5.89127037 C18.0095465,6.71196394 18.2179266,7.58141157 18.2179266,8.47117341 C18.2179266,8.56461871 18.2095914,8.65806402 18.2054238,8.74744649 C18.7526161,8.4189451 19.4595796,8.49963101 19.9141409,8.94246278 L19.976655,9.01559389 C20.0836334,7.68860594 19.8216019,6.3580482 19.2181513,5.16402212 C18.8231606,4.37674259 18.3027033,3.65544842 17.6761383,3.02696858 C15.9702715,1.3552167 13.7228359,0.311433038 11.3163766,0.0732843202 C10.4607622,-0.0216315293 9.59702486,-0.0243565297 8.74079818,0.0651586413 Z" id="路径"></path>
                    </g>
                </g>
            </g>
        </g>
    </g>
</svg>