<?xml version="1.0" encoding="UTF-8"?>
<svg width="316px" height="215px" viewBox="0 0 316 215" version="1.1" xmlns="http://www.w3.org/2000/svg" xmlns:xlink="http://www.w3.org/1999/xlink">
    <title>team_presentation_two_color</title>
    <g id="最新版备份" stroke="none" stroke-width="1" fill="none" fill-rule="evenodd">
        <g id="企微SCRM-新版" transform="translate(-263.000000, -1405.000000)" fill-rule="nonzero">
            <g id="2备份" transform="translate(0.000000, 1023.000000)">
                <g id="team_presentation_two_color" transform="translate(263.000000, 382.000000)">
                    <path d="M201.317969,98.9651578 C196.948487,109.706964 196.728033,121.689502 200.699437,132.584764 C207.360553,151.093151 192.877383,160.437746 220.901651,162.921391 C248.92592,165.405036 201.317969,98.9651578 201.317969,98.9651578 Z" id="路径" fill="#FC790D"></path>
                    <path d="M201.317969,98.9651578 C196.948487,109.706964 196.728033,121.689502 200.699437,132.584764 C207.360553,151.093151 192.877383,160.437746 220.901651,162.921391 C248.92592,165.405036 201.317969,98.9651578 201.317969,98.9651578 Z" id="路径" fill="#FFFFFF" opacity="0.46"></path>
                    <ellipse id="椭圆形" fill="#E6E6E6" opacity="0.45" cx="157.963617" cy="203.906289" rx="157.649593" ry="10.2105398"></ellipse>
                    <polygon id="路径" fill="#A5A5A5" points="124.039503 201.679573 119.95719 198.644007 137.78995 174.644956 137.78995 133.317487 142.871431 133.317487 142.871431 176.329267"></polygon>
                    <rect id="矩形" fill="#A5A5A5" transform="translate(148.731384, 187.117444) rotate(-35.830000) translate(-148.731384, -187.117444) " x="146.190644" y="171.007058" width="5.08148022" height="32.2207716"></rect>
                    <rect id="矩形" fill="#E6E6E6" x="96.3768383" y="10.5245639" width="87.9172205" height="124.324979"></rect>
                    <path d="M218.151562,61.1490485 C217.456556,63.675803 217.101342,66.2839023 217.095299,68.9044911 C217.13918,69.5317572 217.430593,70.1158577 217.905357,70.5281528 C218.380121,70.940448 218.999298,71.1471226 219.626523,71.1026595 C221.687442,71.0947224 223.551096,69.8758924 224.384464,67.9909666 L226.516021,64.1846144 C227.217269,62.5463844 226.817859,60.6444306 225.516853,59.4266741 C223.223526,57.0952833 218.77961,58.3513796 218.151562,61.1490485 Z" id="路径" fill="#F4A28C"></path>
                    <polygon id="路径" fill="#F4A28C" points="225.602496 65.1362024 229.304174 80.1141984 220.901651 81.5606123 221.567763 70.3699367"></polygon>
                    <path d="M217.504482,64.051392 L215.886782,65.5929647 C215.699827,65.7705226 215.61691,66.0315049 215.667105,66.2844074 C215.717299,66.5373099 215.893601,66.7468444 216.134195,66.839545 L217.837538,67.5056567 L217.504482,64.051392 Z" id="路径" fill="#F4A28C"></path>
                    <path d="M221.548731,70.6934767 C221.548731,70.6934767 224.403495,69.3707693 225.193313,68.200316 C225.193313,68.200316 225.031543,74.3570907 221.225191,76.1460762 L221.548731,70.6934767 Z" id="路径" fill="#CE8172" opacity="0.31"></path>
                    <path d="M222.833375,65.4216788 C222.833375,65.4216788 223.194978,63.6422092 224.50817,64.0323603 C225.821362,64.4225114 225.307504,66.9917991 223.442391,66.8871244 L222.833375,65.4216788 Z" id="路径" fill="#F4A28C"></path>
                    <path d="M228.276459,63.1473834 L227.324871,64.850726 C227.324871,64.850726 226.135386,69.1994834 223.242558,71.4547471 C220.34973,73.7100108 216.267417,73.2342168 215.91533,70.1796191 C215.515663,66.6682592 217.866085,67.5056567 221.015842,67.3248549 C224.165598,67.1440532 223.680288,62.9570658 223.680288,62.9570658 C222.493004,62.9616856 221.380756,62.3770425 220.711334,61.3964614 L218.808158,60.4448733 C217.959955,60.012503 217.342011,59.2322837 217.115408,58.3075982 C216.888805,57.3829128 217.075998,56.4053875 217.628188,55.6298377 C218.262826,54.6538206 219.258687,53.9693804 220.39731,53.7266616 C223.680288,53.1937723 231.350088,58.1039667 228.276459,63.1473834 Z" id="路径" fill="#24285B"></path>
                    <path d="M225.526369,63.5851139 C225.526369,63.5851139 227.810181,62.2338588 228.657094,64.051392 C229.504007,65.8689252 226.953751,67.2963073 225.221861,66.1924652 C225.62933,65.3869528 225.737255,64.4628428 225.526369,63.5851139 L225.526369,63.5851139 Z" id="路径" fill="#F4A28C"></path>
                    <rect id="矩形" fill="#E6E6E6" x="206.818148" y="164.244098" width="54.5545432" height="38.9865626"></rect>
                    <polygon id="路径" fill="#000000" opacity="0.08" points="221.225191 203.230661 218.598808 168.90688 207.655546 170.572159 204.401114 183.742138 206.827664 203.230661"></polygon>
                    <path d="M219.816841,198.720134 C219.816841,198.720134 218.646388,201.974565 215.70598,202.221978 C212.765573,202.469391 212.004303,205.343187 214.640202,206.085425 C217.276101,206.827664 224.089471,203.44001 224.089471,203.44001 L223.899154,199.205444 L219.816841,198.720134 Z" id="路径" fill="#FC790D"></path>
                    <path d="M220.18796,81.3988423 L228.590483,79.9429126 C228.590483,79.9429126 256.529108,79.990492 261.420271,89.5539519 C266.311433,99.1174119 265.283718,134.744869 249.116237,163.977654 L216.02952,164.929242 C216.02952,164.929242 217.866085,143.461415 211.699795,131.766398 C205.533504,120.071381 186.368521,95.2254167 220.18796,81.3988423 Z" id="路径" fill="#FC790D"></path>
                    <path d="M249.116237,163.977654 L232.93924,161.532072 C228.201924,160.81814 223.400819,162.336149 219.935022,165.643733 C216.469225,168.951317 214.728705,173.676309 215.220671,178.441792 L217.333196,199.00561 L225.278956,199.00561 L224.574781,179.745468 C224.495908,177.565585 225.397437,175.464948 227.031828,174.020345 C228.666219,172.575743 230.861673,171.939024 233.015367,172.285017 C239.904865,173.398376 248.44061,172.913066 249.116237,163.977654 Z" id="路径" fill="#24285B"></path>
                    <path d="M203.373399,198.720134 C203.373399,198.720134 202.202946,201.974565 199.272055,202.221978 C196.341164,202.469391 195.570377,205.343187 198.206276,206.085425 C200.842175,206.827664 207.655546,203.44001 207.655546,203.44001 L207.465228,199.205444 L203.373399,198.720134 Z" id="路径" fill="#FC790D"></path>
                    <path d="M246.280505,92.9891848 C246.280505,92.9891848 237.107196,101.030104 238.953277,109.90842 C239.248269,111.345318 239.562293,113.077209 239.904865,114.980385 C242.327652,129.889169 237.965477,145.100948 228.010014,156.460108 L222.233875,163.121225 L249.154301,164.025233 L251.457144,159.514706 L264.027622,138.579769 L246.280505,92.9891848 Z" id="路径" fill="#000000" opacity="0.08"></path>
                    <path d="M232.644248,163.977654 L216.467251,161.532072 C211.729935,160.81814 206.92883,162.336149 203.463033,165.643733 C199.997236,168.951317 198.256716,173.676309 198.748681,178.441792 L200.861207,199.00561 L208.797451,199.00561 L208.112308,179.745468 C208.033435,177.565585 208.934964,175.464948 210.569355,174.020345 C212.203746,172.575743 214.3992,171.939024 216.552894,172.285017 C223.432875,173.398376 231.96862,172.913066 232.644248,163.977654 Z" id="路径" fill="#24285B"></path>
                    <path d="M261.886549,90.4008653 C268.014776,99.031769 273.45786,118.082562 268.728467,144.926861 C267.286035,153.095923 260.448667,159.222048 252.170835,159.762119 L226.88714,161.360787 L226.88714,153.110518 L246.052124,150.350913 C248.179823,150.044573 250.067506,148.823981 251.219937,147.009359 C252.372368,145.194737 252.674522,142.967206 252.047128,140.911159 C248.659475,129.768063 243.425741,109.575365 244.776996,95.1873532 C245.595361,86.4232272 256.795553,83.2829866 261.886549,90.4008653 Z" id="路径" fill="#FC790D"></path>
                    <path d="M261.886549,90.4008653 C268.014776,99.031769 273.45786,118.082562 268.728467,144.926861 C267.286035,153.095923 260.448667,159.222048 252.170835,159.762119 L226.88714,161.360787 L226.88714,153.110518 L246.052124,150.350913 C248.179823,150.044573 250.067506,148.823981 251.219937,147.009359 C252.372368,145.194737 252.674522,142.967206 252.047128,140.911159 C248.659475,129.768063 243.425741,109.575365 244.776996,95.1873532 C245.595361,86.4232272 256.795553,83.2829866 261.886549,90.4008653 Z" id="路径" fill="#FFFFFF" opacity="0.46"></path>
                    <path d="M226.839561,155.108853 C226.839561,155.108853 216.581441,154.851924 218.037371,160.199849 C219.493301,165.547774 226.839561,161.360787 226.839561,161.360787 L226.839561,155.108853 Z" id="路径" fill="#F4A28C"></path>
                    <polygon id="路径" fill="#FFD200" points="192.696581 163.282994 188.557173 139.864412 217.932697 139.864412 220.482953 159.82873 233.957439 160.019047 233.957439 163.282994"></polygon>
                    <circle id="椭圆形" fill="#FFFFFF" cx="204.401114" cy="151.093151" r="2.94040709"></circle>
                    <rect id="矩形" fill="#FFFFFF" x="110.07019" y="26.0069016" width="59.9500475" height="45.1052738"></rect>
                    <rect id="矩形" fill="#A5A5A5" x="117.054847" y="46.8657117" width="8.32639549" height="17.1095532"></rect>
                    <rect id="矩形" fill="#A5A5A5" x="128.740348" y="38.0635222" width="8.32639549" height="25.9117428"></rect>
                    <rect id="矩形" fill="#A5A5A5" x="141.253731" y="51.0241515" width="8.32639549" height="12.9606293"></rect>
                    <rect id="矩形" fill="#A5A5A5" x="153.45309" y="35.6845521" width="8.32639549" height="28.2907129"></rect>
                    <rect id="矩形" fill="#C9C9C9" x="96.3768383" y="116.569537" width="87.9172205" height="18.2800066"></rect>
                    <rect id="矩形" fill="#A5A5A5" opacity="0.66" x="110.07019" y="82.5502638" width="59.9500475" height="8.02188731"></rect>
                    <rect id="矩形" fill="#A5A5A5" opacity="0.25" x="110.07019" y="97.2998787" width="59.9500475" height="8.02188731"></rect>
                    <path d="M141.253731,71.1121754 C141.253731,71.1121754 149.722865,68.0670936 148.733213,79.9429126 C147.743562,91.8187315 146.354243,122.678732 96.39587,134.849543 L96.39587,112.963018 L117.045331,106.815759 L133.936019,95.8724966 L137.228514,77.8779665 L141.253731,71.1121754 Z" id="路径" fill="#000000" opacity="0.08"></path>
                    <path d="M285.971243,192.829804 C285.971243,192.829804 277.863712,190.612603 276.103274,183.076026 C276.103274,183.076026 288.664237,180.535286 289.016324,193.543495 L285.971243,192.829804 Z" id="路径" fill="#FC790D" opacity="0.58"></path>
                    <path d="M286.960894,192.020954 C286.960894,192.020954 281.298945,183.076026 286.285267,174.702051 C286.285267,174.702051 295.801147,180.763667 291.585612,192.039986 L286.960894,192.020954 Z" id="路径" fill="#FC790D" opacity="0.73"></path>
                    <path d="M288.42634,192.03047 C288.42634,192.03047 291.414326,182.5812 300.454413,180.782699 C300.454413,180.782699 302.148239,186.920442 294.602146,192.059017 L288.42634,192.03047 Z" id="路径" fill="#FC790D"></path>
                    <polygon id="路径" fill="#24285B" points="282.545526 191.811604 284.191773 203.049859 294.535535 203.097439 296.058076 191.8687"></polygon>
                    <path d="M68.8569117,69.713341 C68.8569117,69.713341 82.2647874,75.5656075 92.5229067,90.7339211 C102.781026,105.902235 129.558714,100.868334 134.468908,77.5734583 C134.468908,77.5734583 136.476759,66.6492274 140.045214,67.1059897 C143.613669,67.562752 140.045214,75.3562581 140.045214,75.3562581 C140.045214,75.3562581 144.955409,75.5751234 144.508162,79.3719597 C144.060916,83.1687961 138.037363,86.7277354 138.037363,86.7277354 C138.037363,86.7277354 127.569895,133.136685 76.4601003,105.026774 L68.8569117,69.713341 Z" id="路径" fill="#F4A28C"></path>
                    <path d="M61.7104854,51.947192 C61.7104854,51.947192 69.1709358,64.4129955 60.6161592,67.6198472 C52.0613825,70.826699 52.4325019,48.3216415 52.4325019,48.3216415 L61.7104854,51.947192 Z" id="路径" fill="#24285B"></path>
                    <path d="M43.0403278,64.4700908 C43.0403278,64.4700908 18.8509594,75.4799646 19.1459517,92.8559625 C19.440944,110.23196 37.7304664,140.692294 37.7304664,140.692294 L76.6599338,140.692294 L76.6599338,120.537659 C76.6744197,114.322972 78.0414581,108.185911 80.6661195,102.552645 C84.6342417,94.0549634 86.7848307,78.3347287 60.2069763,64.4891225 L43.0403278,64.4700908 Z" id="路径" fill="#FC790D"></path>
                    <path d="M47.6555298,67.4390455 C47.6555298,67.4390455 57.3426962,74.1858048 60.2164922,64.4700908 L51.2810803,64.4700908 L47.6555298,67.4390455 Z" id="路径" fill="#FFFFFF"></path>
                    <path d="M59.43619,42.8785578 C60.6029181,45.3643164 61.4318097,47.9950071 61.900803,50.7006116 C62.0394337,52.0660611 61.0484018,53.2867742 59.6836029,53.4316693 C57.558219,53.7688773 55.4313979,52.8356044 54.2405192,51.0431833 L51.385755,47.5127916 C50.3572952,45.9385383 50.4335681,43.8867962 51.5760726,42.3932479 C53.460217,39.5479996 58.2847684,40.0904048 59.43619,42.8785578 Z" id="路径" fill="#F4A28C"></path>
                    <polygon id="路径" fill="#F4A28C" points="52.4420178 48.3216415 51.2810803 64.4700908 60.2164922 64.4700908 57.5425297 53.0224865"></polygon>
                    <path d="M60.6161592,45.7618696 L62.5193353,47.0655452 C62.7469522,47.2105639 62.8847621,47.4617682 62.8847621,47.7316569 C62.8847621,48.0015455 62.7469522,48.2527498 62.5193353,48.3977685 L60.863572,49.3493566 L60.6161592,45.7618696 Z" id="路径" fill="#F4A28C"></path>
                    <path d="M57.6186568,53.3460264 C56.5387773,53.153572 55.5319477,52.6698989 54.7067973,51.947192 C54.7067973,51.947192 54.1263286,55.449036 58.3894431,56.6194893 L57.6186568,53.3460264 Z" id="路径" fill="#CE8172" opacity="0.31"></path>
                    <path d="M56.1436953,45.2670438 L54.0597174,45.9807349 C54.0597174,45.9807349 56.3340129,54.8875991 53.3269946,62.6335258 C52.3845392,64.9413643 50.4249857,66.6815701 48.0219549,67.3447321 C45.6189241,68.007894 43.0442097,67.5190056 41.0515087,66.0211793 L39.2434914,64.7079878 C38.2354893,63.9556598 37.6718934,62.7480087 37.7427239,61.4922027 C37.8135544,60.2363967 38.5093728,59.0997797 39.595579,58.4655701 C42.9832325,56.4672352 46.5041083,52.8892641 45.8570284,46.8181323 C45.0862421,39.6621902 51.5665567,35.3419804 56.24837,36.5029178 C58.2225233,37.0609208 59.5770038,38.8737161 59.5525034,40.925069 C59.5280029,42.9764218 58.1306126,44.75635 56.1436953,45.2670438 Z" id="路径" fill="#24285B"></path>
                    <path d="M55.3538772,48.121808 C55.3538772,48.121808 54.6592179,46.3518542 53.374574,46.9894182 C52.0899302,47.6269822 53.0700659,50.1867541 54.9827579,49.7490236 L55.3538772,48.121808 Z" id="路径" fill="#F4A28C"></path>
                    <polygon id="路径" fill="#F4A28C" points="41.0990881 173.379344 45.0196309 202.241009 48.4263162 200.984913 50.0725635 170.096365"></polygon>
                    <polygon id="路径" fill="#F4A28C" points="76.8121879 173.769495 90.4960241 199.195928 93.9978681 199.195928 86.1853302 170.971826"></polygon>
                    <path d="M45.0481786,200.356865 C45.0481786,200.356865 42.8975896,202.811962 40.2902383,202.545518 C37.682887,202.279073 37.1499977,205.914139 41.3179534,205.752369 C42.6159037,205.710143 43.9081315,205.56055 45.1814009,205.305123 C46.3519857,205.096682 47.5568842,205.201741 48.6737291,205.609631 C49.122523,205.740481 49.6052608,205.577034 49.8822459,205.200448 C51.1288262,203.877741 48.4072844,200.537667 48.4072844,200.537667 L45.0481786,200.356865 Z" id="路径" fill="#FC790D"></path>
                    <path d="M93.9598046,198.701102 C93.9598046,198.701102 95.4728296,201.555866 98.0326015,201.955533 C100.592373,202.3552 100.278349,205.971235 96.2721636,204.810297 C95.0082177,204.463504 93.7787023,204.00164 92.5990337,203.430495 C91.518923,202.960604 90.3341332,202.783378 89.1638008,202.916637 C88.6986339,202.930914 88.2720952,202.659137 88.0885063,202.231494 C87.6127123,201.394096 88.354951,200.271222 89.1542849,199.376729 C89.9517585,198.512024 91.138905,198.119906 92.2945255,198.339498 L93.9598046,198.701102 Z" id="路径" fill="#FC790D"></path>
                    <rect id="矩形" fill="#FFD200" x="61.8627395" y="103.304399" width="10.3627939" height="15.3205677"></rect>
                    <path d="M41.3084375,77.8779665 C41.3084375,77.8779665 53.9169792,88.4976892 46.447013,100.868334 C38.9770468,113.238979 41.270374,126.094933 55.3538772,123.19259 L69.4373804,120.28073 L69.4373804,120.28073 C69.4373804,120.28073 76.0984968,131.747366 63.4423757,133.793281 L65.250393,140.673262 L37.7304664,140.673262 L34.6378052,133.412645 L29.2803645,124.401107 L16.728918,114.057344 L41.3084375,77.8779665 Z" id="路径" fill="#000000" opacity="0.08"></path>
                    <path d="M42.1363191,81.1990088 C41.8778057,77.5872949 39.6132457,74.4266324 36.2765005,73.0204183 C32.9397553,71.6142042 29.0960446,72.2006406 26.3304415,74.5378924 C21.2108978,78.8581022 15.8629729,85.2622898 13.7694792,94.1120587 C9.30653119,113.077209 7.56512504,129.587261 19.1459517,133.602963 C30.7267783,137.618665 61.9198348,125.57156 61.9198348,125.57156 C61.9198348,125.57156 71.5594218,125.57156 72.2255334,118.653515 C72.8916451,111.73547 63.1854469,114.342821 60.6161592,120.661365 C60.6161592,120.661365 22.9237563,131.813977 27.8244348,113.74332 C31.630787,99.7073965 43.0498436,94.3594716 42.1363191,81.1990088 Z" id="路径" fill="#F4A28C"></path>
                    <rect id="矩形" fill="#FC790D" transform="translate(135.912635, 85.393894) rotate(21.280000) translate(-135.912635, -85.393894) " x="130.893008" y="83.3860434" width="10.039254" height="4.0157016"></rect>
                    <polygon id="路径" fill="#24285B" points="76.6599338 140.692294 93.8075505 183.742138 33.3150978 187.120275 37.7304664 140.692294"></polygon>
                    <path d="M54.0787492,45.9807349 L63.5946298,43.7730506 C63.5946298,43.7730506 60.6161592,33.7337966 52.4325019,36.6171084 L54.0787492,45.9807349 Z" id="路径" fill="#24285B"></path>
                    <rect id="矩形" fill="#FFD200" x="163.159288" y="0.0761270445" width="37.6733711" height="28.5476417"></rect>
                    <polygon id="路径" fill="#FFFFFF" points="174.540281 7.68883149 174.540281 21.3346042 189.76569 14.3499479"></polygon>
                    <polygon id="路径" fill="#E6E6E6" points="43.420963 6.8038546 43.420963 20.1070556 52.023319 20.1070556 53.8979475 25.4074011 56.1246635 20.1070556 64.7270196 20.1070556 64.7270196 6.8038546"></polygon>
                    <circle id="椭圆形" fill="#A5A5A5" cx="48.759372" cy="13.1223993" r="1.38931856"></circle>
                    <circle id="椭圆形" fill="#A5A5A5" cx="54.0692333" cy="13.1223993" r="1.38931856"></circle>
                    <circle id="椭圆形" fill="#A5A5A5" cx="59.3410312" cy="13.1223993" r="1.38931856"></circle>
                </g>
            </g>
        </g>
    </g>
</svg>